<svg width="46" height="46" viewBox="0 0 46 46" fill="none" xmlns="http://www.w3.org/2000/svg">
<path fill-rule="evenodd" clip-rule="evenodd" d="M17.2482 28.75C19.5384 28.75 21.7321 29.6585 23.3502 31.2754C24.9642 32.8946 25.8738 35.0865 25.8738 37.375V38.8125C25.8738 41.1953 23.9419 43.125 21.5631 43.125H7.18571C4.80694 43.125 2.875 41.1953 2.875 38.8125V37.375C2.875 35.0865 3.78458 32.8946 5.39861 31.2754C7.01666 29.6585 9.21037 28.75 11.5006 28.75H17.2482ZM14.3744 11.5C18.3431 11.5 21.5631 14.72 21.5631 18.6875C21.5631 22.655 18.3431 25.875 14.3744 25.875C10.4058 25.875 7.18571 22.655 7.18571 18.6875C7.18571 14.72 10.4058 11.5 14.3744 11.5Z" fill="#FFA008"/>
<path fill-rule="evenodd" clip-rule="evenodd" d="M35.0966 17.25L29.7679 22.5788C29.3555 22.9899 28.7378 23.1136 28.2009 22.8907C27.664 22.6679 27.313 22.1432 27.313 21.5625V17.25H27.1837C24.8743 17.25 23 15.3769 23 13.0669V7.1875C23 4.80556 24.9309 2.875 27.313 2.875H38.8128C41.195 2.875 43.1259 4.80556 43.1259 7.1875V12.9375C43.1259 14.0817 42.6715 15.1786 41.8629 15.9864C41.0543 16.7958 39.9562 17.25 38.8128 17.25H35.0966Z" fill="#FF730A"/>
</svg>
