<svg width="60" height="60" viewBox="0 0 60 60" fill="none" xmlns="http://www.w3.org/2000/svg">
<rect opacity="0.15" width="60" height="60" rx="6" fill="#5800FF"/>
<path d="M34.1432 31.1621L31.7982 33.5151C30.8472 34.4694 29.174 34.49 28.2025 33.5151L25.8573 31.1621L17.4346 39.6122C17.7481 39.7572 18.0938 39.8437 18.4613 39.8437H41.5394C41.9069 39.8437 42.2525 39.7573 42.5659 39.6123L34.1432 31.1621Z" fill="#5800FF"/>
<path d="M41.5391 20.1562H18.461C18.0935 20.1562 17.7478 20.2428 17.4344 20.3877L26.4347 29.4179C26.4353 29.4185 26.436 29.4186 26.4366 29.4192C26.4372 29.4198 26.4373 29.4206 26.4373 29.4206L29.3638 32.3568C29.6746 32.6677 30.3255 32.6677 30.6364 32.3568L33.5622 29.4211C33.5622 29.4211 33.563 29.4198 33.5636 29.4192C33.5636 29.4192 33.5649 29.4185 33.5655 29.4179L42.5656 20.3877C42.2521 20.2427 41.9066 20.1562 41.5391 20.1562Z" fill="#5800FF"/>
<path d="M16.2617 21.5349C16.0995 21.8629 16 22.227 16 22.6171V37.3827C16 37.7727 16.0994 38.1368 16.2617 38.4648L24.699 30.0002L16.2617 21.5349Z" fill="#5800FF"/>
<path d="M43.738 21.5349L35.3008 30.0003L43.738 38.4651C43.9002 38.1371 43.9998 37.7729 43.9998 37.3828V22.6172C43.9998 22.227 43.9002 21.8629 43.738 21.5349Z" fill="#5800FF"/>
</svg>
