<svg width="153" height="80" viewBox="0 0 153 80" fill="none" xmlns="http://www.w3.org/2000/svg">
<path fill-rule="evenodd" clip-rule="evenodd" d="M139.004 40.6079C138.869 40.3298 138.814 40.1868 138.742 40.0517C136.835 36.4288 134.937 32.8139 133.014 29.199C132.823 28.8335 132.847 28.619 133.109 28.3091C136.136 24.7736 139.147 21.2223 142.167 17.6709C142.27 17.5438 142.365 17.4167 142.405 17.1942L139.759 17.8854C136.097 18.8547 132.442 19.824 128.787 20.8012C128.446 20.8886 128.295 20.7932 128.12 20.5072C126.038 17.0353 123.957 13.5713 121.867 10.1073C121.756 9.9246 121.645 9.74981 121.414 9.59886C121.248 10.5205 121.073 11.45 120.914 12.3716L119.174 22.1677C119.11 22.5173 119.023 22.8748 118.991 23.2244C118.959 23.5581 118.793 23.6852 118.483 23.7805C114.169 25.1312 109.862 26.4977 105.556 27.8642C105.366 27.9278 105.183 27.9993 104.976 28.182C108.504 29.5803 112.024 30.9866 115.607 32.4087C115.48 32.512 115.392 32.5914 115.297 32.655C113.096 34.0771 110.887 35.4993 108.687 36.9373C108.424 37.1121 108.218 37.1359 107.916 37.0009C105.286 35.8171 102.641 34.6571 100.003 33.4733C98.8191 32.949 97.7544 32.2419 96.9282 31.2329C95.0532 28.9368 95.4266 26.3308 97.9213 24.7419C98.7396 24.2175 99.6692 23.8282 100.591 23.5263C104.817 22.1518 109.052 20.825 113.287 19.4903C113.644 19.379 113.803 19.2201 113.875 18.8388C114.439 15.5734 115.027 12.3081 115.615 9.04272C115.932 7.29484 116.099 5.50723 116.949 3.9103C117.275 3.29854 117.664 2.69473 118.133 2.17831C119.817 0.311258 122.161 0.239753 123.941 2.01941C124.545 2.62323 125.061 3.33032 125.506 4.05331C127.468 7.24717 129.391 10.4649 131.314 13.6825C131.536 14.0639 131.743 14.1433 132.164 14.0242C136.891 12.7609 141.618 11.5136 146.346 10.2583C147.323 10.0041 148.308 9.90871 149.309 10.0914C151.486 10.4966 152.439 12.1571 151.708 14.2625C151.375 15.2239 150.795 16.0342 150.143 16.797C146.846 20.682 143.549 24.5671 140.236 28.4362C139.966 28.754 139.958 28.9844 140.148 29.334C142.127 33.0602 144.081 36.7864 146.044 40.5205C146.512 41.4103 146.87 42.3398 146.886 43.3647C146.91 45.6926 145.201 47.5994 142.889 47.941C141.594 48.1317 140.387 47.8536 139.171 47.4802C136.208 46.5665 133.244 45.6608 130.273 44.771C129.995 44.6915 129.892 44.5803 129.844 44.2863C129.502 42.1968 129.129 40.1153 128.771 38.0258C128.763 37.9701 128.779 37.9066 128.787 37.7795C132.164 38.717 135.517 39.6386 139.004 40.6079Z" fill="#E25C26"/>
<path fill-rule="evenodd" clip-rule="evenodd" d="M133.228 71.0365C130.559 71.0285 127.881 71.0206 125.212 71.0285C124.862 71.0285 124.664 70.9253 124.465 70.6233C121.303 65.8087 118.125 60.9941 114.947 56.1874C114.844 56.0365 114.74 55.8855 114.558 55.6313C113.874 60.8273 113.207 65.9041 112.54 70.9968H105.54C105.62 70.3135 105.691 69.6541 105.779 69.0026C106.462 63.7828 107.145 58.5709 107.836 53.3511C108.488 48.3696 109.147 43.3802 109.807 38.3988C109.823 38.2478 109.926 38.0651 110.045 37.9856C112.452 36.4126 114.868 34.8633 117.283 33.2981C117.315 33.2743 117.37 33.2743 117.489 33.2346C116.758 38.804 116.035 44.3336 115.305 49.8633C115.336 49.8792 115.36 49.903 115.392 49.9268C119.182 45.724 122.971 41.5211 126.848 37.2309L127.15 38.9788C127.42 40.5598 127.683 42.1488 127.977 43.7298C128.032 44.0476 127.953 44.2462 127.738 44.4687C125.291 47.0349 122.844 49.6091 120.405 52.1753C120.302 52.2865 120.199 52.4057 120.071 52.5328C120.151 52.6599 120.214 52.7791 120.294 52.8903L132.942 70.6392C133.022 70.7425 133.125 70.8299 133.22 70.9253C133.228 70.9729 133.228 71.0047 133.228 71.0365ZM50.2913 55.6551C50.188 55.1069 50.1086 54.3124 49.8702 53.5656C48.6944 49.9507 44.992 47.9645 41.1467 48.8622C36.9359 49.8395 33.9248 53.1525 33.4878 57.4507C33.1621 60.6286 34.8782 63.6954 38.0641 64.8395C40.6303 65.769 43.0932 65.3797 45.3893 64.0052C48.4242 62.1858 50.0768 59.4766 50.2913 55.6551ZM31.7955 69.0979C31.589 70.6551 31.3903 72.117 31.1997 73.5868C30.9454 75.5333 30.6912 77.4877 30.4449 79.4342C30.4131 79.6646 30.3496 79.76 30.1033 79.76C28.1806 79.752 26.2579 79.752 24.3353 79.752C24.2955 79.752 24.2479 79.7282 24.1446 79.6964C24.2638 78.7748 24.375 77.8532 24.4942 76.9316C24.9152 73.698 25.3443 70.4644 25.7733 67.2309C26.2659 63.5365 26.6552 59.8183 27.2828 56.1477C28.3951 49.6408 33.9168 44.0397 40.3919 42.6414C44.1419 41.831 47.741 42.2044 51.0143 44.3177C54.2796 46.4231 56.1546 49.4819 56.5837 53.3273C57.1875 58.7616 55.1854 63.2743 51.3241 67.0084C48.7897 69.4634 45.7547 71.0206 42.251 71.545C38.6441 72.0852 35.2516 71.4893 32.2166 69.3601C32.1054 69.2807 31.9862 69.2171 31.7955 69.0979ZM28.6652 38.1843C26.5122 39.7891 24.4306 41.3384 22.349 42.8877C22.0154 42.3553 21.7134 41.831 21.3559 41.3384C20.4502 40.0752 19.322 39.1297 17.6933 39.0105C16.3347 38.9152 15.1668 39.3601 14.2452 40.3691C13.419 41.2669 13.3077 42.5381 14.0784 43.555C14.9285 44.6673 15.866 45.724 16.8114 46.7568C18.3925 48.465 20.0371 50.1096 21.6102 51.8336C23.0402 53.3988 24.1764 55.1546 24.5259 57.2918C24.947 59.8342 24.4385 62.2574 23.2309 64.4978C21.0063 68.6371 17.4947 71.0365 12.8708 71.7833C10.8289 72.117 8.78707 72.0455 6.7929 71.4655C4.14724 70.6869 2.30402 68.947 1.12023 66.4999C0.699152 65.6339 0.381356 64.7203 0 63.7907C2.31991 62.5513 4.56832 61.3437 6.85646 60.1202C6.93591 60.3108 6.99152 60.4697 7.06303 60.6207C7.45233 61.3993 7.77012 62.2256 8.25476 62.9486C9.68485 65.0778 11.9968 65.7213 14.3406 64.6726C14.9444 64.4025 15.5244 64.0211 16.0169 63.5842C17.5265 62.2415 17.8125 60.3744 16.6923 58.6901C16.0487 57.7208 15.2463 56.8548 14.4597 55.9809C12.5927 53.9072 10.6462 51.8972 8.81885 49.7838C7.56356 48.322 6.70551 46.6218 6.43538 44.6673C6.14142 42.5381 6.5625 40.528 7.67478 38.7325C10.4317 34.2754 14.4359 31.9555 19.7352 32.1461C22.7542 32.2574 25.1615 33.6716 27.0286 36.0153C27.5847 36.7065 28.1012 37.4295 28.6652 38.1843ZM79.8464 62.1223C79.4968 64.8077 79.1631 67.358 78.8215 69.9083C78.8056 70.0354 78.7023 70.2102 78.5911 70.2658C73.3792 72.6811 66.5069 72.3474 62.2245 67.4772C59.9205 64.8633 58.9592 61.7648 59.1022 58.3167C59.4359 50.332 66.054 43.3564 73.9751 42.3871C78.599 41.8151 82.6589 43.0704 85.7971 46.6615C87.9343 49.1085 88.9194 52.0322 88.7764 55.2579C88.6811 57.3871 88.3474 59.5084 88.0773 61.6297C87.7039 64.6329 87.2907 67.6361 86.8935 70.6392C86.8776 70.7425 86.8617 70.8537 86.8299 70.9888H80.5932C80.6726 70.2976 80.7521 69.6223 80.8395 68.947C81.2923 65.475 81.7849 62.019 82.1822 58.5391C82.4285 56.3781 82.2775 54.225 81.2844 52.2229C80.2357 50.0937 78.4639 48.9655 76.144 48.7192C71.3374 48.2107 66.769 51.5476 65.7441 56.2748C65.0688 59.3972 66.1334 62.3845 68.6202 64.045C71.0434 65.6578 73.6414 65.6578 76.2791 64.617C77.6218 64.0926 78.7579 63.2505 79.8464 62.1223ZM106.112 42.9909C105.826 45.152 105.548 47.2812 105.262 49.4581C103.943 49.4581 102.648 49.4502 101.353 49.4581C100.305 49.466 99.3511 50.1414 99.0333 51.1186C98.9062 51.4999 98.8665 51.9131 98.8109 52.3103C98.1514 57.2759 97.5 62.2415 96.8485 67.215C96.6816 68.4703 96.5227 69.7176 96.3559 70.9888H89.8649C89.9841 70.0354 90.1032 69.1059 90.2224 68.1843C90.6435 64.9666 91.0646 61.7489 91.4936 58.5312C91.867 55.7505 92.1927 52.9539 92.6297 50.1811C93.2097 46.4629 96.912 43.1578 100.67 42.9989C102.466 42.9274 104.261 42.9909 106.112 42.9909Z" fill="#3D3B3E"/>
<path d="M140.887 70.997V68.256H140.871L139.799 70.997H139.457L138.385 68.256H138.369V70.997H137.829V67.7157H138.663L139.64 70.2104L140.601 67.7157H141.428V70.997H140.887ZM136.12 68.1527V70.997H135.58V68.1527H134.555V67.7157H137.153V68.1527H136.12ZM37.3651 33.5764H38.9779L38.5966 31.1373L37.3651 33.5764ZM39.2242 35.1495H36.5468L35.6967 36.818H33.7979L37.9848 29.0002H39.8121L41.2343 36.818H39.4785L39.2242 35.1495ZM48.8137 30.5733H47.8603L47.5425 32.3768H48.4959C49.068 32.3768 49.5288 31.9954 49.5288 31.2883C49.5288 30.8116 49.2348 30.5733 48.8137 30.5733ZM46.5018 29.0002H49.0044C50.3153 29.0002 51.2369 29.7788 51.2369 31.1294C51.2369 32.8217 50.0452 33.9578 48.337 33.9578H47.2565L46.7481 36.818H45.1194L46.5018 29.0002ZM56.7825 33.5764H58.3953L58.0139 31.1373L56.7825 33.5764ZM58.6495 35.1495H55.9721L55.122 36.818H53.2232L57.4101 29.0002H59.2375L60.6596 36.818H58.9038L58.6495 35.1495ZM69.2322 36.5399C68.684 36.7941 68.0722 36.9451 67.4604 36.9451C65.3948 36.9451 64.0918 35.3958 64.0918 33.4493C64.0918 30.9626 66.1813 28.873 68.6681 28.873C69.2878 28.873 69.8519 29.024 70.3127 29.2782L70.0823 31.1532C69.7406 30.7719 69.1845 30.5097 68.4933 30.5097C67.0711 30.5097 65.8 31.7968 65.8 33.2904C65.8 34.4265 66.515 35.3164 67.6432 35.3164C68.3344 35.3164 69.0018 35.0542 69.4467 34.6808L69.2322 36.5399ZM79.211 33.6638H75.8105L75.2544 36.81H73.6257L75.0081 28.9922H76.6368L76.0886 32.0828H79.489L80.0372 28.9922H81.6739L80.2915 36.81H78.6628L79.211 33.6638ZM85.2014 36.818L86.5759 29.0002H90.9138L90.6357 30.5733H87.9345L87.6564 32.0907H90.1352L89.8571 33.6638H87.3704L87.0923 35.2369H89.7936L89.5155 36.81L85.2014 36.818Z" fill="#3D3B3E"/>
</svg>
