<svg width="137" height="80" viewBox="0 0 137 80" fill="none" xmlns="http://www.w3.org/2000/svg">
<g clip-path="url(#clip0_772_403)">
<path d="M38.9161 29.0545C38.9161 30.7008 39.0941 32.0356 39.4056 33.0145C39.7615 33.9933 40.2065 35.0612 40.8294 36.218C41.0519 36.574 41.1408 36.9299 41.1408 37.2414C41.1408 37.6863 40.8739 38.1313 40.2955 38.5762L37.4923 40.4449C37.0919 40.7119 36.6915 40.8454 36.3355 40.8454C35.8906 40.8454 35.4456 40.6229 35.0007 40.2225C34.3778 39.5551 33.8438 38.8432 33.3989 38.1313C32.954 37.3749 32.509 36.5295 32.0196 35.5061C28.5491 39.5996 24.1887 41.6463 18.9384 41.6463C15.2009 41.6463 12.2198 40.5784 10.0396 38.4427C7.85942 36.307 6.74707 33.4594 6.74707 29.8999C6.74707 26.1179 8.08189 23.0478 10.796 20.7342C13.5101 18.4205 17.1141 17.2636 21.697 17.2636C23.2098 17.2636 24.7671 17.3971 26.4134 17.6196C28.0596 17.8421 29.7504 18.198 31.5302 18.5984V15.3504C31.5302 11.9689 30.8183 9.61068 29.4389 8.23137C28.0151 6.85206 25.6125 6.18465 22.1864 6.18465C20.6292 6.18465 19.0274 6.36263 17.3811 6.76307C15.7348 7.16352 14.1331 7.65295 12.5758 8.27586C11.8639 8.58732 11.3299 8.7653 11.0185 8.85428C10.707 8.94327 10.4846 8.98776 10.3066 8.98776C9.68367 8.98776 9.37221 8.54283 9.37221 7.60845V5.42825C9.37221 4.71635 9.4612 4.18243 9.68367 3.87097C9.90614 3.55951 10.3066 3.24805 10.9295 2.9366C12.4868 2.13571 14.3555 1.4683 16.5357 0.934372C18.7159 0.355951 21.0296 0.0889877 23.4768 0.0889877C28.7715 0.0889877 32.6425 1.29032 35.1342 3.69299C37.5813 6.09566 38.8272 9.74416 38.8272 14.6385V29.0545H38.9161ZM20.8516 35.8176C22.3199 35.8176 23.8327 35.5506 25.4345 35.0167C27.0363 34.4828 28.4601 33.5039 29.6614 32.1691C30.3733 31.3237 30.9072 30.3893 31.1742 29.3215C31.4412 28.2536 31.6192 26.9633 31.6192 25.4505V23.5818C30.3288 23.2703 28.9495 23.0033 27.5257 22.8254C26.1019 22.6474 24.7226 22.5584 23.3433 22.5584C20.3622 22.5584 18.182 23.1368 16.7137 24.3382C15.2454 25.5395 14.5335 27.2303 14.5335 29.455C14.5335 31.5462 15.0674 33.1035 16.1798 34.1713C17.2476 35.2837 18.8049 35.8176 20.8516 35.8176ZM56.5802 40.6229C55.7793 40.6229 55.2454 40.4894 54.8895 40.178C54.5335 39.911 54.222 39.2881 53.9551 38.4427L43.499 4.04894C43.2321 3.15907 43.0986 2.58065 43.0986 2.26919C43.0986 1.55729 43.4545 1.15684 44.1664 1.15684H48.5268C49.3722 1.15684 49.9506 1.29032 50.2621 1.60178C50.618 1.86874 50.885 2.49166 51.152 3.33704L58.6269 32.792L65.568 3.33704C65.7904 2.44716 66.0574 1.86874 66.4134 1.60178C66.7693 1.33482 67.3922 1.15684 68.1931 1.15684H71.7526C72.598 1.15684 73.1764 1.29032 73.5324 1.60178C73.8883 1.86874 74.1998 2.49166 74.3778 3.33704L81.4078 33.1479L89.1052 3.33704C89.3722 2.44716 89.6837 1.86874 89.9951 1.60178C90.3511 1.33482 90.9295 1.15684 91.7304 1.15684H95.8683C96.5802 1.15684 96.9807 1.51279 96.9807 2.26919C96.9807 2.49166 96.9362 2.71413 96.8917 2.98109C96.8472 3.24805 96.7582 3.604 96.5802 4.09344L85.8572 38.4872C85.5902 39.3771 85.2788 39.9555 84.9228 40.2225C84.5669 40.4894 83.9884 40.6674 83.232 40.6674H79.4056C78.5602 40.6674 77.9818 40.5339 77.6258 40.2225C77.2699 39.911 76.9584 39.3326 76.7804 38.4427L69.8839 9.74416L63.0318 38.3982C62.8094 39.2881 62.5424 39.8665 62.1864 40.178C61.8305 40.4894 61.2076 40.6229 60.4067 40.6229H56.5802ZM113.755 41.8243C111.441 41.8243 109.127 41.5573 106.903 41.0234C104.678 40.4894 102.943 39.911 101.786 39.2436C101.074 38.8432 100.585 38.3982 100.407 37.9978C100.229 37.5973 100.14 37.1524 100.14 36.7519V34.4828C100.14 33.5484 100.496 33.1035 101.163 33.1035C101.43 33.1035 101.697 33.1479 101.964 33.2369C102.231 33.3259 102.631 33.5039 103.076 33.6819C104.589 34.3493 106.235 34.8832 107.971 35.2392C109.75 35.5951 111.486 35.7731 113.265 35.7731C116.069 35.7731 118.249 35.2837 119.762 34.3048C121.274 33.3259 122.075 31.9021 122.075 30.0779C122.075 28.832 121.675 27.8087 120.874 26.9633C120.073 26.1179 118.56 25.3615 116.38 24.6496L109.928 22.6474C106.68 21.624 104.278 20.1112 102.809 18.109C101.341 16.1513 100.585 13.9711 100.585 11.6574C100.585 9.78865 100.985 8.14238 101.786 6.71858C102.587 5.29477 103.655 4.04894 104.99 3.07008C106.324 2.04672 107.837 1.29032 109.617 0.756396C111.397 0.222469 113.265 0 115.223 0C116.202 0 117.225 0.0444939 118.204 0.177976C119.228 0.311457 120.162 0.489433 121.096 0.667408C121.986 0.889878 122.832 1.11235 123.632 1.37931C124.433 1.64627 125.056 1.91324 125.501 2.1802C126.124 2.53615 126.569 2.8921 126.836 3.29255C127.103 3.6485 127.236 4.13793 127.236 4.76085V6.85206C127.236 7.78643 126.881 8.27586 126.213 8.27586C125.857 8.27586 125.279 8.09789 124.522 7.74194C121.986 6.58509 119.139 6.00667 115.98 6.00667C113.443 6.00667 111.441 6.40712 110.062 7.2525C108.683 8.09789 107.971 9.38821 107.971 11.2125C107.971 12.4583 108.416 13.5261 109.305 14.3715C110.195 15.2169 111.842 16.0623 114.2 16.8187L120.518 18.8209C123.721 19.8443 126.035 21.2681 127.414 23.0923C128.794 24.9166 129.461 27.0078 129.461 29.3215C129.461 31.2347 129.061 32.97 128.304 34.4828C127.503 35.9956 126.436 37.3304 125.056 38.3982C123.677 39.5106 122.031 40.3115 120.117 40.8899C118.115 41.5128 116.024 41.8243 113.755 41.8243Z" fill="#252F3E"/>
<path fill-rule="evenodd" clip-rule="evenodd" d="M122.163 63.4479C107.525 74.2599 86.2569 79.9996 67.9699 79.9996C42.3414 79.9996 19.2491 70.5224 1.80751 54.7716C0.4282 53.5257 1.67403 51.835 3.3203 52.8138C22.1857 63.7593 45.456 70.3889 69.5272 70.3889C85.7675 70.3889 103.61 67.0074 120.028 60.0663C122.475 58.954 124.566 61.6681 122.163 63.4479Z" fill="#FF9900"/>
<path fill-rule="evenodd" clip-rule="evenodd" d="M128.259 56.5071C126.391 54.1044 115.89 55.3502 111.129 55.9286C109.705 56.1066 109.483 54.8608 110.773 53.9264C119.138 48.0532 132.887 49.744 134.488 51.7017C136.09 53.7039 134.044 67.4526 126.213 74.0377C125.011 75.061 123.854 74.5271 124.388 73.1923C126.168 68.7874 130.128 58.8652 128.259 56.5071Z" fill="#FF9900"/>
</g>
<defs>
<clipPath id="clip0_772_403">
<rect width="136.519" height="80" fill="white"/>
</clipPath>
</defs>
</svg>
