<svg width="85" height="80" viewBox="0 0 85 80" fill="none" xmlns="http://www.w3.org/2000/svg">
<g clip-path="url(#clip0_772_438)">
<path d="M28.2812 0.0807305H53.3392L27.3263 77.1993C27.1933 77.5932 26.9997 77.9639 26.7526 78.2982C26.5059 78.6327 26.2084 78.9259 25.8708 79.1683C25.5331 79.4108 25.1604 79.5992 24.7645 79.7262C24.3686 79.8532 23.9558 79.9189 23.5408 79.9189H4.03936C3.40632 79.9189 2.78175 79.7686 2.21858 79.4785C1.65481 79.1893 1.16815 78.7698 0.799 78.2548C0.42961 77.7398 0.187957 77.1444 0.0939759 76.5176C-0.000238985 75.8909 0.0569251 75.2505 0.259117 74.6503L24.4946 2.79814C24.6269 2.40435 24.8206 2.03384 25.0683 1.69932C25.315 1.36481 25.6135 1.07157 25.9501 0.829157C26.2878 0.586739 26.6605 0.398309 27.0564 0.271278C27.4523 0.144246 27.8651 0.0786133 28.2801 0.0786133V0.0796719L28.2812 0.0807305Z" fill="url(#paint0_linear_772_438)"/>
<path d="M74.474 79.9191H51.9736C51.7227 79.9191 51.4718 79.8958 51.2241 79.8482C50.9774 79.8016 50.735 79.7317 50.501 79.6396C50.2671 79.5475 50.0427 79.4332 49.8299 79.2998C49.6174 79.1655 49.4179 79.0117 49.2339 78.8404L23.7006 54.9945C23.4306 54.7423 23.2425 54.4148 23.1607 54.0544C23.0791 53.6941 23.1078 53.3175 23.2432 52.9736C23.3786 52.6298 23.6143 52.3347 23.9197 52.1267C24.2257 51.9193 24.5867 51.8081 24.9561 51.8081H64.6915L74.4719 79.9201L74.474 79.9191Z" fill="#0078D4"/>
<path d="M53.4299 0.0811043L35.889 51.8136L64.5494 51.8072L74.3805 79.9193H51.9648C51.733 79.9171 51.5011 79.896 51.2725 79.8547C51.0438 79.8134 50.8194 79.7531 50.6013 79.6726C50.164 79.5133 49.7573 79.2802 49.3988 78.9835L32.1627 62.897L27.3376 77.1267C27.2127 77.4824 27.0412 77.8201 26.8274 78.1302C26.3988 78.7542 25.8126 79.2535 25.1283 79.5773C24.7877 79.7385 24.4271 79.8535 24.056 79.9193H4.05173C3.41234 79.9214 2.78142 79.7689 2.21295 79.4746C1.6444 79.1806 1.155 78.754 0.786116 78.2309C0.417234 77.7078 0.179718 77.1036 0.0936441 76.4693C0.00788184 75.8347 0.0757714 75.1889 0.291601 74.5861L24.4879 2.8525C24.6139 2.4513 24.8034 2.07338 25.049 1.73251C25.2935 1.39164 25.592 1.091 25.9308 0.843292C26.2695 0.595581 26.6464 0.402917 27.0455 0.273769C27.4446 0.14462 27.8627 0.0789871 28.283 0.0811043H53.4309H53.4299Z" fill="url(#paint1_linear_772_438)"/>
<path d="M84.5224 74.6506C84.7247 75.2511 84.7817 75.8911 84.6886 76.5179C84.5945 77.1445 84.3533 77.7398 83.9846 78.2551C83.6154 78.7698 83.1289 79.1891 82.5655 79.4785C82.002 79.7679 81.3777 79.9189 80.7443 79.9192H52.8164C53.4495 79.9192 54.074 79.7678 54.6383 79.4788C55.2015 79.1898 55.6884 78.7696 56.0579 78.2551C56.4273 77.7406 56.6687 77.1446 56.7629 76.5179C56.8571 75.8912 56.7999 75.2508 56.5977 74.6506L32.3612 2.79635C32.0944 2.00482 31.5861 1.31691 30.9078 0.829481C30.5711 0.587063 30.1985 0.399692 29.8037 0.27266C29.4088 0.145629 28.9959 0.0810547 28.582 0.0810547H56.5088C56.9238 0.0810547 57.3356 0.145629 57.7315 0.27266C58.1263 0.399692 58.499 0.588121 58.8367 0.829481C59.1733 1.0719 59.4708 1.36513 59.7174 1.69859C59.9641 2.03204 60.1567 2.40255 60.2901 2.79635L84.5266 74.6506H84.5224Z" fill="url(#paint2_linear_772_438)"/>
</g>
<defs>
<linearGradient id="paint0_linear_772_438" x1="37.4264" y1="5.99827" x2="11.3849" y2="82.9263" gradientUnits="userSpaceOnUse">
<stop stop-color="#114A8B"/>
<stop offset="1" stop-color="#0669BC"/>
</linearGradient>
<linearGradient id="paint1_linear_772_438" x1="45.5465" y1="41.8427" x2="39.5231" y2="43.8857" gradientUnits="userSpaceOnUse">
<stop stop-opacity="0.3"/>
<stop offset="0.1" stop-opacity="0.2"/>
<stop offset="0.3" stop-opacity="0.1"/>
<stop offset="0.6" stop-opacity="0.1"/>
<stop offset="1" stop-opacity="0"/>
</linearGradient>
<linearGradient id="paint2_linear_772_438" x1="42.222" y1="3.75438" x2="70.8041" y2="79.8991" gradientUnits="userSpaceOnUse">
<stop stop-color="#3CCBF4"/>
<stop offset="1" stop-color="#2892DF"/>
</linearGradient>
<clipPath id="clip0_772_438">
<rect width="84.7817" height="80" fill="white"/>
</clipPath>
</defs>
</svg>
