<svg width="46" height="48" viewBox="0 0 46 48" fill="none" xmlns="http://www.w3.org/2000/svg">
<path d="M45.7926 9.15878V14.6997C45.7926 18.3174 43.5029 20.607 39.8853 20.607H32.0547V4.60238C32.0547 2.06087 34.1383 -0.0227096 36.6798 0.000186922C39.1755 0.0230834 41.4651 1.03053 43.1137 2.67908C44.7622 4.35052 45.7926 6.64017 45.7926 9.15878Z" fill="white"/>
<path opacity="0.4" d="M0 11.4484V43.5034C0 45.4038 2.15227 46.48 3.66344 45.3352L7.57873 42.4044C8.49459 41.7175 9.7768 41.8091 10.6011 42.6334L14.4019 46.4571C15.2948 47.35 16.7602 47.35 17.6532 46.4571L21.4998 42.6105C22.3012 41.8091 23.5834 41.7175 24.4763 42.4044L28.3916 45.3352C29.9028 46.4571 32.0551 45.3809 32.0551 43.5034V4.57942C32.0551 2.06081 34.1158 0.00012207 36.6344 0.00012207H11.4482H9.15859C2.28965 0.00012207 0 4.09859 0 9.15871V11.4484Z" fill="white"/>
<path d="M22.8967 23.4922H16.0278C15.089 23.4922 14.3105 24.2707 14.3105 25.2094C14.3105 26.1482 15.089 26.9267 16.0278 26.9267H22.8967C23.8355 26.9267 24.614 26.1482 24.614 25.2094C24.614 24.2707 23.8355 23.4922 22.8967 23.4922Z" fill="white"/>
<path d="M16.0278 17.768H22.8967C23.8355 17.768 24.614 16.9895 24.614 16.0507C24.614 15.112 23.8355 14.3335 22.8967 14.3335H16.0278C15.089 14.3335 14.3105 15.112 14.3105 16.0507C14.3105 16.9895 15.089 17.768 16.0278 17.768Z" fill="white"/>
<path d="M9.08945 13.7611C7.80725 13.7611 6.7998 14.7915 6.7998 16.0508C6.7998 17.3101 7.83015 18.3404 9.08945 18.3404C10.3488 18.3404 11.3791 17.3101 11.3791 16.0508C11.3791 14.7915 10.3488 13.7611 9.08945 13.7611Z" fill="white"/>
<path d="M9.0895 22.9197C7.8073 22.9197 6.79985 23.95 6.79985 25.2093C6.79985 26.4686 7.8302 27.499 9.0895 27.499C10.3488 27.499 11.3792 26.4686 11.3792 25.2093C11.3792 23.95 10.3488 22.9197 9.0895 22.9197Z" fill="white"/>
</svg>
