<svg width="46" height="46" viewBox="0 0 46 46" fill="none" xmlns="http://www.w3.org/2000/svg">
<path opacity="0.3" d="M5.26953 16.4369V24.1036C5.26953 24.8972 4.62572 25.5411 3.83203 25.5411C3.03834 25.5411 2.39453 24.8972 2.39453 24.1036V16.4369C2.39453 15.6432 3.03834 14.9994 3.83203 14.9994C4.62572 14.9994 5.26953 15.6432 5.26953 16.4369ZM42.1654 14.9994C41.3717 14.9994 40.7279 15.6432 40.7279 16.4369V24.1036C40.7279 24.8972 41.3717 25.5411 42.1654 25.5411C42.9591 25.5411 43.6029 24.8972 43.6029 24.1036V16.4369C43.6029 15.6432 42.9591 14.9994 42.1654 14.9994Z" fill="#3B82F6"/>
<path d="M9.58203 27.9368H36.4154V31.7702C36.4154 33.8873 34.6992 35.6035 32.582 35.6035H27.8578C27.2169 35.6035 26.6187 35.9238 26.2632 36.457L23.7962 40.1575C23.4169 40.7264 22.5807 40.7264 22.2016 40.1575L19.7346 36.457C19.3791 35.9238 18.7807 35.6035 18.1399 35.6035H13.4157C11.2986 35.6035 9.58241 33.8873 9.58241 31.7702L9.58203 27.9368ZM36.4154 14.5202V25.0618H9.58203V14.5202C9.58203 12.403 11.2982 10.6868 13.4154 10.6868H21.5612V6.85352C21.5612 6.05982 22.205 5.41602 22.9987 5.41602C23.7924 5.41602 24.4362 6.05982 24.4362 6.85352V10.6868H32.582C34.6992 10.6868 36.4154 12.403 36.4154 14.5202ZM19.1654 20.2702C19.1654 19.2116 18.3073 18.3535 17.2487 18.3535C16.1901 18.3535 15.332 19.2116 15.332 20.2702C15.332 21.3288 16.1901 22.1868 17.2487 22.1868C18.3073 22.1868 19.1654 21.3286 19.1654 20.2702ZM30.6654 20.2702C30.6654 19.2116 29.8073 18.3535 28.7487 18.3535C27.6901 18.3535 26.832 19.2116 26.832 20.2702C26.832 21.3288 27.6901 22.1868 28.7487 22.1868C29.8073 22.1868 30.6654 21.3286 30.6654 20.2702Z" fill="#3B82F6"/>
</svg>
