<svg width="60" height="60" viewBox="0 0 60 60" fill="none" xmlns="http://www.w3.org/2000/svg">
<rect opacity="0.15" width="60" height="60" rx="6" fill="#0CD68A"/>
<path d="M25.3425 20.6015C25.2813 20.2916 25.25 19.9689 25.25 19.6428C25.25 19.2816 25.2896 18.922 25.3677 18.5737C25.4109 18.3817 25.2901 18.1909 25.0979 18.1479C24.9073 18.1056 24.7153 18.2253 24.6721 18.4177C24.5826 18.8172 24.5371 19.2294 24.5371 19.6428C24.5371 20.0152 24.5727 20.3843 24.6433 20.7399C24.6769 20.9098 24.8258 21.0272 24.9926 21.0272C25.0153 21.0272 25.0387 21.025 25.0621 21.0202C25.2552 20.9822 25.3808 20.7945 25.3425 20.6015Z" fill="#0CD68A"/>
<path d="M34.9552 21.6455C34.779 21.5578 34.5648 21.6298 34.4772 21.8062C33.6484 23.474 31.9775 24.5105 30.1165 24.5109C28.2554 24.5105 26.5848 23.474 25.756 21.8062C25.6682 21.6298 25.4538 21.5578 25.278 21.6455C25.1018 21.7331 25.0298 21.9293 25.1173 22.1057C26.0672 24.017 27.9811 25.1885 30.1138 25.1885H30.1149H30.1183H30.1194C32.2519 25.1885 34.1662 24.017 35.1159 22.1057C35.2032 21.9293 35.1314 21.7331 34.9552 21.6455Z" fill="#0CD68A"/>
<path d="M35.5879 20.7406C35.6595 20.3812 35.696 20.0121 35.696 19.6429C35.696 19.2286 35.6501 18.8147 35.5598 18.4133C35.5166 18.2211 35.3258 18.1 35.1338 18.1437C34.9419 18.1869 34.821 18.3777 34.8642 18.5697C34.943 18.92 34.983 19.281 34.983 19.6429C34.983 19.9651 34.9511 20.2876 34.8885 20.6011C34.8501 20.7941 34.9754 20.9818 35.1685 21.0203C35.1921 21.025 35.2155 21.0273 35.2387 21.0273C35.405 21.0273 35.554 20.91 35.5879 20.7406Z" fill="#0CD68A"/>
<path d="M33.5613 26.4558H26.6199C26.4061 26.4558 26.1602 26.7085 26.1602 26.9237V41.6338C26.1602 41.8478 26.4063 42.0102 26.6199 42.0102H33.5613C33.7751 42.0102 33.9374 41.8478 33.9374 41.6338V26.9237C33.9374 26.7085 33.7751 26.4558 33.5613 26.4558Z" fill="#0CD68A"/>
<path d="M27.3886 19.3254L28.6605 20.2721C28.7548 20.3405 28.7942 20.4733 28.7582 20.584L28.2724 22.085C28.192 22.3328 28.4756 22.5416 28.6862 22.3886L29.9581 21.4657C30.0524 21.3971 30.1802 21.3978 30.2743 21.4664L31.5462 22.3908C31.757 22.5441 32.0406 22.3382 31.96 22.0904L31.4742 20.5953C31.4382 20.4843 31.4778 20.3631 31.5718 20.2946L32.844 19.3254C33.0548 19.1722 32.9463 18.7939 32.6858 18.7939H31.1137C30.9971 18.7939 30.8938 18.764 30.8578 18.653L30.3719 17.1804C30.2916 16.9324 29.941 16.9439 29.8604 17.1916L29.3748 18.6474C29.3386 18.7581 29.2353 18.7939 29.1189 18.7939H27.5466C27.2863 18.7939 27.178 19.1722 27.3886 19.3254Z" fill="#0CD68A"/>
<path d="M24.7772 34.3915C24.7772 34.1769 24.6033 34.0027 24.3884 34.0027H17.3889C17.1742 34.0027 17 34.1769 17 34.3915V41.6791C17 41.8938 17.1742 42.0679 17.3889 42.0679H24.3884C24.6033 42.0679 24.7772 41.8938 24.7772 41.6791V34.3915Z" fill="#0CD68A"/>
<path d="M20.1195 29.7047C20.1793 29.7484 20.2045 29.8253 20.1816 29.8955L20.0135 30.4124C19.9626 30.5697 20.1424 30.7003 20.2761 30.6033L20.7158 30.2837C20.7757 30.2403 20.8564 30.2403 20.9163 30.2837L21.356 30.6033C21.4897 30.7003 21.6695 30.5697 21.6186 30.4124L21.4505 29.8955C21.4278 29.8253 21.4528 29.7484 21.5124 29.7047L21.9524 29.3712C22.0858 29.2742 22.0172 29.0483 21.852 29.0483H21.3085C21.2347 29.0483 21.169 29.015 21.1463 28.9448L20.9784 28.4351C20.9273 28.2778 20.705 28.2814 20.6539 28.4384L20.486 28.943C20.4631 29.0132 20.3976 29.0483 20.3236 29.0483H19.7803C19.6152 29.0483 19.5463 29.2742 19.68 29.3712L20.1195 29.7047Z" fill="#0CD68A"/>
<path d="M20.8158 32.7355C22.5517 32.7355 23.9638 31.3234 23.9638 29.5877C23.9638 27.852 22.5517 26.4397 20.8158 26.4397C19.0801 26.4397 17.668 27.852 17.668 29.5877C17.668 31.3234 19.0801 32.7355 20.8158 32.7355ZM20.8158 27.1526C22.1608 27.1526 23.2509 28.2429 23.2509 29.5877C23.2509 30.9325 22.1608 32.0226 20.8158 32.0226C19.4712 32.0226 18.3809 30.9325 18.3809 29.5877C18.3809 28.2429 19.4712 27.1526 20.8158 27.1526Z" fill="#0CD68A"/>
<path d="M43.2694 34.3915C43.2694 34.1769 43.0955 34.0027 42.8805 34.0027H35.881C35.6664 34.0027 35.4922 34.1769 35.4922 34.3915V41.6791C35.4922 41.8938 35.6664 42.0679 35.881 42.0679H42.8805C43.0955 42.0679 43.2694 41.8938 43.2694 41.6791V34.3915Z" fill="#0CD68A"/>
<path d="M38.6663 29.7047C38.7262 29.7484 38.7512 29.8253 38.7284 29.8955L38.5606 30.4124C38.5095 30.5697 38.6893 30.7003 38.823 30.6033L39.2627 30.2837C39.3225 30.2403 39.4033 30.2403 39.4632 30.2837L39.9029 30.6033C40.0366 30.7003 40.2164 30.5697 40.1655 30.4124L39.9976 29.8955C39.9747 29.8253 39.9997 29.7484 40.0593 29.7047L40.4992 29.3712C40.6327 29.2742 40.5641 29.0483 40.3989 29.0483H39.8552C39.7814 29.0483 39.7159 29.015 39.6932 28.9448L39.5253 28.4351C39.4742 28.2778 39.2519 28.2814 39.2008 28.4384L39.0329 28.943C39.01 29.0132 38.9445 29.0483 38.8707 29.0483H38.3272C38.162 29.0483 38.0932 29.2742 38.2268 29.3712L38.6663 29.7047Z" fill="#0CD68A"/>
<path d="M39.3626 32.7355C41.0986 32.7355 42.5109 31.3234 42.5109 29.5877C42.5109 27.852 41.0986 26.4397 39.3626 26.4397C37.6269 26.4397 36.2148 27.852 36.2148 29.5877C36.2148 31.3234 37.6269 32.7355 39.3626 32.7355ZM39.3626 27.1526C40.7074 27.1526 41.798 28.2429 41.798 29.5877C41.798 30.9325 40.7074 32.0226 39.3626 32.0226C38.0181 32.0226 36.9278 30.9325 36.9278 29.5877C36.9278 28.2429 38.0181 27.1526 39.3626 27.1526Z" fill="#0CD68A"/>
</svg>
