<svg width="50" height="50" viewBox="0 0 50 50" fill="none" xmlns="http://www.w3.org/2000/svg">
<rect opacity="0.15" width="50" height="50" rx="6" fill="#0D88FF"/>
<path fill-rule="evenodd" clip-rule="evenodd" d="M20.9554 24.5011C22.0366 25.7063 22.846 26.756 23.3834 27.6996C25.3998 31.2401 22.5312 34.8361 18.6896 34.7714C14.8479 34.8362 11.9794 31.2401 13.9958 27.6996C14.5332 26.756 15.3426 25.7063 16.4237 24.5011C16.5816 24.5569 16.7512 24.5874 16.9278 24.5874H20.4514C20.628 24.5874 20.7976 24.5569 20.9554 24.5011ZM16.9278 23.8582H20.4514C20.8859 23.8582 21.2413 23.5028 21.2413 23.0684C21.2413 22.634 20.8859 22.2786 20.4514 22.2786H16.9278C16.4934 22.2786 16.138 22.634 16.138 23.0684C16.138 23.5028 16.4934 23.8582 16.9278 23.8582ZM22.9482 23.0671C22.729 23.0671 22.5502 23.2459 22.5502 23.4652V25.24C23.0925 25.9086 23.6026 26.6112 24.0169 27.3387C24.8584 28.8163 25.0426 30.5302 24.345 32.1022C24.2928 32.2197 24.2366 32.3343 24.1769 32.4464H25.1658V23.4652C25.1658 23.2459 24.987 23.0671 24.7678 23.0671H22.9482ZM31.7358 23.31L31.6612 24.4195C31.658 24.4667 31.6807 24.5088 31.7219 24.5321C31.7631 24.5555 31.8109 24.5532 31.8497 24.5262L34.7097 22.5376C34.7409 22.5159 34.7587 22.4843 34.7611 22.4465C34.7635 22.4087 34.7498 22.3751 34.7217 22.3497L32.1515 20.0294C32.1165 19.9978 32.0695 19.9895 32.0258 20.0072C31.9821 20.025 31.9542 20.0635 31.951 20.1106L31.8736 21.2605C29.7922 21.2039 26.9405 20.355 25.1179 19.2666C23.108 18.0664 21.7894 16.6381 20.8615 15C21.4795 17.4889 23.315 19.9517 26.0562 21.5887C27.9012 22.6904 29.881 23.2535 31.7358 23.31ZM35.7441 33.1755H23.7083C23.4254 33.5458 23.0977 33.8754 22.7357 34.1615H35.7441C35.9629 34.1615 36.1414 33.983 36.1414 33.7642V33.5729C36.1414 33.354 35.9629 33.1755 35.7441 33.1755ZM34.4816 28.4415H32.662C32.4428 28.4415 32.2639 28.6203 32.2639 28.8396V32.4464H34.8795V28.8396C34.8795 28.6203 34.7008 28.4415 34.4816 28.4415ZM27.8051 25.8124H29.6247C29.844 25.8124 30.0227 25.9913 30.0227 26.2105V32.4464H27.4071V26.2105C27.407 25.9913 27.5858 25.8124 27.8051 25.8124ZM18.6491 31.0572C18.4117 31.0511 18.1813 30.9868 17.9976 30.8644C17.8314 30.7537 17.7043 30.5917 17.6513 30.379C17.6041 30.1869 17.4101 30.0696 17.2181 30.1168C17.026 30.164 16.9086 30.358 16.9559 30.55C17.0561 30.9518 17.293 31.2557 17.6023 31.4617C17.8135 31.6024 18.0588 31.6954 18.3157 31.7407V32.0193C18.3157 32.2175 18.4764 32.3782 18.6746 32.3782C18.8728 32.3782 19.0336 32.2175 19.0336 32.0193V31.7475C19.3457 31.6999 19.6638 31.5859 19.9135 31.3965C20.2136 31.1687 20.4132 30.8426 20.4029 30.4051C20.4017 30.355 20.3988 30.3109 20.3942 30.2733C20.336 29.7938 20.0766 29.4817 19.7327 29.274C19.4305 29.0916 19.0682 29.0007 18.736 28.9462C18.4964 28.9068 18.2441 28.8403 18.0593 28.7196C17.9161 28.6261 17.8134 28.4908 17.8037 28.2928C17.7933 28.0787 17.8868 27.9059 18.0341 27.7862C18.1495 27.6924 18.2967 27.6272 18.4562 27.5951C18.5205 27.5822 18.5865 27.5747 18.6533 27.5729C18.6603 27.5733 18.6674 27.5736 18.6746 27.5736C18.6833 27.5736 18.6918 27.5732 18.7003 27.5727C18.7885 27.5739 18.8774 27.5853 18.9642 27.6072C19.231 27.6749 19.4739 27.8507 19.6019 28.1554C19.6785 28.3382 19.8888 28.4242 20.0716 28.3475C20.2543 28.2709 20.3403 28.0606 20.2637 27.8778C20.0384 27.3413 19.6095 27.0312 19.138 26.9118C19.1034 26.903 19.0686 26.8953 19.0336 26.8887V26.6105C19.0336 26.4123 18.8729 26.2516 18.6746 26.2516C18.4764 26.2516 18.3157 26.4123 18.3157 26.6105V26.894C18.0438 26.9489 17.7884 27.0637 17.5827 27.2309C17.2665 27.4879 17.066 27.8611 17.0887 28.3265C17.1113 28.794 17.3446 29.1076 17.6694 29.3196C17.9526 29.5045 18.3003 29.6001 18.621 29.6528C18.8786 29.6951 19.1536 29.7619 19.3625 29.888C19.5296 29.9889 19.6551 30.1364 19.6819 30.3573C19.6855 30.3867 19.6874 30.4082 19.6878 30.4218C19.6919 30.5975 19.6079 30.7314 19.4817 30.8271C19.3237 30.947 19.1018 31.0177 18.8799 31.0446C18.8195 31.0519 18.7667 31.0561 18.722 31.0571L18.7049 31.0574C18.695 31.0566 18.6848 31.0562 18.6746 31.0562C18.666 31.0563 18.6575 31.0566 18.6491 31.0572ZM16.8183 21.5534L16.2503 20.9855C15.9347 20.6699 15.9347 20.1533 16.2503 19.8377C16.5188 19.5692 16.9438 19.5238 17.2633 19.7289C17.382 19.8051 17.5182 19.8172 17.6485 19.7633C17.7787 19.7094 17.8664 19.6045 17.8965 19.4667C17.976 19.1023 18.3023 18.8274 18.6896 18.8273C19.07 18.8273 19.4017 19.0954 19.4828 19.4667C19.5129 19.6045 19.6006 19.7094 19.7308 19.7633C19.8611 19.8173 19.9973 19.8051 20.1159 19.7289C20.4297 19.5275 20.8549 19.5638 21.1288 19.8377C21.4445 20.1533 21.4445 20.6699 21.1288 20.9855L20.5609 21.5534C20.5247 21.5508 20.4882 21.5494 20.4513 21.5494H16.9278C16.891 21.5494 16.8545 21.5508 16.8183 21.5534Z" fill="#0D88FF"/>
</svg>
