<svg width="72" height="80" viewBox="0 0 72 80" fill="none" xmlns="http://www.w3.org/2000/svg">
<path d="M70.9843 23.5309C70.9837 22.1893 70.6968 21.0039 70.1166 19.9865C69.5466 18.986 68.6931 18.1475 67.5482 17.4845C58.0978 12.0353 48.6382 6.60284 39.1908 1.1481C36.6438 -0.322304 34.1744 -0.268698 31.6463 1.22282C27.8847 3.44121 9.05187 14.231 3.43993 17.4815C1.12878 18.8194 0.00416625 20.867 0.00361075 23.5284C0 34.487 0.00361075 45.4453 0 56.4042C0.0005555 57.7163 0.27525 58.8787 0.829917 59.8808C1.40014 60.9116 2.26561 61.7732 3.43688 62.4511C9.04909 65.7016 27.8844 76.4906 31.6452 78.7095C34.1744 80.2019 36.6438 80.2552 39.1916 78.7842C48.6393 73.3292 58.0995 67.897 67.5513 62.4478C68.7226 61.7701 69.588 60.908 70.1582 59.8781C70.7121 58.8759 70.9873 57.7136 70.9879 56.4012C70.9879 56.4012 70.9879 34.4898 70.9843 23.5309Z" fill="#5C8DBC"/>
<path d="M35.6027 39.8599L0.830078 59.8812C1.4003 60.9119 2.26577 61.7735 3.43704 62.4515C9.04926 65.702 27.8846 76.4909 31.6453 78.7099C34.1745 80.2022 36.644 80.2556 39.1918 78.7846C48.6395 73.3296 58.0996 67.8973 67.5515 62.4482C68.7227 61.7705 69.5882 60.9083 70.1584 59.8784L35.6027 39.8599Z" fill="#1A4674"/>
<path d="M25.3037 45.7904C27.3271 49.3228 31.1309 51.7053 35.4944 51.7053C39.8848 51.7053 43.7102 49.2925 45.7233 45.7223L35.603 39.8599L25.3037 45.7904Z" fill="#1A4674"/>
<path d="M70.9843 23.5312C70.9837 22.1897 70.6968 21.0042 70.1166 19.9868L35.6025 39.8598L70.1582 59.8784C70.7121 58.8763 70.9873 57.7139 70.9879 56.4015C70.9879 56.4015 70.9879 34.4901 70.9843 23.5312Z" fill="#1B598E"/>
<path d="M69.0846 41.2904H66.3843V43.9913H63.6835V41.2904H60.9835V38.5904H63.6835V35.8901H66.3843V38.5904H69.0846V41.2904ZM59.2314 41.2904H56.5314V43.9913H53.8311V41.2904H51.1309V38.5904H53.8311V35.8901H56.5314V38.5904H59.2314V41.2904Z" fill="white"/>
<path d="M45.7229 45.7221C43.7098 49.2923 39.8843 51.7052 35.494 51.7052C31.1305 51.7052 27.3267 49.3226 25.3033 45.7902C24.2868 44.0177 23.753 42.0096 23.7551 39.9663C23.7551 33.4834 29.011 28.2278 35.494 28.2278C39.8294 28.2278 43.6131 30.5806 45.6465 34.0769L55.9069 28.1686C51.8287 21.1288 44.2147 16.3926 35.494 16.3926C22.4741 16.3926 11.9199 26.9471 11.9199 39.9663C11.9199 44.2376 13.0562 48.243 15.0421 51.6979C19.11 58.775 26.7457 63.5404 35.494 63.5404C44.2584 63.5404 51.9059 58.7558 55.968 51.6579L45.7229 45.7221Z" fill="white"/>
</svg>
