<svg width="50" height="50" viewBox="0 0 50 50" fill="none" xmlns="http://www.w3.org/2000/svg">
<rect opacity="0.15" width="50" height="50" rx="6" fill="#8B40E5"/>
<path d="M34.177 21.4286C34.4868 21.9597 35.0565 22.3214 35.7143 22.3214C36.6987 22.3214 37.5 21.5206 37.5 20.5357C37.5 19.5509 36.6987 18.75 35.7143 18.75C35.0565 18.75 34.4868 19.1117 34.177 19.6429H30.3571V18.75H31.25C31.4872 18.75 31.7139 18.6558 31.8813 18.4884L33.4054 16.9643H34.177C34.4868 17.4955 35.0565 17.8571 35.7143 17.8571C36.6987 17.8571 37.5 17.0563 37.5 16.0714C37.5 15.0866 36.6987 14.2857 35.7143 14.2857C35.0565 14.2857 34.4868 14.6474 34.177 15.1786H33.0357C32.7985 15.1786 32.5718 15.2727 32.4044 15.4402L30.8803 16.9643H30.3571V16.0714H27.6786C27.1854 16.0714 26.7857 15.6717 26.7857 15.1786V12.5H20.5357C20.0426 12.5 19.6429 12.8997 19.6429 13.3929V16.9643H19.1197L17.5956 15.4402C17.4282 15.2727 17.2015 15.1786 16.9643 15.1786H15.823C15.5132 14.6474 14.9435 14.2857 14.2857 14.2857C13.3013 14.2857 12.5 15.0866 12.5 16.0714C12.5 17.0563 13.3013 17.8571 14.2857 17.8571C14.9435 17.8571 15.5132 17.4955 15.823 16.9643H16.5946L18.1187 18.4884C18.2861 18.6558 18.5128 18.75 18.75 18.75H19.6429V19.6429H15.823C15.5132 19.1117 14.9435 18.75 14.2857 18.75C13.3013 18.75 12.5 19.5509 12.5 20.5357C12.5 21.5206 13.3013 22.3214 14.2857 22.3214C14.9435 22.3214 15.5132 21.9597 15.823 21.4286H19.6429V22.3214H18.75C18.5128 22.3214 18.2861 22.4156 18.1187 22.583L16.5946 24.1071H15.823C15.5132 23.576 14.9435 23.2143 14.2857 23.2143C13.3013 23.2143 12.5 24.0152 12.5 25C12.5 25.9848 13.3013 26.7857 14.2857 26.7857C14.9435 26.7857 15.5132 26.424 15.823 25.8929H16.9643C17.2015 25.8929 17.4282 25.7987 17.5956 25.6313L19.1197 24.1071H19.6429V25.8929C19.6429 26.3859 20.0426 26.7857 20.5357 26.7857H21.9517L16.333 32.4044C16.3307 32.4067 16.3301 32.4098 16.3279 32.4121C15.9782 32.2445 15.5915 32.1429 15.1786 32.1429C13.7015 32.1429 12.5 33.3444 12.5 34.8214C12.5 36.2985 13.7015 37.5 15.1786 37.5C16.6556 37.5 17.8571 36.2985 17.8571 34.8214C17.8571 34.4085 17.7555 34.0218 17.5879 33.6721C17.5902 33.6699 17.5933 33.6693 17.5956 33.667L24.1071 27.1554V32.1429C24.1071 32.1978 24.1289 32.2455 24.1384 32.2976C23.0853 32.6586 22.3214 33.6475 22.3214 34.8214C22.3214 36.2985 23.5229 37.5 25 37.5C26.4771 37.5 27.6786 36.2985 27.6786 34.8214C27.6786 33.6475 26.9147 32.6586 25.8616 32.2976C25.8711 32.2455 25.8929 32.1978 25.8929 32.1429V27.1554L32.4044 33.667C32.4067 33.6693 32.4099 33.6699 32.4122 33.6721C32.2446 34.0218 32.1429 34.4085 32.1429 34.8214C32.1429 36.2985 33.3444 37.5 34.8214 37.5C36.2985 37.5 37.5 36.2985 37.5 34.8214C37.5 33.3444 36.2985 32.1429 34.8214 32.1429C34.4085 32.1429 34.0218 32.2445 33.6721 32.4122C33.6699 32.4099 33.6693 32.4067 33.667 32.4044L28.0483 26.7857H29.4643C29.9574 26.7857 30.3571 26.3859 30.3571 25.8929V24.1071H30.8803L32.4044 25.6313C32.5718 25.7987 32.7985 25.8929 33.0357 25.8929H34.177C34.4868 26.424 35.0565 26.7857 35.7143 26.7857C36.6987 26.7857 37.5 25.9848 37.5 25C37.5 24.0152 36.6987 23.2143 35.7143 23.2143C35.0565 23.2143 34.4868 23.576 34.177 24.1071H33.4054L31.8813 22.583C31.7139 22.4156 31.4872 22.3214 31.25 22.3214H30.3571V21.4286H34.177ZM28.125 24.1071H21.875C21.6282 24.1071 21.4286 23.9075 21.4286 23.6607C21.4286 23.414 21.6282 23.2143 21.875 23.2143H28.125C28.3718 23.2143 28.5714 23.414 28.5714 23.6607C28.5714 23.9075 28.3718 24.1071 28.125 24.1071ZM28.125 22.3214H21.875C21.6282 22.3214 21.4286 22.1218 21.4286 21.875C21.4286 21.6282 21.6282 21.4286 21.875 21.4286H28.125C28.3718 21.4286 28.5714 21.6282 28.5714 21.875C28.5714 22.1218 28.3718 22.3214 28.125 22.3214ZM28.125 20.5357H21.875C21.6282 20.5357 21.4286 20.336 21.4286 20.0893C21.4286 19.8425 21.6282 19.6429 21.875 19.6429H28.125C28.3718 19.6429 28.5714 19.8425 28.5714 20.0893C28.5714 20.336 28.3718 20.5357 28.125 20.5357ZM28.125 18.75H21.875C21.6282 18.75 21.4286 18.5503 21.4286 18.3036C21.4286 18.0568 21.6282 17.8571 21.875 17.8571H28.125C28.3718 17.8571 28.5714 18.0568 28.5714 18.3036C28.5714 18.5503 28.3718 18.75 28.125 18.75Z" fill="#5800FF"/>
<path d="M27.6777 12.5V15.1786H30.3563L27.6777 12.5Z" fill="#5800FF"/>
</svg>
