<svg width="72" height="60" viewBox="0 0 72 60" fill="none" xmlns="http://www.w3.org/2000/svg">
<path fill-rule="evenodd" clip-rule="evenodd" d="M10.7746 48.55V43.9847C10.7746 43.3848 11.1496 42.903 11.7707 42.903H11.9426C12.5634 42.903 12.9367 43.3854 12.9367 43.9847V53.596C12.9367 55.9398 11.7788 57.8048 9.76091 58.9928C8.83657 59.5404 7.78145 59.8282 6.70706 59.8257H6.27821C3.93391 59.8257 2.07146 58.6669 0.88145 56.6505C0.33304 55.7262 0.0453144 54.6707 0.0488605 53.596V53.1678C0.0488605 50.8232 1.20734 48.9593 3.22353 47.769C4.1477 47.2203 5.2034 46.9324 6.27821 46.9362H6.70706C8.29356 46.9362 9.63954 47.5511 10.7746 48.55ZM2.21069 53.3815C2.21069 55.0746 3.03128 56.3474 4.51482 57.1594C5.11471 57.4875 5.76594 57.6638 6.45037 57.6638C8.1122 57.6638 9.3449 56.8798 10.1951 55.4716C10.5904 54.8165 10.7746 54.0997 10.7746 53.3377C10.7746 51.87 10.0798 50.7247 8.89707 49.874C8.18 49.3583 7.3728 49.0997 6.4925 49.0997C4.68112 49.0997 3.37754 50.0149 2.59518 51.6404C2.33123 52.1901 2.21069 52.7735 2.21069 53.3815ZM20.4373 46.9362H20.7369C23.2419 46.9362 25.1471 48.1513 26.3544 50.338C26.8371 51.2127 27.0955 52.1675 27.0955 53.1678V53.596C27.0955 55.9398 25.9398 57.8073 23.9188 58.9931C22.9833 59.5419 21.9498 59.8257 20.8655 59.8257H20.4373C18.0929 59.8257 16.2299 58.6669 15.0405 56.6505C14.4918 55.7263 14.2038 54.6708 14.2071 53.596V53.1678C14.2071 50.8229 15.3703 48.9652 17.3815 47.7696C18.3164 47.2141 19.3508 46.9362 20.4373 46.9362ZM16.3692 53.3815C16.3692 55.0249 17.1755 56.2339 18.5637 57.0841C19.2154 57.483 19.9333 57.6638 20.6948 57.6638C22.3187 57.6638 23.519 56.8405 24.3544 55.4699C24.7528 54.8165 24.9331 54.0986 24.9331 53.3377C24.9331 51.8095 24.197 50.6421 22.9387 49.7961C22.2492 49.3321 21.4816 49.0997 20.6513 49.0997C18.8399 49.0997 17.5363 50.0149 16.7542 51.6404C16.4897 52.1901 16.3692 52.7735 16.3692 53.3815ZM36.0835 49.2724C35.757 49.1195 35.146 49.0687 34.7933 49.0553C32.9869 48.9872 31.68 50.0045 30.9133 51.598C30.6485 52.1477 30.5277 52.7294 30.5277 53.3377C30.5277 55.1895 31.5 56.4861 33.1529 57.2766C33.7567 57.5651 34.5363 57.6198 35.1962 57.6198C35.7765 57.6198 36.5969 57.2643 37.1119 57.0196L37.2012 56.9772H37.601L37.6451 56.9861C38.1368 57.0885 38.5078 57.4002 38.5078 57.9292V58.1432C38.5078 59.4596 36.1022 59.7609 35.1842 59.8251C31.9448 60.0492 29.5221 58.2702 28.5985 55.1803C28.4381 54.6438 28.3658 54.1108 28.3658 53.5517V53.124C28.3658 50.7794 29.5293 48.9222 31.5402 47.7277C32.4752 47.1725 33.5092 46.8935 34.5955 46.8935H35.024C36.1764 46.8935 37.2378 47.2208 38.1892 47.8706L38.2673 47.9247L38.3167 48.0062C38.4194 48.1764 38.5078 48.3734 38.5078 48.576V48.79C38.5078 49.3419 38.0949 49.6387 37.5966 49.7347L37.5553 49.742H37.4275C37.1049 49.742 36.3714 49.408 36.0835 49.2724ZM43.0963 50.7364C43.9361 49.8954 44.7788 49.0561 45.6312 48.2291C45.8686 47.9984 46.7679 47.0218 47.122 47.0218H47.5092L47.5533 47.031C48.0466 47.1334 48.416 47.4457 48.416 47.9758V48.1895C48.416 48.5511 47.9925 48.9713 47.759 49.2188C47.2623 49.7453 46.7394 50.2545 46.2311 50.7702L43.6189 53.4219C44.7436 54.5492 45.8672 55.6772 46.9827 56.8131C47.2921 57.1266 47.5992 57.4425 47.9038 57.7607C48.0112 57.8737 48.1697 58.0143 48.2598 58.1708C48.3566 58.3176 48.416 58.483 48.416 58.6597V58.8829L48.4035 58.9345C48.2821 59.4278 47.9691 59.8257 47.4225 59.8257H47.2503C46.8926 59.8257 46.4886 59.4211 46.2436 59.1898C45.7386 58.7138 45.2511 58.2132 44.7562 57.7269L43.0963 56.0974V58.7018C43.0963 59.3017 42.7207 59.7838 42.1005 59.7838H41.9303C41.3092 59.7838 40.9342 59.3017 40.9342 58.7018V44.0266C40.9342 43.4267 41.3095 42.9468 41.9303 42.9468H42.1005C42.7207 42.9468 43.0963 43.4267 43.0963 44.0266V50.7364ZM70.043 47.0218H70.2578C70.9063 47.0218 71.339 47.4588 71.339 48.1036C71.339 48.9987 70.4833 49.2277 69.7431 49.2277C68.7721 49.2277 67.8449 49.8156 67.1755 50.475C66.341 51.2978 65.9758 52.3516 65.9758 53.5101V58.7442C65.9758 59.3441 65.601 59.8257 64.9797 59.8257H64.8089C64.1875 59.8257 63.8131 59.3444 63.8131 58.7442V53.2096C63.8131 51.0843 64.8477 49.3494 66.5726 48.1326C67.6024 47.4058 68.7821 47.0218 70.043 47.0218ZM54.6764 57.3946C55.4632 57.6694 56.3602 57.6301 57.1674 57.4895C57.5804 57.314 58.6362 56.8533 59.0246 56.9208L59.0851 56.9311L59.1409 56.9585C59.3781 57.0734 59.6044 57.2361 59.7255 57.4775C60.0084 58.043 59.8725 58.6117 59.3167 58.9328L59.1317 59.0397C57.0809 60.2233 54.8996 60.0592 52.8552 58.9537C51.8778 58.4253 51.1301 57.641 50.5784 56.6848L50.4495 56.4613C49.1328 54.1811 49.3106 51.7827 50.7955 49.6145C51.3081 48.865 51.978 48.2861 52.7612 47.8332L53.0575 47.6622C54.9889 46.5472 57.0589 46.6237 59.0424 47.6022C60.1091 48.1284 60.9732 48.9127 61.5687 49.9443L61.6758 50.1301C62.1083 50.8795 61.548 51.5324 60.9696 51.9789C60.2983 52.4967 59.6206 53.12 58.9772 53.6753C57.5424 54.9138 56.11 56.1552 54.6764 57.3946ZM52.8195 56.0905C54.4239 54.7149 56.0288 53.338 57.6289 51.9565C58.1758 51.485 58.7754 50.9956 59.3178 50.4998C58.8826 49.9512 58.1554 49.5559 57.5377 49.3201C56.2905 48.8449 55.0609 49.0045 53.9172 49.6647C52.4202 50.5291 51.7827 51.9055 51.8385 53.6184C51.8608 54.293 52.0422 54.9431 52.4001 55.5171C52.5263 55.7194 52.6672 55.9094 52.8195 56.0905ZM41.1515 12.7654H47.5316V19.2875H50.7573C52.2472 19.2875 53.7793 19.0221 55.19 18.5442C55.8834 18.3089 56.6613 17.9819 57.3452 17.5704C56.4445 16.3946 55.9847 14.9099 55.8496 13.4465C55.6655 11.4557 56.0673 8.86475 57.4144 7.30671L58.0851 6.53104L58.8842 7.17362C60.8962 8.78997 62.5885 11.0489 62.8867 13.624C65.3095 12.9113 68.1541 13.0799 70.2894 14.3123L71.1655 14.8179L70.7046 15.718C68.8985 19.2425 65.1225 20.3346 61.4311 20.1413C55.9074 33.8993 43.8815 40.4127 29.3003 40.4127C21.7668 40.4127 14.8555 37.5966 10.9197 30.913L10.8552 30.8042L10.2818 29.6373C8.95148 26.6954 8.50952 23.4724 8.80918 20.252L8.89931 19.2875H14.3552V12.7654H20.735V6.38539H33.4953V0.00537109H41.1515V12.7654Z" fill="#364548"/>
<path fill-rule="evenodd" clip-rule="evenodd" d="M61.822 15.1785C62.2497 11.8537 59.7617 9.2424 58.2188 8.00244C56.4406 10.0582 56.1643 15.4461 58.954 17.7145C57.397 19.0973 54.1166 20.3507 50.7575 20.3507H9.86886C9.54241 23.8571 10.1579 27.0861 11.5639 29.8498L12.029 30.7008C12.3235 31.2003 12.6453 31.6832 12.993 32.1473C14.6741 32.2552 16.2241 32.2923 17.642 32.2611H17.6426C20.4291 32.1997 22.7028 31.8705 24.4261 31.2734C24.5479 31.2355 24.6797 31.2465 24.7935 31.304C24.9074 31.3615 24.9945 31.4611 25.0362 31.5816C25.078 31.7022 25.0713 31.8342 25.0175 31.9499C24.9636 32.0656 24.8669 32.1557 24.7478 32.2014C24.5184 32.2812 24.2796 32.3554 24.0329 32.426H24.0321C22.6752 32.8135 21.2201 33.0742 19.3429 33.1899C19.4545 33.1919 19.2268 33.2067 19.2263 33.2067C19.1624 33.2109 19.082 33.2201 19.0179 33.2234C18.279 33.265 17.4816 33.2736 16.6663 33.2736C15.7746 33.2736 14.8965 33.2569 13.9146 33.2067L13.8895 33.2234C17.2963 37.0527 22.6233 39.3493 29.3008 39.3493C43.4325 39.3493 55.4191 33.0848 60.7271 19.0209C64.4927 19.4073 68.1119 18.4469 69.7581 15.2332C67.1359 13.7201 63.7637 14.2025 61.822 15.1785Z" fill="#22A0C8"/>
<path fill-rule="evenodd" clip-rule="evenodd" d="M61.8218 15.1785C62.2495 11.8537 59.7615 9.2424 58.2186 8.00244C56.4404 10.0582 56.1641 15.4461 58.9538 17.7145C57.3968 19.0973 54.1164 20.3507 50.7573 20.3507H12.29C12.1231 25.7206 14.1159 29.7968 17.6415 32.2611H17.6424C20.4289 32.1997 22.7026 31.8705 24.4259 31.2734C24.5477 31.2355 24.6795 31.2465 24.7933 31.304C24.9072 31.3615 24.9943 31.4611 25.036 31.5816C25.0778 31.7022 25.0711 31.8342 25.0173 31.9499C24.9634 32.0656 24.8667 32.1557 24.7476 32.2014C24.5182 32.2812 24.2794 32.3554 24.0327 32.426H24.0319C22.675 32.8135 21.0949 33.1076 19.2177 33.2234C19.2172 33.2234 19.1722 33.1802 19.1717 33.1802C23.9811 35.6473 30.9546 35.6383 38.9499 32.5672C47.9147 29.123 56.2571 22.5616 62.0776 15.0569C61.99 15.0965 61.9047 15.1369 61.8218 15.1785Z" fill="#37B1D9"/>
<path fill-rule="evenodd" clip-rule="evenodd" d="M9.94531 24.6108C10.1992 26.4892 10.7489 28.2478 11.5636 29.8497L12.0287 30.7007C12.3232 31.2002 12.645 31.6831 12.9927 32.1471C14.6741 32.2551 16.2241 32.2922 17.6423 32.261C20.4289 32.1996 22.7026 31.8703 24.4258 31.2732C24.5476 31.2353 24.6794 31.2463 24.7933 31.3038C24.9071 31.3614 24.9942 31.4609 25.036 31.5815C25.0778 31.702 25.071 31.8341 25.0172 31.9497C24.9633 32.0654 24.8666 32.1556 24.7475 32.2012C24.5181 32.281 24.2793 32.3553 24.0326 32.4259H24.0318C22.6749 32.8134 21.1032 33.0908 19.226 33.2068C19.1616 33.2107 19.0491 33.2116 18.9841 33.2152C18.2458 33.2565 17.4565 33.2819 16.6409 33.2819C15.7494 33.2819 14.8376 33.2649 13.8563 33.2149C17.2631 37.0442 22.623 39.3491 29.3005 39.3491C41.3987 39.3491 51.9244 34.757 58.0335 24.6108H9.94531Z" fill="#1B81A5"/>
<path fill-rule="evenodd" clip-rule="evenodd" d="M12.6582 24.6108C13.3814 27.9088 15.1194 30.4978 17.6426 32.261C20.4291 32.1996 22.7028 31.8703 24.4261 31.2732C24.5479 31.2353 24.6797 31.2463 24.7935 31.3038C24.9074 31.3614 24.9945 31.4609 25.0362 31.5815C25.078 31.702 25.0713 31.8341 25.0175 31.9497C24.9636 32.0654 24.8669 32.1556 24.7478 32.2012C24.5184 32.281 24.2796 32.3553 24.0329 32.4259H24.0321C22.6752 32.8134 21.0703 33.0908 19.1928 33.2068C24.002 35.6733 30.9554 35.6379 38.9501 32.567C43.7866 30.7088 48.4414 27.9426 52.6175 24.6108H12.6582Z" fill="#1D91B4"/>
<path fill-rule="evenodd" clip-rule="evenodd" d="M15.4189 13.8288H20.9485V19.3583H15.4189V13.8288ZM15.8796 14.2897H16.316V18.8977H15.8796V14.2897ZM16.6999 14.2897H17.1539V18.8977H16.7002L16.6999 14.2897ZM17.5375 14.2897H17.9915V18.8977H17.5375V14.2897ZM18.3757 14.2897H18.8294V18.8977H18.3757V14.2897ZM19.2136 14.2897H19.6673V18.8977H19.2136V14.2897ZM20.0512 14.2897H20.4879V18.8977H20.0512V14.2897ZM21.799 7.44873H27.3288V12.978H21.7987L21.799 7.44873ZM22.2599 7.90967H22.696V12.5174H22.2599V7.90967ZM23.0802 7.90967H23.5339V12.5174H23.0805L23.0802 7.90967ZM23.9178 7.90967H24.3715V12.5174H23.9178V7.90967ZM24.7557 7.90967H25.2094V12.5174H24.7557V7.90967ZM25.5936 7.90967H26.0476V12.5174H25.5936V7.90967ZM26.4312 7.90967H26.8682V12.5174H26.4312V7.90967Z" fill="#23A3C2"/>
<path fill-rule="evenodd" clip-rule="evenodd" d="M21.7981 13.8286H27.328V19.3582H21.7979L21.7981 13.8286ZM22.2591 14.2896H22.6952V18.8975H22.2591V14.2896ZM23.0794 14.2896H23.5331V18.8975H23.0797L23.0794 14.2896ZM23.917 14.2896H24.3707V18.8975H23.917V14.2896ZM24.7549 14.2896H25.2086V18.8975H24.7549V14.2896ZM25.5928 14.2896H26.0467V18.8975H25.5928V14.2896ZM26.4304 14.2896H26.8673V18.8975H26.4304V14.2896Z" fill="#34BBDE"/>
<path fill-rule="evenodd" clip-rule="evenodd" d="M28.1787 13.8286H33.7083V19.3582H28.1787V13.8286ZM28.6394 14.2896H29.0755V18.8975H28.6394V14.2896ZM29.4597 14.2896H29.9134V18.8975H29.4597V14.2896ZM30.2976 14.2896H30.7513V18.8975H30.2976V14.2896ZM31.1355 14.2896H31.5891V18.8975H31.1355V14.2896ZM31.9731 14.2896H32.4273V18.8975H31.9731V14.2896ZM32.811 14.2896H33.2473V18.8975H32.811V14.2896Z" fill="#23A3C2"/>
<path fill-rule="evenodd" clip-rule="evenodd" d="M28.1787 7.44873H33.7083V12.978H28.1787V7.44873ZM28.6394 7.90967H29.0755V12.5174H28.6394V7.90967ZM29.4597 7.90967H29.9134V12.5174H29.4597V7.90967ZM30.2976 7.90967H30.7513V12.5174H30.2976V7.90967ZM31.1355 7.90967H31.5891V12.5174H31.1355V7.90967ZM31.9731 7.90967H32.4273V12.5174H31.9731V7.90967ZM32.811 7.90967H33.2473V12.5174H32.811V7.90967ZM34.5587 13.8288H40.0883V19.3583H34.5587V13.8288ZM35.0197 14.2897H35.4558V18.8977H35.0197V14.2897ZM35.84 14.2897H36.2937V18.8977H35.84V14.2897ZM36.6776 14.2897H37.1313V18.8977H36.6776V14.2897ZM37.5155 14.2897H37.9694V18.8977H37.5155V14.2897ZM38.3534 14.2897H38.8073V18.8977H38.3534V14.2897ZM39.1913 14.2897H39.6277V18.8977H39.1913V14.2897Z" fill="#34BBDE"/>
<path fill-rule="evenodd" clip-rule="evenodd" d="M34.5586 7.44873H40.0882V12.978H34.5586V7.44873ZM35.0195 7.90967H35.4556V12.5174H35.0195V7.90967ZM35.8398 7.90967H36.2935V12.5174H35.8398V7.90967ZM36.6775 7.90967H37.1311V12.5174H36.6775V7.90967ZM37.5153 7.90967H37.9693V12.5174H37.5153V7.90967ZM38.3532 7.90967H38.8072V12.5174H38.3532V7.90967ZM39.1911 7.90967H39.6275V12.5174H39.1911V7.90967Z" fill="#23A3C2"/>
<path fill-rule="evenodd" clip-rule="evenodd" d="M34.5586 1.06836H40.0882V6.59849H34.5586V1.06836ZM35.0195 1.52902H35.4556V6.13728H35.0195V1.52902ZM35.8398 1.52902H36.2935V6.13728H35.8398V1.52902ZM36.6775 1.52902H37.1311V6.13728H36.6775V1.52902ZM37.5153 1.52902H37.9693V6.13728H37.5153V1.52902ZM38.3532 1.52902H38.8072V6.13728H38.3532V1.52902ZM39.1911 1.52902H39.6275V6.13728H39.1911V1.52902Z" fill="#34BBDE"/>
<path fill-rule="evenodd" clip-rule="evenodd" d="M40.9385 13.8286H46.4681V19.3582H40.9385V13.8286ZM41.3989 14.2896H41.8355V18.8975H41.3991V14.2896H41.3989ZM42.2192 14.2896H42.6731V18.8975H42.2194L42.2192 14.2896ZM43.0573 14.2896H43.5113V18.8975H43.0573V14.2896ZM43.8949 14.2896H44.3489V18.8975H43.8949V14.2896ZM44.7331 14.2896H45.1868V18.8975H44.7331V14.2896ZM45.5707 14.2896H46.0071V18.8975H45.5707V14.2896Z" fill="#23A3C2"/>
<path fill-rule="evenodd" clip-rule="evenodd" d="M26.9819 28.3234C27.184 28.3207 27.3845 28.3582 27.572 28.4336C27.7595 28.5091 27.9301 28.6211 28.0739 28.763C28.2178 28.905 28.332 29.0741 28.4099 29.2606C28.4878 29.447 28.5279 29.6471 28.5279 29.8492C28.5279 30.0513 28.4877 30.2514 28.4097 30.4378C28.3317 30.6242 28.2174 30.7933 28.0735 30.9352C27.9296 31.0771 27.759 31.189 27.5715 31.2644C27.384 31.3398 27.1834 31.3772 26.9813 31.3744C26.5803 31.3689 26.1976 31.2058 25.916 30.9202C25.6343 30.6347 25.4765 30.2497 25.4766 29.8486C25.4766 29.4476 25.6346 29.0627 25.9163 28.7772C26.1981 28.4918 26.5809 28.3287 26.9819 28.3234Z" fill="#D3ECEC"/>
<path fill-rule="evenodd" clip-rule="evenodd" d="M26.9821 28.7563C27.1217 28.7563 27.2547 28.7825 27.3775 28.8302C27.2928 28.8794 27.2266 28.9551 27.1892 29.0457C27.1519 29.1362 27.1453 29.2365 27.1707 29.3312C27.196 29.4258 27.2518 29.5094 27.3294 29.5692C27.4071 29.6289 27.5022 29.6614 27.6002 29.6617C27.769 29.6617 27.9155 29.5682 27.9914 29.4298C28.0812 29.6463 28.0991 29.8859 28.0423 30.1133C27.9855 30.3407 27.8571 30.5438 27.676 30.6926C27.4949 30.8414 27.2708 30.928 27.0367 30.9396C26.8026 30.9513 26.571 30.8873 26.3761 30.7572C26.1811 30.6271 26.0332 30.4378 25.9541 30.2171C25.8751 29.9965 25.8691 29.7563 25.937 29.532C26.005 29.3077 26.1432 29.1112 26.3314 28.9715C26.5196 28.8318 26.7478 28.7563 26.9821 28.7563ZM0 25.1623H70.9618C69.4169 24.7705 66.0734 24.2409 66.6247 22.2158C63.815 25.4669 57.0396 24.4968 55.3295 22.8938C53.4255 25.6556 42.3401 24.6056 41.567 22.4541C39.1797 25.2557 31.7826 25.2557 29.3954 22.4541C28.6217 24.6056 17.5366 25.6556 15.6323 22.8936C13.9224 24.4968 7.14732 25.4669 4.33761 22.2161C4.88895 24.2409 1.54548 24.7702 0 25.1623Z" fill="#364548"/>
<path fill-rule="evenodd" clip-rule="evenodd" d="M31.0372 39.3163C27.2593 37.5236 25.186 35.0864 24.0322 32.4263C22.6288 32.8267 20.9421 33.0828 18.982 33.1927C18.2437 33.234 17.4669 33.2552 16.6522 33.2552C15.7125 33.2552 14.7222 33.2273 13.6826 33.1724C17.1472 36.635 21.4092 39.3007 29.3009 39.3493C29.8835 39.3493 30.4616 39.3381 31.0372 39.3163Z" fill="#BDD9D7"/>
<path fill-rule="evenodd" clip-rule="evenodd" d="M25.4349 34.8811C24.9123 34.1716 24.4053 33.2799 24.0325 32.4258C22.629 32.8267 20.9418 33.0829 18.9814 33.1931C20.328 33.9238 22.2532 34.601 25.4349 34.8811Z" fill="#D3ECEC"/>
</svg>
