<svg width="72" height="58" viewBox="0 0 72 58" fill="none" xmlns="http://www.w3.org/2000/svg">
<path d="M14.9661 20.6684C11.8576 20.6684 9.54272 22.1946 9.54272 25.868C9.54272 28.6355 11.0684 30.5571 14.7984 30.5571C17.9602 30.5571 20.1079 28.6938 20.1079 25.753C20.1079 22.4206 18.1863 20.6684 14.9661 20.6684ZM8.7513 46.6057C8.0154 47.5082 7.28228 48.4679 7.28228 49.5993C7.28228 51.858 10.1625 52.5378 14.1191 52.5378C17.396 52.5378 21.8602 52.3079 21.8602 49.261C21.8602 47.4499 19.7125 47.3383 16.9988 47.1683L8.7513 46.6057ZM25.4758 20.8389C26.491 22.1385 27.5663 23.9474 27.5663 26.5461C27.5663 32.8176 22.6505 36.4898 15.5326 36.4898C13.7226 36.4898 12.0842 36.2643 11.0684 35.9822L9.20282 38.9757L14.7395 39.3145C24.5155 39.9377 30.2766 40.2209 30.2766 47.7326C30.2766 54.2318 24.5716 57.9024 14.7395 57.9024C4.51311 57.9024 0.614258 55.3031 0.614258 50.84C0.614258 48.2974 1.74448 46.9439 3.72223 45.0762C1.85722 44.2881 1.2363 42.8763 1.2363 41.3495C1.2363 40.1054 1.85722 38.9763 2.87581 37.9016C3.89217 36.8297 5.02184 35.755 6.3781 34.5121C3.61004 33.1558 1.51843 30.2178 1.51843 26.0357C1.51843 19.5393 5.81327 15.0773 14.4563 15.0773C16.8867 15.0773 18.3562 15.3005 19.6558 15.6421H30.6748V20.4429L25.4758 20.8389ZM40.6152 10.5714C37.3939 10.5714 35.5295 8.70527 35.5295 5.48344C35.5295 2.26606 37.3934 0.512695 40.6152 0.512695C43.892 0.512695 45.757 2.26606 45.757 5.48344C45.757 8.70527 43.8925 10.5714 40.6152 10.5714ZM33.3251 44.5263V40.0649L36.2076 39.6705C36.999 39.5567 37.1112 39.3878 37.1112 38.5387V21.9269C37.1112 21.3071 36.9424 20.9094 36.3753 20.7417L33.3251 19.667L33.9461 15.0917H45.6431V38.5387C45.6431 39.4439 45.6976 39.5567 46.5479 39.6711L49.4292 40.0654V44.5263H33.3251ZM71.7732 42.3359C69.3428 43.5216 65.7833 44.5952 62.5615 44.5952C55.8379 44.5952 53.2964 41.886 53.2964 35.4979V20.6962C53.2964 20.3574 53.2964 20.1313 52.8427 20.1313H48.8883V15.1012C53.8618 14.5347 55.8379 12.0487 56.4594 5.88999H61.8278V13.9154C61.8278 14.3097 61.8278 14.4802 62.2804 14.4802H70.2464V20.1302H61.8278V33.6334C61.8278 36.9669 62.6198 38.2654 65.6694 38.2654C67.2534 38.2654 68.8901 37.8711 70.2458 37.3623L71.7732 42.3359Z" fill="#2F2707"/>
</svg>
