<svg width="50" height="50" viewBox="0 0 50 50" fill="none" xmlns="http://www.w3.org/2000/svg">
<rect opacity="0.15" width="50" height="50" rx="6" fill="#FD346E"/>
<path fill-rule="evenodd" clip-rule="evenodd" d="M25 12.5C25.8078 12.5 26.4626 13.1615 26.4626 13.9775C26.4626 14.6445 26.0251 15.2082 25.4242 15.3919C25.4019 15.3987 25.3872 15.4187 25.3872 15.4423L25.3906 18.009C25.3906 18.2269 25.2157 18.4036 24.9999 18.4036C24.7842 18.4036 24.6093 18.2269 24.6093 18.009L24.6126 15.4423C24.6126 15.4187 24.598 15.3987 24.5757 15.3919C23.9748 15.2082 23.5373 14.6445 23.5373 13.9775C23.5374 13.1615 24.1922 12.5 25 12.5ZM26.1608 35.073H23.8392C23.8105 35.073 23.7871 35.0966 23.7871 35.1256V36.7379C23.7871 37.1562 24.1274 37.5 24.5415 37.5H25.4586C25.8727 37.5 26.213 37.1563 26.213 36.7379V35.1256C26.2129 35.0967 26.1895 35.073 26.1608 35.073ZM27.1352 32.6328H22.8648C22.8312 32.6328 22.8066 32.6638 22.8139 32.6968C22.9205 33.1775 23.005 33.6935 23.0622 34.2368C23.0651 34.2636 23.0872 34.2838 23.114 34.2838H26.886C26.9128 34.2838 26.9349 34.2637 26.9378 34.2368C26.9947 33.6957 27.0795 33.1777 27.1861 32.6968C27.1934 32.6638 27.1688 32.6328 27.1352 32.6328ZM24.985 26.193C24.598 26.1671 24.2129 26.1412 23.7449 25.9428C23.1063 25.6602 22.6535 25.1953 22.6105 24.515L22.6097 24.4619C22.6454 23.7571 23.0962 23.2937 23.748 23.0211C24.0095 22.9073 24.2803 22.8361 24.5638 22.7998C24.59 22.7964 24.6093 22.7742 24.6093 22.7476V22.3549C24.6093 22.137 24.7842 21.9602 25 21.9602C25.2157 21.9602 25.3907 22.1369 25.3907 22.3549V22.7421C25.3907 22.7694 25.4112 22.792 25.4381 22.7945C26.0663 22.8512 26.6434 22.9985 27.1877 23.2589C27.3824 23.3517 27.4657 23.5863 27.3739 23.783C27.282 23.9796 27.0497 24.0639 26.855 23.9711C26.2724 23.6924 25.6552 23.5729 24.9727 23.5572C24.6804 23.5505 24.3098 23.6367 24.0438 23.7483C23.6881 23.8971 23.416 24.1136 23.3889 24.4841C23.3811 24.5904 23.4562 24.7532 23.5347 24.8492C23.645 24.9841 23.8157 25.1063 24.0468 25.2156C24.7859 25.5291 25.3772 25.278 26.2836 25.6583C26.6101 25.7953 26.91 26.0237 27.0876 26.242C27.2905 26.4914 27.4006 26.7764 27.4204 27.0961C27.4214 27.1132 27.4213 27.1302 27.4202 27.1469C27.372 27.8262 26.9204 28.31 26.285 28.5782C26.0117 28.6948 25.7326 28.7689 25.4364 28.8048C25.4101 28.808 25.3905 28.8303 25.3905 28.8571V29.2462C25.3905 29.4641 25.2156 29.6409 24.9998 29.6409C24.7841 29.6409 24.6092 29.4642 24.6092 29.2462V28.8619C24.6092 28.8345 24.5886 28.8118 24.5616 28.8095C23.9516 28.7561 23.3733 28.6037 22.8081 28.3454C22.6117 28.256 22.5243 28.0227 22.6128 27.8243C22.7013 27.626 22.9322 27.5376 23.1285 27.627C23.9334 27.9949 25.1204 28.2273 25.983 27.8542C26.3324 27.7017 26.601 27.4822 26.6395 27.1215C26.6399 27.1177 26.6399 27.1143 26.6395 27.1104C26.6043 26.7696 26.3168 26.5241 25.9844 26.386C25.6271 26.236 25.3053 26.2144 24.985 26.193ZM28.9477 28.4348C29.6027 27.2642 30.1692 26.252 30.1692 24.9168C30.1692 22.0326 27.8549 19.6947 25 19.6947C22.1451 19.6947 19.8308 22.0326 19.8308 24.9168C19.8308 26.252 20.3973 27.2642 21.0523 28.4348C21.5815 29.3803 22.1646 30.4226 22.5816 31.8062C22.5884 31.8287 22.6081 31.8435 22.6314 31.8435H27.3686C27.3919 31.8435 27.4117 31.8287 27.4185 31.8062C27.8354 30.4226 28.4186 29.3803 28.9477 28.4348ZM32.0467 31.6887C32.0649 31.7071 32.0857 31.7249 32.1175 31.7078C32.6705 31.4103 33.3728 31.4968 33.8389 31.9676C34.4101 32.5447 34.4101 33.4802 33.8389 34.0572C33.2677 34.6343 32.3417 34.6343 31.7705 34.0572C31.3036 33.5856 31.2185 32.8745 31.5148 32.3154C31.5258 32.2946 31.5222 32.27 31.5056 32.2533L29.7068 30.4409C29.5542 30.2868 29.5542 30.0369 29.7068 29.8829C29.8593 29.7288 30.1066 29.7288 30.2592 29.8829L32.0467 31.6887ZM18.5057 32.2467C18.4875 32.2651 18.4699 32.2861 18.4868 32.3183C18.7813 32.8769 18.6956 33.5864 18.2296 34.0573C17.6584 34.6343 16.7323 34.6343 16.1611 34.0573C15.59 33.4803 15.59 32.5447 16.1611 31.9677C16.628 31.496 17.3319 31.4101 17.8854 31.7094C17.9059 31.7205 17.9303 31.7168 17.9468 31.7001L19.7409 29.8829C19.8934 29.7288 20.1408 29.7288 20.2933 29.8829C20.4458 30.037 20.4458 30.2868 20.2933 30.4409L18.5057 32.2467ZM15.4251 25.5226C15.3994 25.5226 15.3721 25.5248 15.3616 25.5596C15.1788 26.165 14.6217 26.6055 13.9626 26.6055C13.1548 26.6055 12.5 25.9439 12.5 25.1279C12.5 24.3118 13.1548 23.6504 13.9626 23.6504C14.6228 23.6504 15.1807 24.0923 15.3626 24.6993C15.3693 24.7219 15.3892 24.7367 15.4125 24.7367L17.9532 24.7333C18.1689 24.7333 18.3438 24.91 18.3438 25.1279C18.3438 25.3459 18.1689 25.5226 17.9532 25.5226H15.4251ZM17.9533 18.5672C17.9351 18.5488 17.9143 18.531 17.8825 18.5481C17.3295 18.8456 16.6272 18.759 16.1611 18.2882C15.59 17.7112 15.59 16.7756 16.1611 16.1986C16.7323 15.6216 17.6584 15.6216 18.2296 16.1986C18.6965 16.6703 18.7816 17.3814 18.4853 17.9405C18.4742 17.9612 18.4779 17.9859 18.4944 18.0025L20.2933 19.815C20.4458 19.9691 20.4458 20.2189 20.2933 20.373C20.1408 20.527 19.8934 20.5271 19.7409 20.373L17.9533 18.5672ZM31.4943 18.0093C31.5125 17.9909 31.5302 17.9698 31.5133 17.9377C31.2187 17.379 31.3044 16.6695 31.7705 16.1987C32.3417 15.6217 33.2677 15.6217 33.8389 16.1987C34.4101 16.7757 34.4101 17.7113 33.8389 18.2883C33.372 18.76 32.6682 18.846 32.1147 18.5466C32.0941 18.5355 32.0697 18.5392 32.0533 18.5559L30.2592 20.3732C30.1066 20.5273 29.8593 20.5273 29.7068 20.3732C29.5542 20.2191 29.5542 19.9693 29.7068 19.8152L31.4943 18.0093ZM34.5749 24.7333C34.6006 24.7333 34.6278 24.7311 34.6384 24.6963C34.8212 24.0909 35.3783 23.6505 36.0374 23.6505C36.8452 23.6505 37.5 24.312 37.5 25.1281C37.5 25.9441 36.8452 26.6056 36.0374 26.6056C35.3772 26.6056 34.8193 26.1636 34.6374 25.5566C34.6307 25.534 34.6108 25.5192 34.5875 25.5193L32.0468 25.5227C31.8311 25.5227 31.6562 25.346 31.6562 25.1281C31.6562 24.9102 31.8311 24.7334 32.0468 24.7334L34.5749 24.7333Z" fill="#FD346E"/>
</svg>
