<svg width="60" height="60" viewBox="0 0 60 60" fill="none" xmlns="http://www.w3.org/2000/svg">
<rect opacity="0.15" width="60" height="60" rx="6" fill="#8B40E5"/>
<path d="M40.7789 19H19.2204C16.8741 19 14.9648 20.9093 14.9648 23.2561V36.744C14.9648 39.0908 16.8741 41.0001 19.2204 41.0001H40.7789C43.1251 41.0001 45.0345 39.0908 45.0345 36.744V23.2561C45.0345 20.9093 43.1251 19 40.7789 19ZM25.8774 25.7709L21.4004 30.2479L25.3817 34.2292C25.7259 34.5734 25.7259 35.1313 25.3817 35.4749C25.0382 35.819 24.4802 35.819 24.1361 35.4749L19.5317 30.8704C19.1875 30.5263 19.1875 29.9689 19.5317 29.6248L24.6312 24.5253C24.9753 24.1811 25.5333 24.1811 25.8774 24.5253C26.221 24.8689 26.221 25.4268 25.8774 25.7709ZM33.144 23.6984L28.4856 36.8885C28.3235 37.3477 27.8202 37.5879 27.3615 37.4259C26.9028 37.2638 26.662 36.7604 26.8241 36.3018L31.4826 23.1117C31.6447 22.653 32.1474 22.4122 32.6067 22.5743C33.0653 22.7364 33.3061 23.2397 33.144 23.6984ZM40.4676 30.3754L35.3681 35.4749C35.024 35.819 34.466 35.819 34.1219 35.4749C33.7783 35.1313 33.7783 34.5734 34.1219 34.2292L38.5989 29.7522L34.6176 25.7709C34.2734 25.4268 34.2734 24.8689 34.6176 24.5253C34.9611 24.1811 35.5191 24.1811 35.8632 24.5253L40.4676 29.1297C40.8118 29.4739 40.8118 30.0312 40.4676 30.3754Z" fill="#8B40E6"/>
</svg>
