<svg width="60" height="60" viewBox="0 0 60 60" fill="none" xmlns="http://www.w3.org/2000/svg">
<path d="M58.0541 27.5083L32.2195 1.67542C31.8657 1.3215 31.4456 1.04075 30.9833 0.849212C30.521 0.657669 30.0254 0.559082 29.525 0.559082C29.0246 0.559082 28.529 0.657669 28.0667 0.849212C27.6044 1.04075 27.1843 1.3215 26.8305 1.67542L21.466 7.04049L28.2712 13.8451C29.0711 13.5731 29.9312 13.5305 30.7541 13.7222C31.577 13.9139 32.3297 14.3323 32.9271 14.9298C33.5276 15.5311 33.9469 16.2893 34.137 17.1176C34.3271 17.9459 34.2805 18.811 34.0023 19.614L40.5598 26.1726C42.1465 25.6261 43.9777 25.9799 45.2445 27.2489C45.6657 27.6699 45.9998 28.1697 46.2278 28.7198C46.4557 29.2699 46.5731 29.8595 46.5731 30.4549C46.5731 31.0504 46.4557 31.64 46.2278 32.1901C45.9998 32.7402 45.6657 33.24 45.2445 33.6609C44.5035 34.4027 43.5283 34.8646 42.485 34.9683C41.4417 35.0719 40.3947 34.8108 39.5222 34.2293C38.6498 33.6479 38.0058 32.782 37.6999 31.7792C37.394 30.7763 37.4451 29.6985 37.8445 28.7291L31.7285 22.6131L31.728 38.7083C32.1713 38.9276 32.5763 39.2172 32.9271 39.5659C33.3482 39.9869 33.6823 40.4868 33.9102 41.037C34.1382 41.5872 34.2555 42.1769 34.2555 42.7724C34.2555 43.3679 34.1382 43.9576 33.9102 44.5078C33.6823 45.058 33.3482 45.5579 32.9271 45.979C31.1554 47.7507 28.284 47.7507 26.5151 45.979C25.9866 45.4509 25.5968 44.8004 25.3803 44.0853C25.1639 43.3703 25.1275 42.6128 25.2743 41.8803C25.4212 41.1478 25.7467 40.4629 26.2221 39.8866C26.6975 39.3102 27.3079 38.8603 27.9991 38.5767V22.3315C27.443 22.1045 26.9384 21.7679 26.5151 21.3418C25.1732 20.0016 24.8506 18.0328 25.5381 16.3849L18.8301 9.67582L1.11648 27.3883C0.762511 27.7423 0.481729 28.1625 0.290163 28.625C0.0985978 29.0874 0 29.5831 0 30.0837C0 30.5842 0.0985978 31.0799 0.290163 31.5424C0.481729 32.0048 0.762511 32.425 1.11648 32.779L26.951 58.6124C27.6657 59.3269 28.6349 59.7283 29.6455 59.7283C30.6561 59.7283 31.6253 59.3269 32.34 58.6124L58.0541 32.8995C58.7687 32.1844 59.1701 31.2149 59.1701 30.2039C59.1701 29.193 58.7687 28.2234 58.0541 27.5083Z" fill="#DE4C36"/>
</svg>
