<svg width="62" height="60" viewBox="0 0 62 60" fill="none" xmlns="http://www.w3.org/2000/svg">
<path d="M30.7196 0C13.7558 0 0 13.7534 0 30.7196C0 44.2925 8.80207 55.8074 21.008 59.8695C22.5432 60.1538 23.1069 59.2031 23.1069 58.3916C23.1069 57.6592 23.0783 55.2391 23.0653 52.6722C14.5188 54.5305 12.7155 49.0477 12.7155 49.0477C11.3181 45.4969 9.30465 44.5529 9.30465 44.5529C6.51759 42.6462 9.51474 42.6853 9.51474 42.6853C12.5996 42.9021 14.2239 45.8511 14.2239 45.8511C16.9638 50.5475 21.4103 49.1896 23.1633 48.4049C23.4389 46.4192 24.2352 45.0642 25.1136 44.2971C18.2906 43.5201 11.1176 40.886 11.1176 29.1152C11.1176 25.7615 12.3177 23.0209 14.2829 20.8697C13.964 20.0958 12.9125 16.9715 14.5805 12.74C14.5805 12.74 17.1601 11.9144 23.0306 15.889C25.4808 15.2081 28.1089 14.867 30.7196 14.8554C33.3303 14.867 35.9602 15.2081 38.4153 15.889C44.2788 11.9144 46.8548 12.74 46.8548 12.74C48.5268 16.9715 47.4749 20.0958 47.1559 20.8697C49.1255 23.0209 50.3174 25.7613 50.3174 29.1152C50.3174 40.914 43.131 43.5121 36.2905 44.2725C37.3923 45.2258 38.3741 47.0954 38.3741 49.9613C38.3741 54.0715 38.3384 57.3797 38.3384 58.3916C38.3384 59.2091 38.8914 60.167 40.4487 59.8654C52.6479 55.7987 61.4389 44.2879 61.4389 30.7196C61.4389 13.7534 47.685 0 30.7196 0Z" fill="#161614"/>
<path d="M11.5054 43.7607C11.4379 43.9132 11.1975 43.959 10.979 43.8544C10.7561 43.7542 10.6308 43.546 10.7031 43.3928C10.7694 43.2357 11.0098 43.1918 11.2322 43.2974C11.4555 43.3973 11.5827 43.6074 11.5054 43.7607ZM13.0165 45.1089C12.87 45.2448 12.5836 45.1817 12.3891 44.967C12.1882 44.7528 12.1506 44.4666 12.2993 44.3285C12.4503 44.1929 12.7281 44.2563 12.9295 44.4707C13.1305 44.6873 13.1695 44.9718 13.0163 45.1091M14.0532 46.8339C13.8648 46.9648 13.5569 46.8421 13.3668 46.5689C13.1786 46.296 13.1786 45.9683 13.3709 45.837C13.5617 45.7057 13.8648 45.8237 14.0576 46.0948C14.2455 46.3726 14.2455 46.7002 14.053 46.8342M15.8062 48.832C15.6378 49.0175 15.2793 48.9679 15.0167 48.7144C14.7483 48.4667 14.6734 48.1152 14.8423 47.9294C15.0126 47.7435 15.3733 47.7957 15.6378 48.047C15.9045 48.2942 15.9857 48.6484 15.8062 48.832ZM18.0719 49.5066C17.9979 49.747 17.6524 49.8564 17.3045 49.7542C16.9571 49.649 16.7297 49.3671 16.7998 49.124C16.8721 48.8818 17.219 48.7679 17.5696 48.8773C17.9165 48.9821 18.1442 49.2618 18.0719 49.5066ZM20.6508 49.7925C20.6595 50.046 20.3643 50.2561 19.9991 50.2607C19.6317 50.2686 19.3346 50.0636 19.3307 49.8145C19.3307 49.5586 19.6191 49.3504 19.9863 49.3444C20.3516 49.3372 20.6508 49.5408 20.6508 49.7925ZM23.1839 49.6955C23.2278 49.9426 22.9738 50.1966 22.6112 50.264C22.2547 50.3291 21.9246 50.1766 21.879 49.9316C21.8347 49.6781 22.0935 49.4244 22.4493 49.3586C22.8126 49.2955 23.1377 49.4442 23.1839 49.6955Z" fill="#161614"/>
</svg>
