<svg width="100" height="80" viewBox="0 0 100 80" fill="none" xmlns="http://www.w3.org/2000/svg">
<g clip-path="url(#clip0_772_373)">
<path d="M63.0782 22.0303H66.1117L74.7538 13.3882L75.1788 9.72137C59.0988 -4.47104 34.5517 -2.94179 20.3593 13.1382C16.4133 17.6051 13.5506 22.9179 11.9922 28.6682C12.9547 28.2723 14.0215 28.2098 15.0257 28.4848L32.3057 25.6347C32.3057 25.6347 33.185 24.1805 33.6391 24.2721C41.327 15.83 54.2652 14.8466 63.1407 22.0303H63.0782Z" fill="#EA4335"/>
<path d="M87.0626 28.6681C85.075 21.3553 80.9998 14.7799 75.3287 9.75049L63.203 21.8761C68.3241 26.0597 71.241 32.3642 71.1159 38.977V41.1313C77.0788 41.1313 81.9082 45.9649 81.9082 51.9235C81.9082 57.8863 77.0746 62.7157 71.1159 62.7157H49.5273L47.373 64.8992V77.8457L49.5273 80H71.1159C83.4916 80.0958 94.4713 72.0746 98.1465 60.2573C101.813 48.4358 97.3131 35.6018 87.0626 28.6681Z" fill="#4285F4"/>
<path d="M27.9099 79.8794H49.4985V62.5993H27.9099C26.3723 62.5993 24.8514 62.2701 23.4513 61.6284L20.4178 62.566L11.7174 71.2081L10.959 74.2416C15.8384 77.9251 21.7929 79.9044 27.9099 79.8794Z" fill="#34A853"/>
<path d="M27.9097 23.818C15.9175 23.8889 5.29607 31.5684 1.47087 42.9315C-2.35433 54.2946 1.45837 66.8369 10.963 74.1457L23.4845 61.6242C18.0509 59.1699 15.6383 52.7779 18.0926 47.3442C20.5469 41.9106 26.9389 39.498 32.3725 41.9523C34.7643 43.0357 36.681 44.9525 37.7644 47.3442L50.2859 34.8228C44.9565 27.8599 36.6769 23.7889 27.9097 23.818Z" fill="#FBBC05"/>
</g>
<defs>
<clipPath id="clip0_772_373">
<rect width="99.4093" height="80" fill="white"/>
</clipPath>
</defs>
</svg>
