<svg width="107" height="80" viewBox="0 0 107 80" fill="none" xmlns="http://www.w3.org/2000/svg">
<g clip-path="url(#clip0_772_542)">
<path d="M39.5495 17.5773L32.4841 18.7248L26.0383 21.5511L20.5637 24.9948L15.3537 31.3523L12.4108 34.4698L9.56411 35.519L8.81161 33.679L10.1279 31.7794L10.4237 29.1002L11.3049 29.1361L12.2683 30.0148L12.0083 27.2857L10.9404 26.569L10.9737 25.529L8.44411 26.9598L6.1537 29.6623L5.67578 32.0773L6.65578 34.0115L7.56911 37.2969L9.42703 38.1765L11.3812 38.0807L13.2345 37.004L11.9983 43.2736L13.2345 50.2494L11.8737 53.4702L7.4162 58.2732L8.2087 61.1423L10.3204 64.4669L14.3016 67.2682L16.4133 67.5577L18.7612 67.6369L17.2962 73.6507L22.6829 75.8577L29.3937 76.7411L31.6895 75.2402L31.8662 71.1777L34.4274 66.939L34.6041 63.5836L40.7854 64.0252L46.5249 63.4957L40.7854 66.939L41.757 71.0898L45.377 76.7411L48.9091 78.2419L51.7349 77.094L52.8824 74.7982L58.7991 70.2948L59.947 71.2657L69.2191 71.6194L71.0733 70.1186L71.2495 67.4686L70.632 66.3215L70.1899 59.1686L67.0995 52.9873L67.6295 50.2498L69.4837 51.2215L74.6937 56.0777L77.2545 56.2548L80.0799 55.1065L82.9062 52.9873L84.3187 48.3957L92.6195 48.9252L97.6529 46.9832L101.715 43.1857L104.629 37.7107L105.335 31.2648L104.717 23.7586L103.127 17.0482L101.538 14.929L99.3308 14.2223L95.4449 18.4607L91.9129 19.6969L88.822 14.5752L85.7316 11.7498L84.0537 10.6902L77.3424 5.1269L71.9562 2.21273L66.5695 1.77148L60.3004 2.83107L54.8254 4.86148L51.0283 7.95232L48.0262 11.5732L44.9358 12.4565L39.5487 17.5777" fill="#FFFF00"/>
<path d="M19.0616 33.5143C13.0108 40.5723 14.3549 49.1314 16.032 57.5185C15.1372 55.2573 14.2422 52.9962 13.347 50.7352L12.3574 44.5156C12.4516 42.3956 12.5453 40.2756 12.6403 38.156L15.1837 32.0789L18.9995 26.4256L24.9353 21.4798L31.4362 18.7943L39.0683 17.8052L32.0016 25.8606C26.3274 27.7006 22.982 28.9406 19.0612 33.5143" fill="#FFFFCC"/>
<path d="M47.5479 12.0104C43.3417 16.1146 41.0437 19.2104 38.3662 24.0159C36.4517 27.4534 34.3037 30.7646 32.29 34.1542C31.2721 35.87 31.1758 37.3084 30.8712 39.2871L27.9033 35.7538C28.375 34.3404 28.8458 32.9271 29.3167 31.5142L34.1221 22.8934L44.2979 12.8588C45.3812 12.5759 46.4646 12.2938 47.5479 12.0104ZM68.3233 1.83545C64.9537 3.09837 59.3587 3.51462 58.9704 7.38128C58.6942 10.1279 59.1775 11.5079 60.8329 14.4138C56.7442 10.1825 55.7329 10.8371 47.8308 12.1521L51.2225 7.34712L57.1583 3.67212L64.7904 1.97628L68.3233 1.83545Z" fill="#FFFFCC"/>
<path d="M77.6201 54.1436C78.7418 54.8361 78.7176 55.3377 78.5301 55.8123C79.4147 55.4582 80.2997 55.104 81.1843 54.7511L82.9043 52.4415L84.1805 49.1515L82.5493 47.9253L75.4201 48.8353C75.2443 49.3153 75.0668 49.7957 74.8897 50.2765C74.9401 50.9586 74.9913 51.6415 75.0413 52.3236C75.2688 52.7286 75.4968 53.1328 75.7247 53.5373C76.0784 53.714 76.4318 53.8915 76.7859 54.0682C77.0647 54.0932 77.3422 54.119 77.6201 54.1436ZM76.9568 41.9523C73.383 42.9836 73.4109 43.2678 72.3559 46.8132C73.7488 44.5782 74.7801 43.4503 76.9568 41.9523ZM100.717 15.4228C100.082 15.7165 99.4626 15.8573 99.0659 16.4386C98.2109 17.6894 97.4784 18.7415 96.0647 19.6194C95.3526 20.0619 94.6163 20.3486 93.8613 20.584C93.2351 20.7786 92.8584 20.6044 92.3255 20.9882C92.6422 21.0423 92.9584 21.0982 93.2747 21.1536H95.3663L97.9451 19.5615L99.4618 17.9686L100.717 15.4228ZM43.7951 23.3528C42.3897 27.1998 41.1609 30.4973 39.0318 33.9798C41.7601 31.0398 43.4147 28.5407 44.9776 25.2169C45.5851 23.9253 45.6997 22.4103 47.3909 22.9736C47.4668 24.2636 47.7393 25.5519 47.8151 26.8411C48.7288 20.2919 51.3055 17.5523 57.2951 15.0103L52.2138 15.6173L47.4355 16.679L45.0847 20.0915L43.7951 23.3528ZM55.3988 23.2011C56.6905 29.2803 58.5505 35.1153 59.3584 41.2911C59.883 45.304 59.9401 47.2319 57.9213 50.6944C55.7147 50.5515 54.3447 50.8003 52.2101 51.4998C43.713 54.2853 38.8393 58.3811 33.1143 50.1286L38.5976 52.7128C39.9005 52.4565 41.2034 52.2011 42.5059 51.944C44.8068 50.6048 47.1072 49.2648 49.408 47.9253L54.7922 46.8628L56.5368 39.5832L55.2472 29.9511C55.1972 28.4344 55.1463 26.9178 55.0955 25.4011C55.1972 24.6678 55.2984 23.934 55.3988 23.2011ZM70.0359 60.8178C69.3222 65.7569 71.6797 68.4119 70.7034 69.7761C70.4272 70.1619 70.0526 70.8361 69.6347 71.0211C68.1409 71.6807 66.0872 70.8973 65.9409 71.2836H61.0113L59.0397 70.4494L62.073 66.8848C63.0588 64.7365 64.0451 62.5873 65.0305 60.4382L66.9263 53.9165H67.9126L70.0359 60.8178Z" fill="#CCCC00"/>
<path d="M61.7501 46.4594C62.1505 48.7019 62.8459 49.2348 63.9009 51.4056C63.1988 54.9473 62.0709 59.1585 60.7134 62.2835C60.1409 63.6014 59.6793 64.3281 58.6693 65.3464C56.9651 67.0673 55.243 68.5656 53.3109 70.0573C51.9193 71.1294 50.9484 70.5919 49.2322 70.3489C48.5022 71.6719 48.3009 72.4073 46.9572 73.0789C44.8913 74.1114 43.0426 71.886 41.4209 70.576C42.5918 72.4052 43.7626 74.2331 44.9326 76.0619C45.7418 76.8202 46.5509 77.5781 47.3597 78.3369L49.4076 78.6406L52.1372 76.9714C52.618 76.0619 53.098 75.1514 53.5784 74.2419C54.5897 73.4835 55.6013 72.7252 56.6118 71.966C57.8509 70.9048 59.0897 69.8427 60.3284 68.781L62.6793 65.4439L64.8022 61.5006C65.713 58.7706 66.623 56.0402 67.5334 53.3102C67.6088 52.2735 67.6843 51.2373 67.7605 50.2002C66.623 49.6952 65.4855 49.1889 64.3476 48.6835C63.5134 47.9002 62.5843 47.2431 61.7501 46.4594ZM34.5426 62.2589C38.3701 62.2589 42.4126 62.0464 45.9188 60.4385C46.9105 58.951 47.8901 57.7352 49.1038 56.4198C47.9993 58.5064 47.6526 59.6856 47.3597 62.0314L46.2222 63.7002C43.3401 63.7756 40.4584 63.8514 37.5763 63.9277C36.6405 63.826 35.7055 63.7252 34.7701 63.6244C34.6688 63.5223 34.568 63.4214 34.4668 63.3206C34.4926 62.9664 34.5176 62.6127 34.5426 62.2589ZM34.0122 59.6048L33.7147 56.9114C33.0609 60.8481 33.218 63.4864 31.4063 67.0127C30.053 68.5802 28.3868 70.0069 26.4784 70.7706C26.6397 71.7373 26.688 72.3414 26.5943 73.0502C26.258 75.6002 21.158 74.4735 19.0597 74.3719L29.158 76.9719L31.433 76.0619C31.6863 74.596 31.9393 73.1289 32.1918 71.6631L34.3151 67.7198L34.6943 65.2927L34.0118 59.6052M28.3234 37.3835C28.218 39.2981 28.0943 40.096 28.9384 41.786C30.0113 43.9344 31.3288 45.9535 32.4947 48.0769L32.8738 43.8298C31.3576 41.6806 29.8405 39.5323 28.3238 37.3839M12.7555 51.8423C12.4268 52.5406 12.0993 53.2398 11.7705 53.9385C12.6738 56.9823 13.4776 58.9102 15.198 61.5689C14.898 62.646 14.6738 63.1173 13.9847 63.9952C12.4705 63.7627 11.1259 63.6952 9.59135 63.7002C11.2851 65.0139 12.9788 66.3294 14.6726 67.6439C15.5068 67.4914 16.3413 67.3398 17.1755 67.1885L19.6784 64.686L16.1138 59.1494C14.9938 56.7139 13.8747 54.2777 12.7555 51.8423ZM100.727 14.4164C101.759 19.0569 103.09 23.3398 102.966 28.0931C102.814 33.9244 101.678 41.2906 96.2747 44.8069C90.2238 48.7452 83.1205 46.8823 76.4818 45.1948L84.5968 48.5319C87.1247 48.6585 89.653 48.7852 92.1809 48.911C93.9001 48.4056 95.6193 47.9002 97.3376 47.3944C98.6776 46.2819 100.018 45.1702 101.358 44.0573L104.391 37.6873L105.528 30.3306C105.226 27.9285 104.921 25.5273 104.618 23.1256L102.95 15.9969C102.209 15.4698 101.468 14.9427 100.727 14.4164ZM10.428 28.2481C7.68135 30.036 6.60218 30.821 6.90343 34.1348L7.72427 37.1119L8.88802 37.8994L10.3255 38.3785L12.9263 37.7623C13.3718 36.3819 13.8163 35.0019 14.2609 33.6214L10.5651 35.4356H9.70968C9.39038 34.945 9.07094 34.4544 8.75135 33.9639L9.9151 32.2527L10.5309 29.0014C10.7934 29.081 11.0559 29.1614 11.318 29.2406C11.6376 29.4923 11.9568 29.7431 12.2763 29.9935L12.1393 28.2827L11.4893 27.1877C11.2726 27.0044 11.0559 26.8227 10.8393 26.6398L10.428 28.2481ZM72.0572 2.1377C74.4955 4.40186 77.4876 6.36936 79.4376 9.13603C80.1922 10.2069 81.0305 10.7548 79.4251 12.2677C81.1213 11.7831 81.7522 11.8356 83.1105 12.0002C85.5813 12.2994 87.8972 15.8119 88.0447 18.3285C88.0155 18.5639 87.3584 19.0985 85.448 19.626C85.4105 19.6994 84.3697 19.4835 84.3955 19.5544C84.5943 20.0973 84.8593 20.1806 85.2647 20.4344C85.3522 21.0385 85.4088 21.9706 85.8205 22.6314C87.0226 22.6098 88.1976 22.741 89.3747 22.9739C89.7705 23.631 89.7113 24.2881 89.678 24.9456L91.043 24.7185C90.9172 23.6819 90.7905 22.6456 90.6643 21.6089C91.0684 20.9264 91.4726 20.2435 91.8776 19.5619L90.133 15.6177C89.0209 14.556 87.9088 13.4939 86.7959 12.4323L86.4751 12.4164C85.2241 11.6488 83.9731 10.881 82.7222 10.1131L76.6013 5.10561L72.0572 2.1377ZM76.1643 20.8239C76.0355 21.0489 75.8413 21.4081 75.5926 21.6573C76.608 22.6177 77.1093 23.261 77.4713 24.6198C76.323 25.1894 75.1755 25.7598 74.0276 26.3289L71.1134 29.1227C69.8347 28.4344 69.5163 27.906 68.8976 26.5935C68.1768 26.7848 67.4947 26.9685 66.8997 26.7498C67.2772 26.7527 67.5088 26.6585 67.8863 26.4252L69.7405 24.4989C70.8322 23.6723 71.9239 22.8448 73.0155 22.0185L75.1593 21.3198C75.4322 21.2077 75.8913 20.9364 76.1643 20.8239Z" fill="#CCCC00"/>
<path d="M79.3331 24.2497C75.6806 26.2164 72.1831 28.1939 70.3156 31.9285C70.3156 27.1881 75.0752 25.1014 79.3327 24.2493M69.5906 14.9243C66.8785 16.7735 64.961 20.5051 65.2019 24.1418C64.3185 20.9926 64.6314 18.0172 67.3435 15.8422C67.8019 15.6201 68.2589 15.3972 68.7169 15.1751C69.0081 15.0918 69.2989 15.0085 69.5906 14.9243Z" fill="#CCCC00"/>
<path d="M106.085 23.5101C105.593 20.4088 104.778 17.3984 103.646 15.2338C103.509 14.9692 103.3 14.7009 103.04 14.4451C102.478 13.8909 101.646 13.3659 100.787 13.0705C99.8758 12.7572 98.9154 12.6934 98.1529 13.0918C97.9549 13.1959 97.7708 13.3293 97.607 13.4959C97.1133 13.9959 96.6966 14.6042 96.2795 15.213C95.8158 15.8913 95.3491 16.573 94.7908 17.0492C94.1437 17.6026 93.3341 17.9384 92.5704 18.2451C92.2488 17.4653 91.8624 16.7139 91.415 15.9988C90.8929 15.1663 90.2983 14.3868 89.6441 13.6072C89.1656 13.033 88.6231 12.5153 88.027 12.0643C87.4629 11.6338 86.8854 11.2713 86.2129 10.8505C84.41 9.72133 82.8745 8.37467 81.3087 7.0005C80.597 6.37633 79.8783 5.74633 79.1754 5.16675C75.4462 2.09175 71.9679 0.6005 68.2479 0.36675C64.5533 0.13425 60.652 1.14925 56.0458 3.08842C53.8225 4.02383 52.1716 5.12967 50.7333 6.45925C49.3595 7.73008 48.1933 9.19342 46.9112 10.9022C46.1654 10.9551 45.5045 11.0655 44.83 11.3355C44.0866 11.633 43.3383 12.1147 42.4416 12.9059C41.8175 13.4566 41.2063 14.0216 40.6083 14.6005C40.0605 15.132 39.5223 15.6733 38.9941 16.2242C34.8008 16.898 31.3841 17.6417 28.3241 18.8267C25.195 20.0392 22.4366 21.7068 19.6037 24.2184C18.4882 25.2038 17.4714 26.2955 16.5675 27.478C15.7058 28.6068 14.9683 29.7934 14.3212 31.0447C13.7545 31.6718 13.1866 32.3047 12.572 32.8584C11.9729 33.398 11.3341 33.8526 10.6183 34.128L10.6187 34.1284C10.2025 34.2888 10.0304 34.3826 10.0116 34.3763C9.99079 34.3647 9.97912 34.3022 9.94996 34.1872C10.9779 33.2063 11.1395 31.7651 11.2345 30.3343C11.3579 30.4818 11.4762 30.6634 11.5991 30.8534C11.735 31.063 11.8741 31.2793 12.0408 31.4897L12.7387 32.3701L12.9837 31.2718C13.1895 30.3513 13.3437 29.1259 13.1037 28.0634C12.9487 27.3738 12.6287 26.7592 12.0712 26.3238C12.1245 26.1847 12.175 26.0563 12.2245 25.9297C12.3995 25.4818 12.58 25.0222 12.7329 24.588L13.0354 23.7276L12.1354 23.8834C10.9379 24.0917 8.36454 25.5059 6.55204 27.3863C5.87912 28.0851 5.30037 28.8572 4.92079 29.6672C4.52579 30.5101 4.34871 31.3922 4.50204 32.2747C4.63537 33.0463 5.02162 33.8038 5.72287 34.518C5.85079 35.0334 5.96871 35.4805 6.09496 35.8838C6.23954 36.3426 6.39496 36.753 6.58954 37.1572C7.11704 38.2538 7.95787 38.9238 8.93121 39.2363C9.71329 39.4876 10.5783 39.5001 11.4266 39.3143C11.2544 40.3248 11.1505 41.3459 11.1158 42.3705C11.062 43.8018 11.1145 45.383 11.272 47.218C11.3066 47.6209 11.3587 48.0638 11.4258 48.5455C11.4841 48.9563 11.5533 49.3597 11.6279 49.7601C11.4695 50.1926 11.31 50.6259 11.1508 51.0584L10.4104 53.0738L8.78121 54.6884C8.27412 55.1897 7.76704 55.6922 7.26037 56.1943C7.21871 56.2359 7.04746 56.4001 6.89246 56.5497C5.86537 57.538 5.66204 57.7342 5.95371 59.4734C6.14055 60.5864 6.50387 61.6625 7.02996 62.6609C7.53412 63.6213 8.21079 64.5563 9.07912 65.4272C10.1625 66.513 11.9383 67.8622 13.7975 68.5688C14.86 68.9722 15.955 69.1697 16.9829 69.0047C16.9304 69.163 16.8795 69.3205 16.8216 69.4797C16.6589 69.9309 16.4782 70.3754 16.28 70.8122C15.0187 73.5768 16.3133 75.0205 18.3283 75.9393C19.3345 76.3976 20.5308 76.7093 21.642 76.9993C21.8695 77.0576 22.097 77.1176 22.3837 77.1951C23.7004 77.5509 25.9758 78.2047 28.0541 78.3359C30.3225 78.4793 32.3683 78.0109 32.9166 75.9751C33.1333 75.168 33.2595 74.5501 33.3108 73.9447C33.3579 73.383 33.34 72.8155 33.2741 72.113C33.9208 70.6797 34.195 70.2768 34.6679 69.5855C34.7604 69.4488 34.8725 69.2855 34.9062 69.2338C35.4133 68.4826 35.6508 67.9492 35.737 67.3488C35.8204 66.7692 35.7495 66.1918 35.645 65.3093C35.635 65.2255 35.62 65.103 35.5979 64.9409C36.904 65.1105 38.2192 65.2007 39.5362 65.2109C40.197 65.2151 40.8575 65.1955 41.5179 65.1609C41.3491 65.2472 41.1837 65.333 41.0029 65.4259L40.757 65.5522C39.0054 66.453 38.9325 68.1593 39.4808 69.9147C39.975 71.4976 40.9925 73.1138 41.6308 74.0968C42.9725 76.1647 44.2529 77.9151 45.8054 78.8663C47.4325 79.8634 49.2916 79.9809 51.6912 78.6822C52.912 78.0213 53.297 77.3476 53.8154 76.4393C53.9741 76.1622 54.1491 75.8601 54.3441 75.5622C54.8483 75.228 56.1037 74.1926 57.3358 73.1738C57.7554 72.8272 58.1745 72.4822 58.6475 72.0968C58.9733 72.3363 59.3666 72.5026 59.842 72.6159C60.4595 72.7638 61.195 72.8305 62.0762 72.8938C62.7358 72.9422 64.8866 72.9405 66.2762 72.9401C66.7054 72.9401 67.0616 72.9401 67.2754 72.9413C68.71 72.9501 69.8679 72.8747 70.7429 72.3788C71.6754 71.8501 72.2283 70.9138 72.3491 69.2347C72.4016 68.4888 72.4116 68.0288 72.3079 67.5592C72.2112 67.1193 72.0225 66.7205 71.6983 66.1372C71.6786 65.4115 71.6592 64.6858 71.64 63.9601C71.6199 63.1905 71.5983 62.4201 71.5783 61.6505C71.5537 60.743 71.4537 60.0055 71.2695 59.2801C71.087 58.5597 70.8262 57.8668 70.477 57.0351C70.2599 56.5112 70.0546 55.9824 69.8612 55.4493L69.3579 55.6334L69.4354 55.6051L69.8612 55.4493V55.4472C69.5612 54.638 69.2654 53.8501 68.8512 53.0072C68.8779 52.8447 68.905 52.6697 68.9312 52.483L69.7312 53.2538L70.9104 54.3901C71.8095 55.2563 72.6316 56.0443 73.5975 56.6134C74.5962 57.203 75.7191 57.5451 77.1733 57.4759C78.6958 57.4043 80.325 56.763 81.6662 55.7734C82.9637 54.8155 84.005 53.5238 84.4395 52.0943L84.8162 50.8543L85.117 49.8647C87.252 50.2263 89.5437 50.343 91.757 50.1113C93.8929 49.8868 95.9562 49.343 97.7358 48.3938C100.352 46.998 102.313 44.9422 103.722 42.5009H103.723C105.298 39.7726 106.18 36.5576 106.515 33.2493C106.784 30.5959 106.637 26.9888 106.085 23.5101ZM78.4237 45.8093C77.1933 45.3951 76.3379 44.7909 75.257 44.1097C75.5512 45.4359 75.685 46.8384 75.2933 48.1622C74.6716 50.263 73.6674 53.6997 76.5195 54.3338C77.6049 54.5747 78.0975 54.5401 79.6295 53.7493C78.3895 54.0301 77.7641 53.9618 76.9116 53.8034C76.1391 53.6613 75.7295 53.1709 75.5137 52.5922C75.7837 52.7868 76.2237 52.8926 76.9762 53.0738C79.0904 53.5838 81.1049 52.5655 81.4991 51.0997C81.7283 50.243 81.6895 49.793 82.1766 48.6255C82.6141 48.7609 83.0662 48.8838 83.5304 48.9963L82.7445 51.5584C82.0654 53.7751 79.4174 55.5626 77.0799 55.5213C74.9191 55.4834 73.5487 54.1297 72.0566 52.8026C71.0291 51.8876 70.0399 51.013 69.06 50.1463C66.3704 49.2976 64.2145 48.3059 61.7183 46.458C63.495 48.5455 64.6995 49.7013 67.177 50.7401C66.817 54.4151 65.5395 57.0951 64.4508 60.6122C63.9575 62.2022 60.067 68.5751 58.9887 69.1963C58.22 69.6393 53.4041 73.6951 52.4987 74.2305C51.8237 75.1263 51.2316 76.3647 50.217 76.9005C47.1262 78.5351 45.14 75.4055 43.4766 72.7626C42.7195 71.5584 40.6162 68.0901 42.4495 67.1184C44.1829 66.2005 45.1537 65.5447 46.9225 64.383C47.1825 64.8568 47.6279 65.3143 47.9183 65.7872L47.7258 64.2347C47.6091 63.2972 47.6141 62.5359 47.6883 61.5926C47.7608 60.6793 47.8325 59.7659 47.9041 58.8522C47.6379 59.7809 47.1062 60.7093 46.8408 61.6372C46.7345 62.0088 46.6466 62.3088 46.5958 62.5872C42.6275 63.398 38.6879 63.4484 34.7187 62.7405C34.4654 61.2709 34.157 59.7397 33.8983 58.6418C33.82 59.8709 33.8704 63.2701 33.8641 65.1734C33.8591 66.6476 33.7975 67.1526 33.0366 68.4068C32.325 69.5809 32.0237 69.8476 31.0266 71.8317C31.11 73.0838 31.1112 73.9109 30.7787 75.0993C30.2258 77.0747 24.6454 75.5443 23.1737 75.1409C21.3608 74.6451 17.6133 73.9076 18.5558 71.4909C19.385 69.3643 19.9108 67.1217 20.3162 64.1459C16.995 59.3613 13.9066 52.8051 13.3137 46.9959C12.8533 42.4855 13.1295 39.7093 14.1054 36.9501C15.652 32.5784 17.8162 28.7943 21.2879 25.7472C25.9712 21.6376 30.3487 19.9876 37.2037 18.9438C35.5554 20.7897 33.9245 22.7405 32.147 24.8326C30.3475 26.9505 29.2787 29.0897 28.1358 31.4068C26.5575 34.6063 26.5916 35.8238 28.6837 38.633C30.4866 41.0538 31.46 42.1434 32.2475 44.5122C31.5975 45.8522 31.3608 46.9851 31.1425 48.8147C33.35 51.2284 34.9908 52.8818 37.1341 53.3909C39.237 53.8909 40.9925 53.7943 42.8741 52.8326C47.052 50.6968 50.9179 47.9384 55.6308 47.8243C57.8112 42.4643 57.5908 37.9851 56.5441 32.7988C55.8291 29.2568 55.542 25.903 55.32 22.2922C54.4362 26.0109 54.27 29.2809 54.9258 32.9855C55.7166 37.4493 56.3312 42.3813 54.132 46.3047C49.87 46.6309 46.2179 49.2238 42.377 51.213C40.8329 52.013 39.2254 52.0909 37.5166 51.6218C35.9304 51.1859 34.86 50.1363 33.1512 48.1655C33.1241 46.1868 33.5708 45.2738 34.4795 43.4813C35.9395 40.6034 37.5508 37.9247 39.3191 35.0934C37.1541 37.7068 35.1025 39.8905 33.3983 42.5184C32.7466 40.6626 31.815 39.7201 30.272 37.6301C28.765 35.5888 28.6075 34.6955 29.7345 32.333C30.8675 29.9593 31.8283 27.873 33.757 25.7905C37.0891 22.1917 40.142 18.1867 43.7862 14.6426C45.765 12.7184 46.5683 12.7847 49.1929 12.3872C51.5654 12.0272 53.8812 11.5734 56.3004 11.0118C53.9608 11.2297 51.6991 11.3097 49.4212 11.3659L49.3504 11.368C51.592 8.50592 52.8924 6.91092 56.532 5.32925C65.4937 1.43758 71.1879 1.01675 78.2274 6.93383C80.052 8.468 81.6454 9.95675 83.495 11.2797C82.8241 11.3372 82.2462 11.4576 81.4816 11.7576C82.412 11.5801 83.4866 11.7559 84.4525 11.9326C84.7233 12.1084 85.0024 12.2801 85.287 12.448C86.5933 13.2176 87.3345 13.6426 88.2179 14.873C89.1512 16.1734 89.9295 17.473 90.615 18.9055C90.1658 18.7447 89.7887 18.6092 89.4529 18.5097C89.0784 18.338 88.6672 18.2614 88.256 18.2869C87.8448 18.3123 87.4463 18.4389 87.0958 18.6555L87.0416 18.6805C86.3191 19.0326 85.2 19.4334 84.4512 19.5551C84.8333 19.6868 85.6783 19.7363 86.0766 19.5784C86.13 19.5576 86.1841 19.5409 86.24 19.528C86.0552 19.8424 85.9414 20.1933 85.9066 20.5563C85.86 21.0356 85.9527 21.5181 86.1737 21.9459L86.1758 21.9505C86.2433 22.1097 86.3374 22.2559 86.4408 22.3617C86.0987 22.488 85.7491 22.6322 85.3887 22.7884C87.0591 22.5343 88.5649 22.4905 90.1945 22.7051C90.302 23.2188 90.4104 23.7634 90.5112 24.3172L89.9054 24.3647C89.8891 24.3659 89.8728 24.3673 89.8566 24.3688C89.0854 23.7526 88.2262 23.8563 87.0525 24.1243C83.4825 24.938 84.3212 26.9409 82.6795 29.9593C84.3845 27.8751 84.2579 25.6943 87.0366 25.0359C87.6841 24.883 88.1249 24.6909 88.5633 24.7568C87.7745 25.1534 87.0925 25.8113 86.8216 26.5751C86.0591 28.7288 86.5324 30.5434 85.6945 32.5551C86.732 30.7568 86.795 29.0018 87.7233 27.1093C88.0566 26.4301 89.2933 25.3426 90.0525 25.3259L90.6775 25.3122C90.8608 26.5088 90.972 27.6976 90.9012 28.6834C90.7716 30.4826 90.3041 33.153 90.0245 34.1751C90.9645 32.9663 91.3929 30.4068 91.8058 28.6043C92.2358 26.7284 92.127 24.4772 91.7508 22.4613C91.2341 19.6959 94.0825 20.1459 95.7358 18.8426C96.9512 17.8843 97.7883 16.3547 98.9025 15.2705C100.008 14.1955 101.748 15.7751 102.183 16.8255C104.068 21.3867 104.927 28.5622 104.429 33.1601C103.87 38.3193 101.378 43.9513 96.8279 46.4913C91.027 49.7288 84.1875 47.7509 78.4237 45.8093ZM70.1812 68.7234C69.992 70.8522 69.2825 70.9926 67.4133 70.9601C66.5641 70.9451 63.1824 70.9297 62.3241 70.8559C61.1116 70.7513 60.4308 70.643 60.0604 70.3663C61.9654 68.968 65.202 63.1947 65.8333 61.2068C66.5008 59.1068 67.2312 57.2743 67.7745 55.3334C68.0245 56.1447 68.2216 56.9484 68.5854 57.8101C69.1925 59.2501 69.4895 60.1397 69.5329 61.6843L69.6704 66.573C70.1925 67.4863 70.2737 67.6813 70.1812 68.723V68.7234ZM12.8508 52.5976C14.0604 56.7822 16.1212 60.8942 18.4058 64.3513V64.4118C18.262 65.0063 18.0966 65.5847 17.7495 66.0493C16.1162 68.2343 11.9629 65.0272 10.7604 63.8005C9.44621 62.458 8.56662 60.8693 8.35704 59.3784C8.20454 58.2918 8.35287 58.2651 9.11121 57.4959L12.1787 54.3905L12.8508 52.5976ZM10.5404 26.2809C10.2304 26.9463 10.0104 27.4509 9.86079 27.9701C9.20954 30.2193 10.1554 32.2268 8.11329 33.8572C9.07287 35.793 9.02871 36.5655 11.2608 35.6709C12.1216 35.3251 12.8316 34.8418 13.4658 34.2693C13.1588 35.0667 12.8766 35.8735 12.6195 36.6884C12.5754 36.8259 12.5333 36.9647 12.4929 37.1022C10.8966 37.7797 8.79704 38.2101 7.99371 36.5326C7.60371 35.718 7.38329 34.9188 7.09871 33.8897C4.46996 31.1663 8.39954 27.5705 10.5404 26.2809ZM11.8325 29.1659C11.5079 28.8409 11.2483 28.6213 10.8287 28.6688C10.8641 28.3938 10.9112 28.1284 10.9775 27.8793C11.0108 27.7509 11.0466 27.6251 11.085 27.4988C11.6291 27.8159 11.7725 28.3909 11.8325 29.1659ZM90.6566 18.9934C90.7558 19.2026 90.8533 19.4155 90.9491 19.6309C90.87 19.6892 90.7945 19.7505 90.7241 19.8151C90.5946 19.5128 90.4077 19.2386 90.1737 19.0076C90.3304 19.0017 90.4912 18.9967 90.657 18.9934H90.6566ZM68.2933 53.0876H68.2941L68.2937 53.088L68.2933 53.0876ZM1.53621 33.9743C1.95454 29.238 2.87537 27.193 6.24037 23.6284C2.01954 26.6026 0.966206 27.9547 1.53621 33.9743Z" fill="black"/>
<path d="M0.447724 30.1054C0.912308 27.9737 1.34564 27.1692 2.66022 25.4196C0.527308 26.9092 0.249808 27.5208 0.447308 30.1054M49.9686 0.38916C47.4398 0.998743 46.9577 1.46624 46.1994 3.94499C47.4094 2.12999 48.1061 1.53958 49.9686 0.38916Z" fill="black"/>
<path d="M53.9561 0.0282487C48.9407 1.25742 47.467 2.13158 45.8011 7.9445C47.9186 3.687 49.522 2.1195 53.9561 0.027832M64.7578 21.2182C65.2924 18.8499 66.2424 16.5678 69.9203 14.802C65.0453 16.0228 64.1311 18.0703 64.7578 21.2182ZM95.7778 21.382C98.6649 20.3528 100.057 18.0316 100.748 15.3007C99.6178 17.5895 97.874 19.5037 95.5053 20.6762C94.234 21.3053 93.422 21.0857 92.0024 20.9512C93.4461 21.3657 94.3607 21.887 95.7778 21.382ZM76.1103 23.7028C75.7401 22.9265 75.0797 22.3266 74.2715 22.0324C74.9799 21.6545 75.6753 21.2574 76.2178 20.7637C74.6282 21.4995 72.7778 21.3199 71.4136 22.2412C70.2124 23.0528 68.5541 25.6245 67.3332 26.7149C68.2174 26.3716 69.0695 25.7778 69.854 25.1524C69.8584 25.7465 70.0245 26.3281 70.3345 26.8349C70.6445 27.3416 71.0867 27.7543 71.6136 28.0287C71.1623 28.6198 70.8029 29.2759 70.5478 29.9745C72.8724 27.2195 76.2428 25.1387 79.412 24.2491C78.5261 24.2366 77.4774 24.402 76.409 24.7533C76.3692 24.3888 76.2682 24.0337 76.1103 23.7028ZM72.7657 44.5203C72.6528 45.2337 72.4978 46.1203 72.3849 46.8341C72.687 46.0266 73.0503 45.0882 73.4016 44.3182C73.774 43.5033 73.9836 43.4266 74.774 42.9966C75.3345 42.6916 76.352 42.2724 76.9124 41.9674C76.3357 42.0645 75.3024 42.2766 74.7257 42.3737C73.1857 42.6337 73.0045 43.0037 72.7657 44.5203ZM46.4582 16.9774C44.6707 18.7441 42.9345 24.8066 42.3799 27.2324C43.2536 25.2174 45.4403 19.5807 47.1178 18.147C47.5811 17.7507 47.9049 17.5074 48.2528 17.3303C47.052 19.3441 47.1403 19.8449 47.5616 22.5428C47.9195 19.7999 48.8678 18.7403 50.424 16.6941C52.1299 16.2662 53.7265 15.7532 55.4765 15.0707C53.5056 15.2936 51.5326 15.4983 49.5578 15.6849C47.9003 15.842 47.6336 15.8153 46.4582 16.9774Z" fill="black"/>
<path d="M70.8087 27.2975C70.6526 26.9691 70.6332 26.5922 70.7547 26.2496C70.8763 25.9069 71.1289 25.6265 71.457 25.47C71.636 25.3852 71.8311 25.34 72.0291 25.3374C72.227 25.3349 72.4233 25.3751 72.6043 25.4552C72.7854 25.5354 72.947 25.6537 73.0782 25.8019C73.2094 25.9502 73.307 26.1251 73.3645 26.3146C72.712 26.7992 72.1141 27.3692 71.6125 28.03C71.275 27.8942 70.9758 27.6475 70.8083 27.2975M86.0725 21.3925C86.1275 20.8279 86.6087 20.4117 87.1733 20.4662C87.4449 20.493 87.6949 20.6263 87.8685 20.8369C88.0422 21.0474 88.1254 21.3182 88.1 21.59C88.0883 21.7065 88.0568 21.8202 88.007 21.9262C87.4904 22.015 86.9737 22.1658 86.4412 22.3617C86.2187 22.1337 86.0412 21.7179 86.0725 21.3925Z" fill="#FFFFCC"/>
</g>
<defs>
<clipPath id="clip0_772_542">
<rect width="106.667" height="80" fill="white"/>
</clipPath>
</defs>
</svg>
