<svg width="160" height="80" viewBox="0 0 160 80" fill="none" xmlns="http://www.w3.org/2000/svg">
<path fill-rule="evenodd" clip-rule="evenodd" d="M77.4561 23.7251V56.2744H85.4467V41.3144L87.0947 41.3451V56.2744H95.1747V23.7251H87.0947V35.8011H85.4467V23.7251H77.4561ZM105.123 23.7251H97.3387V56.2744H105.123V23.7251ZM106.397 23.7251L112.531 56.2744H121.811L127.944 23.7251H119.707L117.676 37.6531C117.507 38.1864 116.933 38.1864 116.831 37.6531L114.795 23.7251H106.397ZM145.064 23.7251H129.627V56.2744H145.076V47.7411L136.485 47.6678V44.0091H140.579V35.5331H136.485V32.2598H145.076L145.064 23.7251Z" fill="black" stroke="#FDEE21" stroke-width="0.649"/>
<path fill-rule="evenodd" clip-rule="evenodd" d="M44.3063 21.5614C43.85 20.31 28.1324 14.1998 27.932 14.8706C25.046 15.623 23.8714 18.9494 21.8861 21.0565L17.4773 20.804C15.5353 23.3014 14.5162 25.8532 15.2101 28.5052C17.6992 31.8776 20.5888 34.7473 22.3897 38.9828C22.5321 40.9795 31.0314 39.1922 32.8532 38.797C30.3646 40.5784 28.1975 43.3395 29.1287 51.2919C29.9789 55.0263 30.5605 59.1958 38.1011 63.4194C39.0938 63.9754 41.1476 64.6169 42.4177 65.0846C43.6323 65.6417 45.0525 65.8707 49.0592 64.6453C51.3778 63.646 53.8812 63.0439 56.15 62.047L53.4229 62.175C49.6675 62.2568 46.7677 62.5369 45.8741 61.4876L42.4179 55.521L44.4328 51.6073C47.2215 51.8933 48.1471 54.1548 50.605 55.016L53.5021 52.8698C61.9174 57.8369 65.2645 49.7217 66.224 43.4014C66.1216 40.8299 60.6561 44.2074 60.9874 43.0055C61.1158 40.2413 58.8626 36.6247 57.4067 33.8068L59.0916 27.2879C59.8561 26.6063 55.5524 19.355 52.0381 18.4506C48.9547 17.6565 44.3067 21.5614 44.3067 21.5614L44.3063 21.5614Z" fill="#FDEE21"/>
<path fill-rule="evenodd" clip-rule="evenodd" d="M58.1296 35.4167C58.1592 36.1169 58.1563 36.9686 58.224 37.4998C58.2123 37.905 57.9086 37.9205 57.6572 38.0047L59.2947 38.6044C59.6198 39.1514 59.881 39.6986 60.1449 40.2456C60.451 41.5914 60.2219 41.6298 60.019 41.729C59.4247 41.735 58.8322 41.7361 58.2791 41.6185C58.5268 41.7493 58.5814 41.8446 58.6076 42.0121C58.656 42.321 58.4571 42.7429 58.1296 43.1493C58.6138 43.418 59.4967 43.6809 60.1528 43.9304L60.9007 42.2655C60.562 39.8197 59.535 37.566 58.1296 35.4165V35.4167ZM61.1857 43.6204C62.0939 43.9989 63.3485 43.888 65.0881 42.9915C65.3467 42.8075 65.5876 42.9174 65.1248 43.2201C62.8432 45.2674 61.7512 44.2433 61.1858 43.6204H61.1857Z" fill="#C8C037"/>
<path fill-rule="evenodd" clip-rule="evenodd" d="M65.2626 42.7234C65.5323 43.2399 65.3689 43.66 65.2783 44.0963C64.9966 46.3157 64.305 48.0702 62.9481 49.9037C58.5343 56.9998 54.0783 52.5597 50.5255 49.6698L49.0559 53.3522C48.9779 53.675 48.6529 53.9264 50.9485 54.9368L53.2866 53.2853C62.2032 60.0697 68.5218 43.7891 65.2624 42.7235L65.2626 42.7234ZM51.6007 49.0645C50.9992 49.1074 49.2089 49.7162 49.1291 50.0687L49.953 48.8413L51.6007 49.0645ZM50.4309 41.5399C50.5411 41.5399 51.0702 41.6819 51.0134 41.6504C50.9322 41.6051 51.0044 42.3923 51.1709 42.8024L50.5253 44.207C51.7619 42.7809 53.7171 42.8758 55.5322 42.692L54.6663 42.1554C54.8167 41.6537 54.6396 41.2567 54.556 40.8298L50.4309 41.5399ZM53.4693 37.3103C52.1426 37.717 50.8726 38.3815 50.02 39.7979C50.6705 37.4633 50.8031 37.5519 51.0131 37.4365C51.9228 37.0297 52.6678 37.2833 53.4693 37.3103Z" fill="#C8C037"/>
<path fill-rule="evenodd" clip-rule="evenodd" d="M46.3842 64.6746C44.78 66.4448 41.2005 64.5407 38.2279 63.5699C30.6743 58.7667 29.1987 54.2449 29.0955 49.8091C28.7072 43.455 30.6583 39.7629 33.1262 38.8888C31.493 42.0374 30.732 47.6893 31.4888 51.8922C32.1001 54.2304 32.1128 58.1741 36.0251 60.285C37.9409 61.3636 37.4219 62.2032 38.7174 63.2133C40.137 64.3204 44.0953 65.3727 46.3836 64.6746L46.3842 64.6746ZM48.7808 35.3099C46.0648 31.4579 42.2442 30.0126 37.9369 29.8546C38.8003 29.5731 39.6636 29.4266 40.527 29.0104C40.7383 28.7883 40.6692 28.3974 40.59 28.0004C36.4433 26.9177 33.8263 25.5795 30.5135 24.3392L39.4563 26.4854C45.4951 26.7148 44.977 28.2059 48.7806 35.3096L48.7808 35.3099ZM51.6888 33.4521C49.6816 30.5867 47.7348 27.1092 45.0929 24.8975C38.7139 22.0183 32.4036 19.88 25.0088 17.9341L27.369 14.8989C35.2166 16.6903 42.5877 19.6878 49.1896 24.6299C50.3067 27.4543 51.0516 30.2825 51.6888 33.4523V33.4521ZM55.7353 28.3886C55.7353 28.3886 54.61 25.8641 54.0621 24.9001C52.7912 23.4917 52.1479 20.867 49.5455 19.6303C50.3688 19.8526 50.9323 19.5878 52.613 21.1114L55.2602 26.133L55.7353 28.3886ZM57.1351 32.7622C57.3946 30.575 57.8874 27.0671 57.3219 25.6803L52.5785 19.3612C52.316 19.1168 52.127 18.7851 51.9207 18.5265C54.149 19.104 56.4757 20.6537 59.613 26.7717L57.1351 32.7622Z" fill="#FCF6A0"/>
<path fill-rule="evenodd" clip-rule="evenodd" d="M47.7644 33.0208C46.8767 32.3215 46.0855 29.8503 44.7403 29.3371C43.4957 29.2329 43.0385 28.8411 41.4012 29.1747C41.995 28.8772 42.5557 28.4964 43.187 28.2926C43.6146 28.1916 44.0157 28.3035 44.4236 28.3597C44.5244 28.312 44.5904 28.2528 44.5657 28.1634C42.9175 27.1448 39.5363 27.1303 37.2539 26.5489C39.9029 26.6375 42.8338 26.4908 44.8247 27.1296C46.4256 28.5503 46.9456 31.2259 47.7644 33.0212V33.0208ZM52.6181 21.1035C52.9855 21.1369 54.9633 24.2654 55.0562 24.7859C55.2207 25.9239 55.6263 27.1996 55.7354 28.3903C55.4096 27.2483 55.0547 26.1065 54.6109 24.9645C54.4806 24.6501 54.1532 23.9392 53.2416 22.9336C52.8171 22.2248 52.726 21.6678 52.6181 21.1036L52.6181 21.1035ZM59.3207 38.1429H58.474L59.4091 38.3884L59.3207 38.1429ZM53.5473 37.2984C52.6964 37.1938 51.8227 37.1799 50.9724 37.3669C50.6256 37.8327 50.6018 38.3066 50.4502 38.7445C51.4845 37.6045 51.895 37.5348 53.5472 37.2985L53.5473 37.2984ZM65.1521 43.1814C64.678 43.5593 64.6313 43.9151 63.2312 44.3413C62.2102 44.5827 61.6335 44.1736 61.1529 43.6233C61.8815 43.832 61.998 44.3818 63.9516 43.7653L65.1521 43.1814ZM60.9089 43.4185C60.5681 44.3555 60.2007 45.303 59.8303 46.1801C58.9483 47.2145 59.3242 46.625 58.0038 48.2316C58.4264 47.5798 58.9757 46.9535 59.2634 46.2747C59.4649 45.8278 59.7169 45.3536 59.8283 44.9565C59.4782 44.7817 58.7616 44.7679 58.6644 44.8306C57.4905 45.5229 57.2787 46.2557 56.5866 46.9691C57.0882 46.1673 57.5166 45.2921 58.0981 44.5704C58.1644 44.4768 58.5949 44.4586 58.8597 44.4033C58.4484 44.3322 57.6871 44.1849 57.6258 44.1916C56.86 44.3756 56.4309 45.0426 55.8624 45.4857C56.2769 44.8872 56.6586 44.2641 57.1849 43.7497C57.237 43.6893 58.6596 43.8139 59.3969 44.1081L59.4115 44.4014L59.8301 44.5703L60.145 43.7813L60.9089 43.4185ZM51.6195 49.068C51.4305 49.0028 49.7616 48.7894 49.7616 48.8392C49.1208 49.2953 49.0236 49.7317 49.0374 50.1096C50.1041 49.0608 50.0638 49.0578 51.6196 49.068L51.6195 49.068ZM50.3513 41.5238C50.3513 41.5238 51.5556 41.3482 51.5321 41.4607C51.4449 41.8785 51.6796 42.8968 51.7053 42.7548L51.0283 43.3071C52.4462 42.5942 53.9389 42.7375 55.4526 42.6285C55.4526 42.6285 54.1781 42.2766 54.256 42.2656C54.5404 42.2253 54.1803 40.9363 54.0828 40.9084C54.3258 40.8264 54.562 40.7644 54.807 40.7033C52.9843 40.2263 51.9304 40.5074 50.3511 41.5239L50.3513 41.5238Z" fill="black"/>
<path fill-rule="evenodd" clip-rule="evenodd" d="M60.7759 42.4234L60.5082 42.5575C60.4703 41.7734 59.6282 41.8309 58.918 41.8237L58.3354 41.6816C58.5132 41.8456 59.0602 41.8328 58.8393 42.1866C58.6534 42.2859 58.5678 42.7122 58.4614 43.0703L58.1465 43.086L59.8312 43.7488L60.1927 43.8041L61.0586 43.3385L60.7759 42.4234Z" fill="black"/>
<path fill-rule="evenodd" clip-rule="evenodd" d="M52.793 41.8947C52.6575 41.6265 51.9755 41.6646 51.8285 41.8381C51.709 41.9791 51.8211 42.8836 51.9743 42.731C52.1957 42.5364 52.485 42.4549 52.8324 42.4706C52.8763 42.3035 52.8607 42.1231 52.7931 41.8946L52.793 41.8947ZM59.3326 43.2423C59.3968 43.1949 59.5323 42.7419 59.4885 42.6062C59.3989 42.286 58.7648 42.3534 58.7648 42.3534C58.6107 42.4444 58.4744 42.9437 58.531 43.1084C58.5579 43.2479 59.2303 43.2923 59.3326 43.2424L59.3326 43.2423Z" fill="white"/>
<path fill-rule="evenodd" clip-rule="evenodd" d="M32.216 58.8899L32.6166 58.929C34.9913 60.095 38.9014 61.8238 44.5622 60.8947L45.4504 62.2924C42.9574 63.5038 40.2761 63.225 37.7641 63.31L32.216 58.8899ZM28.8066 49.6722L29.9962 54.6661C33.181 56.6569 38.6213 58.9372 43.1561 58.7531L42.1545 56.4538C32.6885 54.4436 31.8879 51.9024 28.8074 49.6717L28.8066 49.6722ZM31.7668 39.4434C32.3476 43.3134 33.1243 46.2468 36.49 48.705C38.5526 50.1883 40.5999 51.6654 43.0901 52.8844C43.0901 52.8844 42.8718 54.0205 42.6893 54.0003C35.2785 53.1766 29.853 47.0322 29.1952 44.2256C29.8317 42.0725 30.7449 40.7279 31.7672 39.4435L31.7668 39.4434ZM35.3285 37.2507C36.3161 41.5399 38.6707 45.8841 41.0118 49.825C41.8697 50.9137 42.0943 51.394 43.4167 52.0569C45.204 52.6228 46.4679 52.4784 47.7652 52.3933C47.4097 51.7353 47.0937 51.0476 46.6856 50.4293C43.7807 48.132 45.1232 46.0403 45.8948 44.716C44.2795 44.3079 42.1393 43.4404 41.8445 42.2994C41.3704 38.6091 41.6112 37.4384 42.0857 35.5435C39.8989 36.0046 37.6825 36.4617 35.3297 37.2514L35.3285 37.2507Z" fill="black"/>
<path fill-rule="evenodd" clip-rule="evenodd" d="M27.3045 14.4679C26.5856 14.9375 25.893 15.609 25.1473 16.3723C23.9121 17.6509 23.0909 18.8981 21.8336 19.8228C21.5822 20.0397 20.8765 20.3888 19.9894 20.4406C19.5715 20.4615 19.2992 20.5307 18.5313 20.4342C17.854 20.0675 17.2106 20.306 16.5827 21.0565C15.8941 22.0462 15.0221 23.927 14.6595 25.11C13.9128 28.1287 15.8175 30.6158 17.6448 32.5327C19.2703 34.1207 20.2075 35.1131 20.8749 36.5689C21.3802 37.5131 21.7546 38.809 22.1599 39.7175C22.306 40.0055 22.2756 40.004 22.6695 40.0909C23.5189 40.2722 24.6972 40.2736 25.7462 40.3637C26.2 40.3701 26.8233 40.3532 27.4138 40.2916C28.2275 40.1379 29.1836 39.9874 29.9849 39.7108C30.7679 39.518 31.4655 39.2509 32.0944 39.0052C32.0132 39.2804 31.4142 39.5454 31.1896 39.8942C29.0579 42.9463 28.474 45.661 28.8452 49.9452C29.0551 51.8441 29.4909 53.4183 30.1485 55.2194C30.4494 56.0436 31.0897 57.3489 31.7033 58.216C33.5286 60.7943 37.6101 64.1052 43.2927 65.3797C44.2842 65.5152 45.4093 65.4429 46.4674 65.1611C49.2721 64.3109 54.9882 62.3002 54.9882 62.3002C54.9882 62.3002 49.9141 62.72 47.5904 62.4902C47.0525 62.406 46.4597 62.3776 46.0849 62.0109C46.022 61.9298 45.7936 61.4698 45.9411 61.4656C46.1423 61.46 46.7199 61.2203 47.6123 61.1407C45.7082 60.9357 45.7355 60.9382 45.5964 60.5914C45.3803 60.053 45.0494 59.3171 44.7089 58.6732C45.5455 58.7443 47.398 58.8478 48.0266 58.1989C48.0266 58.1989 46.9304 58.3255 45.9617 58.2118C45.6354 58.1736 45.0787 57.9751 44.9128 57.9138C44.4779 57.7444 44.1198 57.6918 44.0364 57.5819C43.8854 57.1975 43.783 57.0683 43.6008 56.5533C43.3539 55.8716 43.3344 55.111 43.2867 54.4149C43.9204 55.196 44.7279 55.8535 45.7969 56.1893C45.8105 56.1604 47.1836 56.7862 48.1808 56.4644L48.3882 56.3977C48.3882 56.4155 47.7275 56.4556 47.4852 56.3357C45.4572 55.4737 45.152 54.7192 44.8246 54.3444L43.9489 53.0328C44.2152 52.5018 44.3658 52.4816 44.7193 52.4766C45.786 52.5952 46.2511 52.6864 46.9006 52.5297C47.3394 53.4329 47.458 54.3414 48.4571 54.9987C51.7856 55.9868 52.5089 54.7054 53.315 53.5731C55.71 55.3307 59.6087 55.8726 62.317 53.6036C65.7594 49.6204 66.8492 43.3411 66.5439 42.9825C66.114 42.2532 65.55 41.501 65.0656 41.605C63.3393 42.0762 62.7028 42.952 60.9922 42.7523C61.196 42.7408 61.5386 42.7353 61.5412 42.7158C61.673 41.2675 61.5305 40.5666 61.467 40.4463C60.9478 39.3015 60.2663 38.0967 59.7911 37.1939C59.6686 37.0067 59.3089 35.5841 58.7062 35.0221C58.4477 34.8013 57.8148 34.2193 57.8148 34.2193L57.7612 34.838C57.7612 34.838 58.0086 34.8753 58.1027 35.2586C58.4596 36.7115 60.2769 40.1469 60.4103 40.3115C61.0543 41.3513 60.4757 42.6465 60.9654 43.3732C61.0124 43.4655 61.9644 43.3651 62.7022 43.4104C63.9155 43.1495 63.8637 42.6147 64.9123 42.5344C65.6183 42.4803 65.6891 43.8062 65.6798 43.909C65.5482 45.3731 65.1029 47.0753 64.4213 48.6298C63.0042 51.36 61.4167 53.8121 59.1665 54.154C56.421 54.6337 54.9944 53.4335 53.5062 52.6692L52.9368 53.1547C51.0027 55.0808 48.7055 54.9097 47.7667 52.3932C47.2986 51.417 46.6898 50.8186 46.1681 49.9812L43.4012 51.974C43.1709 52.4464 42.8877 53.1913 42.5437 54.0233C42.3045 54.6017 42.104 55.5953 42.117 56.4209C41.7623 57.0251 43.3455 59.4754 44.3453 60.9658L45.2105 62.2218C45.4089 62.7364 45.8434 63.1907 45.8697 63.2461C47.7269 65.6683 43.5271 65.1105 42.6597 64.9647C40.9484 64.6921 39.2746 63.9772 37.7012 63.0214L37.4283 62.8526C35.5585 61.6753 33.8381 60.169 32.3753 58.6791C31.5031 57.6915 30.6725 55.667 30.0591 54.2318C29.1398 50.7811 27.8204 44.8001 31.3944 40.2677C31.621 40.0086 31.8654 39.5773 32.0736 39.4914C33.1354 38.7731 34.2885 38.2836 35.5285 38.0118L35.4033 37.208C34.784 37.3487 32.699 38.1114 32.1095 38.4306C30.7688 38.8193 29.6567 39.2251 27.9481 39.6529C27.3927 39.7209 26.8463 39.7221 26.3136 39.6498C25.0845 39.4828 22.9893 39.632 22.8556 39.5078C22.0233 38.3471 21.7948 36.2675 21.0361 35.1546L21.0272 35.1435L21.0176 35.1329C20.5749 34.538 20.0589 34.0526 19.5507 33.5477C17.7309 31.7402 16.1727 29.9919 15.7373 28.1388C15.6277 27.5918 15.3453 27.0246 15.4954 25.4068L15.4982 25.3988L15.5008 25.3909C15.9386 23.8789 16.6509 22.647 17.8598 21.4112C19.1178 21.4315 20.363 21.4586 21.333 21.6445C21.7775 21.7189 22.7034 21.8398 23.6592 22.1959C26.0784 23.0971 29.2749 24.5782 29.2749 24.5782C26.8755 23.2604 24.1925 21.549 22.4982 21.2036C22.2461 21.1679 22.0912 21.0529 22.0164 20.8522C24.5647 19.355 25.0308 17.5927 26.7069 16.0113C27.4728 15.6778 27.7715 15.5076 28.4223 15.4369C34.4417 16.3886 38.2303 18.7861 41.229 20.3892C42.4457 21.0508 43.5521 21.5511 44.6079 22.1537C45.5338 22.4583 48.3278 24.5677 49.1456 25.705C49.9763 27.4589 50.5827 29.3534 51.1359 31.1808C51.5326 33.0402 51.8805 33.7944 51.8805 33.7944C51.8805 33.7944 51.5434 32.2392 51.5996 31.9598C51.9491 32.0904 52.7754 32.3484 53.1179 32.3083C53.1179 32.3083 51.5879 31.5173 51.3875 30.8184C50.7441 28.5755 50.0988 25.0838 49.9249 24.9018C49.4345 24.2855 47.3898 22.72 46.1356 21.9961C45.6611 21.7223 45.4047 21.5524 45.3847 21.4321C45.7854 21.0273 46.2796 20.4919 46.724 20.1516C47.1493 19.8255 47.5359 19.4583 48.1293 19.2376C50.7346 18.0642 52.2243 19.6891 52.5779 19.3601C52.5779 19.3601 52.0174 18.7177 52.2663 18.8234C52.5213 18.9615 53.3522 19.1243 53.4434 19.2086C54.393 19.9514 56.8755 22.6662 58.3717 25.5307C58.731 26.2324 58.8772 26.6944 58.7104 27.5393C58.5433 28.385 58.414 28.85 58.2317 29.4148C58.0671 29.7923 57.1355 32.3772 57.1391 32.7245C56.9514 34.1428 57.7473 35.9184 57.7473 35.9184C57.7549 35.4364 57.7177 35.1796 57.7614 34.8349L57.815 34.219C57.815 34.219 57.781 34.0552 57.7871 33.9902C57.8275 33.5643 57.932 33.2062 57.9627 32.9623C58.2618 31.1101 58.7818 29.7767 59.3716 28.1513C59.5469 27.7411 59.7763 27.513 59.7645 27.2007C59.7742 26.6465 59.2783 25.9026 58.9199 25.1761C58.5584 24.4413 58.1258 23.6233 57.5592 22.7606C56.2661 20.9011 55.1638 19.4463 53.1454 18.5351C52.5806 18.2873 50.3582 18.045 49.5908 18.189C48.6604 18.383 47.8591 18.5743 47.2203 18.983C46.2158 19.6263 45.4264 20.6222 44.5001 21.209C42.452 20.1848 41.4635 19.4183 41.2792 19.3125C40.0619 18.6603 38.6005 17.9034 37.0283 17.185C36.2745 16.482 31.5939 14.8007 27.3068 14.4653L27.3045 14.4679ZM53.5033 52.6686C52.241 51.6819 51.1784 50.6655 50.478 49.6201C50.2493 50.8503 49.4193 51.7264 48.7778 52.5882C48.6501 52.7897 48.5581 53.0658 49.1869 53.9441C49.3563 54.1781 49.9695 54.2181 50.3835 54.1966C49.9624 53.8782 49.3216 53.5415 49.2184 53.2497C49.9592 53.7535 50.6452 53.8991 51.2652 53.8178C51.4074 53.8018 51.5828 53.6516 51.7188 53.4204C51.9953 52.8266 52.2116 52.6836 52.4303 52.5238L52.9342 53.1549L53.5033 52.6686Z" fill="black" stroke="black" stroke-width="0.00506696"/>
</svg>
