<svg width="46" height="46" viewBox="0 0 46 46" fill="none" xmlns="http://www.w3.org/2000/svg">
<g clip-path="url(#clip0_2_1240)">
<path d="M18.0601 38.1327V41.0602C18.0601 43.784 20.2761 46.0001 22.9999 46.0001C25.7237 46.0001 27.9398 43.784 27.9398 41.0602V38.1327H18.0601Z" fill="#E7DFDD"/>
<path d="M27.9396 41.0601V38.1326H22.9998V45.9999C25.7237 46 27.9396 43.7839 27.9396 41.0601Z" fill="#DAD0CB"/>
<path d="M22.9999 6.41077L22.9022 6.41113C19.328 6.43629 15.9573 7.84973 13.411 10.391C10.8646 12.9323 9.44464 16.3002 9.41265 19.8743C9.3785 23.6899 10.9634 27.3668 13.7609 29.9619C14.7469 30.8766 15.3125 32.1566 15.3125 33.4737V34.8215H30.6874V33.4571C30.6874 32.145 31.2414 30.8816 32.2074 29.9911C34.991 27.425 36.5877 23.7828 36.5877 19.9986C36.5877 12.5063 30.4922 6.41077 22.9999 6.41077Z" fill="#FFEF4A"/>
<path d="M22.9998 6.41077V34.8214H30.6873V33.4571C30.6873 32.1449 31.2413 30.8815 32.2073 29.991C34.9909 27.4249 36.5876 23.7827 36.5876 19.9985C36.5876 12.5063 30.4921 6.41077 22.9998 6.41077Z" fill="#FFD321"/>
<path d="M28.0107 21.0242H25.315V23.6102L22.9993 25.0995L20.6837 23.6102V21.0242H17.988V25.0815L21.6515 27.4377V34.3722H24.3472V27.4377L28.0107 25.0815V21.0242Z" fill="#ECBE00"/>
<path d="M25.3155 21.0242V23.6102L22.9998 25.0995V34.3722H24.3476V27.4377L28.0111 25.0815V21.0242H25.3155Z" fill="#FF9D21"/>
<path d="M15.3125 33.4572H30.6874V40.8284H15.3125V33.4572Z" fill="#F4F1F1"/>
<path d="M22.9998 33.4572H30.6873V40.8284H22.9998V33.4572Z" fill="#E7DFDD"/>
<path d="M21.6521 0H24.3478V3.64225H21.6521V0Z" fill="#FFD321"/>
<path d="M11.8279 3.34509L14.1624 1.99724L15.9881 5.15952L13.6537 6.50737L11.8279 3.34509Z" fill="#FFD321"/>
<path d="M4.99976 11.1621L6.3476 8.82764L9.50988 10.6534L8.16203 12.9879L4.99976 11.1621Z" fill="#FFD321"/>
<path d="M2.99194 18.6508H6.64353V21.3465H2.99194V18.6508Z" fill="#FFD321"/>
<path d="M39.3572 18.6506H43.0088V21.3463H39.3572V18.6506Z" fill="#FFD321"/>
<path d="M36.49 10.6527L39.6523 8.82687L41.0002 11.1613L37.8378 12.9872L36.49 10.6527Z" fill="#FFD321"/>
<path d="M30.0115 5.16028L31.8373 1.998L34.1717 3.34585L32.3459 6.50813L30.0115 5.16028Z" fill="#FFD321"/>
<path d="M39.3572 18.6506H43.0088V21.3463H39.3572V18.6506Z" fill="#ECBE00"/>
<path d="M36.49 10.6527L39.6523 8.82687L41.0002 11.1613L37.8378 12.9872L36.49 10.6527Z" fill="#ECBE00"/>
<path d="M30.0115 5.16028L31.8373 1.998L34.1717 3.34585L32.3459 6.50813L30.0115 5.16028Z" fill="#ECBE00"/>
<path d="M22.9998 0H24.3476V3.64225H22.9998V0Z" fill="#ECBE00"/>
</g>
<defs>
<clipPath id="clip0_2_1240">
<rect width="46" height="46" fill="white"/>
</clipPath>
</defs>
</svg>
