<svg width="50" height="50" viewBox="0 0 50 50" fill="none" xmlns="http://www.w3.org/2000/svg">
<rect opacity="0.15" width="50" height="50" rx="6" fill="#5800FF"/>
<path fill-rule="evenodd" clip-rule="evenodd" d="M14.2236 29.3046H16.1849C16.3194 29.3046 16.429 29.4142 16.429 29.5487V33.7599C16.429 33.8944 16.3194 34.004 16.1849 34.004H14.2236C14.0891 34.004 13.9794 33.8944 13.9794 33.7599V29.5487C13.9794 29.4142 14.0891 29.3046 14.2236 29.3046ZM32.7658 27.359C33.2188 27.4668 33.6515 27.6465 34.048 27.8906L34.8813 27.5205L35.8633 28.5026L35.4933 29.3355C35.7376 29.7321 35.9172 30.165 36.025 30.6182L36.8751 30.9453V32.3341L36.0248 32.6614C35.917 33.1144 35.7374 33.5472 35.4932 33.9437L35.8633 34.7769L34.8813 35.7589L34.0483 35.389C33.6517 35.6332 33.2189 35.8128 32.7657 35.9206L32.4386 36.7707H31.0497L30.7224 35.9204C30.2694 35.8126 29.8368 35.633 29.4402 35.3889L28.607 35.7589L27.6249 34.7769L27.9949 33.9439C27.7507 33.5473 27.5711 33.1145 27.4632 32.6613L26.6131 32.3341V30.9453L27.4633 30.6181C27.5711 30.165 27.7508 29.7323 27.995 29.3357L27.6249 28.5026L28.607 27.5205L29.4402 27.8906C29.8368 27.6465 30.2694 27.4668 30.7225 27.359L31.0498 26.5087H32.4386L32.7658 27.359ZM31.7441 29.2177C30.4064 29.2177 29.3221 30.302 29.3221 31.6398C29.3221 32.9775 30.4064 34.0618 31.7441 34.0618C33.0819 34.0618 34.1661 32.9775 34.1661 31.6398C34.1661 30.302 33.0819 29.2177 31.7441 29.2177ZM33.4998 13.403L34.0221 14.7786C34.0378 14.8199 34.0743 14.8465 34.1185 14.8486L35.5881 14.9203C35.6881 14.9251 35.729 15.051 35.651 15.1137L34.5042 16.0355C34.4697 16.0632 34.4557 16.1061 34.4674 16.1488L34.8534 17.5686C34.8796 17.6652 34.7725 17.743 34.6888 17.6882L33.4577 16.8824C33.4207 16.8581 33.3756 16.8581 33.3386 16.8824L32.1076 17.6882C32.0238 17.7431 31.9167 17.6652 31.943 17.5686L32.329 16.1488C32.3406 16.1061 32.3266 16.0632 32.2922 16.0355L31.1453 15.1137C31.0674 15.051 31.1083 14.9251 31.2082 14.9203L32.6778 14.8486C32.722 14.8465 32.7585 14.8199 32.7742 14.7786L33.2965 13.403C33.3317 13.31 33.4645 13.31 33.4998 13.403ZM13.8498 27.3524C16.5575 26.4094 19.3473 25.1976 22.1083 23.6239C24.6359 22.1832 27.1389 20.4401 29.5323 18.3239L29.4058 19.1926C29.3755 19.4058 29.5237 19.6033 29.7369 19.6336C29.9501 19.6639 30.1475 19.5157 30.1779 19.3025L30.4603 17.361C30.4943 17.1201 30.3001 16.9045 30.0547 16.917L28.0956 17.0233C27.8807 17.0343 27.7154 17.2174 27.7263 17.4323C27.7373 17.6472 27.9204 17.8125 28.1353 17.8015L28.999 17.7546C26.6517 19.828 24.1992 21.5354 21.7238 22.9464C19.0058 24.4955 16.2594 25.6885 13.5934 26.6169C13.3903 26.6877 13.283 26.9098 13.3538 27.1128C13.4246 27.316 13.6467 27.4232 13.8498 27.3524ZM34.3788 19.6456H32.4175C32.283 19.6456 32.1733 19.7553 32.1733 19.8897V25.7275H32.9749L33.3547 26.714C33.6065 26.7964 33.8516 26.8981 34.0879 27.0181L34.6229 26.7804V19.8897C34.6229 19.7553 34.5133 19.6456 34.3788 19.6456ZM27.869 21.9585C27.7346 21.9585 27.6249 22.0682 27.6249 22.2026V27.3978L28.4338 26.5889L29.4003 27.0181C29.618 26.9076 29.8434 26.8125 30.0745 26.7338V22.2026C30.0745 22.0682 29.9648 21.9585 29.8304 21.9585H27.869ZM25.282 24.2713C25.4164 24.2713 25.5261 24.381 25.5261 24.5155V33.7599C25.5261 33.8944 25.4164 34.004 25.282 34.004H23.3206C23.1862 34.004 23.0765 33.8944 23.0765 33.7599V24.5155C23.0765 24.381 23.1862 24.2713 23.3206 24.2713H25.282ZM20.7335 26.8424C20.8679 26.8424 20.9776 26.952 20.9776 27.0865V33.7599C20.9776 33.8944 20.8679 34.004 20.7335 34.004C20.0797 34.004 19.4259 34.004 18.7721 34.004C18.6376 34.004 18.528 33.8944 18.528 33.7599C18.528 31.3877 18.528 29.4587 18.528 27.0865C18.528 26.952 18.6376 26.8424 18.7721 26.8424H20.7335Z" fill="#8B40E5"/>
</svg>
