<svg width="43" height="80" viewBox="0 0 43 80" fill="none" xmlns="http://www.w3.org/2000/svg">
<g clip-path="url(#clip0_772_395)">
<path d="M41.1958 63.0831H40.8945V62.9146H41.7058V63.0831H41.4064V63.9243H41.1958V63.0831ZM42.8139 63.1271H42.8091L42.5104 63.9246H42.3738L42.0771 63.1271H42.0736V63.9246H41.875V62.9148H42.1672L42.4423 63.6299L42.7164 62.9148H43.0076V63.9246H42.8137L42.8139 63.1271Z" fill="#E76F00"/>
<path d="M14.2195 42.4361C14.2195 42.4361 12.1228 43.6554 15.7116 44.068C20.0593 44.564 22.2813 44.4928 27.0725 43.586C27.0725 43.586 28.3322 44.3759 30.0914 45.06C19.3508 49.6632 5.78332 44.7933 14.2195 42.4361ZM12.907 36.4292C12.907 36.4292 10.5554 38.1699 14.1469 38.5414C18.7912 39.0205 22.4589 39.0597 28.8055 37.8376C28.8055 37.8376 29.6835 38.7276 31.0638 39.2142C18.0777 43.0115 3.61362 39.5137 12.907 36.4292Z" fill="#5382A1"/>
<path d="M23.9713 26.2392C26.6178 29.2861 23.2761 32.0282 23.2761 32.0282C23.2761 32.0282 29.9957 28.5592 26.9097 24.2152C24.0274 20.164 21.817 18.1513 33.7831 11.2114C33.7832 11.2113 15.0003 15.9023 23.9713 26.2392Z" fill="#E76F00"/>
<path d="M38.1767 46.8792C38.1767 46.8792 39.7283 48.1578 36.468 49.1467C30.2684 51.0247 10.6645 51.5919 5.21869 49.2216C3.26105 48.3698 6.93219 47.188 8.08699 46.94C9.29133 46.6788 9.97956 46.7275 9.97956 46.7275C7.80246 45.1938 -4.09232 49.7388 3.9376 51.0406C25.8364 54.5919 43.8571 49.4414 38.1767 46.8792ZM15.2279 30.2054C15.2279 30.2054 5.25611 32.5738 11.6966 33.4339C14.416 33.798 19.837 33.7156 24.8864 33.2925C29.0131 32.9444 33.1571 32.2044 33.1571 32.2044C33.1571 32.2044 31.7019 32.8276 30.6491 33.5463C20.523 36.2096 0.961207 34.9705 6.5928 32.2464C11.3554 29.9442 15.2279 30.2054 15.2279 30.2054ZM33.1159 40.2042C43.4096 34.8552 38.6504 29.7147 35.3282 30.4074C34.514 30.5768 34.151 30.7237 34.151 30.7237C34.151 30.7237 34.4534 30.2502 35.0304 30.0452C41.6024 27.7347 46.6566 36.8597 32.9089 40.4739C32.9089 40.4739 33.0685 40.3316 33.1159 40.2042Z" fill="#5382A1"/>
<path d="M26.9091 0.00537109C26.9091 0.00537109 32.6099 5.70795 21.5022 14.4773C12.5949 21.5115 19.471 25.5223 21.4985 30.105C16.2993 25.4138 12.4837 21.2844 15.0435 17.441C18.8005 11.7992 29.2093 9.0638 26.9091 0.00537109Z" fill="#E76F00"/>
<path d="M16.2394 54.6984C26.12 55.3309 41.2929 54.3475 41.6521 49.6724C41.6521 49.6724 40.9615 51.4446 33.4862 52.8522C25.053 54.4391 14.6516 54.254 8.48242 53.2369C8.48272 53.2366 9.74547 54.282 16.2394 54.6984Z" fill="#5382A1"/>
<path d="M14.6198 72.5629C13.6877 73.3714 12.7032 73.8252 11.8198 73.8252C10.5588 73.8252 9.87754 73.0691 9.87754 71.8563C9.87754 70.5445 10.6076 69.5853 13.536 69.5853H14.6196L14.6198 72.5629ZM17.1917 75.4648V66.4822C17.1917 64.1874 15.883 62.6734 12.7275 62.6734C10.8854 62.6734 9.27168 63.1283 7.96012 63.7084L8.3387 65.2984C9.37135 64.9194 10.708 64.5666 12.02 64.5666C13.8378 64.5666 14.6198 65.2984 14.6198 66.8115V67.947H13.7125C9.29608 67.947 7.30383 69.6613 7.30383 72.2345C7.30383 74.4553 8.61671 75.7177 11.0887 75.7177C12.6777 75.7177 13.8638 75.0615 14.9726 74.1015L15.1739 75.4651L17.1917 75.4648ZM25.7752 75.4648H22.5675L18.7069 62.9008H21.5084L23.9037 70.6201L24.4363 72.9416C25.6481 69.585 26.5054 66.1796 26.9341 62.9008H29.6591C28.9289 67.0379 27.6151 71.5791 25.7752 75.4648ZM38.0809 72.5629C37.147 73.3714 36.161 73.8252 35.2774 73.8252C34.0186 73.8252 33.3356 73.0691 33.3356 71.8563C33.3356 70.5445 34.0671 69.5853 36.9953 69.5853H38.0809V72.5629ZM40.6526 75.4648V66.4822C40.6526 64.1874 39.3407 62.6734 36.1886 62.6734C34.3453 62.6734 32.731 63.1283 31.4201 63.7084L31.7982 65.2984C32.8311 64.9194 34.1704 64.5666 35.4813 64.5666C37.2977 64.5666 38.0809 65.2984 38.0809 66.8115V67.947H37.172C32.7544 67.947 30.7629 69.6613 30.7629 72.2345C30.7629 74.4553 32.0747 75.7177 34.5463 75.7177C36.1363 75.7177 37.322 75.0615 38.4326 74.1015L38.6346 75.4651L40.6526 75.4648ZM4.48374 77.5983C3.75055 78.6688 2.56632 79.5157 1.26985 79.9948L0 78.5005C0.986808 77.9941 1.83313 77.1763 2.22634 76.4148C2.56647 75.7373 2.70725 74.8642 2.70725 72.7763V58.4326H5.43979V72.5798C5.43964 75.371 5.21649 76.4986 4.48374 77.5983Z" fill="#E76F00"/>
</g>
<defs>
<clipPath id="clip0_772_395">
<rect width="43.008" height="80" fill="white"/>
</clipPath>
</defs>
</svg>
