<svg width="37" height="60" viewBox="0 0 37 60" fill="none" xmlns="http://www.w3.org/2000/svg">
<g clip-path="url(#clip0_772_486)">
<path d="M36.0777 24.3567C36.0777 34.3505 28.1539 42.4599 18.3742 42.4599C8.5945 42.4599 0.670898 34.3505 0.670898 24.3567C0.670898 14.3628 8.59464 6.25342 18.3742 6.25342C28.1541 6.25342 36.0778 14.3628 36.0778 24.3567" fill="#D33833"/>
<path d="M1.39876 28.8395C1.39876 28.8395 0.113868 9.96558 17.5175 9.42285L16.3039 7.39551L6.86682 10.565L4.16855 13.6631L1.81286 18.1746L0.470703 23.4286L0.870559 26.9408" fill="#EF3D3A"/>
<path d="M6.25365 12.0071C3.15567 15.1908 1.22819 19.574 1.22819 24.4281C1.22819 29.2822 3.15567 33.6652 6.25365 36.8489C9.36603 40.0327 13.635 41.9886 18.3748 41.9886C23.1148 41.9886 27.3836 40.0327 30.496 36.8491C33.5941 33.6652 35.5214 29.2822 35.5214 24.4281C35.5214 19.5738 33.5941 15.1908 30.496 12.0071C27.3837 8.83756 23.1148 6.86749 18.3748 6.86749C13.6492 6.86749 9.36617 8.82332 6.25365 12.0071ZM5.46847 37.6056C2.17063 34.2363 0.128906 29.5678 0.128906 24.4281C0.128906 19.2884 2.17063 14.6197 5.46847 11.2361C8.76646 7.86677 13.3351 5.76807 18.375 5.76807C23.4147 5.76807 27.9833 7.86677 31.2813 11.2361C34.5791 14.6055 36.6208 19.274 36.6208 24.4281C36.6208 29.5676 34.5791 34.2363 31.2813 37.6056C27.9833 40.9892 23.4147 43.0737 18.3748 43.0737C13.3351 43.0737 8.76646 40.9892 5.46847 37.6056Z" fill="#231F20"/>
<path d="M25.8275 24.4566L23.1291 24.8563L19.4885 25.2704L17.1328 25.3276L14.8343 25.2562L13.0782 24.7138L11.5219 23.0289L10.3084 19.5881L10.0372 18.8457L8.42393 18.3033L7.48148 16.7471L6.81055 14.5198L7.55299 12.564L9.30911 11.95L10.7225 12.6211L11.3934 14.106L12.2072 13.9774L12.4785 13.6348L12.2072 12.0785L12.1359 10.1225L12.5356 7.42426L12.5213 5.88239L13.7491 3.91217L15.9049 2.35591L19.6741 0.742676L23.8573 1.35649L27.4979 3.98354L29.1826 6.68181L30.2675 8.63778L30.5389 13.4919L29.7251 17.675L28.2402 21.3871L26.8412 23.3716" fill="#F0D6B7"/>
<path d="M23.5429 36.1209L13.906 36.5206V38.1338L14.7198 43.8019L14.3199 44.273L7.58122 41.9744L7.11014 41.1606L6.43906 33.5367L4.85431 28.9681L4.51172 27.883L9.90841 24.1711L11.5932 23.5L13.0779 25.3273L14.3628 26.4696L15.8477 26.9407L16.5186 27.1407L17.3324 30.6528L17.9464 31.3953L19.5025 30.8527L18.4175 32.9512L24.271 35.721L23.5429 36.1207" fill="#335061"/>
<path d="M7.55247 12.5921L9.30859 11.9783L10.722 12.6492L11.3929 14.1341L12.2067 14.0056L12.4067 13.1918L12.0069 11.6356L12.4066 7.92361L12.064 5.89628L13.2775 4.48289L15.9044 2.39843L15.162 1.38477L11.45 3.2121L9.89391 4.42577L9.02298 6.31023L7.68096 8.13771L7.28125 10.2935L7.55247 12.5921Z" fill="#6D6B6D"/>
<path d="M10.3223 6.25347C10.3223 6.25347 11.3358 3.75505 15.3762 2.54153C19.4165 1.328 15.5762 1.67059 15.5762 1.67059L11.1929 3.35534L9.50844 5.03994L8.766 6.38196L10.3223 6.25347ZM8.29492 12.1214C8.29492 12.1214 6.88139 7.39563 12.2781 6.72469L12.0782 5.91088L8.36629 6.78181L7.28125 10.294L7.55247 12.5925L8.29492 12.1214Z" fill="#DCD9D8"/>
<path d="M10.4506 18.3886L11.3357 17.5319C11.3357 17.5319 11.7355 17.5748 11.8069 18.0459C11.8783 18.5171 12.0781 22.7716 14.9764 25.056C15.2476 25.2701 12.8206 24.7132 12.8206 24.7132L10.6646 21.3439M22.8572 17.1036C22.8572 17.1036 23.0142 15.062 23.5711 15.2191C24.1279 15.3761 24.1279 15.9328 24.1279 15.9328C24.1279 15.9328 22.7859 16.7895 22.8572 17.1036ZM28.4538 9.62257C28.4538 9.62257 27.3401 9.85091 27.2403 10.8361C27.1403 11.8211 28.4538 11.036 28.6536 10.9646M20.3017 9.69394C20.3017 9.69394 18.8168 9.89379 18.8168 10.8361C18.8168 11.7783 20.5016 11.7069 20.9726 11.3072M11.1358 14.077C11.1358 14.077 8.58041 12.5207 8.30919 14.0056C8.03797 15.4903 7.43825 16.561 8.7089 18.1172L7.83797 17.846L7.0243 15.7616L6.75293 13.7342L8.30919 12.121L10.0652 12.2495L11.0788 13.0633L11.136 14.077M12.3495 9.82242C12.3495 9.82242 13.4915 3.88314 19.288 2.74099C24.0564 1.79868 26.5692 2.94099 27.5115 4.02588C27.5115 4.02588 23.257 -1.02808 19.2165 0.513791C15.1762 2.07005 12.2066 4.89681 12.278 6.71005C12.3922 9.82228 12.3493 9.82228 12.3493 9.82228M27.9826 4.69696C27.9826 4.69696 26.0267 4.62559 25.9552 6.38156C25.9552 6.38156 25.9552 6.65293 26.0839 6.92415C26.0839 6.92415 27.64 5.16804 28.5823 6.11034" fill="#F7E4CD"/>
<path d="M19.4307 7.10977C19.4307 7.10977 19.0882 4.42574 16.8038 5.98186C15.3189 6.99553 15.4617 8.40891 15.7188 8.68028C15.99 8.9515 15.9187 9.49395 16.1185 9.12287C16.3184 8.75164 16.2613 7.53812 17.0037 7.19538C17.7318 6.85279 18.9597 6.48172 19.4307 7.10977Z" fill="#F7E4CD"/>
<path d="M13.0919 25.3271L6.75258 28.1538C6.75258 28.1538 9.37963 38.6045 8.03748 41.8454L7.09532 41.5028L7.02395 37.5195L5.26784 29.9814L4.52539 27.8968L11.1356 23.4424L13.0916 25.327M13.7342 31.1091L14.6336 32.2086V36.2489H13.5629C13.5629 36.2489 13.4345 33.4221 13.4345 33.0795C13.4345 32.7368 13.5629 31.5232 13.5629 31.5232M13.7628 36.8628L10.7218 36.9913L11.5927 37.6053L13.7484 37.948" fill="#49728B"/>
<path d="M24.1427 36.192L26.641 36.1206L27.255 42.3167L24.6994 42.6595L24.1426 36.1918" fill="#335061"/>
<path d="M24.8135 36.192L28.5825 35.992C28.5825 35.992 30.1388 32.0802 30.1388 31.8803C30.1388 31.6803 31.4808 26.2124 31.4808 26.2124L28.4398 23.0429L27.8259 22.5005L26.2126 24.1137V30.3814L24.8135 36.192Z" fill="#335061"/>
<path d="M26.4983 35.7207L24.1426 36.1919L24.4853 38.0765C25.3561 38.4762 26.841 37.4054 26.841 37.4054M26.5696 23.9138L31.2954 27.4259L31.4239 25.8125L27.8547 22.5146L26.5698 23.9138" fill="#49728B"/>
<path d="M16.1046 49.4695L14.7054 43.8016L14.0058 39.6185L13.8916 36.5203L20.2162 36.1777H24.1424L23.7856 43.259L24.3994 48.7271L24.328 49.7408L19.2025 50.1406L16.1046 49.4695Z" fill="white"/>
<path d="M23.2716 36.1206C23.2716 36.1206 22.929 43.1306 23.9427 48.1275C23.9427 48.1275 21.9154 49.4124 18.96 49.7407L24.628 49.5408L25.299 49.1411L24.4853 38.0908L24.271 35.7207" fill="#DCD9D8"/>
<path d="M27.3546 41.7889L29.9815 41.0464L34.9642 40.7752L35.7067 38.4766L34.3645 34.4933L32.8084 34.2935L30.6526 34.9645L28.5966 35.9782L27.4973 35.7782L26.6406 36.1209" fill="white"/>
<path d="M27.3115 40.4324C27.3115 40.4324 29.0676 39.6186 29.3389 39.6899L28.5964 35.978L29.4674 35.6353C29.4674 35.6353 30.0813 39.1475 30.0813 39.5472C30.0813 39.5472 33.8504 39.7471 34.193 39.7471C34.193 39.7471 35.0068 38.1908 34.8069 36.5776L35.5494 38.7334L35.6207 39.9469L34.5357 41.5601L33.3222 41.8315L31.2948 41.7601L30.6238 40.8892L28.2681 41.2318L27.5256 41.5032" fill="#DCD9D8"/>
<path d="M24.6562 35.6495L23.1713 31.8804L21.6152 29.6531C21.6152 29.6531 21.958 28.7109 22.429 28.7109H23.9853L25.4702 29.2534L25.3416 31.7519L24.6562 35.6495Z" fill="white"/>
<path d="M24.9563 34.3648C24.9563 34.3648 23.0717 30.7243 23.0717 30.1817C23.0717 30.1817 23.4145 29.3679 23.8856 29.5679C24.3568 29.7677 25.3704 30.3103 25.3704 30.3103V29.0253L23.0717 28.5542L21.5156 28.7541L24.1425 34.9788L24.685 35.0502" fill="#DCD9D8"/>
<path d="M16.7045 25.47L14.8342 25.27L13.0781 24.7275V25.3415L13.9347 26.2838L16.6331 27.4973" fill="white"/>
<path d="M13.6915 25.6699C13.6915 25.6699 15.7758 26.5409 16.4613 26.341L16.5325 27.1548L14.648 26.755L13.5059 25.9411L13.6915 25.6699Z" fill="#DCD9D8"/>
<path d="M27.3543 28.9395C26.2121 28.9108 25.1698 28.7681 24.2704 28.5111C24.3275 28.1399 24.2133 27.7831 24.3133 27.5117C24.5702 27.3261 24.9842 27.3261 25.3697 27.2834C25.0413 27.1262 24.5702 27.0549 24.199 27.1549C24.1846 26.8979 24.0705 26.7408 23.999 26.5409C24.6416 26.3124 26.155 24.8134 27.0115 25.2987C27.4256 25.5415 27.597 26.8835 27.6255 27.5546C27.654 28.097 27.5684 28.6396 27.3543 28.9395Z" fill="#D33833"/>
<path d="M27.3543 28.9395C26.2121 28.9108 25.1698 28.7681 24.2704 28.5111C24.3275 28.1399 24.2133 27.7831 24.3133 27.5117C24.5702 27.3261 24.9842 27.3261 25.3697 27.2834C25.0413 27.1262 24.5702 27.0549 24.199 27.1549C24.1846 26.8979 24.0705 26.7408 23.999 26.5409C24.6416 26.3124 26.155 24.8134 27.0115 25.2987C27.4256 25.5415 27.597 26.8835 27.6255 27.5546C27.654 28.097 27.5684 28.6396 27.3543 28.9395Z" fill="black" stroke="#D33833" stroke-width="11.9904"/>
<path d="M21.8867 27.0689C21.8867 27.1546 21.8867 27.2401 21.8723 27.3259C21.5154 27.5543 20.9442 27.5543 20.5445 27.7542C21.1157 27.7827 21.5726 27.9254 21.9723 28.111C21.9579 28.3253 21.9579 28.5538 21.9438 28.7679C21.287 29.2105 20.6874 29.8815 19.9165 30.3097C19.5452 30.5097 18.2746 31.0237 17.8891 30.9237C17.6749 30.8666 17.6464 30.5954 17.5608 30.3384C17.3752 29.7959 16.9468 28.9106 16.9039 28.0825C16.8611 27.0404 16.747 25.2843 17.8747 25.4984C18.7884 25.6697 19.8449 26.0838 20.5445 26.4693C20.9871 26.7263 21.2298 27.0118 21.8867 27.0689Z" fill="#D33833"/>
<path d="M21.8867 27.0689C21.8867 27.1546 21.8867 27.2401 21.8723 27.3259C21.5154 27.5543 20.9442 27.5543 20.5445 27.7542C21.1157 27.7827 21.5726 27.9254 21.9723 28.111C21.9579 28.3253 21.9579 28.5538 21.9438 28.7679C21.287 29.2105 20.6874 29.8815 19.9165 30.3097C19.5452 30.5097 18.2746 31.0237 17.8891 30.9237C17.6749 30.8666 17.6464 30.5954 17.5608 30.3384C17.3752 29.7959 16.9468 28.9106 16.9039 28.0825C16.8611 27.0404 16.747 25.2843 17.8747 25.4984C18.7884 25.6697 19.8449 26.0838 20.5445 26.4693C20.9871 26.7263 21.2298 27.0118 21.8867 27.0689Z" fill="black" stroke="#D33833" stroke-width="11.9904"/>
<path d="M22.5293 28.3113C22.4293 27.7401 22.315 27.5832 22.3579 27.0834C23.8855 26.0697 24.1569 28.8253 22.5293 28.3113Z" fill="#D33833"/>
<path d="M22.5293 28.3113C22.4293 27.7401 22.315 27.5832 22.3579 27.0834C23.8855 26.0697 24.1569 28.8253 22.5293 28.3113Z" fill="black" stroke="#D33833" stroke-width="11.9904"/>
<path d="M24.7274 28.7681C24.7274 28.7681 24.2564 28.097 24.599 27.8971C24.9417 27.6973 25.27 27.8971 25.4699 27.5545C25.6699 27.2118 25.4699 27.0121 25.5413 26.6122C25.6126 26.2125 25.941 26.1411 26.2837 26.0698C26.6263 25.9983 27.5686 25.8698 27.6971 26.1983L27.2974 24.9846L26.4836 24.7134L23.928 26.1983L23.7995 26.9407V28.4255M17.6461 30.9953C17.5605 29.9387 17.4749 28.8965 17.3892 27.84C17.2464 26.2696 17.7604 26.5407 19.1309 26.5407C19.3451 26.5407 20.4158 26.7836 20.4873 26.9407C20.8585 27.6973 19.8733 27.5259 20.9155 28.097C21.7864 28.5682 23.3427 27.8115 22.9857 26.7407C22.7857 26.498 21.9578 26.6694 21.6579 26.5122L20.0732 25.6986C19.4023 25.3558 17.8603 24.8419 17.1464 25.3273C15.3332 26.5551 17.2607 29.639 17.9031 30.9239" fill="#EF3D3A"/>
<path d="M19.4313 7.11007C17.5895 6.68172 16.6759 7.881 16.119 9.12302C15.6193 9.00892 15.8192 8.3236 15.9478 7.981C16.276 7.08158 17.6039 5.86791 18.6888 6.03928C19.1457 6.0964 19.7739 6.52475 19.4313 7.11007ZM28.3829 9.19439H28.4685C28.8826 10.0511 29.2395 10.9649 29.7678 11.7358C29.411 12.5639 27.1123 13.2777 27.1408 11.8214C27.6405 11.6073 28.4972 11.7786 28.9398 11.4931C28.6828 10.7935 28.3258 10.1937 28.3829 9.19439ZM20.3593 9.22316C20.759 9.95122 20.8874 10.7079 21.4442 11.2505C21.7013 11.4931 22.1867 11.7929 21.9441 12.4781C21.887 12.6352 21.4729 12.9922 21.2301 13.0636C20.3593 13.3206 18.3176 13.1207 19.0029 12.0213C19.731 12.0499 20.7019 12.4925 21.2445 11.9642C20.8304 11.3075 20.088 9.99395 20.3593 9.22316ZM28.0546 16.5613C26.7411 17.4037 25.2704 18.3318 23.1005 18.1176C22.6436 17.7178 22.458 16.8183 22.9149 16.2331C23.1432 16.6328 23.0005 17.3753 23.6573 17.4894C24.8851 17.7036 26.3127 16.7327 27.1979 16.4045C27.7403 15.4764 27.1552 15.1481 26.6554 14.5483C25.6418 13.3348 24.2998 11.8214 24.3425 10.0083C24.7566 9.70849 24.7851 10.4652 24.8422 10.5937C25.3704 11.8214 26.6983 13.4062 27.6547 14.4627C27.8975 14.7197 28.2829 14.9767 28.3258 15.1481C28.4543 15.6334 27.9975 16.2328 28.0546 16.5613ZM10.6651 15.6763C10.2511 15.4335 10.1513 14.4056 9.6658 14.377C8.96624 14.3342 9.09472 15.7191 9.09472 16.5328C8.62364 16.1046 8.53789 14.7624 8.88062 14.0773C8.48091 13.8773 8.3094 14.2914 8.08105 14.4341C8.38091 12.364 11.1219 13.4776 10.6651 15.6763ZM28.8826 17.4322C28.2687 18.603 27.3977 19.8879 25.5989 19.9308C25.556 19.5596 25.5275 18.9742 25.5989 18.7458C26.9838 18.603 27.8403 17.9035 28.8826 17.4322ZM20.2593 18.1889C21.4015 18.7886 23.5144 18.86 25.0849 18.8171C25.1706 19.1599 25.1706 19.5881 25.1706 20.0022C23.1576 20.0878 20.7875 19.5881 20.2593 18.1889ZM20.0452 19.3026C20.8447 21.3013 23.5716 21.0729 25.8701 21.0158C25.7703 21.2728 25.556 21.5869 25.2706 21.6868C24.5281 21.9866 22.5008 22.2151 21.4729 21.6725C20.8304 21.3299 20.4021 20.5446 20.0452 20.0878C19.8881 19.8737 19.0316 19.3168 20.0452 19.3026Z" fill="#231F20"/>
<path d="M27.954 30.3099C27.0259 31.9089 26.1266 33.5508 25.0273 34.9499C25.484 33.5936 25.6839 31.3093 25.7554 29.5676C26.7262 29.1106 27.5542 29.6673 27.954 30.3099Z" fill="#81B0C4"/>
<path d="M32.9653 36.0493C31.9231 36.2634 31.1949 37.2771 30.167 37.2057C30.7381 36.4204 31.7089 36.0778 32.9653 36.0493ZM33.4221 37.6768C32.5656 37.7626 31.5661 37.9053 30.7096 37.8339C31.1235 37.2057 32.694 37.4341 33.4221 37.6768ZM33.722 39.0903C32.7654 39.1046 31.5804 39.0903 30.6667 39.0188C31.2091 38.4335 33.108 38.8047 33.722 39.0903Z" fill="#231F20"/>
<path d="M26.1554 42.945C26.2981 44.1443 26.7693 45.358 26.7122 46.6713C26.1838 46.8426 25.8841 46.9997 25.1702 46.9997C25.1274 45.886 24.9703 44.1729 25.0132 43.1021C25.3558 43.1306 25.8697 42.8594 26.1554 42.945Z" fill="#DCD9D8"/>
<path d="M24.6131 25.2418C24.1277 25.5558 23.728 25.9413 23.2567 26.284C22.2288 26.3411 21.672 26.2126 20.9297 25.6273C20.9439 25.5844 21.0153 25.5987 21.0153 25.5416C22.1146 26.027 23.5137 25.3418 24.6131 25.2418Z" fill="#F0D6B7"/>
<path d="M18.874 32.7085C19.1739 31.4092 20.3589 30.7241 21.4296 30.0103C22.5288 31.4094 23.1999 33.2082 23.9424 34.95C22.1863 34.4218 20.4016 33.5795 18.874 32.7085Z" fill="#81B0C4"/>
<path d="M25.013 43.1163C24.9701 44.1871 25.1128 45.8861 25.1699 47.0139C25.8839 47.0139 26.1836 46.8569 26.7119 46.6855C26.7691 45.372 26.2978 44.1585 26.1551 42.9592C25.8695 42.8593 25.3555 43.1305 25.013 43.1163ZM13.9911 37.0629C14.4623 41.3602 15.1332 44.9579 16.3753 48.77C19.1308 49.6123 22.443 49.6836 24.8845 48.9269C24.4419 46.7855 24.6275 44.1728 24.3705 41.8741C24.1705 40.1467 24.2705 38.4192 23.9993 36.6631C21.0439 36.0492 16.8751 36.5203 13.9911 37.0629ZM24.6989 36.6917C24.6702 38.5334 24.7845 40.3608 24.9273 42.2025C25.641 42.1026 26.1122 42.0313 26.7691 41.8741C26.5548 40.1038 26.5835 38.0908 26.1409 36.5203C25.6412 36.5347 25.1984 36.5205 24.6989 36.6917ZM28.2823 36.3918C27.9397 36.3205 27.5542 36.3918 27.2401 36.3918C27.3971 37.891 27.7541 39.5471 27.8826 41.1318C28.3823 41.1461 28.6535 40.9033 29.0676 40.832C29.0961 39.4471 28.9534 37.534 28.2823 36.3918ZM33.7219 41.3602C34.7784 41.1032 35.4351 39.8183 35.1353 38.4905C34.9354 37.6054 34.5928 35.9208 34.2072 35.3495C33.936 34.9356 33.1793 34.3787 32.5655 34.7642C31.5803 35.3924 29.8528 35.578 29.139 36.3347C29.4958 37.534 29.6101 39.1616 29.7528 40.6749C30.9807 40.7464 32.4797 40.3324 33.5078 40.7749C32.7938 41.0033 31.8801 41.0033 31.2662 41.3459C31.7801 41.5887 32.9509 41.5458 33.7219 41.3602ZM23.9279 34.9498C23.1855 33.2081 22.5145 31.4092 21.4151 30.0101C20.3443 30.7238 19.1737 31.4092 18.8596 32.7084C20.4014 33.5793 22.1862 34.4216 23.9279 34.9498ZM25.7553 29.5675C25.6839 31.3092 25.484 33.5936 25.0272 34.9498C26.1265 33.5364 27.026 31.9088 27.954 30.3098C27.5542 29.6674 26.7262 29.1105 25.7554 29.5674L25.7553 29.5675ZM23.6852 28.8395C23.2711 28.7964 22.9142 29.3248 22.3717 29.0963C22.2432 29.239 22.1289 29.3819 22.0004 29.5246C23.1997 30.9808 23.7565 33.0369 24.6846 34.7357C25.1843 33.094 25.1272 31.3092 25.2414 29.5246C24.5561 29.5531 24.1707 28.8823 23.6852 28.8395ZM22.3574 27.0832C22.3145 27.5829 22.4288 27.74 22.5286 28.3111C24.1563 28.8251 23.885 26.0695 22.3574 27.0832ZM20.5442 26.4836C19.8446 26.098 18.7882 25.6841 17.8744 25.5128C16.7466 25.2986 16.8607 27.0547 16.9036 28.097C16.9465 28.9249 17.3748 29.7959 17.5604 30.3527C17.646 30.6097 17.6745 30.8809 17.8888 30.938C18.2742 31.0238 19.5591 30.5241 19.9161 30.3241C20.6871 29.9101 21.2866 29.2392 21.9435 28.7822C21.9577 28.5681 21.9577 28.3396 21.9719 28.1255C21.5722 27.9255 21.1296 27.7972 20.5442 27.7687C20.9298 27.5687 21.5151 27.5687 21.8719 27.3403C21.8719 27.2546 21.8719 27.169 21.8863 27.0832C21.2295 27.0118 20.9868 26.7264 20.5442 26.4836ZM13.8341 25.2701C13.2488 25.8697 15.4758 26.6692 16.1755 26.7121C16.1755 26.3409 16.3896 25.9841 16.3468 25.7127C15.5045 25.57 14.4052 25.6698 13.8341 25.2701ZM21.0298 25.5413C21.0298 25.5985 20.9583 25.5842 20.944 25.6271C21.7007 26.2124 22.2574 26.3408 23.2711 26.2838C23.7281 25.9554 24.142 25.5557 24.6275 25.2415C23.5138 25.3415 22.1148 26.0268 21.0298 25.5413ZM27.6256 27.5402C27.5971 26.8833 27.4256 25.5271 27.0117 25.2844C26.1551 24.7846 24.6417 26.298 23.9993 26.5265C24.0707 26.7264 24.1849 26.8833 24.1991 27.1403C24.5848 27.0405 25.0414 27.1118 25.3698 27.2688C24.9843 27.3117 24.5704 27.3117 24.3134 27.4973C24.2276 27.7685 24.3419 28.1255 24.2705 28.4967C25.1699 28.7537 26.2122 28.8822 27.3544 28.9249C27.5685 28.6395 27.6541 28.0969 27.6256 27.5402ZM12.8489 25.8412C12.6633 25.7127 11.4213 24.0993 11.2499 24.1707C9.00849 25.056 6.90979 26.5836 5.03943 28.0397C6.82403 31.8803 7.55223 36.5774 7.68072 41.1032C9.72245 42.0597 11.5212 43.4446 14.3052 43.5874C13.9768 41.3174 13.6914 39.2757 13.5058 37.1341C12.8062 36.8344 11.8068 37.1485 11.1501 37.0485C11.1501 36.2633 12.1494 36.7059 12.235 36.1777C12.2922 35.7779 11.6781 35.7494 11.8781 35.1212C12.3921 35.3068 12.6633 35.7208 13.2059 35.8779C13.7056 34.7928 13.2059 32.8655 13.2773 31.9517C13.2917 31.7805 13.3629 31.0094 13.7483 31.1379C14.0911 31.2521 13.7341 33.2081 13.7627 34.0646C13.7912 34.8642 13.6627 35.6209 13.9911 36.1206C16.6753 35.7494 19.4022 35.5209 22.3145 35.4353C21.6721 35.1641 20.9154 34.9071 20.0873 34.4359C19.6305 34.1789 18.2171 33.6507 18.0886 33.2223C17.8744 32.537 18.6311 32.1802 18.7596 31.5947C17.4033 32.3372 17.1463 30.881 16.818 29.8672C16.5324 28.9392 16.3612 28.2397 16.2898 27.7114C15.1048 27.1118 13.8483 26.555 12.8489 25.8412ZM26.4406 24.3563C28.3109 23.457 28.6535 27.74 27.9111 29.1249C28.0253 29.5389 28.4108 29.696 28.5679 30.0671C27.5256 31.9374 26.3694 33.6792 25.2984 35.5209C26.0837 35.0212 27.2259 35.4353 28.1538 35.0641C28.4966 34.9356 28.7393 34.1504 28.9963 33.5222C29.7099 31.809 30.4524 29.6387 30.7809 28.0114C30.8522 27.6402 31.0663 26.8262 31.0092 26.4979C30.9236 25.8983 30.124 25.4557 29.7099 25.0987C28.9534 24.4134 28.4822 23.8282 27.6826 23.1856C27.3829 23.6569 26.6976 23.9708 26.4406 24.3564V24.3563ZM8.58015 7.78076C7.69497 8.76594 7.88058 10.5934 7.98058 11.9068C9.59381 10.8933 11.7212 11.9926 11.7068 13.7058C12.4777 13.6914 11.9924 12.7492 11.8496 12.1353C11.3927 10.1508 12.6206 8.00925 11.9066 6.19615C10.5219 6.31025 9.39396 6.86694 8.58015 7.78076ZM14.9476 2.08436C12.9347 2.65543 10.3505 4.12594 9.52245 5.93903C10.1649 5.83917 10.6075 5.52507 11.2357 5.4822C11.4784 5.46795 11.7925 5.5822 12.0637 5.51083C12.6062 5.3681 13.0774 4.14018 13.4914 3.68335C13.8912 3.24076 14.3765 3.0409 14.705 2.64119C14.9191 2.54119 15.2331 2.54119 15.2475 2.22709C15.1619 2.12709 15.0619 2.05587 14.9476 2.08436ZM25.4412 2.6268C23.3426 1.44191 19.8019 0.556729 17.5747 1.67025C15.7757 2.56968 13.3488 4.05443 12.5206 5.92493C13.2915 7.73788 12.2922 9.39399 12.2207 11.2357C12.1922 12.2209 12.6777 13.0633 12.7204 14.1341C12.4492 14.5767 11.6496 14.6195 11.093 14.591C10.9073 13.6485 10.579 12.5921 9.60806 12.4779C8.23756 12.3209 7.22389 13.4631 7.16676 14.6481C7.0954 16.0472 8.23756 18.36 9.86504 18.2031C10.4932 18.1459 10.6504 17.5177 11.3355 17.5177C11.7068 18.2602 10.7646 18.4885 10.6646 19.0167C10.636 19.1596 10.736 19.6878 10.8073 19.9448C11.1072 21.1583 11.7639 22.7431 12.4063 23.6711C13.2344 24.856 14.8478 25.0274 16.5895 25.1416C16.9036 24.4705 18.0458 24.5277 18.7881 24.699C17.8888 24.3422 17.0607 23.4855 16.3754 22.7288C15.5901 21.8579 14.7907 20.93 14.7478 19.7878C16.2469 21.8579 17.4747 23.6711 20.1873 24.5849C22.2432 25.2701 24.6417 24.2707 26.2265 23.1572C26.8832 22.7002 27.2686 21.9579 27.7399 21.301C29.4816 18.7884 30.2954 15.219 30.124 11.7498C30.0527 10.3222 30.0527 8.89443 29.5672 7.93788C29.0676 6.93846 27.3686 6.02479 26.3692 6.93846C26.1836 5.95342 27.1973 5.35371 28.3822 5.71069C27.54 4.6114 26.6548 3.31212 25.4412 2.6268ZM29.3531 34.9071C30.995 34.0933 34.0502 32.7226 35.0639 34.9071C35.4495 35.7208 35.8919 37.0772 36.0776 37.9195C36.3488 39.0903 35.7777 41.5744 34.5642 41.9598C33.4934 42.3025 32.2514 42.2882 30.9665 42.0313C30.8094 41.9028 30.6524 41.6885 30.5239 41.46C29.6102 41.4315 28.7393 41.5031 28.0253 41.8885C28.0967 42.5737 27.6399 42.6737 27.1973 42.8166C26.8832 44.0871 27.8397 45.7432 27.6114 46.8854C27.4542 47.7134 26.4406 47.8419 25.6983 47.9846C25.6696 48.4416 25.7268 48.8271 25.7839 49.2126C25.6127 49.8408 24.8558 50.1976 24.1278 50.2833C21.7436 50.5688 18.1315 50.6973 15.8472 49.8692C15.2046 48.2989 14.705 46.4 14.1767 44.6154C11.9495 44.858 10.1364 43.6587 8.43741 42.8593C7.85209 42.5881 7.03828 42.431 6.80979 41.9599C6.59569 41.5031 6.6813 40.6321 6.62418 39.8183C6.49569 37.7196 6.3672 35.6923 5.82475 33.5507C5.58202 32.5799 5.13943 31.7376 4.83957 30.8097C4.5541 29.953 4.06864 28.8822 3.94015 28.0255C3.75453 26.755 4.95381 26.6835 5.71051 26.1267C6.89554 25.2701 7.82346 24.7989 9.10835 24.028C9.49396 23.7996 10.636 23.2285 10.7645 22.9572C11.0216 22.4291 10.322 21.6867 10.1364 21.2726C9.83655 20.6159 9.67943 20.059 9.63669 19.4164C8.5659 19.2452 7.73784 18.6028 7.25252 17.889C6.43856 16.6897 5.86748 14.4767 6.58144 12.8064C6.63856 12.6779 6.90979 12.4065 6.95266 12.2067C7.03828 11.8069 6.79554 11.2786 6.7813 10.8504C6.70993 8.66594 7.15252 6.78133 8.62302 6.12464C9.22259 3.74047 11.364 2.95529 13.3773 1.77025C14.134 1.32766 14.962 1.0422 15.8186 0.727952C18.8881 -0.399817 23.6138 -0.185717 26.1694 1.74162C27.2544 2.55543 28.9819 4.28292 29.5958 5.53932C31.2376 8.8373 31.1092 14.3625 29.9671 18.3887C29.8099 18.9311 29.5958 19.7163 29.2817 20.3731C29.0676 20.83 28.3966 21.7294 28.4679 22.1291C28.5537 22.5432 30.0099 23.6425 30.324 23.9423C30.8809 24.4848 31.9515 25.1987 32.0371 25.8841C32.1371 26.6121 31.7232 27.6115 31.5091 28.3111C30.8236 30.6526 30.1384 32.8084 29.3531 34.9071Z" fill="#231F20"/>
<path d="M18.4314 18.6883C18.517 18.574 19.0023 18.3885 19.6877 18.7169C19.6877 18.7169 18.8739 18.8454 18.9452 20.2018L18.6026 20.1303C18.617 20.1447 18.26 18.9167 18.4314 18.6883Z" fill="#F7E4CD"/>
<path d="M24.3421 30.2814C24.3421 30.4812 24.1708 30.6526 23.9708 30.6526C23.771 30.6526 23.5996 30.4812 23.5996 30.2814C23.5996 30.0814 23.771 29.9102 23.9708 29.9102C24.1851 29.9102 24.3421 30.0814 24.3421 30.2814ZM24.7133 32.0089C24.7133 32.2089 24.5421 32.3801 24.3421 32.3801C24.1422 32.3801 23.9708 32.2089 23.9708 32.0089C23.9708 31.8089 24.1422 31.6376 24.3421 31.6376C24.5563 31.6376 24.7133 31.7948 24.7133 32.0089Z" fill="#1D1919"/>
<path d="M5.26805 53.8525C5.1538 53.8668 5.05395 53.8809 4.96819 53.8953C4.88258 53.9096 4.79697 53.9238 4.68272 53.9525C4.55423 53.981 4.48272 54.0381 4.45423 54.1237C4.42574 54.2094 4.39711 54.2949 4.39711 54.4093V57.8927C4.39708 58.199 4.3288 58.5015 4.19725 58.7781C4.06877 59.0493 3.8974 59.2634 3.66905 59.449C3.44056 59.6202 3.18359 59.7631 2.89812 59.8487C2.61251 59.9345 2.31265 59.9916 1.99855 59.9916C1.44171 59.9916 0.999269 59.8631 0.656535 59.5917C0.313945 59.3205 0.142578 58.9635 0.142578 58.4925C0.142578 58.2212 0.213945 57.9927 0.371067 57.8071C0.528046 57.6215 0.74229 57.5359 1.01351 57.5359C1.27049 57.5359 1.47035 57.6073 1.62747 57.7644C1.78445 57.9214 1.85582 58.107 1.85582 58.3212C1.85582 58.5069 1.78445 58.6925 1.65596 58.8493C1.52747 59.0064 1.37049 59.1635 1.19912 59.292V59.3491C1.22761 59.4061 1.28474 59.4633 1.37035 59.5061C1.4561 59.549 1.55596 59.5633 1.64171 59.5633C1.99855 59.5633 2.28416 59.4348 2.48402 59.1776C2.68402 58.9208 2.78387 58.5353 2.78387 58.0214V54.452C2.78387 54.3522 2.76948 54.2522 2.741 54.1808C2.71251 54.1094 2.62675 54.0523 2.49826 53.9952C2.41265 53.9525 2.29841 53.9238 2.16992 53.8953C2.04143 53.8667 1.94157 53.8525 1.85582 53.8382V53.4955H5.22517V53.8525H5.26805ZM10.5505 58.7638C10.4506 58.9351 10.3221 59.092 10.1793 59.2491C10.0365 59.4061 9.86517 59.5204 9.67956 59.6346C9.4797 59.7489 9.27984 59.8346 9.07999 59.8916C8.87999 59.9487 8.6374 59.9772 8.38042 59.9772C7.93783 59.9772 7.56661 59.9202 7.23826 59.7916C6.92416 59.6631 6.65294 59.5061 6.45308 59.292C6.23884 59.0778 6.0961 58.835 5.98186 58.5496C5.87778 58.2512 5.82471 57.9375 5.82488 57.6215C5.82488 57.3218 5.882 57.022 5.9961 56.7507C6.11035 56.4794 6.26747 56.2224 6.46733 56.0083C6.66718 55.7942 6.92416 55.6227 7.23826 55.4943C7.5645 55.361 7.91375 55.2931 8.26618 55.2943C8.68028 55.2943 9.02301 55.3516 9.29409 55.4515C9.56546 55.5515 9.77956 55.6942 9.95092 55.8656C10.1221 56.0368 10.2364 56.2368 10.3221 56.4651C10.3935 56.6936 10.4362 56.9363 10.4362 57.1932V57.4788H7.42387C7.42387 58.0927 7.53812 58.5496 7.78071 58.8637C8.0092 59.1778 8.39466 59.3348 8.89438 59.3348C9.17999 59.3348 9.42258 59.2634 9.65107 59.1064C9.87917 58.952 10.0735 58.7528 10.2221 58.5209L10.5505 58.7637V58.7638ZM8.85164 57.0647C8.85164 56.8933 8.8374 56.7077 8.82315 56.5221C8.80877 56.3365 8.78028 56.1795 8.72315 56.0653C8.66603 55.9225 8.60905 55.8225 8.50905 55.7512C8.42344 55.6798 8.30905 55.6512 8.18071 55.6512C7.95222 55.6512 7.76661 55.7654 7.63826 55.9939C7.49538 56.2222 7.42387 56.5935 7.40977 57.0932L8.85164 57.0647ZM16.8466 59.8202H14.1626V59.4919C14.2197 59.4919 14.2911 59.4775 14.3626 59.4633C14.4482 59.449 14.5052 59.4348 14.5482 59.4205C14.6052 59.3919 14.648 59.3348 14.6765 59.2776C14.7052 59.2205 14.7194 59.1207 14.7194 59.0064V56.9221C14.7194 56.6224 14.6623 56.3939 14.5482 56.2369C14.4338 56.0798 14.2768 56.0084 14.0483 56.0084C13.9341 56.0084 13.82 56.0228 13.72 56.0656C13.62 56.094 13.52 56.1512 13.4201 56.2225C13.3345 56.2797 13.2632 56.3368 13.206 56.4081C13.1489 56.4653 13.106 56.5224 13.0775 56.5794V58.9637C13.0775 59.0637 13.0919 59.1493 13.1204 59.2207C13.1489 59.2922 13.206 59.3493 13.2632 59.3778C13.306 59.4063 13.363 59.4349 13.4344 59.4492L13.6486 59.492V59.8204H10.936V59.492C11.0073 59.492 11.0787 59.4776 11.1644 59.4634C11.2358 59.4492 11.3072 59.4349 11.3643 59.4207C11.4643 59.392 11.5213 59.3349 11.5643 59.2635C11.5928 59.1922 11.6213 59.1066 11.6213 58.9923V56.3939C11.6213 56.3083 11.5928 56.2083 11.5499 56.1227C11.507 56.0369 11.4357 55.9656 11.3643 55.9084C11.3072 55.8799 11.2501 55.8371 11.1643 55.8228C11.0769 55.7936 10.9853 55.7791 10.8932 55.7799V55.4516L13.0204 55.3374L13.0918 55.4087V56.0513H13.1062C13.2103 55.9656 13.3103 55.8751 13.4059 55.7799C13.511 55.6889 13.6206 55.6032 13.7342 55.523C13.8485 55.4516 13.9912 55.3945 14.1626 55.3374C14.3338 55.2802 14.5338 55.266 14.7337 55.266C15.2191 55.266 15.576 55.4087 15.8187 55.6801C16.0614 55.9513 16.1755 56.3225 16.1755 56.7794V58.9637C16.1755 59.0779 16.1899 59.1637 16.2184 59.2207C16.247 59.2922 16.3184 59.3349 16.404 59.3778C16.4469 59.3922 16.504 59.4207 16.5754 59.4349C16.6468 59.4493 16.7181 59.4634 16.8181 59.4778V59.8202H16.8466ZM22.9857 59.8202H20.887C20.6657 59.4248 20.4276 59.0389 20.1732 58.6638C19.959 58.3497 19.7591 58.0499 19.5735 57.7929L19.3165 58.0214V58.9922C19.3165 59.092 19.3309 59.192 19.3594 59.2491C19.3879 59.3205 19.445 59.3634 19.545 59.4061C19.6021 59.4348 19.6593 59.449 19.7306 59.4633C19.802 59.4776 19.8734 59.4919 19.9447 59.4919V59.8202H17.175V59.4919C17.2465 59.4919 17.3178 59.4775 17.4034 59.4633C17.4748 59.449 17.5462 59.4348 17.6034 59.4205C17.7033 59.3919 17.7603 59.3348 17.8032 59.2634C17.8318 59.192 17.8603 59.1064 17.8603 58.9922V54.0238C17.8603 53.9238 17.8318 53.8238 17.7889 53.724C17.746 53.624 17.6891 53.5384 17.6033 53.4812C17.5462 53.4527 17.4606 53.4099 17.3463 53.3956C17.2321 53.367 17.1322 53.3527 17.0322 53.3527V53.0244L19.2452 52.9102L19.3165 52.9815V57.5786C19.5308 57.3788 19.7878 57.1504 20.059 56.8935C20.3302 56.6365 20.5587 56.4222 20.7157 56.251C20.8157 56.151 20.8728 56.0797 20.8728 56.0225C20.887 55.9654 20.887 55.9369 20.887 55.9227C20.887 55.8656 20.8442 55.8227 20.7443 55.7942C20.6443 55.7656 20.5158 55.7227 20.316 55.6942V55.3801H22.5716V55.6942C22.2719 55.7798 22.0436 55.8512 21.8865 55.9227C21.7293 55.994 21.558 56.0939 21.3725 56.2081C21.2511 56.2904 21.1321 56.3761 21.0155 56.4651C20.9013 56.5507 20.7728 56.6651 20.6158 56.7935C20.9013 57.2218 21.1727 57.6073 21.4152 57.9643C21.658 58.3211 21.915 58.7067 22.1862 59.1064C22.2719 59.2491 22.3862 59.3348 22.5289 59.3919C22.6716 59.4348 22.8001 59.4633 22.9429 59.4776V59.8201H22.9857V59.8202ZM25.8411 59.8202H23.0286V59.4919C23.1 59.4919 23.1856 59.4775 23.257 59.4633C23.3283 59.449 23.3997 59.4348 23.4426 59.4205C23.5426 59.3919 23.5997 59.3348 23.6426 59.2634C23.6853 59.192 23.6996 59.1064 23.6996 58.9922V56.3938C23.6996 56.2938 23.6711 56.1938 23.6282 56.1225C23.5908 56.0451 23.5312 55.9804 23.457 55.9369C23.3997 55.9083 23.3283 55.8656 23.2142 55.8369C23.1 55.8084 23 55.7798 22.9144 55.7798V55.4515L25.0987 55.3372L25.1701 55.4086V58.9494C25.1701 59.0494 25.1987 59.135 25.2414 59.2207C25.2843 59.2922 25.3557 59.3493 25.427 59.3778C25.4842 59.4063 25.5555 59.4349 25.627 59.4492C25.6984 59.4635 25.7698 59.4778 25.8554 59.492V59.8204H25.841L25.8411 59.8202ZM25.1987 53.7526C25.1987 53.9809 25.1129 54.1666 24.9417 54.3235C24.7703 54.4807 24.5561 54.5663 24.3278 54.5663C24.085 54.5663 23.8852 54.4807 23.6996 54.3235C23.5283 54.1666 23.4426 53.9667 23.4426 53.7525C23.4426 53.5241 23.5282 53.3385 23.6996 53.1671C23.8708 53.0102 24.0852 52.9244 24.3278 52.9244C24.5705 52.9244 24.7703 53.0102 24.9417 53.1671C25.1129 53.3243 25.1987 53.524 25.1987 53.7525V53.7526ZM32.1373 59.8202H29.4532V59.4919C29.5103 59.4919 29.5817 59.4775 29.6531 59.4633C29.7387 59.449 29.7958 59.4348 29.8387 59.4205C29.8958 59.3919 29.9385 59.3348 29.9672 59.2776C29.9957 59.2205 30.0101 59.1207 30.0101 59.0064V56.9221C30.0101 56.6224 29.9529 56.3939 29.8387 56.2369C29.7244 56.0798 29.5675 56.0084 29.339 56.0084C29.2247 56.0084 29.1105 56.0228 29.0106 56.0656C28.9106 56.1083 28.8106 56.1512 28.7108 56.2225C28.6252 56.2797 28.5538 56.3368 28.4967 56.4081C28.4396 56.4653 28.3967 56.5224 28.3682 56.5794V58.9637C28.3682 59.0637 28.3824 59.1493 28.4109 59.2207C28.4396 59.2922 28.4967 59.3493 28.5538 59.3778C28.5965 59.4063 28.6537 59.4349 28.725 59.4492L28.9393 59.492V59.8204H26.2266V59.492C26.298 59.492 26.3693 59.4776 26.4551 59.4634C26.5265 59.4492 26.5978 59.4349 26.655 59.4207C26.7548 59.392 26.8119 59.3349 26.8548 59.2635C26.8833 59.1922 26.9119 59.1066 26.9119 58.9923V56.3939C26.9119 56.3083 26.8833 56.2083 26.8406 56.1227C26.7977 56.0369 26.7263 55.9656 26.655 55.9084C26.5978 55.8799 26.5407 55.8371 26.455 55.8228C26.3675 55.7936 26.2759 55.7791 26.1837 55.7799V55.4516L28.3111 55.3374L28.3824 55.4087V56.0513H28.3968C28.5009 55.9656 28.601 55.8751 28.6965 55.7799C28.8017 55.6889 28.9113 55.6032 29.0249 55.523C29.1391 55.4516 29.2819 55.3945 29.4532 55.3374C29.6244 55.2802 29.8244 55.266 30.0243 55.266C30.5096 55.266 30.8666 55.4087 31.1092 55.6801C31.3521 55.9513 31.4662 56.3225 31.4662 56.7794V58.9637C31.4662 59.0779 31.4806 59.1637 31.5091 59.2207C31.5377 59.2922 31.6091 59.3349 31.6947 59.3778C31.7375 59.3922 31.7947 59.4207 31.8659 59.4349C31.9374 59.4493 32.0088 59.4634 32.1088 59.4778V59.8202H32.1373ZM34.607 59.9772C34.3216 59.9772 34.0361 59.9345 33.7649 59.8487C33.4935 59.7631 33.2794 59.6775 33.1224 59.5775L32.9939 59.8773H32.6512L32.5941 58.2212H32.9224C32.9653 58.3497 33.0367 58.5067 33.1509 58.6781C33.2509 58.8493 33.3794 58.9922 33.5078 59.1349C33.6551 59.2684 33.8181 59.3835 33.9932 59.4776C34.1788 59.5633 34.3644 59.6204 34.5644 59.6204C34.8357 59.6204 35.0355 59.5633 35.164 59.4633C35.2925 59.3634 35.3639 59.192 35.3639 58.9779C35.3639 58.8637 35.3352 58.7637 35.2781 58.6781C35.2211 58.6067 35.1354 58.5353 35.0355 58.4781C34.9213 58.4211 34.7928 58.364 34.6499 58.3212C34.5072 58.2784 34.336 58.2355 34.1361 58.1641C33.9361 58.107 33.7649 58.0499 33.622 57.9785C33.4793 57.9214 33.3223 57.8214 33.1794 57.6929C33.0509 57.5788 32.9368 57.4359 32.8655 57.2789C32.7797 57.1218 32.7512 56.9221 32.7512 56.6936C32.7512 56.2795 32.9224 55.9368 33.2794 55.6799C33.6362 55.423 34.0932 55.2943 34.6643 55.2943C34.9355 55.2943 35.1783 55.3231 35.4068 55.3801C35.6351 55.4372 35.8207 55.4943 35.9778 55.5657L36.0777 55.3087H36.4203L36.4918 56.8221H36.1777C36.0777 56.508 35.8921 56.2509 35.6493 56.0225C35.3924 55.7942 35.1211 55.6799 34.8357 55.6799C34.6072 55.6799 34.4216 55.7227 34.2931 55.8227C34.1646 55.9227 34.0931 56.0512 34.0931 56.2224C34.0931 56.4509 34.1931 56.608 34.3787 56.7079C34.5643 56.8079 34.8357 56.9079 35.1783 56.9933C35.7065 57.1362 36.0919 57.3218 36.3489 57.5502C36.5916 57.7929 36.7201 58.0926 36.7201 58.4496C36.7201 58.9351 36.5345 59.3205 36.1491 59.5776C35.7207 59.8345 35.2209 59.9772 34.607 59.9772Z" fill="#231F20"/>
</g>
<defs>
<clipPath id="clip0_772_486">
<rect width="36.84" height="60" fill="white"/>
</clipPath>
</defs>
</svg>
