<svg width="62" height="60" viewBox="0 0 62 60" fill="none" xmlns="http://www.w3.org/2000/svg">
<g clip-path="url(#clip0_772_448)">
<path d="M19.7763 59.0162C18.3438 59.0162 16.991 58.3796 16.0757 57.2256L2.14881 39.9161C1.23353 38.762 0.875508 37.29 1.23353 35.8572L6.20749 14.2502C6.52576 12.8177 7.4808 11.6636 8.7941 11.0271L28.9287 1.3972C29.5655 1.07918 30.2818 0.919922 30.998 0.919922C31.7143 0.919922 32.4304 1.07893 33.0671 1.39744L53.202 10.9873C54.5151 11.6239 55.4701 12.7779 55.7884 14.2105L60.7623 35.8174C61.0808 37.25 60.7623 38.7223 59.8473 39.8763L45.9199 57.1858C45.0047 58.2999 43.6518 58.9764 42.2193 58.9764L19.7768 59.0162H19.7763Z" fill="#326DE6"/>
<path d="M30.9579 1.91427C31.5152 1.91427 32.0722 2.03353 32.5895 2.27229L52.7243 11.8622C53.7589 12.3795 54.5547 13.3345 54.7934 14.4488L59.7674 36.0557C60.0459 37.2098 59.7674 38.4036 59.0114 39.3186L45.0843 56.6284C44.368 57.5434 43.2537 58.0607 42.0999 58.0607H19.7764C18.6224 58.0607 17.5083 57.5434 16.7921 56.6284L2.86496 39.3186C2.14868 38.4036 1.86992 37.2098 2.10893 36.0557L7.08289 14.4488C7.3614 13.2948 8.11744 12.3397 9.15198 11.8622L29.2871 2.23278C29.8044 2.03377 30.4011 1.91451 30.9582 1.91451L30.9579 1.91427ZM30.9579 0.0439453C30.1224 0.0439453 29.2868 0.242952 28.4908 0.600971L8.3562 10.2309C6.76438 10.9869 5.65033 12.3795 5.25232 14.0905L0.278353 35.6977C-0.11942 37.4088 0.278353 39.1596 1.39265 40.5524L15.3197 57.8619C16.3943 59.2147 18.0256 59.9708 19.7367 59.9708H42.0599C43.771 59.9708 45.4025 59.2147 46.4768 57.8619L60.4042 40.5522C61.5182 39.1994 61.9162 37.4088 61.5182 35.6975L56.5443 14.0905C56.1465 12.3795 55.0322 10.9869 53.4406 10.2309L33.3853 0.600731C32.6292 0.242952 31.7937 0.0439453 30.9579 0.0439453Z" fill="white"/>
<path d="M51.1328 34.3449C51.093 34.3449 51.093 34.3449 51.1328 34.3449H51.093C51.0533 34.3449 51.0135 34.3449 51.0135 34.3052C50.934 34.3052 50.8545 34.2654 50.7747 34.2654C50.4962 34.2256 50.2575 34.1859 50.0187 34.1859C49.8992 34.1859 49.7799 34.1859 49.6207 34.1459H49.5809C48.7454 34.0664 48.0689 33.9869 47.4321 33.7879C47.1536 33.6684 47.0741 33.5094 46.9943 33.3501C46.9943 33.3104 46.9546 33.3104 46.9546 33.2706L46.4373 33.1116C46.6817 31.2397 46.5874 29.3391 46.1588 27.5006C45.7243 25.6468 44.9703 23.8829 43.9304 22.2879L44.3285 21.9299V21.8504C44.3285 21.6514 44.3682 21.4524 44.5272 21.2533C45.0047 20.8156 45.6018 20.4576 46.318 20.0198C46.4373 19.9403 46.5566 19.9005 46.6761 19.8208C46.9148 19.7015 47.1138 19.5823 47.3526 19.423C47.3923 19.3833 47.4719 19.3435 47.5516 19.264C47.5914 19.224 47.6311 19.224 47.6311 19.1843C48.1881 18.7067 48.3076 17.911 47.9096 17.3934C47.7106 17.1149 47.3526 16.9559 46.9943 16.9559C46.6763 16.9559 46.3976 17.0752 46.119 17.2742L46.0395 17.3537C45.96 17.3934 45.92 17.4732 45.8405 17.5129C45.6415 17.7119 45.4823 17.871 45.3233 18.07C45.2437 18.1495 45.1642 18.269 45.0447 18.3485C44.4875 18.9455 43.9702 19.423 43.4529 19.781C43.3337 19.8605 43.2144 19.9005 43.0949 19.9005C43.0154 19.9005 42.9357 19.9005 42.8561 19.8605H42.7766L42.2989 20.179C41.7816 19.622 41.2246 19.1445 40.6676 18.667C38.269 16.7921 35.3823 15.6457 32.351 15.3641L32.3112 14.8468L32.2317 14.7673C32.1122 14.6478 31.9532 14.5286 31.9132 14.25C31.8734 13.6133 31.9532 12.897 32.0327 12.1012V12.0615C32.0327 11.942 32.0724 11.7829 32.1122 11.6634C32.152 11.4249 32.1917 11.1859 32.2317 10.9074V10.5494C32.2317 9.83311 31.6744 9.23633 30.9981 9.23633C30.6796 9.23633 30.3614 9.39534 30.1226 9.6341C29.8841 9.87286 29.7646 10.1911 29.7646 10.5494V10.8677C29.7646 11.1462 29.8043 11.3849 29.8839 11.6237C29.9236 11.7432 29.9236 11.8624 29.9634 12.0217V12.0615C30.0429 12.8572 30.1624 13.5735 30.0829 14.2103C30.0431 14.4888 29.8839 14.6081 29.7646 14.7276L29.6851 14.8071L29.6451 15.3243C28.9288 15.4039 28.2125 15.4834 27.4963 15.6426C24.4324 16.3191 21.7265 17.8712 19.6177 20.0993L19.2196 19.8208H19.1401C19.0606 19.8208 18.9809 19.8605 18.9014 19.8605C18.7819 19.8605 18.6626 19.8208 18.5431 19.7413C18.0258 19.3833 17.5086 18.8657 16.9515 18.269C16.872 18.1895 16.7925 18.07 16.673 17.9905C16.5138 17.7914 16.3545 17.6322 16.1555 17.4334C16.1158 17.3934 16.0363 17.3539 15.9568 17.2742C15.917 17.2344 15.8772 17.2344 15.8772 17.1947C15.6307 16.991 15.3215 16.8785 15.0017 16.8762C14.6435 16.8762 14.2854 17.0354 14.0864 17.3139C13.6884 17.8312 13.8079 18.627 14.3649 19.1045C14.4047 19.1045 14.4047 19.1445 14.4444 19.1445C14.524 19.1843 14.5639 19.2638 14.6435 19.3035C14.8822 19.4625 15.0812 19.582 15.32 19.7015C15.4395 19.7413 15.5587 19.8208 15.6782 19.9005C16.3943 20.3381 16.9913 20.6963 17.4688 21.1341C17.6678 21.3329 17.6678 21.5319 17.6678 21.7309V21.8104L18.0656 22.1686C17.9861 22.2879 17.9066 22.3676 17.8666 22.4869C15.877 25.6305 15.121 29.3312 15.6382 32.9921L15.121 33.1511C15.121 33.1911 15.0812 33.1911 15.0812 33.2306C15.0017 33.3899 14.8822 33.5491 14.6435 33.6684C14.0467 33.8674 13.3304 33.9471 12.4949 34.0266H12.4549C12.3356 34.0266 12.1763 34.0266 12.0571 34.0664C11.8183 34.0664 11.5796 34.1061 11.3011 34.1459C11.2215 34.1459 11.142 34.1859 11.0623 34.1859C11.0225 34.1859 10.9828 34.1859 10.9428 34.2256C10.2265 34.3847 9.78875 35.0612 9.90825 35.6977C10.0277 36.255 10.545 36.6132 11.1816 36.6132C11.3011 36.6132 11.3806 36.6132 11.5001 36.5733C11.5398 36.5733 11.5796 36.5733 11.5796 36.5335C11.6591 36.5335 11.7386 36.4937 11.8181 36.4937C12.0968 36.4142 12.2958 36.3347 12.5346 36.2152C12.6539 36.1755 12.7731 36.0957 12.8926 36.0562H12.9324C13.6884 35.7775 14.3649 35.5387 15.0017 35.4592H15.0812C15.32 35.4592 15.4792 35.5785 15.5985 35.6582C15.6382 35.6582 15.6382 35.698 15.678 35.698L16.2353 35.6185C17.1903 38.5628 19.0206 41.1892 21.448 43.0993C22.005 43.5368 22.562 43.8951 23.1591 44.2533L22.9203 44.7704C22.9203 44.8104 22.9601 44.8103 22.9601 44.8499C23.0396 45.0091 23.1191 45.2081 23.0396 45.4866C22.801 46.0837 22.4428 46.6804 22.005 47.357V47.3967C21.9255 47.5162 21.846 47.5957 21.7665 47.715C21.6072 47.914 21.4877 48.113 21.3285 48.3518C21.2887 48.3915 21.249 48.471 21.2092 48.5508C21.2092 48.5905 21.1695 48.6303 21.1695 48.6303C20.8512 49.3068 21.09 50.0628 21.6867 50.3413C21.8458 50.4208 22.005 50.4608 22.1643 50.4608C22.6418 50.4608 23.1193 50.1423 23.3581 49.7046C23.3581 49.6648 23.3978 49.6251 23.3978 49.6251C23.4376 49.5456 23.4773 49.466 23.5171 49.4261C23.6366 49.1475 23.6763 48.9485 23.7558 48.7098L23.8753 48.3518C24.1539 47.556 24.3529 46.9192 24.7109 46.3622C24.8699 46.1234 25.0691 46.0837 25.2282 46.0039C25.2679 46.0039 25.2679 46.0039 25.3077 45.9642L25.5864 45.4469C27.3372 46.1234 29.2473 46.4814 31.1572 46.4814C32.3112 46.4814 33.505 46.3622 34.6193 46.0837C35.3205 45.9269 36.0115 45.7275 36.6884 45.4866L36.9269 45.9244C36.9669 45.9244 36.9669 45.9244 37.0067 45.9642C37.2057 46.0039 37.3647 46.0837 37.5239 46.3224C37.8422 46.8794 38.081 47.556 38.3595 48.312V48.3518L38.479 48.7098C38.5585 48.9485 38.5982 49.1873 38.7175 49.4261C38.7575 49.5056 38.7972 49.5456 38.837 49.6251C38.837 49.6648 38.877 49.7046 38.877 49.7046C39.1155 50.1821 39.593 50.4608 40.0705 50.4608C40.2298 50.4608 40.389 50.4208 40.5481 50.3413C40.8266 50.1823 41.0653 49.9433 41.1451 49.6251C41.2246 49.3068 41.2246 48.9485 41.0656 48.6303C41.0656 48.5905 41.0256 48.5905 41.0256 48.5508C40.9858 48.4713 40.9461 48.3917 40.9063 48.3518C40.7868 48.113 40.6278 47.914 40.4686 47.715C40.389 47.5957 40.3095 47.5162 40.23 47.397V47.357C39.792 46.6804 39.394 46.0837 39.1952 45.4866C39.1157 45.2081 39.1952 45.0491 39.235 44.8501C39.235 44.8103 39.2748 44.8104 39.2748 44.7706L39.0757 44.2931C41.1848 43.0595 42.9754 41.3085 44.3285 39.1599C45.0447 38.0456 45.6018 36.812 45.9995 35.5785L46.4771 35.658C46.5171 35.658 46.5171 35.6182 46.5566 35.6182C46.7158 35.5387 46.8353 35.4194 47.0741 35.4194H47.1536C47.7904 35.499 48.4666 35.7375 49.2229 36.0162H49.2627C49.3819 36.056 49.5012 36.1355 49.6207 36.1752C49.8595 36.2947 50.0585 36.3742 50.337 36.454C50.4165 36.454 50.496 36.4937 50.5757 36.4937C50.6155 36.4937 50.6552 36.4937 50.695 36.5335C50.8145 36.5733 50.894 36.5733 51.0135 36.5733C51.6103 36.5733 52.1276 36.1755 52.2868 35.6582C52.2868 35.1807 51.849 34.5439 51.1328 34.3451V34.3449ZM32.709 32.3951L30.9581 33.2309L29.2073 32.3951L28.7698 30.525L29.9634 29.0129H31.9132L33.107 30.525L32.7092 32.3951H32.709ZM43.0949 28.2569C43.4036 29.5727 43.4976 30.9298 43.3734 32.2756L37.2852 30.525C36.7281 30.366 36.4099 29.8087 36.5291 29.2517C36.5689 29.0924 36.6486 28.9332 36.7679 28.8139L41.5828 24.4765C42.2591 25.5908 42.7764 26.8643 43.0949 28.2569ZM39.6728 22.0891L34.46 25.7898C34.0223 26.0683 33.4253 25.9886 33.0672 25.551C32.948 25.4315 32.9082 25.2723 32.8682 25.1133L32.5102 18.627C35.2202 18.939 37.7447 20.1593 39.6728 22.0891ZM28.133 18.8258C28.5708 18.7462 28.9686 18.6667 29.4063 18.5872L29.0483 24.9538C29.0086 25.5108 28.5708 25.9883 27.9738 25.9883C27.8148 25.9883 27.6158 25.9486 27.4963 25.8691L22.204 22.0891C23.8356 20.4576 25.8649 19.343 28.133 18.8258ZM20.2939 24.4762L25.0291 28.6942C25.4669 29.0524 25.5067 29.7287 25.1486 30.1665C25.0291 30.3255 24.8701 30.445 24.6711 30.485L18.5034 32.2756C18.2646 29.5697 18.8614 26.8241 20.2939 24.4762ZM19.2194 35.26L25.5467 34.1854C26.0639 34.1457 26.5415 34.5039 26.6607 35.0212C26.7005 35.2597 26.7005 35.459 26.621 35.658L24.1936 41.5072C21.9653 40.0747 20.1744 37.8861 19.2194 35.26ZM33.7438 43.1785C32.8285 43.3776 31.9132 43.4968 30.9581 43.4968C29.5656 43.4968 28.2125 43.2583 26.9395 42.8603L30.0829 37.17C30.4011 36.8118 30.9184 36.6528 31.3562 36.8915C31.542 37.0053 31.7041 37.1539 31.8337 37.329L34.8976 42.8603C34.5395 42.9795 34.1415 43.0593 33.7435 43.1785H33.7438ZM41.5031 37.6476C40.5083 39.2391 39.195 40.5124 37.6832 41.5072L35.1763 35.4985C35.0568 35.0212 35.2558 34.5039 35.7333 34.2649C35.8924 34.1854 36.0914 34.1457 36.2904 34.1457L42.6571 35.2202C42.4184 36.0955 42.0204 36.8915 41.5031 37.6476Z" fill="white"/>
</g>
<defs>
<clipPath id="clip0_772_448">
<rect width="61.6776" height="60" fill="white"/>
</clipPath>
</defs>
</svg>
