<svg width="60" height="60" viewBox="0 0 60 60" fill="none" xmlns="http://www.w3.org/2000/svg">
<rect opacity="0.15" width="60" height="60" rx="6" fill="#FF885A"/>
<path d="M40.9552 39.146C40.3107 37.2279 37.742 36.0273 35.9107 35.2225C35.1932 34.9082 33.207 34.3751 32.9683 33.4717C32.8828 33.1463 32.8944 32.8394 32.9644 32.5453C32.854 32.5665 32.742 32.5789 32.6262 32.5789H31.4329C30.4803 32.5789 29.7062 31.8039 29.7062 30.8519C29.7062 29.9005 30.4806 29.1271 31.4329 29.1271H32.6262C33.0204 29.1271 33.3942 29.2605 33.6956 29.4986C34.1376 29.4397 34.5638 29.3453 34.9612 29.2215C35.4832 28.1281 35.8902 26.8205 35.9814 25.6951C36.3708 20.8797 33.4188 18.0625 29.1862 18.5495C26.1088 18.9037 24.2704 21.1985 24.0716 24.1527C23.8707 27.1639 24.9872 29.3879 26.1731 31.0193C26.6924 31.7325 27.238 32.1911 27.1542 33.0506C27.0569 34.0669 25.9702 34.3501 25.1929 34.6625C24.272 35.0324 23.28 35.5937 22.8115 35.8532C21.1977 36.7444 19.4265 37.8176 19.0284 39.2858C18.1468 42.5396 21.1241 43.5252 23.582 43.9802C25.6915 44.3693 28.07 44.4001 30.0265 44.4001C33.5654 44.4001 39.9289 44.2583 40.9552 41.5981C41.247 40.8433 41.1219 39.6404 40.9552 39.146Z" fill="#FF885A"/>
<path d="M33.3817 30.3659C33.2198 30.1191 32.943 29.9553 32.6271 29.9553H31.4339C30.9359 29.9553 30.5343 30.3575 30.5343 30.8529C30.5343 31.3502 30.9359 31.7531 31.4339 31.7531H32.6271C32.9756 31.7531 33.2713 31.5543 33.4204 31.267C35.0841 31.1361 36.5311 30.6279 37.5468 29.8775C37.7801 30.0279 38.0559 30.1159 38.3535 30.1159H38.4284C39.2579 30.1159 39.9286 29.4446 39.9286 28.6142V25.6164C39.9286 25.0193 39.5785 24.5041 39.0735 24.2647C38.8534 19.451 34.8684 15.6001 30.0006 15.6001C25.1327 15.6001 21.1471 19.451 20.9279 24.2647C20.422 24.5044 20.0723 25.0193 20.0723 25.6164V28.6142C20.0723 29.4446 20.7436 30.1159 21.5711 30.1159H21.647C22.4751 30.1159 23.1468 29.4446 23.1468 28.6142V25.6164C23.1468 25.0279 22.8067 24.5204 22.3123 24.275C22.5263 20.219 25.8921 16.986 30.0006 16.986C34.1075 16.986 37.4748 20.219 37.6879 24.275C37.1942 24.5207 36.8543 25.0279 36.8543 25.6164V28.6142C36.8543 28.8132 36.8931 28.9985 36.9612 29.1716C36.087 29.7972 34.8143 30.243 33.3817 30.3659Z" fill="#FF885A"/>
</svg>
