<svg width="50" height="50" viewBox="0 0 50 50" fill="none" xmlns="http://www.w3.org/2000/svg">
<rect opacity="0.15" width="50" height="50" rx="6" fill="#FF885A"/>
<path d="M17.9073 27.2004H22.2496V26.2841C22.2496 24.7203 20.9819 23.4526 19.4181 23.4526H16.1655C14.6017 23.4526 13.334 24.7203 13.334 26.2841V30.7053H17.9073V27.2004Z" fill="#FF885A"/>
<path d="M17.7913 22.0214C19.6015 22.0214 21.069 20.5539 21.069 18.7437C21.069 16.9335 19.6015 15.4661 17.7913 15.4661C15.9811 15.4661 14.5137 16.9335 14.5137 18.7437C14.5137 20.5539 15.9811 22.0214 17.7913 22.0214Z" fill="#FF885A"/>
<path d="M19.2734 28.5671H21.6231V35.7433H19.2734V28.5671Z" fill="#FF885A"/>
<path d="M29.9806 27.7588H29.0381V25.5394C29.0381 24.252 27.9945 23.2083 26.7069 23.2083C26.1748 23.2083 25.7434 23.6397 25.7434 24.1718V26.46L24.6523 27.7588L22.9902 28.5671V35.7433L24.5214 36.6544H29.9806C31.2548 36.6544 32.2877 35.6215 32.2877 34.3473V30.0659C32.2877 28.7917 31.2548 27.7588 29.9806 27.7588Z" fill="#FF885A"/>
<path d="M24.3125 16.4087C25.5472 17.1977 26.599 18.2495 27.388 19.4842C28.177 18.2495 29.2288 17.1977 30.4635 16.4087C29.2288 15.6197 28.177 14.568 27.388 13.3333C26.599 14.568 25.5472 15.6197 24.3125 16.4087Z" fill="#FF885A"/>
<path d="M36.6666 21.3379C35.4319 20.5489 34.3802 19.4972 33.5911 18.2625C32.8021 19.4972 31.7503 20.549 30.5156 21.3379C31.7503 22.1269 32.8021 23.1787 33.5911 24.4134C34.3802 23.1787 35.4319 22.1269 36.6666 21.3379Z" fill="#FF885A"/>
</svg>
