<svg width="54" height="54" viewBox="0 0 54 54" fill="none" xmlns="http://www.w3.org/2000/svg">
<g clip-path="url(#clip0_2_1286)" filter="url(#filter0_d_2_1286)">
<path d="M11.7794 12.5398H4V40.4626C4 43.5159 6.48409 46 9.53743 46H13.7905V43.3047C12.7511 43.3047 11.9056 42.4592 11.9056 41.4199C11.9056 40.3806 12.7511 39.5351 13.7905 39.5351H22.9135L27 30.2769L22.9135 21.0188L11.7794 12.5398Z" fill="#66E5C2"/>
<path d="M36.9645 31.7187L22.9141 21.0188V39.5351H36.9645V31.7187Z" fill="#4EB8C2"/>
<path d="M10.6328 0V33.1259H29.8789L32.6932 16.563L29.8789 0H10.6328Z" fill="#FFE144"/>
<path d="M29.8789 0V33.1259H42.0071C43.0463 33.1259 43.8919 33.9715 43.8919 35.0108C43.8919 36.0501 43.0464 36.8956 42.0071 36.8956V39.5909H44.4632C47.5166 39.5909 50.0007 37.1068 50.0007 34.0535V0H29.8789Z" fill="#FFB654"/>
<path d="M18.5403 10.1365V14.2023C18.5403 14.6977 18.1373 15.1007 17.6419 15.1007H16.0781V17.796H17.6419C18.1373 17.796 18.5403 18.1991 18.5403 18.6945V22.7603C18.5403 24.7419 20.1525 26.3541 22.134 26.3541H23.0875V23.6588H22.134C21.6386 23.6588 21.2356 23.2557 21.2356 22.7603V18.6945C21.2356 17.8451 20.9388 17.0641 20.4443 16.4484C20.9388 15.8326 21.2356 15.0516 21.2356 14.2023V10.1365C21.2356 9.64108 21.6386 9.23804 22.134 9.23804H23.0875V6.54272H22.134C20.1525 6.54272 18.5403 8.15488 18.5403 10.1365Z" fill="#3869AD"/>
<path d="M42.5022 15.1007C42.0069 15.1007 41.6038 14.6977 41.6038 14.2023V10.1365C41.6038 8.15488 39.9917 6.54272 38.0101 6.54272H37.0566V9.23804H38.0101C38.5055 9.23804 38.9085 9.64108 38.9085 10.1365V14.2023C38.9085 15.0516 39.2053 15.8326 39.6998 16.4484C39.2053 17.0641 38.9085 17.8451 38.9085 18.6945V22.7603C38.9085 23.2557 38.5055 23.6588 38.0101 23.6588H37.0566V26.3541H38.0101C39.9917 26.3541 41.6038 24.7419 41.6038 22.7603V18.6945C41.6038 18.1991 42.0069 17.796 42.5022 17.796H44.066V15.1007H42.5022Z" fill="#0053A0"/>
<path d="M25.5312 14.9434H29.8777L32.0438 13.5957L29.8777 12.248H25.5312V14.9434Z" fill="#FFF79F"/>
<path d="M25.5312 6.54272V9.23804H29.8777L31.2185 7.89038L29.8777 6.54272H25.5312Z" fill="#FFF79F"/>
<path d="M25.5449 20.6487H29.8769L32.0501 19.301L29.8769 17.9534H25.5449V20.6487Z" fill="#FFF79F"/>
<path d="M25.5449 26.354H29.8769L31.2566 25.0063L29.8769 23.6587H25.5449V26.354Z" fill="#FFF79F"/>
<path d="M29.8789 12.248H34.2254V14.9434H29.8789V12.248Z" fill="#FFE144"/>
<path d="M29.8789 6.54272H34.2254V9.23804H29.8789V6.54272Z" fill="#FFE144"/>
<path d="M29.8789 17.9534H34.2109V20.6487H29.8789V17.9534Z" fill="#FFE144"/>
<path d="M29.8789 23.6588H34.2109V26.3541H29.8789V23.6588Z" fill="#FFE144"/>
</g>
<defs>
<filter id="filter0_d_2_1286" x="0" y="0" width="54" height="54" filterUnits="userSpaceOnUse" color-interpolation-filters="sRGB">
<feFlood flood-opacity="0" result="BackgroundImageFix"/>
<feColorMatrix in="SourceAlpha" type="matrix" values="0 0 0 0 0 0 0 0 0 0 0 0 0 0 0 0 0 0 127 0" result="hardAlpha"/>
<feOffset dy="4"/>
<feGaussianBlur stdDeviation="2"/>
<feComposite in2="hardAlpha" operator="out"/>
<feColorMatrix type="matrix" values="0 0 0 0 0 0 0 0 0 0 0 0 0 0 0 0 0 0 0.25 0"/>
<feBlend mode="normal" in2="BackgroundImageFix" result="effect1_dropShadow_2_1286"/>
<feBlend mode="normal" in="SourceGraphic" in2="effect1_dropShadow_2_1286" result="shape"/>
</filter>
<clipPath id="clip0_2_1286">
<rect width="46" height="46" fill="white" transform="translate(4)"/>
</clipPath>
</defs>
</svg>
