<svg width="46" height="46" viewBox="0 0 46 46" fill="none" xmlns="http://www.w3.org/2000/svg">
<path d="M19.1337 17.5887H18.3609V19.908L13.8677 17.5887H6.76481C5.91105 17.5887 5.21875 16.8964 5.21875 16.0426V6.76579C5.21875 5.91203 5.91105 5.21973 6.76481 5.21973H19.1337C19.9875 5.21973 20.6798 5.91203 20.6798 6.76579V16.0426C20.6798 16.8964 19.9875 17.5887 19.1337 17.5887Z" fill="white"/>
<path d="M18.3623 20.6806C18.2408 20.6806 18.1194 20.6521 18.0076 20.5946L13.6813 18.3618H6.76613C5.48733 18.3618 4.44727 17.3213 4.44727 16.0425V6.76564C4.44727 5.48684 5.48733 4.44678 6.76613 4.44678H19.1351C20.4139 4.44678 21.4544 5.4873 21.4544 6.76564V16.0425C21.4544 17.3213 20.4139 18.3618 19.1351 18.3618V19.9078C19.1351 20.1774 18.9948 20.4281 18.7643 20.5684C18.641 20.6429 18.5021 20.6806 18.3623 20.6806ZM6.76613 5.99284C6.34017 5.99284 5.99333 6.33922 5.99333 6.76564V16.0425C5.99333 16.4689 6.34017 16.8157 6.76613 16.8157H13.869C13.9923 16.8157 14.1137 16.8452 14.2236 16.9017L17.589 18.6387V17.5885C17.589 17.1612 17.9349 16.8157 18.3623 16.8157H19.1351C19.5615 16.8157 19.9083 16.4689 19.9083 16.0425V6.76564C19.9083 6.33922 19.5615 5.99284 19.1351 5.99284H6.76613Z" fill="#0AB5FD"/>
<path d="M17.5887 9.085H8.31186C7.88498 9.085 7.53906 8.73908 7.53906 8.3122C7.53906 7.88486 7.88498 7.53894 8.31186 7.53894H17.5887C18.0156 7.53894 18.3619 7.8844 18.3619 8.3122C18.3619 8.73908 18.0156 9.085 17.5887 9.085Z" fill="#0AB5FD"/>
<path d="M14.4966 15.2697H8.31186C7.88498 15.2697 7.53906 14.9237 7.53906 14.4964C7.53906 14.0691 7.88498 13.7231 8.31186 13.7231H14.4966C14.9234 13.7231 15.2694 14.0691 15.2694 14.4964C15.2694 14.9237 14.9234 15.2697 14.4966 15.2697Z" fill="#0AB5FD"/>
<path d="M17.5887 12.177H15.2694C14.8443 12.177 14.4966 11.8293 14.4966 11.4042C14.4966 10.9792 14.8443 10.631 15.2694 10.631H17.5887C18.0137 10.631 18.3619 10.9792 18.3619 11.4042C18.3619 11.8293 18.0137 12.177 17.5887 12.177ZM12.1772 12.177C11.7522 12.177 11.4044 11.8293 11.4044 11.4042C11.4044 10.9792 11.7522 10.631 12.1772 10.631C12.6023 10.631 12.9505 10.9792 12.9505 11.4042C12.9505 11.8293 12.6023 12.177 12.1772 12.177ZM9.08512 12.177H8.31186C7.88636 12.177 7.53906 11.8293 7.53906 11.4042C7.53906 10.9792 7.88682 10.631 8.31186 10.631H9.08512C9.51016 10.631 9.85792 10.9792 9.85792 11.4042C9.85792 11.8293 9.51016 12.177 9.08512 12.177Z" fill="#0AB5FD"/>
<path d="M38.4612 37.6881H7.53906C7.53906 36.2028 8.2286 34.8803 9.30362 34.0183C8.80406 32.7339 8.868 31.244 9.61044 29.9578C10.3529 28.6717 11.6119 27.8713 12.9735 27.662C13.1828 26.2999 13.9837 25.0414 15.2694 24.2989C16.5555 23.5565 18.0459 23.4925 19.3302 23.9921C20.1927 22.9175 21.5152 22.2275 23.0001 22.2275C24.485 22.2275 25.8075 22.9171 26.67 23.9921C27.9543 23.4925 29.4443 23.5565 30.7304 24.2989C32.0166 25.0414 32.817 26.2999 33.0267 27.662C34.3888 27.8713 35.6474 28.6717 36.3898 29.9578C37.1322 31.244 37.1962 32.7344 36.6966 34.0183C37.7716 34.8803 38.4612 36.2028 38.4612 37.6881Z" fill="#FDD6A0"/>
<path d="M38.4605 38.461H7.53843C7.32959 38.461 7.13639 38.3832 6.98965 38.237C6.84245 38.0898 6.76562 37.8966 6.76562 37.6882C6.76562 36.2038 7.34569 34.8201 8.41197 33.7759C8.27305 33.2966 8.21095 32.8021 8.21095 32.2997C8.20312 31.3411 8.45842 30.3976 8.9382 29.5706C9.68018 28.2872 10.878 27.3754 12.316 27.0038C12.6872 25.5653 13.5994 24.3675 14.8828 23.6329C16.1505 22.8909 17.7044 22.7133 19.0881 23.1002C20.1318 22.0408 21.5151 21.4539 22.9921 21.4539H23.0073C24.4839 21.4539 25.8676 22.0339 26.9113 23.0928C27.2669 22.9926 27.6381 22.9305 28.0167 22.907C28.4339 22.8684 28.8051 23.2009 28.836 23.626C28.8668 24.051 28.542 24.4222 28.117 24.4457C27.7228 24.477 27.3285 24.5612 26.9495 24.7084C26.6404 24.8321 26.2692 24.7318 26.0681 24.4765C25.3105 23.5409 24.1973 22.9999 22.9995 22.9999C21.8012 22.9999 20.688 23.5409 19.9304 24.4765C19.7215 24.7314 19.3586 24.8321 19.049 24.7084C18.5853 24.5303 18.106 24.437 17.611 24.437C16.9155 24.437 16.2582 24.6154 15.6556 24.9632C14.6197 25.5653 13.9237 26.5865 13.7383 27.777C13.684 28.1174 13.4287 28.3727 13.0888 28.4265C11.9061 28.6124 10.878 29.3084 10.2754 30.3438C9.92721 30.9469 9.757 31.6038 9.74918 32.2997C9.74918 32.7942 9.84211 33.274 10.0201 33.7372C10.1434 34.0542 10.0509 34.4098 9.78782 34.6191C9.06102 35.1991 8.56606 36.0179 8.3885 36.9149H37.61C37.432 36.0179 36.9375 35.1991 36.2107 34.6191C35.948 34.4098 35.8551 34.0542 35.9788 33.7372C36.1569 33.2736 36.2415 32.7869 36.2415 32.2997C36.2415 31.6111 36.0639 30.9386 35.7157 30.3438C35.1205 29.3079 34.1002 28.6119 32.9097 28.4265C32.5693 28.3727 32.3145 28.1174 32.2602 27.777C32.2294 27.5604 32.1751 27.3446 32.1056 27.128C32.0362 26.9274 32.0514 26.7181 32.1443 26.5323C32.2372 26.3473 32.3991 26.2075 32.5928 26.1459C32.9875 26.0148 33.436 26.2388 33.5671 26.6335C33.6135 26.7563 33.6443 26.8805 33.683 27.0042C35.1209 27.3754 36.3192 28.2876 37.0612 29.571C37.5405 30.3976 37.788 31.3416 37.788 32.3002C37.788 32.7947 37.7264 33.2966 37.587 33.7763C38.6542 34.8205 39.2338 36.2042 39.2338 37.6886C39.2338 37.897 39.1565 38.0902 39.0093 38.2374C38.8626 38.3832 38.6616 38.461 38.4605 38.461ZM31.0003 25.2337C30.8457 25.2337 30.699 25.195 30.5674 25.1099C30.3972 24.9945 30.2813 24.816 30.2348 24.6154C30.1962 24.4144 30.2426 24.2056 30.3512 24.0354C30.583 23.695 31.0858 23.5942 31.4258 23.8187C31.596 23.9351 31.7119 24.1122 31.7579 24.3137C31.797 24.5147 31.7579 24.7226 31.642 24.8937C31.4952 25.1099 31.2556 25.2337 31.0003 25.2337Z" fill="#FDB021"/>
<path d="M23.0007 38.461C22.9313 38.461 22.8614 38.4518 22.7937 38.4334L8.87874 34.568C8.4675 34.453 8.22646 34.0275 8.341 33.6158C8.45554 33.205 8.8815 32.9667 9.29274 33.0776L23.0007 36.8855L36.7087 33.0776C37.1204 32.9663 37.5464 33.205 37.6605 33.6158C37.775 34.027 37.534 34.453 37.1227 34.568L23.2077 38.4334C23.1401 38.4518 23.0702 38.461 23.0007 38.461Z" fill="#FDB021"/>
<path d="M22.9987 38.461C22.8009 38.461 22.6031 38.3856 22.4522 38.2347L12.4021 28.1851C12.1003 27.8829 12.1003 27.3939 12.4021 27.0917C12.7043 26.7894 13.1933 26.7894 13.4955 27.0917L22.9987 36.5948L32.5018 27.0917C32.8036 26.7894 33.293 26.7894 33.5948 27.0917C33.8965 27.3939 33.8965 27.8829 33.5948 28.1851L23.5451 38.2347C23.3943 38.3856 23.1965 38.461 22.9987 38.461Z" fill="#FDB021"/>
<path d="M23.0004 38.4611C22.9986 38.4611 22.9967 38.4611 22.9949 38.4611C22.6494 38.4588 22.3481 38.2278 22.2552 37.8948L18.3898 23.9798C18.2753 23.5686 18.5163 23.1426 18.928 23.0276C19.3393 22.9154 19.7652 23.1555 19.8798 23.5658L23.0197 34.8694L26.3055 23.6477C26.4256 23.2387 26.8561 23.0046 27.2641 23.1228C27.674 23.2429 27.9091 23.6725 27.789 24.0824L23.7419 37.9045C23.6458 38.2347 23.3436 38.4611 23.0004 38.4611Z" fill="#FDB021"/>
<path d="M5.21875 37.6884H40.7795V40.7805H5.21875V37.6884Z" fill="#C09E87"/>
<path d="M40.7808 41.5531C40.3539 41.5531 40.0076 41.2076 40.0076 40.7803V38.461H5.99333V40.7803C5.99333 41.2076 5.64741 41.5531 5.22007 41.5531C4.79319 41.5531 4.44727 41.2076 4.44727 40.7803V37.6882C4.44727 37.2608 4.79319 36.9149 5.22007 36.9149H40.7808C41.2077 36.9149 41.5536 37.2608 41.5536 37.6882V40.7803C41.5536 41.2076 41.2077 41.5531 40.7808 41.5531Z" fill="#7F5334"/>
</svg>
