<svg width="81" height="80" viewBox="0 0 81 80" fill="none" xmlns="http://www.w3.org/2000/svg">
<g clip-path="url(#clip0_772_386)">
<path d="M39.8172 0.0224609C19.4777 0.0224609 20.7477 8.84285 20.7477 8.84285L20.7703 17.9811H40.1799V20.7246H13.0611C13.0611 20.7246 0.0458984 19.2485 0.0458984 39.7709C0.0458984 60.2938 11.4059 59.566 11.4059 59.566H18.1855V50.0425C18.1855 50.0425 17.82 38.6825 29.3642 38.6825H48.615C48.615 38.6825 59.4307 38.8573 59.4307 28.2295V10.6571C59.4307 10.6571 61.0733 0.0224609 39.8172 0.0224609ZM29.1148 6.16772C29.5734 6.1673 30.0277 6.25734 30.4515 6.43267C30.8753 6.608 31.2604 6.86519 31.5847 7.18951C31.9091 7.51383 32.1662 7.89893 32.3416 8.32275C32.5169 8.74658 32.6069 9.20082 32.6065 9.65948C32.6069 10.1181 32.5169 10.5724 32.3416 10.9962C32.1662 11.42 31.9091 11.8051 31.5847 12.1295C31.2604 12.4538 30.8753 12.711 30.4515 12.8863C30.0277 13.0616 29.5734 13.1517 29.1148 13.1512C28.6561 13.1517 28.2019 13.0616 27.778 12.8863C27.3542 12.711 26.9691 12.4538 26.6448 12.1295C26.3205 11.8051 26.0633 11.42 25.8879 10.9962C25.7126 10.5724 25.6226 10.1181 25.623 9.65948C25.6226 9.20082 25.7126 8.74658 25.8879 8.32275C26.0633 7.89893 26.3205 7.51383 26.6448 7.18951C26.9691 6.86519 27.3542 6.608 27.778 6.43267C28.2019 6.25734 28.6561 6.1673 29.1148 6.16772Z" fill="url(#paint0_linear_772_386)"/>
<path d="M40.3942 79.7259C60.7337 79.7259 59.4637 70.9055 59.4637 70.9055L59.4411 61.7676H40.0312V59.0241H67.15C67.15 59.0241 80.1652 60.5002 80.1652 39.9772C80.1652 19.4545 68.8052 20.1824 68.8052 20.1824H62.0256V29.7055C62.0256 29.7055 62.3911 41.0655 50.8469 41.0655H31.5961C31.5961 41.0655 20.7804 40.8908 20.7804 51.5189V69.0916C20.7804 69.0916 19.138 79.7259 40.3939 79.7259H40.3942ZM51.0966 73.5813C50.638 73.5817 50.1837 73.4917 49.7599 73.3163C49.3361 73.141 48.951 72.8838 48.6267 72.5595C48.3023 72.2352 48.0452 71.8501 47.8698 71.4263C47.6945 71.0024 47.6045 70.5482 47.6049 70.0895C47.6044 69.6308 47.6944 69.1766 47.8697 68.7527C48.045 68.3288 48.3022 67.9437 48.6266 67.6194C48.9509 67.295 49.336 67.0378 49.7598 66.8624C50.1837 66.6871 50.6379 66.597 51.0966 66.5975C51.5553 66.597 52.0095 66.6871 52.4334 66.8624C52.8572 67.0377 53.2423 67.2949 53.5666 67.6192C53.8909 67.9436 54.1481 68.3287 54.3234 68.7525C54.4988 69.1763 54.5888 69.6306 54.5884 70.0892C54.5888 70.5479 54.4988 71.0021 54.3234 71.4259C54.1481 71.8498 53.8909 72.2349 53.5666 72.5592C53.2423 72.8835 52.8572 73.1407 52.4334 73.316C52.0095 73.4914 51.5553 73.5817 51.0966 73.5813Z" fill="url(#paint1_linear_772_386)"/>
</g>
<defs>
<linearGradient id="paint0_linear_772_386" x1="769.995" y1="716.905" x2="4740.49" y2="4647.79" gradientUnits="userSpaceOnUse">
<stop stop-color="#387EB8"/>
<stop offset="1" stop-color="#366994"/>
</linearGradient>
<linearGradient id="paint1_linear_772_386" x1="1157.23" y1="1245.59" x2="5421.08" y2="5276.35" gradientUnits="userSpaceOnUse">
<stop stop-color="#FFE052"/>
<stop offset="1" stop-color="#FFC331"/>
</linearGradient>
<clipPath id="clip0_772_386">
<rect width="80.3213" height="80" fill="white"/>
</clipPath>
</defs>
</svg>
