<svg width="160" height="80" viewBox="0 0 160 80" fill="none" xmlns="http://www.w3.org/2000/svg">
<path d="M37.9691 28.968L34.0864 32.8568C40.5583 39.3267 40.5583 49.8759 34.0864 56.3458C27.6084 62.8257 17.0673 62.8257 10.5873 56.3458C4.11952 49.8779 4.11952 39.3267 10.5873 32.8568L20.948 22.4962L22.2456 21.0161V13.2466L6.51808 28.968C4.45288 31.0142 2.81354 33.4492 1.69478 36.1325C0.576017 38.8158 0 41.6941 0 44.6013C0 47.5085 0.576017 50.3868 1.69478 53.0701C2.81354 55.7534 4.45288 58.1884 6.51808 60.2346C8.56423 62.3001 10.9994 63.9397 13.6829 65.0586C16.3663 66.1776 19.2449 66.7537 22.1524 66.7537C25.0598 66.7537 27.9384 66.1776 30.6219 65.0586C33.3053 63.9397 35.7405 62.3001 37.7866 60.2346C46.6652 51.5385 46.6652 37.4816 37.9691 28.968Z" fill="#EE4C2C"/>
<path d="M33.1597 24.8948C33.1395 25.6667 32.8187 26.4003 32.2655 26.9391C31.7124 27.478 30.9707 27.7795 30.1985 27.7795C29.4263 27.7795 28.6846 27.478 28.1315 26.9391C27.5784 26.4003 27.2575 25.6667 27.2373 24.8948C27.2373 24.1094 27.5493 23.3562 28.1046 22.8009C28.66 22.2456 29.4132 21.9336 30.1985 21.9336C30.9839 21.9336 31.7371 22.2456 32.2924 22.8009C32.8477 23.3562 33.1597 24.1094 33.1597 24.8948Z" fill="#EE4C2C"/>
<path d="M61.7683 43.0814H58.727V50.9056H56.4541V28.6981H62.0055C67.8894 28.6981 70.6691 31.5569 70.6691 35.6991C70.6691 40.5774 67.2162 43.0185 61.752 43.0956L61.7683 43.0814ZM61.9183 30.8047H58.6479V40.9829L61.8473 40.8937C66.0524 40.8146 68.3253 39.1297 68.3253 35.6829C68.3253 32.5707 66.1396 30.8047 61.9345 30.8047H61.9183ZM80.9426 50.8164L79.5963 54.3504C78.0838 58.304 76.555 59.482 74.2964 59.482C73.0393 59.482 72.1107 59.1495 71.0969 58.7217L71.7701 56.7104C72.5304 57.1301 73.3718 57.3835 74.2964 57.3835C75.5575 57.3835 76.4841 56.7104 77.6621 53.5819L78.7569 50.7231L72.4513 34.6529H74.8032L79.9369 48.1157L84.9814 34.6529H87.2543L80.9426 50.8164ZM94.819 30.8919V50.9928H92.5461V30.8919H84.728V28.6981H102.635V30.8047H94.821L94.819 30.8919ZM109.034 51.4104C104.488 51.4104 101.123 48.0448 101.123 42.8279C101.123 37.6172 104.575 34.1623 109.186 34.1623C113.724 34.1623 117.01 37.528 117.01 42.7468C117.01 47.9576 113.557 51.4125 109.02 51.4125L109.034 51.4104ZM109.115 36.204C105.668 36.204 103.397 38.9776 103.397 42.763C103.397 46.7167 105.755 49.4093 109.2 49.4093C112.647 49.4093 114.918 46.6356 114.918 42.8502C114.918 38.8905 112.56 36.206 109.113 36.206L109.115 36.204ZM122.659 50.9928H120.469V34.6712L122.659 34.2494V37.7023C123.75 35.5957 125.35 34.2494 127.456 34.2494C128.454 34.2576 129.437 34.5191 130.315 35.0098L129.721 37.1083C129.056 36.6886 128.129 36.4351 127.203 36.4351C125.516 36.4351 123.924 37.7023 122.578 40.6402V50.9928H122.659ZM138.972 51.4125C134.094 51.4125 130.982 47.8805 130.982 42.8279C130.982 37.7023 134.348 34.1623 138.97 34.1623C140.992 34.1623 142.681 34.6691 144.104 35.5957L143.518 37.6151C142.172 36.722 140.588 36.2531 138.972 36.2689C135.441 36.2689 133.255 38.8742 133.255 42.7468C133.255 46.7005 135.615 49.3059 139.06 49.3059C140.672 49.2976 142.249 48.8306 143.605 47.9596L144.025 49.979C142.592 50.9056 140.826 51.4044 138.972 51.4044V51.4125ZM157.727 50.9928V40.474C157.727 37.6151 156.555 36.3723 154.28 36.3723C152.429 36.3723 150.584 37.2907 149.236 38.7242V51.0881H147.042V27.0335L149.236 26.6138V36.871C150.917 35.1922 153.102 34.2657 154.868 34.2657C158.068 34.2657 160 36.2851 160 39.817V51.0009L157.727 50.9928Z" fill="#252525"/>
</svg>
