<svg width="80" height="60" viewBox="0 0 80 60" fill="none" xmlns="http://www.w3.org/2000/svg">
<g clip-path="url(#clip0_772_526)">
<path d="M46.419 46.4229C29.8408 46.4229 15.7516 38.1194 15.7516 28.1724C15.7516 18.2255 28.1831 9.95086 44.7613 9.95086C65.6987 9.95086 75.4016 18.0051 75.4016 27.952C75.4016 37.899 64.7065 46.4229 46.419 46.4229ZM39.7878 0.00390625C18.2362 0.00390625 0 11.6086 0 26.529C0 40.6207 18.1258 52.3193 39.6778 52.3193C61.2294 52.3193 79.5756 41.4494 79.5756 26.529C79.5756 11.6086 61.3394 0.00390625 39.7878 0.00390625Z" fill="url(#paint0_linear_772_526)"/>
<path d="M32.9326 16.1143V59.9769H46.1879V42.9194C49.5018 42.9194 51.4756 42.1958 53.6437 46.1683C56.9576 51.8543 61.0999 59.9769 61.0999 59.9769H76.8403C76.8403 59.9769 66.899 43.7317 66.0706 42.9194C64.5428 41.2947 62.7567 41.2947 60.2715 40.4824C65.2422 39.6702 69.8762 37.6078 71.4873 33.1888C72.8957 29.1277 72.7301 23.9615 69.7112 20.4971C67.0967 17.7558 64.4138 16.1143 57.786 16.1143H32.9326ZM46.1879 25.2493H54.8865C56.9492 25.2493 58.6144 27.28 58.6144 29.3104C58.6144 31.3412 56.9576 33.3719 54.8865 33.3719H46.1879V25.2493Z" fill="#2165B6"/>
</g>
<defs>
<linearGradient id="paint0_linear_772_526" x1="3021.72" y1="889.313" x2="5468.11" y2="5043.08" gradientUnits="userSpaceOnUse">
<stop stop-color="#C9CBCE"/>
<stop offset="1" stop-color="#7B7A81"/>
</linearGradient>
<clipPath id="clip0_772_526">
<rect width="79.5756" height="60" fill="white"/>
</clipPath>
</defs>
</svg>
