<svg width="46" height="46" viewBox="0 0 46 46" fill="none" xmlns="http://www.w3.org/2000/svg">
<path d="M25.8736 33.0626V23.8425C25.8857 23.1128 25.6277 22.4044 25.1492 21.8534C24.6706 21.3024 24.0053 20.9477 23.2811 20.8575C22.8816 20.8181 22.4783 20.8627 22.0972 20.9886C21.716 21.1144 21.3654 21.3187 21.068 21.5883C20.7706 21.8578 20.5329 22.1866 20.3702 22.5536C20.2076 22.9205 20.1235 23.3175 20.1236 23.7189V26.1051L17.5792 23.5608C17.6656 24.1479 17.6044 24.7473 17.4012 25.3049C17.1979 25.8624 16.8589 26.3606 16.4149 26.7543C15.9709 27.1481 15.4357 27.425 14.8579 27.5601C14.28 27.6952 13.6776 27.6843 13.105 27.5283L11.1205 33.4824C10.9011 34.1399 10.9266 34.8547 11.1924 35.4949L14.3736 43.1251V44.5626H25.8736V42.4064L26.5391 41.0753C27.0062 40.141 27.2641 39.1162 27.2947 38.0721C27.3254 37.0281 27.1281 35.9899 26.7167 35.0299L25.8736 33.0626Z" fill="#FFBCAB"/>
<path d="M27.7519 23.5607L27.5938 23.7188H27.7375C27.7447 23.6663 27.7447 23.6131 27.7519 23.5607Z" fill="#57A4FF"/>
<path d="M28.7644 26.6081C28.3896 26.2329 28.103 25.7789 27.9253 25.2792C27.7477 24.7794 27.6834 24.2464 27.7373 23.7188H27.5935L25.875 25.4366V30.1875C25.875 31.1406 26.2536 32.0547 26.9276 32.7287C27.6015 33.4026 28.5156 33.7812 29.4688 33.7812H30.1875C30.5687 33.7812 30.9344 33.6298 31.204 33.3602C31.4736 33.0906 31.625 32.725 31.625 32.3438V27.6287C31.1025 27.6794 30.5752 27.6142 30.0807 27.4378C29.5863 27.2614 29.1368 26.9781 28.7644 26.6081Z" fill="#E5A99A"/>
<path d="M30.798 20.5131L35.8796 15.4244L31.3084 10.8531C31.1969 11.6236 30.8388 12.3373 30.2877 12.8872C29.6092 13.5522 28.697 13.9248 27.747 13.9248C26.7969 13.9248 25.8847 13.5522 25.2062 12.8872C24.7348 12.4146 24.4042 11.8203 24.2513 11.1707C24.0984 10.521 24.1292 9.8416 24.3402 9.20843C24.5513 8.57526 24.9343 8.01328 25.4464 7.5853C25.9586 7.15733 26.5796 6.88023 27.2402 6.785L22.669 2.21375L17.5802 7.29531C17.6873 6.54853 17.5566 5.78701 17.2067 5.11865C16.8568 4.45028 16.3054 3.90898 15.6308 3.57144C14.9561 3.2339 14.1923 3.11725 13.4476 3.238C12.7029 3.35876 12.0151 3.7108 11.4817 4.24425C10.9482 4.7777 10.5962 5.46549 10.4754 6.21017C10.3547 6.95485 10.4713 7.71865 10.8089 8.39334C11.1464 9.06802 11.6877 9.61938 12.3561 9.96927C13.0244 10.3192 13.786 10.4498 14.5327 10.3428L9.45117 15.4244L14.5327 20.5131C13.786 20.4061 13.0244 20.5368 12.3561 20.8867C11.6877 21.2366 11.1464 21.7879 10.8089 22.4626C10.4713 23.1373 10.3547 23.9011 10.4754 24.6458C10.5962 25.3904 10.9482 26.0782 11.4817 26.6117C12.0151 27.1451 12.7029 27.4972 13.4476 27.6179C14.1923 27.7387 14.9561 27.622 15.6308 27.2845C16.3054 26.9469 16.8568 26.4056 17.2067 25.7373C17.5566 25.0689 17.6873 24.3074 17.5802 23.5606L20.1246 26.105V23.7187C20.1246 22.9562 20.4275 22.225 20.9667 21.6858C21.5058 21.1466 22.2371 20.8437 22.9996 20.8437C23.7621 20.8437 24.4934 21.1466 25.0325 21.6858C25.5717 22.225 25.8746 22.9562 25.8746 23.7187V25.4366L27.7505 23.5606C27.6435 24.3074 27.7742 25.0689 28.1241 25.7373C28.474 26.4056 29.0253 26.9469 29.7 27.2845C30.3747 27.622 31.1385 27.7387 31.8832 27.6179C32.6279 27.4972 33.3157 27.1451 33.8491 26.6117C34.3826 26.0782 34.7346 25.3904 34.8554 24.6458C34.9761 23.9011 34.8595 23.1373 34.5219 22.4626C34.1844 21.7879 33.6431 21.2366 32.9747 20.8867C32.3063 20.5368 31.5448 20.4061 30.798 20.5131Z" fill="#FFCD00"/>
<path d="M30.798 20.5132L35.8796 15.4244L31.3084 10.8531C31.1969 11.6237 30.8388 12.3373 30.2877 12.8872C29.8245 13.3466 29.2439 13.6698 28.6095 13.8216C27.8756 16.6257 26.6517 19.278 24.9941 21.656C25.2724 21.9227 25.4938 22.2429 25.6451 22.5974C25.7964 22.9519 25.8745 23.3333 25.8746 23.7188V25.4366L27.7505 23.5606C27.6435 24.3074 27.7742 25.0689 28.1241 25.7373C28.474 26.4057 29.0253 26.947 29.7 27.2845C30.3747 27.6221 31.1385 27.7387 31.8832 27.618C32.6279 27.4972 33.3157 27.1452 33.8491 26.6117C34.3826 26.0783 34.7346 25.3905 34.8554 24.6458C34.9761 23.9011 34.8595 23.1373 34.5219 22.4626C34.1844 21.7879 33.6431 21.2366 32.9747 20.8867C32.3063 20.5368 31.5448 20.4061 30.798 20.5132Z" fill="#E5B800"/>
<path d="M43.8438 16.5311H39.5312C39.3406 16.5311 39.1578 16.4554 39.023 16.3206C38.8882 16.1858 38.8125 16.003 38.8125 15.8124C38.8125 15.6218 38.8882 15.4389 39.023 15.3041C39.1578 15.1694 39.3406 15.0936 39.5312 15.0936H43.8438C44.0344 15.0936 44.2172 15.1694 44.352 15.3041C44.4868 15.4389 44.5625 15.6218 44.5625 15.8124C44.5625 16.003 44.4868 16.1858 44.352 16.3206C44.2172 16.4554 44.0344 16.5311 43.8438 16.5311Z" fill="#FF5023"/>
<path d="M38.7539 8.26556C38.5957 8.26556 38.4419 8.21334 38.3163 8.11703C38.1908 8.02071 38.1006 7.88567 38.0596 7.73284C38.0187 7.58002 38.0293 7.41795 38.0899 7.27178C38.1504 7.1256 38.2575 7.00349 38.3945 6.92437L42.132 4.76812C42.297 4.67432 42.4924 4.64958 42.6756 4.69931C42.8587 4.74903 43.0148 4.86919 43.1097 5.03356C43.2046 5.19793 43.2306 5.39317 43.1821 5.57666C43.1336 5.76015 43.0145 5.91701 42.8507 6.013L39.1132 8.16925C39.0041 8.23259 38.8801 8.26583 38.7539 8.26556Z" fill="#FF5023"/>
<path d="M42.4877 26.9531C42.3615 26.9533 42.2375 26.9201 42.1283 26.8568L38.3908 24.7005C38.3084 24.6537 38.2361 24.591 38.178 24.5161C38.12 24.4411 38.0773 24.3555 38.0525 24.264C38.0276 24.1725 38.0211 24.077 38.0333 23.983C38.0456 23.889 38.0762 23.7984 38.1236 23.7163C38.171 23.6342 38.2342 23.5623 38.3095 23.5047C38.3848 23.4472 38.4707 23.405 38.5624 23.3808C38.654 23.3566 38.7495 23.3507 38.8435 23.3636C38.9374 23.3764 39.0278 23.4077 39.1096 23.4556L42.8471 25.6119C42.9841 25.691 43.0912 25.8131 43.1517 25.9593C43.2123 26.1055 43.2229 26.2675 43.1819 26.4203C43.141 26.5732 43.0508 26.7082 42.9252 26.8045C42.7997 26.9009 42.6459 26.9531 42.4877 26.9531Z" fill="#FF5023"/>
<path d="M6.46875 16.5311H2.15625C1.96563 16.5311 1.78281 16.4554 1.64802 16.3206C1.51323 16.1858 1.4375 16.003 1.4375 15.8124C1.4375 15.6218 1.51323 15.4389 1.64802 15.3041C1.78281 15.1694 1.96563 15.0936 2.15625 15.0936H6.46875C6.65937 15.0936 6.84219 15.1694 6.97698 15.3041C7.11177 15.4389 7.1875 15.6218 7.1875 15.8124C7.1875 16.003 7.11177 16.1858 6.97698 16.3206C6.84219 16.4554 6.65937 16.5311 6.46875 16.5311Z" fill="#FF5023"/>
<path d="M7.24509 8.26556C7.11889 8.26583 6.99487 8.23259 6.88572 8.16925L3.14822 6.013C2.98448 5.91701 2.86536 5.76015 2.81685 5.57666C2.76833 5.39317 2.79437 5.19793 2.88927 5.03356C2.98417 4.86919 3.14023 4.74903 3.3234 4.69931C3.50657 4.64958 3.70197 4.67432 3.86697 4.76812L7.60447 6.92437C7.74148 7.00349 7.84856 7.1256 7.90911 7.27178C7.96965 7.41795 7.98027 7.58002 7.93932 7.73284C7.89837 7.88567 7.80814 8.02071 7.68262 8.11703C7.5571 8.21334 7.40331 8.26556 7.24509 8.26556Z" fill="#FF5023"/>
<path d="M3.51193 26.9531C3.35372 26.9531 3.19992 26.9009 3.0744 26.8045C2.94889 26.7082 2.85865 26.5732 2.8177 26.4203C2.77675 26.2675 2.78737 26.1055 2.84792 25.9593C2.90846 25.8131 3.01554 25.691 3.15256 25.6119L6.89006 23.4556C6.97183 23.4077 7.06228 23.3764 7.15619 23.3636C7.25011 23.3507 7.34563 23.3566 7.43727 23.3808C7.52891 23.405 7.61486 23.4472 7.69015 23.5047C7.76545 23.5623 7.82862 23.6342 7.87601 23.7163C7.92341 23.7984 7.9541 23.889 7.96631 23.983C7.97853 24.077 7.97204 24.1725 7.9472 24.264C7.92237 24.3555 7.87968 24.4411 7.82161 24.5161C7.76353 24.591 7.69121 24.6537 7.60881 24.7005L3.87131 26.8568C3.76215 26.9201 3.63814 26.9533 3.51193 26.9531Z" fill="#FF5023"/>
</svg>
