<svg width="82" height="80" viewBox="0 0 82 80" fill="none" xmlns="http://www.w3.org/2000/svg">
<g clip-path="url(#clip0_772_473)">
<path d="M38.3165 54.0496H42.7531V41.9496H53.912V37.6474H42.7531V25.5474H38.3165V37.6474H27.292V41.9496H38.3165V54.0496Z" fill="#E8762D"/>
<path d="M17.7468 71.5272H21.5112V60.7716H31.4601V57.4105H21.5112V46.5205H17.7468V57.4105H7.79785V60.7716H17.7468V71.5272Z" fill="#C72037"/>
<path d="M59.5593 32.6726H63.3237V21.917H73.4071V18.6903H63.3237V7.80029H59.5593V18.6903H49.6104V21.917H59.5593V32.6726Z" fill="#5B879B"/>
<path d="M38.9888 79.9972H42.2155V72.3338H49.0722V69.5105H42.2155V61.8472H38.9888V69.5105H32.2666V72.3338H38.9888V79.9972Z" fill="#5C6692"/>
<path d="M17.8812 32.6726H21.3768V21.7825H31.4601V18.6903H21.3768V7.80029H17.8812V18.6903H7.79785V21.7825H17.8812V32.6726Z" fill="#EB9129"/>
<path d="M70.9869 48.8061H74.2136V41.2772H81.0702V38.3194H74.2136V30.7905H70.9869V38.3194H64.2646V41.2772H70.9869V48.8061Z" fill="#5C6692"/>
<path fill-rule="evenodd" clip-rule="evenodd" d="M59.5593 71.5272H63.3237V60.7716H73.4071V57.4105H63.3237V46.5205H59.5593V57.4105H49.6104V60.7716H59.5593V71.5272Z" fill="#1F457E"/>
<path d="M48.5345 9.68294V7.39739H41.8123V0.00292969H39.3923V7.39739H32.6701V9.68294H39.3923V17.0774H41.8123V9.68294H48.5345ZM6.72223 48.2686H9.14224V40.8741H15.8645V38.5885H9.14224V31.3285H6.72223V38.5885H0V41.0085L6.72223 40.8741V48.2686Z" fill="#7199A6"/>
</g>
<defs>
<clipPath id="clip0_772_473">
<rect width="81.0701" height="80" fill="white"/>
</clipPath>
</defs>
</svg>
