<svg width="75" height="80" viewBox="0 0 75 80" fill="none" xmlns="http://www.w3.org/2000/svg">
<g clip-path="url(#clip0_772_408)">
<path d="M42.6336 12.3071V24.6143L63.952 36.9215V24.6143L42.6336 12.3071ZM0 24.6143V36.9215L10.6592 43.0751V30.7679L0 24.6143ZM31.9744 30.7679L21.3152 36.9215V73.8431L31.9744 79.9999V55.3855L42.6336 61.5391V49.2319L31.9744 43.0783V30.7679Z" fill="#E55B2D"/>
<path d="M42.6336 12.3071L10.6592 30.7679V43.0751L31.9776 30.7679V43.0751L42.6368 36.9215V12.3071H42.6336ZM74.608 18.4607L63.9488 24.6143V36.9215L74.608 30.7679V18.4607ZM53.2928 43.0783L42.6336 49.2319V61.5391L53.2928 55.3855V43.0783ZM42.6336 61.5391L31.9744 55.3855V79.9999L42.6336 73.8463V61.5391Z" fill="#ED8E24"/>
<path d="M42.6336 0L0 24.6144L10.6592 30.768L42.6336 12.3072L63.952 24.6144L74.6112 18.4608L42.6336 0ZM42.6336 36.9216L31.9744 43.0752L42.6336 49.2288L53.2928 43.0752L42.6336 36.9216Z" fill="#F8BF3C"/>
</g>
<defs>
<clipPath id="clip0_772_408">
<rect width="74.608" height="80" fill="white"/>
</clipPath>
</defs>
</svg>
