<svg width="34" height="35" viewBox="0 0 34 35" fill="none" xmlns="http://www.w3.org/2000/svg">
<rect opacity="0.15" x="0.0722656" y="0.528809" width="33.9083" height="33.9083" rx="6.74708" fill="#5800FF"/>
<path d="M12.8877 15.0204H13.8506L13.3709 13.7495L12.8877 15.0204Z" fill="#8B40E5"/>
<path d="M21.9738 9.00586H12.0839C10.1341 9.00821 8.55411 10.5882 8.55176 12.538V22.4279C8.55411 24.3777 10.1341 25.9577 12.0839 25.96H19.5119C19.627 25.96 19.7408 25.9509 19.8545 25.9431V22.4279C19.8545 21.2575 20.8034 20.3086 21.9738 20.3086H25.489C25.4968 20.1949 25.5059 20.0812 25.5059 19.966V12.538C25.5036 10.5882 23.9235 9.00821 21.9738 9.00586ZM14.9901 16.7878C14.7619 16.8732 14.5076 16.7579 14.4214 16.53L14.1848 15.9034H12.5522L12.3128 16.5314C12.2468 16.7017 12.0829 16.814 11.9002 16.8139C11.8466 16.8136 11.7935 16.8038 11.7434 16.7849C11.5154 16.6984 11.4008 16.4433 11.4874 16.2154C11.4875 16.2152 11.4876 16.2151 11.4876 16.2149L12.8828 12.5528C12.9616 12.3501 13.1564 12.2164 13.3738 12.2158C13.5871 12.2165 13.7788 12.346 13.8591 12.5436L15.2465 16.217C15.3334 16.4452 15.2188 16.7007 14.9906 16.7876C14.9904 16.7877 14.9903 16.7878 14.9901 16.7878ZM16.9278 16.3746C16.9278 16.6184 16.7301 16.8161 16.4863 16.8161C16.2425 16.8161 16.0448 16.6184 16.0448 16.3746V12.6574C16.0448 12.4135 16.2425 12.2159 16.4863 12.2159C16.7301 12.2159 16.9278 12.4135 16.9278 12.6574V16.3746Z" fill="#8B40E5"/>
<path d="M21.2676 22.4281V25.6353C21.921 25.3885 22.5146 25.0056 23.0089 24.5121L24.0573 23.463C24.5514 22.9691 24.9346 22.3754 25.1812 21.7217H21.974C21.5838 21.7217 21.2676 22.038 21.2676 22.4281Z" fill="#8B40E5"/>
</svg>
