<svg width="89" height="89" viewBox="0 0 89 89" fill="none" xmlns="http://www.w3.org/2000/svg">
<rect opacity="0.1" width="88.3424" height="88.3424" rx="16.7739" fill="#161C2D"/>
<path d="M54.2578 51.4754L53.5542 52.1955C53.0796 50.0044 51.8695 48.0416 50.125 46.6335C48.3805 45.2254 46.2066 44.4567 43.9647 44.4552C41.8389 44.4468 39.7691 45.1367 38.0735 46.4189C37.9016 46.5478 37.7568 46.7094 37.6473 46.8943C37.5378 47.0792 37.4658 47.2838 37.4354 47.4966C37.374 47.9262 37.4858 48.3627 37.7462 48.7099C38.0066 49.0571 38.3943 49.2866 38.824 49.348C39.2536 49.4094 39.69 49.2976 40.0372 49.0372C40.7996 48.4713 41.6758 48.078 42.6053 47.8847C43.5348 47.6913 44.4952 47.7024 45.42 47.9172C46.3447 48.1321 47.2117 48.5455 47.9607 49.1288C48.7097 49.7122 49.3229 50.4515 49.7576 51.2954C49.421 51.0987 49.0252 51.0285 48.6414 51.0977C48.2577 51.1669 47.9112 51.3709 47.6645 51.6729C47.4178 51.9748 47.2871 52.355 47.2958 52.7448C47.3045 53.1346 47.4521 53.5085 47.7121 53.7992L50.985 57.072C51.1371 57.2254 51.3181 57.3472 51.5175 57.4302C51.7169 57.5133 51.9308 57.5561 52.1468 57.5561C52.3629 57.5561 52.5767 57.5133 52.7762 57.4302C52.9756 57.3472 53.1566 57.2254 53.3087 57.072L56.5816 53.7992C56.8897 53.491 57.0628 53.0731 57.0628 52.6373C57.0628 52.2015 56.8897 51.7836 56.5816 51.4754C56.2734 51.1673 55.8555 50.9942 55.4197 50.9942C54.9839 50.9942 54.566 51.1673 54.2578 51.4754Z" fill="#767676"/>
<path d="M47.8928 59.5101C47.1304 60.076 46.2542 60.4693 45.3247 60.6626C44.3952 60.856 43.4348 60.8449 42.5101 60.6301C41.5853 60.4152 40.7184 60.0018 39.9693 59.4185C39.2203 58.8351 38.6071 58.0958 38.1724 57.2519C38.4322 57.4336 38.7392 57.5359 39.056 57.5464C39.2714 57.5477 39.4849 57.5064 39.6843 57.425C39.8837 57.3435 40.065 57.2235 40.2179 57.0719C40.3713 56.9197 40.493 56.7387 40.5761 56.5393C40.6592 56.3399 40.702 56.126 40.702 55.91C40.702 55.694 40.6592 55.4801 40.5761 55.2807C40.493 55.0812 40.3713 54.9003 40.2179 54.7481L36.945 51.4753C36.7929 51.3219 36.6119 51.2001 36.4125 51.1171C36.2131 51.034 35.9992 50.9912 35.7832 50.9912C35.5671 50.9912 35.3533 51.034 35.1538 51.1171C34.9544 51.2001 34.7734 51.3219 34.6213 51.4753L31.3484 54.7481C31.1959 54.9007 31.0748 55.0818 30.9923 55.2812C30.9097 55.4805 30.8672 55.6942 30.8672 55.91C30.8672 56.1258 30.9097 56.3394 30.9923 56.5388C31.0748 56.7381 31.1959 56.9193 31.3484 57.0719C31.6566 57.38 32.0745 57.5531 32.5103 57.5531C32.7261 57.5531 32.9398 57.5106 33.1391 57.428C33.3385 57.3455 33.5196 57.2244 33.6722 57.0719L34.3758 56.3518C34.8504 58.5429 36.0605 60.5057 37.805 61.9138C39.5495 63.3219 41.7234 64.0906 43.9653 64.0921C46.0911 64.1005 48.1609 63.4106 49.8565 62.1284C50.2037 61.868 50.4332 61.4804 50.4946 61.0507C50.556 60.6211 50.4442 60.1846 50.1838 59.8374C49.9234 59.4902 49.5357 59.2607 49.1061 59.1993C48.6764 59.1379 48.24 59.2497 47.8928 59.5101Z" fill="#767676"/>
<path d="M57.8579 37.9097C57.8579 34.2206 56.3924 30.6826 53.7839 28.074C51.1753 25.4655 47.6373 24 43.9483 24C40.2592 24 36.7212 25.4655 34.1126 28.074C31.5041 30.6826 30.0386 34.2206 30.0386 37.9097C27.7783 38.0898 25.6501 39.0466 24.0152 40.6178C22.3804 42.1889 21.3396 44.2774 21.0698 46.5287C20.8 48.78 21.3176 51.0553 22.5349 52.9683C23.7521 54.8813 25.5939 56.314 27.7476 57.0232C27.5567 56.2125 27.5752 55.3665 27.8014 54.565C28.0275 53.7634 28.4539 53.0325 29.0404 52.4412L31.0041 50.4775L32.1496 49.3319L32.3132 49.1683C32.8315 48.6551 33.4576 48.2637 34.146 48.0228C34.1091 47.2169 34.2668 46.4141 34.6058 45.682C34.9447 44.95 35.455 44.3103 36.0934 43.8172C38.3556 42.0965 41.1224 41.1704 43.9646 41.1825C46.2604 41.1849 48.5151 41.7909 50.5027 42.9398C52.4903 44.0887 54.1409 45.7401 55.2887 47.7282C55.9551 47.7113 56.618 47.8302 57.237 48.0778C57.856 48.3254 58.418 48.6964 58.8889 49.1683C59.8082 50.0888 60.3246 51.3366 60.3246 52.6375C60.3246 53.9385 59.8082 55.1863 58.8889 56.1068L57.4815 57.5305C58.7709 57.5552 60.0526 57.3257 61.2533 56.8551C62.454 56.3845 63.5502 55.682 64.4795 54.7877C65.4087 53.8935 66.1526 52.8249 66.6689 51.6432C67.1852 50.4614 67.4636 49.1895 67.4883 47.9001C67.513 46.6107 67.2835 45.329 66.8129 44.1283C66.3423 42.9276 65.6399 41.8314 64.7456 40.9022C63.8513 39.9729 62.7828 39.229 61.601 38.7127C60.4192 38.1964 59.1473 37.918 57.8579 37.8933V37.9097Z" fill="#767676"/>
</svg>
