<svg width="89" height="89" viewBox="0 0 89 89" fill="none" xmlns="http://www.w3.org/2000/svg">
<path d="M41.4173 44.1143L28.6761 37.1899C28.1094 36.8821 27.4401 36.8948 26.8855 37.2244C26.3309 37.554 26 38.136 26 38.7812V54.8443C26 55.4942 26.351 56.0975 26.916 56.4188L39.6575 63.6623C39.9383 63.8219 40.2455 63.9017 40.5527 63.9017C40.8658 63.9017 41.1788 63.8188 41.4634 63.6531C42.0271 63.3252 42.3636 62.74 42.3636 62.0877V45.7057C42.3636 45.0414 42.0011 44.4316 41.4173 44.1143Z" fill="#68D585"/>
<path d="M59.2908 33.0118C59.29 32.3336 58.9153 31.7184 58.3133 31.4064L44.4194 24.2033C43.8933 23.9304 43.2663 23.9324 42.7422 24.2083L29.0526 31.4114C28.4566 31.7252 28.0858 32.3385 28.085 33.0121C28.0842 33.6856 28.4535 34.2997 29.0487 34.6148L42.7383 41.8629C43.0034 42.0032 43.2944 42.0733 43.5855 42.0733C43.8731 42.0733 44.1608 42.0049 44.4232 41.8679L58.3174 34.62C58.9188 34.3063 59.2918 33.69 59.2908 33.0118Z" fill="#68D585"/>
<path d="M60.7174 37.2246C60.1631 36.8949 59.4936 36.8819 58.927 37.19L46.1854 44.1145C45.6018 44.4317 45.2393 45.0414 45.2393 45.7057V62.0878C45.2393 62.74 45.5758 63.3252 46.1395 63.6532C46.4241 63.8189 46.737 63.9016 47.0502 63.9016C47.3573 63.9016 47.6646 63.8219 47.9454 63.6623L60.687 56.4188C61.252 56.0976 61.6029 55.4943 61.6029 54.8443V38.7813C61.6029 38.1361 61.272 37.5542 60.7174 37.2246Z" fill="#68D585"/>
<rect opacity="0.1" width="88.3424" height="88.3424" rx="16.7739" fill="#68D585"/>
</svg>
