<svg width="89" height="89" viewBox="0 0 89 89" fill="none" xmlns="http://www.w3.org/2000/svg">
<path fill-rule="evenodd" clip-rule="evenodd" d="M64.6667 32.9845C64.6667 30.6012 63.7209 28.3163 62.0356 26.631C60.3503 24.9457 58.0654 24 55.6822 24H32.9845C30.6012 24 28.3163 24.9457 26.631 26.631C24.9457 28.3163 24 30.6012 24 32.9845V55.6822C24 58.0654 24.9457 60.3503 26.631 62.0356C28.3163 63.7209 30.6012 64.6667 32.9845 64.6667H55.6822C58.0654 64.6667 60.3503 63.7209 62.0356 62.0356C63.7209 60.3503 64.6667 58.0654 64.6667 55.6822V32.9845ZM45.2564 37.0758L40.7168 50.6944C40.471 51.4377 40.8719 52.2416 41.6153 52.4894C42.3586 52.7353 43.1625 52.3343 43.4103 51.5909L47.9498 37.9723C48.1957 37.229 47.7947 36.4251 47.0514 36.1773C46.308 35.9314 45.5042 36.3324 45.2564 37.0758ZM50.1402 40.7963L53.6753 44.3333L50.1402 47.8704C49.586 48.4227 49.586 49.3231 50.1402 49.8754C50.6925 50.4296 51.5928 50.4296 52.1451 49.8754L56.6847 45.3358C57.2389 44.7816 57.2389 43.8851 56.6847 43.3309L52.1451 38.7913C51.5928 38.2371 50.6925 38.2371 50.1402 38.7913C49.586 39.3436 49.586 40.244 50.1402 40.7963ZM36.5216 38.7913L31.982 43.3309C31.4278 43.8851 31.4278 44.7816 31.982 45.3358L36.5216 49.8754C37.0739 50.4296 37.9742 50.4296 38.5265 49.8754C39.0807 49.3231 39.0807 48.4227 38.5265 47.8704L34.9914 44.3333L38.5265 40.7963C39.0807 40.244 39.0807 39.3436 38.5265 38.7913C37.9742 38.2371 37.0739 38.2371 36.5216 38.7913Z" fill="#F64B4B"/>
<rect opacity="0.1" width="88.3424" height="88.3424" rx="16.7739" fill="#F64B4B"/>
</svg>
