<svg width="89" height="89" viewBox="0 0 89 89" fill="none" xmlns="http://www.w3.org/2000/svg">
<rect opacity="0.1" width="88.3424" height="88.3424" rx="16.7739" fill="#473BF0"/>
<path d="M44 47C45.6568 47 47 45.6568 47 44C47 42.3431 45.6568 41 44 41C42.3431 41 41 42.3431 41 44C41 45.6568 42.3431 47 44 47Z" fill="#9A93F7"/>
<path d="M44 24C40.0444 24 36.1776 25.173 32.8886 27.3706C29.5996 29.5682 27.0362 32.6918 25.5224 36.3463C24.0087 40.0009 23.6126 44.0222 24.3843 47.9018C25.156 51.7814 27.0608 55.3451 29.8579 58.1421C32.6549 60.9392 36.2186 62.844 40.0982 63.6157C43.9778 64.3874 47.9991 63.9913 51.6537 62.4776C55.3082 60.9638 58.4318 58.4004 60.6294 55.1114C62.827 51.8224 64 47.9556 64 44C64 38.6957 61.8929 33.6086 58.1421 29.8579C54.3914 26.1071 49.3043 24 44 24ZM52.4557 37.4194L48.17 47.4194C48.026 47.7568 47.7574 48.0256 47.4201 48.1699L37.4201 52.4554C37.1578 52.5679 36.8678 52.5992 36.5874 52.5452C36.3071 52.4913 36.0494 52.3546 35.8475 52.1528C35.6457 51.951 35.5089 51.6934 35.4549 51.4131C35.4008 51.1328 35.432 50.8428 35.5444 50.5804L39.8301 40.5806C39.9741 40.2432 40.2427 39.9744 40.58 39.8301L50.58 35.5444C50.8423 35.4318 51.1324 35.4005 51.4127 35.4544C51.6931 35.5083 51.9508 35.645 52.1527 35.8468C52.3546 36.0486 52.4914 36.3063 52.5454 36.5866C52.5994 36.8669 52.5682 37.157 52.4557 37.4194Z" fill="#9A93F7"/>
</svg>
