<svg width="89" height="89" viewBox="0 0 89 89" fill="none" xmlns="http://www.w3.org/2000/svg">
<rect opacity="0.1" width="88.3424" height="88.3424" rx="16.7739" fill="#3A9AF4"/>
<path d="M50.9545 23H36.0455C27.51 23 23 27.51 23 36.0455V60.2727C23 61.2613 23.3927 62.2093 24.0917 62.9083C24.7907 63.6073 25.7387 64 26.7273 64H50.9545C59.49 64 64 59.49 64 50.9545V36.0455C64 27.51 59.49 23 50.9545 23ZM40.4064 53.9364L37.0705 54.8123C36.7367 54.9061 36.3921 54.9562 36.0455 54.9614C35.6465 54.9675 35.2502 54.8949 34.8793 54.7478C34.5083 54.6007 34.17 54.382 33.8836 54.1041C33.4975 53.6887 33.2285 53.1783 33.1041 52.625C32.9797 52.0717 33.0043 51.4952 33.1755 50.9545L34.0514 47.6186C34.3077 46.7275 34.7816 45.9142 35.4305 45.2518L42.5868 38.0955C43.9342 41.4088 46.4278 44.1273 49.6127 45.755L42.7732 52.5945C42.1068 53.2299 41.2938 53.6908 40.4064 53.9364ZM52.4455 42.9036C50.8205 42.2881 49.3614 41.3023 48.1839 40.0245C47.0063 38.7467 46.1428 37.212 45.6618 35.5423C45.6182 35.4211 45.5553 35.3078 45.4755 35.2068C49.0723 31.8895 51.8118 33.5482 53.135 34.8714C54.4582 36.1945 56.2286 39.1205 52.4455 42.9036Z" fill="#71CAFD"/>
</svg>
