<svg width="25" height="25" viewBox="0 0 25 25" fill="none" xmlns="http://www.w3.org/2000/svg">
<rect opacity="0.1" width="25" height="25" rx="7.10499" fill="#68D585"/>
<path opacity="0.5" d="M17.7757 12.3418C17.3001 14.4801 15.0016 16.1072 12.2441 16.1072C11.8532 16.1072 11.463 16.072 11.0781 16.0052C12.0236 16.8238 13.4874 17.2367 15.0001 17.013L17.0248 18.0127C17.0593 18.0296 17.0967 18.038 17.1341 18.038C17.1789 18.038 17.2234 18.0259 17.2627 18.002C17.3346 17.9581 17.3786 17.8804 17.3786 17.7967V15.9554C18.0102 15.3897 18.3566 14.6763 18.3566 13.9352C18.3566 13.3685 18.152 12.8211 17.7757 12.3418Z" fill="#68D585"/>
<path d="M12.1864 7.27832C9.30707 7.27832 6.96484 9.12004 6.96484 11.3839C6.96484 12.2541 7.30822 13.0836 7.95942 13.7893V16.214C7.95942 16.2978 8.00417 16.3754 8.07728 16.4196C8.11731 16.4435 8.16256 16.4555 8.20806 16.4555C8.24611 16.4555 8.28415 16.4471 8.31921 16.4302L10.6391 15.3036C11.145 15.427 11.665 15.4895 12.1864 15.4895C15.0657 15.4895 17.4079 13.6478 17.4079 11.3839C17.4079 9.12004 15.0657 7.27832 12.1864 7.27832Z" fill="#68D585"/>
</svg>
