<svg width="65" height="52" viewBox="0 0 65 52" fill="none" xmlns="http://www.w3.org/2000/svg">
<path d="M22.0911 51.5291C17.5004 51.5291 13.5723 50.4643 10.3068 48.3346C7.04122 46.1575 4.50924 43.1523 2.71083 39.3188C0.959742 35.4381 0.0841985 30.942 0.0841985 25.8307C0.0841985 20.7668 0.959742 16.2944 2.71083 12.4136C4.50924 8.53285 7.04122 5.5276 10.3068 3.39791C13.5723 1.22088 17.5004 0.132367 22.0911 0.132367C26.6818 0.132367 30.6099 1.22088 33.8754 3.39791C37.141 5.5276 39.6493 8.53285 41.4004 12.4136C43.1988 16.2944 44.098 20.7668 44.098 25.8307C44.098 30.942 43.1988 35.4381 41.4004 39.3188C39.6493 43.1523 37.141 46.1575 33.8754 48.3346C30.6099 50.4643 26.6818 51.5291 22.0911 51.5291ZM22.0911 43.3653C25.8299 43.3653 28.8825 41.8035 31.2488 38.6799C33.6151 35.5564 34.7983 31.2733 34.7983 25.8307C34.7983 20.3882 33.6151 16.1051 31.2488 12.9816C28.8825 9.858 25.8299 8.29622 22.0911 8.29622C18.305 8.29622 15.2287 9.858 12.8624 12.9816C10.5434 16.1051 9.38389 20.3882 9.38389 25.8307C9.38389 31.2733 10.5434 35.5564 12.8624 38.6799C15.2287 41.8035 18.305 43.3653 22.0911 43.3653ZM55.3826 50.6772V11.3488L47.2188 13.2655V6.3085L59.2161 0.984244H64.8243V50.6772H55.3826Z" fill="#8B40E5"/>
</svg>
