<svg width="84" height="52" viewBox="0 0 84 52" fill="none" xmlns="http://www.w3.org/2000/svg">
<path d="M22.2015 51.8519C17.6108 51.8519 13.6827 50.787 10.4171 48.6573C7.15157 46.4803 4.61959 43.4751 2.82118 39.6416C1.07009 35.7608 0.19455 31.2648 0.19455 26.1535C0.19455 21.0895 1.07009 16.6172 2.82118 12.7364C4.61959 8.8556 7.15157 5.85036 10.4171 3.72066C13.6827 1.54363 17.6108 0.455121 22.2015 0.455121C26.7921 0.455121 30.7203 1.54363 33.9858 3.72066C37.2513 5.85036 39.7596 8.8556 41.5107 12.7364C43.3091 16.6172 44.2084 21.0895 44.2084 26.1535C44.2084 31.2648 43.3091 35.7608 41.5107 39.6416C39.7596 43.4751 37.2513 46.4803 33.9858 48.6573C30.7203 50.787 26.7921 51.8519 22.2015 51.8519ZM22.2015 43.688C25.9403 43.688 28.9928 42.1262 31.3592 39.0027C33.7255 35.8791 34.9087 31.5961 34.9087 26.1535C34.9087 20.7109 33.7255 16.4279 31.3592 13.3043C28.9928 10.1808 25.9403 8.61897 22.2015 8.61897C18.4153 8.61897 15.3391 10.1808 12.9728 13.3043C10.6537 16.4279 9.49424 20.7109 9.49424 26.1535C9.49424 31.5961 10.6537 35.8791 12.9728 39.0027C15.3391 42.1262 18.4153 43.688 22.2015 43.688ZM66.3545 51.8519C63.0889 51.8519 60.131 51.284 57.4807 50.1481C54.8304 48.965 52.7007 47.1665 51.0916 44.7529C49.4825 42.3392 48.6306 39.3103 48.536 35.6662H57.4807C57.528 38.0798 58.3089 40.1149 59.8234 41.7713C61.3852 43.3804 63.5622 44.185 66.3545 44.185C69.0047 44.185 71.0398 43.4514 72.4596 41.9843C73.8794 40.5171 74.5893 38.6714 74.5893 36.447C74.5893 33.8441 73.6428 31.88 71.7497 30.5549C69.904 29.1824 67.514 28.4962 64.5797 28.4962H60.8882V21.0422H64.6507C67.0644 21.0422 69.0757 20.4743 70.6848 19.3385C72.294 18.2026 73.0985 16.5225 73.0985 14.2982C73.0985 12.4524 72.4833 10.9853 71.2528 9.89679C70.0696 8.76095 68.4132 8.19303 66.2835 8.19303C63.9645 8.19303 62.1424 8.87927 60.8172 10.2517C59.5394 11.6242 58.8295 13.3043 58.6875 15.292H49.8138C50.0031 10.7013 51.5885 7.08085 54.5701 4.43056C57.599 1.78027 61.5035 0.455121 66.2835 0.455121C69.691 0.455121 72.5542 1.07037 74.8733 2.30086C77.2396 3.48403 79.0143 5.06947 80.1975 7.05719C81.428 9.04491 82.0432 11.2456 82.0432 13.6593C82.0432 16.4515 81.2624 18.8179 79.7006 20.7583C78.1861 22.6513 76.2931 23.9291 74.0214 24.5917C76.8136 25.1596 79.0853 26.5321 80.8364 28.7091C82.5875 30.8388 83.463 33.5365 83.463 36.802C83.463 39.5469 82.8005 42.0553 81.4753 44.3269C80.1502 46.5986 78.2098 48.4207 75.6541 49.7932C73.1458 51.1656 70.0459 51.8519 66.3545 51.8519Z" fill="#FF885A"/>
</svg>
