<svg width="89" height="89" viewBox="0 0 89 89" fill="none" xmlns="http://www.w3.org/2000/svg">
<rect opacity="0.1" width="88.3424" height="88.3424" rx="16.7739" fill="#161C2D"/>
<path d="M53.2748 36.1849C50.9097 33.8299 47.8199 32.6523 44.7302 32.6523V44.7295L36.1855 53.2741C40.9057 57.9943 48.5445 57.9943 53.2647 53.2741C57.9849 48.554 57.9849 40.9051 53.2748 36.1849Z" fill="#161C2D"/>
<path opacity="0.5" fill-rule="evenodd" clip-rule="evenodd" d="M24.5957 44.7297C24.5957 33.6086 33.6033 24.6011 44.7243 24.6011C55.8454 24.6011 64.853 33.6086 64.853 44.7297C64.853 55.8407 55.8454 64.8584 44.7243 64.8584C33.6033 64.8584 24.5957 55.8508 24.5957 44.7297ZM28.6191 44.7296C28.6191 53.6265 35.8252 60.8325 44.7221 60.8325C53.6189 60.8325 60.825 53.6265 60.825 44.7296C60.825 35.8328 53.6189 28.6267 44.7221 28.6267C35.8252 28.6267 28.6191 35.8328 28.6191 44.7296Z" fill="#161C2D"/>
</svg>
