<svg width="88" height="88" viewBox="0 0 88 88" fill="none" xmlns="http://www.w3.org/2000/svg">
<rect width="88" height="88" rx="16.77" fill="#E1E1F6"/>
<path d="M36.703 29.7467C36.6097 29.2523 36.5621 28.7373 36.5621 28.217C36.5621 27.6407 36.6224 27.0669 36.7413 26.5111C36.8071 26.2048 36.6231 25.9003 36.3305 25.8317C36.0402 25.7642 35.748 25.9552 35.6822 26.2622C35.5458 26.8996 35.4766 27.5574 35.4766 28.217C35.4766 28.8113 35.5307 29.4002 35.6383 29.9676C35.6894 30.2387 35.9162 30.4261 36.1701 30.4261C36.2047 30.4261 36.2404 30.4225 36.276 30.415C36.57 30.3543 36.7612 30.0548 36.703 29.7467Z" fill="#726FFC"/>
<path d="M51.3416 31.4127C51.0733 31.2727 50.7471 31.3876 50.6138 31.6691C49.3518 34.3302 46.8075 35.9841 43.9737 35.9849C41.1399 35.9841 38.5959 34.3302 37.3339 31.6691C37.2003 31.3876 36.8737 31.2727 36.6061 31.4127C36.3378 31.5524 36.2281 31.8655 36.3614 32.147C37.8078 35.1967 40.7221 37.0661 43.9696 37.0661H43.9713H43.9764H43.9781C47.2252 37.0661 50.1402 35.1967 51.5863 32.147C51.7192 31.8655 51.6099 31.5524 51.3416 31.4127Z" fill="#726FFC"/>
<path d="M52.3028 29.9686C52.4118 29.3951 52.4673 28.8062 52.4673 28.217C52.4673 27.5559 52.3974 26.8955 52.26 26.2549C52.1942 25.9483 51.9036 25.7551 51.6113 25.8248C51.3191 25.8937 51.135 26.1982 51.2008 26.5045C51.3208 27.0636 51.3818 27.6396 51.3818 28.217C51.3818 28.7312 51.3331 29.2457 51.2378 29.7459C51.1793 30.054 51.3701 30.3535 51.6641 30.4149C51.7001 30.4224 51.7357 30.426 51.771 30.426C52.0243 30.426 52.2511 30.2389 52.3028 29.9686Z" fill="#726FFC"/>
<path d="M49.2152 39.0881H38.6454C38.3198 39.0881 37.9453 39.4914 37.9453 39.8347V63.307C37.9453 63.6485 38.3202 63.9078 38.6454 63.9078H49.2152C49.5407 63.9078 49.7878 63.6485 49.7878 63.307V39.8347C49.7878 39.4914 49.5407 39.0881 49.2152 39.0881Z" fill="#726FFC"/>
<path d="M39.8199 27.7106L41.7566 29.2212C41.9002 29.3304 41.9602 29.5422 41.9053 29.7189L41.1655 32.114C41.0432 32.5093 41.4749 32.8426 41.7957 32.5984L43.7324 31.1258C43.876 31.0163 44.0706 31.0174 44.2138 31.1269L46.1506 32.602C46.4717 32.8465 46.9034 32.5179 46.7807 32.1226L46.0409 29.7369C45.9861 29.5598 46.0464 29.3663 46.1896 29.2571L48.1267 27.7106C48.4478 27.466 48.2826 26.8624 47.8858 26.8624H45.492C45.3145 26.8624 45.1572 26.8147 45.1024 26.6376L44.3626 24.2878C44.2402 23.8921 43.7064 23.9104 43.5837 24.3058L42.8442 26.6287C42.7891 26.8053 42.6318 26.8624 42.4546 26.8624H40.0604C39.664 26.8624 39.4991 27.466 39.8199 27.7106Z" fill="#726FFC"/>
<path d="M35.8424 51.7509C35.8424 51.4083 35.5776 51.1304 35.2503 51.1304H24.5921C24.2652 51.1304 24 51.4083 24 51.7509V63.3793C24 63.7219 24.2652 63.9998 24.5921 63.9998H35.2503C35.5776 63.9998 35.8424 63.7219 35.8424 63.3793V51.7509Z" fill="#726FFC"/>
<path d="M28.7494 44.2724C28.8405 44.3421 28.8789 44.4649 28.8439 44.5769L28.588 45.4017C28.5105 45.6527 28.7843 45.861 28.9879 45.7062L29.6574 45.1963C29.7486 45.127 29.8716 45.127 29.9627 45.1963L30.6323 45.7062C30.8358 45.861 31.1096 45.6527 31.0322 45.4017L30.7762 44.5769C30.7416 44.4649 30.7796 44.3421 30.8704 44.2724L31.5404 43.7403C31.7436 43.5855 31.639 43.225 31.3875 43.225H30.56C30.4476 43.225 30.3475 43.1718 30.3129 43.0598L30.0573 42.2465C29.9795 41.9955 29.641 42.0012 29.5632 42.2519L29.3076 43.0569C29.2726 43.169 29.1729 43.225 29.0602 43.225H28.233C27.9815 43.225 27.8766 43.5855 28.0801 43.7403L28.7494 44.2724Z" fill="#726FFC"/>
<path d="M29.8108 49.1085C32.4541 49.1085 34.6043 46.8553 34.6043 44.0857C34.6043 41.3161 32.4541 39.0625 29.8108 39.0625C27.1678 39.0625 25.0176 41.3161 25.0176 44.0857C25.0176 46.8553 27.1678 49.1085 29.8108 49.1085ZM29.8108 40.2001C31.8589 40.2001 33.5187 41.9398 33.5187 44.0857C33.5187 46.2315 31.8589 47.9709 29.8108 47.9709C27.7633 47.9709 26.1031 46.2315 26.1031 44.0857C26.1031 41.9398 27.7633 40.2001 29.8108 40.2001Z" fill="#726FFC"/>
<path d="M64.0006 51.7509C64.0006 51.4083 63.7358 51.1304 63.4085 51.1304H52.7503C52.4234 51.1304 52.1582 51.4083 52.1582 51.7509V63.3793C52.1582 63.7219 52.4234 63.9998 52.7503 63.9998H63.4085C63.7358 63.9998 64.0006 63.7219 64.0006 63.3793V51.7509Z" fill="#726FFC"/>
<path d="M56.9935 44.2724C57.0847 44.3421 57.1227 44.4649 57.0881 44.5769L56.8325 45.4017C56.7547 45.6527 57.0285 45.861 57.232 45.7062L57.9016 45.1963C57.9927 45.127 58.1157 45.127 58.2069 45.1963L58.8764 45.7062C59.08 45.861 59.3538 45.6527 59.2763 45.4017L59.0207 44.5769C58.9857 44.4649 59.0238 44.3421 59.1146 44.2724L59.7845 43.7403C59.9877 43.5855 59.8832 43.225 59.6317 43.225H58.8038C58.6914 43.225 58.5917 43.1718 58.5571 43.0598L58.3014 42.2465C58.2237 41.9955 57.8851 42.0012 57.8073 42.2519L57.5517 43.0569C57.5167 43.169 57.417 43.225 57.3046 43.225H56.4771C56.2256 43.225 56.1207 43.5855 56.3243 43.7403L56.9935 44.2724Z" fill="#726FFC"/>
<path d="M58.051 49.1085C60.6943 49.1085 62.8448 46.8553 62.8448 44.0857C62.8448 41.3161 60.6943 39.0625 58.051 39.0625C55.408 39.0625 53.2578 41.3161 53.2578 44.0857C53.2578 46.8553 55.408 49.1085 58.051 49.1085ZM58.051 40.2001C60.0987 40.2001 61.7593 41.9398 61.7593 44.0857C61.7593 46.2315 60.0987 47.9709 58.051 47.9709C56.0036 47.9709 54.3434 46.2315 54.3434 44.0857C54.3434 41.9398 56.0036 40.2001 58.051 40.2001Z" fill="#726FFC"/>
</svg>
