<svg width="89" height="89" viewBox="0 0 89 89" fill="none" xmlns="http://www.w3.org/2000/svg">
<rect opacity="0.1" width="88.3424" height="88.3424" rx="16.7739" fill="#473BF0"/>
<path fill-rule="evenodd" clip-rule="evenodd" d="M33.5547 35.4255C33.5547 29.6826 37.8302 23.4841 44.7373 23.4841C51.6444 23.4841 55.9198 29.6826 55.9198 35.4255C55.9198 43.9361 50.1152 49.2041 44.7373 49.2041C39.3594 49.2041 33.5547 43.9361 33.5547 35.4255ZM35.4609 36.3931C35.8654 43.1942 40.4596 47.3663 44.7397 47.3663C49.0198 47.3663 53.6131 43.1951 54.0194 36.3959C51.247 36.0248 48.6564 34.8554 46.5774 33.022C44.0091 35.2945 40.7335 36.5373 37.2576 36.5373C36.664 36.5373 36.0657 36.4795 35.4609 36.3931Z" fill="#473BF0"/>
<path opacity="0.5" d="M61.4848 53.8808L51.7951 48.0852C49.5241 50.0397 46.8095 51.1144 44.1769 51.1144C41.5444 51.1144 38.8298 50.0397 36.5588 48.0852L26.8691 53.8808C25.4741 54.715 24.6074 56.2412 24.6074 57.8631V65.0484C24.6074 65.5621 25.0249 65.9773 25.5393 65.9773H43.2451V56.688C43.2451 56.1743 43.6616 55.7591 44.1769 55.7591C44.6923 55.7591 45.1088 56.1743 45.1088 56.688V65.9773H62.8146C63.329 65.9773 63.7465 65.5621 63.7465 65.0484V57.8631C63.7465 56.2412 62.8798 54.715 61.4848 53.8808Z" fill="#473BF0"/>
</svg>
