<svg width="89" height="89" viewBox="0 0 89 89" fill="none" xmlns="http://www.w3.org/2000/svg">
<rect opacity="0.1" width="88.3424" height="88.3424" rx="16.7739" fill="#68D585"/>
<path opacity="0.5" d="M62.8077 43.6123C61.1273 51.1684 53.005 56.9183 43.261 56.9183C41.8795 56.9183 40.5005 56.7937 39.1406 56.5575C42.4817 59.4503 47.6543 60.9095 52.9998 60.119L60.1544 63.6514C60.2763 63.7111 60.4085 63.7409 60.5406 63.7409C60.6987 63.7409 60.856 63.6983 60.9951 63.6139C61.2491 63.4587 61.4046 63.184 61.4046 62.8881V56.3818C63.6363 54.3828 64.8606 51.8618 64.8606 49.2427C64.8606 47.2403 64.1374 45.306 62.8077 43.6123Z" fill="#68D585"/>
<path d="M43.0587 25.7192C32.8841 25.7192 24.6074 32.2273 24.6074 40.2272C24.6074 43.302 25.8208 46.2334 28.1219 48.7271V57.2953C28.1219 57.5914 28.2801 57.8654 28.5384 58.0216C28.6799 58.1061 28.8398 58.1487 29.0006 58.1487C29.135 58.1487 29.2694 58.1189 29.3933 58.0591L37.591 54.078C39.379 54.5141 41.2162 54.7351 43.0587 54.7351C53.2332 54.7351 61.5099 48.227 61.5099 40.2272C61.5099 32.2273 53.2332 25.7192 43.0587 25.7192Z" fill="#68D585"/>
</svg>
