<svg width="32" height="32" viewBox="0 0 32 32" fill="none" xmlns="http://www.w3.org/2000/svg">
<rect opacity="0.15" width="32" height="32" rx="6.74708" fill="#8B40E5"/>
<path d="M22.4 24.5332H9.6C9.1584 24.5332 8.8 24.2154 8.8 23.8221C8.8 21.469 10.9528 19.5554 13.6 19.5554H18.4C21.0472 19.5554 23.2 21.469 23.2 23.8221C23.2 24.2154 22.8416 24.5332 22.4 24.5332ZM22.8 11.7332H22.4C22.4 10.1645 20.9648 8.88877 19.2 8.88877H16.8V8.17766C16.8 7.78442 16.4416 7.46655 16 7.46655C15.5584 7.46655 15.2 7.78442 15.2 8.17766V8.88877H12.8C11.0352 8.88877 9.6 10.1645 9.6 11.7332H9.2C8.5384 11.7332 8 12.2118 8 12.7999V14.2221C8 14.8102 8.5384 15.2888 9.2 15.2888H9.6C9.6 16.8575 11.0352 18.1332 12.8 18.1332H19.2C20.9648 18.1332 22.4 16.8575 22.4 15.2888H22.8C23.4616 15.2888 24 14.8102 24 14.2221V12.7999C24 12.2118 23.4616 11.7332 22.8 11.7332ZM14 14.5777C13.3376 14.5777 12.8 14.0998 12.8 13.511C12.8 12.9222 13.3376 12.4443 14 12.4443C14.6624 12.4443 15.2 12.9222 15.2 13.511C15.2 14.0998 14.6624 14.5777 14 14.5777ZM18 14.5777C17.3376 14.5777 16.8 14.0998 16.8 13.511C16.8 12.9222 17.3376 12.4443 18 12.4443C18.6624 12.4443 19.2 12.9222 19.2 13.511C19.2 14.0998 18.6624 14.5777 18 14.5777Z" fill="#5800FF"/>
</svg>
