<svg width="263" height="128" viewBox="0 0 263 128" fill="none" xmlns="http://www.w3.org/2000/svg">
<rect width="263" height="128" rx="13" fill="white"/>
<mask id="mask0_1549_364" style="mask-type:luminance" maskUnits="userSpaceOnUse" x="45" y="38" width="174" height="53">
<path d="M218.2 38H45V90.65H218.2V38Z" fill="white"/>
</mask>
<g mask="url(#mask0_1549_364)">
<path d="M69.9991 67.4398C69.2491 67.4398 68.6491 68.0398 68.6491 68.7798V85.1898C68.6491 85.8798 68.3691 86.5298 67.8791 87.0098C67.3891 87.4898 66.7491 87.7498 66.0591 87.7498H66.0291C64.6191 87.7498 63.4691 86.5798 63.4691 85.1898V75.1698C63.4691 72.5498 62.9691 70.6798 61.9391 69.4498C60.8591 68.1598 59.1891 67.4998 56.9691 67.4998C54.7491 67.4998 52.8991 69.3098 52.8991 71.5398V85.1798C52.8991 86.5898 51.7391 87.7398 50.3191 87.7398C48.8991 87.7398 47.7391 86.5898 47.7391 85.1798V49.4998C47.7391 48.5598 48.5091 47.7898 49.4591 47.7898H58.0491C59.4691 47.7898 59.8891 48.3198 60.0291 48.4898C60.3391 48.8798 60.7091 49.7198 60.7091 51.5698V56.4798C60.7091 57.9798 60.4291 59.0598 59.9091 59.5998C59.3891 60.1298 58.5191 60.3998 57.3391 60.3998C56.3891 60.3998 55.6091 59.6298 55.6091 58.6798V52.8198C55.6091 52.0798 54.9991 51.4798 54.2591 51.4798C53.5191 51.4798 52.9091 52.0798 52.9091 52.8198V58.6798C52.9091 61.0998 54.8891 63.0698 57.3291 63.0698C59.2791 63.0698 60.7891 62.5298 61.8391 61.4498C62.8891 60.3698 63.3991 58.7398 63.3991 56.4598V51.5498C63.3991 49.4198 62.9891 47.8698 62.1491 46.8098C61.2391 45.6698 59.8591 45.0898 58.0591 45.0898H49.4691C47.0291 45.1198 45.0391 47.0798 45.0391 49.4998V85.1898C45.0391 88.0798 47.4091 90.4398 50.3291 90.4398C53.2491 90.4398 55.6191 88.0898 55.6191 85.1898V71.5498C55.6191 70.7998 56.2291 70.1898 56.9891 70.1898C58.3691 70.1898 59.3491 70.5198 59.8791 71.1598C60.2891 71.6598 60.7891 72.7498 60.7891 75.1698V85.1898C60.7891 88.0498 63.1391 90.4198 66.0191 90.4398C67.4391 90.4398 68.7791 89.9098 69.7791 88.9198C70.7891 87.9298 71.3491 86.5998 71.3491 85.1898V68.7798C71.3491 68.0398 70.7391 67.4398 69.9991 67.4398Z" fill="#72C69B"/>
<path d="M46.34 40.68H58.27C61.93 40.68 64.59 41.5 66.18 43.09C67.77 44.69 68.58 47.28 68.58 50.78V54.69C68.58 59.29 67.15 62.19 64.2 63.57C63.52 63.89 63.24 64.68 63.56 65.36C63.79 65.85 64.27 66.13 64.78 66.13C64.98 66.13 65.17 66.09 65.36 66C69.29 64.16 71.29 60.35 71.29 54.7V50.79C71.29 46.55 70.22 43.34 68.11 41.21C65.99 39.08 62.69 38 58.28 38H46.35C45.61 38 45 38.61 45 39.34C45 40.07 45.61 40.68 46.34 40.68Z" fill="#72C69B"/>
<path d="M94.0704 73.9404C94.0704 69.6304 91.1304 66.9004 86.4704 66.9004H80.7504C78.7004 66.9004 77.9004 67.6404 77.9004 69.5304V88.9504C77.9004 89.9704 78.4504 90.6004 79.4104 90.6004C80.3704 90.6004 80.9204 89.9604 80.9204 88.9504V81.0704H86.6804L90.7604 89.1104C91.2904 90.1304 91.7304 90.4904 92.5004 90.4904C93.3204 90.4904 93.9804 89.9204 93.9804 89.1604C93.9804 88.7804 93.8604 88.3104 93.7004 87.9804L89.7004 80.4104C92.4104 79.4504 94.0904 76.9804 94.0904 73.9304L94.0704 73.9404ZM85.9704 78.4604H80.9204V69.5804H86.0904C89.1604 69.5804 90.9704 71.2304 90.9704 74.1004C90.9704 76.9704 89.2204 78.4604 85.9704 78.4604Z" fill="#1E1E1E"/>
<path d="M111.809 69.5902C112.739 69.5902 113.359 69.0802 113.359 68.2502C113.359 67.4202 112.749 66.9102 111.809 66.9102H101.739C99.7492 66.9102 98.9492 67.6402 98.9492 69.4702V87.9002C98.9492 89.7302 99.7492 90.4602 101.739 90.4602H111.789C112.739 90.4602 113.349 89.9602 113.349 89.1302C113.349 88.3002 112.739 87.7702 111.799 87.7702H101.959V79.7702H111.189C112.119 79.7702 112.719 79.2802 112.719 78.4602C112.719 77.6402 112.129 77.1302 111.189 77.1302H101.959V69.6102H111.809V69.5902Z" fill="#1E1E1E"/>
<path d="M134.48 66.7305C133.55 66.7305 132.97 67.3705 132.97 68.3805V76.9105H121.04V68.3805C121.04 67.3605 120.45 66.7305 119.51 66.7305C118.57 66.7305 118 67.3705 118 68.3805V88.9505C118 89.9705 118.57 90.6005 119.51 90.6005C120.45 90.6005 121.04 89.9605 121.04 88.9505V79.6005H132.97V88.9505C132.97 89.9705 133.54 90.6005 134.48 90.6005C135.42 90.6005 136.01 89.9605 136.01 88.9505V68.3805C136.01 67.3605 135.42 66.7305 134.48 66.7305Z" fill="#1E1E1E"/>
<path d="M151.4 68.4797C150.96 67.2797 150.36 66.7197 149.25 66.7197C148.14 66.7197 147.53 67.2697 147.1 68.4797L139.97 88.2897C139.83 88.7097 139.75 89.0297 139.75 89.3797C139.75 90.1797 140.32 90.6697 141.19 90.6697C142.06 90.6697 142.49 90.2897 142.82 89.2597L144.81 83.3797H153.67L155.66 89.2597C155.99 90.2797 156.46 90.6697 157.29 90.6697C158.17 90.6697 158.75 90.1697 158.75 89.3597C158.75 89.0297 158.66 88.6697 158.53 88.2897L151.4 68.4797ZM145.62 80.9397L149.18 70.4497H149.3L152.86 80.9397H145.62Z" fill="#1E1E1E"/>
<path d="M174.18 78.0302V77.9102C176.63 77.1502 177.96 75.3202 177.96 72.7002C177.96 69.1502 175.42 66.9102 171.38 66.9102H165.29C163.3 66.9102 162.5 67.6402 162.5 69.4702V87.9002C162.5 89.7302 163.3 90.4602 165.29 90.4602H171.03C176.17 90.4602 179.31 87.9602 179.31 83.8702C179.31 80.6302 177.39 78.4802 174.17 78.0402L174.18 78.0302ZM165.52 69.5502H170.9C173.44 69.5502 174.9 70.8902 174.9 73.2202C174.9 75.8402 173.11 77.0502 169.14 77.0502H165.51V69.5502H165.52ZM169.63 87.8002H165.52V79.6302H171.22C174.38 79.6302 176.2 81.1902 176.2 83.8702C176.2 86.5502 174.3 87.8002 169.62 87.8002H169.63Z" fill="#1E1E1E"/>
<path d="M192.309 66.9004H186.529C184.479 66.9004 183.699 67.6304 183.699 69.5004V88.9404C183.699 89.9604 184.269 90.5904 185.209 90.5904C186.149 90.5904 186.719 89.9504 186.719 88.9404V81.5004H192.269C196.839 81.5004 199.849 78.6204 199.849 74.2104C199.849 69.8004 196.829 66.9004 192.299 66.9004H192.309ZM190.349 78.8704H186.739V69.5604H192.129C195.069 69.5604 196.749 71.2704 196.749 74.2104C196.749 77.6404 195.049 78.8704 190.339 78.8704H190.349Z" fill="#1E1E1E"/>
<path d="M216.69 66.8905C215.86 66.8905 215.19 67.5605 215.19 68.3805V78.5905H208.28C206.57 78.5905 205.18 77.2105 205.18 75.5005L205.15 68.3705C205.15 64.2905 201.81 60.9805 197.71 60.9805H184.52C183.69 60.9805 183.02 61.6505 183.02 62.4705C183.02 63.2905 183.7 63.9605 184.52 63.9605H197.71C200.16 63.9605 202.15 65.9405 202.15 68.3805L202.19 75.5105C202.19 78.8505 204.93 81.5805 208.29 81.5805H215.2V84.4005C215.2 86.1805 213.75 87.6205 211.96 87.6205H203.66C202.83 87.6205 202.16 88.2905 202.16 89.1105C202.16 89.9305 202.84 90.6005 203.66 90.6005H211.96C215.4 90.6005 218.2 87.8105 218.2 84.4005V68.3805C218.2 67.5605 217.52 66.8905 216.7 66.8905V66.8705L216.69 66.8905Z" fill="#1E1E1E"/>
</g>
</svg>
