<svg width="32" height="32" viewBox="0 0 32 32" fill="none" xmlns="http://www.w3.org/2000/svg">
<rect opacity="0.15" width="32" height="32" rx="6.74708" fill="#FF885A"/>
<path d="M18.8142 8L18.4269 8.70588H13.5719L13.1846 8H18.8142ZM21.3327 8.70588V23.2941C21.3327 23.6834 20.9583 24 20.4979 24H11.5008C11.0409 24 10.666 23.6834 10.666 23.2941V8.70588C10.666 8.31661 11.0409 8 11.5008 8H11.9576L12.7122 9.37449C12.8034 9.54089 13.0002 9.64706 13.217 9.64706H18.7821C18.9985 9.64706 19.1957 9.54089 19.2865 9.37449L20.0416 8H20.4979C20.9583 8 21.3327 8.31661 21.3327 8.70588ZM14.7677 18.0913C14.8483 18.1259 14.9338 18.1425 15.0183 18.1425C15.2218 18.1425 15.4172 18.048 15.5152 17.8842L17.4456 14.6628C17.5845 14.4309 17.4749 14.1478 17.2007 14.0303C16.9269 13.9128 16.5916 14.0055 16.4527 14.2374L14.5224 17.4588C14.3835 17.6907 14.4934 17.9738 14.7677 18.0913ZM13.7807 16.8644C13.9227 16.8644 14.0652 16.8184 14.1738 16.7266C14.3915 16.5429 14.3915 16.2447 14.1738 16.061L13.3461 15.3611L14.1738 14.6613C14.3915 14.4772 14.3915 14.1794 14.1738 13.9957C13.9565 13.812 13.6044 13.812 13.3871 13.9957L12.1655 15.0283C11.9482 15.212 11.9482 15.5102 12.1655 15.6939L13.3871 16.7266C13.4957 16.8184 13.6382 16.8644 13.7807 16.8644ZM18.0862 22.9805C18.0862 22.7204 17.8374 22.5099 17.5297 22.5099H14.469C14.1618 22.5099 13.9125 22.7204 13.9125 22.9805C13.9125 23.2403 14.1618 23.4511 14.469 23.4511H17.5297C17.8374 23.4511 18.0862 23.2403 18.0862 22.9805ZM19.8332 16.1845L18.612 15.1518C18.3947 14.9681 18.0421 14.9681 17.8249 15.1518C17.6076 15.3355 17.6076 15.6337 17.8249 15.8174L18.6525 16.5173L17.8249 17.2171C17.6076 17.4008 17.6076 17.699 17.8249 17.8827C17.9335 17.9746 18.076 18.0205 18.2184 18.0205C18.3609 18.0205 18.5034 17.9746 18.612 17.8827L19.8332 16.8501C20.0505 16.6664 20.0505 16.3682 19.8332 16.1845Z" fill="#FF885A"/>
</svg>
