<svg width="32" height="32" viewBox="0 0 32 32" fill="none" xmlns="http://www.w3.org/2000/svg">
<rect opacity="0.15" width="32" height="32" rx="6.74708" fill="#FD346E"/>
<path fill-rule="evenodd" clip-rule="evenodd" d="M24 11.5349C24 10.5972 23.6279 9.69823 22.9648 9.03516C22.3018 8.37209 21.4028 8 20.4651 8H11.5349C10.5972 8 9.69823 8.37209 9.03516 9.03516C8.37209 9.69823 8 10.5972 8 11.5349V20.4651C8 21.4028 8.37209 22.3018 9.03516 22.9648C9.69823 23.6279 10.5972 24 11.5349 24H20.4651C21.4028 24 22.3018 23.6279 22.9648 22.9648C23.6279 22.3018 24 21.4028 24 20.4651V11.5349ZM16.3632 13.1446L14.5771 18.5027C14.4804 18.7952 14.6381 19.1114 14.9306 19.2089C15.2231 19.3057 15.5393 19.1479 15.6368 18.8554L17.4229 13.4973C17.5196 13.2048 17.3619 12.8886 17.0694 12.7911C16.7769 12.6943 16.4607 12.8521 16.3632 13.1446ZM18.2847 14.6084L19.6755 16L18.2847 17.3916C18.0666 17.6089 18.0666 17.9632 18.2847 18.1805C18.502 18.3985 18.8562 18.3985 19.0735 18.1805L20.8595 16.3944C21.0776 16.1764 21.0776 15.8236 20.8595 15.6056L19.0735 13.8195C18.8562 13.6015 18.502 13.6015 18.2847 13.8195C18.0666 14.0368 18.0666 14.3911 18.2847 14.6084ZM12.9265 13.8195L11.1405 15.6056C10.9224 15.8236 10.9224 16.1764 11.1405 16.3944L12.9265 18.1805C13.1438 18.3985 13.498 18.3985 13.7153 18.1805C13.9334 17.9632 13.9334 17.6089 13.7153 17.3916L12.3245 16L13.7153 14.6084C13.9334 14.3911 13.9334 14.0368 13.7153 13.8195C13.498 13.6015 13.1438 13.6015 12.9265 13.8195Z" fill="#FD346E"/>
</svg>
