<svg width="88" height="88" viewBox="0 0 88 88" fill="none" xmlns="http://www.w3.org/2000/svg">
<rect width="88" height="88" rx="16.77" fill="#E1E1F6"/>
<path d="M49.7535 35.1302C48.1929 35.1302 46.9232 33.8605 46.9232 32.2998V23H32.4477C29.9953 23 28 24.9953 28 27.4477V59.9568C28 62.4092 29.9953 64.4045 32.4477 64.4045H55.0908C57.5433 64.4045 59.5386 62.4092 59.5386 59.9568V35.1302H49.7535ZM34.6312 52.1125H40.5119C41.1818 52.1125 41.7249 52.6557 41.7249 53.3256C41.7249 53.9955 41.1818 54.5386 40.5119 54.5386H34.6312C33.9613 54.5386 33.4182 53.9955 33.4182 53.3256C33.4182 52.6557 33.9613 52.1125 34.6312 52.1125ZM33.4182 46.8561C33.4182 46.1862 33.9613 45.6431 34.6312 45.6431H52.4222C53.0921 45.6431 53.6352 46.1862 53.6352 46.8561C53.6352 47.526 53.0921 48.0691 52.4222 48.0691H34.6312C33.9613 48.0691 33.4182 47.526 33.4182 46.8561ZM52.4222 39.1736C53.0921 39.1736 53.6352 39.7167 53.6352 40.3867C53.6352 41.0566 53.0921 41.5997 52.4222 41.5997H34.6312C33.9613 41.5997 33.4182 41.0566 33.4182 40.3867C33.4182 39.7167 33.9613 39.1736 34.6312 39.1736H52.4222Z" fill="#726FFC"/>
<path d="M49.3496 32.2997C49.3496 32.5226 49.531 32.704 49.754 32.704H58.9983C58.7764 32.2944 58.4909 31.9181 58.148 31.5935L50.3504 24.2166C50.0478 23.9303 49.7108 23.6915 49.3497 23.5029V32.2997H49.3496Z" fill="#726FFC"/>
</svg>
