<svg width="728" height="604" viewBox="0 0 728 604" fill="none" xmlns="http://www.w3.org/2000/svg">
<g clip-path="url(#clip0_1857_2271)">
<path d="M211.834 80.9378L149.087 72.2139L143.324 113.123L205.309 123.456L211.834 80.9208V80.9378ZM208.105 82.0727L177.359 96.861L152.324 74.3313L208.105 82.0897V82.0727ZM145.189 111.768L150.392 74.7718L177.071 98.7922L209.851 83.0383L203.936 121.576L145.172 111.768H145.189Z" fill="url(#paint0_linear_1857_2271)"/>
<path opacity="0.6" d="M211.834 80.9378L149.087 72.2139L143.324 113.123L205.309 123.456L211.834 80.9208V80.9378ZM208.105 82.0727L177.359 96.861L152.324 74.3313L208.105 82.0897V82.0727ZM145.189 111.768L150.392 74.7718L177.071 98.7922L209.851 83.0383L203.936 121.576L145.172 111.768H145.189Z" fill="white"/>
<path d="M519.907 42.1465L468.312 87.2568L534.721 167.178L535.246 167.822L589.57 121.509L519.907 42.1634V42.1465ZM585.993 119.899L528.331 104.315L520.975 45.8393L585.993 119.899ZM470.584 87.4262L519.195 44.9246L526.822 105.602L586.671 121.78L535.433 165.467L470.584 87.4262Z" fill="url(#paint1_linear_1857_2271)"/>
<path opacity="0.6" d="M519.907 42.1465L468.312 87.2568L534.721 167.178L535.246 167.822L589.57 121.509L519.907 42.1634V42.1465ZM585.993 119.899L528.331 104.315L520.975 45.8393L585.993 119.899ZM470.584 87.4262L519.195 44.9246L526.822 105.602L586.671 121.78L535.433 165.467L470.584 87.4262Z" fill="white"/>
<path d="M61.6097 275.337C61.1521 275.337 60.7961 274.948 60.8131 274.507C60.83 273.406 60.8639 272.322 60.8809 271.221C60.8809 270.764 61.2368 270.425 61.7284 270.425C62.186 270.425 62.5419 270.814 62.525 271.272C62.4911 272.356 62.4741 273.457 62.4572 274.541C62.4572 274.982 62.0843 275.337 61.6436 275.337H61.6097ZM61.9657 263.869C61.9657 263.869 61.9487 263.869 61.9318 263.869C61.4741 263.852 61.1351 263.463 61.1521 263.022C61.2029 261.938 61.2538 260.837 61.3046 259.736C61.3216 259.279 61.7114 258.94 62.169 258.957C62.6267 258.974 62.9657 259.363 62.9487 259.821C62.8979 260.905 62.847 262.006 62.7962 263.09C62.7792 263.53 62.4063 263.869 61.9826 263.869H61.9657ZM62.6097 252.418C62.6097 252.418 62.5758 252.418 62.5589 252.418C62.1012 252.384 61.7623 251.995 61.7962 251.537C61.8639 250.453 61.9487 249.352 62.0334 248.268C62.0673 247.81 62.4402 247.472 62.9148 247.522C63.3725 247.556 63.7115 247.946 63.6606 248.403C63.5759 249.487 63.4911 250.572 63.4233 251.656C63.3894 252.079 63.0335 252.418 62.6097 252.418ZM63.5759 241.001C63.5759 241.001 63.525 241.001 63.4911 241.001C63.0335 240.95 62.7114 240.56 62.7623 240.103C62.864 239.019 62.9826 237.935 63.1013 236.834C63.1521 236.376 63.542 236.054 63.9996 236.105C64.4572 236.156 64.7793 236.563 64.7284 237.003C64.6098 238.087 64.5081 239.171 64.3894 240.255C64.3555 240.679 63.9996 241.001 63.5759 241.001ZM64.864 229.6C64.864 229.6 64.7962 229.6 64.7623 229.6C64.3216 229.549 63.9996 229.126 64.0504 228.686C64.186 227.601 64.3386 226.517 64.4742 225.433C64.542 224.993 64.9488 224.671 65.3895 224.739C65.8301 224.806 66.1522 225.213 66.0844 225.653C65.9318 226.738 65.7962 227.805 65.6607 228.889C65.6098 229.295 65.2539 229.6 64.8471 229.6H64.864ZM66.4742 218.251C66.4742 218.251 66.3895 218.251 66.3386 218.251C65.8979 218.183 65.5929 217.759 65.6607 217.319C65.8301 216.235 65.9996 215.151 66.1861 214.084C66.2539 213.643 66.6776 213.338 67.1353 213.406C67.5759 213.474 67.881 213.897 67.8132 214.355C67.6268 215.422 67.4573 216.506 67.2878 217.573C67.22 217.98 66.881 218.268 66.4742 218.268V218.251ZM68.4404 206.952C68.4404 206.952 68.3387 206.952 68.2878 206.952C67.8471 206.867 67.559 206.444 67.6437 205.986C67.8471 204.902 68.0505 203.835 68.2709 202.768C68.3556 202.327 68.7963 202.04 69.237 202.124C69.6777 202.209 69.9658 202.649 69.8811 203.09C69.6607 204.157 69.4573 205.224 69.254 206.291C69.1862 206.681 68.8302 206.952 68.4573 206.952H68.4404ZM70.7625 195.721C70.7625 195.721 70.6438 195.721 70.576 195.704C70.1353 195.602 69.8641 195.162 69.9489 194.722C70.1862 193.654 70.4404 192.587 70.6777 191.52C70.7794 191.08 71.2201 190.809 71.6608 190.91C72.1015 191.012 72.3727 191.452 72.271 191.893C72.0167 192.96 71.7794 194.01 71.5421 195.077C71.4574 195.467 71.1184 195.721 70.7455 195.721H70.7625ZM73.4574 184.575C73.4574 184.575 73.3218 184.575 73.254 184.541C72.8134 184.422 72.5591 183.982 72.6608 183.541C72.932 182.474 73.2201 181.424 73.5083 180.374C73.6269 179.933 74.0846 179.679 74.5083 179.798C74.949 179.916 75.2032 180.374 75.0846 180.797C74.7965 181.847 74.5253 182.898 74.2371 183.948C74.1354 184.321 73.8134 184.558 73.4405 184.558L73.4574 184.575ZM76.5423 173.53C76.5423 173.53 76.3897 173.53 76.305 173.496C75.8643 173.361 75.627 172.903 75.7626 172.48C76.0846 171.43 76.3897 170.379 76.7287 169.346C76.8643 168.923 77.3219 168.668 77.7626 168.804C78.2033 168.939 78.4406 169.397 78.305 169.837C77.983 170.871 77.6609 171.921 77.3558 172.954C77.2541 173.31 76.9321 173.547 76.5762 173.547L76.5423 173.53ZM80.0339 162.604C79.9491 162.604 79.8644 162.604 79.7627 162.553C79.3389 162.401 79.1016 161.943 79.2542 161.52C79.6101 160.487 79.9661 159.453 80.322 158.42C80.4746 157.996 80.9322 157.776 81.3729 157.912C81.7966 158.064 82.017 158.522 81.8814 158.962C81.5254 159.995 81.1695 161.012 80.8135 162.045C80.6949 162.384 80.3729 162.604 80.0339 162.604ZM83.9323 151.813C83.8306 151.813 83.7289 151.813 83.6441 151.763C83.2204 151.593 83.017 151.136 83.1695 150.712C83.5594 149.696 83.9662 148.663 84.356 147.646C84.5255 147.223 85.0001 147.02 85.4238 147.189C85.8476 147.358 86.051 147.833 85.8815 148.256C85.4747 149.273 85.0848 150.289 84.695 151.305C84.5763 151.627 84.2543 151.83 83.9323 151.83V151.813ZM88.2544 141.192C88.1527 141.192 88.0341 141.175 87.9324 141.125C87.5086 140.938 87.3222 140.464 87.5086 140.057C87.9493 139.058 88.373 138.042 88.8307 137.042C89.0171 136.636 89.4917 136.449 89.9155 136.619C90.3222 136.805 90.5087 137.279 90.3392 137.703C89.8985 138.702 89.4578 139.702 89.0341 140.701C88.8985 141.006 88.5934 141.192 88.2883 141.192H88.2544ZM93.0003 130.758C92.8816 130.758 92.763 130.724 92.6443 130.673C92.2375 130.47 92.068 129.995 92.2545 129.589C92.7291 128.606 93.2037 127.607 93.6952 126.624C93.8986 126.218 94.3901 126.048 94.7969 126.252C95.2037 126.455 95.3732 126.946 95.1698 127.353C94.6952 128.335 94.2037 129.318 93.7461 130.3C93.6105 130.588 93.3054 130.758 93.0003 130.758ZM98.1699 120.526C98.0343 120.526 97.9156 120.492 97.78 120.424C97.3733 120.204 97.2207 119.713 97.4411 119.323C97.9495 118.358 98.475 117.392 99.0004 116.427C99.2208 116.037 99.7123 115.884 100.119 116.105C100.509 116.325 100.661 116.816 100.441 117.223C99.9157 118.171 99.4072 119.137 98.8818 120.102C98.7292 120.373 98.458 120.543 98.1529 120.543L98.1699 120.526ZM103.78 110.532C103.645 110.532 103.492 110.498 103.356 110.413C102.967 110.176 102.831 109.685 103.068 109.295C103.628 108.346 104.187 107.415 104.763 106.483C105.001 106.093 105.509 105.975 105.882 106.212C106.272 106.449 106.39 106.957 106.153 107.33C105.577 108.262 105.017 109.193 104.475 110.125C104.323 110.379 104.051 110.532 103.763 110.532H103.78ZM109.865 100.808C109.713 100.808 109.56 100.757 109.407 100.673C109.035 100.419 108.933 99.9104 109.17 99.5377C109.78 98.623 110.391 97.7083 111.001 96.8104C111.255 96.4378 111.763 96.3361 112.136 96.5902C112.509 96.8443 112.611 97.3525 112.357 97.7252C111.746 98.623 111.136 99.5377 110.543 100.436C110.391 100.673 110.119 100.808 109.865 100.808ZM116.408 91.3728C116.238 91.3728 116.069 91.322 115.933 91.2204C115.56 90.9493 115.492 90.4411 115.747 90.0685C116.391 89.1876 117.052 88.3067 117.696 87.4259C117.967 87.0702 118.475 86.9855 118.848 87.2565C119.204 87.5275 119.289 88.0357 119.018 88.4084C118.357 89.2723 117.713 90.1532 117.069 91.034C116.916 91.2542 116.662 91.3728 116.408 91.3728ZM123.374 82.2593C123.187 82.2593 123.018 82.1915 122.865 82.073C122.509 81.785 122.459 81.2768 122.747 80.9211C123.442 80.0571 124.12 79.2102 124.832 78.3632C125.12 78.0074 125.628 77.9566 125.984 78.2615C126.34 78.5495 126.391 79.0577 126.086 79.4134C125.391 80.2604 124.713 81.0905 124.018 81.9544C123.848 82.1577 123.611 82.2593 123.374 82.2593ZM130.764 73.4846C130.577 73.4846 130.374 73.4168 130.221 73.2813C129.882 72.9764 129.849 72.4682 130.154 72.1294C130.883 71.3163 131.611 70.4862 132.357 69.6731C132.662 69.3343 133.188 69.3174 133.51 69.6223C133.849 69.9272 133.866 70.4524 133.561 70.7742C132.832 71.5704 132.103 72.3835 131.374 73.2135C131.205 73.3999 130.984 73.4846 130.764 73.4846ZM489.688 70.8081C489.586 70.8081 489.484 70.7912 489.382 70.7403C488.365 70.3338 487.348 69.9103 486.348 69.5037C485.925 69.3343 485.738 68.86 485.908 68.4365C486.077 68.0131 486.569 67.8267 486.976 67.9961C487.976 68.4027 488.993 68.8261 490.01 69.2327C490.433 69.4021 490.637 69.8764 490.467 70.2999C490.332 70.6218 490.026 70.8081 489.704 70.8081H489.688ZM479.094 66.4038C478.992 66.4038 478.874 66.3868 478.772 66.336L475.755 65.0486C475.331 64.8623 475.145 64.388 475.331 63.9814C475.518 63.5579 475.992 63.3716 476.416 63.5579L479.433 64.8453C479.857 65.0147 480.043 65.506 479.874 65.9125C479.738 66.2174 479.433 66.4038 479.128 66.4038H479.094ZM138.561 65.0825C138.357 65.0825 138.154 64.9978 137.984 64.8453C137.662 64.5235 137.645 64.0153 137.984 63.6934C138.747 62.9142 139.527 62.135 140.29 61.3558C140.612 61.0339 141.12 61.0339 141.442 61.3558C141.764 61.6776 141.764 62.1858 141.442 62.5077C140.679 63.27 139.9 64.0492 139.154 64.8284C139.001 64.9978 138.781 65.0825 138.561 65.0825ZM468.568 61.847C468.45 61.847 468.348 61.8301 468.246 61.7793L465.246 60.458C464.839 60.2716 464.653 59.7973 464.822 59.3738C465.009 58.9673 465.484 58.7809 465.907 58.9503L468.907 60.2716C469.314 60.458 469.518 60.9323 469.331 61.3558C469.195 61.6607 468.89 61.847 468.585 61.847H468.568ZM458.094 57.1717C457.975 57.1717 457.873 57.1547 457.755 57.1039L454.771 55.7487C454.365 55.5624 454.178 55.0712 454.365 54.6646C454.551 54.2581 455.043 54.0717 455.449 54.2581L458.433 55.6132C458.839 55.7996 459.026 56.2908 458.839 56.6974C458.704 57.0023 458.399 57.1717 458.094 57.1717ZM146.764 57.0531C146.544 57.0531 146.324 56.9684 146.171 56.799C145.866 56.4602 145.883 55.952 146.205 55.6471C147.002 54.9018 147.815 54.1564 148.629 53.428C148.968 53.1231 149.476 53.157 149.781 53.4788C150.086 53.8176 150.052 54.3258 149.73 54.6307C148.917 55.3591 148.12 56.1045 147.324 56.8329C147.171 56.9853 146.968 57.0531 146.764 57.0531ZM447.653 52.4286C447.534 52.4286 447.415 52.4116 447.314 52.3608L444.33 50.9887C443.924 50.8024 443.737 50.3111 443.924 49.9046C444.11 49.498 444.602 49.3117 445.008 49.498L447.992 50.8701C448.398 51.0565 448.585 51.5477 448.398 51.9543C448.263 52.2592 447.958 52.4286 447.653 52.4286ZM155.341 49.4472C155.103 49.4472 154.883 49.3456 154.714 49.1592C154.425 48.8204 154.459 48.2953 154.815 48.0073C155.646 47.2959 156.493 46.6013 157.341 45.9068C157.697 45.6188 158.205 45.6697 158.493 46.0254C158.781 46.3811 158.731 46.8893 158.375 47.1773C157.527 47.8718 156.697 48.5663 155.866 49.2609C155.714 49.3964 155.527 49.4472 155.341 49.4472ZM437.212 47.6516C437.093 47.6516 436.974 47.6347 436.873 47.5838L433.89 46.2117C433.483 46.0254 433.296 45.5341 433.483 45.1276C433.669 44.721 434.161 44.5347 434.568 44.721L437.551 46.0932C437.957 46.2795 438.144 46.7707 437.957 47.1773C437.822 47.4822 437.517 47.6516 437.212 47.6516ZM426.788 42.8746C426.669 42.8746 426.55 42.8577 426.449 42.8069L423.466 41.4517C423.059 41.2654 422.872 40.7741 423.059 40.3675C423.245 39.961 423.737 39.7747 424.144 39.961L427.127 41.3162C427.534 41.5025 427.72 41.9938 427.534 42.4003C427.398 42.7052 427.093 42.8746 426.788 42.8746ZM164.29 42.2817C164.036 42.2817 163.799 42.1632 163.629 41.9599C163.358 41.6041 163.426 41.079 163.782 40.808C164.646 40.1473 165.527 39.4867 166.409 38.843C166.765 38.5719 167.29 38.6566 167.561 39.0124C167.833 39.3681 167.748 39.8932 167.392 40.1643C166.51 40.808 165.646 41.4686 164.782 42.1123C164.629 42.2309 164.46 42.2817 164.29 42.2817ZM416.33 38.1654C416.211 38.1654 416.109 38.1485 415.991 38.0976L412.991 36.7594C412.584 36.5731 412.398 36.0988 412.567 35.6753C412.754 35.2687 413.228 35.0824 413.652 35.2518L416.652 36.59C417.059 36.7763 417.245 37.2676 417.059 37.6741C416.923 37.9791 416.618 38.1654 416.313 38.1654H416.33ZM173.578 35.5906C173.324 35.5906 173.053 35.472 172.9 35.2348C172.646 34.8622 172.748 34.354 173.121 34.0999C174.019 33.4901 174.934 32.8633 175.85 32.2704C176.223 32.0163 176.731 32.1179 176.985 32.5076C177.24 32.8802 177.138 33.3884 176.748 33.6425C175.85 34.2354 174.934 34.8452 174.036 35.4551C173.9 35.5567 173.731 35.5906 173.578 35.5906ZM405.821 33.5409C405.719 33.5409 405.601 33.5239 405.499 33.4731L402.499 32.1857C402.075 31.9994 401.889 31.5251 402.075 31.1016C402.245 30.6781 402.736 30.4917 403.143 30.6781L406.16 31.9824C406.584 32.1688 406.77 32.6431 406.584 33.0666C406.448 33.3715 406.143 33.5578 405.838 33.5578L405.821 33.5409ZM183.206 29.3907C182.935 29.3907 182.663 29.2551 182.511 29.0011C182.274 28.6114 182.392 28.1032 182.782 27.883C183.714 27.3071 184.663 26.7481 185.613 26.206C186.002 25.9858 186.511 26.1044 186.731 26.494C186.952 26.8836 186.833 27.3918 186.443 27.612C185.511 28.1541 184.579 28.7131 183.646 29.2721C183.511 29.3568 183.375 29.3907 183.223 29.3907H183.206ZM395.262 29.0688C395.16 29.0688 395.058 29.0519 394.94 29.0011C393.939 28.5776 392.923 28.171 391.906 27.7475C391.482 27.5781 391.278 27.1038 391.448 26.6803C391.617 26.2568 392.109 26.0535 392.516 26.2399C393.533 26.6464 394.55 27.0699 395.55 27.4934C395.973 27.6628 396.16 28.1541 395.99 28.5606C395.855 28.8825 395.55 29.0688 395.228 29.0688H395.262ZM384.634 24.7831C384.532 24.7831 384.431 24.7661 384.329 24.7323C383.312 24.3257 382.295 23.9361 381.278 23.5465C380.854 23.3771 380.651 22.9028 380.804 22.4962C380.973 22.0727 381.448 21.8695 381.871 22.0219C382.888 22.4115 383.905 22.8181 384.922 23.2077C385.346 23.3771 385.549 23.8514 385.38 24.2749C385.244 24.5967 384.939 24.8 384.617 24.8L384.634 24.7831ZM193.172 23.7328C192.884 23.7328 192.596 23.5804 192.443 23.2924C192.223 22.8858 192.375 22.3946 192.782 22.1913C193.748 21.6831 194.714 21.1749 195.698 20.6667C196.104 20.4635 196.596 20.6159 196.799 21.0225C197.003 21.429 196.85 21.9203 196.443 22.1236C195.477 22.6148 194.511 23.123 193.562 23.6312C193.443 23.6989 193.308 23.7328 193.172 23.7328ZM373.905 20.7176C373.803 20.7176 373.719 20.7176 373.617 20.6667C372.6 20.2941 371.566 19.9214 370.532 19.5487C370.108 19.3963 369.888 18.922 370.041 18.4985C370.193 18.075 370.668 17.8548 371.092 18.0072C372.125 18.3799 373.159 18.7526 374.176 19.1252C374.6 19.2777 374.82 19.752 374.668 20.1755C374.549 20.5143 374.227 20.7176 373.905 20.7176ZM203.444 18.617C203.138 18.617 202.833 18.4476 202.698 18.1427C202.511 17.7362 202.698 17.2449 203.105 17.0586C204.105 16.6012 205.105 16.1439 206.105 15.7034C206.511 15.5171 207.003 15.7034 207.189 16.1269C207.376 16.5335 207.189 17.0247 206.766 17.2111C205.766 17.6515 204.783 18.0919 203.799 18.5493C203.681 18.6001 203.579 18.617 203.46 18.617H203.444ZM363.091 16.9061C363.007 16.9061 362.922 16.9061 362.837 16.8553C361.803 16.4996 360.769 16.1608 359.735 15.822C359.312 15.6865 359.074 15.2122 359.21 14.7887C359.345 14.3652 359.803 14.128 360.244 14.2636C361.278 14.6023 362.329 14.9581 363.363 15.2969C363.786 15.4493 364.024 15.9067 363.871 16.3302C363.752 16.669 363.43 16.8892 363.091 16.8892V16.9061ZM213.986 14.1111C213.664 14.1111 213.342 13.9078 213.223 13.586C213.054 13.1625 213.257 12.6882 213.681 12.5188C214.698 12.1122 215.732 11.7226 216.749 11.3499C217.173 11.1975 217.647 11.4008 217.8 11.8242C217.952 12.2477 217.749 12.722 217.325 12.8745C216.308 13.2472 215.291 13.6368 214.274 14.0433C214.173 14.0772 214.071 14.0942 213.969 14.0942L213.986 14.1111ZM352.159 13.3996C352.159 13.3996 352.006 13.3996 351.922 13.3658C350.871 13.0439 349.837 12.739 348.786 12.4341C348.345 12.2986 348.108 11.8581 348.227 11.4177C348.362 10.9773 348.803 10.7401 349.244 10.8587C350.294 11.1636 351.345 11.4855 352.396 11.7904C352.837 11.9259 353.074 12.3833 352.939 12.8067C352.837 13.1625 352.515 13.3827 352.159 13.3827V13.3996ZM341.125 10.2489C341.125 10.2489 340.989 10.2489 340.904 10.215C339.853 9.92701 338.803 9.65597 337.735 9.38494C337.294 9.26636 337.023 8.82593 337.142 8.3855C337.26 7.94507 337.701 7.67403 338.142 7.79261C339.209 8.06365 340.26 8.33468 341.328 8.62265C341.769 8.74123 342.023 9.18166 341.904 9.62209C341.803 9.99477 341.481 10.2319 341.108 10.2319L341.125 10.2489ZM224.783 10.2489C224.444 10.2489 224.122 10.0286 224.003 9.68985C223.868 9.26636 224.105 8.79205 224.529 8.65653C225.58 8.31774 226.614 7.99589 227.664 7.67404C228.105 7.53852 228.563 7.79261 228.681 8.2161C228.817 8.65653 228.563 9.1139 228.139 9.23248C227.105 9.55433 226.054 9.87619 225.02 10.215C224.936 10.2489 224.851 10.2489 224.766 10.2489H224.783ZM329.972 7.52158C329.972 7.52158 329.853 7.52158 329.785 7.50464C328.718 7.26748 327.65 7.03033 326.599 6.81011C326.158 6.70848 325.87 6.28498 325.972 5.84455C326.074 5.40412 326.497 5.11615 326.938 5.21779C328.006 5.438 329.074 5.67516 330.158 5.92925C330.599 6.03089 330.87 6.47132 330.785 6.91175C330.701 7.28442 330.362 7.55546 329.989 7.55546L329.972 7.52158ZM235.8 7.06421C235.427 7.06421 235.105 6.81011 235.004 6.45438C234.885 6.01395 235.156 5.57352 235.597 5.45494C236.665 5.18391 237.732 4.92981 238.8 4.67572C239.241 4.57408 239.682 4.84511 239.783 5.28554C239.885 5.72598 239.614 6.16641 239.173 6.26804C238.105 6.52214 237.054 6.77623 236.004 7.04727C235.936 7.06421 235.868 7.08115 235.8 7.08115V7.06421ZM318.734 5.23473C318.734 5.23473 318.633 5.23473 318.582 5.23473C317.514 5.04839 316.429 4.86205 315.361 4.67572C314.921 4.60796 314.616 4.18447 314.683 3.7271C314.751 3.28667 315.175 2.98175 315.633 3.04951C316.717 3.23585 317.802 3.42218 318.87 3.60852C319.311 3.69322 319.616 4.11671 319.531 4.55714C319.463 4.94675 319.107 5.23473 318.717 5.23473H318.734ZM247.004 4.59102C246.614 4.59102 246.275 4.31998 246.207 3.93037C246.122 3.48994 246.411 3.04951 246.868 2.98175C247.953 2.77848 249.038 2.59214 250.123 2.40581C250.58 2.33805 250.987 2.62602 251.072 3.08339C251.14 3.52382 250.851 3.94731 250.394 4.03201C249.326 4.21835 248.241 4.40468 247.173 4.60796C247.122 4.60796 247.072 4.60796 247.021 4.60796L247.004 4.59102ZM307.395 3.45606C307.395 3.45606 307.327 3.45606 307.293 3.45606C306.209 3.32055 305.141 3.18503 304.056 3.04951C303.598 2.99869 303.293 2.59214 303.344 2.13477C303.395 1.69434 303.802 1.37249 304.259 1.42331C305.344 1.55882 306.429 1.69434 307.531 1.82986C307.971 1.88068 308.293 2.30417 308.243 2.7446C308.192 3.15115 307.836 3.45606 307.429 3.45606H307.395ZM258.343 2.84624C257.936 2.84624 257.58 2.54132 257.53 2.11783C257.479 1.6774 257.801 1.25391 258.241 1.20309C259.326 1.06757 260.428 0.948996 261.53 0.847358C261.987 0.813479 262.377 1.13533 262.428 1.57576C262.479 2.03313 262.14 2.42274 261.699 2.47356C260.614 2.5752 259.53 2.69378 258.445 2.8293C258.411 2.8293 258.377 2.8293 258.343 2.8293V2.84624ZM295.988 2.23641C295.988 2.23641 295.937 2.23641 295.92 2.23641C294.835 2.15171 293.751 2.06701 292.666 1.99925C292.208 1.96537 291.869 1.57576 291.903 1.13533C291.937 0.677962 292.327 0.356108 292.768 0.373048C293.869 0.440807 294.954 0.525505 296.056 0.610203C296.513 0.644082 296.836 1.03369 296.802 1.49106C296.768 1.91456 296.412 2.23641 295.988 2.23641ZM269.784 1.8468C269.36 1.8468 268.987 1.508 268.97 1.06757C268.954 0.610203 269.292 0.237531 269.75 0.203651C270.852 0.152833 271.937 0.102014 273.038 0.0511947C273.513 0.0173154 273.869 0.389988 273.886 0.847358C273.886 1.30473 273.547 1.6774 273.089 1.69434C272.004 1.72822 270.92 1.77904 269.835 1.8468C269.835 1.8468 269.801 1.8468 269.784 1.8468ZM284.53 1.62658H284.513C283.428 1.5927 282.344 1.5927 281.242 1.57576C280.784 1.57576 280.428 1.20309 280.428 0.74572C280.428 0.28835 280.801 -0.0673828 281.242 -0.0673828C282.344 -0.0673828 283.428 -0.0504432 284.53 -0.0165639C284.988 -0.0165639 285.344 0.373048 285.327 0.813479C285.327 1.25391 284.954 1.60964 284.513 1.60964L284.53 1.62658Z" fill="url(#paint2_linear_1857_2271)"/>
<path opacity="0.6" d="M61.6097 275.337C61.1521 275.337 60.7961 274.948 60.8131 274.507C60.83 273.406 60.8639 272.322 60.8809 271.221C60.8809 270.764 61.2368 270.425 61.7284 270.425C62.186 270.425 62.5419 270.814 62.525 271.272C62.4911 272.356 62.4741 273.457 62.4572 274.541C62.4572 274.982 62.0843 275.337 61.6436 275.337H61.6097ZM61.9657 263.869C61.9657 263.869 61.9487 263.869 61.9318 263.869C61.4741 263.852 61.1351 263.463 61.1521 263.022C61.2029 261.938 61.2538 260.837 61.3046 259.736C61.3216 259.279 61.7114 258.94 62.169 258.957C62.6267 258.974 62.9657 259.363 62.9487 259.821C62.8979 260.905 62.847 262.006 62.7962 263.09C62.7792 263.53 62.4063 263.869 61.9826 263.869H61.9657ZM62.6097 252.418C62.6097 252.418 62.5758 252.418 62.5589 252.418C62.1012 252.384 61.7623 251.995 61.7962 251.537C61.8639 250.453 61.9487 249.352 62.0334 248.268C62.0673 247.81 62.4402 247.472 62.9148 247.522C63.3725 247.556 63.7115 247.946 63.6606 248.403C63.5759 249.487 63.4911 250.572 63.4233 251.656C63.3894 252.079 63.0335 252.418 62.6097 252.418ZM63.5759 241.001C63.5759 241.001 63.525 241.001 63.4911 241.001C63.0335 240.95 62.7114 240.56 62.7623 240.103C62.864 239.019 62.9826 237.935 63.1013 236.834C63.1521 236.376 63.542 236.054 63.9996 236.105C64.4572 236.156 64.7793 236.563 64.7284 237.003C64.6098 238.087 64.5081 239.171 64.3894 240.255C64.3555 240.679 63.9996 241.001 63.5759 241.001ZM64.864 229.6C64.864 229.6 64.7962 229.6 64.7623 229.6C64.3216 229.549 63.9996 229.126 64.0504 228.686C64.186 227.601 64.3386 226.517 64.4742 225.433C64.542 224.993 64.9488 224.671 65.3895 224.739C65.8301 224.806 66.1522 225.213 66.0844 225.653C65.9318 226.738 65.7962 227.805 65.6607 228.889C65.6098 229.295 65.2539 229.6 64.8471 229.6H64.864ZM66.4742 218.251C66.4742 218.251 66.3895 218.251 66.3386 218.251C65.8979 218.183 65.5929 217.759 65.6607 217.319C65.8301 216.235 65.9996 215.151 66.1861 214.084C66.2539 213.643 66.6776 213.338 67.1353 213.406C67.5759 213.474 67.881 213.897 67.8132 214.355C67.6268 215.422 67.4573 216.506 67.2878 217.573C67.22 217.98 66.881 218.268 66.4742 218.268V218.251ZM68.4404 206.952C68.4404 206.952 68.3387 206.952 68.2878 206.952C67.8471 206.867 67.559 206.444 67.6437 205.986C67.8471 204.902 68.0505 203.835 68.2709 202.768C68.3556 202.327 68.7963 202.04 69.237 202.124C69.6777 202.209 69.9658 202.649 69.8811 203.09C69.6607 204.157 69.4573 205.224 69.254 206.291C69.1862 206.681 68.8302 206.952 68.4573 206.952H68.4404ZM70.7625 195.721C70.7625 195.721 70.6438 195.721 70.576 195.704C70.1353 195.602 69.8641 195.162 69.9489 194.722C70.1862 193.654 70.4404 192.587 70.6777 191.52C70.7794 191.08 71.2201 190.809 71.6608 190.91C72.1015 191.012 72.3727 191.452 72.271 191.893C72.0167 192.96 71.7794 194.01 71.5421 195.077C71.4574 195.467 71.1184 195.721 70.7455 195.721H70.7625ZM73.4574 184.575C73.4574 184.575 73.3218 184.575 73.254 184.541C72.8134 184.422 72.5591 183.982 72.6608 183.541C72.932 182.474 73.2201 181.424 73.5083 180.374C73.6269 179.933 74.0846 179.679 74.5083 179.798C74.949 179.916 75.2032 180.374 75.0846 180.797C74.7965 181.847 74.5253 182.898 74.2371 183.948C74.1354 184.321 73.8134 184.558 73.4405 184.558L73.4574 184.575ZM76.5423 173.53C76.5423 173.53 76.3897 173.53 76.305 173.496C75.8643 173.361 75.627 172.903 75.7626 172.48C76.0846 171.43 76.3897 170.379 76.7287 169.346C76.8643 168.923 77.3219 168.668 77.7626 168.804C78.2033 168.939 78.4406 169.397 78.305 169.837C77.983 170.871 77.6609 171.921 77.3558 172.954C77.2541 173.31 76.9321 173.547 76.5762 173.547L76.5423 173.53ZM80.0339 162.604C79.9491 162.604 79.8644 162.604 79.7627 162.553C79.3389 162.401 79.1016 161.943 79.2542 161.52C79.6101 160.487 79.9661 159.453 80.322 158.42C80.4746 157.996 80.9322 157.776 81.3729 157.912C81.7966 158.064 82.017 158.522 81.8814 158.962C81.5254 159.995 81.1695 161.012 80.8135 162.045C80.6949 162.384 80.3729 162.604 80.0339 162.604ZM83.9323 151.813C83.8306 151.813 83.7289 151.813 83.6441 151.763C83.2204 151.593 83.017 151.136 83.1695 150.712C83.5594 149.696 83.9662 148.663 84.356 147.646C84.5255 147.223 85.0001 147.02 85.4238 147.189C85.8476 147.358 86.051 147.833 85.8815 148.256C85.4747 149.273 85.0848 150.289 84.695 151.305C84.5763 151.627 84.2543 151.83 83.9323 151.83V151.813ZM88.2544 141.192C88.1527 141.192 88.0341 141.175 87.9324 141.125C87.5086 140.938 87.3222 140.464 87.5086 140.057C87.9493 139.058 88.373 138.042 88.8307 137.042C89.0171 136.636 89.4917 136.449 89.9155 136.619C90.3222 136.805 90.5087 137.279 90.3392 137.703C89.8985 138.702 89.4578 139.702 89.0341 140.701C88.8985 141.006 88.5934 141.192 88.2883 141.192H88.2544ZM93.0003 130.758C92.8816 130.758 92.763 130.724 92.6443 130.673C92.2375 130.47 92.068 129.995 92.2545 129.589C92.7291 128.606 93.2037 127.607 93.6952 126.624C93.8986 126.218 94.3901 126.048 94.7969 126.252C95.2037 126.455 95.3732 126.946 95.1698 127.353C94.6952 128.335 94.2037 129.318 93.7461 130.3C93.6105 130.588 93.3054 130.758 93.0003 130.758ZM98.1699 120.526C98.0343 120.526 97.9156 120.492 97.78 120.424C97.3733 120.204 97.2207 119.713 97.4411 119.323C97.9495 118.358 98.475 117.392 99.0004 116.427C99.2208 116.037 99.7123 115.884 100.119 116.105C100.509 116.325 100.661 116.816 100.441 117.223C99.9157 118.171 99.4072 119.137 98.8818 120.102C98.7292 120.373 98.458 120.543 98.1529 120.543L98.1699 120.526ZM103.78 110.532C103.645 110.532 103.492 110.498 103.356 110.413C102.967 110.176 102.831 109.685 103.068 109.295C103.628 108.346 104.187 107.415 104.763 106.483C105.001 106.093 105.509 105.975 105.882 106.212C106.272 106.449 106.39 106.957 106.153 107.33C105.577 108.262 105.017 109.193 104.475 110.125C104.323 110.379 104.051 110.532 103.763 110.532H103.78ZM109.865 100.808C109.713 100.808 109.56 100.757 109.407 100.673C109.035 100.419 108.933 99.9104 109.17 99.5377C109.78 98.623 110.391 97.7083 111.001 96.8104C111.255 96.4378 111.763 96.3361 112.136 96.5902C112.509 96.8443 112.611 97.3525 112.357 97.7252C111.746 98.623 111.136 99.5377 110.543 100.436C110.391 100.673 110.119 100.808 109.865 100.808ZM116.408 91.3728C116.238 91.3728 116.069 91.322 115.933 91.2204C115.56 90.9493 115.492 90.4411 115.747 90.0685C116.391 89.1876 117.052 88.3067 117.696 87.4259C117.967 87.0702 118.475 86.9855 118.848 87.2565C119.204 87.5275 119.289 88.0357 119.018 88.4084C118.357 89.2723 117.713 90.1532 117.069 91.034C116.916 91.2542 116.662 91.3728 116.408 91.3728ZM123.374 82.2593C123.187 82.2593 123.018 82.1915 122.865 82.073C122.509 81.785 122.459 81.2768 122.747 80.9211C123.442 80.0571 124.12 79.2102 124.832 78.3632C125.12 78.0074 125.628 77.9566 125.984 78.2615C126.34 78.5495 126.391 79.0577 126.086 79.4134C125.391 80.2604 124.713 81.0905 124.018 81.9544C123.848 82.1577 123.611 82.2593 123.374 82.2593ZM130.764 73.4846C130.577 73.4846 130.374 73.4168 130.221 73.2813C129.882 72.9764 129.849 72.4682 130.154 72.1294C130.883 71.3163 131.611 70.4862 132.357 69.6731C132.662 69.3343 133.188 69.3174 133.51 69.6223C133.849 69.9272 133.866 70.4524 133.561 70.7742C132.832 71.5704 132.103 72.3835 131.374 73.2135C131.205 73.3999 130.984 73.4846 130.764 73.4846ZM489.688 70.8081C489.586 70.8081 489.484 70.7912 489.382 70.7403C488.365 70.3338 487.348 69.9103 486.348 69.5037C485.925 69.3343 485.738 68.86 485.908 68.4365C486.077 68.0131 486.569 67.8267 486.976 67.9961C487.976 68.4027 488.993 68.8261 490.01 69.2327C490.433 69.4021 490.637 69.8764 490.467 70.2999C490.332 70.6218 490.026 70.8081 489.704 70.8081H489.688ZM479.094 66.4038C478.992 66.4038 478.874 66.3868 478.772 66.336L475.755 65.0486C475.331 64.8623 475.145 64.388 475.331 63.9814C475.518 63.5579 475.992 63.3716 476.416 63.5579L479.433 64.8453C479.857 65.0147 480.043 65.506 479.874 65.9125C479.738 66.2174 479.433 66.4038 479.128 66.4038H479.094ZM138.561 65.0825C138.357 65.0825 138.154 64.9978 137.984 64.8453C137.662 64.5235 137.645 64.0153 137.984 63.6934C138.747 62.9142 139.527 62.135 140.29 61.3558C140.612 61.0339 141.12 61.0339 141.442 61.3558C141.764 61.6776 141.764 62.1858 141.442 62.5077C140.679 63.27 139.9 64.0492 139.154 64.8284C139.001 64.9978 138.781 65.0825 138.561 65.0825ZM468.568 61.847C468.45 61.847 468.348 61.8301 468.246 61.7793L465.246 60.458C464.839 60.2716 464.653 59.7973 464.822 59.3738C465.009 58.9673 465.484 58.7809 465.907 58.9503L468.907 60.2716C469.314 60.458 469.518 60.9323 469.331 61.3558C469.195 61.6607 468.89 61.847 468.585 61.847H468.568ZM458.094 57.1717C457.975 57.1717 457.873 57.1547 457.755 57.1039L454.771 55.7487C454.365 55.5624 454.178 55.0712 454.365 54.6646C454.551 54.2581 455.043 54.0717 455.449 54.2581L458.433 55.6132C458.839 55.7996 459.026 56.2908 458.839 56.6974C458.704 57.0023 458.399 57.1717 458.094 57.1717ZM146.764 57.0531C146.544 57.0531 146.324 56.9684 146.171 56.799C145.866 56.4602 145.883 55.952 146.205 55.6471C147.002 54.9018 147.815 54.1564 148.629 53.428C148.968 53.1231 149.476 53.157 149.781 53.4788C150.086 53.8176 150.052 54.3258 149.73 54.6307C148.917 55.3591 148.12 56.1045 147.324 56.8329C147.171 56.9853 146.968 57.0531 146.764 57.0531ZM447.653 52.4286C447.534 52.4286 447.415 52.4116 447.314 52.3608L444.33 50.9887C443.924 50.8024 443.737 50.3111 443.924 49.9046C444.11 49.498 444.602 49.3117 445.008 49.498L447.992 50.8701C448.398 51.0565 448.585 51.5477 448.398 51.9543C448.263 52.2592 447.958 52.4286 447.653 52.4286ZM155.341 49.4472C155.103 49.4472 154.883 49.3456 154.714 49.1592C154.425 48.8204 154.459 48.2953 154.815 48.0073C155.646 47.2959 156.493 46.6013 157.341 45.9068C157.697 45.6188 158.205 45.6697 158.493 46.0254C158.781 46.3811 158.731 46.8893 158.375 47.1773C157.527 47.8718 156.697 48.5663 155.866 49.2609C155.714 49.3964 155.527 49.4472 155.341 49.4472ZM437.212 47.6516C437.093 47.6516 436.974 47.6347 436.873 47.5838L433.89 46.2117C433.483 46.0254 433.296 45.5341 433.483 45.1276C433.669 44.721 434.161 44.5347 434.568 44.721L437.551 46.0932C437.957 46.2795 438.144 46.7707 437.957 47.1773C437.822 47.4822 437.517 47.6516 437.212 47.6516ZM426.788 42.8746C426.669 42.8746 426.55 42.8577 426.449 42.8069L423.466 41.4517C423.059 41.2654 422.872 40.7741 423.059 40.3675C423.245 39.961 423.737 39.7747 424.144 39.961L427.127 41.3162C427.534 41.5025 427.72 41.9938 427.534 42.4003C427.398 42.7052 427.093 42.8746 426.788 42.8746ZM164.29 42.2817C164.036 42.2817 163.799 42.1632 163.629 41.9599C163.358 41.6041 163.426 41.079 163.782 40.808C164.646 40.1473 165.527 39.4867 166.409 38.843C166.765 38.5719 167.29 38.6566 167.561 39.0124C167.833 39.3681 167.748 39.8932 167.392 40.1643C166.51 40.808 165.646 41.4686 164.782 42.1123C164.629 42.2309 164.46 42.2817 164.29 42.2817ZM416.33 38.1654C416.211 38.1654 416.109 38.1485 415.991 38.0976L412.991 36.7594C412.584 36.5731 412.398 36.0988 412.567 35.6753C412.754 35.2687 413.228 35.0824 413.652 35.2518L416.652 36.59C417.059 36.7763 417.245 37.2676 417.059 37.6741C416.923 37.9791 416.618 38.1654 416.313 38.1654H416.33ZM173.578 35.5906C173.324 35.5906 173.053 35.472 172.9 35.2348C172.646 34.8622 172.748 34.354 173.121 34.0999C174.019 33.4901 174.934 32.8633 175.85 32.2704C176.223 32.0163 176.731 32.1179 176.985 32.5076C177.24 32.8802 177.138 33.3884 176.748 33.6425C175.85 34.2354 174.934 34.8452 174.036 35.4551C173.9 35.5567 173.731 35.5906 173.578 35.5906ZM405.821 33.5409C405.719 33.5409 405.601 33.5239 405.499 33.4731L402.499 32.1857C402.075 31.9994 401.889 31.5251 402.075 31.1016C402.245 30.6781 402.736 30.4917 403.143 30.6781L406.16 31.9824C406.584 32.1688 406.77 32.6431 406.584 33.0666C406.448 33.3715 406.143 33.5578 405.838 33.5578L405.821 33.5409ZM183.206 29.3907C182.935 29.3907 182.663 29.2551 182.511 29.0011C182.274 28.6114 182.392 28.1032 182.782 27.883C183.714 27.3071 184.663 26.7481 185.613 26.206C186.002 25.9858 186.511 26.1044 186.731 26.494C186.952 26.8836 186.833 27.3918 186.443 27.612C185.511 28.1541 184.579 28.7131 183.646 29.2721C183.511 29.3568 183.375 29.3907 183.223 29.3907H183.206ZM395.262 29.0688C395.16 29.0688 395.058 29.0519 394.94 29.0011C393.939 28.5776 392.923 28.171 391.906 27.7475C391.482 27.5781 391.278 27.1038 391.448 26.6803C391.617 26.2568 392.109 26.0535 392.516 26.2399C393.533 26.6464 394.55 27.0699 395.55 27.4934C395.973 27.6628 396.16 28.1541 395.99 28.5606C395.855 28.8825 395.55 29.0688 395.228 29.0688H395.262ZM384.634 24.7831C384.532 24.7831 384.431 24.7661 384.329 24.7323C383.312 24.3257 382.295 23.9361 381.278 23.5465C380.854 23.3771 380.651 22.9028 380.804 22.4962C380.973 22.0727 381.448 21.8695 381.871 22.0219C382.888 22.4115 383.905 22.8181 384.922 23.2077C385.346 23.3771 385.549 23.8514 385.38 24.2749C385.244 24.5967 384.939 24.8 384.617 24.8L384.634 24.7831ZM193.172 23.7328C192.884 23.7328 192.596 23.5804 192.443 23.2924C192.223 22.8858 192.375 22.3946 192.782 22.1913C193.748 21.6831 194.714 21.1749 195.698 20.6667C196.104 20.4635 196.596 20.6159 196.799 21.0225C197.003 21.429 196.85 21.9203 196.443 22.1236C195.477 22.6148 194.511 23.123 193.562 23.6312C193.443 23.6989 193.308 23.7328 193.172 23.7328ZM373.905 20.7176C373.803 20.7176 373.719 20.7176 373.617 20.6667C372.6 20.2941 371.566 19.9214 370.532 19.5487C370.108 19.3963 369.888 18.922 370.041 18.4985C370.193 18.075 370.668 17.8548 371.092 18.0072C372.125 18.3799 373.159 18.7526 374.176 19.1252C374.6 19.2777 374.82 19.752 374.668 20.1755C374.549 20.5143 374.227 20.7176 373.905 20.7176ZM203.444 18.617C203.138 18.617 202.833 18.4476 202.698 18.1427C202.511 17.7362 202.698 17.2449 203.105 17.0586C204.105 16.6012 205.105 16.1439 206.105 15.7034C206.511 15.5171 207.003 15.7034 207.189 16.1269C207.376 16.5335 207.189 17.0247 206.766 17.2111C205.766 17.6515 204.783 18.0919 203.799 18.5493C203.681 18.6001 203.579 18.617 203.46 18.617H203.444ZM363.091 16.9061C363.007 16.9061 362.922 16.9061 362.837 16.8553C361.803 16.4996 360.769 16.1608 359.735 15.822C359.312 15.6865 359.074 15.2122 359.21 14.7887C359.345 14.3652 359.803 14.128 360.244 14.2636C361.278 14.6023 362.329 14.9581 363.363 15.2969C363.786 15.4493 364.024 15.9067 363.871 16.3302C363.752 16.669 363.43 16.8892 363.091 16.8892V16.9061ZM213.986 14.1111C213.664 14.1111 213.342 13.9078 213.223 13.586C213.054 13.1625 213.257 12.6882 213.681 12.5188C214.698 12.1122 215.732 11.7226 216.749 11.3499C217.173 11.1975 217.647 11.4008 217.8 11.8242C217.952 12.2477 217.749 12.722 217.325 12.8745C216.308 13.2472 215.291 13.6368 214.274 14.0433C214.173 14.0772 214.071 14.0942 213.969 14.0942L213.986 14.1111ZM352.159 13.3996C352.159 13.3996 352.006 13.3996 351.922 13.3658C350.871 13.0439 349.837 12.739 348.786 12.4341C348.345 12.2986 348.108 11.8581 348.227 11.4177C348.362 10.9773 348.803 10.7401 349.244 10.8587C350.294 11.1636 351.345 11.4855 352.396 11.7904C352.837 11.9259 353.074 12.3833 352.939 12.8067C352.837 13.1625 352.515 13.3827 352.159 13.3827V13.3996ZM341.125 10.2489C341.125 10.2489 340.989 10.2489 340.904 10.215C339.853 9.92701 338.803 9.65597 337.735 9.38494C337.294 9.26636 337.023 8.82593 337.142 8.3855C337.26 7.94507 337.701 7.67403 338.142 7.79261C339.209 8.06365 340.26 8.33468 341.328 8.62265C341.769 8.74123 342.023 9.18166 341.904 9.62209C341.803 9.99477 341.481 10.2319 341.108 10.2319L341.125 10.2489ZM224.783 10.2489C224.444 10.2489 224.122 10.0286 224.003 9.68985C223.868 9.26636 224.105 8.79205 224.529 8.65653C225.58 8.31774 226.614 7.99589 227.664 7.67404C228.105 7.53852 228.563 7.79261 228.681 8.2161C228.817 8.65653 228.563 9.1139 228.139 9.23248C227.105 9.55433 226.054 9.87619 225.02 10.215C224.936 10.2489 224.851 10.2489 224.766 10.2489H224.783ZM329.972 7.52158C329.972 7.52158 329.853 7.52158 329.785 7.50464C328.718 7.26748 327.65 7.03033 326.599 6.81011C326.158 6.70848 325.87 6.28498 325.972 5.84455C326.074 5.40412 326.497 5.11615 326.938 5.21779C328.006 5.438 329.074 5.67516 330.158 5.92925C330.599 6.03089 330.87 6.47132 330.785 6.91175C330.701 7.28442 330.362 7.55546 329.989 7.55546L329.972 7.52158ZM235.8 7.06421C235.427 7.06421 235.105 6.81011 235.004 6.45438C234.885 6.01395 235.156 5.57352 235.597 5.45494C236.665 5.18391 237.732 4.92981 238.8 4.67572C239.241 4.57408 239.682 4.84511 239.783 5.28554C239.885 5.72598 239.614 6.16641 239.173 6.26804C238.105 6.52214 237.054 6.77623 236.004 7.04727C235.936 7.06421 235.868 7.08115 235.8 7.08115V7.06421ZM318.734 5.23473C318.734 5.23473 318.633 5.23473 318.582 5.23473C317.514 5.04839 316.429 4.86205 315.361 4.67572C314.921 4.60796 314.616 4.18447 314.683 3.7271C314.751 3.28667 315.175 2.98175 315.633 3.04951C316.717 3.23585 317.802 3.42218 318.87 3.60852C319.311 3.69322 319.616 4.11671 319.531 4.55714C319.463 4.94675 319.107 5.23473 318.717 5.23473H318.734ZM247.004 4.59102C246.614 4.59102 246.275 4.31998 246.207 3.93037C246.122 3.48994 246.411 3.04951 246.868 2.98175C247.953 2.77848 249.038 2.59214 250.123 2.40581C250.58 2.33805 250.987 2.62602 251.072 3.08339C251.14 3.52382 250.851 3.94731 250.394 4.03201C249.326 4.21835 248.241 4.40468 247.173 4.60796C247.122 4.60796 247.072 4.60796 247.021 4.60796L247.004 4.59102ZM307.395 3.45606C307.395 3.45606 307.327 3.45606 307.293 3.45606C306.209 3.32055 305.141 3.18503 304.056 3.04951C303.598 2.99869 303.293 2.59214 303.344 2.13477C303.395 1.69434 303.802 1.37249 304.259 1.42331C305.344 1.55882 306.429 1.69434 307.531 1.82986C307.971 1.88068 308.293 2.30417 308.243 2.7446C308.192 3.15115 307.836 3.45606 307.429 3.45606H307.395ZM258.343 2.84624C257.936 2.84624 257.58 2.54132 257.53 2.11783C257.479 1.6774 257.801 1.25391 258.241 1.20309C259.326 1.06757 260.428 0.948996 261.53 0.847358C261.987 0.813479 262.377 1.13533 262.428 1.57576C262.479 2.03313 262.14 2.42274 261.699 2.47356C260.614 2.5752 259.53 2.69378 258.445 2.8293C258.411 2.8293 258.377 2.8293 258.343 2.8293V2.84624ZM295.988 2.23641C295.988 2.23641 295.937 2.23641 295.92 2.23641C294.835 2.15171 293.751 2.06701 292.666 1.99925C292.208 1.96537 291.869 1.57576 291.903 1.13533C291.937 0.677962 292.327 0.356108 292.768 0.373048C293.869 0.440807 294.954 0.525505 296.056 0.610203C296.513 0.644082 296.836 1.03369 296.802 1.49106C296.768 1.91456 296.412 2.23641 295.988 2.23641ZM269.784 1.8468C269.36 1.8468 268.987 1.508 268.97 1.06757C268.954 0.610203 269.292 0.237531 269.75 0.203651C270.852 0.152833 271.937 0.102014 273.038 0.0511947C273.513 0.0173154 273.869 0.389988 273.886 0.847358C273.886 1.30473 273.547 1.6774 273.089 1.69434C272.004 1.72822 270.92 1.77904 269.835 1.8468C269.835 1.8468 269.801 1.8468 269.784 1.8468ZM284.53 1.62658H284.513C283.428 1.5927 282.344 1.5927 281.242 1.57576C280.784 1.57576 280.428 1.20309 280.428 0.74572C280.428 0.28835 280.801 -0.0673828 281.242 -0.0673828C282.344 -0.0673828 283.428 -0.0504432 284.53 -0.0165639C284.988 -0.0165639 285.344 0.373048 285.327 0.813479C285.327 1.25391 284.954 1.60964 284.513 1.60964L284.53 1.62658Z" fill="white"/>
<path d="M698.047 308.556C697.928 308.556 697.81 308.522 697.691 308.471C697.284 308.268 697.115 307.777 697.318 307.37C697.793 306.387 698.267 305.405 698.725 304.422C698.928 304.016 699.403 303.83 699.81 304.033C700.217 304.219 700.403 304.71 700.2 305.117C699.742 306.116 699.267 307.099 698.776 308.081C698.64 308.369 698.335 308.539 698.047 308.539V308.556ZM702.81 298.121C702.708 298.121 702.589 298.104 702.488 298.053C702.064 297.884 701.878 297.393 702.047 296.986C702.471 295.987 702.895 294.987 703.301 293.971C703.471 293.547 703.962 293.344 704.369 293.513C704.793 293.683 704.996 294.157 704.827 294.581C704.42 295.597 703.996 296.613 703.573 297.63C703.437 297.935 703.132 298.138 702.81 298.138V298.121ZM706.979 287.432C706.895 287.432 706.793 287.432 706.708 287.381C706.284 287.229 706.064 286.754 706.217 286.331C706.59 285.315 706.946 284.281 707.285 283.248C707.42 282.824 707.895 282.587 708.318 282.74C708.742 282.892 708.979 283.35 708.827 283.773C708.471 284.806 708.115 285.84 707.742 286.873C707.623 287.212 707.301 287.415 706.962 287.415L706.979 287.432ZM710.522 276.523C710.522 276.523 710.369 276.523 710.285 276.489C709.844 276.353 709.607 275.913 709.725 275.473C710.03 274.422 710.335 273.389 710.624 272.339C710.742 271.898 711.183 271.644 711.624 271.763C712.064 271.881 712.318 272.339 712.2 272.762C711.912 273.813 711.607 274.88 711.302 275.93C711.2 276.286 710.878 276.523 710.522 276.523ZM713.42 265.427C713.42 265.427 713.302 265.427 713.234 265.41C712.793 265.309 712.522 264.868 712.624 264.428C712.861 263.361 713.098 262.311 713.319 261.243C713.403 260.803 713.844 260.515 714.285 260.617C714.725 260.701 715.013 261.142 714.912 261.582C714.691 262.649 714.454 263.733 714.2 264.801C714.115 265.173 713.776 265.444 713.403 265.444L713.42 265.427ZM715.624 254.179C715.624 254.179 715.539 254.179 715.488 254.179C715.047 254.112 714.742 253.688 714.81 253.248C714.98 252.181 715.149 251.096 715.302 250.029C715.369 249.572 715.793 249.267 716.234 249.335C716.675 249.402 716.997 249.809 716.929 250.266C716.776 251.351 716.607 252.435 716.437 253.519C716.369 253.925 716.03 254.213 715.624 254.213V254.179ZM717.081 242.813C717.081 242.813 717.03 242.813 716.997 242.813C716.539 242.779 716.217 242.373 716.251 241.915C716.352 240.831 716.454 239.747 716.522 238.663C716.556 238.205 716.946 237.867 717.403 237.9C717.861 237.934 718.2 238.324 718.166 238.781C718.081 239.882 717.997 240.967 717.895 242.068C717.861 242.491 717.505 242.813 717.081 242.813ZM717.759 231.362H717.742C717.285 231.362 716.929 230.972 716.946 230.532C716.98 229.448 716.98 228.363 716.997 227.279C716.997 226.822 717.369 226.466 717.81 226.466C718.268 226.466 718.624 226.839 718.624 227.296C718.624 228.397 718.607 229.498 718.573 230.583C718.573 231.023 718.2 231.379 717.759 231.379V231.362ZM717.624 219.894C717.183 219.894 716.827 219.555 716.81 219.114C716.759 218.03 716.691 216.946 716.607 215.862C716.573 215.405 716.912 215.015 717.369 214.981C717.776 214.93 718.217 215.286 718.251 215.743C718.336 216.844 718.386 217.929 718.454 219.03C718.471 219.487 718.132 219.86 717.675 219.894H717.641H717.624ZM716.624 208.476C716.217 208.476 715.861 208.171 715.81 207.765C715.675 206.681 715.522 205.614 715.369 204.546C715.302 204.106 715.607 203.682 716.064 203.615C716.488 203.564 716.929 203.852 716.997 204.309C717.166 205.393 717.319 206.477 717.454 207.579C717.505 208.019 717.2 208.442 716.742 208.493C716.708 208.493 716.675 208.493 716.641 208.493L716.624 208.476ZM714.725 197.178C714.352 197.178 714.013 196.907 713.929 196.534C713.708 195.467 713.471 194.416 713.217 193.366C713.115 192.926 713.386 192.485 713.827 192.384C714.268 192.282 714.708 192.553 714.81 192.993C715.064 194.061 715.302 195.128 715.539 196.212C715.624 196.652 715.352 197.093 714.912 197.178C714.861 197.178 714.793 197.195 714.742 197.195L714.725 197.178ZM711.861 186.082C711.505 186.082 711.183 185.862 711.081 185.506C710.759 184.473 710.437 183.44 710.098 182.406C709.963 181.983 710.183 181.508 710.624 181.373C711.064 181.22 711.522 181.458 711.657 181.898C711.996 182.948 712.335 183.982 712.657 185.032C712.793 185.472 712.539 185.93 712.115 186.048C712.03 186.065 711.963 186.082 711.878 186.082H711.861ZM708.047 175.275C707.725 175.275 707.42 175.088 707.285 174.766C706.878 173.767 706.471 172.751 706.03 171.751C705.861 171.328 706.03 170.853 706.454 170.684C706.861 170.498 707.352 170.684 707.539 171.107C707.962 172.124 708.386 173.123 708.81 174.157C708.979 174.58 708.776 175.054 708.352 175.224C708.251 175.258 708.149 175.275 708.047 175.275ZM703.318 164.823C703.013 164.823 702.725 164.653 702.589 164.365C702.098 163.4 701.606 162.434 701.081 161.486C700.861 161.079 701.013 160.588 701.42 160.385C701.827 160.164 702.318 160.317 702.539 160.723C703.064 161.689 703.573 162.672 704.064 163.654C704.267 164.061 704.098 164.552 703.708 164.755C703.589 164.823 703.471 164.84 703.335 164.84L703.318 164.823ZM697.708 154.828C697.437 154.828 697.166 154.693 697.013 154.439C696.437 153.524 695.861 152.609 695.267 151.695C695.013 151.322 695.132 150.814 695.505 150.56C695.877 150.306 696.386 150.407 696.64 150.797C697.25 151.712 697.844 152.643 698.42 153.575C698.657 153.965 698.539 154.473 698.149 154.71C698.013 154.795 697.861 154.828 697.725 154.828H697.708ZM691.233 145.376C690.979 145.376 690.742 145.258 690.572 145.054C689.911 144.19 689.25 143.326 688.572 142.479C688.284 142.124 688.352 141.616 688.708 141.328C689.064 141.04 689.572 141.107 689.86 141.463C690.555 142.327 691.216 143.191 691.877 144.072C692.149 144.428 692.081 144.953 691.708 145.224C691.555 145.342 691.386 145.393 691.216 145.393L691.233 145.376ZM683.911 136.551C683.691 136.551 683.47 136.466 683.301 136.28C682.572 135.483 681.826 134.687 681.064 133.908C680.742 133.586 680.758 133.061 681.08 132.756C681.403 132.434 681.928 132.451 682.233 132.773C682.996 133.569 683.742 134.365 684.487 135.178C684.792 135.517 684.775 136.025 684.436 136.33C684.284 136.466 684.081 136.551 683.877 136.551H683.911ZM675.775 128.47C675.572 128.47 675.385 128.403 675.233 128.267C674.419 127.539 673.606 126.827 672.775 126.133C672.436 125.845 672.385 125.32 672.674 124.981C672.962 124.642 673.487 124.591 673.826 124.879C674.657 125.591 675.487 126.319 676.318 127.047C676.657 127.352 676.691 127.861 676.385 128.199C676.216 128.386 675.996 128.47 675.775 128.47ZM666.86 121.254C666.69 121.254 666.521 121.203 666.385 121.102C665.504 120.458 664.622 119.848 663.724 119.238C663.351 118.984 663.25 118.476 663.504 118.103C663.758 117.731 664.267 117.629 664.639 117.883C665.555 118.51 666.453 119.137 667.334 119.78C667.707 120.051 667.775 120.56 667.521 120.932C667.368 121.152 667.114 121.271 666.86 121.271V121.254ZM657.249 115.02C657.114 115.02 656.978 114.986 656.843 114.919C655.91 114.377 654.961 113.851 653.995 113.343C653.588 113.123 653.453 112.632 653.656 112.242C653.876 111.836 654.368 111.7 654.758 111.903C655.724 112.429 656.69 112.954 657.639 113.496C658.029 113.716 658.165 114.224 657.944 114.614C657.792 114.885 657.521 115.02 657.232 115.02H657.249ZM646.995 109.888C646.876 109.888 646.775 109.871 646.673 109.82C645.673 109.379 644.673 108.973 643.673 108.566C643.249 108.397 643.046 107.923 643.215 107.499C643.385 107.076 643.859 106.872 644.283 107.042C645.3 107.448 646.317 107.872 647.334 108.312C647.741 108.499 647.944 108.973 647.758 109.396C647.622 109.701 647.317 109.888 647.012 109.888H646.995ZM636.266 105.822C636.266 105.822 636.096 105.822 636.012 105.788C634.978 105.449 633.944 105.128 632.91 104.806C632.469 104.67 632.232 104.213 632.367 103.789C632.503 103.349 632.961 103.112 633.384 103.247C634.435 103.569 635.486 103.891 636.537 104.247C636.961 104.382 637.198 104.857 637.062 105.28C636.944 105.619 636.622 105.839 636.283 105.839L636.266 105.822ZM625.249 102.671C625.249 102.671 625.113 102.671 625.045 102.654C623.994 102.4 622.927 102.146 621.876 101.892C621.435 101.79 621.164 101.35 621.266 100.91C621.367 100.469 621.808 100.198 622.249 100.3C623.316 100.537 624.384 100.791 625.452 101.062C625.893 101.164 626.164 101.621 626.045 102.061C625.961 102.434 625.622 102.688 625.249 102.688V102.671ZM614.045 100.249C614.045 100.249 613.943 100.249 613.892 100.249C612.825 100.046 611.757 99.8593 610.672 99.656C610.231 99.5713 609.926 99.1478 610.011 98.7074C610.096 98.267 610.52 97.9621 610.96 98.0468C612.045 98.2331 613.113 98.4364 614.198 98.6397C614.638 98.7243 614.943 99.1478 614.859 99.5883C614.791 99.9779 614.435 100.249 614.062 100.249H614.045ZM602.74 98.3347C602.74 98.3347 602.655 98.3347 602.621 98.3347C601.536 98.1653 600.468 98.0129 599.384 97.8604C598.943 97.7927 598.621 97.3861 598.689 96.9287C598.757 96.4714 599.197 96.1665 599.621 96.2342C600.706 96.3867 601.791 96.5561 602.875 96.7085C603.316 96.7763 603.638 97.1998 603.57 97.6402C603.502 98.0468 603.163 98.3347 602.757 98.3347H602.74ZM591.383 96.7255C591.383 96.7255 591.316 96.7255 591.265 96.7255L588.011 96.285C587.57 96.2342 587.248 95.8107 587.299 95.3703C587.349 94.9129 587.773 94.608 588.214 94.6588L591.468 95.0993C591.909 95.167 592.231 95.5736 592.163 96.014C592.112 96.4206 591.756 96.7255 591.35 96.7255H591.383ZM580.01 95.2178C580.01 95.2178 579.943 95.2178 579.892 95.2178L576.637 94.7774C576.18 94.7097 575.875 94.3031 575.942 93.8627C576.01 93.4222 576.417 93.1004 576.858 93.1681L580.112 93.6086C580.553 93.6763 580.875 94.0829 580.807 94.5233C580.756 94.9299 580.4 95.2348 579.993 95.2348L580.01 95.2178ZM568.654 93.6086C568.654 93.6086 568.569 93.6086 568.535 93.6086C567.451 93.4392 566.366 93.2698 565.281 93.1004C564.841 93.0326 564.535 92.6091 564.603 92.1687C564.671 91.7283 565.095 91.4064 565.535 91.4911C566.62 91.6605 567.688 91.8299 568.773 91.9993C569.213 92.0671 569.536 92.4906 569.468 92.931C569.4 93.3375 569.061 93.6255 568.654 93.6255V93.6086Z" fill="url(#paint3_linear_1857_2271)"/>
<path opacity="0.6" d="M698.047 308.556C697.928 308.556 697.81 308.522 697.691 308.471C697.284 308.268 697.115 307.777 697.318 307.37C697.793 306.387 698.267 305.405 698.725 304.422C698.928 304.016 699.403 303.83 699.81 304.033C700.217 304.219 700.403 304.71 700.2 305.117C699.742 306.116 699.267 307.099 698.776 308.081C698.64 308.369 698.335 308.539 698.047 308.539V308.556ZM702.81 298.121C702.708 298.121 702.589 298.104 702.488 298.053C702.064 297.884 701.878 297.393 702.047 296.986C702.471 295.987 702.895 294.987 703.301 293.971C703.471 293.547 703.962 293.344 704.369 293.513C704.793 293.683 704.996 294.157 704.827 294.581C704.42 295.597 703.996 296.613 703.573 297.63C703.437 297.935 703.132 298.138 702.81 298.138V298.121ZM706.979 287.432C706.895 287.432 706.793 287.432 706.708 287.381C706.284 287.229 706.064 286.754 706.217 286.331C706.59 285.315 706.946 284.281 707.285 283.248C707.42 282.824 707.895 282.587 708.318 282.74C708.742 282.892 708.979 283.35 708.827 283.773C708.471 284.806 708.115 285.84 707.742 286.873C707.623 287.212 707.301 287.415 706.962 287.415L706.979 287.432ZM710.522 276.523C710.522 276.523 710.369 276.523 710.285 276.489C709.844 276.353 709.607 275.913 709.725 275.473C710.03 274.422 710.335 273.389 710.624 272.339C710.742 271.898 711.183 271.644 711.624 271.763C712.064 271.881 712.318 272.339 712.2 272.762C711.912 273.813 711.607 274.88 711.302 275.93C711.2 276.286 710.878 276.523 710.522 276.523ZM713.42 265.427C713.42 265.427 713.302 265.427 713.234 265.41C712.793 265.309 712.522 264.868 712.624 264.428C712.861 263.361 713.098 262.311 713.319 261.243C713.403 260.803 713.844 260.515 714.285 260.617C714.725 260.701 715.013 261.142 714.912 261.582C714.691 262.649 714.454 263.733 714.2 264.801C714.115 265.173 713.776 265.444 713.403 265.444L713.42 265.427ZM715.624 254.179C715.624 254.179 715.539 254.179 715.488 254.179C715.047 254.112 714.742 253.688 714.81 253.248C714.98 252.181 715.149 251.096 715.302 250.029C715.369 249.572 715.793 249.267 716.234 249.335C716.675 249.402 716.997 249.809 716.929 250.266C716.776 251.351 716.607 252.435 716.437 253.519C716.369 253.925 716.03 254.213 715.624 254.213V254.179ZM717.081 242.813C717.081 242.813 717.03 242.813 716.997 242.813C716.539 242.779 716.217 242.373 716.251 241.915C716.352 240.831 716.454 239.747 716.522 238.663C716.556 238.205 716.946 237.867 717.403 237.9C717.861 237.934 718.2 238.324 718.166 238.781C718.081 239.882 717.997 240.967 717.895 242.068C717.861 242.491 717.505 242.813 717.081 242.813ZM717.759 231.362H717.742C717.285 231.362 716.929 230.972 716.946 230.532C716.98 229.448 716.98 228.363 716.997 227.279C716.997 226.822 717.369 226.466 717.81 226.466C718.268 226.466 718.624 226.839 718.624 227.296C718.624 228.397 718.607 229.498 718.573 230.583C718.573 231.023 718.2 231.379 717.759 231.379V231.362ZM717.624 219.894C717.183 219.894 716.827 219.555 716.81 219.114C716.759 218.03 716.691 216.946 716.607 215.862C716.573 215.405 716.912 215.015 717.369 214.981C717.776 214.93 718.217 215.286 718.251 215.743C718.336 216.844 718.386 217.929 718.454 219.03C718.471 219.487 718.132 219.86 717.675 219.894H717.641H717.624ZM716.624 208.476C716.217 208.476 715.861 208.171 715.81 207.765C715.675 206.681 715.522 205.614 715.369 204.546C715.302 204.106 715.607 203.682 716.064 203.615C716.488 203.564 716.929 203.852 716.997 204.309C717.166 205.393 717.319 206.477 717.454 207.579C717.505 208.019 717.2 208.442 716.742 208.493C716.708 208.493 716.675 208.493 716.641 208.493L716.624 208.476ZM714.725 197.178C714.352 197.178 714.013 196.907 713.929 196.534C713.708 195.467 713.471 194.416 713.217 193.366C713.115 192.926 713.386 192.485 713.827 192.384C714.268 192.282 714.708 192.553 714.81 192.993C715.064 194.061 715.302 195.128 715.539 196.212C715.624 196.652 715.352 197.093 714.912 197.178C714.861 197.178 714.793 197.195 714.742 197.195L714.725 197.178ZM711.861 186.082C711.505 186.082 711.183 185.862 711.081 185.506C710.759 184.473 710.437 183.44 710.098 182.406C709.963 181.983 710.183 181.508 710.624 181.373C711.064 181.22 711.522 181.458 711.657 181.898C711.996 182.948 712.335 183.982 712.657 185.032C712.793 185.472 712.539 185.93 712.115 186.048C712.03 186.065 711.963 186.082 711.878 186.082H711.861ZM708.047 175.275C707.725 175.275 707.42 175.088 707.285 174.766C706.878 173.767 706.471 172.751 706.03 171.751C705.861 171.328 706.03 170.853 706.454 170.684C706.861 170.498 707.352 170.684 707.539 171.107C707.962 172.124 708.386 173.123 708.81 174.157C708.979 174.58 708.776 175.054 708.352 175.224C708.251 175.258 708.149 175.275 708.047 175.275ZM703.318 164.823C703.013 164.823 702.725 164.653 702.589 164.365C702.098 163.4 701.606 162.434 701.081 161.486C700.861 161.079 701.013 160.588 701.42 160.385C701.827 160.164 702.318 160.317 702.539 160.723C703.064 161.689 703.573 162.672 704.064 163.654C704.267 164.061 704.098 164.552 703.708 164.755C703.589 164.823 703.471 164.84 703.335 164.84L703.318 164.823ZM697.708 154.828C697.437 154.828 697.166 154.693 697.013 154.439C696.437 153.524 695.861 152.609 695.267 151.695C695.013 151.322 695.132 150.814 695.505 150.56C695.877 150.306 696.386 150.407 696.64 150.797C697.25 151.712 697.844 152.643 698.42 153.575C698.657 153.965 698.539 154.473 698.149 154.71C698.013 154.795 697.861 154.828 697.725 154.828H697.708ZM691.233 145.376C690.979 145.376 690.742 145.258 690.572 145.054C689.911 144.19 689.25 143.326 688.572 142.479C688.284 142.124 688.352 141.616 688.708 141.328C689.064 141.04 689.572 141.107 689.86 141.463C690.555 142.327 691.216 143.191 691.877 144.072C692.149 144.428 692.081 144.953 691.708 145.224C691.555 145.342 691.386 145.393 691.216 145.393L691.233 145.376ZM683.911 136.551C683.691 136.551 683.47 136.466 683.301 136.28C682.572 135.483 681.826 134.687 681.064 133.908C680.742 133.586 680.758 133.061 681.08 132.756C681.403 132.434 681.928 132.451 682.233 132.773C682.996 133.569 683.742 134.365 684.487 135.178C684.792 135.517 684.775 136.025 684.436 136.33C684.284 136.466 684.081 136.551 683.877 136.551H683.911ZM675.775 128.47C675.572 128.47 675.385 128.403 675.233 128.267C674.419 127.539 673.606 126.827 672.775 126.133C672.436 125.845 672.385 125.32 672.674 124.981C672.962 124.642 673.487 124.591 673.826 124.879C674.657 125.591 675.487 126.319 676.318 127.047C676.657 127.352 676.691 127.861 676.385 128.199C676.216 128.386 675.996 128.47 675.775 128.47ZM666.86 121.254C666.69 121.254 666.521 121.203 666.385 121.102C665.504 120.458 664.622 119.848 663.724 119.238C663.351 118.984 663.25 118.476 663.504 118.103C663.758 117.731 664.267 117.629 664.639 117.883C665.555 118.51 666.453 119.137 667.334 119.78C667.707 120.051 667.775 120.56 667.521 120.932C667.368 121.152 667.114 121.271 666.86 121.271V121.254ZM657.249 115.02C657.114 115.02 656.978 114.986 656.843 114.919C655.91 114.377 654.961 113.851 653.995 113.343C653.588 113.123 653.453 112.632 653.656 112.242C653.876 111.836 654.368 111.7 654.758 111.903C655.724 112.429 656.69 112.954 657.639 113.496C658.029 113.716 658.165 114.224 657.944 114.614C657.792 114.885 657.521 115.02 657.232 115.02H657.249ZM646.995 109.888C646.876 109.888 646.775 109.871 646.673 109.82C645.673 109.379 644.673 108.973 643.673 108.566C643.249 108.397 643.046 107.923 643.215 107.499C643.385 107.076 643.859 106.872 644.283 107.042C645.3 107.448 646.317 107.872 647.334 108.312C647.741 108.499 647.944 108.973 647.758 109.396C647.622 109.701 647.317 109.888 647.012 109.888H646.995ZM636.266 105.822C636.266 105.822 636.096 105.822 636.012 105.788C634.978 105.449 633.944 105.128 632.91 104.806C632.469 104.67 632.232 104.213 632.367 103.789C632.503 103.349 632.961 103.112 633.384 103.247C634.435 103.569 635.486 103.891 636.537 104.247C636.961 104.382 637.198 104.857 637.062 105.28C636.944 105.619 636.622 105.839 636.283 105.839L636.266 105.822ZM625.249 102.671C625.249 102.671 625.113 102.671 625.045 102.654C623.994 102.4 622.927 102.146 621.876 101.892C621.435 101.79 621.164 101.35 621.266 100.91C621.367 100.469 621.808 100.198 622.249 100.3C623.316 100.537 624.384 100.791 625.452 101.062C625.893 101.164 626.164 101.621 626.045 102.061C625.961 102.434 625.622 102.688 625.249 102.688V102.671ZM614.045 100.249C614.045 100.249 613.943 100.249 613.892 100.249C612.825 100.046 611.757 99.8593 610.672 99.656C610.231 99.5713 609.926 99.1478 610.011 98.7074C610.096 98.267 610.52 97.9621 610.96 98.0468C612.045 98.2331 613.113 98.4364 614.198 98.6397C614.638 98.7243 614.943 99.1478 614.859 99.5883C614.791 99.9779 614.435 100.249 614.062 100.249H614.045ZM602.74 98.3347C602.74 98.3347 602.655 98.3347 602.621 98.3347C601.536 98.1653 600.468 98.0129 599.384 97.8604C598.943 97.7927 598.621 97.3861 598.689 96.9287C598.757 96.4714 599.197 96.1665 599.621 96.2342C600.706 96.3867 601.791 96.5561 602.875 96.7085C603.316 96.7763 603.638 97.1998 603.57 97.6402C603.502 98.0468 603.163 98.3347 602.757 98.3347H602.74ZM591.383 96.7255C591.383 96.7255 591.316 96.7255 591.265 96.7255L588.011 96.285C587.57 96.2342 587.248 95.8107 587.299 95.3703C587.349 94.9129 587.773 94.608 588.214 94.6588L591.468 95.0993C591.909 95.167 592.231 95.5736 592.163 96.014C592.112 96.4206 591.756 96.7255 591.35 96.7255H591.383ZM580.01 95.2178C580.01 95.2178 579.943 95.2178 579.892 95.2178L576.637 94.7774C576.18 94.7097 575.875 94.3031 575.942 93.8627C576.01 93.4222 576.417 93.1004 576.858 93.1681L580.112 93.6086C580.553 93.6763 580.875 94.0829 580.807 94.5233C580.756 94.9299 580.4 95.2348 579.993 95.2348L580.01 95.2178ZM568.654 93.6086C568.654 93.6086 568.569 93.6086 568.535 93.6086C567.451 93.4392 566.366 93.2698 565.281 93.1004C564.841 93.0326 564.535 92.6091 564.603 92.1687C564.671 91.7283 565.095 91.4064 565.535 91.4911C566.62 91.6605 567.688 91.8299 568.773 91.9993C569.213 92.0671 569.536 92.4906 569.468 92.931C569.4 93.3375 569.061 93.6255 568.654 93.6255V93.6086Z" fill="white"/>
<path d="M319.634 185.151H49.6445V356.004H319.634V185.151Z" fill="white" stroke="#00005B" stroke-miterlimit="10"/>
<path d="M134.223 165.297L128.986 150.323H44.3906V368.454H324.872V165.314H134.223V165.297ZM319.634 356.004H49.645V185.133H319.634V356.004Z" fill="url(#paint4_linear_1857_2271)" stroke="#00005B" stroke-linecap="round" stroke-linejoin="round"/>
<path d="M56.1549 169.634L52.2734 173.361L56.2905 177.663" fill="url(#paint5_linear_1857_2271)"/>
<path d="M56.1549 169.634L52.2734 173.361L56.2905 177.663" stroke="#00005B" stroke-linecap="round" stroke-linejoin="round"/>
<path d="M52.2734 173.361H60.8838" stroke="#00005B" stroke-linecap="round" stroke-linejoin="round"/>
<path d="M78.0692 169.634L81.9506 173.361L77.9336 177.663" fill="url(#paint6_linear_1857_2271)"/>
<path d="M78.0692 169.634L81.9506 173.361L77.9336 177.663" stroke="#00005B" stroke-linecap="round" stroke-linejoin="round"/>
<path d="M81.9502 173.361H73.3398" stroke="#00005B" stroke-linecap="round" stroke-linejoin="round"/>
<path d="M100.426 172.818C99.9173 171.039 98.3071 169.803 96.4596 169.769C94.3239 169.769 92.5781 171.514 92.5781 173.648C92.5781 175.782 94.3239 177.527 96.4596 177.527C97.3579 177.527 98.2223 177.222 98.9003 176.663" fill="url(#paint7_linear_1857_2271)"/>
<path d="M100.426 172.818C99.9173 171.039 98.3071 169.803 96.4596 169.769C94.3239 169.769 92.5781 171.514 92.5781 173.648C92.5781 175.782 94.3239 177.527 96.4596 177.527C97.3579 177.527 98.2223 177.222 98.9003 176.663" stroke="#00005B" stroke-linecap="round" stroke-linejoin="round"/>
<path d="M97.7969 173.293H100.831V169.736" fill="url(#paint8_linear_1857_2271)"/>
<path d="M97.7969 173.293H100.831V169.736" stroke="#00005B" stroke-linecap="round" stroke-linejoin="round"/>
<path d="M119.629 158.081L125.07 163.671" stroke="#00005B" stroke-linecap="round" stroke-linejoin="round"/>
<path d="M125.17 158.165L119.543 163.586" stroke="#00005B" stroke-linecap="round" stroke-linejoin="round"/>
<path d="M255.243 476.902L213.615 395.728L93.2227 460.979L135.054 537.614L255.243 476.902Z" fill="white"/>
<path d="M204.751 417.664L180.666 477.868L93.7148 461.25L174.446 468.805L201.548 416.868L204.751 417.664Z" fill="url(#paint9_linear_1857_2271)"/>
<path opacity="0.5" d="M204.751 417.664L180.666 477.868L93.7148 461.25L174.446 468.805L201.548 416.868L204.751 417.664Z" fill="white"/>
<path d="M93.6445 460.708L135.052 537.614L255.241 476.902L213.088 396.235L93.6445 460.708Z" stroke="#C3AAFF" stroke-linecap="round" stroke-linejoin="round"/>
<path d="M93.6445 460.708L174.443 468.805L213.088 396.235" stroke="#C3AAFF" stroke-linecap="round" stroke-linejoin="round"/>
<path d="M221.435 412.107C228.372 405.174 228.372 393.933 221.435 387.001C214.498 380.068 203.251 380.068 196.314 387.001C189.377 393.933 189.377 405.174 196.314 412.107C203.251 419.04 214.498 419.04 221.435 412.107Z" fill="url(#paint10_linear_1857_2271)"/>
<path opacity="0.3" d="M221.435 412.107C228.372 405.174 228.372 393.933 221.435 387.001C214.498 380.068 203.251 380.068 196.314 387.001C189.377 393.933 189.377 405.174 196.314 412.107C203.251 419.04 214.498 419.04 221.435 412.107Z" fill="black"/>
<path d="M208.869 417.851C218.679 417.851 226.632 409.903 226.632 400.098C226.632 390.294 218.679 382.346 208.869 382.346C199.058 382.346 191.105 390.294 191.105 400.098C191.105 409.903 199.058 417.851 208.869 417.851Z" stroke="#C3AAFF" stroke-linecap="round" stroke-linejoin="round"/>
<path d="M208.869 412.904C218.679 412.904 226.632 404.956 226.632 395.151C226.632 385.347 218.679 377.398 208.869 377.398C199.058 377.398 191.105 385.347 191.105 395.151C191.105 404.956 199.058 412.904 208.869 412.904Z" fill="url(#paint11_linear_1857_2271)"/>
<path d="M208.869 412.904C218.679 412.904 226.632 404.956 226.632 395.151C226.632 385.347 218.679 377.398 208.869 377.398C199.058 377.398 191.105 385.347 191.105 395.151C191.105 404.956 199.058 412.904 208.869 412.904Z" stroke="#C3AAFF" stroke-linecap="round" stroke-linejoin="round"/>
<path d="M489.64 290.058H404.604C401.796 290.058 399.52 292.333 399.52 295.14V342.452C399.52 345.259 401.796 347.534 404.604 347.534H489.64C492.449 347.534 494.725 345.259 494.725 342.452V295.14C494.725 292.333 492.449 290.058 489.64 290.058Z" fill="white"/>
<path d="M489.64 290.058H404.604C401.796 290.058 399.52 292.333 399.52 295.14V342.452C399.52 345.259 401.796 347.534 404.604 347.534H489.64C492.449 347.534 494.725 345.259 494.725 342.452V295.14C494.725 292.333 492.449 290.058 489.64 290.058Z" stroke="#C3AAFF" stroke-linecap="round" stroke-linejoin="round"/>
<path d="M488.893 298.799H405.789V302.678H488.893V298.799Z" fill="url(#paint12_linear_1857_2271)"/>
<path d="M488.893 307.76H405.789V311.639H488.893V307.76Z" fill="url(#paint13_linear_1857_2271)"/>
<path d="M488.893 316.721H405.789V320.6H488.893V316.721Z" fill="url(#paint14_linear_1857_2271)"/>
<path d="M488.893 325.682H405.789V329.561H488.893V325.682Z" fill="url(#paint15_linear_1857_2271)"/>
<path d="M488.893 334.644H405.789V338.523H488.893V334.644Z" fill="url(#paint16_linear_1857_2271)"/>
<path d="M394.298 336.777C380.807 344.299 368.061 352.853 357.145 363.745C331.755 389.07 319.195 424.033 301.127 454.965C282.686 486.541 257.973 514.457 228.82 536.631C198.785 559.5 163.174 576.473 125.462 579.184C87.749 581.894 47.9176 568.884 23.3238 540.29C-1.27003 511.696 -7.33796 466.942 13.4422 435.485C30.5612 409.567 64.4942 395.88 94.9017 402.622C106.8 405.264 117.868 410.634 128.818 415.97C134.445 418.714 140.089 421.459 145.716 424.203" stroke="#C3AAFF" stroke-linecap="round" stroke-linejoin="round"/>
<path d="M445.926 172.802C462.943 164.721 483.096 162.401 500.842 168.736C518.588 175.072 533.284 190.673 536.335 209.239C538.962 225.264 532.979 241.814 523.233 254.789C515.944 264.496 506.707 272.474 496.842 279.64" stroke="#C3AAFF" stroke-linecap="round" stroke-linejoin="round"/>
<path d="M346.872 254.942L361.703 245.659L398.924 200.328L429.044 225.602L390.467 269.086L384.89 265.173L353.313 271.796C353.313 271.796 350.144 259.38 346.855 254.942H346.872Z" fill="white"/>
<path d="M128.12 245.693L113.137 257.567L117.188 265.953C117.188 265.953 117.95 276.794 124.205 280.148C130.459 283.519 147.019 272.796 147.019 272.796C147.019 272.796 148.731 261.396 142.968 252.977L128.137 245.676L128.12 245.693Z" fill="white"/>
<path d="M303.566 119.12C303.566 119.12 277.922 168.668 262.82 172.09L256.836 174.089C256.836 174.089 251.43 191.164 233.056 194.027L235.463 179.798L222.09 192.994C222.09 192.994 200.53 173.259 205.666 146.494L224.531 147.731L232.938 131.977C232.938 131.977 225.768 127.963 227.48 119.984C229.192 112.005 230.904 104.603 239.158 111.158C239.158 111.158 257.108 120.272 271.65 107.449C286.193 94.6253 290.176 92.9313 297.871 97.4881C297.871 97.4881 295.871 115.139 303.566 119.137V119.12Z" fill="white"/>
<path d="M222.088 192.976C222.088 192.976 202.223 179.848 205.393 147.392C205.393 147.392 181.07 142.191 146.239 144.902L42.7617 235.715C42.7617 235.715 46.2194 249.419 61.0503 252.333C75.8811 255.247 112.424 257.601 112.424 257.601L126.696 245.134L94.3222 231.819L144.612 202.005L144.645 251.892C144.645 251.892 150.307 268.646 147.035 272.813L125.221 294.834C125.221 294.834 161.9 362.559 244.326 319.77L235.563 272.796C235.563 272.796 249.326 269.205 241.343 261.701L254.631 239.95C254.631 239.95 268.648 290.566 281.14 303.592L352.023 272.406C352.023 272.406 350.142 260.261 346.345 255.365L296.429 266.715C296.429 266.715 297.259 221.74 293.988 207.104C290.734 192.451 284.428 177.951 270.835 168.058C270.835 168.058 261.818 174.394 257.462 172.225C257.462 172.225 249.614 194.111 233.071 194.044L235.698 178.73L223.868 191.452L222.122 193.01" fill="url(#paint17_linear_1857_2271)"/>
<path d="M297.5 99.758C293.5 99.758 289.737 101.825 286.686 104.416C283.635 107.008 281.109 110.159 278.211 112.92C270.058 120.695 258.906 125.218 247.634 125.337C246.787 132.18 244.058 138.787 239.837 144.258C238.651 145.783 237.261 147.511 237.6 149.425C237.753 150.323 238.278 151.119 238.803 151.864C240.498 154.354 242.193 156.845 243.905 159.335C244.397 160.046 244.888 160.808 244.956 161.655C245.075 163.248 243.668 164.501 242.397 165.484C238.786 168.279 235.159 171.057 231.549 173.852C231.549 173.852 224.176 155.777 224.549 147.697L232.956 131.943C232.956 131.943 217.006 113.276 229.6 106.822C242.193 100.385 250.109 108.584 250.109 108.584C250.109 108.584 280.279 93.9477 289.364 94.2356C298.449 94.5236 297.517 99.741 297.517 99.741L297.5 99.758Z" fill="url(#paint18_linear_1857_2271)"/>
<path opacity="0.6" d="M297.5 99.758C293.5 99.758 289.737 101.825 286.686 104.416C283.635 107.008 281.109 110.159 278.211 112.92C270.058 120.695 258.906 125.218 247.634 125.337C246.787 132.18 244.058 138.787 239.837 144.258C238.651 145.783 237.261 147.511 237.6 149.425C237.753 150.323 238.278 151.119 238.803 151.864C240.498 154.354 242.193 156.845 243.905 159.335C244.397 160.046 244.888 160.808 244.956 161.655C245.075 163.248 243.668 164.501 242.397 165.484C238.786 168.279 235.159 171.057 231.549 173.852C231.549 173.852 224.176 155.777 224.549 147.697L232.956 131.943C232.956 131.943 217.006 113.276 229.6 106.822C242.193 100.385 250.109 108.584 250.109 108.584C250.109 108.584 280.279 93.9477 289.364 94.2356C298.449 94.5236 297.517 99.741 297.517 99.741L297.5 99.758Z" fill="white"/>
<path d="M303.397 115.783C303.397 115.783 286.583 157.81 264.057 171.921C264.057 171.921 262.548 173.429 257.752 171.921C252.938 170.414 242.429 158.42 238.531 152.407C236.7 149.595 236.056 145.394 235.887 141.718" stroke="#00005B" stroke-linecap="round" stroke-linejoin="round"/>
<path d="M261.953 146.409C261.953 146.409 264.055 152.406 270.36 153.609" stroke="#00005B" stroke-linecap="round" stroke-linejoin="round"/>
<path d="M284.412 120.323C282.089 117.477 278.14 116.071 274.547 116.782" stroke="#00005B" stroke-linecap="round" stroke-linejoin="round"/>
<path d="M291.887 124.575C294.395 123.643 297.463 124.541 299.073 126.658" stroke="#00005B" stroke-linecap="round" stroke-linejoin="round"/>
<path d="M288.973 128.606C287.109 130.453 285.617 132.706 284.922 135.213C284.228 137.72 284.329 140.515 285.499 142.853C285.99 143.852 286.668 144.784 286.889 145.885C287.109 146.986 286.651 148.324 285.566 148.612C285.075 148.748 284.566 148.629 284.075 148.511C281.075 147.748 278.21 146.461 275.668 144.699" stroke="#00005B" stroke-linecap="round" stroke-linejoin="round"/>
<path d="M240.871 118.832C240.498 117.155 239.989 115.512 239.379 113.92C238.599 111.921 237.277 109.735 235.125 109.481C234.362 109.397 233.582 109.583 232.87 109.905C230.786 110.87 229.396 112.988 228.887 115.241C228.362 117.477 228.599 119.831 229.023 122.084C229.379 123.999 229.887 125.896 230.514 127.742C231.04 129.301 231.701 130.893 232.955 131.96C234.464 133.248 236.735 133.57 238.532 132.739C240.328 131.909 241.549 129.961 241.532 127.979" stroke="#00005B" stroke-linecap="round" stroke-linejoin="round"/>
<path d="M231.868 131.316C229.936 137.72 227.8 142.395 224.461 147.748" stroke="#00005B" stroke-linecap="round" stroke-linejoin="round"/>
<path d="M112.41 257.601L117.19 265.952C117.19 265.952 117.495 277.573 123.461 279.961C129.427 282.35 147.021 272.813 147.021 272.813C147.326 271.915 148.852 263.462 144.377 253.637C144.377 253.637 135.953 248.877 126.682 245.15" stroke="#00005B" stroke-linecap="round" stroke-linejoin="round"/>
<path d="M138.357 276.387L133.883 259.092" stroke="#00005B" stroke-linecap="round" stroke-linejoin="round"/>
<path d="M130.205 279.183L124.629 261.769" stroke="#00005B" stroke-linecap="round" stroke-linejoin="round"/>
<path d="M93.9844 231.566L156.545 195.298" stroke="#00005B" stroke-linecap="round" stroke-linejoin="round"/>
<path d="M145.309 201.989C151.275 201.769 155.055 201.531 161.021 201.328" stroke="#00005B" stroke-linecap="round" stroke-linejoin="round"/>
<path d="M144.902 202.361V253.621" stroke="#00005B" stroke-linecap="round" stroke-linejoin="round"/>
<path d="M269.598 167.635C269.598 167.635 284.581 172.463 294.124 204.953C297.293 232.971 296.446 267.189 296.446 267.189" stroke="#00005B" stroke-linecap="round" stroke-linejoin="round"/>
<path d="M363.77 244.49C363.77 244.49 381.584 245.117 381.143 248.149C380.702 251.181 365.922 254.01 365.922 254.01C365.922 254.01 366.041 254.264 366.142 254.722C366.142 254.722 369.736 261.345 364.515 264.411" stroke="#00005B" stroke-linecap="round" stroke-linejoin="round"/>
<path d="M363.076 244.405C355.652 248.352 346.618 255.128 346.618 255.128L295.074 268.29" stroke="#00005B" stroke-linecap="round" stroke-linejoin="round"/>
<path d="M196.648 271.797C196.648 271.797 211.869 277.878 231.971 266.325" stroke="#00005B" stroke-linecap="round" stroke-linejoin="round"/>
<path d="M276.989 129.961C276.209 132.146 274.701 133.62 273.65 133.23C272.582 132.857 272.361 130.774 273.141 128.589C273.921 126.403 275.429 124.93 276.48 125.319C277.548 125.692 277.768 127.776 276.989 129.978V129.961Z" fill="#00005B"/>
<path d="M292.227 133.603C291.447 135.789 289.939 137.262 288.888 136.873C287.82 136.5 287.6 134.416 288.379 132.231C289.159 130.046 290.668 128.572 291.719 128.962C292.786 129.335 293.007 131.418 292.227 133.603Z" fill="#00005B"/>
<path d="M204.004 345.84C206.902 345.705 209.885 345.467 212.97 345.095" stroke="#00005B" stroke-linecap="round" stroke-linejoin="round"/>
<path d="M128.258 317.331C128.258 317.331 149.106 344.57 194.581 345.925" stroke="#00005B" stroke-linecap="round" stroke-linejoin="round"/>
<path d="M371.754 253.366L390.467 269.086L429.044 225.602L399.28 199.922L361.602 244.795" stroke="#00005B" stroke-linecap="round" stroke-linejoin="round"/>
<path d="M399.28 199.922L395.331 235.207L361.602 244.795" stroke="#00005B" stroke-linecap="round" stroke-linejoin="round"/>
<path d="M239.362 113.919C239.362 113.919 261.414 119.543 276.651 106.076C291.889 92.6093 296.499 100.046 296.499 100.046C296.499 100.046 292.601 113.157 301.465 119.171L322.839 99.6053C322.839 99.6053 311.398 87.2733 297.211 89.4077C297.211 89.4077 286.55 66.59 268.516 65.0485C247.278 63.2359 198.022 82.2083 226.498 143.615L231.633 131.554C231.633 131.554 226.311 115.054 232.854 109.854C237.65 106.042 239.362 113.885 239.362 113.885V113.919Z" fill="#00005B"/>
<path d="M304.006 94.0492C304.854 94.388 307.888 93.287 309.04 93.3039C311.227 93.3547 313.396 93.9137 315.413 94.7438C320.007 96.641 324.549 100.402 327.854 104.094C334.922 112.005 341.516 122.525 353.228 123.253C363.669 123.914 371.279 115.969 381.228 114.766C401.941 112.276 417.212 133.315 414.585 152.389C408.704 195.264 343.55 221.283 294.735 212.339C293.074 212.034 294.548 185.015 270.785 168.008C270.785 168.008 301.396 131.909 303.43 113.242C305.447 94.6252 304.006 94.0323 304.006 94.0323V94.0492Z" fill="#00005B"/>
<path d="M296.853 90.5596C296.853 90.5596 298.938 76.6014 283.785 64.1338" stroke="#00005B" stroke-linecap="round" stroke-linejoin="round"/>
<path d="M224.528 147.714C224.528 147.714 224.172 158.165 235.681 178.696L222.087 192.976C222.087 192.976 199.782 176.951 206.053 145.969L224.511 147.714H224.528Z" stroke="#00005B" stroke-linecap="round" stroke-linejoin="round"/>
<path d="M257.752 171.921C247.972 195.806 233.039 194.01 233.039 194.01L235.666 178.697C235.666 178.697 245.734 173.107 250.362 167.026C250.531 166.805 250.175 167.246 250.277 167.127" stroke="#00005B" stroke-linecap="round" stroke-linejoin="round"/>
<path d="M145.223 274.287L140.121 256.449" stroke="#00005B" stroke-linecap="round" stroke-linejoin="round"/>
<path d="M268.684 215.896L241.293 261.667C241.293 261.667 244.192 264.547 243.192 267.545C242.192 270.527 235.361 272.831 235.361 272.831C235.361 272.831 244.259 319.618 244.276 319.737C244.819 322.633 219.988 330.171 217.547 330.832C197.665 336.219 176.783 335.694 158.24 325.648C145.071 318.517 133.206 307.506 125.172 294.818L145.206 274.287" stroke="#00005B" stroke-linecap="round" stroke-linejoin="round"/>
<path d="M254.82 239.713C254.82 239.713 259.125 265.495 281.092 303.558L352.348 272.034L384.111 264.801" stroke="#00005B" stroke-linecap="round" stroke-linejoin="round"/>
<path d="M296.871 267.173C289.718 270.103 284.549 277.354 284.125 285.078" stroke="#00005B" stroke-linecap="round" stroke-linejoin="round"/>
<path d="M279.43 273.237C282.904 270.56 286.769 268.375 290.871 266.8" stroke="#00005B" stroke-linecap="round" stroke-linejoin="round"/>
<path d="M352.363 272.034C353.533 268.527 346.617 255.128 346.617 255.128" stroke="#00005B" stroke-linecap="round" stroke-linejoin="round"/>
<path d="M206.089 146.867C186.088 144.715 153.613 141.768 147.308 144.614C138.053 148.781 77.6113 205.021 77.6113 205.021L42.7461 235.715C43.3054 246.794 61.0347 252.333 61.0347 252.333L112.409 257.601L128.121 245.693C128.121 245.693 83.7809 226.297 67.1365 224.637" stroke="#00005B" stroke-linecap="round" stroke-linejoin="round"/>
<path d="M77.2227 217.454C77.2227 217.454 91.7823 221.858 93.9858 231.565" stroke="#00005B" stroke-linecap="round" stroke-linejoin="round"/>
<path d="M296.754 133.892C300.923 140.549 305.534 147.206 312.025 151.661C319.839 157.031 329.839 158.691 339.246 157.522C348.653 156.354 357.569 152.491 365.739 147.664C371.247 144.394 376.569 140.634 382.62 138.55C388.671 136.466 395.858 136.365 401.061 140.108" stroke="white" stroke-width="0.5" stroke-linecap="round" stroke-linejoin="round"/>
<path d="M286.445 151.763C286.717 161.401 287.547 171.514 292.818 179.595C297.632 186.963 305.7 191.757 314.175 194.095C323.531 196.67 333.616 196.517 342.87 193.638C350.532 191.249 357.498 187.116 364.769 183.762C372.057 180.408 380.024 177.782 387.973 178.748" stroke="white" stroke-width="0.5" stroke-linecap="round" stroke-linejoin="round"/>
<path d="M394.637 433.164L396.027 417.986L408.688 411.126L389.518 375.519L335.5 403.706L354.382 439.144L366.06 433.384L389.061 445.429L394.637 433.164Z" fill="white"/>
<path d="M570.032 271.407C570.032 271.407 552.489 312.333 550.896 326.139C549.302 339.961 550.099 346.873 556.743 351.65C563.388 356.427 575.49 356.664 575.49 356.664L574.337 363.948C574.337 363.948 569.506 363.592 565.794 369.182C562.065 374.755 562.133 378.414 562.133 378.414C562.133 378.414 566.794 396.726 570.54 397.031C574.303 397.336 578.286 384.496 578.286 384.496C578.286 384.496 581.642 402.824 584.88 402.215C588.117 401.588 617.897 381.667 617.897 381.667C617.897 381.667 620.558 367.844 614.05 360.679C614.05 360.679 612.321 346.974 614.185 340.605C614.185 340.605 627.05 342.231 627.745 329.069C628.355 317.347 622.169 312.333 618.44 317.11L609.66 295.054L613.118 279.368L570.049 271.39L570.032 271.407Z" fill="white"/>
<path d="M576.351 275.489L577.707 277.861C577.707 277.861 556.283 313.197 557.3 336.319C558.317 359.425 591.301 353.31 591.301 353.31C591.301 353.31 589.267 382.192 577.012 380.498L573.944 373.366L574.826 357.24C574.826 357.24 562.046 358.409 554.232 350.599C546.418 342.79 550.147 326.139 557.3 303.355C564.436 280.588 570.029 271.39 570.029 271.39L576.351 275.489Z" fill="url(#paint19_linear_1857_2271)"/>
<path opacity="0.6" d="M576.351 275.489L577.707 277.861C577.707 277.861 556.283 313.197 557.3 336.319C558.317 359.425 591.301 353.31 591.301 353.31C591.301 353.31 589.267 382.192 577.012 380.498L573.944 373.366L574.826 357.24C574.826 357.24 562.046 358.409 554.232 350.599C546.418 342.79 550.147 326.139 557.3 303.355C564.436 280.588 570.029 271.39 570.029 271.39L576.351 275.489Z" fill="white"/>
<path d="M679.95 438.262C678.747 445.665 676.205 452.915 672.832 459.691C669.187 467.009 664.56 473.768 659.56 479.51L662.526 507.427L669.628 549.014C669.628 549.014 669.577 549.048 669.56 549.065C669.459 549.132 669.34 549.217 669.238 549.302C668.815 549.624 668.052 550.183 666.967 550.945H561.778C559.015 544.542 555.948 537.292 553.066 530.16C547.812 517.133 543.168 504.53 542.117 498.212C541.981 497.365 541.913 496.653 541.896 496.044L524.048 478.223L465.149 510.273L389.215 446.055L389.333 445.834L397.046 430.419L397.079 430.335L472.607 466.365L488.251 444.75L488.471 444.039V443.954L492.963 429.318L493.014 429.166L495.811 420.018L499.387 408.313L521.743 397.658L521.811 397.624L562.117 378.415L562.168 378.618C562.371 379.312 562.999 381.565 563.897 384.293C564.1 384.953 564.304 385.614 564.541 386.275C564.694 386.766 564.863 387.257 565.049 387.731C565.897 390.052 566.829 392.373 567.761 394.118C567.931 394.44 568.117 394.744 568.287 395.015C568.558 395.456 568.829 395.846 569.083 396.15C569.083 396.184 569.134 396.201 569.151 396.235C569.626 396.777 570.1 397.065 570.524 397.031C572.423 396.879 574.711 392.746 576.321 389.273C576.355 389.171 576.406 389.053 576.456 388.951C577.372 386.901 578.05 385.14 578.236 384.648C578.27 384.564 578.287 384.513 578.287 384.513C578.287 384.513 578.304 384.581 578.321 384.716C578.575 386.325 580.474 397.421 583.202 401.063C583.287 401.181 583.389 401.3 583.474 401.419C583.914 401.91 584.389 402.198 584.863 402.215H584.897C586.219 402.215 590.372 399.691 595.338 396.337C595.355 396.337 595.372 396.32 595.389 396.303C604.559 390.103 616.44 381.04 618.186 379.719C618.339 379.583 618.407 379.533 618.407 379.533C618.407 379.533 619.102 376.619 618.407 369.775C618.407 369.775 618.508 369.809 618.695 369.877L667.764 388.832C667.764 388.832 667.764 388.849 667.781 388.849L669.204 389.392C669.204 389.392 676.34 398.132 680.035 419.713C681.086 425.863 680.984 432.113 679.95 438.262Z" fill="url(#paint20_linear_1857_2271)"/>
<path d="M517.589 421.069L522.131 395.439L467.757 380.837L458.367 420.188L480.029 426.964L489.826 446.8L504.707 457.015L521.03 441.803L522.42 429.657L517.589 421.069Z" fill="white"/>
<path d="M396.028 417.986L408.655 411.718L389.621 375.298L335.688 404.417L354.383 439.143L379.79 426.151" stroke="#00005B" stroke-linecap="round" stroke-linejoin="round"/>
<path d="M335.688 404.417L372.18 408.059L389.621 375.298" stroke="#00005B" stroke-linecap="round" stroke-linejoin="round"/>
<path d="M508.979 434.806L514.775 436.484L522.318 394.829L467.774 380.6L458.367 420.188L479.3 426.235" stroke="#00005B" stroke-linecap="round" stroke-linejoin="round"/>
<path d="M468.047 380.6L489.708 407.652L522.319 394.829" stroke="#00005B" stroke-linecap="round" stroke-linejoin="round"/>
<path d="M572.368 265.868C572.368 265.868 551.012 314.214 549.571 333.864C548.147 353.395 566.47 356.411 566.69 356.444C573.945 357.613 581.775 357.156 588.572 354.225C594.047 351.871 598.42 347.517 602.979 343.774" stroke="#00005B" stroke-linecap="round" stroke-linejoin="round"/>
<path d="M568.537 320.464L559.91 315.687L569.978 294.123" stroke="#00005B" stroke-linecap="round" stroke-linejoin="round"/>
<path d="M579.286 303.592C578.659 305.506 578.964 307.319 579.981 307.657C580.998 307.996 582.337 306.726 582.964 304.812C583.591 302.897 583.286 301.085 582.269 300.746C581.252 300.407 579.913 301.678 579.286 303.592Z" fill="#00005B"/>
<path d="M562.775 297.409C562.147 299.324 562.453 301.136 563.47 301.475C564.486 301.814 565.826 300.543 566.453 298.629C567.08 296.715 566.775 294.902 565.758 294.563C564.741 294.225 563.402 295.495 562.775 297.409Z" fill="#00005B"/>
<path d="M580.44 324.767C580.44 324.767 576.151 330.441 568.066 329.408" stroke="#00005B" stroke-linecap="round" stroke-linejoin="round"/>
<path d="M580.133 293.141C582.014 291.921 584.658 292.683 586.269 294.242C587.879 295.817 588.692 298.002 589.455 300.103" stroke="#00005B" stroke-width="2" stroke-linecap="round" stroke-linejoin="round"/>
<path d="M570.69 290.447C570.216 289.075 568.91 288.025 567.47 287.873C566.029 287.72 564.521 288.449 563.758 289.685" stroke="#00005B" stroke-width="2" stroke-linecap="round" stroke-linejoin="round"/>
<path d="M613.644 326.833C613.644 326.833 619.356 317.5 625.322 319.566C631.288 321.65 628.441 330.204 625.576 335.642C622.729 341.097 615.457 341.351 611.305 339.013" stroke="#00005B" stroke-linecap="round" stroke-linejoin="round"/>
<path d="M627.102 332.085C627.102 332.085 632.78 322.514 626.746 319.329C620.729 316.145 613.305 326.935 613.305 326.935C613.118 327.071 612.542 326.935 611.779 326.664C608.847 325.597 607.474 322.294 608.661 319.397C608.915 318.804 609.118 318.211 609.305 317.652C610.101 315.247 610.389 312.52 609.915 310.012C608.932 304.829 605.237 300.611 605.83 295.072C606.288 290.837 607.711 286.466 609.678 282.672C578.846 288.838 560.354 271.373 564.473 257.008C568.575 242.627 578.338 255.467 599.915 247.251C621.491 239.035 636.966 274.067 636.966 274.067C658.543 288.956 637.915 309.894 637.915 309.894L626.898 332.695L627.068 332.102L627.102 332.085Z" fill="#00005B"/>
<path d="M659.492 478.731C660.289 505.92 669.628 549.014 669.628 549.014C669.611 549.031 669.577 549.048 669.56 549.065C669.459 549.133 669.34 549.217 669.238 549.302C668.458 549.861 667.679 550.403 666.899 550.945" stroke="#00005B" stroke-linecap="round" stroke-linejoin="round"/>
<path d="M561.132 550.945C558.386 544.474 555.708 537.495 553.064 530.16C549.2 519.421 545.454 507.902 541.895 496.044" stroke="#00005B" stroke-linecap="round" stroke-linejoin="round"/>
<path d="M618.422 369.793C618.422 369.793 662.253 385.36 668.932 389.494" stroke="#00005B" stroke-linecap="round" stroke-linejoin="round"/>
<path d="M579.046 382.379C575.606 379.855 573.673 373.384 574.453 368.624L575.521 357.443" stroke="#00005B" stroke-linecap="round" stroke-linejoin="round"/>
<path d="M614.25 340.114C614.25 340.114 612.047 347.483 613.861 360.679" stroke="#00005B" stroke-linecap="round" stroke-linejoin="round"/>
<path d="M599.66 496.315L521.743 441.566L504.691 456.778C504.691 456.778 574.083 534.039 601.473 546.202C601.473 546.202 656.119 487.32 673.78 458.116C673.78 458.116 691.628 428.946 669.204 389.477" stroke="#00005B" stroke-linecap="round" stroke-linejoin="round"/>
<path d="M590.301 489.895L632.149 434.435" stroke="#00005B" stroke-linecap="round" stroke-linejoin="round"/>
<path d="M591.609 490.775L617.779 491.995" stroke="#00005B" stroke-linecap="round" stroke-linejoin="round"/>
<path d="M637.457 276.405C637.457 276.405 640.847 262.836 632.355 252.367" stroke="#00005B" stroke-miterlimit="10" stroke-linecap="round"/>
<path d="M488.251 444.767L472.268 466.958L396.215 430.013L389.113 445.648L465.149 510.29L523.811 477.969" stroke="#00005B" stroke-linecap="round" stroke-linejoin="round"/>
<path d="M521.742 398.505L562.116 378.415" stroke="#00005B" stroke-linecap="round" stroke-linejoin="round"/>
<path d="M394.11 434.112L396.296 413.751L388.127 398.59C388.127 398.59 389.296 387.867 386.957 387.935C384.618 388.003 384.737 414.056 384.737 414.056C384.737 414.056 377.821 418.934 380.381 429.623" stroke="#00005B" stroke-linecap="round" stroke-linejoin="round"/>
<path d="M367.332 433.045L389.112 445.648" stroke="#00005B" stroke-linecap="round" stroke-linejoin="round"/>
<path d="M517.98 421.594L522.082 428.776L521.286 441.583" stroke="#00005B" stroke-linecap="round" stroke-linejoin="round"/>
<path d="M510.557 436.958C510.557 435.857 487.387 410.871 487.387 410.871L484.742 412.955L494.251 431.537L486.285 417.562L484.048 420.205L486.132 430.419L483.353 423L479.59 424.948L489.844 446.783L504.455 456.202" stroke="#00005B" stroke-linecap="round" stroke-linejoin="round"/>
<path d="M614.048 360.679C614.048 360.679 595.895 375.027 579.047 381.498C579.047 381.498 580.674 400.927 584.878 402.215C586.437 402.689 588.81 401.08 590.081 400.402C593.081 398.776 595.946 396.862 598.759 394.948C604.522 391.018 610.115 386.85 615.641 382.616C616.726 381.786 618.336 381.006 618.421 379.549C618.794 372.74 619.183 366.032 614.115 360.763L614.048 360.696V360.679Z" stroke="#00005B" stroke-linecap="round" stroke-linejoin="round"/>
<path d="M579.047 381.498C579.047 381.498 574.42 397.59 570.539 397.031C566.657 396.472 561.945 377.364 561.945 377.364C561.945 377.364 566.386 362.136 574.691 364.626" stroke="#00005B" stroke-linecap="round" stroke-linejoin="round"/>
<path d="M472.52 466.383C473.214 472.142 473.231 477.97 472.604 483.729" stroke="#00005B" stroke-linecap="round" stroke-linejoin="round"/>
<path d="M528.742 429.826L535.2 450.831" stroke="#00005B" stroke-linecap="round" stroke-linejoin="round"/>
<path d="M628.676 416.767C623.727 426.083 621.439 436.789 622.151 447.309" stroke="#00005B" stroke-linecap="round" stroke-linejoin="round"/>
<path d="M617.522 428.76C616.878 434.926 617.098 441.193 618.149 447.292" stroke="#00005B" stroke-linecap="round" stroke-linejoin="round"/>
<path d="M475.23 468.805C477.027 472.108 478.18 475.767 478.586 479.511" stroke="#00005B" stroke-linecap="round" stroke-linejoin="round"/>
<path d="M569.504 259.38C570.046 262.158 571.894 264.53 574.165 266.207C576.436 267.884 579.114 268.917 581.792 269.798C589.691 272.39 598.013 273.728 606.335 273.762C608.149 273.762 610.013 273.711 611.759 274.219C613.505 274.727 615.183 275.879 615.776 277.607" stroke="white" stroke-width="0.5" stroke-linecap="round" stroke-linejoin="round"/>
<path d="M575.777 252.808C576.879 257.415 581.642 260.363 586.337 261.023C591.032 261.701 595.778 260.617 600.473 259.956C605.168 259.296 610.202 259.109 614.388 261.328C618.575 263.564 621.372 268.985 619.253 273.22" stroke="white" stroke-width="0.5" stroke-linecap="round" stroke-linejoin="round"/>
<path d="M528.742 550.944H561.133H561.777H666.898H666.966H727.154" stroke="#00005B" stroke-linecap="round" stroke-linejoin="round"/>
<path d="M453.453 550.944H513.37" stroke="#00005B" stroke-linecap="round" stroke-linejoin="round"/>
<path d="M584.895 574.542H473.588L431.078 597.478H547.742L584.895 574.542Z" fill="#C3AAFF" stroke="#00005B" stroke-linecap="round" stroke-linejoin="round"/>
<path d="M480.859 580.521H563.065" stroke="#00005B" stroke-linecap="round" stroke-linejoin="round"/>
<path d="M474.859 584.807H554.776" stroke="#00005B" stroke-linecap="round" stroke-linejoin="round"/>
<path d="M468.875 589.093H546.453" stroke="#00005B" stroke-linecap="round" stroke-linejoin="round"/>
<path d="M563.487 580.521L539.961 592.091" stroke="#00005B" stroke-linecap="round" stroke-linejoin="round"/>
<path d="M550.639 580.521L527.113 592.091" stroke="#00005B" stroke-linecap="round" stroke-linejoin="round"/>
<path d="M411.164 517.455H527.828L547.744 597.478H431.08L411.164 517.455Z" fill="#00005B"/>
<path d="M547.745 597.461H430.047V603.153H547.745V597.461Z" fill="#A78DE9" stroke="#00005B" stroke-linecap="round" stroke-linejoin="round"/>
<path d="M409.875 517.455H526.539L546.454 597.478H429.791L409.875 517.455Z" fill="white" stroke="#00005B" stroke-linecap="round" stroke-linejoin="round"/>
<path d="M547.742 597.478L585.726 574.406L585.692 578.726L548.166 603.898L547.742 597.478Z" fill="#00005B"/>
<path d="M483.232 555.027C483.758 558.432 481.419 561.616 478.012 562.141C474.605 562.667 471.419 560.329 470.91 556.924C470.419 553.756 472.419 550.741 475.52 549.945C479.063 549.233 482.52 551.503 483.249 555.044L483.232 555.027Z" fill="#C3AAFF" stroke="#00005B" stroke-linecap="round" stroke-linejoin="round"/>
</g>
<defs>
<linearGradient id="paint0_linear_1857_2271" x1="150.163" y1="138.234" x2="219.151" y2="80.7276" gradientUnits="userSpaceOnUse">
<stop stop-color="#491BA0"/>
<stop offset="1" stop-color="#8C51FF"/>
</linearGradient>
<linearGradient id="paint1_linear_1857_2271" x1="480.417" y1="204.065" x2="632.374" y2="112.655" gradientUnits="userSpaceOnUse">
<stop stop-color="#491BA0"/>
<stop offset="1" stop-color="#8C51FF"/>
</linearGradient>
<linearGradient id="paint2_linear_1857_2271" x1="103.71" y1="354.76" x2="480.506" y2="-11.7889" gradientUnits="userSpaceOnUse">
<stop stop-color="#491BA0"/>
<stop offset="1" stop-color="#8C51FF"/>
</linearGradient>
<linearGradient id="paint3_linear_1857_2271" x1="579.97" y1="371.158" x2="799.821" y2="273.898" gradientUnits="userSpaceOnUse">
<stop stop-color="#491BA0"/>
<stop offset="1" stop-color="#8C51FF"/>
</linearGradient>
<linearGradient id="paint4_linear_1857_2271" x1="44.3906" y1="259.388" x2="324.872" y2="259.388" gradientUnits="userSpaceOnUse">
<stop stop-color="#B100FF"/>
<stop offset="1" stop-color="#5800FF"/>
</linearGradient>
<linearGradient id="paint5_linear_1857_2271" x1="52.2734" y1="173.649" x2="56.2905" y2="173.649" gradientUnits="userSpaceOnUse">
<stop stop-color="#B100FF"/>
<stop offset="1" stop-color="#5800FF"/>
</linearGradient>
<linearGradient id="paint6_linear_1857_2271" x1="77.9336" y1="173.649" x2="81.9506" y2="173.649" gradientUnits="userSpaceOnUse">
<stop stop-color="#B100FF"/>
<stop offset="1" stop-color="#5800FF"/>
</linearGradient>
<linearGradient id="paint7_linear_1857_2271" x1="92.5781" y1="173.648" x2="100.426" y2="173.648" gradientUnits="userSpaceOnUse">
<stop stop-color="#B100FF"/>
<stop offset="1" stop-color="#5800FF"/>
</linearGradient>
<linearGradient id="paint8_linear_1857_2271" x1="97.7969" y1="171.514" x2="100.831" y2="171.514" gradientUnits="userSpaceOnUse">
<stop stop-color="#B100FF"/>
<stop offset="1" stop-color="#5800FF"/>
</linearGradient>
<linearGradient id="paint9_linear_1857_2271" x1="104.799" y1="495.459" x2="187.624" y2="401.462" gradientUnits="userSpaceOnUse">
<stop stop-color="#491BA0"/>
<stop offset="1" stop-color="#8C51FF"/>
</linearGradient>
<linearGradient id="paint10_linear_1857_2271" x1="218.627" y1="429.394" x2="230.238" y2="379.3" gradientUnits="userSpaceOnUse">
<stop stop-color="#491BA0"/>
<stop offset="1" stop-color="#8C51FF"/>
</linearGradient>
<linearGradient id="paint11_linear_1857_2271" x1="194.652" y1="423.143" x2="238.298" y2="395.915" gradientUnits="userSpaceOnUse">
<stop stop-color="#491BA0"/>
<stop offset="1" stop-color="#8C51FF"/>
</linearGradient>
<linearGradient id="paint12_linear_1857_2271" x1="414.085" y1="303.797" x2="414.876" y2="293.237" gradientUnits="userSpaceOnUse">
<stop stop-color="#491BA0"/>
<stop offset="1" stop-color="#8C51FF"/>
</linearGradient>
<linearGradient id="paint13_linear_1857_2271" x1="414.085" y1="312.758" x2="414.876" y2="302.198" gradientUnits="userSpaceOnUse">
<stop stop-color="#491BA0"/>
<stop offset="1" stop-color="#8C51FF"/>
</linearGradient>
<linearGradient id="paint14_linear_1857_2271" x1="414.085" y1="321.719" x2="414.876" y2="311.159" gradientUnits="userSpaceOnUse">
<stop stop-color="#491BA0"/>
<stop offset="1" stop-color="#8C51FF"/>
</linearGradient>
<linearGradient id="paint15_linear_1857_2271" x1="414.085" y1="330.68" x2="414.876" y2="320.12" gradientUnits="userSpaceOnUse">
<stop stop-color="#491BA0"/>
<stop offset="1" stop-color="#8C51FF"/>
</linearGradient>
<linearGradient id="paint16_linear_1857_2271" x1="414.085" y1="339.641" x2="414.876" y2="329.082" gradientUnits="userSpaceOnUse">
<stop stop-color="#491BA0"/>
<stop offset="1" stop-color="#8C51FF"/>
</linearGradient>
<linearGradient id="paint17_linear_1857_2271" x1="73.6349" y1="388.689" x2="333.413" y2="124.818" gradientUnits="userSpaceOnUse">
<stop stop-color="#491BA0"/>
<stop offset="1" stop-color="#8C51FF"/>
</linearGradient>
<linearGradient id="paint18_linear_1857_2271" x1="231.823" y1="196.813" x2="325.732" y2="143.126" gradientUnits="userSpaceOnUse">
<stop stop-color="#491BA0"/>
<stop offset="1" stop-color="#8C51FF"/>
</linearGradient>
<linearGradient id="paint19_linear_1857_2271" x1="554.01" y1="412.056" x2="620.963" y2="396.217" gradientUnits="userSpaceOnUse">
<stop stop-color="#491BA0"/>
<stop offset="1" stop-color="#8C51FF"/>
</linearGradient>
<linearGradient id="paint20_linear_1857_2271" x1="418.321" y1="603.192" x2="666.281" y2="354.395" gradientUnits="userSpaceOnUse">
<stop stop-color="#491BA0"/>
<stop offset="1" stop-color="#8C51FF"/>
</linearGradient>
<clipPath id="clip0_1857_2271">
<rect width="728" height="604" fill="white"/>
</clipPath>
</defs>
</svg>
