<svg width="17" height="17" viewBox="0 0 17 17" fill="none" xmlns="http://www.w3.org/2000/svg">
<g clip-path="url(#clip0_84_2106)">
<path d="M8.5 17C3.81281 17 0 13.1872 0 8.5C0 3.81281 3.81281 0 8.5 0C13.1872 0 17 3.81348 17 8.5C17 13.1865 13.1872 17 8.5 17ZM8.5 1.3168C4.5397 1.3168 1.3168 4.53903 1.3168 8.5C1.3168 12.461 4.5397 15.6832 8.5 15.6832C12.461 15.6832 15.6832 12.461 15.6832 8.5C15.6832 4.53903 12.4603 1.3168 8.5 1.3168Z" fill="#CECECE"/>
<path d="M12.2595 7.59139L8.96751 10.8834C8.71072 11.1389 8.29594 11.1389 8.03915 10.8834L4.74713 7.59139C4.53579 7.34516 4.53579 6.98105 4.74713 6.73482C4.9835 6.45893 5.3996 6.42669 5.67549 6.66306L8.50004 9.48759L11.3312 6.66303C11.588 6.40757 12.0027 6.40757 12.2595 6.66303C12.515 6.91982 12.515 7.33463 12.2595 7.59139Z" fill="#CECECE"/>
</g>
<defs>
<clipPath id="clip0_84_2106">
<rect width="17" height="17" fill="white" transform="matrix(1 0 0 -1 0 17)"/>
</clipPath>
</defs>
</svg>
