<svg width="250" height="20" viewBox="0 0 250 20" fill="none" xmlns="http://www.w3.org/2000/svg">
<g clip-path="url(#clip0_1417_4719)">
<path d="M38.3031 0.0775523C37.0882 0.100817 36.1255 1.10896 36.1408 2.342V17.5184C36.1561 18.7204 37.1188 19.6976 38.3031 19.7131H38.3413C39.5409 19.7131 40.5189 18.7359 40.5418 17.5184V2.2722C40.5189 1.03917 39.5179 0.0542874 38.3031 0.0775523Z" fill="#45108A"/>
<path d="M67.3201 15.634L50.4955 9.94959L67.3048 4.4746C68.4585 4.09461 69.1003 2.83831 68.7259 1.66731C68.3515 0.496317 67.1138 -0.155098 65.96 0.224894L42.7556 7.79372C41.6019 8.17371 40.9677 9.43001 41.3344 10.601C41.5484 11.2757 42.0679 11.8108 42.7327 12.0357L65.9371 19.8759H65.9677L66.0441 19.9069C67.2131 20.2482 68.428 19.5657 68.7718 18.387C69.1003 17.2237 68.4662 16.014 67.3353 15.6417" fill="#45108A"/>
<path d="M74.5648 0.0775523C73.35 0.100817 72.3872 1.10896 72.4025 2.342V17.5184C72.4178 18.7204 73.3805 19.6976 74.5648 19.7131H74.603C75.8026 19.7131 76.7806 18.7359 76.8035 17.5107V2.2722C76.7806 1.03917 75.7873 0.0542874 74.5724 0.0775523" fill="#45108A"/>
<path d="M104.999 1.62858C104.609 0.465342 103.371 -0.162808 102.218 0.224939L79.0056 7.79376C77.8519 8.17376 77.2177 9.43006 77.5844 10.6011C77.7984 11.2757 78.3179 11.8108 78.9827 12.0357L102.195 19.876C103.356 20.2404 104.586 19.5735 104.945 18.4025C105.289 17.2626 104.693 16.045 103.585 15.6418L86.7608 9.95739L103.624 4.45914C104.777 4.06364 105.389 2.79958 105.006 1.62858" fill="#45108A"/>
<path d="M175.878 3.2571C175.237 2.35752 174.442 1.58979 173.517 0.992655C172.562 0.380014 171.462 0.0310417 170.324 -0.00773301H152.582C151.406 -0.0232429 150.244 0.2792 149.228 0.876331C148.25 1.45795 147.402 2.22569 146.722 3.14077C146.027 4.06361 145.499 5.10277 145.148 6.20398C144.796 7.28191 144.613 8.41414 144.605 9.55411V17.6037C144.605 18.8445 145.599 19.8527 146.821 19.8527C148.044 19.8527 149.037 18.8445 149.037 17.6037V9.55411C149.037 8.99576 149.106 8.4374 149.22 7.89455C149.335 7.31293 149.572 6.75458 149.908 6.26602C150.267 5.75419 150.741 5.31991 151.283 5.00972C151.994 4.63748 152.789 4.45911 153.591 4.49013H168.887C169.674 4.45911 170.461 4.63748 171.164 5.00196C171.714 5.31216 172.196 5.73868 172.562 6.25826C172.899 6.74682 173.135 7.30518 173.258 7.89455C173.372 8.4374 173.441 8.99576 173.441 9.55411V17.6735C173.464 18.8988 174.45 19.8837 175.657 19.8837H175.695C176.918 19.8604 177.888 18.8445 177.873 17.6037V9.55411C177.873 8.4374 177.697 7.3362 177.353 6.27377C177.024 5.19583 176.52 4.17218 175.871 3.2571" fill="#45108A"/>
<path d="M212.124 3.2571C211.483 2.35752 210.688 1.58979 209.764 0.992655C208.808 0.380014 207.708 0.0310417 206.57 -0.00773301H188.828C187.652 -0.0232429 186.49 0.2792 185.474 0.876331C184.496 1.45795 183.648 2.22569 182.968 3.14077C182.273 4.06361 181.746 5.10277 181.394 6.20398C181.043 7.28191 180.859 8.41413 180.852 9.55411V17.6037C180.852 18.8445 181.845 19.8527 183.067 19.8527C184.29 19.8527 185.283 18.8445 185.283 17.6037V9.55411C185.283 8.99576 185.352 8.4374 185.466 7.89455C185.581 7.31293 185.818 6.75458 186.154 6.26602C186.513 5.75419 186.987 5.31991 187.529 5.00972C188.24 4.63748 189.035 4.45911 189.837 4.49013H205.141C205.928 4.45911 206.715 4.63748 207.418 5.00196C207.968 5.31216 208.449 5.73868 208.816 6.25826C209.152 6.74682 209.389 7.30518 209.511 7.8868C209.626 8.42965 209.695 8.988 209.695 9.54636V17.6658C209.718 18.8911 210.703 19.8759 211.911 19.8759H211.949C213.171 19.8527 214.142 18.8368 214.126 17.596V9.54636C214.126 8.42965 213.951 7.32844 213.607 6.26602C213.278 5.18808 212.774 4.16443 212.117 3.24934" fill="#45108A"/>
<path d="M24.1672 0H18.5284C17.3212 0 16.3509 0.992633 16.3509 2.21016C16.3509 3.42769 17.3288 4.42032 18.5284 4.42032H24.1672C27.8729 4.42032 28.1403 5.60682 28.1632 6.44436H6.5709C2.94163 6.44436 0 9.43001 0 13.1136C0 16.7972 2.94163 19.7829 6.5709 19.7829H25.2598C29.2711 19.7829 32.526 16.4793 32.526 12.4079V6.44436C32.4725 3.94727 31.2576 0 24.1672 0ZM28.1632 12.4079C28.1632 14.0364 26.8643 15.3548 25.2521 15.3625H6.5709C5.34841 15.3625 4.36277 14.3544 4.36277 13.1214C4.36277 11.8806 5.34841 10.8802 6.5709 10.8802H28.1708V12.4157L28.1632 12.4079Z" fill="#45108A"/>
<path d="M249.999 6.44436C249.938 3.94727 248.73 0 241.64 0H236.001C234.794 0 233.824 0.992633 233.824 2.21016C233.824 3.42769 234.802 4.42032 236.001 4.42032H241.64C245.346 4.42032 245.613 5.60682 245.636 6.44436H224.044C220.414 6.44436 217.473 9.43001 217.473 13.1136C217.473 16.7972 220.414 19.7829 224.044 19.7829H242.732C246.744 19.7829 249.999 16.4793 249.999 12.4079V6.44436ZM245.643 12.4079C245.643 14.0364 244.345 15.3548 242.732 15.3625H224.044C222.821 15.3625 221.835 14.3544 221.835 13.1214C221.835 11.8806 222.821 10.8802 224.044 10.8802H245.643V12.4157V12.4079Z" fill="#45108A"/>
<path d="M134.697 0H116.008C111.997 0 108.742 3.30361 108.742 7.37495V13.3385C108.796 15.8356 110.011 19.7829 117.101 19.7829H122.74C123.947 19.7829 124.917 18.7902 124.917 17.5727C124.917 16.3474 123.939 15.3625 122.74 15.3625H117.101C113.395 15.3625 113.128 14.176 113.105 13.3385H141.276V6.66925C141.261 2.98565 138.319 0 134.697 0ZM136.905 8.91043H113.097V7.37495C113.097 5.74641 114.396 4.42807 116.008 4.42032H134.697C135.92 4.42032 136.905 5.42846 136.905 6.6615V8.90268V8.91043Z" fill="#45108A"/>
<path d="M13.044 4.29631H10.1176C8.9792 4.29631 8.05469 3.35796 8.05469 2.20248C8.05469 1.04699 8.9792 0.108643 10.1176 0.108643H13.044C14.1824 0.108643 15.1069 1.04699 15.1069 2.20248C15.1069 3.35796 14.1824 4.29631 13.044 4.29631Z" fill="#45108A"/>
<path d="M131.294 20H128.368C127.229 20 126.305 19.0617 126.305 17.9062C126.305 16.7507 127.229 15.8124 128.368 15.8124H131.294C132.432 15.8124 133.357 16.7507 133.357 17.9062C133.357 19.0617 132.432 20 131.294 20Z" fill="#45108A"/>
<path d="M230.517 4.29631H227.59C226.452 4.29631 225.527 3.35796 225.527 2.20248C225.527 1.04699 226.452 0.108643 227.59 0.108643H230.517C231.655 0.108643 232.58 1.04699 232.58 2.20248C232.58 3.35796 231.655 4.29631 230.517 4.29631Z" fill="#45108A"/>
</g>
<defs>
<clipPath id="clip0_1417_4719">
<rect width="250" height="20" fill="white"/>
</clipPath>
</defs>
</svg>
