<svg width="567" height="489" viewBox="0 0 567 489" fill="none" xmlns="http://www.w3.org/2000/svg">
<path d="M538.342 122.556C505.925 64.1479 444.376 23.6769 378.014 8.34329C314.707 -6.28756 238.488 -5.56178 190.839 42.6048C159.46 74.3204 146.891 118.478 119.201 152.728C105.435 169.755 88.2124 177.543 70.1715 189.455C26.2236 218.509 -6.10825 265.236 0.976183 318.091C12.8243 406.464 98.2894 453.928 184.194 459.261C297.716 466.312 378.674 451.992 447.442 410.542C483.157 389.01 518.787 363.47 540.59 328.114C573.569 274.636 572.213 207.208 550.875 149.802C547.369 140.355 543.167 131.277 538.33 122.568L538.342 122.556Z" fill="#6000BA"/>
<path opacity="0.8" d="M538.342 122.556C505.925 64.1479 444.376 23.6769 378.014 8.34329C314.707 -6.28756 238.488 -5.56178 190.839 42.6048C159.46 74.3204 146.891 118.478 119.201 152.728C105.435 169.755 88.2124 177.543 70.1715 189.455C26.2236 218.509 -6.10825 265.236 0.976183 318.091C12.8243 406.464 98.2894 453.928 184.194 459.261C297.716 466.312 378.674 451.992 447.442 410.542C483.157 389.01 518.787 363.47 540.59 328.114C573.569 274.636 572.213 207.208 550.875 149.802C547.369 140.355 543.167 131.277 538.33 122.568L538.342 122.556Z" fill="white"/>
<path d="M282.383 487.689H272.627V65.8273C272.627 63.1466 274.813 60.9838 277.5 60.9838C280.197 60.9838 282.373 63.1567 282.373 65.8273V487.689H282.383Z" fill="#6000BA" stroke="#00005B" stroke-linecap="round" stroke-linejoin="round"/>
<path d="M272.361 117.177H186.866V147.101H272.361V117.177Z" fill="#00005B" stroke="#00005B" stroke-linecap="round" stroke-linejoin="round"/>
<path d="M368.052 85.0997H282.557V115.024H368.052V85.0997Z" fill="#00005B" stroke="#00005B" stroke-linecap="round" stroke-linejoin="round"/>
<path d="M282.557 167.561L330.295 173.593V131.606L282.557 137.637V167.561Z" fill="#00005B" stroke="#00005B" stroke-linecap="round" stroke-linejoin="round"/>
<path d="M320.672 153.406L310.139 141.851V146.887L288.124 147.751V158.717L310.139 159.803V164.84L320.672 153.406Z" fill="#AB40F9" stroke="#00005B" stroke-linecap="round" stroke-linejoin="round"/>
<path d="M355.017 97.8941L338.764 88.5726V92.6546H295.929V103.134H338.764V107.216L355.017 97.8941Z" fill="#AB40F9" stroke="#00005B" stroke-linecap="round" stroke-linejoin="round"/>
<path d="M200.575 132.357L216.818 123.035V127.117H259.653V137.596H216.818V141.678L200.575 132.357Z" fill="#AB40F9" stroke="#00005B" stroke-linecap="round" stroke-linejoin="round"/>
<path d="M444.428 131.429C463.995 131.429 479.857 115.663 479.857 96.2145C479.857 76.7661 463.995 61 444.428 61C424.862 61 409 76.7661 409 96.2145C409 115.663 424.862 131.429 444.428 131.429Z" stroke="#00005B" stroke-linecap="round" stroke-linejoin="round"/>
<path d="M467.72 119.457C465.36 121.792 462.643 123.783 459.65 125.326" stroke="#00005B" stroke-linecap="round" stroke-linejoin="round"/>
<path d="M454.94 127.326C451.641 128.423 448.106 129.022 444.428 129.022C426.193 129.022 411.421 114.329 411.421 96.2143C411.421 78.0994 426.203 63.4064 444.428 63.4064C462.653 63.4064 477.436 78.0994 477.436 96.2143C477.436 102.347 475.75 108.084 472.798 112.989" stroke="#00005B" stroke-linecap="round" stroke-linejoin="round"/>
<path d="M444.428 98.8139C445.873 98.8139 447.044 97.6501 447.044 96.2144C447.044 94.7788 445.873 93.615 444.428 93.615C442.984 93.615 441.813 94.7788 441.813 96.2144C441.813 97.6501 442.984 98.8139 444.428 98.8139Z" fill="#00005B" stroke="#00005B" stroke-linecap="round" stroke-linejoin="round"/>
<path d="M448.188 110.805L444.428 96.2141L466.372 81.2774" stroke="#00005B" stroke-linecap="round" stroke-linejoin="round"/>
<path d="M121.969 175.653V227.683H82.9754" stroke="#00005B" stroke-linecap="round" stroke-linejoin="round"/>
<path d="M51 219.509V161.468H121.969V171.074" stroke="#00005B" stroke-linecap="round" stroke-linejoin="round"/>
<path d="M77.3873 227.683H51V223.439" stroke="#00005B" stroke-linecap="round" stroke-linejoin="round"/>
<path d="M62.2373 177.765H55.3111V184.65H62.2373V177.765Z" stroke="#00005B" stroke-linecap="round" stroke-linejoin="round"/>
<path d="M71.4724 177.765H64.5461V184.65H71.4724V177.765Z" stroke="#00005B" stroke-linecap="round" stroke-linejoin="round"/>
<path d="M80.7075 177.765H73.7812V184.65H80.7075V177.765Z" stroke="#00005B" stroke-linecap="round" stroke-linejoin="round"/>
<path d="M89.9425 177.765H83.0162V184.65H89.9425V177.765Z" stroke="#00005B" stroke-linecap="round" stroke-linejoin="round"/>
<path d="M99.1776 177.765H92.2513V184.65H99.1776V177.765Z" stroke="#00005B" stroke-linecap="round" stroke-linejoin="round"/>
<path d="M108.413 177.765H101.486V184.65H108.413V177.765Z" stroke="#00005B" stroke-linecap="round" stroke-linejoin="round"/>
<path d="M117.648 177.765H110.721V184.65H117.648V177.765Z" stroke="#00005B" stroke-linecap="round" stroke-linejoin="round"/>
<path d="M62.2373 188.63H55.3111V195.515H62.2373V188.63Z" stroke="#00005B" stroke-linecap="round" stroke-linejoin="round"/>
<path d="M71.4724 188.63H64.5461V195.515H71.4724V188.63Z" stroke="#00005B" stroke-linecap="round" stroke-linejoin="round"/>
<path d="M80.7075 188.63H73.7812V195.515H80.7075V188.63Z" stroke="#00005B" stroke-linecap="round" stroke-linejoin="round"/>
<path d="M89.9425 188.63H83.0162V195.515H89.9425V188.63Z" stroke="#00005B" stroke-linecap="round" stroke-linejoin="round"/>
<path d="M99.1776 188.63H92.2513V195.515H99.1776V188.63Z" stroke="#00005B" stroke-linecap="round" stroke-linejoin="round"/>
<path d="M108.413 188.63H101.486V195.515H108.413V188.63Z" stroke="#00005B" stroke-linecap="round" stroke-linejoin="round"/>
<path d="M117.648 188.63H110.721V195.515H117.648V188.63Z" stroke="#00005B" stroke-linecap="round" stroke-linejoin="round"/>
<path d="M62.2373 199.495H55.3111V206.38H62.2373V199.495Z" stroke="#00005B" stroke-linecap="round" stroke-linejoin="round"/>
<path d="M71.4724 199.495H64.5461V206.38H71.4724V199.495Z" stroke="#00005B" stroke-linecap="round" stroke-linejoin="round"/>
<path d="M80.7075 199.495H73.7812V206.38H80.7075V199.495Z" stroke="#00005B" stroke-linecap="round" stroke-linejoin="round"/>
<path d="M89.9425 199.495H83.0162V206.38H89.9425V199.495Z" stroke="#00005B" stroke-linecap="round" stroke-linejoin="round"/>
<path d="M99.1776 199.495H92.2513V206.38H99.1776V199.495Z" stroke="#00005B" stroke-linecap="round" stroke-linejoin="round"/>
<path d="M108.413 199.495H101.486V206.38H108.413V199.495Z" stroke="#00005B" stroke-linecap="round" stroke-linejoin="round"/>
<path d="M117.648 199.495H110.721V206.38H117.648V199.495Z" stroke="#00005B" stroke-linecap="round" stroke-linejoin="round"/>
<path d="M62.2373 210.36H55.3111V217.244H62.2373V210.36Z" stroke="#00005B" stroke-linecap="round" stroke-linejoin="round"/>
<path d="M71.4724 210.36H64.5461V217.245H71.4724V210.36Z" stroke="#00005B" stroke-linecap="round" stroke-linejoin="round"/>
<path d="M80.7075 210.36H73.7812V217.245H80.7075V210.36Z" stroke="#00005B" stroke-linecap="round" stroke-linejoin="round"/>
<path d="M89.9425 210.36H83.0162V217.245H89.9425V210.36Z" stroke="#00005B" stroke-linecap="round" stroke-linejoin="round"/>
<path d="M99.1776 210.36H92.2513V217.245H99.1776V210.36Z" stroke="#00005B" stroke-linecap="round" stroke-linejoin="round"/>
<path d="M108.413 210.36H101.486V217.245H108.413V210.36Z" stroke="#00005B" stroke-linecap="round" stroke-linejoin="round"/>
<path d="M117.648 210.36H110.721V217.245H117.648V210.36Z" stroke="#00005B" stroke-linecap="round" stroke-linejoin="round"/>
<path d="M63.5552 166.139H60.5007V155H63.5552V166.139ZM75.7835 155H72.7289V166.139H75.7835V155ZM88.0117 155H84.9572V166.139H88.0117V155ZM100.24 155H97.1855V166.139H100.24V155ZM112.468 155H109.414V166.139H112.468V155Z" fill="#00005B" stroke="#00005B" stroke-linecap="round" stroke-linejoin="round"/>
<path d="M126.072 316C111.126 316 99 328.043 99 342.908C99 357.774 111.116 369.817 126.072 369.817C141.028 369.817 153.144 357.774 153.144 342.908C153.144 328.043 141.028 316 126.072 316ZM126.072 359.927C116.612 359.927 108.95 352.311 108.95 342.908C108.95 333.506 116.612 325.89 126.072 325.89C135.532 325.89 143.193 333.506 143.193 342.908C143.193 352.311 135.532 359.927 126.072 359.927Z" stroke="#00005B" stroke-linecap="round" stroke-linejoin="round"/>
<path d="M126.623 316.02V325.92C135.828 326.215 143.193 333.698 143.193 342.908C143.193 347.569 141.303 351.783 138.259 354.859L146.064 361.043C150.457 356.261 153.133 349.894 153.133 342.908C153.133 328.235 141.314 316.315 126.623 316.02Z" stroke="#00005B" stroke-linecap="round" stroke-linejoin="round"/>
<path d="M116.132 341.812H135.47" stroke="#00005B" stroke-linecap="round" stroke-linejoin="round"/>
<path d="M116.132 346.746H135.47" stroke="#00005B" stroke-linecap="round" stroke-linejoin="round"/>
<path d="M500.993 204.747H553.645" stroke="#00005B" stroke-linecap="round" stroke-linejoin="round"/>
<path d="M480 204.747H485.425" stroke="#00005B" stroke-linecap="round" stroke-linejoin="round"/>
<path d="M518.524 213.053H553.645" stroke="#00005B" stroke-linecap="round" stroke-linejoin="round"/>
<path d="M480 213.053H485.854" stroke="#00005B" stroke-linecap="round" stroke-linejoin="round"/>
<path d="M535.421 221.359H553.646" stroke="#00005B" stroke-linecap="round" stroke-linejoin="round"/>
<path d="M480 221.359H485.425" stroke="#00005B" stroke-linecap="round" stroke-linejoin="round"/>
<path d="M550.387 229.665H553.646" stroke="#00005B" stroke-linecap="round" stroke-linejoin="round"/>
<path d="M480 229.665H485.425" stroke="#00005B" stroke-linecap="round" stroke-linejoin="round"/>
<path d="M550.387 239.332H553.646" stroke="#00005B" stroke-linecap="round" stroke-linejoin="round"/>
<path d="M480 239.332H485.425" stroke="#00005B" stroke-linecap="round" stroke-linejoin="round"/>
<path d="M550.387 248.988H553.646" stroke="#00005B" stroke-linecap="round" stroke-linejoin="round"/>
<path d="M480 248.988H485.425" stroke="#00005B" stroke-linecap="round" stroke-linejoin="round"/>
<path d="M499.012 199H486.804V249.872H499.012V199Z" stroke="#00005B" stroke-linecap="round" stroke-linejoin="round"/>
<path d="M515.725 208.585H503.517V249.882H515.725V208.585Z" stroke="#00005B" stroke-linecap="round" stroke-linejoin="round"/>
<path d="M532.438 217.521H520.23V249.872H532.438V217.521Z" stroke="#00005B" stroke-linecap="round" stroke-linejoin="round"/>
<path d="M549.151 229.026H536.943V249.882H549.151V229.026Z" stroke="#00005B" stroke-linecap="round" stroke-linejoin="round"/>
<path d="M212.912 12.9097C207.916 9.20347 201.705 7.00003 194.993 7.00003C178.434 7.00003 165 20.3425 165 36.8125C165 53.2824 178.424 66.6249 194.993 66.6249C211.563 66.6249 224.987 53.2824 224.987 36.8125C224.987 28.9634 221.932 21.825 216.947 16.4941" stroke="#00005B" stroke-linecap="round" stroke-linejoin="round"/>
<path d="M180.855 50.4798C184.441 54.1353 189.446 56.4098 194.983 56.4098C205.873 56.4098 214.689 47.6367 214.689 36.8226C214.689 26.0085 205.863 17.2353 194.983 17.2353C184.103 17.2353 175.277 26.0085 175.277 36.8226C175.277 40.803 176.472 44.5092 178.526 47.6062" stroke="#00005B" stroke-linecap="round" stroke-linejoin="round"/>
<path d="M194.983 47.0476C200.665 47.0476 205.271 42.4696 205.271 36.8224C205.271 31.1752 200.665 26.5973 194.983 26.5973C189.302 26.5973 184.696 31.1752 184.696 36.8224C184.696 42.4696 189.302 47.0476 194.983 47.0476Z" stroke="#00005B" stroke-linecap="round" stroke-linejoin="round"/>
<path d="M424.285 328.506C427.585 328.973 429.107 331.521 429.107 335.146V335.877H426.267V334.953C426.267 332.557 425.297 331.095 423.121 331.095C420.945 331.095 420.015 332.567 420.015 334.953C420.015 341.015 429.148 341.056 429.148 348.661C429.148 352.297 427.595 354.876 424.296 355.343V357.394H421.813V355.343C418.432 354.876 416.92 352.327 416.92 348.661V346.996H419.76V348.854C419.76 351.291 420.771 352.672 422.947 352.672C425.123 352.672 426.134 351.281 426.134 348.854C426.134 342.833 417.042 342.752 417.042 335.146C417.042 331.44 418.554 329.003 421.823 328.506V326.343H424.306V328.506H424.285Z" fill="#00005B"/>
<path d="M432.969 364.735C434.889 363.913 436.698 362.847 438.332 361.588" stroke="#00005B" stroke-linecap="round" stroke-linejoin="round"/>
<path d="M414.162 318.565C404.702 322.119 397.97 331.217 397.97 341.868C397.97 355.627 409.187 366.776 423.029 366.776C424.766 366.776 426.461 366.604 428.106 366.269" stroke="#00005B" stroke-linecap="round" stroke-linejoin="round"/>
<path d="M441.479 358.704C445.575 354.267 448.078 348.357 448.078 341.858C448.078 328.099 436.861 316.95 423.019 316.95C420.894 316.95 418.84 317.214 416.869 317.702" stroke="#00005B" stroke-linecap="round" stroke-linejoin="round"/>
<path d="M436.993 356.837C445.317 349.173 445.814 336.253 438.104 327.98C430.393 319.707 417.395 319.213 409.071 326.877C400.748 334.54 400.251 347.46 407.961 355.734C415.671 364.007 428.67 364.501 436.993 356.837Z" stroke="#00005B" stroke-linecap="round" stroke-linejoin="round"/>
<path d="M302.089 245.027C302.089 245.027 302.345 244.996 302.794 244.946C305.757 244.58 317.362 243.037 324.012 240.427C331.674 237.411 349.143 239.005 349.143 239.005L356.805 244.499L348.07 250.165C348.07 250.165 335.771 246.093 327.22 246.448C318.669 246.804 314.563 249.281 309.22 248.926C303.877 248.571 297.278 245.027 297.278 245.027H302.089Z" fill="#00005B" stroke="#00005B" stroke-linecap="round" stroke-linejoin="round"/>
<path d="M269.348 227.785V239.188H288.247V225.988L269.348 227.785Z" fill="white" stroke="#00005B" stroke-linecap="round" stroke-linejoin="round"/>
<path d="M264.179 216.727C264.179 216.727 259.704 213.762 261.196 218.951C262.687 224.14 264.179 226.12 266.416 225.876C268.653 225.632 269.899 224.891 269.154 222.911C268.408 220.931 264.179 216.727 264.179 216.727Z" fill="white" stroke="#00005B" stroke-linecap="round" stroke-linejoin="round"/>
<path d="M294.09 216.727C294.09 216.727 298.565 213.762 297.073 218.951C295.582 224.14 294.09 226.12 291.853 225.876C289.616 225.632 288.369 224.891 289.115 222.911C289.861 220.931 294.09 216.727 294.09 216.727Z" fill="white" stroke="#00005B" stroke-linecap="round" stroke-linejoin="round"/>
<path d="M273.884 192.987C273.884 192.987 266.416 195.454 263.933 202.38C261.451 209.305 263.688 217.712 264.924 221.175C266.171 224.637 272.137 231.309 272.137 231.309H285.57C285.57 231.309 290.545 226.607 293.283 220.434C296.021 214.25 296.021 205.598 296.021 205.598C296.021 205.598 298.258 206.34 298.258 203.375C298.258 200.41 291.291 194.723 291.291 194.723C291.291 194.723 294.53 193.485 292.282 191.758C290.045 190.032 282.087 190.773 282.087 190.773C282.087 190.773 281.096 185.585 273.873 192.997L273.884 192.987Z" fill="#00005B" stroke="#00005B" stroke-linecap="round" stroke-linejoin="round"/>
<path d="M303.315 477.048L305.358 478.317C305.358 478.317 307.657 478.317 308.934 479.587C310.211 480.856 309.741 487.161 309.741 487.161C309.741 487.161 308.719 487.913 303.867 487.913C299.014 487.913 288.329 489.091 287.307 487.314C286.285 485.537 287.481 478.063 287.481 478.063L303.315 477.048Z" fill="#AB40F9" stroke="#00005B" stroke-linecap="round" stroke-linejoin="round"/>
<path d="M247.384 317.375C247.384 317.375 245.852 328.544 245.852 330.829C245.852 333.113 245.341 352.914 245.341 352.914C245.341 352.914 245.596 404.954 245.596 405.969C245.596 406.984 241.254 421.2 242.787 430.847C244.319 440.493 247.384 477.555 247.384 477.555C247.384 477.555 246.362 485.679 247.128 486.44C247.895 487.202 257.344 488.217 259.387 487.202C261.431 486.186 260.154 476.286 260.154 476.286C260.154 476.286 261.431 471.971 261.431 468.924V460.801C261.431 458.263 262.708 435.67 263.984 426.785C265.261 417.9 266.028 405.969 266.028 405.969L271.391 351.137L275.477 350.883C275.477 350.883 280.585 409.777 280.841 414.092C281.096 418.408 280.074 427.039 282.373 436.939C284.671 446.839 285.948 473.748 285.948 473.748C285.948 473.748 285.438 476.286 285.948 477.302C286.459 478.317 287.736 481.363 287.736 481.363C287.736 481.363 289.779 481.617 293.099 481.363C295.899 481.15 297.584 480.866 301.313 479.14C303.131 477.474 303.938 475.19 302.968 472.834C301.435 469.117 300.761 468.417 300.761 468.417C300.761 468.417 303.06 436.431 303.06 428.562C303.06 420.693 301.783 411.046 301.783 410.285C301.783 409.523 303.315 352.406 303.315 346.568C303.315 340.729 302.804 324.99 300.25 318.136C297.697 311.282 256.833 313.059 252.747 313.313C248.661 313.567 247.384 317.375 247.384 317.375Z" fill="#00005B" stroke="#00005B" stroke-linecap="round" stroke-linejoin="round"/>
<path d="M262.452 350.752L284.416 349.736" stroke="#7900E9" stroke-linecap="round" stroke-linejoin="round"/>
<path d="M275.222 238.68L261.43 241.981C261.43 241.981 241.51 251.627 237.168 254.165C232.826 256.704 215.715 290.974 216.481 292.751C217.247 294.528 220.567 296.813 223.888 297.32C227.208 297.828 244.064 278.789 244.064 278.789C244.064 278.789 248.916 302.651 248.916 303.667C248.916 304.682 246.107 316.867 247.384 318.898C248.661 320.929 297.696 318.898 297.696 318.898C297.696 318.898 301.272 319.152 301.783 315.852C302.294 312.552 300.761 302.905 300.761 302.905L306.38 273.712C306.38 273.712 317.117 289.898 319.517 292.497C323.696 297.026 328.895 295.127 331.664 291.736C334.075 288.781 331.919 283.105 331.153 281.328C330.387 279.551 316.851 249.342 312.765 248.073C308.678 246.804 291.567 240.711 291.567 240.711L275.222 238.68Z" fill="white" stroke="#00005B" stroke-linecap="round" stroke-linejoin="round"/>
<path d="M261.43 241.98C261.43 241.98 278.307 241.635 281.116 241.635C283.926 241.635 294.182 241.544 294.182 241.544L291.587 236.05C291.587 236.05 286.224 234.527 278.052 234.527C269.879 234.527 263.749 237.066 263.749 237.066L261.43 241.98Z" fill="white" stroke="#00005B" stroke-linecap="round" stroke-linejoin="round"/>
<path d="M238.864 265.406L244.064 278.789L235.125 269.904" stroke="#00005B" stroke-linecap="round" stroke-linejoin="round"/>
<path d="M237.168 261.019L237.781 262.613" stroke="#00005B" stroke-linecap="round" stroke-linejoin="round"/>
<path d="M265.905 301.453C265.016 302.184 264.127 302.844 263.218 303.413" stroke="#00005B" stroke-linecap="round" stroke-linejoin="round"/>
<path d="M289.268 263.05C289.268 263.05 279.931 288.425 267.427 300.123" stroke="#00005B" stroke-linecap="round" stroke-linejoin="round"/>
<path d="M312.254 259.243L306.38 273.712L315.829 263.558" stroke="#00005B" stroke-linecap="round" stroke-linejoin="round"/>
<path d="M214.183 299.097C214.183 299.097 215.97 304.936 221.589 309.251C227.208 313.567 242.276 327.783 242.276 327.783C242.276 327.783 242.021 328.798 242.276 330.067C242.531 331.337 246.618 334.637 246.618 334.637V332.098L247.639 330.067L248.661 327.529C248.661 327.529 251.215 326.513 251.981 326.006C252.747 325.498 253.258 324.736 253.258 324.736C253.258 324.736 256.067 325.244 257.855 325.244C259.643 325.244 262.197 323.467 260.664 322.959C259.132 322.452 257.6 322.959 255.556 321.944C253.513 320.929 252.492 319.913 250.449 319.913H245.085L231.039 297.066L214.183 299.097Z" fill="white" stroke="#00005B" stroke-linecap="round" stroke-linejoin="round"/>
<path d="M220.22 283.491C220.22 283.491 217.237 284.374 216.471 285.136C215.705 285.897 211.874 291.736 212.64 294.782C213.406 297.828 214.428 302.144 221.068 303.413C227.708 304.682 231.284 301.89 231.795 301.128C232.305 300.367 233.562 291.38 232.54 291.38C231.519 291.38 228.73 294.782 228.73 294.782C228.73 294.782 221.119 293.066 219.587 291.797C218.054 290.527 220.21 283.491 220.21 283.491H220.22Z" fill="white" stroke="#00005B" stroke-linecap="round" stroke-linejoin="round"/>
<path d="M337.395 299.097C337.395 299.097 335.607 304.936 329.989 309.252C324.37 313.567 309.302 327.783 309.302 327.783C309.302 327.783 309.557 328.798 309.302 330.067C309.046 331.337 303.417 335.246 303.417 335.246V331.55L303.029 329.214L302.917 327.539C302.917 327.539 300.363 326.524 299.597 326.016C298.83 325.508 298.32 324.747 298.32 324.747C298.32 324.747 295.51 325.254 293.723 325.254C291.935 325.254 289.381 323.477 290.913 322.97C292.446 322.462 293.978 322.97 296.021 321.954C298.064 320.939 299.086 319.923 301.129 319.923H306.492L320.539 297.077L337.395 299.108V299.097Z" fill="white" stroke="#00005B" stroke-linecap="round" stroke-linejoin="round"/>
<path d="M332.41 284.74C332.41 284.74 334.32 284.374 335.086 285.136C335.852 285.897 339.683 291.736 338.917 294.782C338.151 297.828 337.129 302.144 330.489 303.413C323.849 304.682 320.273 301.89 319.763 301.128C319.252 300.367 318.843 291.726 319.507 292.497C320.702 293.878 322.827 294.782 322.827 294.782C322.827 294.782 330.744 294.376 331.991 289.928C332.522 288.019 332.41 284.74 332.41 284.74Z" fill="white" stroke="#00005B" stroke-linecap="round" stroke-linejoin="round"/>
<path d="M259.387 487.202C261.001 486.4 260.542 480.064 260.276 477.434C258.958 478.043 256.946 478.795 254.535 479.079C250.193 479.587 247.384 477.556 247.384 477.556C247.384 477.556 246.567 486.339 247.261 487.162C248.017 488.055 257.344 488.218 259.387 487.202Z" fill="#AB40F9" stroke="#00005B" stroke-linecap="round" stroke-linejoin="round"/>
<path d="M451.566 488.227C451.293 488.227 451.07 488.006 451.07 487.735V424.212C451.07 423.941 451.293 423.719 451.566 423.719C451.838 423.719 452.061 423.941 452.061 424.212V487.735C452.061 488.006 451.838 488.227 451.566 488.227Z" fill="#00005B"/>
<path d="M451.095 482.008C451.095 482.008 447.737 477.23 443.401 474.84C439.076 472.451 431.865 472.451 431.865 472.451C431.865 472.451 435.706 486.306 451.082 482.008H451.095Z" fill="#00005B"/>
<path d="M451.566 482.008C451.566 482.008 454.936 477.23 459.26 474.84C463.584 472.451 470.795 472.451 470.795 472.451C470.795 472.451 466.954 486.306 451.578 482.008H451.566Z" fill="#00005B"/>
<path d="M451.095 464.815C451.095 464.815 447.737 460.037 443.401 457.648C439.076 455.259 431.865 455.259 431.865 455.259C431.865 455.259 435.706 469.114 451.082 464.815H451.095Z" fill="#00005B"/>
<path d="M451.566 464.815C451.566 464.815 454.936 460.037 459.26 457.648C463.584 455.259 470.795 455.259 470.795 455.259C470.795 455.259 466.954 469.114 451.578 464.815H451.566Z" fill="#00005B"/>
<path d="M451.095 447.623C451.095 447.623 447.737 442.845 443.401 440.456C439.076 438.066 431.865 438.066 431.865 438.066C431.865 438.066 435.706 451.921 451.082 447.623H451.095Z" fill="#00005B"/>
<path d="M451.566 447.623C451.566 447.623 454.936 442.845 459.26 440.456C463.584 438.066 470.795 438.066 470.795 438.066C470.795 438.066 466.954 451.921 451.578 447.623H451.566Z" fill="#00005B"/>
<path d="M451.095 430.419C451.095 430.419 447.737 425.64 443.401 423.251C439.076 420.862 431.865 420.862 431.865 420.862C431.865 420.862 435.706 434.717 451.082 430.419H451.095Z" fill="#00005B"/>
<path d="M451.566 430.419C451.566 430.419 454.936 425.64 459.26 423.251C463.584 420.862 470.795 420.862 470.795 420.862C470.795 420.862 466.954 434.717 451.578 430.419H451.566Z" fill="#00005B"/>
<path d="M451.566 424.212C451.566 424.212 447.725 419.064 447.526 414.15C447.328 409.236 450.587 402.844 450.587 402.844C450.587 402.844 462.37 412.512 451.566 424.212Z" fill="#00005B"/>
<path d="M91.4504 488.227C91.2052 488.227 91.0111 488.034 91.0111 487.791V431.171C91.0111 430.928 91.2052 430.735 91.4504 430.735C91.6956 430.735 91.8897 430.928 91.8897 431.171V487.791C91.8897 488.034 91.6956 488.227 91.4504 488.227Z" fill="#00005B"/>
<path d="M91.0213 482.683C91.0213 482.683 88.0281 478.429 84.1665 476.296C80.3152 474.164 73.8895 474.164 73.8895 474.164C73.8895 474.164 77.3117 486.511 91.0213 482.673V482.683Z" fill="#00005B"/>
<path d="M91.4504 482.683C91.4504 482.683 94.4436 478.429 98.3052 476.296C102.156 474.164 108.582 474.164 108.582 474.164C108.582 474.164 105.16 486.511 91.4504 482.673V482.683Z" fill="#00005B"/>
<path d="M91.0213 467.361C91.0213 467.361 88.0281 463.106 84.1665 460.974C80.3152 458.842 73.8895 458.842 73.8895 458.842C73.8895 458.842 77.3117 471.189 91.0213 467.351V467.361Z" fill="#00005B"/>
<path d="M91.4504 467.361C91.4504 467.361 94.4436 463.106 98.3052 460.974C102.156 458.842 108.582 458.842 108.582 458.842C108.582 458.842 105.16 471.189 91.4504 467.351V467.361Z" fill="#00005B"/>
<path d="M91.0213 452.038C91.0213 452.038 88.0281 447.783 84.1665 445.651C80.3152 443.519 73.8895 443.519 73.8895 443.519C73.8895 443.519 77.3117 455.866 91.0213 452.028V452.038Z" fill="#00005B"/>
<path d="M91.4504 452.038C91.4504 452.038 94.4436 447.783 98.3052 445.651C102.156 443.519 108.582 443.519 108.582 443.519C108.582 443.519 105.16 455.866 91.4504 452.028V452.038Z" fill="#00005B"/>
<path d="M91.0213 436.706C91.0213 436.706 88.0281 432.451 84.1665 430.319C80.3152 428.186 73.8895 428.186 73.8895 428.186C73.8895 428.186 77.3117 440.534 91.0213 436.695V436.706Z" fill="#00005B"/>
<path d="M91.4504 436.706C91.4504 436.706 94.4436 432.451 98.3052 430.319C102.156 428.186 108.582 428.186 108.582 428.186C108.582 428.186 105.16 440.534 91.4504 436.695V436.706Z" fill="#00005B"/>
<path d="M91.4504 431.172C91.4504 431.172 88.0179 426.592 87.8544 422.205C87.6808 417.829 90.582 412.122 90.582 412.122C90.582 412.122 101.084 420.733 91.4606 431.161L91.4504 431.172Z" fill="#00005B"/>
<path d="M128.258 487.983V462.233C128.258 461.989 128.064 461.796 127.819 461.796C127.573 461.796 127.379 461.989 127.379 462.233V487.983H128.258Z" fill="#00005B"/>
<path d="M127.389 483.089C127.389 483.089 124.396 478.835 120.535 476.702C116.683 474.57 110.258 474.57 110.258 474.57C110.258 474.57 113.68 486.917 127.389 483.079V483.089Z" fill="#00005B"/>
<path d="M127.818 483.089C127.818 483.089 130.812 478.835 134.673 476.702C138.525 474.57 144.95 474.57 144.95 474.57C144.95 474.57 141.528 486.917 127.818 483.079V483.089Z" fill="#00005B"/>
<path d="M127.389 467.757C127.389 467.757 124.396 463.502 120.535 461.37C116.683 459.238 110.258 459.238 110.258 459.238C110.258 459.238 113.68 471.585 127.389 467.747V467.757Z" fill="#00005B"/>
<path d="M127.818 467.757C127.818 467.757 130.812 463.502 134.673 461.37C138.525 459.238 144.95 459.238 144.95 459.238C144.95 459.238 141.528 471.585 127.818 467.747V467.757Z" fill="#00005B"/>
<path d="M127.819 462.223C127.819 462.223 124.386 457.643 124.223 453.257C124.049 448.88 126.95 443.174 126.95 443.174C126.95 443.174 137.452 451.784 127.829 462.213L127.819 462.223Z" fill="#00005B"/>
<path d="M409.365 487.944V459.052C409.365 458.781 409.142 458.56 408.869 458.56C408.596 458.56 408.373 458.781 408.373 459.052V487.944H409.352H409.365Z" fill="#00005B"/>
<path d="M408.398 482.451C408.398 482.451 405.04 477.673 400.704 475.284C396.38 472.895 389.168 472.895 389.168 472.895C389.168 472.895 393.009 486.749 408.386 482.451H408.398Z" fill="#00005B"/>
<path d="M408.881 482.451C408.881 482.451 412.239 477.673 416.576 475.284C420.9 472.895 428.111 472.895 428.111 472.895C428.111 472.895 424.27 486.749 408.894 482.451H408.881Z" fill="#00005B"/>
<path d="M408.398 465.259C408.398 465.259 405.04 460.481 400.704 458.092C396.38 455.702 389.168 455.702 389.168 455.702C389.168 455.702 393.009 469.557 408.386 465.259H408.398Z" fill="#00005B"/>
<path d="M408.881 465.259C408.881 465.259 412.239 460.481 416.576 458.092C420.9 455.702 428.111 455.702 428.111 455.702C428.111 455.702 424.27 469.557 408.894 465.259H408.881Z" fill="#00005B"/>
<path d="M408.881 459.052C408.881 459.052 405.04 453.905 404.842 448.991C404.644 444.077 407.902 437.685 407.902 437.685C407.902 437.685 419.686 447.353 408.881 459.052Z" fill="#00005B"/>
<path d="M493.061 487.944V459.052C493.061 458.781 492.838 458.56 492.565 458.56C492.293 458.56 492.07 458.781 492.07 459.052V487.944H493.048H493.061Z" fill="#00005B"/>
<path d="M492.082 482.451C492.082 482.451 488.724 477.673 484.387 475.284C480.063 472.895 472.852 472.895 472.852 472.895C472.852 472.895 476.693 486.749 492.069 482.451H492.082Z" fill="#00005B"/>
<path d="M492.565 482.451C492.565 482.451 495.923 477.673 500.26 475.284C504.584 472.895 511.795 472.895 511.795 472.895C511.795 472.895 507.954 486.749 492.578 482.451H492.565Z" fill="#00005B"/>
<path d="M492.082 465.259C492.082 465.259 488.724 460.481 484.387 458.092C480.063 455.702 472.852 455.702 472.852 455.702C472.852 455.702 476.693 469.557 492.069 465.259H492.082Z" fill="#00005B"/>
<path d="M492.565 465.259C492.565 465.259 495.923 460.481 500.26 458.092C504.584 455.702 511.795 455.702 511.795 455.702C511.795 455.702 507.954 469.557 492.578 465.259H492.565Z" fill="#00005B"/>
<path d="M492.565 459.052C492.565 459.052 488.724 453.905 488.526 448.991C488.328 444.077 491.586 437.685 491.586 437.685C491.586 437.685 503.369 447.353 492.565 459.052Z" fill="#00005B"/>
<path d="M516.477 487.892H523.383" stroke="#00005B" stroke-linecap="round" stroke-linejoin="round"/>
<path d="M151.407 487.892H507.048" stroke="#00005B" stroke-linecap="round" stroke-linejoin="round"/>
<path d="M71.8463 487.892H141.988" stroke="#00005B" stroke-linecap="round" stroke-linejoin="round"/>
</svg>
