<svg width="793" height="602" viewBox="0 0 793 602" fill="none" xmlns="http://www.w3.org/2000/svg">
<mask id="mask0_1673_3950" style="mask-type:luminance" maskUnits="userSpaceOnUse" x="225" y="34" width="547" height="558">
<path style="mix-blend-mode:multiply" d="M543.452 108.113C635.587 73.4227 665.831 21.0459 709.327 38.3134C757.401 57.3956 778.545 112.228 770.012 167.799C755.228 264.105 737.494 294.249 728.543 394.399C716.268 531.762 723.626 553.243 692.133 580.535C647.884 618.88 590.99 540.071 467.593 536.026C349.88 532.165 290.366 561.022 260.248 546.143C158.097 495.679 313.854 404.52 328.016 319.543C342.81 230.766 261.91 192.754 285.535 153.641C315.119 104.658 407.365 159.357 543.452 108.12V108.113Z" fill="url(#paint0_linear_1673_3950)"/>
</mask>
<g mask="url(#mask0_1673_3950)">
<path d="M543.452 108.113C635.587 73.4227 665.831 21.0459 709.327 38.3134C757.401 57.3956 778.545 112.228 770.012 167.799C755.228 264.105 737.494 294.249 728.543 394.399C716.268 531.762 723.626 553.243 692.133 580.535C647.884 618.88 590.99 540.071 467.593 536.026C349.88 532.165 290.366 561.022 260.248 546.143C158.097 495.679 313.854 404.52 328.016 319.543C342.81 230.766 261.91 192.754 285.535 153.641C315.119 104.658 407.365 159.357 543.452 108.12V108.113Z" fill="url(#paint1_linear_1673_3950)"/>
</g>
<mask id="mask1_1673_3950" style="mask-type:luminance" maskUnits="userSpaceOnUse" x="246" y="13" width="547" height="558">
<path style="mix-blend-mode:multiply" d="M564.586 87.1815C656.72 52.491 686.968 0.114223 730.464 17.3786C778.538 36.4607 799.682 91.293 791.149 146.864C776.365 243.17 758.631 273.314 749.68 373.465C737.404 510.828 744.763 532.308 713.269 559.6C669.021 597.946 612.127 519.136 488.73 515.091C371.017 511.23 311.502 540.087 281.385 525.208C179.234 474.744 334.99 383.585 349.153 298.608C363.947 209.831 283.047 171.819 306.671 132.706C336.256 83.7236 428.501 138.423 564.589 87.1847L564.586 87.1815Z" fill="url(#paint2_linear_1673_3950)"/>
</mask>
<g mask="url(#mask1_1673_3950)">
<path opacity="0.37" d="M564.586 87.1815C656.72 52.491 686.968 0.114223 730.464 17.3786C778.538 36.4607 799.682 91.293 791.149 146.864C776.365 243.17 758.631 273.314 749.68 373.465C737.404 510.828 744.763 532.308 713.269 559.6C669.021 597.946 612.127 519.136 488.73 515.091C371.017 511.23 311.502 540.087 281.385 525.208C179.234 474.744 334.99 383.585 349.153 298.608C363.947 209.831 283.047 171.819 306.671 132.706C336.256 83.7236 428.501 138.423 564.589 87.1847L564.586 87.1815Z" fill="url(#paint3_linear_1673_3950)"/>
</g>
<path d="M685.283 113.005H457.66V235.347H685.283V113.005Z" fill="#7CD6C2"/>
<mask id="mask2_1673_3950" style="mask-type:luminance" maskUnits="userSpaceOnUse" x="470" y="124" width="203" height="10">
<path style="mix-blend-mode:multiply" d="M672.182 124.534H470.766V133.502H672.182V124.534Z" fill="url(#paint4_linear_1673_3950)"/>
</mask>
<g mask="url(#mask2_1673_3950)">
<path d="M672.182 124.534H470.766V133.502H672.182V124.534Z" fill="url(#paint5_linear_1673_3950)"/>
</g>
<mask id="mask3_1673_3950" style="mask-type:luminance" maskUnits="userSpaceOnUse" x="470" y="142" width="203" height="10">
<path style="mix-blend-mode:multiply" d="M672.182 142.471H470.766V151.439H672.182V142.471Z" fill="url(#paint6_linear_1673_3950)"/>
</mask>
<g mask="url(#mask3_1673_3950)">
<path d="M672.182 142.471H470.766V151.439H672.182V142.471Z" fill="url(#paint7_linear_1673_3950)"/>
</g>
<mask id="mask4_1673_3950" style="mask-type:luminance" maskUnits="userSpaceOnUse" x="470" y="160" width="203" height="10">
<path style="mix-blend-mode:multiply" d="M672.182 160.401H470.766V169.37H672.182V160.401Z" fill="url(#paint8_linear_1673_3950)"/>
</mask>
<g mask="url(#mask4_1673_3950)">
<path d="M672.182 160.401H470.766V169.37H672.182V160.401Z" fill="url(#paint9_linear_1673_3950)"/>
</g>
<mask id="mask5_1673_3950" style="mask-type:luminance" maskUnits="userSpaceOnUse" x="470" y="178" width="203" height="10">
<path style="mix-blend-mode:multiply" d="M672.182 178.335H470.766V187.303H672.182V178.335Z" fill="url(#paint10_linear_1673_3950)"/>
</mask>
<g mask="url(#mask5_1673_3950)">
<path d="M672.182 178.335H470.766V187.303H672.182V178.335Z" fill="url(#paint11_linear_1673_3950)"/>
</g>
<mask id="mask6_1673_3950" style="mask-type:luminance" maskUnits="userSpaceOnUse" x="470" y="196" width="203" height="10">
<path style="mix-blend-mode:multiply" d="M672.182 196.272H470.766V205.24H672.182V196.272Z" fill="url(#paint12_linear_1673_3950)"/>
</mask>
<g mask="url(#mask6_1673_3950)">
<path d="M672.182 196.272H470.766V205.24H672.182V196.272Z" fill="url(#paint13_linear_1673_3950)"/>
</g>
<mask id="mask7_1673_3950" style="mask-type:luminance" maskUnits="userSpaceOnUse" x="470" y="214" width="203" height="10">
<path style="mix-blend-mode:multiply" d="M672.182 214.206H470.766V223.174H672.182V214.206Z" fill="url(#paint14_linear_1673_3950)"/>
</mask>
<g mask="url(#mask7_1673_3950)">
<path d="M672.182 214.206H470.766V223.174H672.182V214.206Z" fill="url(#paint15_linear_1673_3950)"/>
</g>
<mask id="mask8_1673_3950" style="mask-type:luminance" maskUnits="userSpaceOnUse" x="593" y="484" width="118" height="9">
<path style="mix-blend-mode:multiply" d="M710.813 484.779H593.379V492.976H710.813V484.779Z" fill="url(#paint16_linear_1673_3950)"/>
</mask>
<g mask="url(#mask8_1673_3950)">
<path d="M710.813 484.779H593.379V492.976H710.813V484.779Z" fill="url(#paint17_linear_1673_3950)"/>
</g>
<mask id="mask9_1673_3950" style="mask-type:luminance" maskUnits="userSpaceOnUse" x="593" y="501" width="118" height="9">
<path style="mix-blend-mode:multiply" d="M710.813 501.174H593.379V509.371H710.813V501.174Z" fill="url(#paint18_linear_1673_3950)"/>
</mask>
<g mask="url(#mask9_1673_3950)">
<path d="M710.813 501.174H593.379V509.371H710.813V501.174Z" fill="url(#paint19_linear_1673_3950)"/>
</g>
<mask id="mask10_1673_3950" style="mask-type:luminance" maskUnits="userSpaceOnUse" x="593" y="517" width="118" height="9">
<path style="mix-blend-mode:multiply" d="M710.813 517.569H593.379V525.767H710.813V517.569Z" fill="url(#paint20_linear_1673_3950)"/>
</mask>
<g mask="url(#mask10_1673_3950)">
<path d="M710.813 517.569H593.379V525.767H710.813V517.569Z" fill="url(#paint21_linear_1673_3950)"/>
</g>
<mask id="mask11_1673_3950" style="mask-type:luminance" maskUnits="userSpaceOnUse" x="651" y="79" width="68" height="68">
<path style="mix-blend-mode:multiply" d="M718.609 79.6755H651.961V146.335H718.609V79.6755Z" fill="url(#paint22_linear_1673_3950)"/>
</mask>
<g mask="url(#mask11_1673_3950)">
<path d="M718.609 79.6755H651.961V146.335H718.609V79.6755Z" fill="url(#paint23_linear_1673_3950)"/>
</g>
<mask id="mask12_1673_3950" style="mask-type:luminance" maskUnits="userSpaceOnUse" x="619" y="47" width="33" height="33">
<path style="mix-blend-mode:multiply" d="M651.963 47.6404H619.93V79.6787H651.963V47.6404Z" fill="url(#paint24_linear_1673_3950)"/>
</mask>
<g mask="url(#mask12_1673_3950)">
<path d="M651.963 47.6404H619.93V79.6787H651.963V47.6404Z" fill="url(#paint25_linear_1673_3950)"/>
</g>
<mask id="mask13_1673_3950" style="mask-type:luminance" maskUnits="userSpaceOnUse" x="663" y="54" width="16" height="16">
<path style="mix-blend-mode:multiply" d="M678.688 54.8386H663.539V69.9901H678.688V54.8386Z" fill="url(#paint26_linear_1673_3950)"/>
</mask>
<g mask="url(#mask13_1673_3950)">
<path d="M678.688 54.8386H663.539V69.9901H678.688V54.8386Z" fill="url(#paint27_linear_1673_3950)"/>
</g>
<mask id="mask14_1673_3950" style="mask-type:luminance" maskUnits="userSpaceOnUse" x="442" y="235" width="16" height="16">
<path style="mix-blend-mode:multiply" d="M457.661 235.35H442.512V250.501H457.661V235.35Z" fill="url(#paint28_linear_1673_3950)"/>
</mask>
<g mask="url(#mask14_1673_3950)">
<path d="M457.661 235.35H442.512V250.501H457.661V235.35Z" fill="url(#paint29_linear_1673_3950)"/>
</g>
<mask id="mask15_1673_3950" style="mask-type:luminance" maskUnits="userSpaceOnUse" x="718" y="146" width="30" height="30">
<path style="mix-blend-mode:multiply" d="M747.889 146.335H718.609V175.619H747.889V146.335Z" fill="url(#paint30_linear_1673_3950)"/>
</mask>
<g mask="url(#mask15_1673_3950)">
<path d="M747.889 146.335H718.609V175.619H747.889V146.335Z" fill="url(#paint31_linear_1673_3950)"/>
</g>
<mask id="mask16_1673_3950" style="mask-type:luminance" maskUnits="userSpaceOnUse" x="727" y="123" width="16" height="16">
<path style="mix-blend-mode:multiply" d="M742.255 123.271H727.105V138.423H742.255V123.271Z" fill="url(#paint32_linear_1673_3950)"/>
</mask>
<g mask="url(#mask16_1673_3950)">
<path d="M742.255 123.271H727.105V138.423H742.255V123.271Z" fill="url(#paint33_linear_1673_3950)"/>
</g>
<mask id="mask17_1673_3950" style="mask-type:luminance" maskUnits="userSpaceOnUse" x="402" y="58" width="111" height="110">
<path style="mix-blend-mode:multiply" d="M508.797 101.825H500.385C498.844 101.825 497.473 100.845 496.969 99.3891C496.43 97.8282 495.799 96.3118 495.085 94.8398C494.409 93.4503 494.682 91.7879 495.776 90.6966L501.727 84.7483C503.138 83.3366 503.138 81.0461 501.727 79.6312L491.034 68.9369C489.623 67.5252 487.333 67.5252 485.918 68.9369L479.971 74.8852C478.88 75.9766 477.218 76.2494 475.828 75.5768C474.36 74.863 472.84 74.2317 471.28 73.6924C469.824 73.188 468.844 71.8175 468.844 70.2757V61.8624C468.844 59.8638 467.223 58.2458 465.228 58.2458H450.107C448.109 58.2458 446.491 59.867 446.491 61.8624V70.2757C446.491 71.8175 445.511 73.188 444.055 73.6924C442.495 74.2317 440.978 74.863 439.507 75.5768C438.117 76.2526 436.455 75.9797 435.364 74.8852L429.417 68.9369C428.005 67.5252 425.715 67.5252 424.301 68.9369L413.608 79.6312C412.197 81.0429 412.197 83.3334 413.608 84.7483L419.559 90.6966C420.65 91.7879 420.922 93.4503 420.25 94.8398C419.536 96.3086 418.905 97.8282 418.366 99.3891C417.862 100.845 416.491 101.825 414.95 101.825H406.538C404.54 101.825 402.922 103.447 402.922 105.442V120.565C402.922 122.564 404.543 124.182 406.538 124.182H414.95C416.491 124.182 417.862 125.162 418.366 126.618C418.905 128.179 419.536 129.695 420.25 131.167C420.926 132.557 420.653 134.219 419.559 135.31L413.608 141.262C412.197 142.674 412.197 144.964 413.608 146.379L424.301 157.073C425.712 158.485 428.002 158.485 429.417 157.073L435.364 151.125C436.455 150.034 438.117 149.761 439.507 150.433C440.975 151.147 442.495 151.779 444.055 152.318C445.511 152.822 446.491 154.193 446.491 155.735V164.148C446.491 166.146 448.112 167.764 450.107 167.764H465.228C467.226 167.764 468.844 166.143 468.844 164.148V155.735C468.844 154.193 469.824 152.822 471.28 152.318C472.84 151.779 474.356 151.147 475.828 150.433C477.218 149.758 478.88 150.031 479.971 151.125L485.918 157.073C487.33 158.485 489.62 158.485 491.034 157.073L501.727 146.379C503.138 144.967 503.138 142.677 501.727 141.262L495.776 135.31C494.685 134.219 494.412 132.557 495.085 131.167C495.799 129.698 496.43 128.179 496.969 126.618C497.473 125.162 498.844 124.182 500.385 124.182H508.797C510.795 124.182 512.413 122.56 512.413 120.565V105.442C512.413 103.443 510.792 101.825 508.797 101.825ZM457.663 134.59C445.743 134.59 436.081 124.927 436.081 113.005C436.081 101.083 445.743 91.4199 457.663 91.4199C469.583 91.4199 479.244 101.083 479.244 113.005C479.244 124.927 469.583 134.59 457.663 134.59Z" fill="url(#paint34_linear_1673_3950)"/>
</mask>
<g mask="url(#mask17_1673_3950)">
<path d="M508.797 101.825H500.385C498.844 101.825 497.473 100.845 496.969 99.3891C496.43 97.8282 495.799 96.3118 495.085 94.8398C494.409 93.4503 494.682 91.7879 495.776 90.6966L501.727 84.7483C503.138 83.3366 503.138 81.0461 501.727 79.6312L491.034 68.9369C489.623 67.5252 487.333 67.5252 485.918 68.9369L479.971 74.8852C478.88 75.9766 477.218 76.2494 475.828 75.5768C474.36 74.863 472.84 74.2317 471.28 73.6924C469.824 73.188 468.844 71.8175 468.844 70.2757V61.8624C468.844 59.8638 467.223 58.2458 465.228 58.2458H450.107C448.109 58.2458 446.491 59.867 446.491 61.8624V70.2757C446.491 71.8175 445.511 73.188 444.055 73.6924C442.495 74.2317 440.978 74.863 439.507 75.5768C438.117 76.2526 436.455 75.9797 435.364 74.8852L429.417 68.9369C428.005 67.5252 425.715 67.5252 424.301 68.9369L413.608 79.6312C412.197 81.0429 412.197 83.3334 413.608 84.7483L419.559 90.6966C420.65 91.7879 420.922 93.4503 420.25 94.8398C419.536 96.3086 418.905 97.8282 418.366 99.3891C417.862 100.845 416.491 101.825 414.95 101.825H406.538C404.54 101.825 402.922 103.447 402.922 105.442V120.565C402.922 122.564 404.543 124.182 406.538 124.182H414.95C416.491 124.182 417.862 125.162 418.366 126.618C418.905 128.179 419.536 129.695 420.25 131.167C420.926 132.557 420.653 134.219 419.559 135.31L413.608 141.262C412.197 142.674 412.197 144.964 413.608 146.379L424.301 157.073C425.712 158.485 428.002 158.485 429.417 157.073L435.364 151.125C436.455 150.034 438.117 149.761 439.507 150.433C440.975 151.147 442.495 151.779 444.055 152.318C445.511 152.822 446.491 154.193 446.491 155.735V164.148C446.491 166.146 448.112 167.764 450.107 167.764H465.228C467.226 167.764 468.844 166.143 468.844 164.148V155.735C468.844 154.193 469.824 152.822 471.28 152.318C472.84 151.779 474.356 151.147 475.828 150.433C477.218 149.758 478.88 150.031 479.971 151.125L485.918 157.073C487.33 158.485 489.62 158.485 491.034 157.073L501.727 146.379C503.138 144.967 503.138 142.677 501.727 141.262L495.776 135.31C494.685 134.219 494.412 132.557 495.085 131.167C495.799 129.698 496.43 128.179 496.969 126.618C497.473 125.162 498.844 124.182 500.385 124.182H508.797C510.795 124.182 512.413 122.56 512.413 120.565V105.442C512.413 103.443 510.792 101.825 508.797 101.825ZM457.663 134.59C445.743 134.59 436.081 124.927 436.081 113.005C436.081 101.083 445.743 91.4199 457.663 91.4199C469.583 91.4199 479.244 101.083 479.244 113.005C479.244 124.927 469.583 134.59 457.663 134.59Z" fill="url(#paint35_linear_1673_3950)"/>
</g>
<path d="M370.751 182.021C370.351 182.021 369.945 181.955 369.548 181.815L363.017 179.528C361.117 178.862 360.112 176.777 360.778 174.877L362.913 168.773C363.113 168.205 362.932 167.571 362.466 167.193C361.853 166.698 361.257 166.165 360.696 165.607C360.267 165.185 359.614 165.074 359.075 165.337L353.248 168.145C351.434 169.017 349.248 168.253 348.376 166.438L345.375 160.201C344.953 159.323 344.896 158.333 345.22 157.41C345.543 156.49 346.203 155.75 347.082 155.325L352.909 152.518C353.451 152.258 353.771 151.68 353.708 151.081C353.625 150.294 353.578 149.494 353.575 148.708C353.571 148.108 353.188 147.572 352.62 147.375L346.517 145.24C345.597 144.917 344.858 144.257 344.433 143.378C344.011 142.499 343.954 141.509 344.278 140.589L346.565 134.057C346.888 133.137 347.548 132.398 348.427 131.973C349.305 131.551 350.295 131.494 351.215 131.818L357.318 133.953C357.885 134.152 358.52 133.972 358.897 133.505C359.395 132.89 359.928 132.293 360.483 131.735C360.905 131.307 361.016 130.656 360.756 130.114L357.949 124.286C357.076 122.472 357.841 120.286 359.655 119.413L365.891 116.412C366.77 115.99 367.763 115.933 368.682 116.257C369.602 116.58 370.345 117.24 370.766 118.119L373.574 123.947C373.834 124.489 374.411 124.813 375.01 124.746C375.797 124.661 376.596 124.616 377.383 124.613C377.983 124.61 378.519 124.226 378.718 123.658L380.853 117.554C381.519 115.654 383.603 114.648 385.503 115.315L392.034 117.602C393.934 118.268 394.94 120.352 394.273 122.256L392.139 128.36C391.939 128.927 392.12 129.562 392.586 129.94C393.198 130.434 393.795 130.967 394.356 131.526C394.784 131.948 395.434 132.059 395.977 131.795L401.804 128.988C403.618 128.115 405.803 128.88 406.676 130.695L409.676 136.932C410.098 137.81 410.155 138.8 409.832 139.72C409.508 140.64 408.848 141.379 407.97 141.804L402.143 144.612C401.601 144.872 401.28 145.45 401.344 146.049C401.426 146.836 401.474 147.635 401.477 148.422C401.48 149.022 401.864 149.558 402.432 149.754L408.534 151.89C410.434 152.556 411.44 154.643 410.774 156.54L408.487 163.072C407.821 164.973 405.737 165.978 403.834 165.312L397.731 163.177C397.163 162.977 396.529 163.158 396.151 163.624C395.653 164.24 395.12 164.833 394.565 165.395C394.14 165.823 394.032 166.473 394.292 167.016L397.1 172.843C397.972 174.658 397.207 176.844 395.393 177.716L389.157 180.717C388.279 181.139 387.286 181.196 386.369 180.873C385.449 180.549 384.71 179.889 384.285 179.011L381.478 173.183C381.218 172.64 380.641 172.32 380.041 172.383C379.258 172.469 378.458 172.513 377.669 172.517C377.069 172.52 376.533 172.904 376.333 173.472L374.198 179.575C373.672 181.079 372.257 182.021 370.751 182.021ZM359.687 162.977C360.629 162.977 361.558 163.342 362.256 164.03C362.767 164.535 363.306 165.017 363.861 165.468C365.054 166.432 365.517 168.056 365.009 169.506L362.875 175.61C362.615 176.355 363.008 177.171 363.753 177.434L370.284 179.721C371.03 179.981 371.845 179.588 372.108 178.842L374.243 172.739C374.75 171.289 376.124 170.305 377.659 170.296C378.376 170.293 379.099 170.252 379.81 170.175C381.338 170.01 382.817 170.832 383.483 172.218L386.29 178.046C386.632 178.757 387.489 179.058 388.199 178.716L394.435 175.714C394.778 175.55 395.038 175.258 395.165 174.899C395.292 174.538 395.269 174.15 395.105 173.805L392.297 167.977C391.631 166.591 391.907 164.925 392.989 163.831C393.493 163.323 393.975 162.78 394.426 162.225C395.39 161.032 397.014 160.569 398.464 161.077L404.566 163.212C405.312 163.472 406.127 163.079 406.39 162.333L408.677 155.801C408.937 155.056 408.544 154.24 407.799 153.977L401.696 151.842C400.246 151.334 399.263 149.961 399.253 148.425C399.25 147.711 399.209 146.988 399.133 146.274C398.971 144.745 399.789 143.267 401.176 142.601L407.002 139.793C407.345 139.628 407.605 139.336 407.732 138.978C407.859 138.616 407.837 138.229 407.672 137.883L404.671 131.646C404.328 130.936 403.472 130.637 402.762 130.977L396.935 133.784C395.549 134.451 393.883 134.175 392.789 133.093C392.278 132.588 391.739 132.106 391.184 131.656C389.991 130.691 389.528 129.067 390.036 127.617L392.17 121.514C392.431 120.768 392.037 119.953 391.292 119.689L384.761 117.402C384.016 117.142 383.2 117.535 382.937 118.281L380.802 124.385C380.295 125.834 378.921 126.818 377.386 126.827C376.673 126.831 375.949 126.872 375.236 126.948C373.704 127.113 372.229 126.291 371.563 124.905L368.755 119.077C368.59 118.731 368.299 118.474 367.94 118.347C367.579 118.221 367.192 118.243 366.846 118.408L360.61 121.409C360.264 121.574 360.007 121.866 359.88 122.224C359.754 122.586 359.776 122.973 359.941 123.319L362.748 129.146C363.414 130.533 363.138 132.198 362.056 133.293C361.555 133.8 361.07 134.343 360.619 134.898C359.655 136.091 358.031 136.554 356.582 136.046L350.479 133.911C350.117 133.784 349.73 133.807 349.385 133.972C349.042 134.137 348.782 134.428 348.655 134.787L346.368 141.319C346.108 142.065 346.501 142.88 347.247 143.143L353.349 145.278C354.799 145.786 355.782 147.159 355.792 148.695C355.795 149.409 355.836 150.132 355.912 150.846C356.074 152.375 355.256 153.853 353.87 154.519L348.043 157.327C347.7 157.492 347.44 157.784 347.313 158.142C347.186 158.504 347.209 158.891 347.374 159.237L350.374 165.474C350.717 166.184 351.573 166.483 352.284 166.143L358.111 163.336C358.612 163.095 359.154 162.977 359.69 162.977H359.687ZM377.526 161.68C376.067 161.68 374.604 161.432 373.187 160.937C369.881 159.779 367.223 157.406 365.704 154.25C364.185 151.093 363.985 147.537 365.143 144.228C366.3 140.922 368.673 138.264 371.829 136.744C374.985 135.225 378.541 135.025 381.849 136.183C385.154 137.341 387.812 139.714 389.332 142.87C390.851 146.027 391.051 149.586 389.893 152.892C388.735 156.198 386.363 158.856 383.207 160.376C381.405 161.245 379.47 161.68 377.529 161.68H377.526ZM373.919 158.84C376.666 159.802 379.619 159.637 382.242 158.374C384.862 157.111 386.835 154.903 387.796 152.159C388.757 149.412 388.593 146.458 387.33 143.835C386.068 141.214 383.86 139.241 381.116 138.28C378.37 137.319 375.416 137.484 372.793 138.746C370.173 140.009 368.2 142.217 367.239 144.961C366.278 147.708 366.443 150.662 367.706 153.285C368.968 155.906 371.176 157.879 373.919 158.84Z" fill="#003649"/>
<mask id="mask18_1673_3950" style="mask-type:luminance" maskUnits="userSpaceOnUse" x="446" y="292" width="338" height="154">
<path style="mix-blend-mode:multiply" d="M446.684 445.009V395.259C446.684 380.983 454.201 367.637 466.641 360.639C471.009 358.183 475.976 356.483 481.432 356.375C499.934 356.01 503.194 374.366 520.748 376.973C548.73 381.132 562.214 337.73 597.508 331.408C626.943 326.135 635.232 360.191 663.037 357.625C702.105 354.018 711.532 290.023 738.55 292.086C752.05 293.117 763.021 310.793 770.878 330.887C779.344 352.542 783.506 375.641 783.506 398.892V445.006H446.687L446.684 445.009Z" fill="url(#paint36_linear_1673_3950)"/>
</mask>
<g mask="url(#mask18_1673_3950)">
<path d="M446.684 445.009V395.259C446.684 380.983 454.201 367.637 466.641 360.639C471.009 358.183 475.976 356.483 481.432 356.375C499.934 356.01 503.194 374.366 520.748 376.973C548.73 381.132 562.214 337.73 597.508 331.408C626.943 326.135 635.232 360.191 663.037 357.625C702.105 354.018 711.532 290.023 738.55 292.086C752.05 293.117 763.021 310.793 770.878 330.887C779.344 352.542 783.506 375.641 783.506 398.892V445.006H446.687L446.684 445.009Z" fill="url(#paint37_linear_1673_3950)"/>
</g>
<path d="M647.158 429.629L609.872 370.422L581.931 404.659L557.929 389.152L540.965 349.744L501.611 408.615L477.181 386.71L436.714 414.919L435.445 413.098L477.356 383.883L501.19 405.252L541.39 345.113L559.702 387.655L581.464 401.718L610.107 366.625L646.875 425.017L694.026 324.86L713.99 366.787L740.459 345.817L791.889 421.289L790.052 422.539L739.968 349.04L713.184 370.257L694.039 330.05L647.158 429.629Z" fill="#003649"/>
<path d="M652.175 280.842C651.258 280.842 650.468 280.306 650.1 279.431C649.704 278.485 649.916 277.397 650.63 276.728L658.315 269.495L657.364 261.633L649.574 260.206L641.888 267.439C641.174 268.111 640.077 268.257 639.157 267.804C638.275 267.369 637.784 266.506 637.879 265.554C638.326 261.075 640.331 256.703 643.528 253.249C646.164 250.4 649.225 248.979 653.459 248.636C654.135 248.582 654.82 248.553 655.486 248.525C657.186 248.455 658.791 248.388 660.279 247.922C661.703 247.475 662.807 246.393 663.977 245.248C664.234 244.997 664.491 244.747 664.751 244.502L698.06 213.152C699.515 211.725 699.868 209.583 700.121 207.334L700.191 206.7C700.454 204.308 700.727 201.833 701.783 199.514C702.998 196.849 705.377 194.514 708.86 192.579C711.876 190.901 715.051 189.987 718.303 189.864C719.27 189.832 720.088 190.368 720.469 191.275C720.866 192.221 720.653 193.309 719.939 193.978L712.254 201.211L713.205 209.073L720.996 210.5L728.681 203.267C729.395 202.594 730.492 202.449 731.412 202.902C732.294 203.337 732.782 204.197 732.69 205.151C732.215 209.951 729.988 214.551 726.426 218.108C723.168 221.359 719.131 221.984 715.61 222.168C715.337 222.181 715.061 222.194 714.785 222.206C713.37 222.27 712.032 222.327 710.76 222.654C709.405 223.003 708.482 223.694 707.258 224.849L674.641 255.549C674.362 255.812 674.064 256.072 673.772 256.323C673.157 256.856 672.522 257.405 672.101 257.979C670.699 259.876 670.439 262.296 670.166 264.86C669.928 267.09 669.68 269.393 668.65 271.49C667.403 274.028 665.068 276.261 661.709 278.13C658.696 279.808 655.518 280.722 652.267 280.846C652.235 280.846 652.206 280.846 652.175 280.846V280.842ZM648.87 257.817L659.372 259.743L660.656 270.342L652.156 278.343C652.137 278.362 652.124 278.409 652.127 278.46C652.13 278.546 652.168 278.612 652.187 278.628C655.083 278.511 657.925 277.689 660.634 276.182C663.59 274.539 665.617 272.626 666.661 270.503C667.517 268.759 667.733 266.747 667.961 264.615C668.253 261.871 668.558 259.032 670.318 256.649C670.889 255.879 671.615 255.247 672.323 254.635C672.608 254.388 672.875 254.156 673.122 253.924L705.739 223.225C706.906 222.127 708.213 221.01 710.211 220.496C711.705 220.113 713.224 220.046 714.69 219.979C714.959 219.967 715.229 219.954 715.499 219.941C718.753 219.773 722.141 219.243 724.859 216.528C728.059 213.333 730.055 209.212 730.483 204.923C730.476 204.907 730.413 204.866 730.324 204.856C730.27 204.85 730.223 204.86 730.204 204.879L721.703 212.879L711.201 210.954L709.916 200.355L718.417 192.354C718.436 192.335 718.449 192.287 718.445 192.237C718.442 192.151 718.404 192.084 718.385 192.068C715.489 192.186 712.647 193.007 709.938 194.514C706.881 196.215 704.816 198.207 703.804 200.431C702.897 202.426 702.656 204.618 702.399 206.938L702.326 207.578C702.037 210.135 701.587 212.797 699.595 214.748L666.271 246.114C666.02 246.349 665.776 246.59 665.528 246.831C664.222 248.109 662.874 249.429 660.942 250.038C659.172 250.593 657.342 250.669 655.572 250.742C654.899 250.771 654.265 250.796 653.634 250.847C649.999 251.139 647.382 252.345 645.155 254.752C642.285 257.855 640.486 261.767 640.087 265.77C640.093 265.786 640.156 265.827 640.245 265.837C640.296 265.843 640.347 265.837 640.366 265.815L648.866 257.814L648.87 257.817Z" fill="#003649"/>
<mask id="mask19_1673_3950" style="mask-type:luminance" maskUnits="userSpaceOnUse" x="408" y="269" width="141" height="76">
<path style="mix-blend-mode:multiply" d="M539.975 269.993H416.604C411.95 269.993 408.176 273.765 408.176 278.422V321.881C408.176 326.535 411.947 330.31 416.604 330.31H429.951V344.697L444.336 330.31H539.975C544.628 330.31 548.403 326.538 548.403 321.881V278.422C548.403 273.768 544.631 269.993 539.975 269.993Z" fill="url(#paint38_linear_1673_3950)"/>
</mask>
<g mask="url(#mask19_1673_3950)">
<path d="M539.975 269.993H416.604C411.95 269.993 408.176 273.765 408.176 278.422V321.881C408.176 326.535 411.947 330.31 416.604 330.31H429.951V344.697L444.336 330.31H539.975C544.628 330.31 548.403 326.538 548.403 321.881V278.422C548.403 273.768 544.631 269.993 539.975 269.993Z" fill="url(#paint39_linear_1673_3950)"/>
</g>
<mask id="mask20_1673_3950" style="mask-type:luminance" maskUnits="userSpaceOnUse" x="515" y="255" width="67" height="39">
<path style="mix-blend-mode:multiply" d="M515.23 257.944V291.886C515.23 293.04 516.166 293.976 517.321 293.976H579.481C580.635 293.976 581.571 293.04 581.571 291.886V257.944C581.571 256.789 580.635 255.853 579.481 255.853H517.321C516.166 255.853 515.23 256.789 515.23 257.944ZM537.507 285.128L537.472 285.163C536.707 285.94 535.474 285.994 534.639 285.293L525.086 277.242C524.096 276.407 524.096 274.878 525.086 274.044L534.636 266.008C535.47 265.307 536.701 265.364 537.469 266.138L537.497 266.167C538.36 267.042 538.287 268.47 537.336 269.25L531.55 273.999C530.535 274.831 530.532 276.382 531.54 277.223L537.355 282.054C538.297 282.838 538.366 284.259 537.507 285.128ZM541.012 287.308L552.608 260.26C552.938 259.492 553.693 258.994 554.527 258.994H554.543C556.043 258.994 557.055 260.529 556.462 261.906L544.85 288.954C544.52 289.722 543.765 290.22 542.931 290.22C541.43 290.22 540.419 288.685 541.012 287.308ZM559.33 285.154L559.307 285.132C558.451 284.256 558.524 282.835 559.469 282.057L565.255 277.286C566.267 276.452 566.27 274.904 565.261 274.066L559.456 269.247C558.518 268.467 558.445 267.049 559.301 266.176L559.33 266.148C560.094 265.367 561.331 265.31 562.165 266.011L571.713 274.044C572.706 274.878 572.706 276.404 571.713 277.242L562.165 285.29C561.331 285.994 560.094 285.934 559.326 285.157L559.33 285.154Z" fill="url(#paint40_linear_1673_3950)"/>
</mask>
<g mask="url(#mask20_1673_3950)">
<path d="M515.23 257.944V291.886C515.23 293.04 516.166 293.976 517.321 293.976H579.481C580.635 293.976 581.571 293.04 581.571 291.886V257.944C581.571 256.789 580.635 255.853 579.481 255.853H517.321C516.166 255.853 515.23 256.789 515.23 257.944ZM537.507 285.128L537.472 285.163C536.707 285.94 535.474 285.994 534.639 285.293L525.086 277.242C524.096 276.407 524.096 274.878 525.086 274.044L534.636 266.008C535.47 265.307 536.701 265.364 537.469 266.138L537.497 266.167C538.36 267.042 538.287 268.47 537.336 269.25L531.55 273.999C530.535 274.831 530.532 276.382 531.54 277.223L537.355 282.054C538.297 282.838 538.366 284.259 537.507 285.128ZM541.012 287.308L552.608 260.26C552.938 259.492 553.693 258.994 554.527 258.994H554.543C556.043 258.994 557.055 260.529 556.462 261.906L544.85 288.954C544.52 289.722 543.765 290.22 542.931 290.22C541.43 290.22 540.419 288.685 541.012 287.308ZM559.33 285.154L559.307 285.132C558.451 284.256 558.524 282.835 559.469 282.057L565.255 277.286C566.267 276.452 566.27 274.904 565.261 274.066L559.456 269.247C558.518 268.467 558.445 267.049 559.301 266.176L559.33 266.148C560.094 265.367 561.331 265.31 562.165 266.011L571.713 274.044C572.706 274.878 572.706 276.404 571.713 277.242L562.165 285.29C561.331 285.994 560.094 285.934 559.326 285.157L559.33 285.154Z" fill="url(#paint41_linear_1673_3950)"/>
</g>
<path d="M540.288 541.445C540.621 540.598 540.878 539.83 541.109 538.948C541.829 536.232 541.982 533.371 541.591 530.636L541.607 530.773C541.112 526.905 539.473 523.254 537.186 520.104C470.839 429.103 404.187 337.68 337.834 246.669C337.358 245.942 336.645 244.918 335.144 243.497C333.622 241.948 331.982 240.587 330.19 239.379C330.212 239.395 330.237 239.41 330.256 239.423C330.241 239.41 330.218 239.395 330.199 239.385C326.745 237.079 323.567 235.692 319.795 234.655C319.814 234.661 319.83 234.664 319.849 234.668C317.001 233.856 313.039 233.434 310.445 233.652C310.457 233.652 310.47 233.652 310.48 233.652C310.267 233.668 309.985 233.684 309.772 233.703C294.566 236.765 275.814 243.252 260.76 247.167C226.985 256.786 191.222 266.972 157.451 276.591C150.964 278.317 145.715 283.266 143.114 289.595C139.447 297.003 140.725 305.835 145.6 312.338C211.43 402.629 279.122 495.482 344.952 585.773C352.387 595.661 365.652 601.089 377.749 597.885C426.486 584.006 476.602 569.733 525.335 555.854C525.354 555.847 525.37 555.844 525.389 555.838C530.563 554.41 535.238 550.895 537.963 546.206L537.741 546.559C538.692 544.988 539.603 543.091 540.307 541.407L540.288 541.448V541.445Z" fill="url(#paint42_linear_1673_3950)"/>
<path d="M309.153 238.579C317.81 236.111 329.561 240.578 335.366 248.544C400.837 338.349 466.312 428.151 531.784 517.956C537.594 525.922 535.279 534.395 526.616 536.857C478.143 550.661 429.673 564.467 381.2 578.27C372.544 580.738 360.792 576.272 354.988 568.306C289.516 478.5 224.042 388.699 158.57 298.893C152.759 290.927 155.075 282.454 163.737 279.992C212.21 266.189 260.68 252.382 309.153 238.579Z" fill="#003649"/>
<path d="M310.36 241.752C318.746 239.36 330.133 243.687 335.757 251.405C399.189 338.412 462.624 425.419 526.056 512.423C531.686 520.142 529.44 528.352 521.051 530.738C474.09 544.113 427.127 557.488 380.167 570.859C371.781 573.251 360.393 568.924 354.77 561.206C291.338 474.199 227.903 387.192 164.471 300.188C158.841 292.469 161.083 284.259 169.476 281.873C216.436 268.498 263.399 255.123 310.36 241.752Z" fill="url(#paint43_linear_1673_3950)"/>
<path d="M174.952 338.512L175.119 338.39C176.527 337.36 178.504 337.667 179.534 339.075L195.29 360.623C196.32 362.032 196.014 364.009 194.605 365.039L194.439 365.161C193.031 366.191 191.054 365.884 190.024 364.476L174.267 342.928C173.237 341.519 173.544 339.542 174.952 338.512Z" fill="#003649"/>
<path d="M196.937 368.615L197.103 368.494C198.512 367.464 200.489 367.771 201.518 369.18L217.271 390.73C218.301 392.139 217.994 394.116 216.585 395.146L216.419 395.268C215.011 396.297 213.034 395.99 212.004 394.582L196.251 373.031C195.222 371.622 195.529 369.645 196.937 368.615Z" fill="#003649"/>
<path d="M225.785 408.072L225.951 407.95C227.359 406.92 229.336 407.228 230.366 408.636L255.53 443.061C256.559 444.47 256.252 446.447 254.844 447.477L254.677 447.598C253.269 448.628 251.292 448.321 250.262 446.912L225.099 412.487C224.069 411.079 224.376 409.102 225.785 408.072Z" fill="#003649"/>
<path d="M469.859 562.151L469.821 562.014C469.499 560.856 468.3 560.178 467.142 560.5L443.889 566.967C442.731 567.289 442.054 568.489 442.376 569.647L442.414 569.784C442.736 570.942 443.935 571.62 445.093 571.298L468.346 564.831C469.504 564.509 470.181 563.309 469.859 562.151Z" fill="#003649"/>
<path d="M439.122 571.024C439.122 571.91 438.405 572.627 437.52 572.627C436.635 572.627 435.918 571.91 435.918 571.024C435.918 570.139 436.635 569.422 437.52 569.422C438.405 569.422 439.122 570.139 439.122 571.024Z" fill="#003649"/>
<path d="M433.352 572.795C433.352 573.68 432.635 574.397 431.75 574.397C430.865 574.397 430.148 573.68 430.148 572.795C430.148 571.909 430.865 571.193 431.75 571.193C432.635 571.193 433.352 571.909 433.352 572.795Z" fill="#003649"/>
<path d="M427.583 574.758C427.583 575.643 426.866 576.36 425.981 576.36C425.096 576.36 424.379 575.643 424.379 574.758C424.379 573.873 425.096 573.156 425.981 573.156C426.866 573.156 427.583 573.873 427.583 574.758Z" fill="#003649"/>
<path d="M487.727 556.752C487.727 557.637 487.01 558.354 486.125 558.354C485.24 558.354 484.523 557.637 484.523 556.752C484.523 555.866 485.24 555.15 486.125 555.15C487.01 555.15 487.727 555.866 487.727 556.752Z" fill="#003649"/>
<path d="M481.958 558.522C481.958 559.407 481.241 560.124 480.356 560.124C479.471 560.124 478.754 559.407 478.754 558.522C478.754 557.637 479.471 556.92 480.356 556.92C481.241 556.92 481.958 557.637 481.958 558.522Z" fill="#003649"/>
<path d="M476.192 560.486C476.192 561.371 475.475 562.088 474.59 562.088C473.705 562.088 472.988 561.371 472.988 560.486C472.988 559.601 473.705 558.884 474.59 558.884C475.475 558.884 476.192 559.601 476.192 560.486Z" fill="#003649"/>
<mask id="mask21_1673_3950" style="mask-type:luminance" maskUnits="userSpaceOnUse" x="161" y="241" width="369" height="331">
<path d="M310.36 241.752C318.746 239.36 330.133 243.687 335.757 251.405C399.189 338.412 462.624 425.419 526.056 512.423C531.686 520.142 529.44 528.352 521.051 530.738C474.09 544.113 427.127 557.488 380.167 570.859C371.781 573.251 360.393 568.924 354.77 561.206C291.338 474.199 227.903 387.192 164.471 300.188C158.841 292.469 161.083 284.259 169.476 281.873C216.436 268.498 263.399 255.123 310.36 241.752Z" fill="white"/>
</mask>
<g mask="url(#mask21_1673_3950)">
<mask id="mask22_1673_3950" style="mask-type:luminance" maskUnits="userSpaceOnUse" x="285" y="326" width="308" height="255">
<path style="mix-blend-mode:multiply" d="M321.915 556.834C295.033 537.803 273.968 497.598 292.904 472.409C310.74 448.686 332.414 453.698 351.911 429.921C380.833 394.653 336.636 355.448 355.356 336.785C382.232 309.987 576.518 331.335 592.009 429.756C592.399 432.243 599.999 488.221 547.764 533.698C484.418 588.85 373.503 593.358 321.915 556.834Z" fill="url(#paint44_linear_1673_3950)"/>
</mask>
<g mask="url(#mask22_1673_3950)">
<path d="M321.915 556.834C295.033 537.803 273.968 497.598 292.904 472.409C310.74 448.686 332.414 453.698 351.911 429.921C380.833 394.653 336.636 355.448 355.356 336.785C382.232 309.987 576.518 331.335 592.009 429.756C592.399 432.243 599.999 488.221 547.764 533.698C484.418 588.85 373.503 593.358 321.915 556.834Z" fill="url(#paint45_linear_1673_3950)"/>
</g>
<mask id="mask23_1673_3950" style="mask-type:luminance" maskUnits="userSpaceOnUse" x="261" y="214" width="75" height="313">
<path style="mix-blend-mode:multiply" d="M335.631 218.535L307.852 214.343L261.358 522.542L289.138 526.734L335.631 218.535Z" fill="url(#paint46_linear_1673_3950)"/>
</mask>
<g mask="url(#mask23_1673_3950)">
<path d="M335.631 218.535L307.852 214.343L261.358 522.542L289.138 526.734L335.631 218.535Z" fill="url(#paint47_linear_1673_3950)"/>
</g>
<mask id="mask24_1673_3950" style="mask-type:luminance" maskUnits="userSpaceOnUse" x="406" y="232" width="59" height="311">
<path style="mix-blend-mode:multiply" d="M464.956 234.241L452.762 232.401L406.269 540.601L418.463 542.441L464.956 234.241Z" fill="url(#paint48_linear_1673_3950)"/>
</mask>
<g mask="url(#mask24_1673_3950)">
<path d="M464.956 234.241L452.762 232.401L406.269 540.601L418.463 542.441L464.956 234.241Z" fill="url(#paint49_linear_1673_3950)"/>
</g>
<mask id="mask25_1673_3950" style="mask-type:luminance" maskUnits="userSpaceOnUse" x="254" y="75" width="59" height="311">
<path style="mix-blend-mode:multiply" d="M312.737 77.1889L300.543 75.3488L254.05 383.548L266.244 385.389L312.737 77.1889Z" fill="url(#paint50_linear_1673_3950)"/>
</mask>
<g mask="url(#mask25_1673_3950)">
<path d="M312.737 77.1889L300.543 75.3488L254.05 383.548L266.244 385.389L312.737 77.1889Z" fill="url(#paint51_linear_1673_3950)"/>
</g>
<mask id="mask26_1673_3950" style="mask-type:luminance" maskUnits="userSpaceOnUse" x="297" y="238" width="137" height="364">
<path style="mix-blend-mode:multiply" d="M433.711 251.49L350.766 238.973L297.89 589.481L380.836 601.997L433.711 251.49Z" fill="url(#paint52_linear_1673_3950)"/>
</mask>
<g mask="url(#mask26_1673_3950)">
<path d="M433.711 251.49L350.766 238.973L297.89 589.481L380.836 601.997L433.711 251.49Z" fill="url(#paint53_linear_1673_3950)"/>
</g>
</g>
<defs>
<linearGradient id="paint0_linear_1673_3950" x1="281.173" y1="574.102" x2="768.433" y2="86.9215" gradientUnits="userSpaceOnUse">
<stop stop-color="#1A1A1A"/>
<stop offset="1" stop-color="white"/>
</linearGradient>
<linearGradient id="paint1_linear_1673_3950" x1="281.173" y1="574.102" x2="768.433" y2="86.9215" gradientUnits="userSpaceOnUse">
<stop stop-color="#B8FF1D"/>
<stop offset="1" stop-color="#FFF927"/>
</linearGradient>
<linearGradient id="paint2_linear_1673_3950" x1="302.307" y1="553.17" x2="789.567" y2="65.9898" gradientUnits="userSpaceOnUse">
<stop stop-color="#1A1A1A"/>
<stop offset="1" stop-color="white"/>
</linearGradient>
<linearGradient id="paint3_linear_1673_3950" x1="302.307" y1="553.17" x2="789.567" y2="65.9898" gradientUnits="userSpaceOnUse">
<stop stop-color="#B8FF1D"/>
<stop offset="1" stop-color="#FFF927"/>
</linearGradient>
<linearGradient id="paint4_linear_1673_3950" x1="470.766" y1="129.02" x2="672.182" y2="129.02" gradientUnits="userSpaceOnUse">
<stop/>
<stop offset="0.11" stop-color="#262626"/>
<stop offset="0.25" stop-color="#515151"/>
<stop offset="0.4" stop-color="#747474"/>
<stop offset="0.55" stop-color="#8F8F8F"/>
<stop offset="0.7" stop-color="#A3A3A3"/>
<stop offset="0.85" stop-color="#AFAFAF"/>
<stop offset="1" stop-color="#B3B3B3"/>
</linearGradient>
<linearGradient id="paint5_linear_1673_3950" x1="470.766" y1="129.02" x2="672.182" y2="129.02" gradientUnits="userSpaceOnUse">
<stop stop-color="#2DABB2"/>
<stop offset="0.04" stop-color="#3FB2B8"/>
<stop offset="0.18" stop-color="#71C6CB"/>
<stop offset="0.31" stop-color="#9CD7DB"/>
<stop offset="0.45" stop-color="#C0E5E8"/>
<stop offset="0.58" stop-color="#DBF0F2"/>
<stop offset="0.72" stop-color="#EFF8F9"/>
<stop offset="0.86" stop-color="#FBFDFD"/>
<stop offset="1" stop-color="white"/>
</linearGradient>
<linearGradient id="paint6_linear_1673_3950" x1="0.000196579" y1="146.953" x2="0.317388" y2="146.953" gradientUnits="userSpaceOnUse">
<stop/>
<stop offset="0.11" stop-color="#262626"/>
<stop offset="0.25" stop-color="#515151"/>
<stop offset="0.4" stop-color="#747474"/>
<stop offset="0.55" stop-color="#8F8F8F"/>
<stop offset="0.7" stop-color="#A3A3A3"/>
<stop offset="0.85" stop-color="#AFAFAF"/>
<stop offset="1" stop-color="#B3B3B3"/>
</linearGradient>
<linearGradient id="paint7_linear_1673_3950" x1="0.000196579" y1="146.953" x2="0.317388" y2="146.953" gradientUnits="userSpaceOnUse">
<stop stop-color="#2DABB2"/>
<stop offset="0.04" stop-color="#3FB2B8"/>
<stop offset="0.18" stop-color="#71C6CB"/>
<stop offset="0.31" stop-color="#9CD7DB"/>
<stop offset="0.45" stop-color="#C0E5E8"/>
<stop offset="0.58" stop-color="#DBF0F2"/>
<stop offset="0.72" stop-color="#EFF8F9"/>
<stop offset="0.86" stop-color="#FBFDFD"/>
<stop offset="1" stop-color="white"/>
</linearGradient>
<linearGradient id="paint8_linear_1673_3950" x1="0.000196579" y1="164.884" x2="0.317388" y2="164.884" gradientUnits="userSpaceOnUse">
<stop/>
<stop offset="0.11" stop-color="#262626"/>
<stop offset="0.25" stop-color="#515151"/>
<stop offset="0.4" stop-color="#747474"/>
<stop offset="0.55" stop-color="#8F8F8F"/>
<stop offset="0.7" stop-color="#A3A3A3"/>
<stop offset="0.85" stop-color="#AFAFAF"/>
<stop offset="1" stop-color="#B3B3B3"/>
</linearGradient>
<linearGradient id="paint9_linear_1673_3950" x1="0.000196579" y1="164.884" x2="0.317388" y2="164.884" gradientUnits="userSpaceOnUse">
<stop stop-color="#2DABB2"/>
<stop offset="0.04" stop-color="#3FB2B8"/>
<stop offset="0.18" stop-color="#71C6CB"/>
<stop offset="0.31" stop-color="#9CD7DB"/>
<stop offset="0.45" stop-color="#C0E5E8"/>
<stop offset="0.58" stop-color="#DBF0F2"/>
<stop offset="0.72" stop-color="#EFF8F9"/>
<stop offset="0.86" stop-color="#FBFDFD"/>
<stop offset="1" stop-color="white"/>
</linearGradient>
<linearGradient id="paint10_linear_1673_3950" x1="0.000196579" y1="182.821" x2="0.317388" y2="182.821" gradientUnits="userSpaceOnUse">
<stop/>
<stop offset="0.11" stop-color="#262626"/>
<stop offset="0.25" stop-color="#515151"/>
<stop offset="0.4" stop-color="#747474"/>
<stop offset="0.55" stop-color="#8F8F8F"/>
<stop offset="0.7" stop-color="#A3A3A3"/>
<stop offset="0.85" stop-color="#AFAFAF"/>
<stop offset="1" stop-color="#B3B3B3"/>
</linearGradient>
<linearGradient id="paint11_linear_1673_3950" x1="0.000196579" y1="182.821" x2="0.317388" y2="182.821" gradientUnits="userSpaceOnUse">
<stop stop-color="#2DABB2"/>
<stop offset="0.04" stop-color="#3FB2B8"/>
<stop offset="0.18" stop-color="#71C6CB"/>
<stop offset="0.31" stop-color="#9CD7DB"/>
<stop offset="0.45" stop-color="#C0E5E8"/>
<stop offset="0.58" stop-color="#DBF0F2"/>
<stop offset="0.72" stop-color="#EFF8F9"/>
<stop offset="0.86" stop-color="#FBFDFD"/>
<stop offset="1" stop-color="white"/>
</linearGradient>
<linearGradient id="paint12_linear_1673_3950" x1="0.000196579" y1="200.754" x2="0.317388" y2="200.754" gradientUnits="userSpaceOnUse">
<stop/>
<stop offset="0.11" stop-color="#262626"/>
<stop offset="0.25" stop-color="#515151"/>
<stop offset="0.4" stop-color="#747474"/>
<stop offset="0.55" stop-color="#8F8F8F"/>
<stop offset="0.7" stop-color="#A3A3A3"/>
<stop offset="0.85" stop-color="#AFAFAF"/>
<stop offset="1" stop-color="#B3B3B3"/>
</linearGradient>
<linearGradient id="paint13_linear_1673_3950" x1="0.000196579" y1="200.754" x2="0.317388" y2="200.754" gradientUnits="userSpaceOnUse">
<stop stop-color="#2DABB2"/>
<stop offset="0.04" stop-color="#3FB2B8"/>
<stop offset="0.18" stop-color="#71C6CB"/>
<stop offset="0.31" stop-color="#9CD7DB"/>
<stop offset="0.45" stop-color="#C0E5E8"/>
<stop offset="0.58" stop-color="#DBF0F2"/>
<stop offset="0.72" stop-color="#EFF8F9"/>
<stop offset="0.86" stop-color="#FBFDFD"/>
<stop offset="1" stop-color="white"/>
</linearGradient>
<linearGradient id="paint14_linear_1673_3950" x1="0.000196579" y1="218.691" x2="0.317388" y2="218.691" gradientUnits="userSpaceOnUse">
<stop/>
<stop offset="0.11" stop-color="#262626"/>
<stop offset="0.25" stop-color="#515151"/>
<stop offset="0.4" stop-color="#747474"/>
<stop offset="0.55" stop-color="#8F8F8F"/>
<stop offset="0.7" stop-color="#A3A3A3"/>
<stop offset="0.85" stop-color="#AFAFAF"/>
<stop offset="1" stop-color="#B3B3B3"/>
</linearGradient>
<linearGradient id="paint15_linear_1673_3950" x1="0.000196579" y1="218.691" x2="0.317388" y2="218.691" gradientUnits="userSpaceOnUse">
<stop stop-color="#2DABB2"/>
<stop offset="0.04" stop-color="#3FB2B8"/>
<stop offset="0.18" stop-color="#71C6CB"/>
<stop offset="0.31" stop-color="#9CD7DB"/>
<stop offset="0.45" stop-color="#C0E5E8"/>
<stop offset="0.58" stop-color="#DBF0F2"/>
<stop offset="0.72" stop-color="#EFF8F9"/>
<stop offset="0.86" stop-color="#FBFDFD"/>
<stop offset="1" stop-color="white"/>
</linearGradient>
<linearGradient id="paint16_linear_1673_3950" x1="593.379" y1="488.878" x2="710.813" y2="488.878" gradientUnits="userSpaceOnUse">
<stop stop-color="#B3B3B3"/>
<stop offset="0.22" stop-color="#AFAFAF"/>
<stop offset="0.44" stop-color="#A3A3A3"/>
<stop offset="0.65" stop-color="#8F8F8F"/>
<stop offset="0.86" stop-color="#747474"/>
<stop offset="1" stop-color="#5E5E5E"/>
</linearGradient>
<linearGradient id="paint17_linear_1673_3950" x1="593.379" y1="488.878" x2="710.813" y2="488.878" gradientUnits="userSpaceOnUse">
<stop stop-color="white"/>
<stop offset="0.15" stop-color="#FEFEFB"/>
<stop offset="0.31" stop-color="#FDFEEF"/>
<stop offset="0.45" stop-color="#FBFEDB"/>
<stop offset="0.6" stop-color="#F8FDC0"/>
<stop offset="0.75" stop-color="#F4FD9D"/>
<stop offset="0.89" stop-color="#EFFC72"/>
<stop offset="1" stop-color="#ECFC4E"/>
</linearGradient>
<linearGradient id="paint18_linear_1673_3950" x1="1.61652e-05" y1="505.276" x2="0.317207" y2="505.276" gradientUnits="userSpaceOnUse">
<stop stop-color="#B3B3B3"/>
<stop offset="0.22" stop-color="#AFAFAF"/>
<stop offset="0.44" stop-color="#A3A3A3"/>
<stop offset="0.65" stop-color="#8F8F8F"/>
<stop offset="0.86" stop-color="#747474"/>
<stop offset="1" stop-color="#5E5E5E"/>
</linearGradient>
<linearGradient id="paint19_linear_1673_3950" x1="1.61652e-05" y1="505.276" x2="0.317207" y2="505.276" gradientUnits="userSpaceOnUse">
<stop stop-color="white"/>
<stop offset="0.15" stop-color="#FEFEFB"/>
<stop offset="0.31" stop-color="#FDFEEF"/>
<stop offset="0.45" stop-color="#FBFEDB"/>
<stop offset="0.6" stop-color="#F8FDC0"/>
<stop offset="0.75" stop-color="#F4FD9D"/>
<stop offset="0.89" stop-color="#EFFC72"/>
<stop offset="1" stop-color="#ECFC4E"/>
</linearGradient>
<linearGradient id="paint20_linear_1673_3950" x1="1.61652e-05" y1="521.668" x2="0.317207" y2="521.668" gradientUnits="userSpaceOnUse">
<stop stop-color="#B3B3B3"/>
<stop offset="0.22" stop-color="#AFAFAF"/>
<stop offset="0.44" stop-color="#A3A3A3"/>
<stop offset="0.65" stop-color="#8F8F8F"/>
<stop offset="0.86" stop-color="#747474"/>
<stop offset="1" stop-color="#5E5E5E"/>
</linearGradient>
<linearGradient id="paint21_linear_1673_3950" x1="1.61652e-05" y1="521.668" x2="0.317207" y2="521.668" gradientUnits="userSpaceOnUse">
<stop stop-color="white"/>
<stop offset="0.15" stop-color="#FEFEFB"/>
<stop offset="0.31" stop-color="#FDFEEF"/>
<stop offset="0.45" stop-color="#FBFEDB"/>
<stop offset="0.6" stop-color="#F8FDC0"/>
<stop offset="0.75" stop-color="#F4FD9D"/>
<stop offset="0.89" stop-color="#EFFC72"/>
<stop offset="1" stop-color="#ECFC4E"/>
</linearGradient>
<linearGradient id="paint22_linear_1673_3950" x1="651.961" y1="146.335" x2="718.62" y2="79.6864" gradientUnits="userSpaceOnUse">
<stop stop-color="#5E5E5E"/>
<stop offset="0.14" stop-color="#747474"/>
<stop offset="0.35" stop-color="#8F8F8F"/>
<stop offset="0.56" stop-color="#A3A3A3"/>
<stop offset="0.78" stop-color="#AFAFAF"/>
<stop offset="1" stop-color="#B3B3B3"/>
</linearGradient>
<linearGradient id="paint23_linear_1673_3950" x1="651.961" y1="146.335" x2="718.62" y2="79.6864" gradientUnits="userSpaceOnUse">
<stop stop-color="#ECFC4E"/>
<stop offset="0.11" stop-color="#EFFC72"/>
<stop offset="0.25" stop-color="#F4FD9D"/>
<stop offset="0.4" stop-color="#F8FDC0"/>
<stop offset="0.55" stop-color="#FBFEDB"/>
<stop offset="0.69" stop-color="#FDFEEF"/>
<stop offset="0.85" stop-color="#FEFEFB"/>
<stop offset="1" stop-color="white"/>
</linearGradient>
<linearGradient id="paint24_linear_1673_3950" x1="619.93" y1="79.6756" x2="651.965" y2="47.6456" gradientUnits="userSpaceOnUse">
<stop/>
<stop offset="0.25" stop-color="#4B4B4B"/>
<stop offset="0.52" stop-color="#979797"/>
<stop offset="0.74" stop-color="#CFCFCF"/>
<stop offset="0.91" stop-color="#F1F1F1"/>
<stop offset="1" stop-color="white"/>
</linearGradient>
<linearGradient id="paint25_linear_1673_3950" x1="619.93" y1="79.6756" x2="651.965" y2="47.6456" gradientUnits="userSpaceOnUse">
<stop stop-color="#F9FFEB"/>
<stop offset="0.02" stop-color="#F3FDE9"/>
<stop offset="0.38" stop-color="#A7E8D8"/>
<stop offset="0.67" stop-color="#6FD9CB"/>
<stop offset="0.88" stop-color="#4DD0C3"/>
<stop offset="1" stop-color="#40CDC1"/>
</linearGradient>
<linearGradient id="paint26_linear_1673_3950" x1="663.539" y1="69.9901" x2="678.691" y2="54.8411" gradientUnits="userSpaceOnUse">
<stop stop-color="#B3B3B3"/>
<stop offset="0.22" stop-color="#AFAFAF"/>
<stop offset="0.44" stop-color="#A3A3A3"/>
<stop offset="0.65" stop-color="#8F8F8F"/>
<stop offset="0.86" stop-color="#747474"/>
<stop offset="1" stop-color="#5E5E5E"/>
</linearGradient>
<linearGradient id="paint27_linear_1673_3950" x1="663.539" y1="69.9901" x2="678.691" y2="54.8411" gradientUnits="userSpaceOnUse">
<stop stop-color="white"/>
<stop offset="0.15" stop-color="#FEFEFB"/>
<stop offset="0.31" stop-color="#FDFEEF"/>
<stop offset="0.45" stop-color="#FBFEDB"/>
<stop offset="0.6" stop-color="#F8FDC0"/>
<stop offset="0.75" stop-color="#F4FD9D"/>
<stop offset="0.89" stop-color="#EFFC72"/>
<stop offset="1" stop-color="#ECFC4E"/>
</linearGradient>
<linearGradient id="paint28_linear_1673_3950" x1="442.512" y1="250.501" x2="457.663" y2="235.352" gradientUnits="userSpaceOnUse">
<stop stop-color="#B3B3B3"/>
<stop offset="0.22" stop-color="#AFAFAF"/>
<stop offset="0.44" stop-color="#A3A3A3"/>
<stop offset="0.65" stop-color="#8F8F8F"/>
<stop offset="0.86" stop-color="#747474"/>
<stop offset="1" stop-color="#5E5E5E"/>
</linearGradient>
<linearGradient id="paint29_linear_1673_3950" x1="442.512" y1="250.501" x2="457.663" y2="235.352" gradientUnits="userSpaceOnUse">
<stop stop-color="white"/>
<stop offset="0.15" stop-color="#FEFEFB"/>
<stop offset="0.31" stop-color="#FDFEEF"/>
<stop offset="0.45" stop-color="#FBFEDB"/>
<stop offset="0.6" stop-color="#F8FDC0"/>
<stop offset="0.75" stop-color="#F4FD9D"/>
<stop offset="0.89" stop-color="#EFFC72"/>
<stop offset="1" stop-color="#ECFC4E"/>
</linearGradient>
<linearGradient id="paint30_linear_1673_3950" x1="718.609" y1="175.619" x2="747.894" y2="146.339" gradientUnits="userSpaceOnUse">
<stop stop-color="#B3B3B3"/>
<stop offset="0.22" stop-color="#AFAFAF"/>
<stop offset="0.44" stop-color="#A3A3A3"/>
<stop offset="0.65" stop-color="#8F8F8F"/>
<stop offset="0.86" stop-color="#747474"/>
<stop offset="1" stop-color="#5E5E5E"/>
</linearGradient>
<linearGradient id="paint31_linear_1673_3950" x1="718.609" y1="175.619" x2="747.894" y2="146.339" gradientUnits="userSpaceOnUse">
<stop stop-color="white"/>
<stop offset="0.15" stop-color="#FEFEFB"/>
<stop offset="0.31" stop-color="#FDFEEF"/>
<stop offset="0.45" stop-color="#FBFEDB"/>
<stop offset="0.6" stop-color="#F8FDC0"/>
<stop offset="0.75" stop-color="#F4FD9D"/>
<stop offset="0.89" stop-color="#EFFC72"/>
<stop offset="1" stop-color="#ECFC4E"/>
</linearGradient>
<linearGradient id="paint32_linear_1673_3950" x1="727.105" y1="138.423" x2="742.254" y2="123.274" gradientUnits="userSpaceOnUse">
<stop/>
<stop offset="0.25" stop-color="#4B4B4B"/>
<stop offset="0.52" stop-color="#979797"/>
<stop offset="0.74" stop-color="#CFCFCF"/>
<stop offset="0.91" stop-color="#F1F1F1"/>
<stop offset="1" stop-color="white"/>
</linearGradient>
<linearGradient id="paint33_linear_1673_3950" x1="727.105" y1="138.423" x2="742.254" y2="123.274" gradientUnits="userSpaceOnUse">
<stop stop-color="#F9FFEB"/>
<stop offset="0.02" stop-color="#F3FDE9"/>
<stop offset="0.38" stop-color="#A7E8D8"/>
<stop offset="0.67" stop-color="#6FD9CB"/>
<stop offset="0.88" stop-color="#4DD0C3"/>
<stop offset="1" stop-color="#40CDC1"/>
</linearGradient>
<linearGradient id="paint34_linear_1673_3950" x1="418.946" y1="151.728" x2="496.392" y2="74.2951" gradientUnits="userSpaceOnUse">
<stop/>
<stop offset="0.03" stop-color="#0E0E0E"/>
<stop offset="0.14" stop-color="#454545"/>
<stop offset="0.26" stop-color="#777777"/>
<stop offset="0.37" stop-color="#A1A1A1"/>
<stop offset="0.49" stop-color="#C3C3C3"/>
<stop offset="0.61" stop-color="#DDDDDD"/>
<stop offset="0.74" stop-color="#F0F0F0"/>
<stop offset="0.86" stop-color="#FBFBFB"/>
<stop offset="1" stop-color="white"/>
</linearGradient>
<linearGradient id="paint35_linear_1673_3950" x1="418.946" y1="151.728" x2="496.392" y2="74.2951" gradientUnits="userSpaceOnUse">
<stop stop-color="#40CDC1"/>
<stop offset="0.05" stop-color="#39C2BC"/>
<stop offset="0.23" stop-color="#26A0AD"/>
<stop offset="0.41" stop-color="#1886A2"/>
<stop offset="0.6" stop-color="#0D739A"/>
<stop offset="0.79" stop-color="#076895"/>
<stop offset="1" stop-color="#056594"/>
</linearGradient>
<linearGradient id="paint36_linear_1673_3950" x1="615.093" y1="445.009" x2="615.093" y2="292.035" gradientUnits="userSpaceOnUse">
<stop/>
<stop offset="0.03" stop-color="#0E0E0E"/>
<stop offset="0.14" stop-color="#454545"/>
<stop offset="0.26" stop-color="#777777"/>
<stop offset="0.37" stop-color="#A1A1A1"/>
<stop offset="0.49" stop-color="#C3C3C3"/>
<stop offset="0.61" stop-color="#DDDDDD"/>
<stop offset="0.74" stop-color="#F0F0F0"/>
<stop offset="0.86" stop-color="#FBFBFB"/>
<stop offset="1" stop-color="white"/>
</linearGradient>
<linearGradient id="paint37_linear_1673_3950" x1="615.093" y1="445.009" x2="615.093" y2="292.035" gradientUnits="userSpaceOnUse">
<stop stop-color="#40CDC1"/>
<stop offset="0.05" stop-color="#39C2BC"/>
<stop offset="0.23" stop-color="#26A0AD"/>
<stop offset="0.41" stop-color="#1886A2"/>
<stop offset="0.6" stop-color="#0D739A"/>
<stop offset="0.79" stop-color="#076895"/>
<stop offset="1" stop-color="#056594"/>
</linearGradient>
<linearGradient id="paint38_linear_1673_3950" x1="424.219" y1="354.227" x2="531.416" y2="247.048" gradientUnits="userSpaceOnUse">
<stop stop-color="white"/>
<stop offset="0.09" stop-color="#F1F1F1"/>
<stop offset="0.26" stop-color="#CFCFCF"/>
<stop offset="0.48" stop-color="#979797"/>
<stop offset="0.75" stop-color="#4B4B4B"/>
<stop offset="1"/>
</linearGradient>
<linearGradient id="paint39_linear_1673_3950" x1="424.219" y1="354.227" x2="531.416" y2="247.048" gradientUnits="userSpaceOnUse">
<stop stop-color="#40CDC1"/>
<stop offset="0.12" stop-color="#4DD0C3"/>
<stop offset="0.33" stop-color="#6FD9CB"/>
<stop offset="0.62" stop-color="#A7E8D8"/>
<stop offset="0.98" stop-color="#F3FDE9"/>
<stop offset="1" stop-color="#F9FFEB"/>
</linearGradient>
<linearGradient id="paint40_linear_1673_3950" x1="512.937" y1="310.384" x2="579.409" y2="243.923" gradientUnits="userSpaceOnUse">
<stop/>
<stop offset="0.03" stop-color="#0E0E0E"/>
<stop offset="0.14" stop-color="#454545"/>
<stop offset="0.26" stop-color="#777777"/>
<stop offset="0.37" stop-color="#A1A1A1"/>
<stop offset="0.49" stop-color="#C3C3C3"/>
<stop offset="0.61" stop-color="#DDDDDD"/>
<stop offset="0.74" stop-color="#F0F0F0"/>
<stop offset="0.86" stop-color="#FBFBFB"/>
<stop offset="1" stop-color="white"/>
</linearGradient>
<linearGradient id="paint41_linear_1673_3950" x1="512.937" y1="310.384" x2="579.409" y2="243.923" gradientUnits="userSpaceOnUse">
<stop stop-color="#40CDC1"/>
<stop offset="0.05" stop-color="#39C2BC"/>
<stop offset="0.23" stop-color="#26A0AD"/>
<stop offset="0.41" stop-color="#1886A2"/>
<stop offset="0.6" stop-color="#0D739A"/>
<stop offset="0.79" stop-color="#076895"/>
<stop offset="1" stop-color="#056594"/>
</linearGradient>
<linearGradient id="paint42_linear_1673_3950" x1="536.567" y1="563.268" x2="148.413" y2="270.901" gradientUnits="userSpaceOnUse">
<stop stop-color="#054E6F"/>
<stop offset="0.2" stop-color="#065271"/>
<stop offset="0.42" stop-color="#0C5E77"/>
<stop offset="0.64" stop-color="#167381"/>
<stop offset="0.86" stop-color="#249090"/>
<stop offset="1" stop-color="#2FA89C"/>
</linearGradient>
<linearGradient id="paint43_linear_1673_3950" x1="161.365" y1="406.309" x2="529.158" y2="406.309" gradientUnits="userSpaceOnUse">
<stop stop-color="#40CDC1"/>
<stop offset="0.2" stop-color="#2AA7B0"/>
<stop offset="0.41" stop-color="#1A8AA4"/>
<stop offset="0.61" stop-color="#0E759B"/>
<stop offset="0.81" stop-color="#076995"/>
<stop offset="1" stop-color="#056594"/>
</linearGradient>
<linearGradient id="paint44_linear_1673_3950" x1="395.314" y1="598.257" x2="530.639" y2="355.107" gradientUnits="userSpaceOnUse">
<stop stop-color="#1A1A1A"/>
<stop offset="1" stop-color="white"/>
</linearGradient>
<linearGradient id="paint45_linear_1673_3950" x1="395.314" y1="598.257" x2="530.639" y2="355.107" gradientUnits="userSpaceOnUse">
<stop stop-color="#B8FF1D"/>
<stop offset="1" stop-color="#FFF927"/>
</linearGradient>
<linearGradient id="paint46_linear_1673_3950" x1="275.282" y1="524.425" x2="321.764" y2="216.399" gradientUnits="userSpaceOnUse">
<stop/>
<stop offset="0.07" stop-color="#0E0E0E"/>
<stop offset="0.53" stop-color="#666666"/>
<stop offset="0.85" stop-color="#9D9D9D"/>
<stop offset="1" stop-color="#B3B3B3"/>
</linearGradient>
<linearGradient id="paint47_linear_1673_3950" x1="275.282" y1="524.425" x2="321.764" y2="216.399" gradientUnits="userSpaceOnUse">
<stop stop-color="#2DABB2"/>
<stop offset="0.34" stop-color="#34B7B7"/>
<stop offset="1" stop-color="#40CDC1"/>
</linearGradient>
<linearGradient id="paint48_linear_1673_3950" x1="413.744" y1="541.498" x2="460.227" y2="233.468" gradientUnits="userSpaceOnUse">
<stop/>
<stop offset="0.07" stop-color="#0E0E0E"/>
<stop offset="0.53" stop-color="#666666"/>
<stop offset="0.85" stop-color="#9D9D9D"/>
<stop offset="1" stop-color="#B3B3B3"/>
</linearGradient>
<linearGradient id="paint49_linear_1673_3950" x1="413.744" y1="541.498" x2="460.227" y2="233.468" gradientUnits="userSpaceOnUse">
<stop stop-color="#2DABB2"/>
<stop offset="0.34" stop-color="#34B7B7"/>
<stop offset="1" stop-color="#40CDC1"/>
</linearGradient>
<linearGradient id="paint50_linear_1673_3950" x1="261.095" y1="384.457" x2="307.577" y2="76.4306" gradientUnits="userSpaceOnUse">
<stop/>
<stop offset="0.07" stop-color="#0E0E0E"/>
<stop offset="0.53" stop-color="#666666"/>
<stop offset="0.85" stop-color="#9D9D9D"/>
<stop offset="1" stop-color="#B3B3B3"/>
</linearGradient>
<linearGradient id="paint51_linear_1673_3950" x1="261.095" y1="384.457" x2="307.577" y2="76.4306" gradientUnits="userSpaceOnUse">
<stop stop-color="#2DABB2"/>
<stop offset="0.34" stop-color="#34B7B7"/>
<stop offset="1" stop-color="#40CDC1"/>
</linearGradient>
<linearGradient id="paint52_linear_1673_3950" x1="339.414" y1="595.442" x2="392.27" y2="245.183" gradientUnits="userSpaceOnUse">
<stop/>
<stop offset="0.07" stop-color="#0E0E0E"/>
<stop offset="0.53" stop-color="#666666"/>
<stop offset="0.85" stop-color="#9D9D9D"/>
<stop offset="1" stop-color="#B3B3B3"/>
</linearGradient>
<linearGradient id="paint53_linear_1673_3950" x1="339.414" y1="595.442" x2="392.27" y2="245.183" gradientUnits="userSpaceOnUse">
<stop stop-color="#2DABB2"/>
<stop offset="0.34" stop-color="#34B7B7"/>
<stop offset="1" stop-color="#40CDC1"/>
</linearGradient>
</defs>
</svg>
