<svg width="66" height="66" viewBox="0 0 66 66" fill="none" xmlns="http://www.w3.org/2000/svg">
<g filter="url(#filter0_d_1807_3160)">
<path d="M37.3636 6H20.6364C12.5529 6 6 12.5529 6 20.6364V37.3636C6 45.4471 12.5529 52 20.6364 52H37.3636C45.4471 52 52 45.4471 52 37.3636V20.6364C52 12.5529 45.4471 6 37.3636 6Z" fill="url(#paint0_linear_1807_3160)"/>
</g>
<g filter="url(#filter1_d_1807_3160)">
<path d="M27.8058 29.0819L21.4195 25.6112C21.1354 25.4569 20.7999 25.4633 20.522 25.6285C20.244 25.7937 20.0781 26.0854 20.0781 26.4088V34.4601C20.0781 34.7859 20.254 35.0883 20.5372 35.2493L26.9237 38.88C27.0644 38.96 27.2184 39 27.3724 39C27.5293 39 27.6862 38.9584 27.8289 38.8754C28.1114 38.711 28.2801 38.4177 28.2801 38.0908V29.8796C28.2801 29.5466 28.0984 29.241 27.8058 29.0819Z" fill="white"/>
<path d="M36.7663 23.517C36.7659 23.177 36.5781 22.8687 36.2764 22.7123L29.3123 19.1019C29.0486 18.9651 28.7344 18.9661 28.4717 19.1044L21.61 22.7148C21.3113 22.8721 21.1254 23.1795 21.125 23.5171C21.1246 23.8547 21.3097 24.1625 21.608 24.3205L28.4697 27.9534C28.6026 28.0237 28.7484 28.0589 28.8944 28.0589C29.0385 28.0589 29.1827 28.0246 29.3142 27.9559L36.2784 24.3231C36.5798 24.1658 36.7668 23.8569 36.7663 23.517Z" fill="white"/>
<path d="M37.4808 25.6286C37.203 25.4633 36.8673 25.4568 36.5834 25.6112L30.1969 29.082C29.9044 29.241 29.7227 29.5466 29.7227 29.8796V38.0908C29.7227 38.4177 29.8913 38.711 30.1739 38.8754C30.3165 38.9585 30.4734 39 30.6304 39C30.7843 39 30.9383 38.96 31.0791 38.88L37.4655 35.2493C37.7487 35.0883 37.9246 34.7859 37.9246 34.4602V26.4089C37.9246 26.0855 37.7587 25.7938 37.4808 25.6286Z" fill="white"/>
</g>
<defs>
<filter id="filter0_d_1807_3160" x="0" y="0" width="66" height="66" filterUnits="userSpaceOnUse" color-interpolation-filters="sRGB">
<feFlood flood-opacity="0" result="BackgroundImageFix"/>
<feColorMatrix in="SourceAlpha" type="matrix" values="0 0 0 0 0 0 0 0 0 0 0 0 0 0 0 0 0 0 127 0" result="hardAlpha"/>
<feOffset dx="4" dy="4"/>
<feGaussianBlur stdDeviation="5"/>
<feComposite in2="hardAlpha" operator="out"/>
<feColorMatrix type="matrix" values="0 0 0 0 0 0 0 0 0 0 0 0 0 0 0.356863 0 0 0 0.2 0"/>
<feBlend mode="normal" in2="BackgroundImageFix" result="effect1_dropShadow_1807_3160"/>
<feBlend mode="normal" in="SourceGraphic" in2="effect1_dropShadow_1807_3160" result="shape"/>
</filter>
<filter id="filter1_d_1807_3160" x="14.0781" y="13" width="37.8477" height="40" filterUnits="userSpaceOnUse" color-interpolation-filters="sRGB">
<feFlood flood-opacity="0" result="BackgroundImageFix"/>
<feColorMatrix in="SourceAlpha" type="matrix" values="0 0 0 0 0 0 0 0 0 0 0 0 0 0 0 0 0 0 127 0" result="hardAlpha"/>
<feOffset dx="4" dy="4"/>
<feGaussianBlur stdDeviation="5"/>
<feComposite in2="hardAlpha" operator="out"/>
<feColorMatrix type="matrix" values="0 0 0 0 0 0 0 0 0 0 0 0 0 0 0 0 0 0 0.2 0"/>
<feBlend mode="normal" in2="BackgroundImageFix" result="effect1_dropShadow_1807_3160"/>
<feBlend mode="normal" in="SourceGraphic" in2="effect1_dropShadow_1807_3160" result="shape"/>
</filter>
<linearGradient id="paint0_linear_1807_3160" x1="6" y1="29" x2="52" y2="29" gradientUnits="userSpaceOnUse">
<stop stop-color="#23CB84"/>
<stop offset="1" stop-color="#06E7CC"/>
</linearGradient>
</defs>
</svg>
