<svg width="530" height="530" viewBox="0 0 530 530" fill="none" xmlns="http://www.w3.org/2000/svg">
<g clip-path="url(#clip0_697_7903)">
<path d="M469.647 489.624L468.029 475.112L458.984 476.119C457.83 472.887 456.174 469.916 454.116 467.289L459.799 460.176L448.394 451.056L442.711 458.169C439.695 456.741 436.436 455.777 433.029 455.363L432.019 446.315L417.509 447.934L418.518 456.982C415.285 458.137 412.316 459.794 409.691 461.85L402.581 456.165L393.464 467.573L400.574 473.258C399.145 476.273 398.182 479.537 397.77 482.943L388.488 484.374L390.344 498.463L399.388 497.456C400.543 500.688 402.198 503.659 404.257 506.286L398.574 513.399L409.978 522.519L415.662 515.406C418.678 516.834 421.937 517.798 425.344 518.212L426.353 527.26L440.864 525.641L439.855 516.593C443.088 515.438 446.057 513.781 448.681 511.725L455.792 517.41L464.908 506.002L457.798 500.317C459.228 497.302 460.191 494.038 460.602 490.632L469.647 489.624ZM431.225 505.09C421.119 506.217 412.014 498.936 410.889 488.828C409.764 478.72 417.042 469.612 427.148 468.485C437.253 467.359 446.359 474.64 447.484 484.747C448.609 494.855 441.331 503.963 431.225 505.09Z" fill="url(#paint0_linear_697_7903)"/>
<path d="M346.712 450.387H76.8606C76.5068 450.387 76.2227 450.1 76.2227 449.75V442.755C76.2227 442.402 76.5097 442.118 76.8606 442.118H346.709C347.063 442.118 347.347 442.405 347.347 442.755V449.75C347.347 450.103 347.06 450.387 346.709 450.387H346.712ZM77.5014 449.109H346.074V443.39H77.4986V449.109H77.5014Z" fill="#00005B"/>
<path d="M190.885 76.3779H180.414V174.88H190.885V76.3779Z" fill="#E2CFFF"/>
<path d="M190.885 76.3779H180.414V96.8336H190.885V76.3779Z" fill="#E9B8FF"/>
<path d="M185.65 96.3587C185.296 96.3587 185.012 96.072 185.012 95.7216V69.7661C185.012 69.4127 185.299 69.1289 185.65 69.1289C186.001 69.1289 186.288 69.4156 186.288 69.7661V95.7216C186.288 96.0749 186.001 96.3587 185.65 96.3587Z" fill="#00005B"/>
<path d="M190.885 96.8335H180.414V117.289H190.885V96.8335Z" fill="#E9B8FF"/>
<path d="M185.65 122.459C185.296 122.459 185.012 122.172 185.012 121.822V96.5844C185.012 96.2311 185.299 95.9473 185.65 95.9473C186.001 95.9473 186.288 96.234 186.288 96.5844V121.822C186.288 122.175 186.001 122.459 185.65 122.459Z" fill="#00005B"/>
<path d="M207.307 147.178H196.836V213.289H207.307V147.178Z" fill="#E2CFFF"/>
<path d="M207.307 147.178H196.836V167.633H207.307V147.178Z" fill="#E9B8FF"/>
<path d="M202.07 172.803C201.716 172.803 201.432 172.516 201.432 172.166V140.566C201.432 140.213 201.719 139.929 202.07 139.929C202.42 139.929 202.708 140.215 202.708 140.566V172.166C202.708 172.519 202.42 172.803 202.07 172.803Z" fill="#00005B"/>
<path d="M207.307 163.408H196.836V183.864H207.307V163.408Z" fill="#E9B8FF"/>
<path d="M202.07 189.034C201.716 189.034 201.432 188.747 201.432 188.396V162.649C201.432 162.296 201.719 162.012 202.07 162.012C202.42 162.012 202.708 162.299 202.708 162.649V188.396C202.708 188.75 202.42 189.034 202.07 189.034Z" fill="#00005B"/>
<path d="M223.727 107.966H213.256V186.366H223.727V107.966Z" fill="#E2CFFF"/>
<path d="M223.727 107.966H213.256V128.422H223.727V107.966Z" fill="#E9B8FF"/>
<path d="M218.493 128.3C218.14 128.3 217.855 128.014 217.855 127.663V101.354C217.855 101.001 218.143 100.717 218.493 100.717C218.844 100.717 219.131 101.004 219.131 101.354V127.663C219.131 128.017 218.844 128.3 218.493 128.3Z" fill="#00005B"/>
<path d="M223.727 128.422H213.256V148.878H223.727V128.422Z" fill="#E9B8FF"/>
<path d="M218.493 154.047C218.14 154.047 217.855 153.761 217.855 153.41V128.141C217.855 127.788 218.143 127.504 218.493 127.504C218.844 127.504 219.131 127.791 219.131 128.141V153.41C219.131 153.764 218.844 154.047 218.493 154.047Z" fill="#00005B"/>
<path d="M240.149 117.145H229.678V229.302H240.149V117.145Z" fill="#E2CFFF"/>
<path d="M240.149 131.078H229.678V151.534H240.149V131.078Z" fill="#E9B8FF"/>
<path d="M234.911 156.707C234.558 156.707 234.273 156.42 234.273 156.069V124.469C234.273 124.116 234.561 123.832 234.911 123.832C235.262 123.832 235.549 124.119 235.549 124.469V156.069C235.549 156.423 235.262 156.707 234.911 156.707Z" fill="#00005B"/>
<path d="M240.149 117.252H229.678V137.708H240.149V117.252Z" fill="#E9B8FF"/>
<path d="M234.911 137.589C234.558 137.589 234.273 137.302 234.273 136.952V110.643C234.273 110.29 234.561 110.006 234.911 110.006C235.262 110.006 235.549 110.293 235.549 110.643V136.952C235.549 137.305 235.262 137.589 234.911 137.589Z" fill="#00005B"/>
<path d="M256.571 95.7476H246.1V151.922H256.571V95.7476Z" fill="#E2CFFF"/>
<path d="M256.571 95.7476H246.1V116.203H256.571V95.7476Z" fill="#E9B8FF"/>
<path d="M251.337 116.487C250.983 116.487 250.699 116.2 250.699 115.85V89.8945C250.699 89.5412 250.986 89.2573 251.337 89.2573C251.688 89.2573 251.975 89.544 251.975 89.8945V115.85C251.975 116.203 251.688 116.487 251.337 116.487Z" fill="#00005B"/>
<path d="M256.571 116.203H246.1V136.659H256.571V116.203Z" fill="#E9B8FF"/>
<path d="M251.337 141.828C250.983 141.828 250.699 141.542 250.699 141.191V115.954C250.699 115.601 250.986 115.317 251.337 115.317C251.688 115.317 251.975 115.604 251.975 115.954V141.191C251.975 141.545 251.688 141.828 251.337 141.828Z" fill="#00005B"/>
<path d="M272.992 120.139H262.521V186.25H272.992V120.139Z" fill="#E2CFFF"/>
<path d="M272.992 120.139H262.521V140.595H272.992V120.139Z" fill="#E9B8FF"/>
<path d="M267.759 146.523C267.405 146.523 267.121 146.237 267.121 145.886V114.286C267.121 113.933 267.408 113.649 267.759 113.649C268.11 113.649 268.397 113.936 268.397 114.286V145.886C268.397 146.24 268.11 146.523 267.759 146.523Z" fill="#00005B"/>
<path d="M272.992 136.37H262.521V156.825H272.992V136.37Z" fill="#E9B8FF"/>
<path d="M267.759 162.754C267.405 162.754 267.121 162.467 267.121 162.117V136.37C267.121 136.016 267.408 135.732 267.759 135.732C268.11 135.732 268.397 136.019 268.397 136.37V162.117C268.397 162.47 268.11 162.754 267.759 162.754Z" fill="#00005B"/>
<path d="M289.412 118.619H278.941V197.018H289.412V118.619Z" fill="#E2CFFF"/>
<path d="M289.412 118.619H278.941V139.074H289.412V118.619Z" fill="#E9B8FF"/>
<path d="M284.177 139.712C283.823 139.712 283.539 139.425 283.539 139.074V112.766C283.539 112.412 283.826 112.128 284.177 112.128C284.528 112.128 284.815 112.415 284.815 112.766V139.074C284.815 139.428 284.528 139.712 284.177 139.712Z" fill="#00005B"/>
<path d="M289.412 139.074H278.941V159.53H289.412V139.074Z" fill="#E9B8FF"/>
<path d="M284.177 165.458C283.823 165.458 283.539 165.172 283.539 164.821V139.549C283.539 139.196 283.826 138.912 284.177 138.912C284.528 138.912 284.815 139.199 284.815 139.549V164.821C284.815 165.175 284.528 165.458 284.177 165.458Z" fill="#00005B"/>
<path d="M305.834 92.9614H295.363V161.867H305.834V92.9614Z" fill="#E2CFFF"/>
<path d="M305.834 106.788H295.363V127.243H305.834V106.788Z" fill="#E9B8FF"/>
<path d="M300.599 133.175C300.245 133.175 299.961 132.888 299.961 132.538V100.937C299.961 100.584 300.248 100.3 300.599 100.3C300.95 100.3 301.237 100.587 301.237 100.937V132.538C301.237 132.891 300.95 133.175 300.599 133.175Z" fill="#00005B"/>
<path d="M305.834 92.9614H295.363V113.417H305.834V92.9614Z" fill="#E9B8FF"/>
<path d="M300.599 114.057C300.245 114.057 299.961 113.771 299.961 113.42V87.1113C299.961 86.7579 300.248 86.4741 300.599 86.4741C300.95 86.4741 301.237 86.7608 301.237 87.1113V113.42C301.237 113.773 300.95 114.057 300.599 114.057Z" fill="#00005B"/>
<path d="M322.256 85.7788H311.785V184.281H322.256V85.7788Z" fill="#E2CFFF"/>
<path d="M322.256 85.7788H311.785V106.234H322.256V85.7788Z" fill="#E9B8FF"/>
<path d="M317.021 106.521C316.667 106.521 316.383 106.235 316.383 105.884V79.9287C316.383 79.5753 316.67 79.2915 317.021 79.2915C317.372 79.2915 317.659 79.5782 317.659 79.9287V105.884C317.659 106.238 317.372 106.521 317.021 106.521Z" fill="#00005B"/>
<path d="M322.256 106.234H311.785V126.69H322.256V106.234Z" fill="#E9B8FF"/>
<path d="M317.021 132.619C316.667 132.619 316.383 132.332 316.383 131.982V106.745C316.383 106.391 316.67 106.107 317.021 106.107C317.372 106.107 317.659 106.394 317.659 106.745V131.982C317.659 132.335 317.372 132.619 317.021 132.619Z" fill="#00005B"/>
<path d="M338.676 99.6836H328.205V165.795H338.676V99.6836Z" fill="#E2CFFF"/>
<path d="M338.676 99.6836H328.205V120.139H338.676V99.6836Z" fill="#E9B8FF"/>
<path d="M333.443 126.068C333.089 126.068 332.805 125.781 332.805 125.431V93.8305C332.805 93.4772 333.092 93.1934 333.443 93.1934C333.794 93.1934 334.081 93.4801 334.081 93.8305V125.431C334.081 125.784 333.794 126.068 333.443 126.068Z" fill="#00005B"/>
<path d="M338.676 115.914H328.205V136.37H338.676V115.914Z" fill="#E9B8FF"/>
<path d="M333.443 142.298C333.089 142.298 332.805 142.011 332.805 141.661V115.914C332.805 115.561 333.092 115.277 333.443 115.277C333.794 115.277 334.081 115.564 334.081 115.914V141.661C334.081 142.014 333.794 142.298 333.443 142.298Z" fill="#00005B"/>
<path d="M355.098 113.075H344.627V191.475H355.098V113.075Z" fill="#E2CFFF"/>
<path d="M355.098 113.075H344.627V133.531H355.098V113.075Z" fill="#E9B8FF"/>
<path d="M349.865 134.168C349.511 134.168 349.227 133.881 349.227 133.531V107.222C349.227 106.869 349.514 106.585 349.865 106.585C350.215 106.585 350.502 106.872 350.502 107.222V133.531C350.502 133.884 350.215 134.168 349.865 134.168Z" fill="#00005B"/>
<path d="M355.098 133.531H344.627V153.986H355.098V133.531Z" fill="#E9B8FF"/>
<path d="M349.865 159.915C349.511 159.915 349.227 159.628 349.227 159.278V134.006C349.227 133.652 349.514 133.369 349.865 133.369C350.215 133.369 350.502 133.655 350.502 134.006V159.278C350.502 159.631 350.215 159.915 349.865 159.915Z" fill="#00005B"/>
<path d="M371.916 118.703H361.445V174.877H371.916V118.703Z" fill="#E2CFFF"/>
<path d="M371.916 118.703H361.445V139.158H371.916V118.703Z" fill="#E9B8FF"/>
<path d="M366.679 139.445C366.325 139.445 366.041 139.158 366.041 138.808V112.852C366.041 112.499 366.328 112.215 366.679 112.215C367.03 112.215 367.317 112.502 367.317 112.852V138.808C367.317 139.161 367.03 139.445 366.679 139.445Z" fill="#00005B"/>
<path d="M371.916 139.161H361.445V159.616H371.916V139.161Z" fill="#E9B8FF"/>
<path d="M366.679 165.545C366.325 165.545 366.041 165.259 366.041 164.908V139.671C366.041 139.318 366.328 139.034 366.679 139.034C367.03 139.034 367.317 139.32 367.317 139.671V164.908C367.317 165.261 367.03 165.545 366.679 165.545Z" fill="#00005B"/>
<path d="M389.445 0.637207H0.636719V38.7567H389.445V0.637207Z" fill="#E9B8FF"/>
<path d="M369.228 27.9801C373.884 27.9801 377.658 24.2133 377.658 19.5667C377.658 14.9201 373.884 11.1533 369.228 11.1533C364.573 11.1533 360.799 14.9201 360.799 19.5667C360.799 24.2133 364.573 27.9801 369.228 27.9801Z" fill="white"/>
<path d="M341.502 27.9801C346.157 27.9801 349.931 24.2133 349.931 19.5667C349.931 14.9201 346.157 11.1533 341.502 11.1533C336.846 11.1533 333.072 14.9201 333.072 19.5667C333.072 24.2133 336.846 27.9801 341.502 27.9801Z" fill="white"/>
<path d="M313.777 27.9801C318.433 27.9801 322.207 24.2133 322.207 19.5667C322.207 14.9201 318.433 11.1533 313.777 11.1533C309.122 11.1533 305.348 14.9201 305.348 19.5667C305.348 24.2133 309.122 27.9801 313.777 27.9801Z" fill="white"/>
<path d="M389.446 262.602H363.56C363.206 262.602 362.922 262.315 362.922 261.965C362.922 261.614 363.209 261.328 363.56 261.328H388.808V1.27721H1.27879V261.325H244.429C244.783 261.325 245.067 261.611 245.067 261.962C245.067 262.312 244.78 262.599 244.429 262.599H0.637946C0.284176 262.599 0 262.312 0 261.962V0.637158C0 0.286721 0.287076 0 0.637946 0H389.446C389.8 0 390.084 0.286721 390.084 0.637158V261.962C390.084 262.315 389.797 262.599 389.446 262.599V262.602Z" fill="#00005B"/>
<path d="M363.561 262.602H244.427C244.073 262.602 243.789 262.315 243.789 261.965C243.789 261.614 244.076 261.328 244.427 261.328H363.561C363.914 261.328 364.199 261.614 364.199 261.965C364.199 262.315 363.911 262.602 363.561 262.602Z" fill="#00005B"/>
<path d="M55.5125 202.967H45.8477V229.771H55.5125V202.967Z" fill="#E9B8FF"/>
<path d="M73.5672 198.785H63.9023V229.771H73.5672V198.785Z" fill="#E9B8FF"/>
<path d="M91.62 202.967H81.9551V229.771H91.62V202.967Z" fill="#E9B8FF"/>
<path d="M109.673 190.646H100.008V229.771H109.673V190.646Z" fill="#E9B8FF"/>
<path d="M127.725 180.863H118.061V229.768H127.725V180.863Z" fill="#E9B8FF"/>
<path d="M145.778 164.546H136.113V229.768H145.778V164.546Z" fill="#E9B8FF"/>
<path d="M49.6784 197.363C49.4088 197.363 49.1565 197.189 49.0695 196.92C48.9622 196.584 49.1478 196.225 49.4841 196.117L68.5413 190.038C68.6602 190.001 68.7878 189.998 68.9067 190.03L86.6677 194.915L140.58 156.637C140.867 156.434 141.267 156.501 141.47 156.787C141.673 157.074 141.606 157.474 141.319 157.676L87.1607 196.129C87.0041 196.239 86.8069 196.277 86.6213 196.225L68.753 191.307L49.8785 197.328C49.8147 197.348 49.748 197.357 49.6842 197.357L49.6784 197.363Z" fill="#00005B"/>
<path d="M138.807 162.452C138.706 162.452 138.604 162.429 138.509 162.377C138.198 162.212 138.079 161.827 138.245 161.514L140.327 157.598L135.835 158.395C135.49 158.459 135.157 158.224 135.096 157.879C135.035 157.532 135.267 157.202 135.612 157.141L141.394 156.116C141.637 156.072 141.878 156.171 142.023 156.368C142.165 156.565 142.186 156.828 142.07 157.042L139.37 162.114C139.254 162.328 139.034 162.452 138.804 162.452H138.807Z" fill="#00005B"/>
<path d="M160.296 243.69H32.2278C31.874 243.69 31.5898 243.403 31.5898 243.053V180.681C31.5898 180.328 31.8769 180.044 32.2278 180.044C32.5787 180.044 32.8657 180.33 32.8657 180.681V242.413H159.655V146.576H65.8824C65.5286 146.576 65.2444 146.289 65.2444 145.938C65.2444 145.588 65.5315 145.301 65.8824 145.301H160.296C160.649 145.301 160.933 145.588 160.933 145.938V243.05C160.933 243.403 160.646 243.687 160.296 243.687V243.69Z" fill="#00005B"/>
<path d="M428.096 336.657H397.367L402.117 306.873H432.843L428.096 336.657Z" fill="#E2CFFF"/>
<path d="M428.096 337.294H397.37C397.182 337.294 397.005 337.213 396.883 337.071C396.762 336.929 396.709 336.741 396.738 336.556L401.488 306.772C401.537 306.462 401.804 306.233 402.117 306.233H432.843C433.032 306.233 433.209 306.314 433.33 306.456C433.452 306.598 433.504 306.786 433.475 306.971L428.725 336.756C428.676 337.066 428.409 337.294 428.096 337.294ZM398.119 336.017H427.551L432.098 307.51H402.665L398.119 336.017Z" fill="#00005B"/>
<path d="M359.889 356.681V350.631C359.889 346.116 363.192 342.29 367.631 341.662L380.039 339.901C382.011 339.62 383.878 338.847 385.473 337.648L388.3 335.69C394.431 331.447 395.936 325.518 396.286 324.875H436.637L439.232 356.29L359.889 356.681Z" fill="white"/>
<path d="M359.888 357.318C359.72 357.318 359.557 357.252 359.438 357.133C359.317 357.014 359.25 356.849 359.25 356.681V350.631C359.25 345.826 362.814 341.699 367.54 341.027L379.948 339.267C381.807 339.003 383.585 338.267 385.09 337.135L387.937 335.163C393.076 331.606 394.882 326.77 395.477 325.182C395.59 324.878 395.659 324.696 395.729 324.568C395.842 324.363 396.057 324.235 396.289 324.235H436.639C436.972 324.235 437.248 324.49 437.277 324.82L439.872 356.235C439.886 356.412 439.826 356.588 439.707 356.719C439.585 356.849 439.417 356.924 439.24 356.924L359.897 357.315H359.894L359.888 357.318ZM396.715 325.513C396.7 325.55 396.686 325.588 396.671 325.628C396.042 327.311 394.131 332.429 388.662 336.214L385.835 338.172C384.179 339.417 382.199 340.237 380.125 340.532L367.717 342.293C363.617 342.875 360.526 346.461 360.526 350.631V356.038L438.538 355.653L436.047 325.513H396.715Z" fill="#00005B"/>
<path d="M439.438 356.059C440.542 356.059 441.441 356.959 441.444 358.074L441.47 366.389C441.47 367.6 440.496 368.579 439.295 368.579H359.891C358.004 368.579 356.473 367.038 356.473 365.135V359.502C356.473 357.602 358.004 356.059 359.891 356.059H439.438Z" fill="#00005B"/>
<path d="M359.871 356.693C359.535 356.693 359.253 356.429 359.233 356.09L358.978 351.662C358.685 346.562 362.249 342.139 367.265 341.372L382.17 339.096C382.73 339.009 383.289 339.261 383.597 339.736L391.284 351.506C391.475 351.801 391.394 352.195 391.098 352.389C390.805 352.58 390.408 352.499 390.214 352.204L382.527 340.434C382.489 340.379 382.425 340.35 382.361 340.358L367.457 342.635C363.093 343.301 359.996 347.153 360.251 351.59L360.506 356.018C360.526 356.368 360.257 356.672 359.906 356.69C359.894 356.69 359.88 356.69 359.868 356.69L359.871 356.693Z" fill="#00005B"/>
<path d="M396.287 342.076C396.177 342.076 396.067 342.047 395.965 341.989L387.823 337.207C387.518 337.028 387.417 336.637 387.597 336.333C387.777 336.029 388.168 335.927 388.472 336.107L396.615 340.888C396.919 341.068 397.021 341.459 396.841 341.763C396.722 341.966 396.508 342.079 396.29 342.079L396.287 342.076Z" fill="#00005B"/>
<path d="M424.027 356.458C426.614 345.942 434.049 341.488 437.897 339.843L439.347 356.096C439.788 356.096 424.027 356.458 424.027 356.458Z" fill="#00005B"/>
<path d="M499.022 301.498L485.918 329.237L460.951 312.248L474.055 284.512L499.022 301.498Z" fill="#E2CFFF"/>
<path d="M485.917 329.874C485.79 329.874 485.665 329.837 485.558 329.764L460.591 312.775C460.333 312.599 460.24 312.26 460.373 311.976L473.477 284.239C473.558 284.071 473.706 283.944 473.886 283.895C474.066 283.846 474.26 283.877 474.414 283.982L499.381 300.971C499.639 301.147 499.732 301.486 499.598 301.77L486.494 329.507C486.413 329.675 486.265 329.802 486.085 329.851C486.03 329.866 485.972 329.874 485.917 329.874ZM461.762 312.028L485.659 328.29L498.209 301.721L474.312 285.459L461.762 312.028Z" fill="#00005B"/>
<path d="M496.373 293.791L520.157 306.161L495.208 345.673C492.96 349.23 489.318 351.659 485.175 352.36L459.926 356.638C457.58 343.078 466.251 338.612 470.902 337.208C472.81 336.631 474.451 335.4 475.547 333.729L473.274 326.04L496.373 293.791Z" fill="white"/>
<path d="M459.929 357.275C459.624 357.275 459.354 357.055 459.299 356.745C456.823 342.421 466.459 337.882 470.719 336.597C472.383 336.093 473.839 335.041 474.851 333.619L472.664 326.22C472.609 326.031 472.644 325.829 472.757 325.666L495.856 293.418C496.042 293.16 496.387 293.076 496.671 293.223L520.455 305.593C520.615 305.674 520.731 305.819 520.777 305.993C520.823 306.164 520.794 306.349 520.702 306.5L495.752 346.012C493.415 349.716 489.599 352.259 485.287 352.989L460.042 357.267C460.007 357.272 459.969 357.275 459.934 357.275H459.929ZM473.975 326.159L476.161 333.55C476.214 333.729 476.185 333.923 476.083 334.08C474.906 335.875 473.131 337.205 471.09 337.819C466.285 339.27 458.598 343.542 460.459 355.903L485.072 351.732C489.028 351.063 492.525 348.729 494.671 345.331L519.252 306.407L496.576 294.614L473.981 326.159H473.975Z" fill="#00005B"/>
<path d="M459.928 357.276C459.624 357.276 459.354 357.055 459.299 356.746C457.093 343.985 464.42 338.957 470.953 336.985C471.533 336.811 472.093 336.568 472.615 336.264C472.919 336.087 473.311 336.191 473.488 336.495C473.665 336.8 473.56 337.191 473.256 337.367C472.647 337.721 471.997 338.001 471.322 338.207C462.657 340.822 458.934 347.159 460.555 356.531C460.616 356.879 460.381 357.209 460.033 357.27C459.995 357.275 459.96 357.278 459.923 357.278L459.928 357.276Z" fill="#00005B"/>
<path d="M459.928 356.638L485.176 352.36C489.317 351.66 492.962 349.23 495.206 345.673L520.156 306.161L520.51 305.602C521.29 304.446 522.818 304.078 524.045 304.75L528.577 307.571C529.966 308.333 530.421 310.123 529.56 311.449L502.317 353.504C499.06 358.532 493.855 361.958 487.954 362.96L461.784 367.395C460.363 367.635 459.009 366.673 458.762 365.243L457.797 359.662C457.55 358.234 458.501 356.878 459.922 356.638H459.928Z" fill="#00005B"/>
<path d="M512.982 317.526C509.41 314.841 506.809 310.838 505.985 306.083C505.559 303.615 505.652 301.183 506.182 298.895L520.156 306.164L512.979 317.526H512.982Z" fill="#00005B"/>
<path d="M486.983 344.906C486.882 344.906 486.78 344.883 486.685 344.83L472.691 337.405C472.377 337.24 472.261 336.854 472.427 336.542C472.592 336.232 472.978 336.113 473.291 336.278L487.285 343.704C487.598 343.869 487.714 344.254 487.549 344.567C487.433 344.781 487.213 344.906 486.983 344.906Z" fill="#00005B"/>
<path d="M488.786 336.168C488.737 336.168 488.688 336.162 488.639 336.151L480.702 334.277C480.357 334.196 480.145 333.851 480.226 333.509C480.308 333.167 480.653 332.953 480.995 333.034L488.931 334.908C489.276 334.989 489.488 335.334 489.407 335.676C489.337 335.968 489.076 336.168 488.786 336.168Z" fill="#00005B"/>
<path d="M438.44 316.384L397.533 315.431L418.919 117.796L465.466 124.324L438.44 316.384Z" fill="white"/>
<path d="M438.44 317.024C438.44 317.024 438.431 317.024 438.425 317.024L397.518 316.068C397.338 316.065 397.17 315.984 397.054 315.851C396.935 315.718 396.88 315.538 396.901 315.362L418.283 117.73C418.301 117.559 418.391 117.402 418.527 117.295C418.663 117.188 418.837 117.142 419.008 117.168L465.555 123.693C465.723 123.716 465.874 123.806 465.976 123.942C466.077 124.078 466.121 124.246 466.097 124.414L439.075 316.477C439.031 316.792 438.759 317.027 438.443 317.027L438.44 317.024ZM398.243 314.809L437.886 315.732L464.74 124.866L419.478 118.52L398.24 314.809H398.243Z" fill="#00005B"/>
<path d="M403.182 263.199L400.453 288.349L438.44 316.384L441.224 295.407L403.182 263.199Z" fill="#00005B"/>
<path d="M390.908 118.818L351.405 201.165C344.025 216.547 348.607 234.99 362.331 245.15L463.881 320.334L487.806 287.283L398.381 214.69L435.698 137.322L390.905 118.818H390.908Z" fill="white"/>
<path d="M463.883 320.971C463.747 320.971 463.613 320.928 463.503 320.847L361.954 245.662C348.015 235.343 343.337 216.512 350.833 200.89L390.336 118.543C390.487 118.225 390.87 118.091 391.189 118.245C391.508 118.398 391.641 118.778 391.488 119.096L351.984 201.443C344.755 216.515 349.267 234.683 362.716 244.64L463.747 319.439L486.942 287.402L397.986 215.189C397.757 215.003 397.684 214.682 397.812 214.415L417.403 173.802C417.556 173.484 417.939 173.35 418.255 173.504C418.574 173.657 418.708 174.037 418.554 174.355L399.184 214.517L488.218 286.794C488.482 287.008 488.531 287.387 488.334 287.662L464.408 320.714C464.306 320.853 464.156 320.945 463.987 320.971C463.955 320.977 463.921 320.98 463.889 320.98L463.883 320.971Z" fill="#00005B"/>
<path d="M291.06 72.6649L262.254 55.8874C260.61 54.9288 260.053 52.8204 261.013 51.1782C261.973 49.5361 264.081 48.9829 265.725 49.9416L294.537 66.7191L291.063 72.662L291.06 72.6649Z" fill="#E2CFFF"/>
<path d="M286.466 79.28C285.718 80.5717 284.059 81.0148 282.766 80.2676L275.398 75.9812L273.626 79.0396L271.843 78.0114C268.995 76.3664 268.615 73.4152 268.633 73.4529C268.015 70.4322 270.993 67.1913 273.965 68.9059L285.477 75.5845C286.774 76.3317 287.214 77.9854 286.466 79.2771V79.28Z" fill="#E2CFFF"/>
<path d="M279.791 81.5968C279.042 82.8885 277.384 83.3316 276.09 82.5844L272.695 80.6121L270.923 83.6704L269.14 82.6423C266.292 80.9973 265.912 78.0461 265.93 78.0837C265.312 75.063 268.29 71.8222 271.262 73.5367L278.805 77.9013C280.101 78.6485 280.542 80.3022 279.793 81.5939L279.791 81.5968Z" fill="#E2CFFF"/>
<path d="M304.609 77.9823L296.904 60.2143C296.347 57.99 296.684 55.6354 297.844 53.6573L298.165 53.107C299.062 51.5721 298.542 49.6027 297.006 48.7077L296.672 48.5137C295.135 47.6188 293.161 48.1372 292.262 49.6722L290.223 53.1592C289.063 55.1431 288.727 57.5005 289.286 59.7277L292.004 70.542L279.914 63.5014L268.785 82.5351L306.105 103.544L314.729 83.4792L304.609 77.9881V77.9823Z" fill="#E2CFFF"/>
<path d="M291.498 75.9724C290.75 77.2641 289.091 77.7072 287.798 76.96L278.119 71.3269L276.347 74.3853L274.564 73.3571C271.716 71.7121 271.336 68.7609 271.353 68.7986C270.736 65.7779 273.714 62.537 276.686 64.2516L290.512 72.2769C291.808 73.0241 292.249 74.6778 291.501 75.9695L291.498 75.9724Z" fill="#E2CFFF"/>
<path d="M289.156 77.9652C288.637 77.9652 288.112 77.8435 287.622 77.5916L285.148 76.1522C284.844 75.9755 284.742 75.5845 284.919 75.2804C285.099 74.9763 285.49 74.8721 285.792 75.0516L288.236 76.4737C289.19 76.966 290.394 76.6127 290.948 75.654C291.223 75.1762 291.299 74.6201 291.154 74.0872C291.011 73.5543 290.669 73.1083 290.191 72.8332L276.365 64.8079C275.095 64.0751 274.042 64.5414 273.529 64.8861C272.41 65.6362 271.757 67.1016 271.943 68.4541C271.989 68.8046 271.745 69.1261 271.395 69.1724C271.044 69.2187 270.722 68.9755 270.675 68.625C270.426 66.7802 271.287 64.8513 272.818 63.8261C274.112 62.9601 275.64 62.9167 277.006 63.7044L290.832 71.7297C291.603 72.1757 292.157 72.8969 292.389 73.7599C292.621 74.623 292.502 75.5237 292.052 76.2941C291.432 77.3628 290.313 77.9652 289.156 77.9652Z" fill="#00005B"/>
<path d="M284.114 81.2667C283.546 81.2667 282.972 81.1219 282.444 80.8178L278.947 78.7847C278.642 78.608 278.538 78.217 278.715 77.9129C278.892 77.6088 279.283 77.5046 279.588 77.6841L283.082 79.7172C284.071 80.2878 285.338 79.9489 285.909 78.9613C286.185 78.4835 286.26 77.9274 286.118 77.3945C285.976 76.8616 285.634 76.4156 285.155 76.1405L273.64 69.4619C272.367 68.7263 271.318 69.1954 270.804 69.5401C269.685 70.2902 269.033 71.7586 269.218 73.1111C269.264 73.4615 269.021 73.783 268.673 73.8293C268.325 73.8786 268.003 73.6324 267.954 73.2848C267.702 71.44 268.56 69.5082 270.094 68.4801C271.387 67.6112 272.915 67.5678 274.284 68.3584L285.799 75.037C286.573 75.483 287.127 76.2042 287.356 77.0672C287.588 77.9303 287.469 78.831 287.02 79.6014C286.399 80.6701 285.274 81.2696 284.117 81.2696L284.114 81.2667Z" fill="#00005B"/>
<path d="M305.368 104.381C305.258 104.381 305.147 104.352 305.046 104.294L279.841 89.5989L268.811 83.1926C266.227 81.7011 265.403 79.0945 265.302 78.2083H265.299C264.922 76.3576 265.731 74.2956 267.268 73.1892C268.587 72.2393 270.159 72.1669 271.574 72.9836L279.116 77.351C279.891 77.797 280.444 78.5182 280.674 79.3812C280.906 80.2443 280.784 81.145 280.337 81.9183C279.412 83.5141 277.362 84.0615 275.764 83.1376L272.612 81.3072C272.308 81.1305 272.203 80.7396 272.38 80.4355C272.557 80.1314 272.949 80.0271 273.253 80.2038L276.402 82.0341C277.391 82.6047 278.658 82.2658 279.229 81.2782C279.505 80.8004 279.58 80.2443 279.438 79.7114C279.296 79.1785 278.954 78.7325 278.476 78.4574L270.933 74.0899C269.614 73.3282 268.538 73.8496 268.01 74.2261C266.868 75.0486 266.265 76.5807 266.546 77.9563C266.552 77.9853 266.555 78.0143 266.558 78.0403C266.589 78.2402 267.021 80.6874 269.449 82.0892L280.482 88.4984L305.136 102.872L315.656 84.8811L304.295 78.5385C304.173 78.469 304.077 78.3647 304.019 78.2344L296.315 60.4663C296.3 60.4345 296.289 60.4026 296.283 60.3679C295.683 57.9669 296.039 55.4704 297.289 53.3331L297.611 52.7828C297.959 52.1891 298.055 51.494 297.878 50.8279C297.701 50.1617 297.278 49.6028 296.68 49.2552L296.344 49.0612C295.114 48.3429 293.525 48.76 292.809 49.988L290.77 53.475C289.689 55.3256 289.381 57.4891 289.903 59.5656L291.069 64.1995C291.133 64.4486 291.037 64.7092 290.834 64.8656C290.628 65.0191 290.35 65.0365 290.13 64.9062L265.183 50.3645C263.968 49.6578 262.405 50.0691 261.698 51.2797L261.434 51.7286C261.091 52.3136 260.999 53 261.17 53.6574C261.344 54.3149 261.761 54.8651 262.35 55.2069L277.13 63.8143C277.435 63.991 277.536 64.382 277.359 64.6861C277.182 64.9902 276.791 65.0944 276.486 64.9149L261.706 56.3074C260.825 55.7919 260.195 54.9665 259.934 53.9789C259.674 52.9913 259.816 51.9632 260.329 51.0827L260.593 50.6338C261.657 48.815 264.003 48.1981 265.824 49.261L289.46 63.0381L288.665 59.8755C288.062 57.4717 288.419 54.9723 289.669 52.832L291.707 49.345C292.78 47.5088 295.149 46.8862 296.99 47.9578L297.327 48.1518C298.217 48.6702 298.852 49.5043 299.116 50.5006C299.38 51.4969 299.238 52.5337 298.716 53.4257L298.394 53.976C297.324 55.8093 297.011 57.9496 297.512 60.0087L305.11 77.5306L316.851 84.0846C317.002 84.1686 317.109 84.3076 317.155 84.4727C317.202 84.6378 317.179 84.8145 317.092 84.9622L305.922 104.065C305.803 104.268 305.588 104.381 305.371 104.381H305.368Z" fill="#00005B"/>
<path d="M496.42 101.027L475.274 60.4025C470.412 51.0594 461.228 44.7284 450.751 43.4975L422.38 40.1611L405.596 43.9406C392.736 46.8368 381.157 53.805 372.585 63.8055L329.582 113.993L356.921 139.758L380.986 114.321L379.968 128.298H473.92L473.697 125.439C478.351 127.385 483.797 127.356 488.645 124.892C497.394 120.443 500.874 109.759 496.42 101.027Z" fill="#00005B"/>
<path d="M488.935 125.463L488.355 124.324C492.435 122.251 495.462 118.714 496.877 114.37C498.292 110.026 497.927 105.389 495.851 101.317L474.706 60.6983C469.936 51.5348 460.952 45.3399 450.675 44.1322L422.304 40.7958C421.953 40.7553 421.704 40.4367 421.745 40.0862C421.785 39.7358 422.101 39.4867 422.455 39.5273L450.826 42.8637C461.523 44.1206 470.875 50.5675 475.842 60.1075L496.99 100.732C499.226 105.111 499.617 110.093 498.095 114.764C496.576 119.433 493.322 123.233 488.941 125.463H488.935Z" fill="#00005B"/>
<path d="M379.972 128.941C379.957 128.941 379.94 128.941 379.925 128.941C379.574 128.914 379.308 128.61 379.334 128.257L383.678 68.5263C383.704 68.1759 384.014 67.9123 384.362 67.9355C384.713 67.9616 384.98 68.2657 384.954 68.619L380.61 128.35C380.586 128.686 380.305 128.941 379.975 128.941H379.972Z" fill="white"/>
<path d="M419.445 50.9322L427.591 58.5665L436.548 41.1199L425.903 39.0781L419.445 50.9322Z" fill="white"/>
<path d="M419.477 50.9234L409.377 58.1117L410.754 42.7793L417.995 39.4893L419.477 50.9234Z" fill="white"/>
<path d="M456.397 101.436C456.165 101.436 455.942 101.308 455.829 101.088L444.343 78.5819C444.183 78.2691 444.308 77.8839 444.621 77.7246C444.937 77.5653 445.32 77.6898 445.48 78.0026L456.965 100.509C457.125 100.822 457 101.207 456.687 101.366C456.594 101.412 456.496 101.436 456.397 101.436Z" fill="white"/>
<path d="M378.92 108.366L359.364 142.97L300.49 105.253L316.311 77.2583L378.92 108.366Z" fill="#00005B"/>
<path d="M333.879 127.281C333.76 127.281 333.641 127.249 333.534 127.18L300.149 105.791C299.865 105.609 299.772 105.235 299.937 104.94L315.758 76.9454C315.926 76.65 316.295 76.5371 316.599 76.6877L369.16 102.802C369.476 102.959 369.604 103.341 369.447 103.657C369.291 103.973 368.908 104.1 368.592 103.944L316.573 78.0981L301.346 105.038L334.224 126.102C334.52 126.293 334.607 126.687 334.415 126.983C334.294 127.174 334.088 127.275 333.876 127.275L333.879 127.281Z" fill="white"/>
<path d="M380.043 113.712L334.484 151.275L387.05 214.873L432.609 177.31L380.043 113.712Z" fill="#E9B8FF"/>
<path d="M387.074 215.478C386.891 215.478 386.708 215.4 386.581 215.246L333.968 151.687C333.86 151.557 333.808 151.389 333.826 151.221C333.84 151.053 333.924 150.896 334.055 150.789L379.613 113.226C379.885 113.003 380.288 113.04 380.512 113.313L433.125 176.872C433.232 177.002 433.284 177.17 433.267 177.338C433.252 177.506 433.168 177.663 433.038 177.77L387.48 215.333C387.361 215.432 387.216 215.478 387.074 215.478ZM335.36 151.365L387.158 213.943L431.73 177.191L379.932 114.613L335.36 151.365Z" fill="#00005B"/>
<path d="M360.717 122.462L346.707 134.013L353.375 142.08L367.385 130.529L360.717 122.462Z" fill="#E2CFFF"/>
<path d="M353.373 142.706C353.19 142.706 353.008 142.628 352.88 142.474L346.208 134.411C346.101 134.281 346.048 134.113 346.066 133.945C346.08 133.777 346.164 133.621 346.295 133.514L360.304 121.964C360.576 121.741 360.979 121.778 361.203 122.05L367.875 130.113C367.982 130.244 368.034 130.412 368.017 130.58C368.002 130.748 367.918 130.904 367.788 131.011L353.779 142.561C353.66 142.66 353.515 142.706 353.373 142.706ZM347.6 134.093L353.46 141.171L366.483 130.432L360.623 123.354L347.6 134.093Z" fill="#00005B"/>
<path d="M353.851 133.864C351.206 133.864 349.055 131.715 349.055 129.076C349.055 126.438 351.206 124.289 353.851 124.289C356.495 124.289 358.647 126.435 358.647 129.076C358.647 131.718 356.495 133.864 353.851 133.864ZM353.851 125.566C351.911 125.566 350.333 127.142 350.333 129.076C350.333 131.011 351.911 132.587 353.851 132.587C355.791 132.587 357.368 131.011 357.368 129.076C357.368 127.142 355.791 125.566 353.851 125.566Z" fill="#00005B"/>
<path d="M385.539 147.395L380.122 163.426C379.603 164.961 380.429 166.623 381.966 167.141L382.279 167.246C383.816 167.764 385.484 166.939 386.003 165.404L391.419 149.373C392.025 147.581 392.907 145.892 394.029 144.366L404.419 130.276L398.538 128.298L388.148 142.388C387.023 143.911 386.145 145.6 385.539 147.395Z" fill="#E2CFFF"/>
<path d="M391.42 149.376L386.618 163.588C386.099 165.123 386.925 166.785 388.462 167.304L388.775 167.408C390.312 167.926 391.98 167.101 392.499 165.566L397.301 151.354C397.907 149.562 398.788 147.873 399.91 146.347L410.3 132.257L404.42 130.279L394.03 144.369C392.905 145.892 392.026 147.581 391.42 149.376Z" fill="#E2CFFF"/>
<path d="M397.301 151.354L394.276 160.3C393.757 161.835 394.584 163.498 396.12 164.016L396.434 164.12C397.97 164.639 399.638 163.813 400.157 162.279L403.184 153.321C403.761 151.618 405.084 150.268 406.78 149.66L410.761 148.229C415.505 146.526 419.208 142.755 420.821 137.985L421.485 136.016L410.303 132.251L399.913 146.341C398.788 147.864 397.91 149.553 397.304 151.348L397.301 151.354Z" fill="#E2CFFF"/>
<path d="M399.704 124.228C395.131 125.587 391.13 128.399 388.299 132.233L382.268 140.412C381.143 141.935 380.264 143.624 379.658 145.42L376.216 155.608C375.714 157.097 376.515 158.71 378.005 159.211L378.487 159.373C379.977 159.874 381.592 159.075 382.097 157.589L385.539 147.401C386.145 145.608 387.026 143.919 388.149 142.393L398.095 128.908L420.237 139.427L473.915 123.467L446.335 110.364L399.704 124.228Z" fill="#E2CFFF"/>
<path d="M383.215 168.039C382.839 168.039 382.453 167.978 382.076 167.85L381.763 167.746C380.858 167.442 380.124 166.802 379.701 165.948C379.275 165.093 379.211 164.126 379.515 163.222L384.932 147.192C385.558 145.333 386.469 143.589 387.635 142.011L395.676 131.107C395.884 130.823 396.285 130.762 396.569 130.971C396.853 131.179 396.914 131.579 396.705 131.863L388.664 142.767C387.577 144.241 386.73 145.866 386.144 147.598L380.727 163.628C380.53 164.21 380.574 164.83 380.846 165.38C381.119 165.93 381.589 166.339 382.172 166.536L382.485 166.64C383.688 167.045 384.993 166.397 385.399 165.198L390.816 149.167C391.442 147.308 392.353 145.567 393.518 143.986L401.336 133.386C401.545 133.102 401.945 133.041 402.229 133.25C402.513 133.458 402.574 133.858 402.365 134.142L394.548 144.742C393.46 146.216 392.614 147.841 392.028 149.573L386.611 165.603C386.109 167.092 384.712 168.033 383.218 168.033L383.215 168.039Z" fill="#00005B"/>
<path d="M389.713 168.198C389.336 168.198 388.95 168.137 388.573 168.01L388.26 167.906C387.355 167.601 386.622 166.961 386.198 166.107C385.775 165.253 385.708 164.285 386.013 163.382L390.815 149.17C391.441 147.314 392.351 145.57 393.517 143.989L401.335 133.389C401.544 133.105 401.944 133.044 402.228 133.253C402.512 133.461 402.573 133.861 402.364 134.145L394.547 144.745C393.459 146.219 392.612 147.844 392.027 149.576L387.225 163.787C387.027 164.369 387.071 164.989 387.344 165.539C387.616 166.09 388.086 166.498 388.669 166.695L388.982 166.799C390.182 167.205 391.49 166.559 391.896 165.357L396.698 151.145C397.327 149.286 398.235 147.545 399.401 145.964L407.442 135.06C407.651 134.776 408.051 134.715 408.335 134.924C408.619 135.132 408.68 135.532 408.471 135.816L400.43 146.72C399.343 148.194 398.496 149.819 397.91 151.551L393.108 165.762C392.604 167.251 391.209 168.192 389.716 168.192L389.713 168.198Z" fill="#00005B"/>
<path d="M397.373 164.917C396.993 164.917 396.61 164.856 396.233 164.729L395.92 164.624C395.015 164.32 394.282 163.68 393.858 162.826C393.432 161.971 393.368 161.004 393.673 160.101L396.697 151.154C397.324 149.295 398.234 147.551 399.4 145.973L407.441 135.069C407.65 134.785 408.05 134.724 408.334 134.933C408.618 135.141 408.679 135.541 408.47 135.825L400.429 146.729C399.342 148.203 398.495 149.828 397.909 151.56L394.885 160.506C394.688 161.085 394.731 161.708 395.004 162.258C395.276 162.808 395.746 163.217 396.329 163.414L396.642 163.518C397.846 163.924 399.151 163.275 399.556 162.076L402.584 153.118C403.225 151.218 404.677 149.741 406.568 149.06L410.549 147.63C414.6 146.176 417.926 143.091 419.678 139.167L419.797 138.898L420.078 138.814L472.146 123.319L446.289 111.036L399.893 124.831C395.482 126.143 391.55 128.903 388.822 132.601L382.79 140.78C381.703 142.254 380.856 143.882 380.27 145.614L376.828 155.803C376.64 156.362 376.68 156.958 376.941 157.485C377.202 158.012 377.655 158.406 378.214 158.595L378.696 158.757C379.853 159.145 381.105 158.525 381.497 157.372L384.939 147.184C385.565 145.324 386.476 143.581 387.641 142.002L394.076 133.279C394.285 132.995 394.685 132.934 394.969 133.143C395.253 133.351 395.314 133.751 395.105 134.035L388.671 142.758C387.583 144.232 386.737 145.857 386.151 147.589L382.709 157.778C382.094 159.597 380.114 160.578 378.29 159.964L377.808 159.802C376.927 159.504 376.211 158.881 375.799 158.05C375.384 157.216 375.32 156.272 375.619 155.391L379.061 145.203C379.687 143.346 380.598 141.603 381.764 140.021L387.795 131.843C390.686 127.921 394.856 124.996 399.53 123.606L446.396 109.672L475.698 123.591L420.722 139.949C418.799 144.062 415.264 147.288 410.982 148.826L407 150.256C405.481 150.804 404.312 151.991 403.796 153.52L400.769 162.478C400.267 163.967 398.869 164.908 397.376 164.908L397.373 164.917Z" fill="#00005B"/>
<path d="M420.285 139.995C420.219 139.995 420.149 139.984 420.082 139.961C419.749 139.848 419.569 139.486 419.682 139.152L421.674 133.256C421.787 132.923 422.15 132.74 422.483 132.856C422.817 132.969 422.997 133.331 422.884 133.664L420.891 139.561C420.802 139.827 420.552 139.995 420.285 139.995Z" fill="#00005B"/>
<path d="M479.416 98.5282L423.328 113.099L430.415 140.31L486.503 125.739L479.416 98.5282Z" fill="#00005B"/>
<path d="M430.423 140.936C430.31 140.936 430.2 140.907 430.101 140.849C429.953 140.763 429.849 140.623 429.805 140.458L422.71 113.249C422.629 112.933 422.797 112.603 423.104 112.49L478.063 92.0604C478.394 91.9388 478.762 92.1039 478.884 92.4369C479.006 92.7671 478.837 93.1349 478.507 93.2565L424.087 113.483L430.878 139.514L488.482 124.275C488.821 124.185 489.172 124.388 489.262 124.726C489.352 125.068 489.149 125.416 488.807 125.505L430.583 140.91C430.53 140.925 430.475 140.93 430.42 140.93L430.423 140.936Z" fill="white"/>
<path d="M429.271 40.978L419.443 50.9322L415.363 30.9746L426.751 28.6548L429.271 40.978Z" fill="#E2CFFF"/>
<path d="M419.444 51.5694C419.383 51.5694 419.322 51.5607 419.261 51.5434C419.035 51.4768 418.864 51.2914 418.818 51.0597L414.738 31.1051C414.703 30.94 414.738 30.7662 414.831 30.6243C414.923 30.4824 415.068 30.3839 415.237 30.3521L426.624 28.0322C426.969 27.9627 427.305 28.1857 427.378 28.5304L429.898 40.8536C429.941 41.0621 429.877 41.2764 429.727 41.4299L419.899 51.3812C419.778 51.5057 419.612 51.5723 419.444 51.5723V51.5694ZM416.118 31.4729L419.833 49.6319L428.578 40.7754L426.256 29.4108L416.121 31.4758L416.118 31.4729Z" fill="#00005B"/>
<path d="M427.6 32.8137L426.751 28.6577L415.363 30.9776L417.239 40.1526C418.272 40.1468 420.299 39.9933 422.415 38.7856C425.727 36.8944 427.307 33.6855 427.6 32.8166V32.8137Z" fill="#00005B"/>
<path d="M427.589 25.3619L418.371 24.9883L409.895 28.8402L406.963 16.5459L424.46 10.4727L427.589 25.3619Z" fill="#00005B"/>
<path d="M420.712 36.6934C425.589 35.6926 428.646 30.5196 427.539 25.1393C426.432 19.7589 421.581 16.2086 416.704 17.2094C411.827 18.2102 408.77 23.3831 409.877 28.7635C410.984 34.1438 415.835 37.6941 420.712 36.6934Z" fill="#E2CFFF"/>
<path d="M419.058 37.4708C414.482 37.4708 410.281 33.9201 409.245 28.8489C408.683 26.0918 409.126 23.2941 410.501 20.9771C411.887 18.6399 414.047 17.0673 416.588 16.5518C421.798 15.4889 427.001 19.2771 428.169 24.9941C428.732 27.7513 428.288 30.549 426.914 32.8659C425.527 35.2031 423.367 36.7757 420.827 37.2942C420.235 37.4158 419.644 37.4737 419.058 37.4737V37.4708ZM418.353 17.6494C417.852 17.6494 417.347 17.6986 416.84 17.8029C414.659 18.246 412.798 19.6072 411.6 21.6288C410.388 23.6735 409.996 26.1468 410.498 28.5941C411.527 33.6218 416.045 36.964 420.572 36.043C422.752 35.5999 424.614 34.2387 425.815 32.2172C427.027 30.1725 427.418 27.6991 426.916 25.2519C426.003 20.786 422.338 17.6494 418.356 17.6494H418.353Z" fill="#00005B"/>
<path d="M415.87 32.9473C416.517 33.4223 417.314 33.7032 418.175 33.6974C420.101 33.6859 421.684 32.2667 421.962 30.4219L415.867 32.9444L415.87 32.9473Z" fill="white"/>
<path d="M423.202 7.92408C422.813 8.00228 422.448 8.12681 422.103 8.2832C421.323 6.00392 418.957 4.60217 416.532 5.09741C413.946 5.62452 412.267 8.10654 412.716 10.6841C412.09 10.4177 411.38 10.3308 410.66 10.4756C408.779 10.8579 407.564 12.6941 407.946 14.5737C407.996 14.8141 408.068 15.04 408.161 15.2572C407.856 15.2601 407.549 15.2919 407.239 15.3528C404.571 15.8972 402.849 18.4951 403.394 21.1596C403.939 23.8241 406.543 25.5415 409.213 24.9999C411.881 24.4554 413.604 21.8576 413.059 19.1931C413.047 19.141 413.032 19.0917 413.021 19.0425C414.218 19.4509 415.903 19.5204 417.701 19.1554C419.38 18.8137 420.815 18.1563 421.767 17.3859C422.79 17.9477 424.011 18.165 425.243 17.9159C428.007 17.354 429.79 14.6606 429.228 11.9005C428.662 9.14047 425.965 7.36222 423.202 7.92408ZM414.836 13.9134C414.836 13.9134 414.856 13.925 414.865 13.9307C414.856 13.9336 414.845 13.9365 414.836 13.9423C414.836 13.9336 414.836 13.925 414.836 13.9163V13.9134Z" fill="#00005B"/>
<path d="M208.465 490.421C196.219 469.479 136.258 459.606 136.258 459.606L81.331 455.733H33.1719L34.2622 485.13C34.2622 494.142 37.9391 502.767 44.4461 509.014C50.6342 514.957 72.6578 523.165 81.244 523.165L188.393 528.787H217.312C216.993 521.372 216.474 504.12 208.462 490.418L208.465 490.421Z" fill="#00005B"/>
<path d="M217.313 529.426C216.959 529.426 216.675 529.14 216.675 528.789C216.675 523.735 216.127 497.997 205.293 487.687C188.872 472.053 141.305 460.344 140.826 460.228C140.484 460.144 140.272 459.8 140.356 459.458C140.44 459.116 140.785 458.905 141.128 458.989C143.097 459.466 189.51 470.898 206.175 486.763C217.385 497.435 217.951 523.643 217.951 528.789C217.951 529.143 217.664 529.426 217.313 529.426Z" fill="#00005B"/>
<path d="M34.2622 485.13L33.1719 455.733H139.921L34.2622 485.13Z" fill="#00005B"/>
<path d="M173.58 300.956L166.429 319.329L164.75 308.509L166.478 303.82C167.444 301.193 170.344 299.829 172.988 300.753L173.58 300.959V300.956Z" fill="#E2CFFF"/>
<path d="M201.201 315.078L198.415 336.078L172.729 343.573L165.195 324.009C163.168 318.747 163.125 312.929 165.073 307.637L166.265 304.402L201.201 315.078Z" fill="#E2CFFF"/>
<path d="M188.895 280.167L174.715 318.845L167.631 316.245L181.811 277.566C182.501 275.692 184.583 274.734 186.459 275.42L186.746 275.524C188.622 276.214 189.585 278.29 188.895 280.164V280.167Z" fill="#E2CFFF"/>
<path d="M175.492 316.782L183.792 294.252C184.486 292.368 186.582 291.401 188.467 292.094L188.715 292.185C190.601 292.878 191.57 294.971 190.876 296.855L182.577 319.382L175.493 316.779L175.492 316.782Z" fill="#E2CFFF"/>
<path d="M189.785 321.649L197.951 299.484C198.65 297.584 200.765 296.608 202.667 297.307L202.855 297.376C204.757 298.075 205.734 300.187 205.034 302.087L196.869 324.253L189.785 321.649Z" fill="#E2CFFF"/>
<path d="M205.025 318.374L198.492 335.913L191.373 333.301L202.392 303.58L204.961 310.233C205.97 312.848 205.994 315.741 205.025 318.371V318.374Z" fill="#E2CFFF"/>
<path d="M194.883 296.249L195.268 296.391C197.119 297.069 197.971 299.38 197.171 301.549L189.193 323.207L182.109 320.606L190.087 298.949C190.887 296.779 193.033 295.572 194.883 296.249Z" fill="#E2CFFF"/>
<path d="M180.604 302.859L183.785 294.225C184.478 292.34 186.574 291.373 188.462 292.068L188.708 292.157C190.596 292.85 191.565 294.941 190.872 296.826L188.073 304.428L180.606 302.862L180.604 302.859Z" fill="#E2CFFF"/>
<path d="M188.07 305.063C187.998 305.063 187.922 305.051 187.85 305.022C187.519 304.901 187.348 304.533 187.47 304.203L190.268 296.6C190.547 295.847 190.512 295.033 190.175 294.306C189.839 293.579 189.239 293.026 188.485 292.751L188.238 292.661C186.681 292.091 184.953 292.89 184.382 294.442L181.201 303.076C181.079 303.406 180.714 303.577 180.38 303.455C180.05 303.334 179.878 302.966 180 302.636L183.181 294.002C183.996 291.79 186.461 290.651 188.679 291.465L188.926 291.555C189.999 291.949 190.854 292.737 191.335 293.773C191.814 294.81 191.863 295.972 191.469 297.043L188.67 304.646C188.575 304.903 188.331 305.063 188.07 305.063Z" fill="#00005B"/>
<path d="M194.747 308.778C194.675 308.778 194.599 308.767 194.527 308.738C194.196 308.616 194.025 308.248 194.147 307.918L196.788 300.742C197.058 300.009 197.026 299.215 196.699 298.506C196.371 297.796 195.785 297.257 195.049 296.988L194.663 296.846C193.146 296.29 191.459 297.069 190.902 298.581L188.353 305.506C188.231 305.836 187.863 306.007 187.532 305.885C187.202 305.764 187.031 305.396 187.153 305.066L189.701 298.141C190.502 295.969 192.926 294.848 195.104 295.647L195.489 295.789C196.545 296.177 197.386 296.95 197.858 297.967C198.331 298.986 198.378 300.128 197.989 301.179L195.347 308.356C195.252 308.613 195.008 308.773 194.747 308.773V308.778Z" fill="#00005B"/>
<path d="M198.734 334.227L197.971 365.969L170.562 357.232L171.192 324.125L198.734 334.227Z" fill="#E2CFFF"/>
<path d="M198.473 345.047L197.971 365.969L170.562 357.232L170.736 348.071L187.752 346.215L198.473 345.047Z" fill="#00005B"/>
<path d="M168.358 314.91C168.286 314.91 168.21 314.898 168.138 314.869C167.807 314.748 167.636 314.383 167.758 314.05L181.21 277.343C182.022 275.142 184.472 274.01 186.679 274.818L186.966 274.922C188.033 275.313 188.886 276.098 189.364 277.129C189.843 278.16 189.889 279.316 189.495 280.382L180.642 304.602C180.52 304.932 180.154 305.103 179.824 304.982C179.493 304.86 179.322 304.495 179.444 304.162L188.297 279.938C188.572 279.191 188.541 278.383 188.204 277.662C187.871 276.941 187.273 276.393 186.528 276.118L186.241 276.014C184.698 275.446 182.979 276.24 182.413 277.781L168.961 314.484C168.866 314.742 168.622 314.904 168.361 314.904L168.358 314.91Z" fill="#00005B"/>
<path d="M197.97 366.606C197.906 366.606 197.84 366.598 197.776 366.577L170.367 357.84C170.098 357.753 169.918 357.501 169.924 357.22L170.272 338.974L164.597 324.235C162.721 319.364 162.5 313.928 163.976 308.92C164.075 308.582 164.432 308.388 164.768 308.489C165.107 308.587 165.301 308.944 165.2 309.28C163.805 314.018 164.014 319.164 165.789 323.775L171.507 338.629C171.536 338.708 171.55 338.789 171.55 338.87L171.211 356.765L197.355 365.1L198.066 335.461C198.066 335.391 198.08 335.322 198.106 335.255L204.431 318.151C205.347 315.666 205.324 312.935 204.37 310.461L202.906 306.67C202.85 306.528 202.848 306.375 202.897 306.23L204.428 301.836C204.712 301.066 204.677 300.243 204.338 299.508C203.999 298.772 203.39 298.213 202.63 297.935L202.444 297.869C200.873 297.292 199.124 298.097 198.547 299.667L194.94 309.459C194.818 309.789 194.45 309.96 194.119 309.839C193.789 309.717 193.618 309.349 193.739 309.019L197.347 299.227C198.167 296.997 200.652 295.85 202.885 296.67L203.071 296.736C204.152 297.133 205.014 297.927 205.498 298.972C205.982 300.018 206.029 301.185 205.631 302.265L204.181 306.427L205.562 310.001C206.629 312.761 206.652 315.81 205.628 318.591L199.342 335.597L198.614 365.981C198.608 366.181 198.51 366.369 198.347 366.485C198.237 366.563 198.106 366.604 197.976 366.604L197.97 366.606Z" fill="#00005B"/>
<path d="M184.981 443.132C184.839 443.132 184.7 443.132 184.558 443.129C178.121 443.019 172.112 440.413 167.638 435.79C163.166 431.168 160.763 425.086 160.873 418.662L161.827 352.589C161.833 352.241 162.117 351.96 162.465 351.96L209.586 352.056C209.757 352.056 209.922 352.126 210.041 352.247C210.16 352.369 210.227 352.534 210.224 352.705L209.07 419.493C208.843 432.616 198.074 443.135 184.978 443.135L184.981 443.132ZM163.097 353.238L162.152 418.683C162.047 424.767 164.321 430.528 168.557 434.904C172.794 439.28 178.483 441.748 184.578 441.852C184.712 441.852 184.845 441.855 184.978 441.855C197.384 441.855 207.579 431.895 207.794 419.467L208.936 353.327L163.094 353.235L163.097 353.238Z" fill="#00005B"/>
<path d="M209.592 352.693L208.435 419.479C208.212 432.411 197.526 442.715 184.57 442.492C178.367 442.385 172.765 439.883 168.639 435.883L168.633 435.889L141.471 413.629L147.583 461.358L33.1968 466.131L35.5659 439.547C31.773 441.366 28.1744 442.327 24.4975 442.327C20.8206 442.327 17.3496 441.435 13.4204 439.553C1.56334 433.862 -1.87867 416.464 3.81935 404.636L24.4888 361.84C32.6197 345.01 49.6935 334.303 68.4172 334.303H95.5792C119.694 334.303 142.81 343.866 159.858 360.881L162.311 363.331L162.465 352.601L209.586 352.696L209.592 352.693Z" fill="white"/>
<path d="M33.1993 466.765C33.0253 466.765 32.8571 466.693 32.7382 466.568C32.6106 466.435 32.5468 466.255 32.5642 466.07L34.8376 440.584C31.2245 442.182 27.8347 442.961 24.5029 442.961C20.8492 442.961 17.1346 442.032 13.1504 440.123C7.40595 437.366 3.2419 431.834 1.42375 424.545C-0.290004 417.678 0.37694 410.319 3.2506 404.352L23.923 361.556C32.109 344.61 49.58 333.66 68.4255 333.66H95.5846C120.032 333.66 143.022 343.165 160.316 360.426L161.699 361.808L161.83 352.586C161.835 352.239 162.12 351.958 162.468 351.958L209.589 352.053C209.76 352.053 209.925 352.123 210.044 352.244C210.163 352.366 210.229 352.531 210.226 352.702L209.069 419.488C208.959 425.912 206.347 431.91 201.716 436.375C197.189 440.74 191.259 443.132 184.981 443.132C184.839 443.132 184.697 443.132 184.555 443.129C178.442 443.022 172.666 440.639 168.27 436.416C168.255 436.404 168.238 436.393 168.224 436.381L142.305 415.141L148.215 461.277C148.238 461.453 148.186 461.633 148.07 461.769C147.954 461.905 147.786 461.986 147.609 461.995L33.2225 466.768C33.2225 466.768 33.2051 466.768 33.1964 466.768L33.1993 466.765ZM35.5684 438.904C35.696 438.904 35.8236 438.941 35.9309 439.017C36.1193 439.147 36.2237 439.37 36.2034 439.599L33.8981 465.459L146.861 460.747L140.835 413.707C140.803 413.446 140.931 413.194 141.16 413.067C141.389 412.94 141.67 412.966 141.876 413.131L168.957 435.324C169.004 435.35 169.047 435.382 169.085 435.42C173.257 439.463 178.761 441.748 184.581 441.849C190.653 441.953 196.447 439.683 200.831 435.454C205.216 431.226 207.689 425.547 207.794 419.462L208.939 353.325L163.097 353.232L162.952 363.334C162.949 363.592 162.789 363.82 162.555 363.916C162.317 364.012 162.044 363.957 161.861 363.777L159.408 361.327C142.355 344.309 119.687 334.934 95.5788 334.934H68.4197C50.0585 334.934 33.0427 345.601 25.0655 362.109L4.3931 404.906C1.64703 410.605 1.01489 417.652 2.65615 424.235C4.3786 431.148 8.29907 436.381 13.6955 438.97C17.5058 440.795 21.0377 441.681 24.4942 441.681C27.9507 441.681 31.471 440.792 35.2871 438.962C35.3741 438.918 35.4698 438.898 35.5626 438.898L35.5684 438.904Z" fill="#00005B"/>
<path d="M168.632 436.529C168.49 436.529 168.345 436.483 168.226 436.384L118.101 395.308C117.829 395.085 117.788 394.682 118.011 394.41C118.235 394.138 118.638 394.097 118.91 394.32L169.035 435.397C169.308 435.62 169.349 436.022 169.125 436.295C168.998 436.448 168.815 436.529 168.63 436.529H168.632Z" fill="#00005B"/>
<path d="M201.818 403.411C201.656 403.411 201.49 403.348 201.366 403.226L159.409 361.336C142.115 344.072 119.79 334.946 94.843 334.946C94.4893 334.946 94.2051 334.659 94.2051 334.309C94.2051 333.958 94.4922 333.671 94.843 333.671C120.135 333.671 142.773 342.928 160.311 360.435L202.267 402.325C202.517 402.574 202.517 402.977 202.267 403.229C202.143 403.353 201.98 403.417 201.815 403.417L201.818 403.411Z" fill="#00005B"/>
<path d="M33.1733 434.762C33.1385 434.762 33.1066 434.762 33.0718 434.754C32.7238 434.699 32.486 434.371 32.5411 434.024L42.8672 369.636C42.9223 369.289 43.2499 369.051 43.5979 369.106C43.9459 369.161 44.1837 369.488 44.1286 369.836L33.8025 434.224C33.7532 434.536 33.4807 434.759 33.1733 434.759V434.762Z" fill="#00005B"/>
<path d="M42.0867 374.919L27.0254 442.171C27.0254 442.171 29.3104 441.977 31.7056 441.189C33.4107 440.63 35.5652 439.541 35.5652 439.541L42.0838 374.919H42.0867Z" fill="#00005B"/>
<path d="M103.96 308.46C103.96 316.766 104.497 328.287 96.1745 328.287C87.8522 328.287 73.8203 316.766 73.8203 308.46C73.8203 300.154 80.568 293.42 88.8903 293.42C97.2126 293.42 103.96 300.154 103.96 308.46Z" fill="#E2CFFF"/>
<path d="M96.1719 328.924C87.6408 328.924 73.1797 317.293 73.1797 308.46C73.1797 299.626 80.2261 292.78 88.8877 292.78C97.5492 292.78 104.596 299.812 104.596 308.46V309.885C104.622 316.271 104.648 323.508 101.186 326.978C99.898 328.27 98.2104 328.924 96.169 328.924H96.1719ZM88.8877 294.057C80.9307 294.057 74.4556 300.518 74.4556 308.46C74.4556 316.401 88.3077 327.65 96.169 327.65C97.8798 327.65 99.2253 327.137 100.281 326.08C103.366 322.987 103.343 315.726 103.32 309.893V308.463C103.317 300.521 96.8417 294.06 88.8848 294.06L88.8877 294.057Z" fill="#00005B"/>
<path d="M109.491 304.779C107.191 297.118 100.078 291.535 91.6546 291.535C83.2308 291.535 76.3787 296.672 74.2734 304.779H109.488H109.491Z" fill="#00005B"/>
<path d="M94.2898 320.786V334.302H76.8594V315.24L94.2898 320.786Z" fill="#E2CFFF"/>
<path d="M94.2891 334.942H76.8587C76.5049 334.942 76.2207 334.656 76.2207 334.305V315.243C76.2207 314.889 76.5078 314.605 76.8587 314.605C77.2095 314.605 77.4966 314.892 77.4966 315.243V333.668H93.6482V320.789C93.6482 320.435 93.9353 320.152 94.2862 320.152C94.6371 320.152 94.9241 320.438 94.9241 320.789V334.305C94.9241 334.659 94.6371 334.942 94.2862 334.942H94.2891Z" fill="#00005B"/>
<path d="M94.2903 335.206C93.9365 335.206 93.6523 334.92 93.6523 334.569V320.01C93.6523 319.657 93.9394 319.373 94.2903 319.373C94.6412 319.373 94.9282 319.66 94.9282 320.01V334.569C94.9282 334.923 94.6412 335.206 94.2903 335.206Z" fill="#00005B"/>
<path d="M76.8599 529.363C76.8599 529.363 64.997 527.035 62.2858 525.894C37.0347 515.25 35.0774 500.882 30.3856 478.182L16.9336 375.88H130.03L143.401 478.133C148.092 500.833 157.183 514.092 179.033 524.909C181.672 526.215 189.878 529.314 189.878 529.314L78.6114 529.363H76.8629H76.8599Z" fill="#E2CFFF"/>
<path d="M76.8596 530C76.8277 530 76.7987 530 76.7668 529.994C76.4362 529.948 68.6591 528.816 65.8492 527.86C41.3637 519.539 35.106 507.639 29.7559 478.295L16.2982 375.961C16.275 375.779 16.3301 375.596 16.4519 375.457C16.5736 375.318 16.7476 375.24 16.9332 375.24H130.03C130.351 375.24 130.621 375.478 130.662 375.796L144.032 478.049C148.869 501.441 158.436 513.999 179.314 524.335C181.895 525.613 190.02 528.685 190.101 528.714C190.431 528.839 190.597 529.207 190.472 529.537C190.347 529.867 189.976 530.032 189.648 529.908C189.312 529.78 181.384 526.783 178.745 525.476C157.458 514.937 147.709 502.142 142.771 478.257L129.464 376.515H17.6581L31.0173 478.095C36.3529 507.343 42.1959 518.471 66.261 526.649C68.9606 527.567 76.8712 528.717 76.9495 528.729C77.2974 528.778 77.541 529.102 77.4888 529.453C77.4424 529.771 77.1698 530 76.8567 530H76.8596Z" fill="#00005B"/>
<path d="M391.325 525.471C392.149 489.439 402.35 493.401 388.231 457.031L381.89 440.688L337.613 447.358L343.488 525.471H391.325Z" fill="#00005B"/>
<path d="M344.368 521.992L345.72 443.993H301.107L294.191 476.644C293.225 480.464 286.304 482.935 280.611 486.016C258.898 497.78 242.123 503.405 240.815 528.373C240.798 528.7 240.783 529.053 240.783 529.053L292.161 529.143L344.371 521.992H344.368Z" fill="#00005B"/>
<path d="M383.869 445.791L301.797 440.688L297.596 460.564L383.869 445.791Z" fill="#00005B"/>
<path d="M336.326 496.917H336.335C343.799 494.644 348.007 486.758 345.727 479.303L340.574 462.438L313.543 470.667L318.699 487.54C320.975 494.989 328.865 499.188 336.326 496.917Z" fill="#00005B"/>
<path d="M302.306 483.656C302.231 483.656 302.153 483.641 302.077 483.612L292.668 480.015C292.418 479.92 292.253 479.676 292.256 479.407C292.262 479.138 292.433 478.903 292.688 478.813L300.596 476.105C300.932 475.992 301.292 476.169 301.408 476.502C301.521 476.835 301.344 477.197 301.01 477.313L294.77 479.45L302.536 482.416C302.866 482.544 303.028 482.911 302.904 483.239C302.805 483.494 302.565 483.65 302.306 483.65V483.656Z" fill="#00005B"/>
<path d="M260.447 414.477L264.188 443.198H315.517L317.848 409.713L260.447 414.477Z" fill="white"/>
<path d="M315.519 443.836H264.187C263.865 443.836 263.595 443.598 263.555 443.28L259.814 414.558C259.791 414.384 259.84 414.211 259.951 414.074C260.061 413.938 260.22 413.854 260.394 413.84L317.798 409.076C317.986 409.061 318.166 409.128 318.299 409.258C318.433 409.388 318.499 409.571 318.488 409.756L316.156 443.242C316.133 443.575 315.855 443.836 315.519 443.836ZM264.747 442.558H314.921L317.16 410.408L261.166 415.056L264.747 442.558Z" fill="#00005B"/>
<path d="M419.877 441.426C411.673 447.743 399.813 446.408 392.071 438.741V446.428L296.573 447.244V426.32C296.573 426.32 287.555 432.086 282.272 435.463C272.25 441.855 263.211 448.797 247.617 434.015C244.346 428.324 243.012 423.768 243.012 419.789C243.012 413.637 246.204 408.867 250.421 403.411L285.076 372.176C295.576 363.945 302.648 358.121 313.598 356.232L344.181 350.938L370.537 355.447C378.178 356.756 384.558 361.324 388.339 367.568L388.594 367.356L422.539 411.242C430.069 420.985 428.874 434.496 419.874 441.426H419.877Z" fill="white"/>
<path d="M296.572 447.882C296.404 447.882 296.242 447.815 296.123 447.696C296.001 447.577 295.934 447.412 295.934 447.244V427.484L281.311 436.833C271.614 443.068 262.454 448.956 247.178 434.475C247.134 434.432 247.094 434.382 247.065 434.33C243.907 428.839 242.373 424.081 242.373 419.786C242.373 413.307 245.789 408.357 249.915 403.02C249.938 402.991 249.965 402.962 249.994 402.936L284.649 371.701L285.91 370.71C295.723 363.009 302.816 357.443 313.49 355.601L344.073 350.307C344.146 350.295 344.218 350.295 344.291 350.307L370.647 354.816C378.047 356.084 384.545 360.408 388.567 366.719C388.602 366.719 388.634 366.719 388.669 366.722C388.84 366.742 388.996 366.829 389.104 366.965L423.048 410.851C426.789 415.691 428.563 421.581 428.047 427.443C427.528 433.322 424.765 438.469 420.27 441.93C412.336 448.041 400.735 447.233 392.714 440.207V446.428C392.714 446.778 392.433 447.062 392.082 447.065L296.584 447.882H296.578H296.572ZM296.572 425.679C296.677 425.679 296.784 425.706 296.88 425.758C297.086 425.871 297.21 426.085 297.21 426.317V446.599L391.429 445.793V438.738C391.429 438.481 391.586 438.249 391.824 438.15C392.061 438.052 392.337 438.104 392.52 438.287C400.097 445.791 411.69 446.923 419.487 440.919C423.698 437.678 426.284 432.853 426.771 427.333C427.261 421.793 425.577 416.218 422.033 411.633L388.437 368.196C388.37 368.208 388.3 368.208 388.231 368.196C388.048 368.164 387.889 368.057 387.793 367.898C383.994 361.622 377.664 357.312 370.429 356.076L344.181 351.584L313.704 356.861C303.346 358.648 296.361 364.127 286.696 371.715L285.469 372.677L250.893 403.845C246.926 408.98 243.652 413.727 243.652 419.789C243.652 423.835 245.116 428.358 248.126 433.618C262.634 447.331 270.97 441.97 280.621 435.764L296.23 425.784C296.335 425.717 296.453 425.682 296.575 425.682L296.572 425.679Z" fill="#00005B"/>
<path d="M265.359 443.216C258.452 443.216 251.626 440.157 247.111 434.403C239.598 424.822 240.865 410.999 249.993 402.933C261.236 393.002 276.138 379.74 283.294 372.955C289.143 367.411 300.841 357.784 313.486 355.598L344.067 350.309C344.415 350.249 344.746 350.483 344.807 350.828C344.868 351.175 344.633 351.506 344.288 351.566L313.707 356.855C301.392 358.983 289.917 368.437 284.176 373.881C277.005 380.679 262.091 393.952 250.84 403.889C242.216 411.508 241.022 424.564 248.117 433.615C255.109 442.529 267.975 444.591 277.411 438.31L296.221 425.787C296.514 425.59 296.911 425.671 297.106 425.963C297.303 426.256 297.222 426.653 296.929 426.847L278.118 439.37C274.224 441.965 269.776 443.213 265.359 443.213V443.216Z" fill="#00005B"/>
<path d="M296.575 447.244C296.222 447.244 295.938 446.958 295.938 446.607V426.317C295.938 425.963 296.225 425.679 296.575 425.679C296.926 425.679 297.213 425.966 297.213 426.317V445.967H368.191L391.432 445.174V396.671C391.432 396.318 391.719 396.034 392.07 396.034C392.421 396.034 392.708 396.321 392.708 396.671V445.79C392.708 446.135 392.436 446.416 392.091 446.428L368.211 447.244H296.573H296.575Z" fill="#00005B"/>
<path d="M296.575 426.954C296.375 426.954 296.178 426.861 296.053 426.684C295.85 426.398 295.917 425.998 296.204 425.795L324.305 405.872C324.592 405.667 324.992 405.736 325.195 406.023C325.398 406.31 325.332 406.709 325.045 406.912L296.943 426.835C296.83 426.913 296.702 426.954 296.575 426.954Z" fill="#00005B"/>
<path d="M328.226 324.313C326.577 335.351 331.442 343.753 342.337 344.798C351.72 345.699 360.556 338.363 362.203 327.328C363.853 316.291 357.63 306.221 348.307 304.834C338.985 303.446 329.874 313.279 328.226 324.316V324.313Z" fill="#E2CFFF"/>
<path d="M343.882 345.511C343.352 345.511 342.815 345.484 342.276 345.432C337.332 344.957 333.345 342.95 330.741 339.623C327.748 335.8 326.661 330.471 327.594 324.218C329.395 312.173 339.107 302.815 348.403 304.2C353.101 304.898 357.189 307.713 359.915 312.126C362.618 316.502 363.656 321.936 362.835 327.421C361.275 337.868 353.115 345.511 343.882 345.511ZM346.614 305.346C338.625 305.346 330.422 313.936 328.859 324.409C327.977 330.309 328.975 335.299 331.747 338.841C334.128 341.885 337.81 343.727 342.398 344.167C351.602 345.05 360.022 337.613 361.571 327.236C362.345 322.046 361.371 316.92 358.825 312.798C356.302 308.712 352.532 306.108 348.212 305.465C347.681 305.387 347.148 305.346 346.611 305.346H346.614Z" fill="#00005B"/>
<path d="M336.776 323.427C331.965 318.379 330.086 312.387 332.571 308.168C335.976 302.39 347.186 302.022 355.558 307.577C373.438 319.437 365.713 332.356 366.609 334.421C367.94 337.488 373.539 339.119 374.911 342.687C376.149 345.908 373.09 350.837 374.267 354.37C375.375 357.704 380.794 359.838 381.766 363.372C382.708 366.801 379.141 371.374 379.884 374.921C380.62 378.435 385.727 381.229 386.194 384.792C386.666 388.377 382.45 392.351 382.581 395.916C382.714 399.548 387.2 403.261 386.904 406.8C386.602 410.429 381.571 413.273 380.739 416.725H328.317C326.305 413.603 326.821 409.731 327.424 408.016C328.604 404.648 333.984 402.484 334.853 398.974C335.72 395.487 331.986 391.027 332.586 387.488C333.192 383.914 338.182 380.957 338.559 377.421C338.945 373.777 334.682 369.818 334.868 366.311C335.065 362.592 339.716 359.117 339.74 355.668C339.766 351.845 335.149 348.288 335.03 344.949C334.888 340.9 339.212 337.008 338.977 333.929C338.655 329.77 337.556 325.82 336.773 323.433L336.776 323.427Z" fill="#00005B"/>
<path d="M401.07 529.38L421.545 404.236H315.39L292.1 529.337L401.07 529.38Z" fill="#E2CFFF"/>
<path d="M401.584 529.748C401.552 529.748 401.517 529.748 401.482 529.739C401.134 529.684 400.896 529.357 400.951 529.009L420.148 408.911C420.148 408.911 420.148 408.888 420.154 408.879L420.794 404.879H315.922L301.464 482.54C301.464 482.54 301.461 482.563 301.458 482.575L292.785 529.145C292.721 529.493 292.382 529.719 292.039 529.655C291.692 529.591 291.462 529.258 291.529 528.911L300.196 482.369C300.196 482.369 300.199 482.346 300.202 482.335L314.762 404.123C314.817 403.822 315.084 403.602 315.391 403.602H421.543C421.731 403.602 421.908 403.683 422.03 403.825C422.152 403.967 422.204 404.155 422.175 404.341L421.418 409.053C421.418 409.053 421.418 409.076 421.412 409.085L402.213 529.209C402.164 529.522 401.891 529.748 401.584 529.748Z" fill="#00005B"/>
<path d="M412.432 459.933C411.48 460.526 410.564 461.163 409.688 461.853L402.581 456.17L393.461 467.576L400.574 473.258C399.142 476.276 398.185 479.534 397.77 482.948L395.526 483.293L388.488 484.376L390.341 498.466L394.349 498.02L399.386 497.458C400.543 500.693 402.198 503.659 404.257 506.286L398.568 513.399L403.091 517.016L403.468 517.323L403.616 516.411L405.156 506.761L405.284 505.959L412.513 460.726L412.666 459.788C412.591 459.831 412.507 459.883 412.432 459.935V459.933Z" fill="#E9B8FF"/>
<path d="M81.2669 157.215C119.288 157.215 150.11 126.517 150.11 88.6485C150.11 50.78 119.288 20.0815 81.2669 20.0815C43.2459 20.0815 12.4238 50.78 12.4238 88.6485C12.4238 126.517 43.2459 157.215 81.2669 157.215Z" fill="#00005B"/>
<path d="M76.0501 151.756C114.071 151.756 144.893 121.058 144.893 83.1895C144.893 45.321 114.071 14.6226 76.0501 14.6226C38.0291 14.6226 7.20703 45.321 7.20703 83.1895C7.20703 121.058 38.0291 151.756 76.0501 151.756Z" fill="#E9B8FF"/>
<path d="M76.0494 152.396C37.7378 152.396 6.56836 121.349 6.56836 83.1894C6.56836 45.0294 37.7378 13.9824 76.0494 13.9824C114.361 13.9824 145.53 45.0294 145.53 83.1894C145.53 121.349 114.361 152.396 76.0494 152.396ZM76.0494 15.2596C38.4425 15.2596 7.84715 45.7332 7.84715 83.1894C7.84715 120.646 38.4425 151.119 76.0494 151.119C113.656 151.119 144.252 120.646 144.252 83.1894C144.252 45.7332 113.656 15.2596 76.0494 15.2596Z" fill="#00005B"/>
<path d="M133.539 91.7737C133.51 91.7737 133.481 91.7737 133.452 91.7679C133.104 91.7187 132.858 91.3972 132.907 91.0497C133.264 88.4634 133.444 85.8192 133.444 83.1924C133.444 63.1914 122.723 44.3778 105.47 34.0993C105.168 33.9197 105.067 33.5259 105.249 33.2247C105.429 32.9235 105.821 32.8221 106.125 33.0046C123.764 43.5148 134.722 62.7454 134.722 83.1924C134.722 85.88 134.537 88.5821 134.171 91.2264C134.128 91.5449 133.855 91.7766 133.539 91.7766V91.7737Z" fill="#00005B"/>
<path d="M107.784 132.23C107.576 132.23 107.373 132.129 107.248 131.941C107.057 131.645 107.138 131.252 107.434 131.057C117.768 124.321 125.78 114.271 129.991 102.759C130.113 102.429 130.478 102.258 130.808 102.38C131.139 102.501 131.31 102.866 131.188 103.199C126.882 114.969 118.693 125.245 108.13 132.129C108.022 132.199 107.9 132.233 107.782 132.233L107.784 132.23Z" fill="#00005B"/>
<path d="M76.0495 141.629C54.3448 141.629 34.5047 129.774 24.2686 110.689C24.1033 110.379 24.2193 109.991 24.5296 109.826C24.8398 109.661 25.2284 109.776 25.3937 110.086C35.4065 128.755 54.8175 140.351 76.0495 140.351C84.2007 140.351 92.0736 138.686 99.4534 135.399C99.7753 135.254 100.152 135.399 100.297 135.72C100.442 136.042 100.297 136.418 99.9754 136.563C92.4302 139.923 84.3805 141.626 76.0495 141.626V141.629Z" fill="#00005B"/>
<path d="M19.7944 98.0759C19.5102 98.0759 19.2492 97.8848 19.1768 97.5952C17.985 92.9121 17.3789 88.0668 17.3789 83.1896C17.3789 67.5792 23.4829 52.9043 34.5629 41.867C34.8122 41.6179 35.2182 41.6179 35.4647 41.867C35.7141 42.1161 35.7141 42.5215 35.4647 42.7706C24.6254 53.5675 18.6548 67.921 18.6548 83.1896C18.6548 87.9596 19.2463 92.7006 20.4121 97.2795C20.499 97.6212 20.2932 97.9688 19.951 98.0557C19.8988 98.0702 19.8466 98.0759 19.7944 98.0759Z" fill="#00005B"/>
<path d="M43.6043 35.8979C43.3984 35.8979 43.1984 35.7994 43.0737 35.6169C42.8765 35.3244 42.9548 34.9276 43.2477 34.7307C52.9502 28.2027 64.2941 24.7505 76.0497 24.7505C81.2084 24.7505 86.3264 25.4195 91.2647 26.7344C91.6069 26.8241 91.807 27.1746 91.7171 27.5163C91.6272 27.8581 91.2734 28.0579 90.9342 27.9681C86.1061 26.6793 81.0982 26.0277 76.0497 26.0277C64.5493 26.0277 53.4519 29.4046 43.961 35.7907C43.8508 35.8631 43.729 35.9008 43.6043 35.9008V35.8979Z" fill="#00005B"/>
<path d="M53.4404 116.02V48.5449H77.7085C86.399 48.5449 93.0134 50.1349 97.5428 53.3178C102.075 56.5007 104.34 61.1201 104.34 67.1731C104.34 70.6659 103.537 73.6461 101.927 76.1165C100.318 78.5898 97.9516 80.4115 94.8286 81.5845C98.3547 82.5113 101.06 84.2432 102.948 86.7744C104.836 89.3086 105.778 92.3988 105.778 96.0422C105.778 102.654 103.682 107.621 99.4914 110.94C95.2984 114.262 89.09 115.953 80.8605 116.014H53.4375L53.4404 116.02ZM69.7254 76.6755H78.2159C81.7739 76.6436 84.3083 75.9949 85.8249 74.7235C87.3385 73.452 88.0983 71.5782 88.0983 69.0991C88.0983 66.2492 87.2776 64.1959 85.6393 62.9418C83.998 61.6878 81.3535 61.0593 77.7056 61.0593H69.7254V76.6755ZM69.7254 87.3334V103.506H80.3965C83.334 103.506 85.5929 102.834 87.1704 101.49C88.7478 100.146 89.5366 98.252 89.5366 95.8134C89.5366 90.1919 86.7354 87.3652 81.1389 87.3334H69.7254Z" fill="white"/>
<path d="M78.8652 123.423H85.7145V111.968C83.4265 111.873 81.1473 111.737 78.8652 111.583V123.423Z" fill="white"/>
<path d="M78.8652 41.0498V53.6453C81.1473 53.709 83.4294 53.7756 85.7145 53.7988V41.0498H78.8652Z" fill="white"/>
<path d="M63.7285 123.666H70.5777V110.987C68.3072 110.821 66.0251 110.668 63.7285 110.538V123.663V123.666Z" fill="white"/>
<path d="M63.7285 41.29V53.7117C66.0106 53.5553 68.2927 53.4974 70.5777 53.4945V41.29H63.7285Z" fill="white"/>
</g>
<defs>
<linearGradient id="paint0_linear_697_7903" x1="388.488" y1="486.788" x2="469.647" y2="486.788" gradientUnits="userSpaceOnUse">
<stop stop-color="#B100FF"/>
<stop offset="1" stop-color="#5800FF"/>
</linearGradient>
<clipPath id="clip0_697_7903">
<rect width="530" height="530" fill="white"/>
</clipPath>
</defs>
</svg>
