<svg width="20" height="15" viewBox="0 0 20 15" fill="none" xmlns="http://www.w3.org/2000/svg">
<path d="M0 0.898438V13.2031C0 14.1724 0.788555 14.9609 1.75781 14.9609H18.2422C19.2114 14.9609 20 14.1724 20 13.2031V0.898438H0ZM6.85039 9.22996C7.10312 9.43211 7.14406 9.80082 6.94191 10.0535C6.7398 10.3062 6.37102 10.3472 6.11836 10.145L3.18867 7.80125C2.89574 7.56699 2.89555 7.12063 3.18867 6.88617L6.11836 4.54242C6.37094 4.34027 6.73973 4.38121 6.94191 4.63391C7.14406 4.8866 7.10312 5.25535 6.85039 5.45746L4.49266 7.34375L6.85039 9.22996ZM12.2964 3.47301L8.78074 11.6761C8.65328 11.9735 8.30891 12.1114 8.01137 11.9839C7.71395 11.8564 7.57613 11.5119 7.70363 11.2145L11.2193 3.01137C11.3468 2.71395 11.6912 2.57617 11.9886 2.70363C12.2861 2.83109 12.4239 3.17555 12.2964 3.47301ZM16.8113 7.80129L13.8816 10.145C13.6294 10.3469 13.2605 10.3066 13.0581 10.0536C12.8559 9.80086 12.8969 9.43211 13.1496 9.23L15.5073 7.34375L13.1496 5.45754C12.8969 5.25539 12.8559 4.88668 13.0581 4.63398C13.2602 4.38129 13.6289 4.34031 13.8816 4.5425L16.8113 6.88625C17.1043 7.12051 17.1045 7.56684 16.8113 7.80129Z" fill="white"/>
</svg>
