<svg width="614" height="574" viewBox="0 0 614 574" fill="none" xmlns="http://www.w3.org/2000/svg">
<path d="M402.413 484.224H408.752V406.643H402.413V484.224Z" fill="white" stroke="black" stroke-width="0.5" stroke-linecap="round" stroke-linejoin="round"/>
<path d="M405.566 481.943C410.999 481.943 415.41 486.354 415.41 491.789H395.705C395.705 486.354 400.116 481.943 405.549 481.943H405.566Z" fill="white" stroke="black" stroke-width="0.5" stroke-linecap="round" stroke-linejoin="round"/>
<path d="M405.281 491.756H450.459V505.225H445.562V495.966H405.281V491.756Z" fill="white" stroke="black" stroke-width="0.5" stroke-linecap="round" stroke-linejoin="round"/>
<path d="M447.96 511.214C451.035 511.214 453.528 508.72 453.528 505.645C453.528 502.569 451.035 500.076 447.96 500.076C444.885 500.076 442.393 502.569 442.393 505.645C442.393 508.72 444.885 511.214 447.96 511.214Z" fill="white" stroke="black" stroke-width="0.5" stroke-linecap="round" stroke-linejoin="round"/>
<path d="M447.96 508.211C449.377 508.211 450.526 507.062 450.526 505.645C450.526 504.227 449.377 503.078 447.96 503.078C446.543 503.078 445.395 504.227 445.395 505.645C445.395 507.062 446.543 508.211 447.96 508.211Z" fill="#AB40F9" fill-opacity="0.3"/>
<path d="M405.281 491.756H360.103V505.225H365.016V495.966H405.281V491.756Z" fill="white" stroke="black" stroke-width="0.5" stroke-linecap="round" stroke-linejoin="round"/>
<path d="M362.618 511.214C365.693 511.214 368.186 508.72 368.186 505.645C368.186 502.569 365.693 500.076 362.618 500.076C359.543 500.076 357.05 502.569 357.05 505.645C357.05 508.72 359.543 511.214 362.618 511.214Z" fill="white" stroke="black" stroke-width="0.5" stroke-linecap="round" stroke-linejoin="round"/>
<path d="M362.618 508.211C364.035 508.211 365.184 507.062 365.184 505.645C365.184 504.227 364.035 503.078 362.618 503.078C361.201 503.078 360.052 504.227 360.052 505.645C360.052 507.062 361.201 508.211 362.618 508.211Z" fill="#AB40F9" fill-opacity="0.3"/>
<path d="M313.599 375.375C314.404 385.239 322.538 394.985 327.434 398.91C335.467 405.334 365.167 407.381 381.048 407.951C382.591 408.018 384 408.052 385.257 408.085C399.361 408.438 463.892 415.483 461.058 373.178C458.24 330.856 466.34 326.277 475.866 289.239C485.391 252.218 507.242 226.101 441.672 217.647C417.556 214.543 402.832 220.733 393.86 229.791C378.432 245.375 379.975 269.496 379.975 269.496C379.975 287.646 370.198 321.379 351.147 341.173C345.395 347.161 338.771 351.875 331.325 354.491C317.037 359.524 312.962 367.491 313.616 375.392L313.599 375.375Z" fill="white" stroke="#0B1466" stroke-width="0.5" stroke-linecap="round" stroke-linejoin="round"/>
<path d="M313.599 375.375C314.404 385.239 322.538 394.985 327.434 398.91C335.467 405.334 365.083 406.978 380.964 407.549C383.161 407.549 384.922 407.582 386.498 407.414C400.535 405.938 465.351 404.143 457.57 365.747C449.772 327.351 457.268 322.117 462.349 286.975C467.43 251.849 486.028 225.145 419.988 225.782C409.44 225.883 400.853 227.359 393.86 229.791C357.168 242.523 364.915 281.154 364.915 281.154C366.76 295.429 362.802 321.161 351.147 341.173C345.143 351.506 337.06 360.312 326.68 365.227C320.056 368.364 315.913 371.836 313.599 375.392V375.375Z" fill="#AB40F9" fill-opacity="0.3"/>
<path d="M309.708 454.164L335.601 521.278L365.636 516.38L340.448 445.324L309.708 454.164Z" fill="white" stroke="#0B1466" stroke-width="0.5" stroke-linecap="round" stroke-linejoin="round"/>
<path d="M364.983 512.791L335.434 514.887C335.434 514.887 301.374 520.49 303.94 538.069L366.458 533.624C366.458 533.624 371.774 530.068 369.292 524.935C366.811 519.802 364.983 512.774 364.983 512.774V512.791Z" fill="#3B0098"/>
<path d="M341.756 518.024L333.74 502.29C333.74 502.29 325.942 506.299 329.564 512.656C333.203 519.031 334.629 520.524 334.629 520.524L341.739 518.024H341.756Z" fill="#3B0098"/>
<path d="M317.825 516.951L324.181 524.315" stroke="white" stroke-width="0.5" stroke-linecap="round" stroke-linejoin="round"/>
<path d="M320.861 515.575L327.217 522.939" stroke="white" stroke-width="0.5" stroke-linecap="round" stroke-linejoin="round"/>
<path d="M323.628 513.478L329.984 520.859" stroke="white" stroke-width="0.5" stroke-linecap="round" stroke-linejoin="round"/>
<path d="M358.912 333.49C358.912 333.49 304.258 348.838 297.919 364.707C291.58 380.575 315.897 487.092 315.897 487.092L354.686 475.451L336.356 377.053L411.452 333.49H358.912Z" fill="white" stroke="#0B1466" stroke-width="0.5" stroke-linecap="round" stroke-linejoin="round"/>
<path d="M296.862 443.982L259.08 505.46L280.545 527.049L320.357 462.619L296.862 443.982Z" fill="white" stroke="#0B1466" stroke-width="0.5" stroke-linecap="round" stroke-linejoin="round"/>
<path d="M283.061 524.432L264.161 501.619C264.161 501.619 239.777 477.162 226.982 489.491L266.962 537.767C266.962 537.767 272.948 540.015 275.665 535.016C278.382 530.018 283.044 524.432 283.044 524.432H283.061Z" fill="#3B0098"/>
<path d="M265.301 508.58L273.435 492.913C273.435 492.913 265.637 488.887 262.568 495.563C259.499 502.223 259.13 504.252 259.13 504.252L265.301 508.58Z" fill="#3B0098"/>
<path d="M252.255 488.485L249.957 497.945" stroke="white" stroke-width="0.5" stroke-linecap="round" stroke-linejoin="round"/>
<path d="M255.139 490.145L252.841 499.606" stroke="white" stroke-width="0.5" stroke-linecap="round" stroke-linejoin="round"/>
<path d="M258.442 491.185L256.162 500.646" stroke="white" stroke-width="0.5" stroke-linecap="round" stroke-linejoin="round"/>
<path d="M452.002 333.49C452.002 333.49 467.866 393.794 423.979 396.964C380.092 400.134 367.917 396.964 367.917 396.964L317.138 478.957L284.872 453.04C284.872 453.04 322.42 377.388 326.126 362.577C329.832 347.765 354.837 337.717 369.829 333.473H452.002V333.49Z" fill="white" stroke="#0B1466" stroke-width="0.5" stroke-linecap="round" stroke-linejoin="round"/>
<path d="M123.478 339.294L562.449 339.294V333.473L123.478 333.473V339.294Z" fill="#0B1466"/>
<path d="M374.206 234.035C374.206 234.035 395.823 248.058 436.138 234.354C436.138 234.354 431.442 224.239 431.543 191.982C431.66 159.104 418.177 152.646 403.101 151.153C388.025 149.644 374.206 154.575 370.902 185.675C368.303 210.132 374.206 234.052 374.206 234.052V234.035Z" fill="#0B1466"/>
<path d="M403.872 225.027C403.872 225.027 452.522 224.491 456.765 255.708C460.991 286.924 458.878 323.945 452.002 333.473H358.929L354.703 249.367C354.703 249.367 355.239 225.027 403.889 225.027H403.872Z" fill="#00005B" stroke="white" stroke-width="0.5" stroke-miterlimit="10"/>
<path d="M359.951 238.346C359.951 238.346 346.217 249.585 338.402 287.361C330.587 325.12 330.52 329.649 330.52 329.649L358.744 329.816L379.203 262.736" fill="#00005B"/>
<path d="M359.951 238.346C359.951 238.346 346.217 249.585 338.402 287.361C330.587 325.12 330.52 329.649 330.52 329.649L358.744 329.816L379.203 262.736" stroke="white" stroke-width="0.5" stroke-miterlimit="10"/>
<path d="M363.473 317.169C363.473 317.169 362.752 323.342 362.148 324.818C362.148 324.818 370.466 324.314 369.645 327.938C368.823 331.578 348.867 327.904 345.949 326.763C343.735 325.891 343.685 314.25 344.439 310.073L332.331 324.902C332.331 324.902 327.25 326.176 328.977 321.714C330.705 317.252 341.052 301.552 341.052 301.552C341.052 301.552 345.781 295.312 356.614 298.18C367.464 301.048 374.994 301.988 374.994 301.988C374.994 301.988 389.92 318.594 363.473 317.169Z" fill="white" stroke="#0B1466" stroke-width="0.5" stroke-linecap="round" stroke-linejoin="round"/>
<path d="M356.48 314.25C356.48 314.25 353.109 327.082 357.922 328.441" stroke="#0B1466" stroke-width="0.5" stroke-linecap="round" stroke-linejoin="round"/>
<path d="M350.091 311.197C350.091 311.197 346.804 326.344 351.617 327.703" stroke="#0B1466" stroke-width="0.5" stroke-linecap="round" stroke-linejoin="round"/>
<path d="M451.985 333.322L365.637 322.905L369.963 298.566L429.363 304.655C429.363 304.655 424.785 281.121 428.742 266.04" fill="#00005B"/>
<path d="M451.985 333.322L365.637 322.905L369.963 298.566L429.363 304.655C429.363 304.655 424.785 281.121 428.742 266.04" stroke="white" stroke-width="0.5" stroke-miterlimit="10"/>
<path d="M385.694 217.294V226.101C385.694 234.723 392.687 241.718 401.306 241.718C409.926 241.718 416.919 234.723 416.919 226.101V202.567C416.919 202.567 425.992 201.661 425.992 194.364C425.992 185.557 421.33 186.631 421.33 186.631V174.067H379.254V205.787C379.254 213.252 385.291 219.29 392.754 219.29H399.21" fill="white"/>
<path d="M385.694 217.294V226.101C385.694 234.723 392.687 241.718 401.306 241.718C409.926 241.718 416.919 234.723 416.919 226.101V202.567C416.919 202.567 425.992 201.661 425.992 194.364C425.992 185.557 421.33 186.631 421.33 186.631V174.067H379.254V205.787C379.254 213.252 385.291 219.29 392.754 219.29H399.21" stroke="#0B1466" stroke-width="0.5" stroke-linecap="round" stroke-linejoin="round"/>
<path d="M391.747 195.169C391.982 197.182 391.563 199.245 390.59 201.023C389.936 202.214 388.997 203.405 389.115 204.747C389.249 206.307 391.043 207.481 392.536 206.978" fill="white"/>
<path d="M391.747 195.169C391.982 197.182 391.563 199.245 390.59 201.023C389.936 202.214 388.997 203.405 389.115 204.747C389.249 206.307 391.043 207.481 392.536 206.978" stroke="#0B1466" stroke-width="0.5" stroke-linecap="round" stroke-linejoin="round"/>
<path d="M398.355 194.431C398.355 196.293 399.277 197.803 400.401 197.803C401.525 197.803 402.447 196.293 402.447 194.431C402.447 192.569 401.525 191.059 400.401 191.059C399.277 191.059 398.355 192.569 398.355 194.431Z" fill="#0B1466"/>
<path d="M383.714 194.431C383.714 196.293 384.637 197.803 385.76 197.803C386.884 197.803 387.806 196.293 387.806 194.431C387.806 192.569 386.884 191.059 385.76 191.059C384.637 191.059 383.714 192.569 383.714 194.431Z" fill="#0B1466"/>
<path d="M397.701 209.964C395.689 211.742 392.67 212.312 390.138 211.39L397.701 209.964Z" fill="white"/>
<path d="M397.701 209.964C395.689 211.742 392.67 212.312 390.138 211.39" stroke="#0B1466" stroke-width="0.5" stroke-linecap="round" stroke-linejoin="round"/>
<path d="M421.984 191.965C421.866 192.77 421.984 193.592 421.984 194.414C421.984 195.236 421.833 196.108 421.279 196.712C420.743 197.316 419.921 197.568 419.149 197.752" stroke="#0B1466" stroke-width="0.5" stroke-linecap="round" stroke-linejoin="round"/>
<path d="M386.7 170.628C386.7 170.628 388.813 183.326 413.917 184.534C413.917 184.534 413.146 196.377 416.316 195.857C420.676 195.152 421.984 184.702 421.984 184.702C421.984 184.702 425.807 174.822 420.558 167.592C415.309 160.362 389.115 155.263 386.7 170.611V170.628Z" fill="#0B1466"/>
<path d="M389.668 171.752C389.668 171.752 388.477 180.156 374.458 183.595C374.458 183.595 370.953 162.493 389.668 171.752Z" fill="#0B1466"/>
<path d="M389.517 186.027C389.836 186.077 390.171 186.144 390.423 186.363C390.658 186.581 390.758 187 390.54 187.235C390.389 187.403 390.138 187.436 389.92 187.47L382.155 188.493C381.736 188.543 381.233 188.56 380.998 188.208C380.83 187.939 380.931 187.554 381.149 187.319C381.367 187.084 381.686 186.966 381.987 186.866C382.994 186.514 384.05 186.262 385.107 186.111C385.979 185.993 386.834 185.977 387.706 185.926C388.31 185.893 388.93 185.926 389.534 186.01L389.517 186.027Z" fill="#0B1466"/>
<path d="M396.963 186.027C396.644 186.077 396.309 186.144 396.057 186.363C395.823 186.581 395.722 187 395.94 187.235C396.091 187.403 396.342 187.436 396.56 187.47L404.325 188.493C404.744 188.543 405.247 188.56 405.482 188.208C405.65 187.939 405.549 187.554 405.331 187.319C405.113 187.084 404.795 186.966 404.493 186.866C403.486 186.514 402.43 186.262 401.373 186.111C400.501 185.993 399.646 185.977 398.774 185.926C398.17 185.893 397.55 185.926 396.946 186.01L396.963 186.027Z" fill="#0B1466"/>
<path d="M349.285 333.524L311.352 257.838C311.033 257.184 310.362 256.781 309.641 256.781H231.895C230.487 256.781 229.564 258.24 230.168 259.515L265.989 333.524H349.269H349.285Z" fill="white" stroke="#0B1466" stroke-width="0.5" stroke-linecap="round" stroke-linejoin="round"/>
<path d="M346.099 333.524L309.423 259.935C309.104 259.314 308.467 258.911 307.763 258.911H232.583C231.224 258.911 230.319 260.337 230.923 261.562L265.569 333.524H346.116H346.099Z" fill="white" stroke="#0B1466" stroke-width="0.5" stroke-linecap="round" stroke-linejoin="round"/>
<path d="M347.374 329.699H393.726V333.524H349.285L347.374 329.699Z" fill="white" stroke="#0B1466" stroke-width="0.5" stroke-linecap="round" stroke-linejoin="round"/>
<path d="M342.963 329.649L265.167 329.699L263.054 325.673L340.146 325.019L342.963 329.649Z" fill="#AB40F9" fill-opacity="0.3"/>
<path d="M283.648 290.732C283.648 288.334 282.256 286.27 280.26 285.264C283.53 284.14 287.471 286.975 289.048 291.588C290.624 296.201 289.249 300.847 285.979 301.971C282.994 302.994 279.472 300.73 277.678 296.838C280.998 296.771 283.665 294.07 283.665 290.732H283.648Z" fill="#AB40F9" fill-opacity="0.3"/>
<path d="M218.798 333.49H235.199L236.776 304.856H217.205L218.798 333.49Z" fill="white" stroke="#0B1466" stroke-width="0.5" stroke-linecap="round" stroke-linejoin="round"/>
<path d="M215.109 304.856H238.906V301.216H215.109V304.856Z" fill="white" stroke="#0B1466" stroke-width="0.5" stroke-linecap="round" stroke-linejoin="round"/>
<path d="M216.803 301.216H237.212V298.734H216.803V301.216Z" fill="white" stroke="#0B1466" stroke-width="0.5" stroke-linecap="round" stroke-linejoin="round"/>
<path d="M222.639 316.061C222.639 318.477 224.584 320.423 226.999 320.423C229.414 320.423 231.359 318.477 231.359 316.061C231.359 313.646 229.414 311.7 226.999 311.7C224.584 311.7 222.639 313.646 222.639 316.061Z" fill="#AB40F9" fill-opacity="0.3"/>
<path d="M351.13 44.8545L294.716 34.6222L340.196 50.8597L351.13 44.8545Z" fill="white" stroke="#0B1466" stroke-width="0.5" stroke-linecap="round" stroke-linejoin="round"/>
<path d="M294.716 34.6222L333.589 56.2275L320.106 68.9256L294.716 34.6222Z" fill="white" stroke="#0B1466" stroke-width="0.5" stroke-linecap="round" stroke-linejoin="round"/>
<path d="M340.196 50.8597L336.49 68.9256L333.589 56.2275L294.716 34.6222L340.196 50.8597Z" fill="white" stroke="#0B1466" stroke-width="0.5" stroke-linecap="round" stroke-linejoin="round"/>
<path d="M336.49 68.9256L327.551 61.914L333.588 56.2275L336.49 68.9256Z" fill="white" stroke="#0B1466" stroke-width="0.5" stroke-linecap="round" stroke-linejoin="round"/>
<path d="M340.045 72.0624C340.699 72.9682 341.353 73.8908 341.974 74.8134" stroke="#0B1466" stroke-width="0.5" stroke-linecap="round" stroke-linejoin="round"/>
<path d="M345.579 80.4831C362.098 108.446 366.022 143.672 356.698 174.688C354.501 182.001 351.482 189.281 346.216 194.8C337.06 204.395 322.722 207.045 309.473 206.458C284.603 205.368 261.578 194.968 237.949 188.224C220.223 183.175 197.047 178.881 181.887 191.646" stroke="#0B1466" stroke-width="0.5" stroke-linecap="round" stroke-linejoin="round"/>
<path d="M179.422 193.961C178.651 194.75 177.913 195.588 177.208 196.494" stroke="#0B1466" stroke-width="0.5" stroke-linecap="round" stroke-linejoin="round"/>
<path d="M230.487 62.9036C230.487 64.6482 231.896 66.0572 233.64 66.0572C235.384 66.0572 236.793 64.6482 236.793 62.9036C236.793 61.1591 235.384 59.7501 233.64 59.7501C231.896 59.7501 230.487 61.1591 230.487 62.9036Z" fill="#AB40F9" fill-opacity="0.3"/>
<path d="M219.939 62.9036C219.939 64.6482 221.348 66.0572 223.092 66.0572C224.836 66.0572 226.245 64.6482 226.245 62.9036C226.245 61.1591 224.836 59.7501 223.092 59.7501C221.348 59.7501 219.939 61.1591 219.939 62.9036Z" fill="#AB40F9" fill-opacity="0.3"/>
<path d="M209.391 62.9036C209.391 64.6482 210.799 66.0572 212.543 66.0572C214.287 66.0572 215.696 64.6482 215.696 62.9036C215.696 61.1591 214.287 59.7501 212.543 59.7501C210.799 59.7501 209.391 61.1591 209.391 62.9036Z" fill="#AB40F9" fill-opacity="0.3"/>
<path d="M198.842 62.9036C198.842 64.6482 200.251 66.0572 201.995 66.0572C203.739 66.0572 205.148 64.6482 205.148 62.9036C205.148 61.1591 203.739 59.7501 201.995 59.7501C200.251 59.7501 198.842 61.1591 198.842 62.9036Z" fill="#AB40F9" fill-opacity="0.3"/>
<path d="M188.311 62.9036C188.311 64.6482 189.719 66.0572 191.463 66.0572C193.207 66.0572 194.616 64.6482 194.616 62.9036C194.616 61.1591 193.207 59.7501 191.463 59.7501C189.719 59.7501 188.311 61.1591 188.311 62.9036Z" fill="#AB40F9" fill-opacity="0.3"/>
<path d="M219.939 73.2534C219.939 74.9979 221.348 76.407 223.092 76.407C224.836 76.407 226.245 74.9979 226.245 73.2534C226.245 71.5089 224.836 70.0998 223.092 70.0998C221.348 70.0998 219.939 71.5089 219.939 73.2534Z" fill="#AB40F9" fill-opacity="0.3"/>
<path d="M209.391 73.2534C209.391 74.9979 210.799 76.407 212.543 76.407C214.287 76.407 215.696 74.9979 215.696 73.2534C215.696 71.5089 214.287 70.0998 212.543 70.0998C210.799 70.0998 209.391 71.5089 209.391 73.2534Z" fill="#AB40F9" fill-opacity="0.3"/>
<path d="M198.842 73.2534C198.842 74.9979 200.251 76.407 201.995 76.407C203.739 76.407 205.148 74.9979 205.148 73.2534C205.148 71.5089 203.739 70.0998 201.995 70.0998C200.251 70.0998 198.842 71.5089 198.842 73.2534Z" fill="#AB40F9" fill-opacity="0.3"/>
<path d="M188.311 73.2534C188.311 74.9979 189.719 76.407 191.463 76.407C193.207 76.407 194.616 74.9979 194.616 73.2534C194.616 71.5089 193.207 70.0998 191.463 70.0998C189.719 70.0998 188.311 71.5089 188.311 73.2534Z" fill="#AB40F9" fill-opacity="0.3"/>
<path d="M177.762 73.2534C177.762 74.9979 179.171 76.407 180.915 76.407C182.659 76.407 184.068 74.9979 184.068 73.2534C184.068 71.5089 182.659 70.0998 180.915 70.0998C179.171 70.0998 177.762 71.5089 177.762 73.2534Z" fill="#AB40F9" fill-opacity="0.3"/>
<path d="M252.976 53.0739C252.976 54.8184 254.385 56.2275 256.129 56.2275C257.873 56.2275 259.282 54.8184 259.282 53.0739C259.282 51.3294 257.873 49.9203 256.129 49.9203C254.385 49.9203 252.976 51.3294 252.976 53.0739Z" fill="#AB40F9" fill-opacity="0.3"/>
<path d="M242.428 53.0739C242.428 54.8184 243.836 56.2275 245.581 56.2275C247.325 56.2275 248.733 54.8184 248.733 53.0739C248.733 51.3294 247.325 49.9203 245.581 49.9203C243.836 49.9203 242.428 51.3294 242.428 53.0739Z" fill="#AB40F9" fill-opacity="0.3"/>
<path d="M231.896 53.0739C231.896 54.8184 233.305 56.2275 235.049 56.2275C236.793 56.2275 238.202 54.8184 238.202 53.0739C238.202 51.3294 236.793 49.9203 235.049 49.9203C233.305 49.9203 231.896 51.3294 231.896 53.0739Z" fill="#AB40F9" fill-opacity="0.3"/>
<path d="M221.348 53.0739C221.348 54.8184 222.756 56.2275 224.5 56.2275C226.244 56.2275 227.653 54.8184 227.653 53.0739C227.653 51.3294 226.244 49.9203 224.5 49.9203C222.756 49.9203 221.348 51.3294 221.348 53.0739Z" fill="#AB40F9" fill-opacity="0.3"/>
<path d="M210.799 53.0739C210.799 54.8184 212.208 56.2275 213.952 56.2275C215.696 56.2275 217.105 54.8184 217.105 53.0739C217.105 51.3294 215.696 49.9203 213.952 49.9203C212.208 49.9203 210.799 51.3294 210.799 53.0739Z" fill="#AB40F9" fill-opacity="0.3"/>
<path d="M272.378 239.353L251.466 232.962L257.436 228.701L249.085 220.196L253.613 215.734L261.981 224.239L266.358 218.485L272.378 239.353Z" fill="#AB40F9" fill-opacity="0.3"/>
<path d="M272.865 236.333L251.953 229.959L257.923 225.681L249.571 217.177L254.099 212.715L262.467 221.22L266.844 215.483L272.865 236.333Z" stroke="#0B1466" stroke-width="0.5" stroke-linecap="round" stroke-linejoin="round"/>
<path d="M566.088 286.891L566.138 287.243C567.178 293.752 560.789 298.969 554.617 296.603L554.282 296.486C548.111 294.137 546.819 285.985 551.934 281.825L552.203 281.607C557.317 277.447 565.032 280.383 566.071 286.891H566.088Z" stroke="#0B1466" stroke-width="0.5" stroke-linecap="round" stroke-linejoin="round"/>
<path d="M149.27 73.2366L149.723 73.5386C153.412 75.9541 153.093 81.4393 149.169 83.4354L148.683 83.687C144.759 85.6664 140.147 82.6638 140.399 78.2689L140.432 77.7154C140.684 73.3205 145.58 70.8379 149.27 73.2534V73.2366Z" stroke="#0B1466" stroke-width="0.5" stroke-linecap="round" stroke-linejoin="round"/>
<path d="M409.279 121.464L421.798 114.235L414.57 101.712L402.051 108.942L409.279 121.464Z" stroke="#0B1466" stroke-width="0.5" stroke-linecap="round" stroke-linejoin="round"/>
<path d="M197.232 256.882C197.232 260.354 200.049 263.189 203.537 263.189C207.026 263.189 209.843 260.371 209.843 256.882C209.843 253.393 207.026 250.575 203.537 250.575C200.049 250.575 197.232 253.393 197.232 256.882Z" stroke="#0B1466" stroke-width="0.5" stroke-linecap="round" stroke-linejoin="round"/>
<path d="M518.914 213.973C518.696 213.218 518.394 212.48 518.009 211.776L519.887 209.478C520.407 208.84 520.357 207.918 519.786 207.347L518.445 206.005C517.875 205.435 516.952 205.385 516.315 205.905L514.017 207.767C513.33 207.381 512.592 207.079 511.821 206.861L511.519 203.908C511.435 203.103 510.747 202.483 509.942 202.483H508.047C507.226 202.483 506.555 203.103 506.471 203.908L506.169 206.844C505.414 207.062 504.677 207.364 503.972 207.75L501.675 205.871C501.037 205.351 500.115 205.401 499.545 205.972L498.203 207.314C497.633 207.884 497.583 208.807 498.103 209.444L499.964 211.742C499.578 212.43 499.277 213.168 499.059 213.94L496.107 214.241C495.302 214.325 494.682 215.013 494.682 215.818V217.714C494.682 218.536 495.302 219.207 496.107 219.291L499.042 219.592C499.26 220.347 499.562 221.085 499.947 221.79L498.069 224.088C497.549 224.725 497.6 225.648 498.17 226.218L499.511 227.56C500.082 228.131 501.004 228.181 501.641 227.661L503.939 225.799C504.626 226.185 505.364 226.487 506.136 226.705L506.437 229.657C506.521 230.462 507.209 231.083 508.014 231.083H509.909C510.731 231.083 511.401 230.462 511.485 229.657L511.787 226.722C512.542 226.503 513.28 226.202 513.984 225.816L516.281 227.694C516.919 228.214 517.841 228.164 518.411 227.594L519.753 226.252C520.323 225.682 520.373 224.759 519.853 224.122L517.992 221.823C518.378 221.136 518.68 220.398 518.898 219.626L521.849 219.324C522.654 219.24 523.274 218.552 523.274 217.747V215.852C523.274 215.03 522.654 214.359 521.849 214.275L518.914 213.973Z" stroke="#0B1466" stroke-width="0.5" stroke-linecap="round" stroke-linejoin="round"/>
<path d="M504.19 216.808C504.19 214.174 506.32 212.044 508.97 212.044C511.62 212.044 513.733 214.174 513.733 216.808C513.733 219.441 511.603 221.589 508.97 221.589C506.337 221.589 504.19 219.458 504.19 216.808Z" stroke="#0B1466" stroke-width="0.5" stroke-linecap="round" stroke-linejoin="round"/>
<path d="M311.668 182.37L225.719 168.445C218.269 167.239 213.189 160.213 214.398 152.745L222.469 102.904C223.675 95.4528 230.699 90.3712 238.165 91.5808L324.115 105.505C331.564 106.712 336.644 113.737 335.435 121.205L327.365 171.047C326.158 178.498 319.134 183.579 311.668 182.37Z" fill="#AB40F9" fill-opacity="0.3"/>
<path d="M221.252 93.1628L210.884 157.195C210.311 160.734 212.714 164.067 216.253 164.641L316.389 180.863C319.928 181.437 323.261 179.032 323.834 175.493L334.202 111.461C334.775 107.922 332.371 104.589 328.833 104.015L228.696 87.7926C225.158 87.2194 221.825 89.6237 221.252 93.1628Z" stroke="#0B1466" stroke-width="0.5" stroke-linecap="round" stroke-linejoin="round"/>
<path d="M333.187 117.789L220.241 99.4716" stroke="#0B1466" stroke-width="0.5" stroke-linecap="round" stroke-linejoin="round"/>
<path d="M324.986 110.442C324.785 111.734 325.657 112.958 326.948 113.159C328.24 113.361 329.464 112.489 329.665 111.197C329.866 109.905 328.994 108.681 327.703 108.479C326.412 108.278 325.188 109.15 324.986 110.442Z" fill="white" stroke="#0B1466" stroke-width="0.5" stroke-linecap="round" stroke-linejoin="round"/>
<path d="M318.211 109.352C318.01 110.643 318.882 111.868 320.173 112.069C321.464 112.27 322.689 111.398 322.89 110.107C323.091 108.815 322.219 107.59 320.928 107.389C319.636 107.188 318.412 108.06 318.211 109.352Z" fill="white" stroke="#0B1466" stroke-width="0.5" stroke-linecap="round" stroke-linejoin="round"/>
<path d="M311.436 108.245C311.235 109.536 312.107 110.761 313.398 110.962C314.689 111.163 315.914 110.291 316.115 108.999C316.316 107.708 315.444 106.483 314.153 106.282C312.862 106.081 311.637 106.953 311.436 108.245Z" fill="white" stroke="#0B1466" stroke-width="0.5" stroke-linecap="round" stroke-linejoin="round"/>
<path d="M306.892 134.669L307.479 131.043L294.007 122.305L293.332 126.478L302.618 132.074L302.519 131.836L302.435 132.351L302.604 132.156L292.027 134.534L291.352 138.707L306.892 134.669ZM281.342 114.66L284.051 141.024L287.832 141.636L285.123 115.273L281.342 114.66ZM261.363 127.293L274.834 136.031L275.51 131.859L266.224 126.262L266.323 126.5L266.406 125.985L266.237 126.18L276.814 123.802L277.49 119.629L261.95 123.667L261.363 127.293Z" fill="white"/>
<path d="M306.892 134.669L307.139 134.709C307.123 134.807 307.051 134.886 306.955 134.911L306.892 134.669ZM307.479 131.043L307.615 130.833C307.698 130.887 307.742 130.985 307.726 131.083L307.479 131.043ZM294.007 122.305L293.761 122.265C293.774 122.182 293.829 122.111 293.906 122.077C293.983 122.042 294.073 122.05 294.143 122.096L294.007 122.305ZM293.332 126.478L293.203 126.692C293.115 126.639 293.069 126.539 293.085 126.438L293.332 126.478ZM302.618 132.074L302.849 131.978C302.89 132.078 302.863 132.193 302.781 132.263C302.699 132.334 302.581 132.344 302.489 132.288L302.618 132.074ZM302.519 131.836L302.272 131.796C302.29 131.686 302.379 131.601 302.49 131.588C302.601 131.575 302.707 131.637 302.75 131.74L302.519 131.836ZM302.435 132.351L302.624 132.515C302.551 132.599 302.431 132.625 302.33 132.577C302.228 132.53 302.171 132.421 302.189 132.311L302.435 132.351ZM302.604 132.156L302.55 131.912C302.655 131.889 302.764 131.935 302.819 132.028C302.874 132.121 302.864 132.239 302.793 132.32L302.604 132.156ZM292.027 134.534L291.78 134.494C291.797 134.394 291.873 134.313 291.972 134.291L292.027 134.534ZM291.352 138.707L291.414 138.949C291.333 138.97 291.246 138.949 291.183 138.892C291.121 138.835 291.091 138.75 291.105 138.667L291.352 138.707ZM306.645 134.629L307.232 131.003L307.726 131.083L307.139 134.709L306.645 134.629ZM307.343 131.253L293.871 122.515L294.143 122.096L307.615 130.833L307.343 131.253ZM294.254 122.345L293.579 126.518L293.085 126.438L293.761 122.265L294.254 122.345ZM293.461 126.264L302.747 131.86L302.489 132.288L293.203 126.692L293.461 126.264ZM302.387 132.17L302.288 131.932L302.75 131.74L302.849 131.978L302.387 132.17ZM302.766 131.876L302.682 132.391L302.189 132.311L302.272 131.796L302.766 131.876ZM302.247 132.187L302.416 131.992L302.793 132.32L302.624 132.515L302.247 132.187ZM302.659 132.4L292.082 134.778L291.972 134.291L302.55 131.912L302.659 132.4ZM292.274 134.574L291.598 138.747L291.105 138.667L291.78 134.494L292.274 134.574ZM291.289 138.465L306.829 134.427L306.955 134.911L291.414 138.949L291.289 138.465ZM281.342 114.66L281.093 114.686C281.086 114.609 281.114 114.532 281.171 114.479C281.227 114.425 281.305 114.401 281.382 114.414L281.342 114.66ZM284.051 141.024L284.011 141.271C283.9 141.253 283.814 141.162 283.803 141.049L284.051 141.024ZM287.832 141.636L288.081 141.611C288.089 141.688 288.06 141.765 288.004 141.818C287.947 141.872 287.869 141.896 287.792 141.883L287.832 141.636ZM285.123 115.273L285.163 115.026C285.275 115.044 285.36 115.135 285.372 115.247L285.123 115.273ZM281.591 114.635L284.3 140.998L283.803 141.049L281.093 114.686L281.591 114.635ZM284.091 140.777L287.872 141.39L287.792 141.883L284.011 141.271L284.091 140.777ZM287.584 141.662L284.875 115.298L285.372 115.247L288.081 141.611L287.584 141.662ZM285.083 115.52L281.302 114.907L281.382 114.414L285.163 115.026L285.083 115.52ZM261.363 127.293L261.227 127.503C261.143 127.449 261.1 127.351 261.116 127.253L261.363 127.293ZM274.834 136.031L275.081 136.071C275.067 136.154 275.013 136.225 274.936 136.26C274.858 136.294 274.769 136.287 274.698 136.241L274.834 136.031ZM275.51 131.859L275.639 131.644C275.726 131.697 275.773 131.798 275.757 131.899L275.51 131.859ZM266.224 126.262L265.993 126.358C265.952 126.259 265.979 126.144 266.061 126.073C266.143 126.003 266.26 125.993 266.353 126.048L266.224 126.262ZM266.323 126.5L266.57 126.54C266.552 126.651 266.463 126.736 266.352 126.749C266.241 126.762 266.135 126.7 266.092 126.596L266.323 126.5ZM266.406 125.985L266.217 125.821C266.291 125.737 266.411 125.712 266.512 125.759C266.613 125.806 266.671 125.915 266.653 126.025L266.406 125.985ZM266.237 126.18L266.292 126.424C266.187 126.448 266.078 126.401 266.023 126.308C265.967 126.216 265.978 126.098 266.048 126.016L266.237 126.18ZM276.814 123.802L277.061 123.842C277.045 123.943 276.969 124.023 276.869 124.046L276.814 123.802ZM277.49 119.629L277.427 119.387C277.509 119.366 277.596 119.388 277.658 119.444C277.721 119.501 277.75 119.586 277.737 119.669L277.49 119.629ZM261.95 123.667L261.703 123.627C261.719 123.529 261.791 123.45 261.887 123.425L261.95 123.667ZM261.499 127.084L274.97 135.821L274.698 136.241L261.227 127.503L261.499 127.084ZM274.587 135.991L275.263 131.819L275.757 131.899L275.081 136.071L274.587 135.991ZM275.381 132.073L266.095 126.477L266.353 126.048L275.639 131.644L275.381 132.073ZM266.455 126.167L266.554 126.405L266.092 126.596L265.993 126.358L266.455 126.167ZM266.076 126.461L266.159 125.945L266.653 126.025L266.57 126.54L266.076 126.461ZM266.595 126.149L266.426 126.344L266.048 126.016L266.217 125.821L266.595 126.149ZM266.182 125.936L276.76 123.558L276.869 124.046L266.292 126.424L266.182 125.936ZM276.568 123.762L277.243 119.589L277.737 119.669L277.061 123.842L276.568 123.762ZM277.553 119.871L262.013 123.909L261.887 123.425L277.427 119.387L277.553 119.871ZM262.197 123.707L261.609 127.333L261.116 127.253L261.703 123.627L262.197 123.707Z" fill="#0B1466"/>
<path d="M161.696 273.727L175.209 276.276L182.044 240.029L168.531 237.48L161.696 273.727Z" fill="#AB40F9" fill-opacity="0.3"/>
<path d="M113.795 264.7L127.308 267.249L138.683 206.919L125.17 204.37L113.795 264.7Z" fill="#AB40F9" fill-opacity="0.3"/>
<path d="M137.737 269.217L151.25 271.766L160.338 223.568L146.825 221.018L137.737 269.217Z" fill="#AB40F9" fill-opacity="0.3"/>
<path d="M156.243 272.699L169.756 275.248L177.277 235.357L163.764 232.808L156.243 272.699Z" stroke="#0B1466" stroke-width="0.5" stroke-linecap="round" stroke-linejoin="round"/>
<path d="M108.321 263.671L121.834 266.22L134.888 196.988L121.374 194.439L108.321 263.671Z" stroke="#0B1466" stroke-width="0.5" stroke-linecap="round" stroke-linejoin="round"/>
<path d="M132.283 268.184L145.796 270.733L156.133 215.908L142.62 213.359L132.283 268.184Z" stroke="#0B1466" stroke-width="0.5" stroke-linecap="round" stroke-linejoin="round"/>
<path d="M182.458 277.665L93.5938 260.908" stroke="#0B1466" stroke-width="0.5" stroke-linecap="round" stroke-linejoin="round"/>
<path d="M547.759 133.758V179.485C547.759 181.313 546.283 182.79 544.455 182.79H463.221L450.711 202.969V133.742C450.711 131.913 452.187 130.437 454.015 130.437H544.438C546.266 130.437 547.742 131.913 547.742 133.742L547.759 133.758Z" fill="#AB40F9" fill-opacity="0.3"/>
<path d="M544.12 130.219V175.946C544.12 177.774 542.644 179.25 540.816 179.25H459.582L447.072 199.43V130.202C447.072 128.374 448.548 126.898 450.375 126.898H540.799C542.627 126.898 544.103 128.374 544.103 130.202L544.12 130.219Z" stroke="#0B1466" stroke-width="0.5" stroke-linecap="round" stroke-linejoin="round"/>
<path d="M460.739 144.511H528.037C529.58 144.511 530.821 143.253 530.821 141.726C530.821 140.183 529.563 138.942 528.037 138.942H460.739C459.197 138.942 457.956 140.2 457.956 141.726C457.956 143.269 459.213 144.511 460.739 144.511Z" fill="white" stroke="#0B1466" stroke-width="0.5" stroke-linecap="round" stroke-linejoin="round"/>
<path d="M470.114 154.206H528.356C529.798 154.206 530.989 153.032 530.989 151.573C530.989 150.13 529.815 148.939 528.356 148.939H470.114C468.672 148.939 467.481 150.113 467.481 151.573C467.481 153.015 468.655 154.206 470.114 154.206Z" fill="white" stroke="#0B1466" stroke-width="0.5" stroke-linecap="round" stroke-linejoin="round"/>
<path d="M489.584 163.902H528.339C529.781 163.902 530.972 162.728 530.972 161.268C530.972 159.826 529.798 158.635 528.339 158.635H489.584C488.141 158.635 486.951 159.809 486.951 161.268C486.951 162.711 488.141 163.902 489.584 163.902Z" fill="white" stroke="#0B1466" stroke-width="0.5" stroke-linecap="round" stroke-linejoin="round"/>
<path d="M152.322 141.575L110.816 156.555L105.517 160.933L82.7266 111.298L88.6631 106.919L129.85 92.8793L152.322 141.575Z" fill="white" stroke="black" stroke-width="0.5" stroke-linecap="round" stroke-linejoin="round"/>
<path d="M147.023 143.487L149.823 149.375L108.435 158.517L110.816 156.555L147.023 143.487Z" fill="white" stroke="black" stroke-width="0.5" stroke-linecap="round" stroke-linejoin="round"/>
<path d="M145.95 150.231L147.744 154.575L105.517 160.933L108.435 158.517L145.95 150.231Z" fill="white" stroke="black" stroke-width="0.5" stroke-linecap="round" stroke-linejoin="round"/>
<path d="M88.6631 106.919L108.435 153.334" stroke="black" stroke-width="0.5" stroke-linecap="round" stroke-linejoin="round"/>
<path d="M128.139 95.9994L147.744 139.696L113.617 152.495L93.4927 107.708L128.139 95.9994Z" fill="#AB40F9" fill-opacity="0.3"/>
<path d="M405.012 64.9218C407.869 58.0233 404.593 50.1144 397.697 47.257C390.8 44.3995 382.893 47.6754 380.036 54.574C377.18 61.4725 380.455 69.3814 387.351 72.2389C394.248 75.0963 402.155 71.8204 405.012 64.9218Z" fill="#AB40F9" fill-opacity="0.3"/>
<path d="M392.535 73.2702C396.49 73.2702 399.696 67.217 399.696 59.7501C399.696 52.2831 396.49 46.23 392.535 46.23C388.581 46.23 385.375 52.2831 385.375 59.7501C385.375 67.217 388.581 73.2702 392.535 73.2702Z" fill="#AB40F9" fill-opacity="0.3"/>
<path d="M383.01 50.1552C384.519 52.5371 388.494 54.181 392.535 54.181C396.577 54.181 400.551 52.5371 402.06 50.1552" fill="#AB40F9" fill-opacity="0.3"/>
<path d="M402.044 69.345C400.535 66.963 396.56 65.3192 392.519 65.3192C388.477 65.3192 384.502 66.963 382.993 69.345" fill="#AB40F9" fill-opacity="0.3"/>
<path d="M400.677 68.3348C405.956 63.0549 405.956 54.4945 400.677 49.2145C395.398 43.9346 386.84 43.9346 381.562 49.2145C376.283 54.4945 376.283 63.0549 381.562 68.3348C386.84 73.6147 395.398 73.6147 400.677 68.3348Z" stroke="#0B1466" stroke-width="0.5" stroke-linecap="round" stroke-linejoin="round"/>
<path d="M383.966 58.7772C383.966 66.2417 387.169 72.2973 391.127 72.2973C395.084 72.2973 398.287 66.2417 398.287 58.7772C398.287 51.3126 395.084 45.2571 391.127 45.2571C387.169 45.2571 383.966 51.3126 383.966 58.7772Z" stroke="#0B1466" stroke-width="0.5" stroke-linecap="round" stroke-linejoin="round"/>
<path d="M381.602 49.1823C383.111 51.5642 387.085 53.2081 391.127 53.2081C395.168 53.2081 399.143 51.5642 400.652 49.1823" stroke="#0B1466" stroke-width="0.5" stroke-linecap="round" stroke-linejoin="round"/>
<path d="M400.635 68.3721C399.126 65.9901 395.151 64.3463 391.11 64.3463C387.068 64.3463 383.094 65.9901 381.584 68.3721" stroke="#0B1466" stroke-width="0.5" stroke-linecap="round" stroke-linejoin="round"/>
<path d="M404.644 58.7772H377.61" stroke="#0B1466" stroke-width="0.5" stroke-linecap="round" stroke-linejoin="round"/>
<path d="M391.127 45.2571V72.2973" stroke="#0B1466" stroke-width="0.5" stroke-linecap="round" stroke-linejoin="round"/>
</svg>
