<svg width="795" height="531" viewBox="0 0 795 531" fill="none" xmlns="http://www.w3.org/2000/svg">
<g clip-path="url(#clip0_697_6060)">
<path d="M727.008 191.95C726.916 191.656 726.802 191.378 726.678 191.105C729.305 189.492 731.633 187.513 733.613 185.255C733.86 185.424 734.115 185.583 734.388 185.726C738.046 187.617 742.546 186.187 744.436 182.528C746.326 178.872 744.895 174.374 741.237 172.482C740.964 172.34 740.685 172.224 740.407 172.12C741.103 169.198 741.373 166.154 741.173 163.078C741.466 163.023 741.762 162.953 742.053 162.861C745.978 161.613 748.143 157.42 746.895 153.497C745.647 149.574 741.452 147.406 737.53 148.654C737.236 148.747 736.958 148.86 736.685 148.985C735.071 146.359 733.091 144.029 730.832 142.05C731 141.803 731.16 141.548 731.299 141.275C733.189 137.619 731.758 133.122 728.1 131.23C724.442 129.338 719.942 130.768 718.052 134.427C717.91 134.7 717.794 134.979 717.689 135.257C714.769 134.561 711.723 134.291 708.646 134.491C708.591 134.198 708.521 133.902 708.428 133.612C707.18 129.689 702.985 127.522 699.063 128.769C695.138 130.017 692.972 134.21 694.22 138.133C694.313 138.426 694.426 138.704 694.551 138.977C691.924 140.591 689.596 142.569 687.616 144.827C687.369 144.659 687.113 144.499 686.84 144.357C683.183 142.465 678.683 143.895 676.793 147.554C674.903 151.211 676.334 155.708 679.992 157.6C680.265 157.742 680.544 157.858 680.822 157.963C680.125 160.885 679.855 163.928 680.056 167.004C679.763 167.059 679.466 167.129 679.176 167.222C675.251 168.469 673.085 172.662 674.334 176.585C675.582 180.508 679.777 182.676 683.699 181.428C683.992 181.335 684.271 181.222 684.544 181.097C686.158 183.723 688.138 186.053 690.397 188.032C690.228 188.279 690.069 188.534 689.929 188.807C688.039 192.463 689.471 196.961 693.129 198.853C696.787 200.744 701.287 199.314 703.177 195.658C703.319 195.385 703.435 195.107 703.539 194.828C706.46 195.524 709.505 195.794 712.583 195.594C712.638 195.887 712.708 196.183 712.8 196.473C714.049 200.396 718.244 202.564 722.166 201.316C726.091 200.068 728.257 195.875 727.008 191.952V191.95ZM697.42 169.235C695.1 161.949 699.127 154.164 706.414 151.846C713.7 149.528 721.49 153.555 723.809 160.841C726.129 168.127 722.102 175.912 714.815 178.231C707.528 180.549 699.739 176.522 697.42 169.235Z" fill="white"/>
<path d="M719.894 202.306C718.617 202.306 717.351 202.001 716.184 201.397C714.262 200.405 712.846 198.722 712.189 196.662C712.149 196.534 712.111 196.398 712.073 196.256C709.336 196.383 706.598 196.154 703.924 195.565C703.866 195.699 703.805 195.826 703.741 195.945C702.748 197.866 701.067 199.282 699.006 199.938C696.945 200.594 694.753 200.408 692.834 199.413C688.868 197.364 687.312 192.472 689.362 188.508C689.423 188.386 689.493 188.265 689.568 188.14C687.542 186.297 685.771 184.199 684.293 181.89C684.157 181.942 684.026 181.988 683.895 182.029C679.642 183.381 675.078 181.025 673.726 176.771C672.373 172.517 674.73 167.959 678.983 166.607C679.114 166.566 679.247 166.528 679.39 166.491C679.259 163.751 679.491 161.018 680.081 158.343C679.947 158.285 679.822 158.224 679.7 158.16C675.735 156.109 674.178 151.216 676.228 147.253C677.221 145.332 678.902 143.916 680.963 143.26C683.024 142.604 685.216 142.79 687.135 143.785C687.254 143.846 687.379 143.916 687.504 143.991C689.347 141.966 691.443 140.196 693.754 138.719C693.702 138.583 693.656 138.452 693.615 138.321C692.262 134.068 694.62 129.509 698.873 128.154C703.126 126.805 707.687 129.161 709.042 133.412C709.083 133.542 709.124 133.679 709.159 133.818C711.896 133.685 714.631 133.92 717.308 134.509C717.366 134.375 717.427 134.248 717.491 134.129C718.483 132.208 720.164 130.792 722.226 130.136C724.284 129.48 726.479 129.666 728.398 130.661C732.363 132.71 733.92 137.605 731.87 141.566C731.806 141.687 731.739 141.809 731.664 141.934C733.69 143.777 735.461 145.874 736.939 148.184C737.075 148.132 737.206 148.085 737.337 148.045C741.59 146.693 746.151 149.052 747.506 153.303C748.859 157.556 746.502 162.115 742.249 163.47C742.118 163.511 741.985 163.548 741.842 163.586C741.973 166.325 741.741 169.059 741.151 171.734C741.285 171.795 741.41 171.853 741.532 171.917C745.494 173.965 747.053 178.857 745.004 182.821C744.011 184.742 742.33 186.158 740.269 186.814C738.207 187.469 736.016 187.284 734.097 186.288C733.975 186.228 733.853 186.158 733.728 186.082C731.884 188.108 729.785 189.878 727.477 191.355C727.53 191.491 727.576 191.622 727.617 191.752C728.273 193.812 728.087 196.003 727.094 197.924C726.101 199.845 724.42 201.264 722.359 201.917C721.549 202.175 720.722 202.303 719.894 202.303V202.306ZM712.581 194.95C712.886 194.95 713.15 195.168 713.208 195.469C713.267 195.774 713.33 196.038 713.406 196.276C713.958 198.011 715.154 199.427 716.771 200.263C718.388 201.098 720.234 201.255 721.97 200.704C723.706 200.153 725.12 198.957 725.959 197.341C726.795 195.725 726.952 193.876 726.4 192.144C726.325 191.906 726.226 191.659 726.096 191.372C725.962 191.079 726.067 190.731 726.342 190.563C728.883 189.002 731.167 187.075 733.133 184.835C733.345 184.591 733.708 184.545 733.975 184.727C734.23 184.902 734.462 185.041 734.683 185.157C736.3 185.995 738.147 186.149 739.883 185.598C741.619 185.047 743.033 183.851 743.872 182.235C745.599 178.895 744.287 174.775 740.945 173.048C740.725 172.932 740.481 172.828 740.185 172.718C739.883 172.604 739.711 172.285 739.787 171.972C740.478 169.076 740.73 166.099 740.536 163.122C740.516 162.8 740.736 162.512 741.053 162.454C741.366 162.396 741.622 162.333 741.86 162.257C745.442 161.117 747.428 157.278 746.287 153.694C745.146 150.114 741.305 148.123 737.723 149.266C737.485 149.342 737.232 149.441 736.95 149.571C736.657 149.708 736.309 149.6 736.14 149.324C734.579 146.783 732.651 144.499 730.41 142.535C730.169 142.323 730.122 141.963 730.302 141.696C730.479 141.435 730.616 141.209 730.732 140.985C732.459 137.648 731.147 133.525 727.806 131.799C726.188 130.963 724.342 130.806 722.606 131.358C720.87 131.909 719.456 133.104 718.617 134.721C718.504 134.941 718.393 135.191 718.286 135.481C718.173 135.783 717.854 135.951 717.54 135.878C714.643 135.188 711.664 134.932 708.685 135.127C708.36 135.135 708.076 134.927 708.018 134.61C707.96 134.3 707.896 134.044 707.82 133.804C706.679 130.223 702.838 128.232 699.256 129.373C695.673 130.513 693.688 134.352 694.829 137.936C694.904 138.174 695.003 138.426 695.133 138.707C695.267 139 695.162 139.349 694.887 139.517C692.346 141.078 690.062 143.005 688.096 145.245C687.884 145.486 687.524 145.532 687.257 145.352C686.996 145.175 686.772 145.039 686.549 144.923C684.932 144.084 683.085 143.93 681.349 144.482C679.613 145.033 678.199 146.228 677.36 147.845C675.633 151.182 676.945 155.305 680.287 157.031C680.51 157.147 680.76 157.255 681.047 157.362C681.349 157.475 681.521 157.794 681.445 158.108C680.754 161.004 680.501 163.984 680.696 166.958C680.716 167.28 680.496 167.567 680.176 167.625C679.874 167.683 679.61 167.747 679.369 167.822C675.787 168.963 673.801 172.802 674.942 176.382C676.083 179.963 679.927 181.953 683.506 180.813C683.744 180.738 683.997 180.639 684.279 180.508C684.572 180.375 684.92 180.479 685.089 180.755C686.65 183.297 688.581 185.58 690.819 187.545C691.06 187.757 691.107 188.117 690.927 188.383C690.75 188.645 690.613 188.871 690.497 189.094C688.77 192.434 690.082 196.554 693.423 198.281C695.041 199.12 696.887 199.273 698.623 198.722C700.359 198.171 701.773 196.975 702.612 195.359C702.728 195.136 702.833 194.895 702.943 194.599C703.056 194.297 703.375 194.126 703.689 194.201C706.586 194.892 709.565 195.144 712.544 194.953C712.558 194.953 712.573 194.953 712.584 194.953L712.581 194.95ZM710.601 179.528C708.317 179.528 706.049 178.982 703.962 177.9C700.525 176.124 697.984 173.115 696.811 169.427C695.639 165.742 695.969 161.819 697.746 158.383C699.523 154.948 702.534 152.409 706.221 151.237C713.83 148.82 721.993 153.039 724.418 160.647C725.59 164.332 725.259 168.255 723.483 171.69C721.706 175.126 718.695 177.665 715.008 178.837C713.563 179.298 712.076 179.525 710.601 179.525V179.528ZM710.601 151.832C709.278 151.832 707.933 152.032 706.607 152.455C703.245 153.523 700.501 155.839 698.881 158.972C697.261 162.106 696.959 165.681 698.028 169.044C699.099 172.404 701.413 175.149 704.548 176.771C707.684 178.39 711.26 178.698 714.622 177.624C717.984 176.556 720.728 174.241 722.348 171.107C723.968 167.973 724.27 164.399 723.201 161.036C721.416 155.424 716.202 151.832 710.604 151.832H710.601Z" fill="#0BC3A7"/>
<path d="M770.475 136.148C770.42 135.971 770.35 135.803 770.275 135.637C771.863 134.659 773.271 133.464 774.47 132.1C774.621 132.202 774.774 132.297 774.94 132.384C777.152 133.528 779.872 132.663 781.016 130.452C782.16 128.241 781.295 125.519 779.08 124.376C778.914 124.292 778.746 124.219 778.578 124.155C778.999 122.388 779.161 120.549 779.039 118.686C779.216 118.651 779.396 118.61 779.57 118.555C781.945 117.801 783.255 115.265 782.5 112.891C781.745 110.518 779.208 109.206 776.833 109.961C776.656 110.016 776.487 110.085 776.322 110.161C775.344 108.574 774.147 107.163 772.783 105.965C772.884 105.814 772.98 105.66 773.067 105.495C774.211 103.284 773.346 100.562 771.134 99.419C768.922 98.2757 766.201 99.1404 765.058 101.351C764.973 101.517 764.901 101.685 764.84 101.853C763.072 101.433 761.231 101.267 759.37 101.389C759.335 101.212 759.295 101.035 759.24 100.858C758.485 98.4846 755.947 97.1731 753.573 97.9275C751.201 98.682 749.889 101.218 750.643 103.592C750.699 103.769 750.768 103.937 750.844 104.102C749.256 105.08 747.848 106.276 746.649 107.642C746.498 107.541 746.344 107.445 746.178 107.358C743.966 106.215 741.246 107.079 740.102 109.29C738.958 111.501 739.823 114.223 742.038 115.366C742.204 115.451 742.372 115.523 742.541 115.587C742.12 117.354 741.957 119.194 742.076 121.057C741.899 121.091 741.722 121.132 741.545 121.187C739.173 121.942 737.861 124.478 738.616 126.851C739.37 129.225 741.908 130.536 744.283 129.782C744.46 129.727 744.628 129.657 744.794 129.582C745.772 131.169 746.968 132.579 748.333 133.777C748.231 133.928 748.135 134.082 748.048 134.247C746.904 136.458 747.769 139.18 749.982 140.323C752.194 141.467 754.914 140.602 756.058 138.391C756.142 138.226 756.215 138.057 756.276 137.889C758.044 138.31 759.884 138.475 761.745 138.353C761.78 138.53 761.821 138.71 761.876 138.884C762.631 141.258 765.168 142.569 767.543 141.815C769.915 141.06 771.227 138.524 770.472 136.151L770.475 136.148ZM752.58 122.409C751.178 118.001 753.613 113.292 758.02 111.89C762.427 110.489 767.139 112.923 768.541 117.331C769.944 121.738 767.508 126.448 763.101 127.849C758.694 129.251 753.982 126.816 752.58 122.409Z" fill="white"/>
<path d="M766.183 142.662C764 142.662 761.971 141.264 761.271 139.076C761.265 139.055 761.259 139.035 761.251 139.015C759.706 139.073 758.165 138.942 756.655 138.626C756.646 138.643 756.635 138.664 756.626 138.684C755.996 139.906 754.925 140.808 753.615 141.226C752.306 141.641 750.91 141.525 749.69 140.892C747.168 139.586 746.178 136.476 747.481 133.957C747.49 133.937 747.501 133.919 747.51 133.899C746.381 132.849 745.382 131.668 744.534 130.374C744.514 130.379 744.494 130.388 744.473 130.394C741.768 131.256 738.867 129.753 738.005 127.051C737.143 124.347 738.644 121.445 741.35 120.586C741.37 120.581 741.39 120.572 741.411 120.569C741.353 119.025 741.483 117.485 741.8 115.973C741.779 115.964 741.762 115.953 741.742 115.944C739.219 114.641 738.229 111.528 739.532 109.009C740.165 107.787 741.233 106.885 742.543 106.47C743.855 106.052 745.249 106.171 746.468 106.804C746.488 106.812 746.506 106.824 746.526 106.833C747.577 105.701 748.759 104.706 750.05 103.858C750.045 103.838 750.036 103.818 750.03 103.798C749.612 102.489 749.731 101.093 750.361 99.8716C750.994 98.6501 752.062 97.7476 753.372 97.3327C754.681 96.9149 756.077 97.0338 757.297 97.6664C758.519 98.299 759.422 99.3668 759.837 100.678C759.843 100.699 759.849 100.719 759.857 100.739C761.399 100.687 762.943 100.815 764.453 101.128C764.462 101.108 764.473 101.09 764.482 101.07C765.112 99.8484 766.183 98.946 767.493 98.5311C768.805 98.1133 770.198 98.2322 771.418 98.8648C773.94 100.168 774.93 103.278 773.627 105.8C773.618 105.82 773.607 105.837 773.598 105.858C774.73 106.908 775.726 108.089 776.574 109.383C776.594 109.377 776.614 109.369 776.635 109.363C779.34 108.504 782.243 110.004 783.103 112.706C783.521 114.014 783.402 115.41 782.772 116.632C782.139 117.853 781.071 118.756 779.761 119.173C779.741 119.179 779.721 119.185 779.7 119.191C779.758 120.734 779.628 122.275 779.311 123.787C779.332 123.796 779.349 123.807 779.369 123.816C781.889 125.119 782.882 128.229 781.579 130.751C780.949 131.972 779.877 132.875 778.568 133.293C777.259 133.708 775.862 133.592 774.643 132.959C774.623 132.95 774.605 132.939 774.585 132.927C773.537 134.056 772.352 135.054 771.061 135.901C771.066 135.922 771.075 135.942 771.081 135.962C771.499 137.274 771.38 138.667 770.747 139.888C770.114 141.11 769.046 142.012 767.736 142.43C767.22 142.595 766.694 142.674 766.18 142.674L766.183 142.662ZM761.75 137.712C762.055 137.712 762.319 137.93 762.377 138.231C762.406 138.385 762.441 138.536 762.49 138.69C763.138 140.721 765.321 141.853 767.353 141.203C768.337 140.889 769.142 140.21 769.618 139.293C770.094 138.373 770.181 137.326 769.867 136.342C769.818 136.189 769.76 136.043 769.693 135.904C769.56 135.611 769.664 135.266 769.94 135.095C771.455 134.163 772.82 133.014 773.99 131.679C774.205 131.436 774.565 131.392 774.832 131.572C774.959 131.659 775.093 131.743 775.235 131.816C776.153 132.289 777.201 132.382 778.188 132.065C779.172 131.752 779.976 131.073 780.452 130.156C781.434 128.261 780.687 125.92 778.792 124.939C778.649 124.866 778.504 124.805 778.359 124.75C778.057 124.637 777.886 124.318 777.961 124.005C778.374 122.278 778.525 120.502 778.408 118.727C778.388 118.404 778.609 118.117 778.928 118.059C779.082 118.03 779.233 117.995 779.387 117.946C780.371 117.633 781.175 116.954 781.651 116.037C782.127 115.117 782.214 114.069 781.901 113.086C781.254 111.052 779.07 109.923 777.038 110.57C776.887 110.619 776.742 110.677 776.6 110.744C776.307 110.878 775.958 110.773 775.79 110.497C774.858 108.983 773.708 107.619 772.373 106.45C772.132 106.238 772.085 105.878 772.265 105.611C772.352 105.483 772.437 105.35 772.509 105.208C773.49 103.313 772.744 100.971 770.849 99.9906C769.931 99.5147 768.88 99.4277 767.896 99.7382C766.912 100.052 766.108 100.731 765.632 101.647C765.559 101.79 765.498 101.935 765.443 102.08C765.33 102.382 765.007 102.553 764.697 102.477C762.969 102.065 761.19 101.914 759.416 102.03C759.091 102.039 758.806 101.83 758.748 101.514C758.719 101.36 758.684 101.209 758.635 101.056C758.321 100.069 757.642 99.2652 756.725 98.7893C755.804 98.3164 754.756 98.2264 753.772 98.5398C752.788 98.8532 751.984 99.5322 751.508 100.449C751.032 101.366 750.945 102.416 751.258 103.4C751.307 103.554 751.366 103.696 751.429 103.838C751.563 104.131 751.458 104.479 751.183 104.648C749.667 105.579 748.306 106.728 747.133 108.063C746.921 108.307 746.558 108.353 746.294 108.17C746.166 108.083 746.032 107.999 745.893 107.927C744.973 107.451 743.925 107.364 742.941 107.674C741.956 107.988 741.152 108.667 740.676 109.583C739.695 111.478 740.441 113.82 742.337 114.801C742.479 114.873 742.624 114.934 742.769 114.986C743.071 115.099 743.243 115.419 743.167 115.732C742.755 117.458 742.604 119.234 742.72 121.01C742.74 121.332 742.52 121.619 742.2 121.677C742.049 121.706 741.895 121.741 741.744 121.791C739.709 122.438 738.58 124.62 739.227 126.654C739.875 128.688 742.058 129.817 744.09 129.167C744.241 129.117 744.386 129.059 744.529 128.995C744.822 128.862 745.17 128.966 745.339 129.242C746.271 130.757 747.42 132.12 748.756 133.293C748.997 133.505 749.043 133.864 748.863 134.131C748.776 134.259 748.692 134.392 748.619 134.535C747.638 136.429 748.384 138.771 750.28 139.752C751.197 140.225 752.245 140.318 753.232 140.001C754.216 139.688 755.021 139.009 755.497 138.092C755.569 137.95 755.63 137.805 755.685 137.66C755.799 137.358 756.121 137.187 756.432 137.262C758.159 137.674 759.933 137.825 761.712 137.709C761.727 137.709 761.741 137.709 761.753 137.709L761.75 137.712ZM760.551 128.888C759.129 128.888 757.718 128.549 756.42 127.875C754.28 126.77 752.701 124.898 751.969 122.603C750.463 117.868 753.087 112.79 757.825 111.284C762.56 109.778 767.641 112.404 769.147 117.139C770.654 121.875 768.03 126.953 763.292 128.459C762.392 128.746 761.468 128.888 760.548 128.888H760.551ZM753.189 122.217C753.816 124.187 755.172 125.792 757.006 126.744C758.841 127.693 760.937 127.87 762.906 127.243C766.97 125.949 769.226 121.59 767.931 117.528C766.636 113.463 762.276 111.208 758.211 112.502C754.147 113.797 751.891 118.155 753.186 122.217H753.189Z" fill="#0BC3A7"/>
<path d="M439.025 0.638184H143.896C131.068 0.638184 120.668 11.0323 120.668 23.8542V177.679C120.668 190.501 131.068 200.895 143.896 200.895H439.025C451.854 200.895 462.253 190.501 462.253 177.679V23.8542C462.253 11.0323 451.854 0.638184 439.025 0.638184Z" fill="white"/>
<path d="M439.023 201.533H143.894C130.734 201.533 120.027 190.832 120.027 177.679V23.8544C120.027 10.7012 130.734 0 143.894 0H439.02C452.18 0 462.887 10.7012 462.887 23.8544V177.679C462.887 190.832 452.18 201.533 439.02 201.533H439.023ZM143.894 1.27672C131.437 1.27672 121.305 11.4063 121.305 23.8544V177.679C121.305 190.13 131.44 200.257 143.894 200.257H439.02C451.478 200.257 461.61 190.13 461.61 177.679V23.8544C461.61 11.4034 451.475 1.27672 439.02 1.27672H143.894Z" fill="#2C2C2C"/>
<path d="M165.867 43.1762H221.143C223.977 43.1762 226.276 40.881 226.276 38.0461C226.276 35.2112 223.98 32.916 221.143 32.916H165.867C163.034 32.916 160.734 35.2112 160.734 38.0461C160.734 40.881 163.031 43.1762 165.867 43.1762Z" fill="white"/>
<path d="M221.141 43.8148H165.865C162.683 43.8148 160.094 41.2265 160.094 38.0463C160.094 34.8661 162.683 32.2778 165.865 32.2778H221.141C224.323 32.2778 226.913 34.8661 226.913 38.0463C226.913 41.2265 224.323 43.8148 221.141 43.8148ZM165.865 33.5575C163.389 33.5575 161.371 35.5712 161.371 38.0492C161.371 40.5272 163.386 42.5409 165.865 42.5409H221.141C223.618 42.5409 225.635 40.5272 225.635 38.0492C225.635 35.5712 223.621 33.5575 221.141 33.5575H165.865Z" fill="#0BC3A7"/>
<path d="M179.953 65.0634H208.056C210.889 65.0634 213.188 62.7682 213.188 59.9333C213.188 57.0984 210.892 54.8032 208.056 54.8032H179.953C177.12 54.8032 174.82 57.0984 174.82 59.9333C174.82 62.7682 177.117 65.0634 179.953 65.0634Z" fill="white"/>
<path d="M208.054 65.702H179.951C176.769 65.702 174.18 63.1137 174.18 59.9335C174.18 56.7533 176.769 54.165 179.951 54.165H208.054C211.236 54.165 213.825 56.7533 213.825 59.9335C213.825 63.1137 211.236 65.702 208.054 65.702ZM179.951 55.4447C177.475 55.4447 175.457 57.4584 175.457 59.9364C175.457 62.4144 177.472 64.4281 179.951 64.4281H208.054C210.53 64.4281 212.548 62.4144 212.548 59.9364C212.548 57.4584 210.533 55.4447 208.054 55.4447H179.951Z" fill="#0BC3A7"/>
<path d="M165.871 86.9472H208.057C210.89 86.9472 213.19 84.652 213.19 81.8171C213.19 78.9822 210.893 76.687 208.057 76.687H165.871C163.038 76.687 160.738 78.9822 160.738 81.8171C160.738 84.652 163.035 86.9472 165.871 86.9472Z" fill="white"/>
<path d="M208.055 87.5857H165.869C162.687 87.5857 160.098 84.9975 160.098 81.8173C160.098 78.6371 162.687 76.0488 165.869 76.0488H208.055C211.237 76.0488 213.826 78.6371 213.826 81.8173C213.826 84.9975 211.237 87.5857 208.055 87.5857ZM165.869 77.3285C163.393 77.3285 161.375 79.3422 161.375 81.8202C161.375 84.2982 163.39 86.3119 165.869 86.3119H208.055C210.531 86.3119 212.549 84.2982 212.549 81.8202C212.549 79.3422 210.534 77.3285 208.055 77.3285H165.869Z" fill="#0BC3A7"/>
<path d="M181.836 108.831H208.054C210.888 108.831 213.187 106.536 213.187 103.701C213.187 100.866 210.891 98.5713 208.054 98.5713H181.836C179.002 98.5713 176.703 100.866 176.703 103.701C176.703 106.536 179 108.831 181.836 108.831Z" fill="white"/>
<path d="M208.052 109.47H181.834C178.652 109.47 176.062 106.882 176.062 103.702C176.062 100.521 178.652 97.9331 181.834 97.9331H208.052C211.234 97.9331 213.824 100.521 213.824 103.702C213.824 106.882 211.234 109.47 208.052 109.47ZM181.834 99.2127C179.358 99.2127 177.34 101.226 177.34 103.704C177.34 106.182 179.355 108.196 181.834 108.196H208.052C210.529 108.196 212.546 106.182 212.546 103.704C212.546 101.226 210.532 99.2127 208.052 99.2127H181.834Z" fill="#0BC3A7"/>
<path d="M176.531 143.849H208.057C210.89 143.849 213.189 141.553 213.189 138.718C213.189 135.884 210.893 133.588 208.057 133.588H176.531C173.698 133.588 171.398 135.884 171.398 138.718C171.398 141.553 173.695 143.849 176.531 143.849Z" fill="white"/>
<path d="M208.055 144.487H176.529C173.347 144.487 170.758 141.899 170.758 138.719C170.758 135.538 173.347 132.95 176.529 132.95H208.055C211.237 132.95 213.826 135.538 213.826 138.719C213.826 141.899 211.237 144.487 208.055 144.487ZM176.529 134.23C174.053 134.23 172.035 136.244 172.035 138.722C172.035 141.2 174.05 143.213 176.529 143.213H208.055C210.531 143.213 212.549 141.2 212.549 138.722C212.549 136.244 210.534 134.23 208.055 134.23H176.529Z" fill="#0BC3A7"/>
<path d="M176.531 165.733H208.057C210.89 165.733 213.189 163.438 213.189 160.603C213.189 157.768 210.893 155.473 208.057 155.473H176.531C173.698 155.473 171.398 157.768 171.398 160.603C171.398 163.438 173.695 165.733 176.531 165.733Z" fill="white"/>
<path d="M208.055 166.371H176.529C173.347 166.371 170.758 163.783 170.758 160.603C170.758 157.423 173.347 154.834 176.529 154.834H208.055C211.237 154.834 213.826 157.423 213.826 160.603C213.826 163.783 211.237 166.371 208.055 166.371ZM176.529 156.114C174.053 156.114 172.035 158.128 172.035 160.606C172.035 163.084 174.05 165.098 176.529 165.098H208.055C210.531 165.098 212.549 163.084 212.549 160.606C212.549 158.128 210.534 156.114 208.055 156.114H176.529Z" fill="#0BC3A7"/>
<path d="M240.039 43.1762H282.225C285.058 43.1762 287.358 40.881 287.358 38.0461C287.358 35.2112 285.061 32.916 282.225 32.916H240.039C237.206 32.916 234.906 35.2112 234.906 38.0461C234.906 40.881 237.203 43.1762 240.039 43.1762Z" fill="#2C2C2C"/>
<path d="M226.949 65.0634H269.135C271.968 65.0634 274.268 62.7682 274.268 59.9333C274.268 57.0984 271.971 54.8032 269.135 54.8032H226.949C224.116 54.8032 221.816 57.0984 221.816 59.9333C221.816 62.7682 224.113 65.0634 226.949 65.0634Z" fill="#2C2C2C"/>
<path d="M226.949 86.9477H330.217C333.051 86.9477 335.35 84.6525 335.35 81.8176C335.35 78.9827 333.054 76.6875 330.217 76.6875H226.949C224.116 76.6875 221.816 78.9827 221.816 81.8176C221.816 84.6525 224.113 86.9477 226.949 86.9477Z" fill="#2C2C2C"/>
<path d="M226.949 108.832H269.135C271.968 108.832 274.268 106.537 274.268 103.702C274.268 100.867 271.971 98.5718 269.135 98.5718H226.949C224.116 98.5718 221.816 100.867 221.816 103.702C221.816 106.537 224.113 108.832 226.949 108.832Z" fill="#2C2C2C"/>
<path d="M226.949 143.849H251.684C254.518 143.849 256.817 141.553 256.817 138.718C256.817 135.884 254.52 133.588 251.684 133.588H226.949C224.116 133.588 221.816 135.884 221.816 138.718C221.816 141.553 224.113 143.849 226.949 143.849Z" fill="#2C2C2C"/>
<path d="M226.949 165.733H269.135C271.968 165.733 274.268 163.438 274.268 160.603C274.268 157.768 271.971 155.473 269.135 155.473H226.949C224.116 155.473 221.816 157.768 221.816 160.603C221.816 163.438 224.113 165.733 226.949 165.733Z" fill="#2C2C2C"/>
<path d="M301.121 43.1762H343.307C346.14 43.1762 348.44 40.881 348.44 38.0461C348.44 35.2112 346.143 32.916 343.307 32.916H301.121C298.288 32.916 295.988 35.2112 295.988 38.0461C295.988 40.881 298.285 43.1762 301.121 43.1762Z" fill="white"/>
<path d="M343.305 43.8148H301.119C297.937 43.8148 295.348 41.2265 295.348 38.0463C295.348 34.8661 297.937 32.2778 301.119 32.2778H343.305C346.487 32.2778 349.076 34.8661 349.076 38.0463C349.076 41.2265 346.487 43.8148 343.305 43.8148ZM301.119 33.5575C298.643 33.5575 296.625 35.5712 296.625 38.0492C296.625 40.5272 298.64 42.5409 301.119 42.5409H343.305C345.781 42.5409 347.799 40.5272 347.799 38.0492C347.799 35.5712 345.784 33.5575 343.305 33.5575H301.119Z" fill="#0BC3A7"/>
<path d="M288.031 65.0634H315.092C317.925 65.0634 320.224 62.7682 320.224 59.9333C320.224 57.0984 317.928 54.8032 315.092 54.8032H288.031C285.198 54.8032 282.898 57.0984 282.898 59.9333C282.898 62.7682 285.195 65.0634 288.031 65.0634Z" fill="white"/>
<path d="M315.09 65.702H288.029C284.847 65.702 282.258 63.1137 282.258 59.9335C282.258 56.7533 284.847 54.165 288.029 54.165H315.09C318.271 54.165 320.861 56.7533 320.861 59.9335C320.861 63.1137 318.271 65.702 315.09 65.702ZM288.029 55.4447C285.553 55.4447 283.535 57.4584 283.535 59.9364C283.535 62.4144 285.55 64.4281 288.029 64.4281H315.09C317.566 64.4281 319.584 62.4144 319.584 59.9364C319.584 57.4584 317.569 55.4447 315.09 55.4447H288.029Z" fill="#0BC3A7"/>
<path d="M349.113 86.9472H406.886C409.72 86.9472 412.019 84.652 412.019 81.8171C412.019 78.9822 409.722 76.687 406.886 76.687H349.113C346.28 76.687 343.98 78.9822 343.98 81.8171C343.98 84.652 346.277 86.9472 349.113 86.9472Z" fill="white"/>
<path d="M406.884 87.5857H349.111C345.929 87.5857 343.34 84.9975 343.34 81.8173C343.34 78.6371 345.929 76.0488 349.111 76.0488H406.884C410.066 76.0488 412.656 78.6371 412.656 81.8173C412.656 84.9975 410.066 87.5857 406.884 87.5857ZM349.111 77.3285C346.635 77.3285 344.617 79.3422 344.617 81.8202C344.617 84.2982 346.632 86.3119 349.111 86.3119H406.884C409.36 86.3119 411.378 84.2982 411.378 81.8202C411.378 79.3422 409.363 77.3285 406.884 77.3285H349.111Z" fill="#0BC3A7"/>
<path d="M288.031 108.831H348.423C351.256 108.831 353.555 106.536 353.555 103.701C353.555 100.866 351.259 98.5713 348.423 98.5713H288.031C285.198 98.5713 282.898 100.866 282.898 103.701C282.898 106.536 285.195 108.831 288.031 108.831Z" fill="white"/>
<path d="M348.421 109.47H288.029C284.847 109.47 282.258 106.882 282.258 103.702C282.258 100.521 284.847 97.9331 288.029 97.9331H348.421C351.603 97.9331 354.192 100.521 354.192 103.702C354.192 106.882 351.603 109.47 348.421 109.47ZM288.029 99.2127C285.553 99.2127 283.535 101.226 283.535 103.704C283.535 106.182 285.55 108.196 288.029 108.196H348.421C350.897 108.196 352.915 106.182 352.915 103.704C352.915 101.226 350.9 99.2127 348.421 99.2127H288.029Z" fill="#0BC3A7"/>
<path d="M270.578 143.849H330.215C333.048 143.849 335.347 141.553 335.347 138.718C335.347 135.884 333.051 133.588 330.215 133.588H270.578C267.745 133.588 265.445 135.884 265.445 138.718C265.445 141.553 267.742 143.849 270.578 143.849Z" fill="white"/>
<path d="M330.217 144.487H270.58C267.398 144.487 264.809 141.899 264.809 138.719C264.809 135.538 267.398 132.95 270.58 132.95H330.217C333.399 132.95 335.988 135.538 335.988 138.719C335.988 141.899 333.399 144.487 330.217 144.487ZM270.58 134.23C268.104 134.23 266.086 136.244 266.086 138.722C266.086 141.2 268.101 143.213 270.58 143.213H330.217C332.693 143.213 334.711 141.2 334.711 138.722C334.711 136.244 332.696 134.23 330.217 134.23H270.58Z" fill="#0BC3A7"/>
<path d="M288.031 165.733H378.209C381.043 165.733 383.342 163.438 383.342 160.603C383.342 157.768 381.045 155.473 378.209 155.473H288.031C285.198 155.473 282.898 157.768 282.898 160.603C282.898 163.438 285.195 165.733 288.031 165.733Z" fill="url(#paint0_linear_697_6060)"/>
<path d="M423.454 530.362H638.139C649.801 530.362 659.254 520.913 659.254 509.258V83.6342C659.254 71.979 649.801 62.5305 638.139 62.5305L423.454 62.5305C411.793 62.5305 402.339 71.979 402.339 83.6342L402.339 509.258C402.339 520.913 411.793 530.362 423.454 530.362Z" fill="white"/>
<path d="M638.138 531H423.453C411.457 531 401.699 521.248 401.699 509.258V83.6341C401.699 71.6474 411.457 61.8921 423.453 61.8921H638.138C650.134 61.8921 659.891 71.6445 659.891 83.6341V509.258C659.891 521.248 650.134 531 638.138 531ZM423.453 63.1717C412.162 63.1717 402.977 72.3525 402.977 83.637V509.261C402.977 520.546 412.162 529.726 423.453 529.726H638.138C649.428 529.726 658.614 520.546 658.614 509.261V83.6341C658.614 72.3496 649.428 63.1688 638.138 63.1688H423.453V63.1717Z" fill="#0BC3A7"/>
<path d="M430.941 515.508H630.649C639.485 515.508 646.648 508.349 646.648 499.517V92.0808C646.648 83.2492 639.485 76.0898 630.649 76.0898H430.941C422.105 76.0898 414.942 83.2492 414.942 92.0808L414.942 499.517C414.942 508.349 422.105 515.508 430.941 515.508Z" fill="white"/>
<path d="M630.651 516.15H430.943C421.769 516.15 414.305 508.69 414.305 499.52V92.0839C414.305 82.9147 421.769 75.4546 430.943 75.4546H630.651C639.825 75.4546 647.289 82.9147 647.289 92.0839V499.518C647.289 508.687 639.825 516.147 630.651 516.147V516.15ZM430.943 76.7313C422.471 76.7313 415.582 83.6169 415.582 92.0839V499.518C415.582 507.985 422.474 514.87 430.943 514.87H630.651C639.122 514.87 646.011 507.982 646.011 499.518V92.0839C646.011 83.6169 639.119 76.7313 630.651 76.7313H430.943Z" fill="#0BC3A7"/>
<path d="M554.871 89.9681H503.811C503.459 89.9681 503.172 89.6838 503.172 89.3298C503.172 88.9758 503.456 88.6914 503.811 88.6914H554.871C555.223 88.6914 555.51 88.9758 555.51 89.3298C555.51 89.6838 555.225 89.9681 554.871 89.9681Z" fill="#0BC3A7"/>
<path d="M589.9 451.263C589.9 437.918 579.077 427.098 565.723 427.098H495.873C482.521 427.098 471.695 437.915 471.695 451.263C471.695 464.611 482.518 475.428 495.873 475.428H565.723C579.074 475.428 589.9 464.611 589.9 451.263Z" fill="#2C2C2C"/>
<path d="M620.221 147.949H441.375V366.639H620.221V147.949Z" fill="url(#paint1_linear_697_6060)"/>
<path d="M545.431 125.084H441.373C441.022 125.084 440.734 124.799 440.734 124.445C440.734 124.091 441.019 123.807 441.373 123.807H545.431C545.782 123.807 546.07 124.091 546.07 124.445C546.07 124.799 545.785 125.084 545.431 125.084Z" fill="#0BC3A7"/>
<path d="M620.22 396.901H579.01C578.659 396.901 578.371 396.616 578.371 396.262C578.371 395.908 578.656 395.624 579.01 395.624H620.22C620.571 395.624 620.859 395.908 620.859 396.262C620.859 396.616 620.574 396.901 620.22 396.901Z" fill="#0BC3A7"/>
<path d="M530.461 300.912C515.268 300.912 500.082 296.6 487.645 287.962C487.355 287.761 487.285 287.364 487.485 287.074C487.686 286.783 488.083 286.711 488.374 286.914C513.042 304.048 548.721 303.865 573.215 286.485C573.503 286.282 573.901 286.348 574.107 286.636C574.31 286.923 574.243 287.32 573.956 287.526C561.388 296.446 545.923 300.914 530.461 300.914V300.912Z" fill="white"/>
<path d="M580.322 244.733H481.272C472.662 244.733 465.656 237.731 465.656 229.125V222.846C465.656 214.239 472.662 207.238 481.272 207.238H580.322C588.933 207.238 595.938 214.239 595.938 222.846V229.125C595.938 237.731 588.933 244.733 580.322 244.733ZM481.272 208.515C473.364 208.515 466.934 214.945 466.934 222.846V229.125C466.934 237.029 473.367 243.456 481.272 243.456H580.322C588.23 243.456 594.661 237.026 594.661 229.125V222.846C594.661 214.945 588.228 208.515 580.322 208.515H481.272Z" fill="white"/>
<path d="M568.202 237.818C561.897 237.818 556.77 232.691 556.77 226.391C556.77 220.092 561.899 214.965 568.202 214.965C574.505 214.965 579.635 220.092 579.635 226.391C579.635 232.691 574.505 237.818 568.202 237.818ZM568.202 216.239C562.602 216.239 558.047 220.791 558.047 226.389C558.047 231.986 562.602 236.539 568.202 236.539C573.802 236.539 578.357 231.986 578.357 226.389C578.357 220.791 573.802 216.239 568.202 216.239Z" fill="white"/>
<path d="M493.39 237.818C487.084 237.818 481.957 232.691 481.957 226.391C481.957 220.092 487.087 214.965 493.39 214.965C499.692 214.965 504.822 220.092 504.822 226.391C504.822 232.691 499.692 237.818 493.39 237.818ZM493.39 216.239C487.789 216.239 483.232 220.791 483.232 226.389C483.232 231.986 487.787 236.539 493.39 236.539C498.993 236.539 503.545 231.986 503.545 226.389C503.545 220.791 498.99 216.239 493.39 216.239Z" fill="white"/>
<path d="M767.597 30.0928H623.02C607.886 30.0928 595.617 42.3551 595.617 57.4813C595.617 72.6076 607.886 84.8699 623.02 84.8699H767.597C782.731 84.8699 795 72.6076 795 57.4813C795 42.3551 782.731 30.0928 767.597 30.0928Z" fill="#2C2C2C"/>
<path d="M620.146 141.24C620.091 141.24 620.039 141.24 619.984 141.24C619.455 141.24 619.028 140.808 619.031 140.28C619.031 139.751 619.461 139.328 619.989 139.328C620.05 139.325 620.097 139.328 620.149 139.328C631.053 139.328 641.844 133.91 648.347 125.162C654.882 116.373 656.946 104.409 653.736 93.9403C653.582 93.4355 653.866 92.8987 654.371 92.7449C654.877 92.5911 655.414 92.8754 655.568 93.3803C658.953 104.421 656.775 117.037 649.886 126.305C643.029 135.53 631.646 141.243 620.149 141.243L620.146 141.24Z" fill="#2C2C2C"/>
<path d="M767.214 50.8394H740.325C739.797 50.8394 739.367 50.41 739.367 49.8819C739.367 49.3538 739.797 48.9243 740.325 48.9243H767.214C767.743 48.9243 768.172 49.3538 768.172 49.8819C768.172 50.41 767.743 50.8394 767.214 50.8394Z" fill="white"/>
<path d="M721.231 50.8394H621.29C620.762 50.8394 620.332 50.41 620.332 49.8819C620.332 49.3538 620.762 48.9243 621.29 48.9243H721.231C721.76 48.9243 722.189 49.3538 722.189 49.8819C722.189 50.41 721.76 50.8394 721.231 50.8394Z" fill="white"/>
<path d="M767.214 63.6446H674.302C673.773 63.6446 673.344 63.2151 673.344 62.687C673.344 62.1589 673.773 61.7295 674.302 61.7295H767.214C767.743 61.7295 768.172 62.1589 768.172 62.687C768.172 63.2151 767.743 63.6446 767.214 63.6446Z" fill="white"/>
<path d="M653.381 63.6446H621.286C620.758 63.6446 620.328 63.2151 620.328 62.687C620.328 62.1589 620.758 61.7295 621.286 61.7295H653.381C653.909 61.7295 654.339 62.1589 654.339 62.687C654.339 63.2151 653.909 63.6446 653.381 63.6446Z" fill="white"/>
<path d="M740.043 346.842H571.684V401.248H740.043V346.842Z" fill="#2C2C2C"/>
<path d="M667.738 386.057C667.575 386.057 667.41 385.996 667.285 385.872C667.035 385.622 667.035 385.219 667.285 384.969L678.212 374.045L667.285 363.12C667.035 362.87 667.035 362.467 667.285 362.217C667.535 361.968 667.938 361.968 668.188 362.217L679.568 373.592C679.818 373.841 679.818 374.245 679.568 374.494L668.188 385.869C668.063 385.993 667.9 386.054 667.735 386.054L667.738 386.057Z" fill="#FBFBFB"/>
<path d="M643.985 386.057C643.823 386.057 643.657 385.996 643.532 385.872L632.152 374.497C631.902 374.248 631.902 373.844 632.152 373.595L643.532 362.22C643.782 361.971 644.186 361.971 644.435 362.22C644.685 362.47 644.685 362.873 644.435 363.123L633.508 374.047L644.435 384.972C644.685 385.222 644.685 385.625 644.435 385.875C644.311 385.999 644.148 386.06 643.982 386.06L643.985 386.057Z" fill="#FBFBFB"/>
<path d="M649.799 386.336C649.7 386.336 649.601 386.313 649.508 386.266C649.195 386.107 649.07 385.721 649.23 385.407L661.095 362.104C661.254 361.791 661.638 361.666 661.954 361.826C662.268 361.985 662.393 362.371 662.233 362.685L650.368 385.988C650.254 386.208 650.031 386.336 649.799 386.336Z" fill="#FBFBFB"/>
<path d="M168.995 406.364C201.732 373.644 201.732 320.595 168.995 287.875C136.258 255.155 83.1809 255.155 50.4437 287.875C17.7066 320.595 17.7066 373.644 50.4438 406.364C83.1809 439.084 136.258 439.084 168.995 406.364Z" fill="white"/>
<path d="M109.717 431.543C63.142 431.543 25.25 393.671 25.25 347.12C25.25 300.569 63.142 262.697 109.717 262.697C156.293 262.697 194.185 300.569 194.185 347.12C194.185 393.671 156.293 431.543 109.717 431.543ZM109.717 263.973C63.8445 263.973 26.5274 301.274 26.5274 347.12C26.5274 392.966 63.8474 430.266 109.717 430.266C155.587 430.266 192.907 392.966 192.907 347.12C192.907 301.274 155.587 263.973 109.717 263.973Z" fill="#0BC3A7"/>
<path d="M113.981 400.539C113.966 400.539 113.949 400.539 113.934 400.539C74.8086 397.707 65.6027 378.112 65.2282 377.28C65.0831 376.958 65.2282 376.58 65.5505 376.438C65.8698 376.293 66.2501 376.438 66.3953 376.757C66.4853 376.955 75.7318 396.491 114.027 399.265C114.379 399.292 114.643 399.596 114.62 399.947C114.596 400.284 114.315 400.539 113.984 400.539H113.981Z" fill="#0BC3A7"/>
<path d="M8.8958 515.714C8.8058 515.714 8.71871 515.697 8.63162 515.656C8.30937 515.511 8.17001 515.131 8.31517 514.812L55.4247 411.185C55.5698 410.863 55.9501 410.721 56.2695 410.869C56.5917 411.014 56.7311 411.394 56.5859 411.714L9.47643 515.34C9.36902 515.575 9.13676 515.714 8.8958 515.714Z" fill="#0BC3A7"/>
<path d="M11.9036 524.241C12.6686 521.001 10.6612 517.755 7.4201 516.991C4.17896 516.226 0.931347 518.232 0.166368 521.472C-0.598612 524.711 1.40872 527.957 4.64987 528.722C7.89101 529.486 11.1386 527.48 11.9036 524.241Z" fill="#0BC3A7"/>
<path d="M210.544 515.714C210.3 515.714 210.071 515.575 209.963 515.34L162.854 411.714C162.709 411.391 162.851 411.014 163.17 410.869C163.49 410.721 163.87 410.863 164.015 411.185L211.125 514.812C211.27 515.134 211.127 515.511 210.808 515.656C210.721 515.697 210.634 515.714 210.544 515.714Z" fill="#0BC3A7"/>
<path d="M217.674 527.141C220.029 524.788 220.029 520.972 217.674 518.618C215.319 516.265 211.501 516.265 209.147 518.618C206.792 520.972 206.792 524.788 209.147 527.141C211.501 529.495 215.319 529.495 217.674 527.141Z" fill="#0BC3A7"/>
<path d="M276.275 529.363H180.421C167.592 529.363 158.764 516.489 163.391 504.528L217.262 365.351H316.637L262.914 504.142L279.538 521.816C282.226 524.674 280.2 529.36 276.275 529.36V529.363Z" fill="white"/>
<path d="M276.275 530.002H180.422C174.186 530.002 168.359 526.932 164.835 521.79C161.31 516.649 160.547 510.111 162.797 504.299L216.668 365.122C216.764 364.875 216.999 364.713 217.263 364.713H316.638C316.847 364.713 317.044 364.817 317.163 364.991C317.282 365.166 317.309 365.386 317.233 365.583L263.655 504L280.003 521.381C281.426 522.89 281.794 525.011 280.973 526.915C280.148 528.818 278.348 529.999 276.272 529.999L276.275 530.002ZM217.701 365.992L163.987 504.76C161.859 510.262 162.55 516.207 165.886 521.071C169.221 525.934 174.52 528.725 180.422 528.725H276.275C277.831 528.725 279.184 527.837 279.803 526.41C280.421 524.982 280.142 523.389 279.074 522.255L262.451 504.581C262.282 504.401 262.233 504.142 262.32 503.913L315.706 365.99H217.701V365.992Z" fill="#0BC3A7"/>
<path d="M262.722 504.633H178.818C178.467 504.633 178.18 504.348 178.18 503.994C178.18 503.64 178.464 503.356 178.818 503.356H262.722C263.074 503.356 263.361 503.64 263.361 503.994C263.361 504.348 263.077 504.633 262.722 504.633Z" fill="#0BC3A7"/>
<path d="M84.1797 320.535L92.8979 344.81C103.021 373 129.762 391.802 159.728 391.802H244.039L305.804 518.241C309.427 525.658 316.96 530.361 325.217 530.361H425.896C428.744 530.361 429.928 526.72 427.626 525.046L400.714 505.46L341.858 367.553C329.688 339.039 301.667 320.538 270.649 320.538H84.1797V320.535Z" fill="white"/>
<path d="M425.9 531H325.221C316.782 531 308.935 526.102 305.233 518.523L243.643 392.444H159.73C129.581 392.444 102.483 373.389 92.2984 345.028L83.5802 320.753C83.5106 320.559 83.5396 320.341 83.6586 320.17C83.7777 319.999 83.9722 319.9 84.1812 319.9H270.654C301.979 319.9 330.16 338.508 342.449 367.304L401.238 505.048L428.008 524.529C429.285 525.458 429.793 527.028 429.305 528.531C428.818 530.031 427.479 531 425.9 531ZM85.087 321.174L93.5003 344.596C103.505 372.451 130.121 391.164 159.73 391.164H244.041C244.284 391.164 244.508 391.303 244.615 391.524L306.38 517.963C309.87 525.107 317.267 529.723 325.221 529.723H425.9C427.134 529.723 427.839 528.902 428.089 528.133C428.339 527.364 428.252 526.285 427.256 525.559L400.344 505.973C400.251 505.907 400.178 505.814 400.132 505.706L341.276 367.8C329.187 339.474 301.465 321.171 270.654 321.171H85.087V321.174Z" fill="#0BC3A7"/>
<path d="M400.717 506.098H316.639C316.287 506.098 316 505.814 316 505.46C316 505.106 316.285 504.821 316.639 504.821H400.717C401.068 504.821 401.356 505.106 401.356 505.46C401.356 505.814 401.071 506.098 400.717 506.098Z" fill="#0BC3A7"/>
<path d="M162.401 168.46C164.753 161.238 168.663 154.164 165.804 145.926C162.898 137.555 159.184 131.345 150.881 128.238C140.799 124.463 129.433 128.87 120.601 135.025C111.767 141.179 104.114 149.15 94.4121 153.819C87.5229 157.135 79.9254 158.621 72.5426 160.614C65.1599 162.605 57.7017 165.254 52.0318 170.384C46.3649 175.514 42.8463 183.647 45.0643 190.963C31.6749 194.061 19.6878 203.994 15.6234 217.118C11.559 230.242 16.4653 246.039 28.0866 253.374C36.3113 258.565 46.5652 259.238 56.285 258.852C66.0047 258.466 75.8348 257.184 85.3862 259.018C94.2727 260.727 102.643 265.094 111.686 265.474C126.791 266.106 140.015 255.585 150.086 244.315C155.155 238.642 160.044 232.128 160.601 224.546C161.08 218.052 168.596 211.19 164.584 205.929C165.037 198.922 153.956 194.398 162.398 168.46H162.401Z" fill="#0BC3A7"/>
<path d="M200.375 213.087L215.887 198.701L245.981 196.191C245.981 196.191 264.352 160.878 269.128 150.9C273.903 140.921 278.873 129.311 287.67 133.681C287.67 133.681 296.019 130.353 298.955 137.981C298.955 137.981 303.774 137.047 308.619 143.619C313.465 150.189 312.846 153.969 310.381 156.358C307.917 158.746 300.528 151.547 300.528 151.547L296.768 155.702C295.819 156.752 295.581 158.284 296.226 159.546C297.117 161.299 298.821 163.356 301.832 163.014C305.896 162.553 309.743 161.151 311.955 163.388C313.035 164.482 312.837 166.293 311.56 167.146C308.489 169.194 301.852 173.361 295.375 175.726C295.375 175.726 292.208 188.502 288.323 202.63C282.415 224.111 264.25 239.994 242.163 242.995L223.606 245.516L200.375 213.087Z" fill="white"/>
<path d="M223.608 246.152C223.405 246.152 223.21 246.053 223.088 245.885L199.857 213.456C199.671 213.195 199.706 212.835 199.941 212.617L215.453 198.231C215.557 198.135 215.691 198.074 215.833 198.063L245.576 195.582C247.408 192.056 264.075 159.976 268.552 150.621L269.245 149.164C272.718 141.867 276.306 134.323 281.575 132.5C283.517 131.83 285.579 131.993 287.704 132.988C288.691 132.648 292.154 131.647 295.287 133.017C297.101 133.809 298.472 135.248 299.363 137.3C300.817 137.244 304.986 137.616 309.132 143.239C313.533 149.211 314.088 153.65 310.825 156.813C308.307 159.256 302.562 154.329 300.559 152.458L297.238 156.125C296.457 156.99 296.277 158.247 296.791 159.253C297.969 161.566 299.636 162.616 301.755 162.376C302.652 162.274 303.546 162.123 304.411 161.978C307.521 161.456 310.456 160.963 312.404 162.936C313.048 163.591 313.365 164.491 313.272 165.408C313.176 166.331 312.68 167.157 311.907 167.671C308.636 169.853 302.254 173.831 295.905 176.202C295.383 178.297 292.433 190.066 288.932 202.795C282.948 224.558 264.621 240.583 242.243 243.624L223.686 246.146C223.657 246.149 223.628 246.152 223.599 246.152H223.608ZM201.225 213.172L223.904 244.831L242.078 242.362C263.947 239.391 281.86 223.728 287.707 202.459C291.545 188.502 294.724 175.697 294.756 175.569C294.808 175.363 294.956 175.195 295.156 175.123C301.485 172.813 307.927 168.797 311.205 166.609C311.658 166.307 311.951 165.82 312.006 165.277C312.061 164.74 311.875 164.212 311.501 163.829C310.02 162.329 307.521 162.747 304.629 163.234C303.747 163.382 302.835 163.536 301.906 163.641C299.279 163.942 297.064 162.585 295.658 159.831C294.907 158.354 295.162 156.52 296.297 155.267L300.057 151.111C300.173 150.984 300.335 150.908 300.51 150.903C300.69 150.876 300.852 150.961 300.974 151.082C303.86 153.891 308.548 157.24 309.939 155.893C312.665 153.253 312.064 149.359 308.107 143.991C303.555 137.816 299.122 138.594 299.078 138.602C298.774 138.661 298.472 138.495 298.361 138.205C297.606 136.243 296.402 134.888 294.782 134.18C291.643 132.808 287.948 134.253 287.91 134.267C287.742 134.334 287.553 134.328 287.39 134.247C285.468 133.292 283.703 133.115 281.999 133.705C277.235 135.35 273.763 142.65 270.404 149.71L269.707 151.169C264.981 161.044 246.734 196.127 246.552 196.481C246.45 196.676 246.255 196.804 246.038 196.824L216.164 199.316L201.227 213.172H201.225Z" fill="#0BC3A7"/>
<path d="M283.738 146.263C283.561 146.263 283.386 146.19 283.259 146.048C283.023 145.784 283.05 145.381 283.314 145.148C287.587 141.365 292.79 138.718 298.367 137.491C298.709 137.416 299.052 137.633 299.127 137.978C299.203 138.324 298.985 138.663 298.639 138.739C293.277 139.917 288.269 142.464 284.159 146.103C284.037 146.21 283.886 146.263 283.735 146.263H283.738Z" fill="#0BC3A7"/>
<path d="M275.988 146.498C275.869 146.498 275.75 146.466 275.646 146.396C275.35 146.205 275.263 145.813 275.451 145.514C278.462 140.816 282.271 136.76 286.771 133.461C287.055 133.252 287.456 133.316 287.662 133.597C287.871 133.881 287.81 134.282 287.525 134.491C283.153 137.697 279.452 141.638 276.525 146.202C276.403 146.393 276.197 146.495 275.988 146.495V146.498Z" fill="#0BC3A7"/>
<path d="M215.886 198.699L225.339 248.418L175.201 256.14L175.396 292.071L188.808 315.179L80.4771 312.399L78.0501 281.842L38.6484 282.739C38.6484 282.739 41.8651 265.512 46.0515 247.449C51.1001 225.667 69.2796 209.339 91.5004 206.774C99.3186 205.872 108.333 205.143 118.45 204.812C158.595 203.495 215.883 198.693 215.883 198.693L215.886 198.699Z" fill="white"/>
<path d="M188.808 315.82H188.791L80.4596 313.04C80.1345 313.032 79.8645 312.779 79.8383 312.451L77.4607 282.498L38.6629 283.383C38.4539 283.383 38.2855 283.304 38.1606 283.157C38.0358 283.011 37.9835 282.814 38.0184 282.626C38.0503 282.454 41.2873 265.181 45.4272 247.31C50.5339 225.275 69.0212 208.732 91.4248 206.144C100.102 205.143 109.186 204.479 118.427 204.177C158.096 202.877 215.253 198.109 215.828 198.06C216.15 198.025 216.446 198.255 216.507 198.577L225.96 248.296C225.992 248.467 225.954 248.642 225.855 248.784C225.757 248.926 225.603 249.019 225.432 249.045L175.837 256.682L176.029 291.893L189.357 314.857C189.473 315.057 189.473 315.304 189.354 315.504C189.238 315.698 189.029 315.817 188.805 315.817L188.808 315.82ZM81.0693 311.781L187.682 314.515L174.844 292.392C174.789 292.297 174.757 292.186 174.757 292.076L174.562 256.145C174.562 255.829 174.792 255.559 175.102 255.51L224.587 247.89L215.363 199.383C209.258 199.888 156.035 204.223 118.471 205.456C109.265 205.758 100.216 206.417 91.5729 207.415C69.7034 209.942 51.6574 226.09 46.6727 247.6C43.035 263.298 40.097 278.534 39.4206 282.089L78.0326 281.21C78.3548 281.195 78.6567 281.459 78.6829 281.799L81.0635 311.781H81.0693Z" fill="#0BC3A7"/>
<path d="M81.9912 252.413L106.973 235.491L134.901 245.548L160.324 228.24L175.394 240.325C175.394 240.325 182.908 271.814 183.5 289.435C183.5 289.435 145.251 304.483 81.9883 297.493V252.413H81.9912Z" fill="url(#paint2_linear_697_6060)"/>
<path d="M106.321 234.2C105.978 234.2 105.694 233.93 105.682 233.585C105.345 224.073 103.554 214.707 100.358 205.741C100.239 205.41 100.413 205.044 100.744 204.925C101.075 204.806 101.441 204.98 101.56 205.311C104.8 214.399 106.617 223.896 106.96 233.538C106.971 233.889 106.695 234.185 106.344 234.197C106.335 234.197 106.33 234.197 106.321 234.197V234.2Z" fill="url(#paint3_linear_697_6060)"/>
<path d="M159.905 227.764C159.89 227.764 159.873 227.764 159.855 227.764C159.504 227.738 159.24 227.43 159.266 227.079C159.884 218.853 158.694 210.415 155.817 202.682C155.695 202.352 155.863 201.983 156.194 201.861C156.525 201.736 156.891 201.908 157.016 202.238C159.954 210.142 161.173 218.766 160.54 227.178C160.514 227.515 160.236 227.767 159.905 227.767V227.764Z" fill="url(#paint4_linear_697_6060)"/>
<path d="M38.654 282.744L35.6696 303.018C34.1657 313.243 42.2133 322.369 52.5514 322.16L178.052 319.615C178.052 319.615 175.352 289.148 149.543 287.831C122.88 286.473 81.9923 289.319 81.9923 289.319L81.9372 281.845L38.654 282.741V282.744Z" fill="white"/>
<path d="M38.6505 283.383C38.305 283.383 38.0205 283.104 38.0118 282.759C38.006 282.408 38.2847 282.115 38.636 282.109L81.9191 281.209H81.9336C82.2791 281.209 82.5636 281.488 82.5723 281.833C82.5782 282.184 82.2994 282.477 81.9482 282.483L38.665 283.383H38.6505Z" fill="#0BC3A7"/>
<path d="M52.2073 322.801C47.2225 322.801 42.4933 320.672 39.1895 316.926C35.8073 313.09 34.2919 307.986 35.038 302.925L38.0224 282.651C38.0747 282.303 38.4027 282.057 38.7482 282.112C39.0966 282.164 39.3376 282.489 39.2882 282.837L36.3038 303.111C35.6128 307.797 37.015 312.527 40.1504 316.078C43.2858 319.633 47.8119 321.618 52.5411 321.519L177.339 318.989C176.93 315.916 174.744 303.154 166.049 295.172C165.79 294.934 165.773 294.531 166.011 294.27C166.249 294.011 166.653 293.994 166.914 294.232C177.174 303.653 178.637 318.913 178.692 319.557C178.706 319.734 178.648 319.908 178.532 320.039C178.413 320.17 178.248 320.248 178.071 320.251L52.5701 322.796C52.4511 322.796 52.3321 322.799 52.2131 322.799L52.2073 322.801Z" fill="#0BC3A7"/>
<path d="M71.0708 290.718C70.7398 290.718 70.4582 290.46 70.435 290.123C70.4118 289.772 70.676 289.468 71.0273 289.442L81.9489 288.681C82.2944 288.661 82.605 288.922 82.6312 289.273C82.6544 289.624 82.3902 289.929 82.0389 289.955L71.1173 290.715C71.1027 290.715 71.0882 290.715 71.0737 290.715L71.0708 290.718Z" fill="#0BC3A7"/>
<path d="M158.532 319.273C158.532 319.273 158.509 319.273 158.497 319.273C158.146 319.253 157.876 318.954 157.893 318.603C158.105 314.604 155.908 310.588 152.424 308.61C149.881 307.167 146.882 306.799 144.028 306.546C138.796 306.082 133.487 305.952 128.241 306.152C127.881 306.181 127.59 305.891 127.579 305.54C127.564 305.189 127.84 304.89 128.191 304.878C133.492 304.672 138.857 304.805 144.141 305.276C147.004 305.531 150.29 305.931 153.054 307.501C156.95 309.712 159.406 314.201 159.168 318.67C159.15 319.009 158.869 319.273 158.532 319.273Z" fill="#0BC3A7"/>
<path d="M167.397 318.214H167.379C167.028 318.205 166.749 317.912 166.758 317.558C166.883 312.602 165.161 307.55 162.037 303.697C158.914 299.847 154.324 297.119 149.444 296.217C149.098 296.153 148.869 295.819 148.933 295.474C148.996 295.126 149.327 294.893 149.676 294.963C154.849 295.921 159.715 298.811 163.027 302.896C166.34 306.979 168.166 312.338 168.032 317.593C168.024 317.938 167.739 318.214 167.394 318.214H167.397Z" fill="#0BC3A7"/>
<path d="M129.394 174.832L114.283 203.982L106 205.54C106 205.54 115.94 216.903 133.525 215.327C151.109 213.752 150.137 203.332 150.137 203.332L138.446 202.456L145.799 185.397L129.391 174.829L129.394 174.832Z" fill="white"/>
<path d="M130.247 216.114C114.596 216.114 105.617 206.068 105.521 205.961C105.37 205.787 105.323 205.549 105.399 205.331C105.474 205.114 105.66 204.954 105.884 204.913L113.862 203.413L128.827 174.539C128.909 174.379 129.057 174.263 129.231 174.217C129.405 174.17 129.591 174.2 129.742 174.298L146.15 184.869C146.412 185.037 146.513 185.371 146.391 185.658L139.392 201.893L150.189 202.702C150.499 202.726 150.749 202.969 150.778 203.28C150.79 203.416 151.057 206.649 148.371 209.872C145.52 213.293 140.547 215.348 133.586 215.969C132.442 216.07 131.33 216.119 130.25 216.119L130.247 216.114ZM107.303 205.946C109.997 208.491 119.224 215.969 133.469 214.692C140.08 214.1 144.763 212.202 147.387 209.048C149.129 206.959 149.451 204.876 149.501 203.924L138.399 203.091C138.193 203.077 138.007 202.963 137.9 202.786C137.792 202.609 137.778 202.392 137.859 202.203L144.998 185.641L129.634 175.743L114.849 204.272C114.759 204.446 114.593 204.568 114.399 204.606L107.298 205.941L107.303 205.946Z" fill="#0BC3A7"/>
<path d="M128.073 180.542C128.073 180.542 135.047 191.685 145.858 189.122C156.667 186.56 155.171 175.563 154.077 166.835C152.98 158.107 151.11 145.926 151.11 145.926C151.11 145.926 133.955 146.651 131.125 153.316C128.297 159.981 135.973 166.519 131.125 169.896C126.276 173.274 126.883 161.328 120.618 166.307C115.343 170.5 118.145 180.714 128.071 180.545L128.073 180.542Z" fill="white"/>
<path d="M142.669 190.141C134.398 190.141 128.841 182.78 127.735 181.184C122.141 181.146 118.982 177.919 117.885 174.864C116.683 171.513 117.62 167.874 120.222 165.805C121.583 164.726 122.774 164.29 123.859 164.476C125.436 164.746 126.382 166.261 127.215 167.595C127.889 168.672 128.525 169.69 129.291 169.844C129.7 169.928 130.179 169.772 130.757 169.368C132.792 167.949 132.264 166 131.152 162.668C130.182 159.764 129.085 156.476 130.534 153.061C133.486 146.106 150.362 145.314 151.079 145.285C151.404 145.262 151.689 145.505 151.738 145.824C151.756 145.946 153.622 158.113 154.705 166.751L154.737 167.015C155.803 175.479 157.26 187.071 146.002 189.741C144.846 190.016 143.734 190.138 142.666 190.138L142.669 190.141ZM128.072 179.907C128.292 179.907 128.496 180.02 128.612 180.206C128.679 180.313 135.478 190.925 145.708 188.502C155.852 186.096 154.589 176.045 153.474 167.178L153.442 166.914C152.493 159.366 150.949 149.115 150.565 146.596C147.604 146.796 134.073 148.004 131.712 153.563C130.452 156.534 131.468 159.581 132.366 162.268C133.417 165.413 134.406 168.385 131.489 170.419C130.606 171.034 129.805 171.254 129.039 171.098C127.735 170.831 126.922 169.531 126.135 168.274C125.41 167.111 124.658 165.91 123.644 165.735C122.948 165.614 122.062 165.976 121.017 166.806C118.811 168.559 118.053 171.553 119.087 174.435C120.344 177.937 123.723 179.988 128.063 179.907H128.075H128.072Z" fill="#0BC3A7"/>
<path d="M128.21 177.766C127.989 177.766 127.775 177.652 127.658 177.446C127.037 176.373 126.393 175.264 125.519 174.414C124.607 173.523 123.513 173.033 122.517 173.082C122.171 173.111 121.867 172.824 121.852 172.473C121.838 172.122 122.11 171.823 122.462 171.808C123.8 171.759 125.246 172.368 126.41 173.503C127.409 174.478 128.097 175.662 128.762 176.811C128.939 177.116 128.834 177.507 128.529 177.684C128.428 177.742 128.317 177.771 128.21 177.771V177.766Z" fill="#0BC3A7"/>
<path d="M274.955 313.034H202.121L226.322 246.491H299.156L274.955 313.034Z" fill="url(#paint5_linear_697_6060)"/>
<path d="M180.102 305.087H278.11L274.954 313.615H176.43L180.102 305.087Z" fill="url(#paint6_linear_697_6060)"/>
<path d="M386.372 311.25H110.715V321.533H386.372V311.25Z" fill="#0BC3A7"/>
<path d="M449.12 516.663C448.879 516.663 448.647 516.527 448.54 516.291L360.176 324.403C360.028 324.084 360.168 323.704 360.49 323.556C360.809 323.411 361.19 323.547 361.338 323.869L449.701 515.758C449.849 516.077 449.71 516.457 449.387 516.605C449.3 516.645 449.21 516.663 449.12 516.663Z" fill="#0BC3A7"/>
<path d="M458.31 524.621C458.594 521.182 456.036 518.164 452.596 517.88C449.156 517.595 446.136 520.152 445.851 523.59C445.567 527.029 448.125 530.047 451.565 530.332C455.005 530.616 458.025 528.059 458.31 524.621Z" fill="#0BC3A7"/>
<path d="M78.612 516.663C78.522 516.663 78.432 516.645 78.3449 516.605C78.0255 516.457 77.8833 516.079 78.0313 515.757L166.395 323.869C166.543 323.547 166.92 323.408 167.242 323.556C167.562 323.704 167.704 324.081 167.556 324.403L79.1926 516.291C79.0852 516.526 78.8529 516.663 78.612 516.663Z" fill="#0BC3A7"/>
<path d="M81.7275 525.525C82.5205 522.167 80.4397 518.802 77.08 518.01C73.7202 517.217 70.3538 519.297 69.5608 522.655C68.7678 526.013 70.8486 529.377 74.2084 530.17C77.5681 530.962 80.9345 528.883 81.7275 525.525Z" fill="#0BC3A7"/>
<path d="M753.449 531H346.615C346.264 531 345.977 530.716 345.977 530.362C345.977 530.008 346.261 529.723 346.615 529.723H753.449C753.8 529.723 754.088 530.008 754.088 530.362C754.088 530.716 753.803 531 753.449 531Z" fill="#0BC3A7"/>
</g>
<defs>
<linearGradient id="paint0_linear_697_6060" x1="282.898" y1="160.603" x2="383.342" y2="160.603" gradientUnits="userSpaceOnUse">
<stop stop-color="#23CB84"/>
<stop offset="1" stop-color="#06E7CC"/>
</linearGradient>
<linearGradient id="paint1_linear_697_6060" x1="441.375" y1="257.294" x2="620.221" y2="257.294" gradientUnits="userSpaceOnUse">
<stop stop-color="#23CB84"/>
<stop offset="1" stop-color="#06E7CC"/>
</linearGradient>
<linearGradient id="paint2_linear_697_6060" x1="81.9883" y1="263.792" x2="183.5" y2="263.792" gradientUnits="userSpaceOnUse">
<stop stop-color="#23CB84"/>
<stop offset="1" stop-color="#06E7CC"/>
</linearGradient>
<linearGradient id="paint3_linear_697_6060" x1="100.32" y1="219.544" x2="106.96" y2="219.544" gradientUnits="userSpaceOnUse">
<stop stop-color="#23CB84"/>
<stop offset="1" stop-color="#06E7CC"/>
</linearGradient>
<linearGradient id="paint4_linear_697_6060" x1="155.777" y1="214.794" x2="160.703" y2="214.794" gradientUnits="userSpaceOnUse">
<stop stop-color="#23CB84"/>
<stop offset="1" stop-color="#06E7CC"/>
</linearGradient>
<linearGradient id="paint5_linear_697_6060" x1="202.121" y1="279.763" x2="299.156" y2="279.763" gradientUnits="userSpaceOnUse">
<stop stop-color="#23CB84"/>
<stop offset="1" stop-color="#06E7CC"/>
</linearGradient>
<linearGradient id="paint6_linear_697_6060" x1="176.43" y1="309.351" x2="278.11" y2="309.351" gradientUnits="userSpaceOnUse">
<stop stop-color="#23CB84"/>
<stop offset="1" stop-color="#06E7CC"/>
</linearGradient>
<clipPath id="clip0_697_6060">
<rect width="795" height="531" fill="white"/>
</clipPath>
</defs>
</svg>
