<svg width="521" height="520" viewBox="0 0 521 520" fill="none" xmlns="http://www.w3.org/2000/svg">
<g clip-path="url(#clip0_697_7129)">
<path d="M479.024 86.6494C478.677 86.6494 478.398 86.3681 478.398 86.0243V81.1681C478.398 80.8214 478.68 80.543 479.024 80.543C479.368 80.543 479.65 80.8243 479.65 81.1681V86.0243C479.65 86.3709 479.368 86.6494 479.024 86.6494Z" fill="#2C2C2C"/>
<path d="M479.024 97.9644C478.677 97.9644 478.398 97.683 478.398 97.3392V92.4831C478.398 92.1364 478.68 91.8579 479.024 91.8579C479.368 91.8579 479.65 92.1392 479.65 92.4831V97.3392C479.65 97.6859 479.368 97.9644 479.024 97.9644Z" fill="#2C2C2C"/>
<path d="M475.79 89.8802H470.93C470.583 89.8802 470.305 89.5988 470.305 89.255C470.305 88.9112 470.586 88.6299 470.93 88.6299H475.79C476.137 88.6299 476.416 88.9112 476.416 89.255C476.416 89.5988 476.134 89.8802 475.79 89.8802Z" fill="#2C2C2C"/>
<path d="M487.115 89.8802H482.255C481.908 89.8802 481.629 89.5988 481.629 89.255C481.629 88.9112 481.91 88.6299 482.255 88.6299H487.115C487.462 88.6299 487.74 88.9112 487.74 89.255C487.74 89.5988 487.459 89.8802 487.115 89.8802Z" fill="#2C2C2C"/>
<path d="M493.102 118.861C492.221 118.861 491.351 118.614 490.577 118.131C488.333 116.736 487.603 113.78 488.948 111.544C489.596 110.467 490.626 109.711 491.848 109.419C493.091 109.12 494.382 109.331 495.483 110.018C497.727 111.413 498.457 114.369 497.112 116.605C496.464 117.682 495.434 118.438 494.212 118.73C493.845 118.818 493.472 118.861 493.1 118.861H493.102ZM492.955 110.538C492.682 110.538 492.411 110.57 492.141 110.635C491.248 110.851 490.498 111.402 490.023 112.189C489.027 113.843 489.573 116.031 491.24 117.068C492.053 117.574 493.006 117.73 493.919 117.511C494.812 117.295 495.562 116.744 496.037 115.957C497.033 114.303 496.484 112.115 494.82 111.078C494.246 110.723 493.606 110.538 492.955 110.538Z" fill="#2C2C2C"/>
<path d="M386.268 491.645H153.09C143.043 491.645 135.925 483.546 137.193 473.558L194.61 21.2065C195.878 11.2185 205.052 3.12015 215.099 3.12015L436.572 0.540039C461.993 0.540039 465.443 11.2185 464.174 21.2065L406.758 473.558C405.489 483.546 396.315 491.645 386.268 491.645Z" fill="#2C2C2C"/>
<path d="M372.241 491.644H139.063C129.016 491.644 121.898 483.506 123.166 473.464L180.58 18.8051C181.848 8.76598 191.022 0.625 201.069 0.625H434.247C444.294 0.625 451.413 8.76314 450.144 18.8051L392.728 473.464C391.459 483.503 382.285 491.644 372.238 491.644H372.241Z" fill="white"/>
<path d="M372.241 492.272H139.063C134.046 492.272 129.567 490.323 126.445 486.785C123.288 483.208 121.903 478.451 122.543 473.388L179.957 18.7257C181.262 8.39956 190.732 0 201.069 0H434.247C439.264 0 443.743 1.94929 446.865 5.48699C450.022 9.06448 451.407 13.8212 450.767 18.8848L393.351 473.544C392.048 483.87 382.576 492.272 372.238 492.272H372.241ZM201.069 1.25311C191.344 1.25311 182.431 9.16109 181.203 18.8848L123.786 473.544C123.192 478.247 124.471 482.654 127.383 485.956C130.264 489.221 134.411 491.016 139.06 491.016H372.235C381.964 491.016 390.877 483.106 392.102 473.385L449.522 18.7257C450.116 14.023 448.836 9.61574 445.924 6.31388C443.043 3.04896 438.897 1.25311 434.247 1.25311H201.069Z" fill="#2C2C2C"/>
<path d="M136.452 474.092L191.275 39.9689C191.568 37.6502 193.686 35.772 196.004 35.772H430.433C432.754 35.772 434.398 37.6502 434.105 39.9689L379.282 474.092C378.989 476.411 376.87 478.289 374.552 478.289H140.123C137.803 478.289 136.159 476.411 136.452 474.092Z" fill="white"/>
<path d="M314.74 24.3744C312.747 24.3744 310.964 23.5987 309.718 22.1865C308.461 20.76 307.907 18.8704 308.163 16.8586C308.674 12.8009 312.397 9.49902 316.461 9.49902C318.454 9.49902 320.237 10.2748 321.483 11.687C322.74 13.1135 323.295 15.0031 323.039 17.0149C322.527 21.0726 318.804 24.3716 314.74 24.3716V24.3744ZM316.461 10.755C313.008 10.755 309.843 13.5653 309.408 17.0177C309.201 18.6658 309.644 20.2087 310.662 21.3596C311.666 22.4962 313.114 23.1242 314.743 23.1242C318.196 23.1242 321.361 20.3139 321.796 16.8614C322.003 15.2133 321.56 13.6704 320.542 12.5196C319.538 11.383 318.09 10.755 316.461 10.755Z" fill="#2C2C2C"/>
<path d="M414.465 195.821C414.439 195.821 414.411 195.821 414.385 195.816C414.041 195.773 413.8 195.46 413.842 195.117L433.484 39.8894C433.604 38.9432 433.351 38.0595 432.771 37.4031C432.199 36.7552 431.369 36.3972 430.436 36.3972H196.006C193.996 36.3972 192.153 38.0339 191.897 40.0457L182.814 111.985C182.771 112.329 182.456 112.573 182.114 112.527C181.77 112.485 181.529 112.172 181.571 111.828L190.654 39.8894C190.984 37.2724 193.384 35.144 196.006 35.144H430.436C431.733 35.144 432.896 35.6527 433.709 36.5733C434.531 37.5054 434.892 38.7386 434.727 40.0457L415.085 195.273C415.045 195.588 414.775 195.821 414.465 195.821Z" fill="#2C2C2C"/>
<path d="M156.116 313.765C156.09 313.765 156.065 313.765 156.039 313.759C155.695 313.716 155.45 313.404 155.493 313.063L157.265 298.463C157.307 298.119 157.623 297.878 157.962 297.917C158.306 297.96 158.55 298.273 158.508 298.614L156.736 313.213C156.696 313.532 156.426 313.765 156.116 313.765Z" fill="#2C2C2C"/>
<path d="M145.096 406.288C145.071 406.288 145.042 406.288 145.017 406.282C144.673 406.239 144.431 405.927 144.474 405.583L153.895 330.973C153.938 330.629 154.256 330.396 154.595 330.43C154.939 330.473 155.181 330.785 155.138 331.129L145.716 405.739C145.677 406.055 145.406 406.288 145.096 406.288Z" fill="#2C2C2C"/>
<path d="M203.016 479.122L140.119 478.914C138.823 478.914 137.66 478.406 136.846 477.485C136.024 476.553 135.663 475.32 135.828 474.013L141.453 429.469C141.496 429.125 141.811 428.892 142.153 428.926C142.497 428.969 142.739 429.281 142.696 429.625L137.071 474.169C136.951 475.115 137.205 475.999 137.785 476.655C138.356 477.303 139.187 477.661 140.119 477.661L203.016 477.869C203.363 477.869 203.642 478.15 203.642 478.497C203.642 478.843 203.36 479.122 203.016 479.122Z" fill="#2C2C2C"/>
<path d="M399.573 82.8847H273.467C270.93 82.8847 268.499 81.8078 266.801 79.9267C265.101 78.0456 264.27 75.5223 264.526 73.0019C264.992 68.3986 268.837 64.9263 273.467 64.9263H399.573C402.11 64.9263 404.538 66.0032 406.239 67.8843C407.939 69.7654 408.77 72.2887 408.514 74.8091C408.047 79.4124 404.203 82.8847 399.573 82.8847ZM273.467 66.1794C269.483 66.1794 266.175 69.1658 265.772 73.1269C265.553 75.295 266.264 77.4688 267.728 79.0856C269.193 80.7024 271.283 81.6316 273.467 81.6316H399.573C403.557 81.6316 406.864 78.6452 407.268 74.6841C407.487 72.5131 406.776 70.3422 405.312 68.7226C403.847 67.1057 401.757 66.1765 399.576 66.1765H273.47L273.467 66.1794Z" fill="#2C2C2C"/>
<path d="M396.252 115.656H295.217C292.68 115.656 290.252 114.579 288.551 112.698C286.851 110.817 286.02 108.294 286.276 105.773C286.742 101.17 290.587 97.6978 295.217 97.6978H396.252C398.788 97.6978 401.217 98.7747 402.918 100.656C404.618 102.537 405.446 105.06 405.193 107.581C404.726 112.184 400.882 115.656 396.252 115.656ZM295.217 98.948C291.233 98.948 287.925 101.934 287.522 105.896C287.303 108.066 288.014 110.237 289.478 111.857C290.943 113.474 293.033 114.403 295.214 114.403H396.249C400.233 114.403 403.541 111.417 403.941 107.456C404.16 105.285 403.45 103.114 401.985 101.494C400.52 99.8772 398.43 98.948 396.249 98.948H295.214H295.217Z" fill="#2C2C2C"/>
<path d="M237.914 342.435C231.274 343.376 224.986 337.821 223.9 330.052L210.406 233.832L234.348 230.437L247.868 326.83C248.943 334.53 244.498 341.503 237.914 342.438V342.435Z" fill="white"/>
<path d="M236.457 343.163C233.934 343.163 231.426 342.302 229.253 340.668C226.057 338.261 223.879 334.425 223.281 330.137L209.787 233.917C209.739 233.576 209.978 233.258 210.319 233.21L234.261 229.814C234.426 229.789 234.594 229.834 234.728 229.933C234.861 230.033 234.949 230.184 234.972 230.348L248.492 326.742C249.612 334.758 244.909 342.077 238.007 343.055C237.492 343.129 236.977 343.163 236.46 343.163H236.457ZM211.116 234.361L224.524 329.961C225.079 333.919 227.078 337.457 230.01 339.665C232.359 341.432 235.137 342.197 237.827 341.813C244.047 340.932 248.273 334.246 247.246 326.912L233.815 231.141L211.113 234.361H211.116Z" fill="#2C2C2C"/>
<path d="M271.068 164.436L204.309 178.499L175.499 190.394L161.709 200.748L161.609 200.833C159.039 202.544 157.512 208.412 157.967 215.254C158.416 222.02 160.734 227.586 163.466 229.041L163.361 229.047L177.62 237.188L207.56 244.94L276.246 249.648L344.549 294.524L345.064 294.766C327.944 283.249 313.745 247.554 310.895 204.564C308.049 161.626 317.39 124.501 332.815 110.916L332.804 110.902L271.85 163.754L271.07 164.431L271.068 164.436Z" fill="white"/>
<path d="M357.928 298.636C380.308 297.135 395.547 252.67 391.963 199.321C388.379 145.973 367.331 103.942 344.95 105.443C322.569 106.944 307.331 151.408 310.915 204.757C314.498 258.106 335.547 300.137 357.928 298.636Z" fill="white"/>
<path d="M356.753 299.31C346.037 299.31 335.421 289.819 326.739 272.42C317.835 254.578 311.988 230.496 310.271 204.613C307.671 165.405 315.176 129.633 329.392 113.479C334.142 108.083 339.388 105.168 344.988 104.821C353.75 104.284 362.517 110.101 370.34 121.671C377.913 132.87 384.048 148.564 388.08 167.056C388.154 167.395 387.938 167.727 387.602 167.801C387.264 167.878 386.931 167.662 386.857 167.323C378.806 130.415 362.526 106.04 346.097 106.04C345.753 106.04 345.412 106.052 345.068 106.071C339.812 106.398 334.855 109.169 330.334 114.306C316.328 130.224 308.943 165.641 311.522 204.53C315.031 257.454 335.791 299.386 357.802 298.025C363.057 297.699 368.014 294.928 372.536 289.791C386.542 273.872 393.927 238.456 391.348 199.566C390.807 191.414 389.843 183.344 388.481 175.575C388.421 175.234 388.649 174.91 388.99 174.851C389.334 174.794 389.656 175.018 389.715 175.359C391.086 183.171 392.056 191.286 392.599 199.484C395.198 238.691 387.693 274.463 373.477 290.62C368.728 296.016 363.481 298.929 357.882 299.278C357.506 299.301 357.131 299.313 356.756 299.313L356.753 299.31Z" fill="#2C2C2C"/>
<path d="M356.133 288.08C346.634 288.08 337.227 279.677 329.54 264.273C321.668 248.497 316.496 227.203 314.977 204.317C312.679 169.648 319.319 138.01 331.895 123.717C336.104 118.932 340.759 116.349 345.73 116.039C359.016 115.207 372.371 131.435 380.584 158.375C380.686 158.705 380.498 159.057 380.166 159.157C379.836 159.256 379.483 159.071 379.384 158.739C371.347 132.384 358.496 116.511 345.807 117.29C341.183 117.577 336.817 120.017 332.836 124.544C320.468 138.598 313.95 169.881 316.228 204.232C319.277 250.222 337.065 286.821 356.13 286.824C356.437 286.824 356.744 286.815 357.054 286.795C374.643 285.699 387.548 253.123 387.068 211.02C387.065 210.674 387.341 210.39 387.687 210.387C388.017 210.395 388.316 210.659 388.322 211.006C388.555 231.525 385.592 250.62 379.978 264.776C374.25 279.22 366.137 287.483 357.131 288.046C356.798 288.066 356.462 288.077 356.13 288.077L356.133 288.08Z" fill="#2C2C2C"/>
<path d="M340.732 225.224C345.914 224.876 349.443 214.581 348.613 202.228C347.783 189.875 342.909 180.143 337.727 180.491C332.545 180.838 329.016 191.134 329.846 203.487C330.676 215.839 335.55 225.571 340.732 225.224Z" fill="white"/>
<path d="M340.456 225.867C334.959 225.867 330.053 216.161 329.212 203.49C328.603 194.292 330.386 185.873 333.759 182.04C334.945 180.69 336.273 179.962 337.703 179.872C343.297 179.499 348.382 189.345 349.238 202.237C349.846 211.438 348.063 219.858 344.69 223.688C343.505 225.038 342.177 225.765 340.746 225.856C340.649 225.862 340.553 225.865 340.456 225.865V225.867ZM337.99 181.116C337.919 181.116 337.848 181.116 337.777 181.122C336.694 181.19 335.656 181.775 334.697 182.867C331.535 186.461 329.871 194.525 330.46 203.408C331.242 215.195 335.917 224.927 340.664 224.609C341.747 224.54 342.785 223.955 343.743 222.864C346.906 219.269 348.569 211.205 347.981 202.322C347.21 190.712 342.663 181.116 337.988 181.116H337.99Z" fill="#2C2C2C"/>
<path d="M345.063 295.397C344.972 295.397 344.884 295.377 344.796 295.337L344.281 295.095C344.255 295.084 344.227 295.07 344.204 295.053L276.041 250.267L207.516 245.57C207.477 245.568 207.44 245.562 207.403 245.551L177.463 237.799C177.409 237.785 177.358 237.765 177.31 237.736L163.051 229.598C162.968 229.55 162.897 229.485 162.846 229.411C159.977 227.572 157.784 221.994 157.34 215.302C156.871 208.244 158.435 202.24 161.228 200.342L161.299 200.279L175.12 189.899C175.162 189.868 175.208 189.842 175.256 189.822L204.067 177.928C204.101 177.914 204.138 177.902 204.178 177.894L270.777 163.862L332.391 110.439C332.65 110.214 333.042 110.24 333.27 110.495C333.381 110.62 333.443 110.791 333.435 110.956C333.426 111.121 333.355 111.285 333.23 111.396C317.469 125.274 308.748 162.706 311.52 204.533C314.299 246.429 327.918 282.488 345.413 294.257C345.686 294.439 345.768 294.8 345.609 295.087C345.495 295.289 345.282 295.402 345.063 295.402V295.397ZM207.662 244.323L276.291 249.026C276.399 249.034 276.502 249.068 276.593 249.128L338.101 289.543C323.558 273.912 312.715 241.476 310.269 204.613C307.843 168.019 314.208 134.702 326.399 117.29L271.477 164.914C271.397 164.985 271.3 165.033 271.195 165.053L204.493 179.104L175.811 190.948L162.018 201.314C161.998 201.331 161.979 201.345 161.956 201.359C159.578 202.942 158.162 208.773 158.589 215.217C159.01 221.54 161.182 227.123 163.759 228.493C163.847 228.538 163.918 228.604 163.975 228.68L177.856 236.605L207.656 244.32L207.662 244.323Z" fill="#2C2C2C"/>
<path d="M271.251 164.277L332.803 110.908L332.814 110.922C317.389 124.507 308.047 161.635 310.894 204.57C313.744 247.557 327.943 283.252 345.062 294.772L344.548 294.53L276.359 249.728L274.775 248.696C266.869 243.445 260.291 227.305 259.046 207.864C257.766 187.905 263.388 171.017 270.481 164.922L271.246 164.28L271.251 164.277Z" fill="white"/>
<path d="M345.062 295.397C344.971 295.397 344.883 295.377 344.795 295.337L344.28 295.096C344.254 295.084 344.226 295.07 344.203 295.053L276.014 250.251L274.433 249.219C266.084 243.673 259.651 227.07 258.422 207.901C257.026 186.12 263.484 170.105 270.076 164.445L270.844 163.8L332.393 110.433C332.652 110.209 333.044 110.234 333.271 110.49C333.382 110.615 333.445 110.786 333.436 110.95C333.428 111.115 333.357 111.28 333.232 111.391C317.471 125.269 308.749 162.7 311.522 204.528C314.3 246.423 327.919 282.482 345.415 294.252C345.688 294.434 345.77 294.795 345.611 295.082C345.497 295.283 345.284 295.397 345.065 295.397H345.062ZM326.398 117.287L271.66 164.749C271.66 164.749 271.655 164.755 271.652 164.755L270.887 165.397C264.326 171.032 258.366 187.416 259.674 207.818C260.879 226.618 267.088 242.834 275.124 248.171L276.702 249.199L338.1 289.541C323.557 273.909 312.714 241.473 310.268 204.61C307.842 168.017 314.207 134.7 326.398 117.287Z" fill="#2C2C2C"/>
<path d="M176.853 237.378C176.748 237.378 176.639 237.353 176.543 237.296L163.055 229.596C162.972 229.547 162.901 229.482 162.85 229.408C159.98 227.57 157.788 221.992 157.344 215.3C156.875 208.241 158.439 202.237 161.232 200.339L161.303 200.277L175.124 189.896C175.4 189.689 175.795 189.746 176.002 190.022C176.21 190.297 176.156 190.689 175.877 190.9L162.022 201.314C162.002 201.331 161.982 201.345 161.96 201.359C159.582 202.942 158.166 208.773 158.595 215.217C159.014 221.54 161.189 227.123 163.766 228.493C163.854 228.538 163.925 228.604 163.982 228.681L177.168 236.208C177.47 236.378 177.572 236.762 177.402 237.063C177.285 237.265 177.075 237.378 176.856 237.378H176.853Z" fill="#2C2C2C"/>
<path d="M177.789 237.168C173.33 234.832 169.75 225.512 169.019 214.479C168.242 202.789 171.396 192.417 175.955 190.229L161.713 200.751L161.613 200.836C159.043 202.547 157.515 208.415 157.97 215.257C158.42 222.023 160.737 227.589 163.47 229.044L163.365 229.05L177.789 237.165V237.168Z" fill="white"/>
<path d="M177.788 237.793C177.692 237.793 177.592 237.77 177.498 237.722C177.387 237.662 177.274 237.6 177.163 237.535L163.057 229.598C162.972 229.55 162.901 229.485 162.85 229.408C159.98 227.569 157.788 221.991 157.344 215.3C156.875 208.241 158.439 202.237 161.232 200.339L161.303 200.277L173.824 191.024C174.41 190.436 175.03 189.976 175.684 189.663C175.974 189.524 176.324 189.629 176.492 189.905C176.659 190.183 176.588 190.539 176.327 190.732L174.589 192.016C171.108 195.619 168.998 204.746 169.641 214.439C170.343 225.018 173.668 233.966 177.783 236.449L178.093 236.625C178.391 236.793 178.499 237.168 178.334 237.469C178.221 237.677 178.004 237.796 177.783 237.796L177.788 237.793ZM163.976 228.678L173.929 234.278C171.029 230.024 168.944 222.827 168.392 214.521C167.861 206.491 169.143 198.975 171.572 194.247L162.022 201.314C162.002 201.331 161.982 201.345 161.96 201.359C159.582 202.942 158.166 208.773 158.595 215.217C159.014 221.54 161.189 227.123 163.766 228.493C163.851 228.538 163.922 228.604 163.979 228.678H163.976Z" fill="#2C2C2C"/>
<path d="M206.465 244.661L207.753 244.943C200.726 243.471 194.811 229.331 193.685 212.376C192.539 195.082 197.302 180.392 204.306 178.502L203.342 178.9L176.027 190.192C171.426 192.3 168.232 202.72 169.012 214.479C169.765 225.825 173.667 235.361 178.297 237.353L206.465 244.661Z" fill="white"/>
<path d="M207.754 245.568C207.711 245.568 207.669 245.562 207.626 245.554C207.595 245.548 207.561 245.54 207.529 245.531L206.335 245.272C206.335 245.272 206.318 245.27 206.309 245.267L178.141 237.958C178.11 237.95 178.082 237.941 178.05 237.927C173.136 235.813 169.164 226.186 168.39 214.521C167.599 202.615 170.773 191.914 175.77 189.624L202.558 178.548C203.073 178.261 203.602 178.045 204.145 177.897C204.467 177.812 204.796 177.988 204.902 178.3C205.007 178.613 204.853 178.954 204.546 179.082L202.996 179.721C197.03 183.12 193.282 196.785 194.311 212.333C195.423 229.115 201.213 242.823 207.797 244.312L207.888 244.332C208.226 244.406 208.439 244.738 208.368 245.076C208.306 245.372 208.044 245.571 207.757 245.571L207.754 245.568ZM178.503 236.759L203.443 243.232C198.113 238.325 194.001 226.569 193.063 212.419C192.17 198.973 194.886 186.851 199.575 181.139L176.27 190.775C171.817 192.815 168.896 203.215 169.641 214.442C170.369 225.444 174.095 234.816 178.505 236.762L178.503 236.759Z" fill="#2C2C2C"/>
<path d="M337.738 180.496C332.554 180.82 328.794 191.112 329.835 203.447C331.581 224.134 339.649 225.299 340.63 225.364C340.647 225.364 340.647 225.39 340.63 225.395L319.603 231.113C317.845 222.716 316.594 213.686 315.968 204.252C315.368 195.21 315.388 186.464 315.949 178.226L337.741 180.491L337.738 180.496Z" fill="#2C2C2C"/>
<path d="M319.601 231.741C319.487 231.741 319.373 231.709 319.274 231.647C319.126 231.556 319.023 231.411 318.986 231.241C317.181 222.622 315.955 213.555 315.341 204.294C314.752 195.412 314.746 186.629 315.321 178.186C315.332 178.016 315.412 177.86 315.543 177.749C315.673 177.638 315.841 177.584 316.012 177.607L337.801 179.871C338.125 179.905 338.37 180.181 338.364 180.508C338.358 180.835 338.103 181.099 337.776 181.119C336.652 181.19 335.574 181.812 334.571 182.971C331.391 186.651 329.739 194.858 330.458 203.391C332.162 223.588 339.803 224.679 340.671 224.736C340.978 224.756 341.239 225.009 341.265 225.316C341.293 225.623 341.08 225.921 340.781 225.998L319.763 231.712C319.709 231.726 319.652 231.735 319.598 231.735L319.601 231.741ZM316.529 178.919C316 187.109 316.023 195.613 316.592 204.212C317.186 213.183 318.361 221.969 320.078 230.334L338.384 225.359C335.372 223.892 330.527 219.102 329.21 203.502C328.451 194.517 330.183 186.137 333.624 182.156C334.079 181.63 334.553 181.193 335.045 180.846L316.529 178.919Z" fill="#2C2C2C"/>
<path d="M327.637 430.156L324.338 418.134L310.713 418.753C309.45 416.105 307.989 413.596 306.334 411.249L313.548 399.712L304.67 390.946L293.175 398.283C290.784 396.646 288.258 395.208 285.625 393.987L286.094 380.376L274.014 377.216L267.746 389.289C264.879 389.065 261.97 389.088 259.044 389.352L252.637 377.332L240.593 380.626L241.213 394.228C238.56 395.49 236.046 396.947 233.694 398.598L222.137 391.398L213.355 400.261L220.707 411.735C219.066 414.124 217.627 416.645 216.404 419.27L202.771 418.802L199.605 430.861L211.7 437.118C211.476 439.98 211.498 442.884 211.763 445.805L199.722 452.201L203.021 464.223L216.646 463.604C217.908 466.252 219.37 468.761 221.025 471.108L213.81 482.645L222.689 491.411L234.183 484.074C236.575 485.714 239.1 487.149 241.734 488.371L241.264 501.982L253.345 505.141L259.613 493.068C262.479 493.292 265.388 493.27 268.312 493.005L274.722 505.025L286.765 501.732L286.145 488.129C288.799 486.868 291.313 485.41 293.664 483.759L305.222 490.959L314.003 482.097L306.652 470.623C308.293 468.233 309.732 465.712 310.955 463.087L324.591 463.556L327.756 451.496L315.661 445.239C315.886 442.378 315.863 439.474 315.599 436.553L327.639 430.156H327.637ZM272.168 472.129C255.043 476.809 237.36 466.747 232.67 449.652C227.981 432.557 238.062 414.906 255.188 410.223C272.313 405.543 289.996 415.605 294.685 432.7C299.375 449.794 289.293 467.446 272.168 472.129Z" fill="white"/>
<path d="M253.338 505.767C253.284 505.767 253.233 505.761 253.179 505.747L241.098 502.587C240.814 502.513 240.621 502.252 240.632 501.959L241.087 488.76C238.69 487.624 236.363 486.3 234.168 484.822L223.023 491.937C222.776 492.093 222.454 492.059 222.244 491.855L213.366 483.089C213.158 482.884 213.118 482.56 213.275 482.31L220.27 471.126C218.78 468.972 217.432 466.659 216.258 464.246L203.045 464.846C202.758 464.869 202.491 464.667 202.411 464.386L199.112 452.36C199.036 452.079 199.164 451.781 199.422 451.641L211.096 445.438C210.874 442.762 210.854 440.088 211.039 437.476L199.311 431.41C199.053 431.276 198.919 430.978 198.993 430.694L202.158 418.634C202.232 418.353 202.508 418.151 202.787 418.168L216.007 418.623C217.142 416.233 218.467 413.914 219.952 411.718L212.825 400.593C212.666 400.346 212.703 400.022 212.908 399.815L221.689 390.952C221.894 390.745 222.218 390.708 222.466 390.861L233.67 397.846C235.829 396.357 238.144 395.013 240.564 393.839L239.964 380.651C239.949 380.359 240.143 380.097 240.424 380.018L252.468 376.724C252.749 376.648 253.048 376.776 253.187 377.034L259.401 388.687C262.083 388.466 264.762 388.446 267.378 388.63L273.458 376.923C273.595 376.665 273.89 376.534 274.175 376.605L286.255 379.765C286.54 379.839 286.733 380.1 286.722 380.393L286.267 393.592C288.664 394.726 290.987 396.05 293.186 397.53L304.33 390.415C304.578 390.259 304.899 390.293 305.11 390.497L313.988 399.263C314.196 399.468 314.235 399.792 314.079 400.042L307.083 411.226C308.573 413.38 309.921 415.693 311.096 418.106L324.308 417.506C324.598 417.495 324.863 417.685 324.942 417.966L328.241 429.992C328.318 430.273 328.19 430.571 327.931 430.711L316.257 436.914C316.479 439.59 316.499 442.264 316.314 444.876L328.042 450.942C328.301 451.076 328.435 451.374 328.361 451.658L325.195 463.718C325.122 463.994 324.874 464.184 324.59 464.184C324.581 464.184 324.576 464.184 324.567 464.184L311.346 463.729C310.209 466.122 308.883 468.441 307.402 470.634L314.528 481.759C314.688 482.006 314.651 482.33 314.446 482.537L305.664 491.4C305.459 491.608 305.135 491.644 304.888 491.491L293.683 484.509C291.528 485.995 289.213 487.342 286.79 488.516L287.39 501.703C287.404 501.996 287.211 502.258 286.929 502.337L274.886 505.63C274.604 505.704 274.306 505.579 274.166 505.321L267.952 493.665C265.271 493.886 262.592 493.906 259.976 493.722L253.895 505.429C253.785 505.639 253.568 505.767 253.338 505.767ZM241.903 501.502L253.014 504.409L259.051 492.778C259.168 492.554 259.41 492.42 259.657 492.443C262.47 492.665 265.359 492.642 268.251 492.38C268.498 492.355 268.743 492.488 268.86 492.71L275.034 504.286L286.113 501.257L285.516 488.158C285.504 487.905 285.644 487.672 285.871 487.564C288.496 486.317 290.996 484.865 293.299 483.245C293.504 483.1 293.777 483.091 293.99 483.225L305.121 490.161L313.197 482.009L306.116 470.958C305.98 470.745 305.986 470.475 306.128 470.265C307.743 467.915 309.173 465.409 310.379 462.82C310.484 462.593 310.715 462.428 310.968 462.459L324.101 462.911L327.013 451.82L315.364 445.794C315.14 445.677 315.009 445.438 315.029 445.188C315.248 442.381 315.228 439.494 314.966 436.607C314.944 436.357 315.074 436.115 315.296 435.999L326.893 429.838L323.859 418.779L310.735 419.376C310.49 419.393 310.248 419.248 310.14 419.021C308.892 416.404 307.436 413.909 305.815 411.604C305.67 411.397 305.661 411.127 305.795 410.911L312.742 399.801L304.578 391.739L293.507 398.809C293.294 398.942 293.023 398.94 292.816 398.797C290.458 397.183 287.95 395.754 285.357 394.552C285.129 394.447 284.984 394.214 284.993 393.964L285.445 380.853L274.334 377.946L268.297 389.577C268.18 389.801 267.938 389.932 267.691 389.912C264.878 389.693 261.986 389.713 259.097 389.975C258.849 389.994 258.605 389.867 258.488 389.645L252.314 378.069L241.235 381.098L241.832 394.197C241.843 394.45 241.704 394.683 241.477 394.791C238.857 396.036 236.358 397.488 234.049 399.11C233.844 399.255 233.571 399.261 233.357 399.13L222.227 392.194L214.15 400.346L221.231 411.397C221.368 411.607 221.362 411.88 221.22 412.087C219.602 414.443 218.172 416.949 216.969 419.532C216.863 419.759 216.63 419.916 216.38 419.893L203.247 419.441L200.335 430.532L211.983 436.559C212.208 436.675 212.339 436.914 212.319 437.164C212.1 439.971 212.12 442.858 212.382 445.745C212.404 445.995 212.273 446.237 212.052 446.353L200.455 452.514L203.489 463.573L216.613 462.976C216.861 462.962 217.099 463.104 217.207 463.331C218.456 465.948 219.912 468.443 221.533 470.748C221.678 470.955 221.686 471.225 221.553 471.441L214.605 482.552L222.77 490.613L233.841 483.543C234.054 483.407 234.324 483.413 234.532 483.555C236.887 485.169 239.395 486.595 241.991 487.8C242.219 487.905 242.361 488.138 242.352 488.391L241.9 501.502H241.903ZM263.687 473.899C249.286 473.899 236.051 464.337 232.066 449.817C229.754 441.386 230.869 432.563 235.203 424.971C239.54 417.378 246.576 411.925 255.022 409.618C272.451 404.853 290.515 415.133 295.287 432.535C297.599 440.966 296.484 449.789 292.148 457.381C287.811 464.974 280.772 470.427 272.329 472.734C269.443 473.521 266.539 473.899 263.684 473.899H263.687ZM263.67 409.709C260.92 409.709 258.13 410.07 255.354 410.831C247.232 413.051 240.464 418.293 236.295 425.596C232.126 432.896 231.054 441.383 233.278 449.488C237.868 466.224 255.243 476.113 272.005 471.526C280.124 469.307 286.895 464.065 291.064 456.762C295.233 449.459 296.305 440.974 294.081 432.87C290.251 418.907 277.522 409.709 263.67 409.709Z" fill="#2C2C2C"/>
<path d="M425.656 421.152L426.199 412.07L416.638 409.314C416.388 407.189 415.964 405.111 415.372 403.105L423.065 396.817L418.987 388.685L409.321 391.071C408.052 389.381 406.645 387.798 405.112 386.34L408.633 377.043L401.025 372.036L393.859 378.915C391.931 378.091 389.915 377.426 387.83 376.926L386.223 367.123L377.126 366.586L374.362 376.131C372.232 376.384 370.153 376.804 368.14 377.395L361.843 369.72L353.693 373.795L356.079 383.442C354.384 384.709 352.797 386.116 351.336 387.645L342.022 384.135L337.003 391.731L343.893 398.88C343.066 400.804 342.4 402.818 341.897 404.898L332.074 406.507L331.531 415.588L341.092 418.344C341.342 420.47 341.766 422.547 342.358 424.553L334.665 430.841L338.743 438.974L348.409 436.587C349.678 438.278 351.085 439.86 352.618 441.318L349.097 450.616L356.705 455.622L363.871 448.743C365.799 449.567 367.815 450.232 369.9 450.732L371.51 460.535L380.607 461.073L383.371 451.528C385.501 451.275 387.58 450.854 389.593 450.263L395.889 457.938L404.04 453.864L401.651 444.217C403.346 442.949 404.933 441.543 406.395 440.014L415.708 443.523L420.727 435.928L413.837 428.779C414.664 426.855 415.33 424.84 415.833 422.76L425.656 421.152ZM377.467 437.207C364.534 436.442 354.674 425.357 355.445 412.448C356.216 399.539 367.326 389.693 380.26 390.458C393.194 391.222 403.053 402.307 402.282 415.216C401.512 428.125 390.401 437.971 377.467 437.207Z" fill="white"/>
<path d="M380.609 461.697C380.609 461.697 380.583 461.697 380.572 461.697L371.474 461.16C371.181 461.143 370.94 460.925 370.894 460.638L369.353 451.243C367.513 450.78 365.721 450.189 364.015 449.482L357.147 456.077C356.937 456.279 356.613 456.31 356.368 456.148L348.761 451.141C348.516 450.979 348.414 450.67 348.519 450.397L351.892 441.486C350.552 440.181 349.301 438.775 348.164 437.294L338.898 439.582C338.614 439.65 338.318 439.516 338.187 439.255L334.109 431.123C333.979 430.861 334.047 430.543 334.272 430.358L341.646 424.331C341.145 422.555 340.77 420.708 340.525 418.83L331.359 416.19C331.078 416.108 330.89 415.844 330.907 415.551L331.451 406.469C331.468 406.177 331.687 405.935 331.974 405.89L341.39 404.347C341.853 402.511 342.448 400.721 343.156 399.019L336.552 392.165C336.348 391.955 336.319 391.631 336.481 391.387L341.501 383.791C341.663 383.547 341.97 383.447 342.246 383.55L351.172 386.914C352.478 385.579 353.888 384.328 355.373 383.192L353.083 373.945C353.012 373.661 353.149 373.366 353.41 373.235L361.561 369.16C361.822 369.029 362.141 369.098 362.326 369.322L368.36 376.679C370.143 376.176 371.992 375.801 373.872 375.559L376.522 366.41C376.605 366.128 376.869 365.944 377.162 365.958L386.259 366.495C386.552 366.512 386.794 366.731 386.839 367.018L388.381 376.412C390.218 376.875 392.009 377.466 393.721 378.174L400.589 371.578C400.8 371.377 401.124 371.345 401.368 371.507L408.976 376.514C409.22 376.676 409.323 376.986 409.217 377.259L405.845 386.17C407.184 387.471 408.435 388.88 409.573 390.361L418.838 388.073C419.122 388.002 419.418 388.139 419.549 388.4L423.627 396.533C423.758 396.794 423.689 397.112 423.465 397.297L416.091 403.324C416.591 405.103 416.967 406.947 417.208 408.825L426.374 411.465C426.656 411.547 426.843 411.812 426.826 412.104L426.283 421.186C426.266 421.478 426.047 421.72 425.76 421.765L416.344 423.308C415.88 425.144 415.286 426.931 414.578 428.636L421.181 435.49C421.386 435.7 421.414 436.024 421.252 436.269L416.233 443.864C416.071 444.108 415.764 444.211 415.488 444.106L406.561 440.744C405.256 442.082 403.845 443.333 402.361 444.466L404.65 453.713C404.721 453.997 404.585 454.292 404.323 454.423L396.173 458.498C395.911 458.629 395.593 458.56 395.408 458.336L389.373 450.979C387.593 451.479 385.742 451.854 383.862 452.099L381.211 461.248C381.135 461.518 380.887 461.7 380.609 461.7V461.697ZM372.049 459.939L380.145 460.419L382.77 451.354C382.841 451.113 383.049 450.937 383.299 450.905C385.395 450.658 387.454 450.238 389.419 449.661C389.66 449.59 389.922 449.669 390.081 449.865L396.062 457.154L403.316 453.528L401.05 444.367C400.99 444.123 401.081 443.867 401.283 443.716C402.944 442.475 404.514 441.085 405.95 439.582C406.123 439.4 406.391 439.34 406.624 439.428L415.468 442.759L419.936 436.002L413.392 429.213C413.216 429.031 413.167 428.764 413.267 428.531C414.075 426.65 414.734 424.661 415.229 422.615C415.289 422.371 415.488 422.183 415.738 422.143L425.066 420.615L425.549 412.533L416.469 409.916C416.227 409.845 416.051 409.638 416.02 409.388C415.772 407.299 415.354 405.242 414.777 403.281C414.706 403.04 414.785 402.778 414.982 402.619L422.287 396.649L418.659 389.412L409.479 391.679C409.234 391.739 408.978 391.648 408.828 391.446C407.582 389.787 406.189 388.221 404.687 386.792C404.505 386.619 404.445 386.351 404.534 386.118L407.875 377.29L401.107 372.834L394.302 379.367C394.12 379.54 393.852 379.589 393.622 379.492C391.736 378.688 389.743 378.029 387.693 377.537C387.448 377.477 387.26 377.278 387.22 377.028L385.693 367.72L377.597 367.239L374.972 376.304C374.901 376.545 374.693 376.722 374.443 376.753C372.35 377 370.291 377.418 368.326 377.997C368.084 378.068 367.823 377.989 367.664 377.793L361.683 370.504L354.428 374.13L356.695 383.291C356.755 383.536 356.664 383.791 356.462 383.942C354.798 385.186 353.228 386.576 351.795 388.076C351.622 388.258 351.354 388.321 351.121 388.23L342.277 384.897L337.809 391.657L344.353 398.445C344.529 398.627 344.578 398.894 344.478 399.127C343.67 401.005 343.011 402.994 342.516 405.043C342.456 405.287 342.257 405.475 342.007 405.515L332.679 407.043L332.196 415.125L341.276 417.742C341.518 417.813 341.694 418.02 341.725 418.27C341.973 420.362 342.391 422.416 342.968 424.377C343.039 424.618 342.959 424.88 342.763 425.039L335.457 431.009L339.086 438.246L348.266 435.979C348.511 435.916 348.766 436.01 348.917 436.212C350.16 437.868 351.553 439.434 353.058 440.866C353.24 441.04 353.299 441.307 353.211 441.54L349.87 450.368L356.641 454.824L363.446 448.291C363.628 448.115 363.896 448.067 364.126 448.166C366.008 448.97 368.002 449.629 370.052 450.121C370.297 450.181 370.485 450.38 370.524 450.63L372.052 459.939H372.049ZM378.871 437.874C378.393 437.874 377.915 437.86 377.432 437.831C371.011 437.451 365.121 434.598 360.85 429.798C356.578 424.996 354.437 418.822 354.821 412.411C355.611 399.178 367.044 389.054 380.299 389.832C386.72 390.21 392.609 393.066 396.881 397.865C401.152 402.668 403.294 408.842 402.91 415.253C402.148 428.005 391.506 437.874 378.868 437.874H378.871ZM377.506 436.581C390.07 437.323 400.911 427.721 401.658 415.179C402.022 409.104 399.992 403.25 395.945 398.698C391.896 394.146 386.316 391.443 380.228 391.083C367.649 390.338 356.823 399.942 356.075 412.485C355.711 418.56 357.741 424.414 361.788 428.966C365.838 433.518 371.417 436.22 377.506 436.581Z" fill="#2C2C2C"/>
<path d="M452.039 482.531L456.197 509.759L466.255 504.647L463.38 477.479L452.039 482.531Z" fill="white"/>
<path d="M456.195 510.384C456.095 510.384 455.999 510.361 455.908 510.316C455.729 510.225 455.606 510.052 455.575 509.853L451.417 482.625C451.375 482.347 451.525 482.074 451.781 481.96L463.125 476.911C463.307 476.828 463.521 476.84 463.694 476.939C463.868 477.039 463.984 477.218 464.004 477.417L466.879 504.584C466.908 504.843 466.771 505.09 466.541 505.21L456.482 510.321C456.394 510.367 456.294 510.39 456.198 510.39L456.195 510.384ZM452.728 482.906L456.681 508.807L465.582 504.283L462.844 478.403L452.725 482.909L452.728 482.906Z" fill="url(#paint0_linear_697_7129)"/>
<path d="M453.6 499.458C452.451 502.084 451.362 507.048 450.255 513.515C449.732 516.581 452.141 519.374 455.294 519.374H492.298C494.846 519.374 496.049 516.274 494.149 514.595C486.787 508.091 475.508 500.885 465.771 496.645L462.057 501.888C462.057 501.888 453.921 498.725 453.6 499.458Z" fill="white"/>
<path d="M492.303 520H455.299C453.593 520 451.986 519.255 450.891 517.962C449.819 516.695 449.364 515.035 449.643 513.41C450.877 506.178 451.952 501.666 453.03 499.208C453.263 498.677 453.581 497.949 461.831 501.129L465.264 496.284C465.434 496.043 465.753 495.955 466.026 496.071C475.587 500.231 487.059 507.488 494.569 514.126C495.641 515.072 495.994 516.487 495.491 517.817C494.987 519.144 493.736 520 492.303 520ZM454.065 499.972C453.067 502.393 452.051 506.749 450.877 513.62C450.661 514.879 451.016 516.169 451.847 517.152C452.703 518.164 453.96 518.746 455.296 518.746H492.3C493.4 518.746 494.063 518.036 494.313 517.371C494.561 516.72 494.538 515.771 493.733 515.064C486.433 508.614 475.342 501.569 465.986 497.424L462.565 502.249C462.4 502.482 462.096 502.575 461.826 502.47C458.749 501.274 455.083 500.046 454.056 499.972H454.065Z" fill="url(#paint1_linear_697_7129)"/>
<path d="M491.614 516.828H452.633C452.286 516.828 452.008 516.547 452.008 516.203C452.008 515.859 452.289 515.578 452.633 515.578H491.614C491.96 515.578 492.239 515.859 492.239 516.203C492.239 516.547 491.958 516.828 491.614 516.828Z" fill="url(#paint2_linear_697_7129)"/>
<path d="M470.358 509C470.25 509 470.139 508.972 470.039 508.912C469.741 508.736 469.641 508.352 469.818 508.054L473.617 501.62C473.793 501.322 474.177 501.226 474.476 501.399C474.774 501.575 474.874 501.959 474.698 502.257L470.898 508.69C470.782 508.889 470.571 508.997 470.358 508.997V509Z" fill="url(#paint3_linear_697_7129)"/>
<path d="M475.926 509.941C475.823 509.941 475.718 509.915 475.622 509.861C475.32 509.694 475.212 509.31 475.38 509.009L477.843 504.604C478.01 504.303 478.394 504.192 478.696 504.363C478.997 504.531 479.105 504.914 478.937 505.215L476.475 509.62C476.361 509.824 476.148 509.941 475.926 509.941Z" fill="url(#paint4_linear_697_7129)"/>
<path d="M476.955 307.167C476.955 307.167 504.986 349.593 514.558 376.542C516.378 381.666 514.974 387.374 510.981 391.071C499.85 401.375 476.042 423.161 460.759 435.32L456.192 423.737C456.192 423.737 461.709 396.919 482.406 384.837L456.727 346.576L451.07 316.796L476.955 307.167Z" fill="url(#paint5_linear_697_7129)"/>
<path d="M428.343 318.649C428.343 318.649 436.644 382.069 437.915 398.266C439.186 414.463 438.014 432.484 437.386 445.708C436.758 458.933 451.776 489.681 451.776 489.681L466.251 487.123L468.935 338.156L472.828 310.582L428.34 318.649H428.343Z" fill="url(#paint6_linear_697_7129)"/>
<path d="M467.239 433.2C466.892 433.2 466.613 432.919 466.613 432.572L466.69 409.627C466.69 409.28 466.972 409.001 467.316 409.001C467.663 409.001 467.941 409.283 467.941 409.629L467.865 432.575C467.865 432.921 467.583 433.2 467.239 433.2Z" fill="white"/>
<path d="M468.727 362.295C468.38 362.295 468.102 362.014 468.102 361.67V349.832C468.102 349.622 468.207 349.426 468.38 349.309L475.362 344.672C475.652 344.481 476.039 344.558 476.232 344.848C476.423 345.135 476.346 345.524 476.059 345.717L469.359 350.17V361.673C469.359 362.019 469.077 362.298 468.733 362.298L468.727 362.295Z" fill="white"/>
<path d="M434.077 352.705C433.898 352.705 433.722 352.628 433.597 352.483C433.375 352.219 433.406 351.824 433.671 351.6C433.747 351.534 441.298 344.987 443.834 328.936C443.888 328.595 444.213 328.359 444.551 328.416C444.892 328.47 445.126 328.791 445.072 329.132C442.455 345.687 434.803 352.285 434.478 352.557C434.362 352.657 434.217 352.705 434.075 352.705H434.077Z" fill="white"/>
<path d="M503.218 265.677C503.218 265.677 505.86 263.441 507.955 262.304C510.054 261.168 516.547 251.481 516.547 251.481C516.547 251.481 516.353 266.757 509.648 269.093L503.215 265.68L503.218 265.677Z" fill="white"/>
<path d="M509.649 269.718C509.547 269.718 509.447 269.692 509.356 269.644L502.923 266.231C502.739 266.135 502.616 265.953 502.594 265.745C502.571 265.538 502.653 265.333 502.813 265.2C502.923 265.106 505.528 262.91 507.658 261.756C509.097 260.974 513.454 254.976 516.031 251.134C516.184 250.904 516.471 250.802 516.739 250.884C517.003 250.967 517.182 251.214 517.179 251.489C517.171 252.132 516.898 267.232 509.859 269.684C509.791 269.706 509.723 269.718 509.652 269.718H509.649ZM504.342 265.566L509.692 268.405C514.228 266.533 515.465 257.835 515.797 253.686C513.753 256.63 509.905 261.96 508.253 262.856C506.888 263.594 505.261 264.836 504.342 265.566Z" fill="#2C2C2C"/>
<path d="M496.68 267.578H504.293L518.714 246.744H511.288L496.68 267.578Z" fill="#2C2C2C"/>
<path d="M504.292 268.206H496.679C496.446 268.206 496.23 268.076 496.121 267.868C496.013 267.661 496.03 267.411 496.164 267.22L510.776 246.386C510.892 246.219 511.086 246.119 511.288 246.119H518.713C518.946 246.119 519.159 246.247 519.267 246.454C519.375 246.662 519.361 246.909 519.227 247.102L504.806 267.936C504.69 268.104 504.497 268.206 504.292 268.206ZM497.885 266.953H503.965L517.521 247.372H511.62L497.887 266.953H497.885Z" fill="#2C2C2C"/>
<path d="M498.344 267.578H505.957L520.378 246.744H512.955L498.344 267.578Z" fill="white"/>
<path d="M505.956 268.206H498.343C498.11 268.206 497.894 268.076 497.786 267.868C497.677 267.661 497.695 267.411 497.828 267.22L512.44 246.386C512.556 246.219 512.75 246.119 512.952 246.119H520.377C520.61 246.119 520.823 246.247 520.931 246.454C521.039 246.662 521.025 246.909 520.891 247.102L506.468 267.936C506.351 268.104 506.158 268.206 505.953 268.206H505.956ZM499.549 266.953H505.629L519.185 247.372H513.281L499.549 266.953Z" fill="#2C2C2C"/>
<path d="M503.215 265.677C503.215 265.677 493.736 280.809 484.892 279.22C478.642 278.098 475.405 271.355 470.042 263.791C464.678 256.227 458.183 252.231 458.183 252.231C458.183 252.231 446.572 248.307 432.376 248.918C418.421 249.518 406.153 258.258 401.273 271.335C397.479 281.499 394.718 296.349 397.144 316.822C401.771 355.865 434.443 350.793 434.443 350.793L439.744 342.461C439.744 342.461 425.13 341.489 421.708 321.377C420.457 314.026 423.275 303.089 423.275 303.089L425.607 319.885C425.934 322.241 427.837 324.06 430.206 324.278C432.876 324.526 436.926 324.497 442.559 323.451C454.134 321.3 465.557 314.009 472.925 313.176C477.877 312.617 479.065 309.625 478.798 305.661C481.682 306.303 484.517 306.445 487.119 305.797C505.567 301.199 508.931 269.545 508.931 269.545L503.212 265.675L503.215 265.677Z" fill="white"/>
<path d="M430.713 351.651C426.029 351.651 417.83 350.716 410.499 345.155C402.749 339.276 398.046 329.768 396.522 316.899C394.457 299.46 395.856 284.056 400.685 271.119C405.63 257.869 418.058 248.909 432.348 248.296C446.499 247.688 458.266 251.6 458.383 251.64C458.428 251.654 458.471 251.674 458.511 251.7C458.781 251.865 465.18 255.848 470.554 263.43C471.573 264.865 472.505 266.257 473.407 267.604C477.2 273.267 480.195 277.74 485.004 278.603C485.408 278.677 485.817 278.711 486.227 278.711C494.215 278.711 502.596 265.487 502.684 265.345C502.775 265.2 502.92 265.1 503.085 265.063C503.253 265.029 503.426 265.063 503.565 265.157L509.284 269.027C509.475 269.158 509.58 269.383 509.557 269.613C509.418 270.923 505.931 301.753 487.273 306.405C484.97 306.979 482.345 306.99 479.458 306.436C479.515 310.889 477.394 313.298 472.997 313.796C469.57 314.185 465.262 315.998 460.274 318.095C454.891 320.36 448.791 322.928 442.674 324.065C437.919 324.949 433.704 325.227 430.15 324.9C427.479 324.653 425.355 322.624 424.988 319.97L423.142 306.675C422.42 310.463 421.541 316.637 422.329 321.272C425.631 340.674 439.648 341.825 439.787 341.836C440.009 341.85 440.205 341.981 440.305 342.177C440.404 342.376 440.393 342.609 440.274 342.796L434.973 351.128C434.876 351.281 434.72 351.383 434.54 351.412C434.367 351.437 432.937 351.651 430.713 351.651ZM435.379 249.483C434.401 249.483 433.409 249.503 432.405 249.546C418.621 250.14 406.631 258.778 401.862 271.556C397.105 284.306 395.725 299.511 397.767 316.751C399.252 329.271 403.79 338.491 411.258 344.157C420.793 351.389 432.169 350.432 434.071 350.213L438.698 342.938C435.263 342.265 424.027 338.759 421.089 321.488C419.829 314.088 422.551 303.39 422.668 302.938C422.741 302.648 423.006 302.464 423.31 302.469C423.609 302.486 423.853 302.711 423.896 303.009L426.228 319.806C426.515 321.883 428.176 323.468 430.263 323.662C432.629 323.88 436.662 323.917 442.443 322.843C448.43 321.732 454.464 319.192 459.788 316.95C464.864 314.813 469.249 312.969 472.855 312.56C476.873 312.105 478.466 310.056 478.173 305.709C478.159 305.513 478.241 305.319 478.389 305.192C478.54 305.064 478.742 305.013 478.932 305.055C481.941 305.726 484.645 305.774 486.966 305.194C503.713 301.02 507.805 273.392 508.26 269.854L503.389 266.558C501.546 269.334 493.057 281.32 484.779 279.839C479.447 278.882 476.319 274.213 472.363 268.303C471.464 266.962 470.537 265.575 469.531 264.154C464.571 257.161 458.573 253.226 457.914 252.805C457.009 252.512 447.375 249.483 435.376 249.483H435.379Z" fill="#2C2C2C"/>
<path d="M424.461 301.66C424.398 301.66 424.333 301.651 424.27 301.631C423.94 301.526 423.758 301.174 423.861 300.844L429.662 282.542C429.767 282.212 430.12 282.027 430.45 282.133C430.78 282.238 430.962 282.59 430.859 282.92L425.058 301.222C424.972 301.489 424.728 301.66 424.461 301.66Z" fill="#2C2C2C"/>
<path d="M478.572 301.825C478.253 301.825 477.98 301.583 477.949 301.259C477.005 291.513 466.841 269.011 466.739 268.783C466.597 268.468 466.739 268.096 467.052 267.954C467.367 267.812 467.737 267.951 467.882 268.266C468.303 269.198 478.231 291.189 479.198 301.137C479.232 301.481 478.979 301.788 478.635 301.822C478.615 301.822 478.595 301.825 478.572 301.825Z" fill="#2C2C2C"/>
<path d="M441.81 230.152L428.809 249.586C428.809 249.586 439.689 254.26 446.346 255.269C453.004 256.275 444.876 249.236 444.876 249.236L450.137 237.276L441.81 230.152Z" fill="white"/>
<path d="M447.496 255.996C447.073 255.996 446.638 255.945 446.254 255.888C439.593 254.882 429.009 250.356 428.562 250.163C428.392 250.089 428.261 249.944 428.21 249.765C428.156 249.586 428.187 249.393 428.289 249.239L441.291 229.806C441.391 229.658 441.55 229.559 441.726 229.533C441.903 229.505 442.082 229.562 442.218 229.678L450.545 236.802C450.755 236.981 450.824 237.276 450.71 237.529L445.634 249.069C447.275 250.535 450.215 253.464 449.467 255.084C449.137 255.8 448.333 255.996 447.496 255.996ZM429.754 249.304C432.251 250.339 440.902 253.811 446.441 254.649C448.094 254.897 448.33 254.561 448.33 254.558C448.588 253.996 446.749 251.686 444.465 249.708C444.257 249.529 444.192 249.233 444.303 248.983L449.379 237.45L441.942 231.087L429.754 249.304Z" fill="#2C2C2C"/>
<path d="M466.962 220.889C463.345 217.692 458.832 220.727 454.614 216.817C452.683 215.024 452.558 213.396 450.198 212.367C448.634 211.685 445.827 211.154 443.896 212.518C441.436 214.254 443.094 217.161 440.921 223.466C439.394 227.893 437.435 229.772 438.439 231.383C439.454 233.011 441.988 231.943 443.228 233.636C444.834 235.83 441.638 239.052 442.488 242.095C443.023 244.013 445.625 246.756 452.132 248.182C453.187 248.412 454.256 247.861 454.674 246.866C455.209 245.591 455.877 243.979 456.383 242.382C458.803 234.778 457.745 231.798 459.705 230.877C462.708 229.465 466.092 234.29 468.333 232.951C470.662 231.562 470.676 224.174 466.962 220.892V220.889Z" fill="#2C2C2C"/>
<path d="M451.368 224.086L452.702 224.617C452.702 224.617 448.877 233.363 448.26 236.023C447.646 238.686 455.75 241.215 455.75 241.215L457.07 240.311L458.06 240.598C458.367 240.686 458.697 240.632 458.958 240.45C459.22 240.268 459.385 239.976 459.408 239.657C459.575 237.214 460.127 231.866 461.839 228.021C461.839 228.021 458.145 223.194 451.371 224.089L451.368 224.086Z" fill="white"/>
<path d="M451.988 224.162C452.227 224.154 452.44 224.086 452.579 224.026C452.719 223.969 452.807 223.966 452.938 224.018C453.268 224.145 453.43 224.518 453.302 224.844L453.296 224.861L453.29 224.873C452.574 226.541 451.883 228.226 451.197 229.905C450.515 231.585 449.841 233.278 449.269 234.974C449.135 235.389 448.996 235.838 448.914 236.199C448.868 236.404 448.951 236.665 449.161 236.958C449.588 237.54 450.324 238.052 451.064 238.489C452.571 239.362 454.266 240.047 455.941 240.609L455.395 240.692C455.838 240.396 456.271 240.084 456.726 239.802L456.777 239.771C456.922 239.68 457.095 239.669 457.246 239.72C457.539 239.822 457.823 239.956 458.111 240.072L458.27 240.143C458.31 240.157 458.352 240.172 458.395 240.174C458.483 240.18 458.574 240.166 458.654 240.12C458.816 240.038 458.927 239.87 458.958 239.694L459.023 238.813C459.126 237.569 459.257 236.327 459.422 235.088C459.771 232.613 460.266 230.133 461.27 227.76L461.344 228.394C460.801 227.743 460.07 227.101 459.322 226.586C458.566 226.061 457.744 225.632 456.885 225.31C456.026 224.987 455.125 224.782 454.215 224.682C453.757 224.64 453.299 224.603 452.838 224.614C452.608 224.609 452.377 224.631 452.147 224.64L452.062 224.646C452.045 224.646 452.059 224.646 452.062 224.64C452.07 224.631 452.096 224.603 452.113 224.552C452.158 224.447 452.113 224.262 451.999 224.162H451.988ZM450.745 224.009C450.873 223.887 451.069 223.674 451.354 223.543C451.493 223.478 451.638 223.438 451.769 223.415C451.831 223.404 451.905 223.395 451.948 223.392L452.045 223.387C452.301 223.373 452.554 223.347 452.81 223.347C453.322 223.327 453.833 223.358 454.345 223.401C455.366 223.515 456.373 223.75 457.331 224.117C458.293 224.481 459.203 224.964 460.041 225.552C460.883 226.152 461.64 226.791 462.334 227.641C462.481 227.822 462.504 228.064 462.413 228.263L462.408 228.274C461.913 229.357 461.532 230.508 461.205 231.678C460.878 232.849 460.61 234.042 460.4 235.25C460.187 236.455 460.022 237.674 459.916 238.896L459.877 239.353C459.859 239.524 459.865 239.615 459.825 239.865C459.746 240.297 459.459 240.68 459.075 240.893C458.884 241.001 458.671 241.072 458.449 241.098C458.338 241.109 458.224 241.118 458.113 241.107C457.994 241.098 457.883 241.072 457.82 241.064C457.513 241.01 457.203 240.97 456.899 240.902L457.417 240.82C456.99 241.141 456.544 241.43 456.106 241.74C455.941 241.857 455.736 241.879 455.56 241.823C453.777 241.24 452.059 240.569 450.398 239.632C449.579 239.143 448.752 238.632 448.072 237.751C447.907 237.523 447.756 237.268 447.654 236.961C447.554 236.657 447.517 236.296 447.586 235.955C447.705 235.426 447.842 235.009 447.987 234.554C448.584 232.795 449.261 231.099 449.952 229.402C450.643 227.706 451.371 226.035 452.107 224.359L452.46 225.214C452.144 225.089 451.789 224.91 451.484 224.674C451.177 224.441 450.95 224.194 450.742 224.009H450.745Z" fill="#2C2C2C"/>
<path d="M448.372 230.252C448.372 230.252 449.28 225.092 446.842 225.174C444.405 225.26 443.549 230.965 448.372 230.252Z" fill="white"/>
<path d="M53.3858 301.856C53.0474 302.762 52.5668 303.6 51.9013 304.342C50.1979 306.237 47.6214 307.05 45.1757 307.78C43.1566 308.383 41.1062 308.991 38.999 309.008C34.8299 309.042 30.9368 306.769 26.7706 306.57C23.9495 306.433 21.1853 307.255 18.4012 307.726C13.1487 308.618 8.94274 306.499 5.03534 303.063C-1.88364 296.974 -1.51679 279.862 5.18038 269.019C12.2586 257.562 23.2755 258.164 24.7998 248.335C25.6786 242.681 21.9503 240.325 23.8329 234.298C24.8197 231.144 27.6664 228.433 33.3597 223.009C41.1659 215.573 44.4335 214.442 45.5653 214.086C47.4849 213.487 51.3752 212.33 55.4959 214.021C56.7329 214.53 59.7787 215.777 60.8849 218.815C62.0452 222.003 60.3503 225.177 59.4289 226.902C57.3671 230.766 54.7394 231.806 53.2607 233.619C46.6346 241.746 59.1217 253.248 56.1528 271.608C55.5158 275.546 53.9375 279.121 52.9137 282.942C51.5828 287.909 53.6503 289.194 53.9858 293.658C54.1906 296.389 54.3157 299.364 53.3829 301.853L53.3858 301.856Z" fill="#2C2C2C"/>
<path d="M90.6008 477.525L87.5039 484.282C87.6433 484.856 87.9589 485.421 88.5789 486.129C91.8663 489.877 100.773 486.887 102.9 486.174C110.726 483.549 111.716 480.306 118.76 477.826C123.598 476.121 127.951 475.95 130.767 476.05C130.434 475.359 129.854 474.28 128.785 473.319C127.263 471.952 124.687 470.583 120.461 470.571C112.006 470.549 90.6065 477.525 90.6065 477.525H90.6008Z" fill="white"/>
<path d="M93.9185 488.595C90.7789 488.595 89.0556 487.623 88.1086 486.544C87.4403 485.782 87.0677 485.131 86.8971 484.432C86.863 484.296 86.8772 484.151 86.9369 484.023L90.0338 477.266C90.1078 477.107 90.2443 476.985 90.4092 476.931C91.2851 476.647 111.931 469.946 120.417 469.946H120.46C125.024 469.96 127.734 471.535 129.202 472.856C130.339 473.879 130.962 475.016 131.332 475.783C131.425 475.982 131.411 476.215 131.292 476.397C131.172 476.581 130.976 476.703 130.746 476.681C126.622 476.539 122.661 477.121 118.972 478.42C115.665 479.585 113.754 480.903 111.729 482.298C109.528 483.813 107.253 485.381 103.107 486.774C99.1624 488.098 96.1793 488.598 93.927 488.598L93.9185 488.595ZM88.1711 484.333C88.3162 484.762 88.5949 485.197 89.0499 485.72C90.176 487.004 93.4464 488.689 102.697 485.586C106.679 484.251 108.88 482.733 111.01 481.267C113.015 479.886 115.085 478.46 118.549 477.238C122.004 476.021 125.684 475.405 129.509 475.405H129.699C129.381 474.888 128.948 474.317 128.36 473.785C126.489 472.1 123.753 471.208 120.454 471.197H120.414C112.628 471.197 93.5146 477.246 91.0576 478.033L88.1711 484.33V484.333Z" fill="url(#paint7_linear_697_7129)"/>
<path d="M117.364 509.057C117.364 509.057 131.728 514.575 131.714 505.167C131.714 504.86 119.909 466.801 119.909 466.801L103 475.939L117.364 509.057Z" fill="white"/>
<path d="M125.383 511.291C121.495 511.291 117.386 509.736 117.141 509.643C116.985 509.583 116.857 509.461 116.791 509.307L102.427 476.189C102.297 475.891 102.419 475.544 102.703 475.388L119.613 466.25C119.777 466.162 119.974 466.15 120.147 466.221C120.321 466.292 120.454 466.437 120.508 466.616C132.339 504.767 132.341 505.048 132.341 505.167C132.344 507.409 131.585 509.069 130.083 510.1C128.801 510.981 127.115 511.291 125.383 511.291ZM117.832 508.563C119.212 509.052 126.108 511.316 129.372 509.069C130.516 508.282 131.076 507.028 131.087 505.238C130.712 503.812 123.528 480.588 119.539 467.716L103.804 476.218L117.832 508.563Z" fill="url(#paint8_linear_697_7129)"/>
<path d="M115.595 518.903H151.188C152.149 518.903 152.891 518.059 152.766 517.11L152.501 515.087C151.833 513.294 150.531 511.802 148.841 510.899L129.538 500.55C129.538 500.55 123.31 501.868 123.847 508.392C123.847 508.392 119.653 504.372 115.788 507.188C115.788 507.188 114.281 512.2 114.406 517.747C114.42 518.392 114.952 518.906 115.597 518.906L115.595 518.903Z" fill="white"/>
<path d="M151.187 519.528H115.594C114.613 519.528 113.797 518.733 113.777 517.758C113.652 512.177 115.122 507.213 115.185 507.006C115.225 506.875 115.304 506.761 115.415 506.679C118.191 504.656 121.293 505.77 123.199 507.071C123.534 501.252 129.341 499.95 129.404 499.936C129.549 499.905 129.7 499.928 129.83 499.999L149.134 510.347C150.96 511.325 152.365 512.933 153.087 514.871C153.104 514.917 153.115 514.962 153.121 515.008L153.386 517.031C153.468 517.662 153.275 518.298 152.854 518.775C152.433 519.256 151.824 519.531 151.187 519.531V519.528ZM116.328 507.568C116.055 508.557 114.923 512.973 115.028 517.727C115.034 518.028 115.287 518.272 115.594 518.272H151.187C151.469 518.272 151.728 518.156 151.913 517.946C152.097 517.735 152.18 517.465 152.143 517.19L151.887 515.238C151.264 513.615 150.078 512.271 148.543 511.447L129.452 501.212C128.408 501.502 124.032 503.042 124.47 508.336C124.493 508.594 124.35 508.839 124.114 508.952C123.878 509.066 123.6 509.02 123.412 508.841C123.258 508.697 119.669 505.338 116.328 507.568Z" fill="url(#paint9_linear_697_7129)"/>
<path d="M141.234 512.237C141.202 512.237 141.168 512.237 141.134 512.229C131.752 510.754 126.196 505.841 125.962 505.634C125.704 505.403 125.684 505.008 125.914 504.75C126.144 504.494 126.543 504.471 126.798 504.702C126.853 504.75 132.333 509.578 141.327 510.99C141.669 511.044 141.902 511.365 141.851 511.706C141.802 512.016 141.535 512.234 141.234 512.234V512.237Z" fill="url(#paint10_linear_697_7129)"/>
<path d="M151.46 517.227H115.657C115.31 517.227 115.031 516.946 115.031 516.602C115.031 516.258 115.313 515.977 115.657 515.977H151.46C151.807 515.977 152.086 516.258 152.086 516.602C152.086 516.946 151.805 517.227 151.46 517.227Z" fill="url(#paint11_linear_697_7129)"/>
<path d="M41.449 487.561C38.3038 486.865 32.2749 485.532 30.9412 481.415C29.9316 478.298 32.0929 475.053 32.5849 474.314C38.6649 465.187 58.8105 462.607 70.2142 471.544C76.2317 476.258 80.304 484.561 78.1768 487.212C76.8829 488.823 74.1557 487.28 67.4869 486.695C55.0396 485.601 51.8574 489.863 41.449 487.561Z" fill="white"/>
<path d="M47.4179 488.877C45.6178 488.877 43.6356 488.686 41.3151 488.172C37.9878 487.436 31.7912 486.064 30.3493 481.608C29.627 479.377 30.2214 476.738 32.067 473.967C34.7885 469.884 40.26 466.915 47.0795 465.818C55.8356 464.411 64.6286 466.369 70.6035 471.049C75.1024 474.575 78.8533 480.335 79.3283 484.45C79.4847 485.799 79.2629 486.862 78.6685 487.604C77.6134 488.916 75.9612 488.621 73.2198 488.132C71.7125 487.862 69.8356 487.53 67.4355 487.317C61.6483 486.805 57.8205 487.487 54.4449 488.084C52.1784 488.485 49.983 488.874 47.4207 488.874L47.4179 488.877ZM41.5852 486.95C46.9657 488.141 50.3299 487.544 54.2231 486.854C57.6755 486.24 61.5914 485.546 67.5407 486.069C69.9977 486.285 71.9031 486.626 73.4359 486.899C76.0408 487.365 77.1186 487.524 77.6874 486.819C78.0599 486.356 78.1964 485.586 78.0827 484.595C77.7016 481.304 74.5109 475.706 69.8271 472.038C64.1224 467.568 55.6905 465.71 47.2757 467.057C40.8003 468.097 35.636 470.867 33.1078 474.663C31.4812 477.104 30.938 479.372 31.5381 481.224C32.7609 484.998 38.4997 486.268 41.5852 486.953L41.4516 487.564L41.5881 486.953L41.5852 486.95Z" fill="url(#paint12_linear_697_7129)"/>
<path d="M43.1954 470.572C42.6949 470.89 49.1987 510.501 49.1987 510.501L62.1892 512.084L61.6176 473.919L43.1954 470.572Z" fill="white"/>
<path d="M62.1879 512.709C62.1623 512.709 62.1367 512.709 62.1111 512.703L49.1206 511.12C48.8448 511.086 48.623 510.876 48.5775 510.6C48.5604 510.501 46.9337 500.581 45.3867 490.749C42.1959 470.458 42.3637 470.353 42.8557 470.04C42.9894 469.955 43.1486 469.924 43.3022 469.952L61.7244 473.299C62.0201 473.353 62.2334 473.606 62.2391 473.908L62.8107 512.072C62.8107 512.254 62.7368 512.427 62.6031 512.547C62.4865 512.649 62.3386 512.706 62.1851 512.706L62.1879 512.709ZM49.7406 509.935L61.5509 511.373L60.9964 474.442L43.8226 471.319C44.1695 475.291 47.4286 495.833 49.7406 509.932V509.935Z" fill="url(#paint13_linear_697_7129)"/>
<path d="M83.2374 518.903H47.485C47.485 518.903 46.1683 510.04 48.2272 506.093L49.342 507.341C49.9193 507.986 50.9118 508.04 51.5545 507.46C52.9764 506.184 55.4733 504.104 57.6289 503.121C61.815 501.214 75.8264 510.674 81.1927 513.882C82.4639 514.643 83.2402 516.01 83.2402 517.491V518.9L83.2374 518.903Z" fill="white"/>
<path d="M83.2374 519.528H47.4851C47.1751 519.528 46.9106 519.301 46.8651 518.994C46.8111 518.625 45.5428 509.881 47.6728 505.804C47.7695 505.622 47.9458 505.497 48.1505 505.471C48.3524 505.446 48.56 505.522 48.6965 505.676L49.8113 506.923C49.9763 507.108 50.2066 507.219 50.454 507.233C50.7128 507.241 50.9488 507.162 51.1365 506.991C52.7916 505.505 55.2174 503.528 57.3673 502.55C60.959 500.916 69.8971 506.145 78.7442 511.64C79.8078 512.299 80.7491 512.885 81.5112 513.342C82.9616 514.209 83.8631 515.8 83.8631 517.488V518.897C83.8631 519.244 83.5815 519.523 83.2374 519.523V519.528ZM48.0339 518.275H82.6118V517.491C82.6118 516.238 81.9435 515.061 80.8685 514.419C80.0979 513.959 79.1509 513.371 78.0816 512.706C72.1693 509.032 61.1666 502.195 57.8877 503.692C55.7776 504.653 53.2751 506.758 51.9726 507.926C51.5347 508.318 50.9687 508.506 50.3829 508.486C49.7971 508.452 49.2625 508.196 48.8729 507.759L48.415 507.247C47.2291 510.657 47.815 516.491 48.0339 518.278V518.275Z" fill="url(#paint14_linear_697_7129)"/>
<path d="M81.5684 516.743H48.2389C47.892 516.743 47.6133 516.462 47.6133 516.118C47.6133 515.774 47.8948 515.493 48.2389 515.493H81.5684C81.9153 515.493 82.194 515.774 82.194 516.118C82.194 516.462 81.9125 516.743 81.5684 516.743Z" fill="url(#paint15_linear_697_7129)"/>
<path d="M66.5631 512.475C66.4693 512.475 66.3726 512.453 66.2816 512.407L55.9728 507.21C55.6628 507.054 55.5405 506.679 55.6969 506.369C55.8533 506.062 56.2315 505.937 56.5387 506.09L66.8475 511.288C67.1575 511.444 67.2797 511.819 67.1233 512.129C67.0124 512.348 66.7934 512.473 66.5631 512.473V512.475Z" fill="url(#paint16_linear_697_7129)"/>
<path d="M130.766 476.05C123.893 454.267 116.956 432.498 109.952 410.746C100.514 381.43 90.9584 352.154 81.2894 322.92C66.2741 324.679 32.7428 313.296 36.2435 328.197C37.9782 335.585 37.819 337.219 37.6313 339.969C36.1809 361.454 33.9286 376.812 33.9997 382.186C34.0651 386.948 34.25 401.261 33.9286 420.828C33.8774 424.022 33.7864 427.431 33.6414 431.537C32.9077 452.212 31.5199 457.256 31.409 474.098C31.3948 476.465 31.4033 478.758 31.4346 480.986C39.0759 479.491 47.8064 479.073 57.063 481.162C64.383 482.813 65.2105 484.492 71.8025 485.382C73.9695 485.674 75.9942 485.774 77.9195 485.731C72.5134 413.769 72.9116 397.266 72.9116 397.266C74.9676 413.249 77.5214 429.932 80.6808 447.228C83.0014 459.933 85.5153 472.205 88.1629 484.057C95.9635 481.756 102.803 477.721 112.116 476.005C116.979 475.109 123.19 474.726 130.766 476.05Z" fill="url(#paint17_linear_697_7129)"/>
<path d="M72.9113 396.689C72.5729 396.689 72.2942 396.419 72.2857 396.081L71.3244 360.786C71.3188 360.573 71.4211 360.374 71.5946 360.255L76.1959 357.086C76.4803 356.89 76.8699 356.961 77.0689 357.245C77.2652 357.53 77.1941 357.922 76.9068 358.118L72.5843 361.093L73.5341 396.049C73.5426 396.396 73.2696 396.683 72.9255 396.692H72.9084L72.9113 396.689Z" fill="white"/>
<path d="M120.928 259.466L114.922 259.866C114.205 262.461 112.88 266.223 110.306 270.221C107.923 273.921 102.85 281.797 96.6957 281.985C90.3511 282.175 85.7129 268.709 77.6422 261.583C67.0945 260.668 58.1222 261.088 51.3227 261.799C42.4557 262.725 35.7415 264.305 32.9972 264.99C26.283 266.669 20.5214 268.701 15.559 270.693C12.6753 279.788 4.28895 301.972 7.98875 328.336C10.8183 348.502 32.6417 361.247 38.5369 367.802C39.9901 366.174 41.2016 364.281 42.2111 362.261C40.4906 359.167 37.9113 354.532 34.7575 348.9C28.7201 338.114 27.5229 336.059 27.0138 335.09C24.3378 330.001 23.1434 321.599 27.8983 306.823C27.6736 309.622 27.6167 312.648 27.8215 315.873C28.3703 324.392 28.8509 331.876 33.8958 335.349C38.1729 338.293 41.2897 335.3 59.4133 332.232C74.2552 329.72 80.503 330.316 84.9024 324.838C87.3253 321.82 88.0732 318.348 88.3178 315.867C87.1575 310.372 86.0172 304.819 84.8882 299.241C89.8677 301.853 95.4899 302.958 100.179 302.18C113.343 299.994 125.25 281.962 120.925 259.463L120.928 259.466Z" fill="white"/>
<path d="M38.5388 368.43C38.3597 368.43 38.1919 368.356 38.0724 368.223C36.7273 366.728 34.4722 364.85 31.8587 362.676C22.9832 355.291 9.57179 344.129 7.36784 328.427C3.95243 304.095 10.8373 283.104 14.1475 273.017C14.4489 272.094 14.7248 271.258 14.9608 270.508C15.0177 270.329 15.1513 270.187 15.3248 270.116C21.3167 267.712 27.047 265.839 32.8455 264.387C38.6071 262.944 44.9744 261.836 51.2592 261.179C59.9726 260.267 68.868 260.193 77.6981 260.96C77.8317 260.972 77.9569 261.026 78.0592 261.114C81.4519 264.109 84.2758 268.246 86.7698 271.895C90.2336 276.97 93.2309 281.36 96.5667 281.36C96.6037 281.36 96.6435 281.36 96.6805 281.36C102.505 281.184 107.419 273.551 109.782 269.886C111.792 266.766 113.32 263.339 114.321 259.704C114.392 259.449 114.616 259.264 114.884 259.247L120.89 258.846C121.205 258.824 121.487 259.042 121.547 259.352C123.867 271.423 121.689 283.38 115.572 292.158C111.451 298.071 106.022 301.85 100.286 302.802C95.8359 303.541 90.6061 302.66 85.7603 300.378C86.9404 306.195 87.9528 311.105 88.934 315.745C88.9482 315.808 88.951 315.873 88.9453 315.936C88.5813 319.63 87.3869 322.758 85.3963 325.236C81.8614 329.637 77.1236 330.299 68.5268 331.496C65.9162 331.859 62.9558 332.271 59.5233 332.854C52.9911 333.959 48.3869 335.062 45.0256 335.866C38.9995 337.31 36.5055 337.906 33.5451 335.866C28.2499 332.22 27.7636 324.665 27.2006 315.916C27.1152 314.597 27.0726 313.267 27.0726 311.935C24.5672 321.724 24.7321 329.402 27.5731 334.8C27.812 335.258 28.23 335.997 29.2339 337.778C30.3401 339.742 32.1715 342.987 35.3083 348.593C38.462 354.228 41.0414 358.863 42.7619 361.957C42.8614 362.139 42.8671 362.355 42.7761 362.539C41.6812 364.733 40.4129 366.643 39.0109 368.217C38.8915 368.35 38.7237 368.427 38.5445 368.427L38.5388 368.43ZM16.0671 271.167C15.8509 271.846 15.6035 272.594 15.339 273.406C12.0601 283.406 5.23783 304.209 8.61059 328.254C10.7463 343.478 23.9359 354.452 32.6607 361.715C35.0239 363.682 37.0999 365.409 38.5189 366.87C39.6109 365.554 40.612 364.017 41.5021 362.281C39.7844 359.189 37.2648 354.671 34.2106 349.21C31.0738 343.606 29.2453 340.358 28.139 338.398C27.0982 336.551 26.7086 335.86 26.4583 335.386C22.9974 328.805 23.2789 319.129 27.3001 306.635C27.3968 306.331 27.7068 306.146 28.0196 306.212C28.3324 306.274 28.5485 306.558 28.5229 306.877C28.2841 309.863 28.2585 312.878 28.449 315.836C28.9893 324.261 29.4585 331.536 34.2532 334.837C36.7529 336.559 38.7635 336.079 44.7298 334.647C48.1082 333.837 52.7351 332.729 59.31 331.618C62.7595 331.035 65.7285 330.621 68.3476 330.254C76.899 329.061 81.1903 328.464 84.4123 324.449C86.2295 322.184 87.3301 319.308 87.6827 315.904C86.639 310.96 85.5555 305.7 84.2729 299.367C84.2246 299.131 84.3185 298.886 84.5118 298.741C84.7052 298.597 84.964 298.577 85.1801 298.687C90.1028 301.27 95.5344 302.316 100.079 301.563C105.479 300.665 110.615 297.071 114.542 291.436C120.375 283.065 122.505 271.682 120.415 260.128L115.407 260.463C114.372 264.061 112.833 267.456 110.834 270.562C108.357 274.409 103.199 282.417 96.7175 282.613C96.6663 282.613 96.6151 282.613 96.5611 282.613C92.5683 282.613 89.3975 277.97 85.7318 272.602C83.3203 269.07 80.5902 265.072 77.3824 262.188C68.7003 261.449 59.9584 261.526 51.39 262.421C45.1649 263.072 38.8573 264.171 33.1527 265.598C27.4992 267.013 21.9082 268.834 16.0699 271.164L16.0671 271.167Z" fill="#2C2C2C"/>
<path d="M113.987 250.816L117.192 240.172C117.414 239.433 118.133 238.959 118.904 239.047C119.774 239.146 120.403 239.927 120.312 240.797L119.851 245.162L124.097 248.563C125.405 249.611 125.917 251.359 125.382 252.945L123.969 257.139C123.261 259.239 121.335 260.691 119.117 260.796L117.624 260.867C115.326 260.978 113.211 259.619 112.36 257.488L111.356 254.976C110.725 253.402 111.556 251.62 113.168 251.086L113.987 250.813V250.816Z" fill="white"/>
<path d="M117.37 261.503C114.918 261.503 112.697 260.014 111.782 257.724L110.778 255.212C110.408 254.289 110.437 253.283 110.855 252.382C111.276 251.478 112.026 250.811 112.973 250.495L113.485 250.325L116.596 239.993C116.906 238.964 117.907 238.305 118.979 238.427C120.188 238.564 121.067 239.658 120.942 240.865L120.518 244.892L124.499 248.08C126.006 249.287 126.604 251.325 125.987 253.152L124.573 257.346C123.777 259.707 121.65 261.31 119.156 261.429L117.663 261.5C117.566 261.506 117.469 261.506 117.375 261.506L117.37 261.503ZM118.723 239.663C118.3 239.663 117.919 239.939 117.794 240.354L114.589 250.998C114.529 251.194 114.381 251.348 114.185 251.413L113.366 251.686C112.749 251.89 112.259 252.325 111.989 252.91C111.716 253.496 111.699 254.146 111.938 254.746L112.942 257.258C113.696 259.139 115.564 260.338 117.594 260.244L119.087 260.173C121.061 260.08 122.745 258.809 123.376 256.943L124.789 252.748C125.239 251.419 124.804 249.932 123.706 249.054L119.46 245.653C119.292 245.52 119.207 245.312 119.23 245.099L119.69 240.734C119.744 240.209 119.363 239.731 118.834 239.672C118.797 239.666 118.76 239.666 118.723 239.666V239.663Z" fill="#2C2C2C"/>
<path d="M113.988 250.816L117.68 251.285C117.68 251.285 118.226 254.283 115.902 254.226L113.991 250.816H113.988Z" fill="white"/>
<path d="M115.965 254.854C115.939 254.854 115.911 254.854 115.885 254.854C115.538 254.845 115.265 254.558 115.274 254.212C115.282 253.865 115.555 253.601 115.916 253.601C116.297 253.618 116.579 253.513 116.764 253.297C117.071 252.939 117.125 252.308 117.108 251.845L113.911 251.438C113.567 251.396 113.326 251.08 113.368 250.739C113.411 250.396 113.729 250.16 114.071 250.197L117.762 250.666C118.032 250.7 118.251 250.907 118.299 251.174C118.333 251.365 118.612 253.069 117.719 254.109C117.426 254.45 116.886 254.854 115.967 254.854H115.965Z" fill="#2C2C2C"/>
<path d="M120.087 251.987C120.053 251.987 120.016 251.984 119.982 251.978C119.641 251.921 119.411 251.597 119.47 251.257L120.372 245.977C120.429 245.636 120.756 245.406 121.094 245.465C121.435 245.522 121.666 245.846 121.606 246.187L120.705 251.467C120.653 251.771 120.386 251.987 120.087 251.987Z" fill="#2C2C2C"/>
<path d="M122.732 253.254C122.695 253.254 122.658 253.251 122.621 253.246C122.28 253.183 122.055 252.859 122.115 252.518L122.874 248.324C122.937 247.983 123.264 247.759 123.602 247.818C123.944 247.881 124.168 248.205 124.109 248.546L123.349 252.74C123.295 253.044 123.031 253.254 122.732 253.254Z" fill="#2C2C2C"/>
<path d="M84.6691 295.843C84.3819 295.843 84.126 295.647 84.0577 295.354L79.8517 276.862C79.775 276.523 79.9854 276.188 80.3238 276.111C80.6622 276.035 80.9978 276.248 81.0746 276.583L85.2806 295.076C85.3573 295.414 85.1469 295.749 84.8085 295.826C84.763 295.837 84.7146 295.84 84.6691 295.84V295.843Z" fill="#2C2C2C"/>
<path d="M34.8178 371.107C34.5704 371.107 34.3344 370.959 34.2377 370.714C34.1069 370.393 34.2633 370.03 34.5818 369.899C47.0405 364.85 45.2091 336.88 45.1892 336.599C45.1636 336.255 45.4252 335.954 45.7693 335.931C46.1305 335.903 46.4149 336.167 46.4376 336.511C46.5229 337.699 48.3458 365.674 35.051 371.061C34.9742 371.092 34.8946 371.107 34.815 371.107H34.8178Z" fill="white"/>
<path d="M62.3454 261.046C58.5432 260.426 55.816 257.051 56.0179 253.212L56.3307 247.25C59.9395 246.969 62.9397 245.255 62.9312 244.116C62.9255 243.562 61.6031 238.143 60.7756 235.904C61.4752 235.336 62.3255 233.773 60.8183 232.815C59.3139 231.858 55.9297 225.763 55.9297 225.763C51.7579 220.923 50.5493 227.743 47.4324 228.311C45.274 228.703 44.1023 230.016 44.9185 232.829C45.7347 235.645 44.1848 234.233 42.5951 233.429C41.0083 232.628 39.9276 233.25 40.7978 235.81C41.668 238.37 44.8446 239.908 44.8446 239.908L46.349 242.854L43.1781 257.349C42.5781 260.088 40.6045 262.327 37.9569 263.271L33.5859 264.825L56.5582 276.825L67.6548 261.912L62.3482 261.046H62.3454Z" fill="white"/>
<path d="M56.5564 277.45C56.4569 277.45 56.3574 277.427 56.2664 277.379L33.2941 265.379C33.0723 265.265 32.9415 265.03 32.9585 264.78C32.9756 264.529 33.1377 264.316 33.3737 264.234L37.7446 262.68C40.2045 261.804 42.0075 259.761 42.5649 257.215L45.6903 242.94L44.3793 240.371C43.637 239.976 41.0292 238.436 40.2045 236.012C39.6841 234.48 39.7524 233.412 40.415 232.838C40.7449 232.551 41.5013 232.176 42.8777 232.872C43.1763 233.023 43.4721 233.193 43.7508 233.355C43.9726 233.483 44.2627 233.651 44.493 233.761C44.4674 233.597 44.4162 233.352 44.3167 233.006C43.8816 231.5 43.947 230.272 44.5158 229.351C45.0475 228.496 45.9888 227.939 47.3198 227.695C48.2212 227.53 49.026 226.598 49.8052 225.697C50.7778 224.572 51.7817 223.41 53.1979 223.41C54.2274 223.41 55.2767 224.046 56.4029 225.353C56.4313 225.385 56.4541 225.421 56.4768 225.458C57.7565 227.763 60.1567 231.653 61.1549 232.287C62.0308 232.844 62.2498 233.557 62.2782 234.054C62.3237 234.821 61.9568 235.563 61.5018 236.072C62.3322 238.498 63.5551 243.46 63.5607 244.107C63.5721 245.701 60.4781 247.404 56.929 247.818L56.6446 253.243C56.4598 256.769 58.9538 259.858 62.4488 260.426L67.7554 261.293C67.9715 261.327 68.1535 261.472 68.236 261.677C68.3184 261.878 68.29 262.108 68.1592 262.285L57.0626 277.197C56.9404 277.362 56.7527 277.45 56.5593 277.45H56.5564ZM35.1454 264.933L56.3716 276.021L66.5325 262.364L62.2412 261.665C58.1177 260.992 55.1715 257.343 55.3876 253.178L55.7005 247.216C55.7175 246.903 55.9649 246.648 56.2778 246.625C59.9434 246.341 62.3038 244.642 62.3009 244.119C62.2725 243.587 61.007 238.348 60.1823 236.12C60.0885 235.87 60.1681 235.586 60.3757 235.418C60.6629 235.185 61.0525 234.631 61.0241 234.128C61.007 233.821 60.8278 233.565 60.4781 233.344C58.9253 232.358 55.8881 226.984 55.4104 226.123C54.5658 225.154 53.8207 224.663 53.1951 224.663C52.3505 224.663 51.5741 225.564 50.7494 226.518C49.8308 227.584 48.8782 228.684 47.5416 228.928C46.5747 229.104 45.9149 229.468 45.5793 230.011C45.204 230.616 45.1841 231.505 45.5168 232.656C45.8239 233.722 45.9206 234.517 45.3831 234.935C44.7859 235.401 44.0152 234.955 43.1194 234.438C42.8578 234.287 42.582 234.128 42.3061 233.989C41.6975 233.682 41.3307 233.696 41.2312 233.781C41.106 233.889 40.9781 234.409 41.3847 235.608C42.1639 237.893 45.0817 239.328 45.113 239.342C45.2352 239.402 45.3348 239.501 45.3973 239.621L46.9017 242.567C46.9671 242.695 46.987 242.843 46.9557 242.985L43.7849 257.48C43.1337 260.449 41.0321 262.833 38.1598 263.856L35.1397 264.93L35.1454 264.933Z" fill="#2C2C2C"/>
<path d="M55.0319 248.034C52.3047 248.034 50.6126 246.062 50.0467 244.852C49.9017 244.539 50.0353 244.164 50.351 244.019C50.6638 243.874 51.0364 244.008 51.1842 244.321C51.2497 244.457 52.7256 247.455 56.1837 246.639C56.5192 246.557 56.8576 246.767 56.9373 247.105C57.0169 247.441 56.8093 247.779 56.4709 247.858C55.9618 247.978 55.4812 248.034 55.0319 248.034Z" fill="#2C2C2C"/>
<path d="M65.1318 160.768C77.2945 160.768 87.1543 150.963 87.1543 138.868C87.1543 126.774 77.2945 116.969 65.1318 116.969C52.9692 116.969 43.1094 126.774 43.1094 138.868C43.1094 150.963 52.9692 160.768 65.1318 160.768Z" fill="white"/>
<path d="M65.1438 161.396C55.3981 161.396 46.3746 155.085 43.437 145.336C41.7051 139.587 42.3194 133.512 45.1717 128.224C48.0383 122.907 52.8187 119.023 58.6315 117.293C70.5925 113.726 83.2418 120.504 86.8278 132.401C88.5597 138.149 87.9454 144.225 85.0931 149.513C82.2265 154.829 77.4461 158.714 71.6334 160.444C69.4749 161.089 67.2909 161.393 65.1438 161.393V161.396ZM65.121 117.594C63.0906 117.594 61.0288 117.884 58.9869 118.492C53.4984 120.128 48.9824 123.794 46.2751 128.818C43.582 133.81 43.0019 139.55 44.6371 144.975C48.0241 156.21 59.9737 162.612 71.275 159.245C76.7636 157.608 81.2796 153.943 83.9869 148.919C86.68 143.926 87.2601 138.189 85.6249 132.762C82.8493 123.555 74.3264 117.594 65.121 117.594Z" fill="#2C2C2C"/>
<path d="M58.4949 147.444L57.1214 130.742C57.0503 129.889 57.9006 129.258 58.6968 129.574L76.0981 136.439C76.9825 136.788 77.0877 137.996 76.2773 138.493L60.2467 148.331C59.513 148.783 58.5632 148.299 58.4921 147.444H58.4949Z" fill="url(#paint18_linear_697_7129)"/>
<path d="M139.705 70.4357C152.002 70.4357 161.972 60.5228 161.972 48.2945C161.972 36.0663 152.002 26.1533 139.705 26.1533C127.407 26.1533 117.438 36.0663 117.438 48.2945C117.438 60.5228 127.407 70.4357 139.705 70.4357Z" fill="white"/>
<path d="M139.716 71.0637C129.865 71.0637 120.745 64.6845 117.776 54.8301C116.024 49.0191 116.647 42.8786 119.53 37.5337C122.428 32.1603 127.26 28.2362 133.135 26.4858C145.224 22.8799 158.013 29.7337 161.636 41.7562C163.388 47.5643 162.765 53.7077 159.881 59.0526C156.983 64.4259 152.152 68.3501 146.276 70.1004C144.092 70.7511 141.886 71.0609 139.716 71.0609V71.0637ZM118.976 54.4692C122.403 65.8325 134.486 72.3083 145.918 68.9013C151.472 67.2475 156.036 63.5365 158.775 58.4587C161.499 53.4093 162.085 47.604 160.433 42.117C157.006 30.7509 144.923 24.2779 133.491 27.6849C127.937 29.3387 123.372 33.0497 120.634 38.1275C117.909 43.1769 117.324 48.9822 118.976 54.4692Z" fill="#2C2C2C"/>
<path d="M134.848 62.7978H131.305L135.798 34.1211H139.341L134.848 62.7978Z" fill="url(#paint19_linear_697_7129)"/>
<path d="M128.438 45.9761L128.918 42.6089H151.862L151.378 45.9761H128.438Z" fill="url(#paint20_linear_697_7129)"/>
<path d="M127.344 53.6255L127.827 50.2583H150.768L150.285 53.6255H127.344Z" fill="url(#paint21_linear_697_7129)"/>
<path d="M143.329 62.7978H139.785L144.276 34.1211H147.819L143.329 62.7978Z" fill="url(#paint22_linear_697_7129)"/>
<path d="M80.8545 105.116C96.4646 105.116 109.119 92.4719 109.119 76.8743C109.119 61.2767 96.4646 48.6323 80.8545 48.6323C65.2443 48.6323 52.5898 61.2767 52.5898 76.8743C52.5898 92.4719 65.2443 105.116 80.8545 105.116Z" fill="white"/>
<path d="M80.8551 105.744C64.9241 105.744 51.9648 92.7956 51.9648 76.8774C51.9648 60.9591 64.9269 48.0103 80.8551 48.0103C96.7833 48.0103 109.748 60.9591 109.748 76.8774C109.748 92.7956 96.7861 105.744 80.8551 105.744ZM80.8551 49.2605C65.6151 49.2605 53.2161 61.6496 53.2161 76.8774C53.2161 92.1051 65.6151 104.494 80.8551 104.494C96.0951 104.494 108.494 92.1051 108.494 76.8774C108.494 61.6496 96.0951 49.2605 80.8551 49.2605Z" fill="#2C2C2C"/>
<path d="M81.0131 91.0822C80.7345 91.2555 80.3818 91.264 80.0946 91.102C77.6034 89.7097 66.049 82.7536 66.5012 73.655C66.979 64.0365 77.4243 65.7045 80.0036 70.4384C80.1003 70.6175 80.2937 70.7254 80.4984 70.7141C80.7032 70.7027 80.8823 70.5777 80.962 70.3873C82.2275 67.3469 86.314 65.1447 90.1617 66.5882C94.7516 68.3101 99.4154 79.6848 81.016 91.0793L81.0131 91.0822Z" fill="url(#paint23_linear_697_7129)"/>
<path d="M135.992 209.023L117.903 213.095C115.673 213.598 113.942 215.351 113.467 217.584L111.055 228.933L102.782 219.602C101.369 218.008 99.1992 217.309 97.1175 217.775L80.4812 221.52C77.3303 222.23 74.1993 220.252 73.4883 217.101L65.5313 181.818C64.8204 178.669 66.7997 175.541 69.9535 174.831L125.462 162.333C128.613 161.623 131.744 163.601 132.455 166.752L140.412 202.035C141.123 205.184 139.143 208.312 135.99 209.023H135.992Z" fill="white"/>
<path d="M111.057 229.559C110.881 229.559 110.707 229.485 110.588 229.348L102.315 220.019C101.052 218.596 99.1159 217.971 97.2589 218.388L80.6226 222.134C77.1389 222.921 73.6666 220.724 72.8817 217.243L64.9248 181.96C64.1399 178.479 66.3353 175.01 69.819 174.225L125.327 161.728C128.811 160.944 132.283 163.138 133.068 166.619L141.025 201.902C141.81 205.383 139.615 208.852 136.131 209.637L118.041 213.708C116.056 214.155 114.504 215.729 114.08 217.715L111.668 229.061C111.62 229.291 111.444 229.476 111.216 229.536C111.162 229.55 111.111 229.556 111.057 229.556V229.559ZM98.4049 217.007C100.236 217.007 102.008 217.786 103.254 219.187L110.702 227.586L112.854 217.454C113.378 214.99 115.306 213.038 117.766 212.484L135.855 208.412C138.665 207.778 140.436 204.979 139.802 202.172L131.845 166.889C131.211 164.081 128.413 162.311 125.6 162.945L70.092 175.442C67.2823 176.075 65.5134 178.874 66.1448 181.682L74.1017 216.965C74.4089 218.323 75.2279 219.482 76.4052 220.23C77.5826 220.977 78.9845 221.216 80.3439 220.909L96.9802 217.164C97.4522 217.059 97.93 217.005 98.4021 217.005L98.4049 217.007Z" fill="#2C2C2C"/>
<path d="M82.0803 187.501C81.7931 187.501 81.5372 187.305 81.4689 187.015C81.3921 186.677 81.6026 186.342 81.941 186.265L121.845 177.172C122.184 177.092 122.519 177.305 122.596 177.644C122.673 177.982 122.462 178.317 122.124 178.394L82.2197 187.487C82.1742 187.498 82.1258 187.504 82.0803 187.504V187.501Z" fill="#2C2C2C"/>
<path d="M83.2444 197.063C82.9572 197.063 82.7012 196.867 82.633 196.577C82.5562 196.239 82.7666 195.903 83.1051 195.827L112.681 189.086C113.019 189.007 113.355 189.22 113.431 189.558C113.508 189.896 113.298 190.232 112.959 190.308L83.3837 197.048C83.3382 197.06 83.2899 197.066 83.2444 197.066V197.063Z" fill="#2C2C2C"/>
<path d="M86.5139 206.389C86.2267 206.389 85.9708 206.193 85.9025 205.903C85.8257 205.565 86.0362 205.229 86.3746 205.153L126.279 196.06C126.617 195.983 126.953 196.193 127.03 196.531C127.106 196.87 126.896 197.205 126.558 197.282L86.6533 206.374C86.6078 206.386 86.5594 206.392 86.5139 206.392V206.389Z" fill="#2C2C2C"/>
<path d="M516.163 176.664H460.541C458.922 176.664 457.609 177.975 457.609 179.593V199.754C457.609 201.372 458.922 202.683 460.541 202.683H516.163C517.783 202.683 519.095 201.372 519.095 199.754V179.593C519.095 177.975 517.783 176.664 516.163 176.664Z" fill="white"/>
<path d="M516.164 203.312H460.542C458.58 203.312 456.984 201.718 456.984 199.757V179.596C456.984 177.636 458.58 176.042 460.542 176.042H471.516C471.863 176.042 472.142 176.323 472.142 176.667C472.142 177.01 471.86 177.292 471.516 177.292H460.542C459.271 177.292 458.236 178.326 458.236 179.596V199.757C458.236 201.027 459.271 202.061 460.542 202.061H516.164C517.435 202.061 518.47 201.027 518.47 199.757V179.596C518.47 178.326 517.435 177.292 516.164 177.292H478.907C478.56 177.292 478.282 177.01 478.282 176.667C478.282 176.323 478.563 176.042 478.907 176.042H516.164C518.126 176.042 519.722 177.636 519.722 179.596V199.757C519.722 201.718 518.126 203.312 516.164 203.312Z" fill="#2C2C2C"/>
<path d="M510.977 186.887H466.77C466.423 186.887 466.145 186.606 466.145 186.262C466.145 185.919 466.426 185.637 466.77 185.637H510.977C511.324 185.637 511.603 185.919 511.603 186.262C511.603 186.606 511.321 186.887 510.977 186.887Z" fill="#2C2C2C"/>
<path d="M510.977 192.789H501.735C501.388 192.789 501.109 192.508 501.109 192.164C501.109 191.82 501.391 191.539 501.735 191.539H510.977C511.324 191.539 511.603 191.82 511.603 192.164C511.603 192.508 511.322 192.789 510.977 192.789Z" fill="#2C2C2C"/>
<path d="M495.829 192.789H466.774C466.427 192.789 466.148 192.508 466.148 192.164C466.148 191.82 466.43 191.539 466.774 191.539H495.829C496.176 191.539 496.455 191.82 496.455 192.164C496.455 192.508 496.173 192.789 495.829 192.789Z" fill="#2C2C2C"/>
</g>
<defs>
<linearGradient id="paint0_linear_697_7129" x1="459.145" y1="477.739" x2="459.145" y2="509.637" gradientUnits="userSpaceOnUse">
<stop stop-color="#FFD746"/>
<stop offset="0.58" stop-color="#FFAF49"/>
<stop offset="1" stop-color="#FF984C"/>
</linearGradient>
<linearGradient id="paint1_linear_697_7129" x1="472.636" y1="496.651" x2="472.636" y2="519.461" gradientUnits="userSpaceOnUse">
<stop stop-color="#FFD746"/>
<stop offset="0.58" stop-color="#FFAF49"/>
<stop offset="1" stop-color="#FF984C"/>
</linearGradient>
<linearGradient id="paint2_linear_697_7129" x1="472.12" y1="515.611" x2="472.12" y2="516.8" gradientUnits="userSpaceOnUse">
<stop stop-color="#FFD746"/>
<stop offset="0.58" stop-color="#FFAF49"/>
<stop offset="1" stop-color="#FF984C"/>
</linearGradient>
<linearGradient id="paint3_linear_697_7129" x1="472.257" y1="501.515" x2="472.257" y2="508.827" gradientUnits="userSpaceOnUse">
<stop stop-color="#FFD746"/>
<stop offset="0.58" stop-color="#FFAF49"/>
<stop offset="1" stop-color="#FF984C"/>
</linearGradient>
<linearGradient id="paint4_linear_697_7129" x1="477.158" y1="504.432" x2="477.158" y2="509.814" gradientUnits="userSpaceOnUse">
<stop stop-color="#FFD746"/>
<stop offset="0.58" stop-color="#FFAF49"/>
<stop offset="1" stop-color="#FF984C"/>
</linearGradient>
<linearGradient id="paint5_linear_697_7129" x1="483.202" y1="310.541" x2="483.202" y2="432.443" gradientUnits="userSpaceOnUse">
<stop stop-color="#FFD746"/>
<stop offset="0.58" stop-color="#FFAF49"/>
<stop offset="1" stop-color="#FF984C"/>
</linearGradient>
<linearGradient id="paint6_linear_697_7129" x1="450.58" y1="315.297" x2="450.58" y2="485.66" gradientUnits="userSpaceOnUse">
<stop stop-color="#FFD746"/>
<stop offset="0.58" stop-color="#FFAF49"/>
<stop offset="1" stop-color="#FF984C"/>
</linearGradient>
<linearGradient id="paint7_linear_697_7129" x1="109.132" y1="470.437" x2="109.132" y2="488.179" gradientUnits="userSpaceOnUse">
<stop stop-color="#FFD746"/>
<stop offset="0.58" stop-color="#FFAF49"/>
<stop offset="1" stop-color="#FF984C"/>
</linearGradient>
<linearGradient id="paint8_linear_697_7129" x1="117.356" y1="467.363" x2="117.356" y2="510.278" gradientUnits="userSpaceOnUse">
<stop stop-color="#FFD746"/>
<stop offset="0.58" stop-color="#FFAF49"/>
<stop offset="1" stop-color="#FF984C"/>
</linearGradient>
<linearGradient id="paint9_linear_697_7129" x1="133.584" y1="500.439" x2="133.584" y2="519.091" gradientUnits="userSpaceOnUse">
<stop stop-color="#FFD746"/>
<stop offset="0.58" stop-color="#FFAF49"/>
<stop offset="1" stop-color="#FF984C"/>
</linearGradient>
<linearGradient id="paint10_linear_697_7129" x1="133.805" y1="504.745" x2="133.805" y2="512.065" gradientUnits="userSpaceOnUse">
<stop stop-color="#FFD746"/>
<stop offset="0.58" stop-color="#FFAF49"/>
<stop offset="1" stop-color="#FF984C"/>
</linearGradient>
<linearGradient id="paint11_linear_697_7129" x1="133.556" y1="516.009" x2="133.556" y2="517.199" gradientUnits="userSpaceOnUse">
<stop stop-color="#FFD746"/>
<stop offset="0.58" stop-color="#FFAF49"/>
<stop offset="1" stop-color="#FF984C"/>
</linearGradient>
<linearGradient id="paint12_linear_697_7129" x1="54.7098" y1="465.989" x2="54.7098" y2="488.349" gradientUnits="userSpaceOnUse">
<stop stop-color="#FFD746"/>
<stop offset="0.58" stop-color="#FFAF49"/>
<stop offset="1" stop-color="#FF984C"/>
</linearGradient>
<linearGradient id="paint13_linear_697_7129" x1="52.6947" y1="471.068" x2="52.6947" y2="511.749" gradientUnits="userSpaceOnUse">
<stop stop-color="#FFD746"/>
<stop offset="0.58" stop-color="#FFAF49"/>
<stop offset="1" stop-color="#FF984C"/>
</linearGradient>
<linearGradient id="paint14_linear_697_7129" x1="65.1492" y1="502.701" x2="65.1492" y2="519.14" gradientUnits="userSpaceOnUse">
<stop stop-color="#FFD746"/>
<stop offset="0.58" stop-color="#FFAF49"/>
<stop offset="1" stop-color="#FF984C"/>
</linearGradient>
<linearGradient id="paint15_linear_697_7129" x1="64.9008" y1="515.526" x2="64.9008" y2="516.715" gradientUnits="userSpaceOnUse">
<stop stop-color="#FFD746"/>
<stop offset="0.58" stop-color="#FFAF49"/>
<stop offset="1" stop-color="#FF984C"/>
</linearGradient>
<linearGradient id="paint16_linear_697_7129" x1="61.4092" y1="506.195" x2="61.4092" y2="512.331" gradientUnits="userSpaceOnUse">
<stop stop-color="#FFD746"/>
<stop offset="0.58" stop-color="#FFAF49"/>
<stop offset="1" stop-color="#FF984C"/>
</linearGradient>
<linearGradient id="paint17_linear_697_7129" x1="81.076" y1="324.759" x2="81.076" y2="482.029" gradientUnits="userSpaceOnUse">
<stop stop-color="#FFD746"/>
<stop offset="0.58" stop-color="#FFAF49"/>
<stop offset="1" stop-color="#FF984C"/>
</linearGradient>
<linearGradient id="paint18_linear_697_7129" x1="57.1172" y1="138.997" x2="76.8277" y2="138.997" gradientUnits="userSpaceOnUse">
<stop stop-color="#DE69B1"/>
<stop offset="1" stop-color="#D82364"/>
</linearGradient>
<linearGradient id="paint19_linear_697_7129" x1="131.305" y1="48.4595" x2="139.341" y2="48.4595" gradientUnits="userSpaceOnUse">
<stop stop-color="#DE69B1"/>
<stop offset="1" stop-color="#D82364"/>
</linearGradient>
<linearGradient id="paint20_linear_697_7129" x1="128.438" y1="44.2925" x2="151.862" y2="44.2925" gradientUnits="userSpaceOnUse">
<stop stop-color="#DE69B1"/>
<stop offset="1" stop-color="#D82364"/>
</linearGradient>
<linearGradient id="paint21_linear_697_7129" x1="127.344" y1="51.9419" x2="150.768" y2="51.9419" gradientUnits="userSpaceOnUse">
<stop stop-color="#DE69B1"/>
<stop offset="1" stop-color="#D82364"/>
</linearGradient>
<linearGradient id="paint22_linear_697_7129" x1="139.785" y1="48.4595" x2="147.819" y2="48.4595" gradientUnits="userSpaceOnUse">
<stop stop-color="#DE69B1"/>
<stop offset="1" stop-color="#D82364"/>
</linearGradient>
<linearGradient id="paint23_linear_697_7129" x1="66.4883" y1="78.6764" x2="94.2947" y2="78.6764" gradientUnits="userSpaceOnUse">
<stop stop-color="#DE69B1"/>
<stop offset="1" stop-color="#D82364"/>
</linearGradient>
<clipPath id="clip0_697_7129">
<rect width="521" height="520" fill="white"/>
</clipPath>
</defs>
</svg>
