<svg width="17" height="17" viewBox="0 0 17 17" fill="none" xmlns="http://www.w3.org/2000/svg">
<g clip-path="url(#clip0_166_4419)">
<path d="M8.5 17C3.81281 17 0 13.1872 0 8.5C0 3.81281 3.81281 0 8.5 0C13.1872 0 17 3.81348 17 8.5C17 13.1865 13.1872 17 8.5 17ZM8.5 1.3168C4.5397 1.3168 1.3168 4.53903 1.3168 8.5C1.3168 12.461 4.5397 15.6832 8.5 15.6832C12.461 15.6832 15.6832 12.461 15.6832 8.5C15.6832 4.53903 12.4603 1.3168 8.5 1.3168Z" fill="#CECECE"/>
<path d="M12.2598 7.59133L8.96775 10.8834C8.71096 11.1388 8.29619 11.1388 8.03939 10.8834L4.74737 7.59133C4.53603 7.34509 4.53603 6.98099 4.74737 6.73476C4.98374 6.45887 5.39985 6.42663 5.67573 6.663L8.50029 9.48753L11.3314 6.66297C11.5882 6.4075 12.003 6.4075 12.2598 6.66297C12.5152 6.91976 12.5152 7.33457 12.2598 7.59133Z" fill="#CECECE"/>
</g>
<defs>
<clipPath id="clip0_166_4419">
<rect width="17" height="17" fill="white" transform="matrix(1 0 0 -1 0 17)"/>
</clipPath>
</defs>
</svg>
