<svg width="72" height="68" viewBox="0 0 72 68" fill="none" xmlns="http://www.w3.org/2000/svg">
<g filter="url(#filter0_d_166_2188)">
<path fill-rule="evenodd" clip-rule="evenodd" d="M20.6738 36.1241C20.6369 36.1414 20.6021 36.1654 20.5695 36.1914L14.6521 41.1219C14.1673 41.5262 13.4891 41.6154 12.9173 41.3458C12.3434 41.0784 11.9782 40.5023 11.9782 39.8697V35.8393C11.0065 35.5632 10.1086 35.0414 9.38037 34.3154C8.26081 33.1936 7.63037 31.6719 7.63037 30.0871V13.7828C7.63037 12.198 8.26081 10.6762 9.38037 9.55449C10.5021 8.43492 12.0238 7.80449 13.6086 7.80449H33.1738C34.7586 7.80449 36.2804 8.43492 37.4021 9.55449C38.5217 10.6762 39.1521 12.198 39.1521 13.7828V14.3262H28.826C26.663 14.3262 24.5912 15.1849 23.0608 16.7132C21.5325 18.2436 20.6738 20.3154 20.6738 22.4784V36.1241Z" fill="#00005B"/>
<path fill-rule="evenodd" clip-rule="evenodd" d="M22.8481 22.4783C22.8481 20.8935 23.4786 19.3718 24.5981 18.2501C25.7199 17.1305 27.2416 16.5001 28.8264 16.5001H48.3916C49.9764 16.5001 51.4981 17.1305 52.6199 18.2501C53.7394 19.3718 54.3699 20.8935 54.3699 22.4783V38.7827C54.3699 40.3675 53.7394 41.8892 52.6199 43.0109C51.8916 43.737 50.9938 44.2588 50.0221 44.5348V48.5653C50.0221 49.1979 49.6568 49.774 49.0829 50.0414C48.5112 50.3109 47.8329 50.2218 47.3481 49.8175L41.4308 44.887C41.3329 44.8066 41.209 44.7609 41.0829 44.7609H28.8264C27.2416 44.7609 25.7199 44.1305 24.5981 43.0109C23.4786 41.8892 22.8481 40.3675 22.8481 38.7827V22.4783ZM33.1742 28.4566H39.696C40.596 28.4566 41.3264 27.7261 41.3264 26.8261C41.3264 25.9261 40.596 25.1957 39.696 25.1957H33.1742C32.2742 25.1957 31.5438 25.9261 31.5438 26.8261C31.5438 27.7261 32.2742 28.4566 33.1742 28.4566ZM33.1742 34.9783H44.0438C44.9438 34.9783 45.6742 34.2479 45.6742 33.3479C45.6742 32.4479 44.9438 31.7175 44.0438 31.7175H33.1742C32.2742 31.7175 31.5438 32.4479 31.5438 33.3479C31.5438 34.2479 32.2742 34.9783 33.1742 34.9783Z" fill="#00005B"/>
</g>
<defs>
<filter id="filter0_d_166_2188" x="0.367213" y="0.541331" width="70.9503" height="66.6017" filterUnits="userSpaceOnUse" color-interpolation-filters="sRGB">
<feFlood flood-opacity="0" result="BackgroundImageFix"/>
<feColorMatrix in="SourceAlpha" type="matrix" values="0 0 0 0 0 0 0 0 0 0 0 0 0 0 0 0 0 0 127 0" result="hardAlpha"/>
<feOffset dx="4.84211" dy="4.84211"/>
<feGaussianBlur stdDeviation="6.05263"/>
<feComposite in2="hardAlpha" operator="out"/>
<feColorMatrix type="matrix" values="0 0 0 0 0 0 0 0 0 0 0 0 0 0 0 0 0 0 0.2 0"/>
<feBlend mode="normal" in2="BackgroundImageFix" result="effect1_dropShadow_166_2188"/>
<feBlend mode="normal" in="SourceGraphic" in2="effect1_dropShadow_166_2188" result="shape"/>
</filter>
</defs>
</svg>
