<svg width="729" height="486" viewBox="0 0 729 486" fill="none" xmlns="http://www.w3.org/2000/svg">
<g clip-path="url(#clip0_697_4570)">
<path d="M70.9242 384.421C70.5731 384.421 70.2407 384.208 70.105 383.86C61.7933 362.389 56.1227 340.038 53.2475 317.435C49.944 291.443 51.2181 272.577 52.4495 254.335C53.7262 235.423 54.9337 217.561 50.2313 194.75C45.0288 169.508 33.8179 144.82 16.9072 121.367C16.6252 120.974 16.713 120.427 17.1066 120.143C17.5003 119.861 18.0482 119.949 18.3328 120.342C35.3872 143.994 46.6991 168.91 51.9522 194.395C56.7025 217.441 55.487 235.418 54.2023 254.451C52.9762 272.611 51.7075 291.387 54.9896 317.212C57.8462 339.677 63.4822 361.887 71.7434 383.225C71.919 383.677 71.6929 384.184 71.2407 384.359C71.137 384.399 71.0279 384.418 70.9242 384.418V384.421Z" fill="#F4DBFF"/>
<path d="M2.20474 103.72C4.59054 100.426 9.38608 97.7202 13.0353 99.1304C17.6952 100.928 18.1686 108.534 18.4266 112.664C18.6367 116.05 18.2085 118.886 17.767 120.854C15.6817 120.833 12.2453 120.538 8.46049 118.865C5.22888 117.436 1.37223 115.734 0.281731 111.905C-0.848667 107.932 1.7579 104.336 2.20474 103.72Z" fill="#F4DBFF"/>
<path d="M42.4686 117.139C46.0779 119.017 49.4585 123.359 48.5941 127.17C47.4903 132.035 40.0243 133.613 35.9708 134.468C32.6462 135.169 29.7736 135.158 27.7602 135.01C27.4782 132.949 27.2681 129.51 28.3746 125.526C29.3188 122.124 30.4439 118.066 34.0798 116.433C37.8513 114.738 41.7957 116.789 42.4686 117.139Z" fill="#F4DBFF"/>
<path d="M6.01008 144.058C3.75726 140.671 2.89816 135.241 5.49675 132.319C8.81612 128.591 16.1172 130.811 20.0802 132.016C23.3304 133.004 25.8412 134.401 27.5302 135.501C26.7801 137.442 25.2986 140.555 22.4048 143.508C19.9339 146.031 16.9842 149.042 13.0106 148.718C8.88794 148.384 6.42766 144.687 6.00476 144.055L6.01008 144.058Z" fill="#F4DBFF"/>
<path d="M58.2408 146.533C62.0257 148.501 65.5658 153.05 64.6615 157.044C63.5071 162.143 55.6795 163.795 51.4292 164.693C47.9449 165.428 44.934 165.415 42.8249 165.258C42.5296 163.097 42.3115 159.493 43.4685 155.321C44.4579 151.757 45.6389 147.502 49.4477 145.792C53.4027 144.015 57.5333 146.164 58.2408 146.533Z" fill="#F4DBFF"/>
<path d="M19.545 174.479C17.1831 170.931 16.2842 165.24 19.0077 162.178C22.4867 158.268 30.1388 160.597 34.2934 161.862C37.7005 162.897 40.331 164.361 42.1024 165.513C41.3178 167.547 39.7645 170.809 36.7324 173.905C34.1418 176.55 31.0511 179.705 26.8886 179.365C22.5665 179.015 19.9892 175.14 19.5477 174.476L19.545 174.479Z" fill="#F4DBFF"/>
<path d="M74.4617 190.947C77.7943 194.084 80.1216 199.818 78.0178 203.679C75.3314 208.611 66.7643 208.032 62.1124 207.718C58.2983 207.461 55.1917 206.571 53.0586 205.793C53.3857 203.474 54.2156 199.687 56.6306 195.714C58.6946 192.32 61.1602 188.273 65.5967 187.614C70.2007 186.932 73.8393 190.358 74.4617 190.945V190.947Z" fill="#F4DBFF"/>
<path d="M27.1348 207.944C25.7331 203.591 26.4699 197.448 30.1803 195.082C34.9173 192.06 42.1412 196.697 46.0617 199.214C49.2773 201.281 51.5674 203.557 53.0595 205.267C51.6525 207.139 49.0938 210.055 45.0563 212.368C41.6066 214.344 37.4919 216.702 33.2895 215.138C28.9275 213.516 27.3982 208.759 27.1375 207.946L27.1348 207.944Z" fill="#F4DBFF"/>
<path d="M79.948 238.315C82.6876 242.421 83.7382 249.01 80.589 252.558C76.5675 257.088 67.7025 254.403 62.8883 252.948C58.9413 251.753 55.8932 250.064 53.8398 248.731C54.7468 246.372 56.5395 242.593 60.0477 239.005C63.0426 235.938 66.6173 232.281 71.4395 232.666C76.4451 233.065 79.4374 237.55 79.948 238.315Z" fill="#F4DBFF"/>
<path d="M25.5556 244.885C25.1434 239.97 27.4095 233.691 31.8832 232.103C37.5964 230.074 44.0622 236.7 47.5704 240.296C50.4483 243.247 52.2995 246.195 53.4538 248.354C51.5202 249.982 48.121 252.425 43.3148 253.878C39.2082 255.118 34.3089 256.597 30.274 253.936C26.0849 251.172 25.6328 245.804 25.5556 244.885Z" fill="#F4DBFF"/>
<path d="M80.117 288.713C82.9736 292.991 84.0694 299.861 80.7846 303.561C76.5902 308.285 67.3502 305.486 62.3338 303.967C58.2192 302.722 55.0408 300.961 52.9023 299.569C53.8466 297.11 55.7164 293.172 59.3735 289.43C62.4961 286.232 66.2224 282.421 71.2494 282.822C76.4678 283.239 79.585 287.913 80.1196 288.713H80.117Z" fill="#F4DBFF"/>
<path d="M22.9837 295.987C22.5528 290.861 24.9147 284.317 29.5825 282.663C35.5404 280.549 42.2776 287.457 45.9374 291.204C48.9376 294.279 50.8686 297.354 52.0708 299.604C50.0547 301.301 46.5119 303.848 41.5009 305.362C37.2214 306.655 32.1146 308.198 27.9042 305.423C23.5369 302.541 23.0661 296.945 22.9863 295.989L22.9837 295.987Z" fill="#F4DBFF"/>
<path d="M90.6918 340.075C94.2586 344.266 96.28 351.426 93.2532 355.765C89.3885 361.305 79.2229 359.48 73.7039 358.493C69.177 357.68 65.5837 356.206 63.1367 354.995C63.8336 352.267 65.3284 347.848 68.7461 343.419C71.6639 339.634 75.1455 335.122 80.5369 334.923C86.1303 334.716 90.0269 339.294 90.6945 340.075H90.6918Z" fill="white"/>
<path d="M83.2703 360.168C79.7515 360.168 76.1741 359.525 73.6048 359.066C69.9024 358.402 66.2958 357.207 62.8753 355.515C62.628 355.393 62.5003 355.114 62.5694 354.846C63.6812 350.496 65.6042 346.531 68.2799 343.06C71.2083 339.265 74.8496 334.546 80.5122 334.336C85.829 334.139 89.7096 338.019 91.1353 339.695C94.9281 344.151 96.9362 351.502 93.7312 356.097C91.5209 359.268 87.4382 360.168 83.2677 360.168H83.2703ZM63.8249 354.676C67.0192 356.208 70.3732 357.297 73.8069 357.913C79.1637 358.872 89.1218 360.659 92.7737 355.428C95.6169 351.351 93.6753 344.478 90.2469 340.449C88.9303 338.904 85.3263 335.324 80.5574 335.502C75.4427 335.69 72.1313 339.982 69.2109 343.769C66.724 346.993 64.9127 350.661 63.8249 354.676Z" fill="black"/>
<path d="M30.3797 355.765C29.2838 350.374 30.9754 343.129 35.7258 340.792C41.79 337.804 49.8092 344.305 54.1632 347.832C57.7353 350.727 60.169 353.752 61.7249 355.99C59.7939 358.043 56.3495 361.19 51.2162 363.421C46.8303 365.328 41.5985 367.601 36.7817 365.177C31.784 362.659 30.5845 356.774 30.3797 355.767V355.765Z" fill="white"/>
<path d="M41.3256 366.807C39.7111 366.807 38.094 366.491 36.5141 365.697C31.7744 363.31 30.2423 358.038 29.8035 355.882C28.6358 350.151 30.4365 342.744 35.4634 340.266C41.8628 337.114 50.1001 343.787 54.5259 347.373C57.4437 349.736 60.0263 352.522 62.2047 355.656C62.3616 355.882 62.3403 356.19 62.1515 356.389C59.0715 359.663 55.4728 362.208 51.4486 363.955C48.4218 365.27 44.887 366.805 41.3282 366.805L41.3256 366.807ZM39.1206 340.614C38.0301 340.614 36.9742 340.826 35.9794 341.315C31.5164 343.514 29.8939 350.467 30.9472 355.648C31.3515 357.637 32.7558 362.494 37.038 364.654C41.6075 366.953 46.5839 364.794 50.9725 362.885C54.7095 361.262 58.0661 358.925 60.9626 355.932C58.9066 353.048 56.4942 350.477 53.7865 348.284C50.2943 345.455 44.3178 340.614 39.118 340.614H39.1206Z" fill="black"/>
<path d="M705.918 80.8779H267.465C255.041 80.8779 244.969 90.9432 244.969 103.361V427.3C244.969 439.719 255.041 449.784 267.465 449.784H728.417V103.361C728.417 90.9432 718.345 80.8779 705.921 80.8779H705.918Z" fill="white"/>
<path d="M728.414 450.368H267.464C254.737 450.368 244.383 440.018 244.383 427.3V103.361C244.383 90.6429 254.737 80.2935 267.464 80.2935H705.917C718.644 80.2935 728.999 90.6429 728.999 103.361V449.784C728.999 450.108 728.738 450.368 728.414 450.368ZM267.464 81.462C255.384 81.462 245.553 91.2856 245.553 103.361V427.3C245.553 439.376 255.384 449.199 267.464 449.199H727.831V103.361C727.831 91.2856 718.001 81.462 705.92 81.462H267.464Z" fill="black"/>
<path d="M696.887 435.408H444.973C444.648 435.408 444.388 435.145 444.388 434.824C444.388 434.503 444.648 434.24 444.973 434.24H696.887C704.645 434.24 710.959 427.93 710.959 420.175V108.75C710.959 101.951 705.424 96.4219 698.623 96.4219H274.756C267.955 96.4219 262.42 101.951 262.42 108.75V191.888C262.42 192.212 262.16 192.472 261.835 192.472C261.511 192.472 261.25 192.209 261.25 191.888V108.75C261.25 101.308 267.309 95.2534 274.756 95.2534H698.623C706.071 95.2534 712.13 101.308 712.13 108.75V420.178C712.13 428.578 705.291 435.411 696.887 435.411V435.408Z" fill="black"/>
<path d="M692.241 485.416H156.781C136.801 485.416 120.605 469.245 120.605 449.295H728.414C728.414 469.242 712.218 485.416 692.238 485.416H692.241Z" fill="white"/>
<path d="M692.24 486H156.78C136.51 486 120.02 469.534 120.02 449.295C120.02 448.971 120.28 448.71 120.605 448.71H728.413C728.567 448.71 728.716 448.772 728.828 448.88C728.937 448.989 728.998 449.138 728.998 449.295C728.998 469.534 712.507 486 692.237 486H692.24ZM121.198 449.879C121.512 469.205 137.353 484.831 156.783 484.831H692.24C711.669 484.831 727.511 469.207 727.825 449.882H121.195L121.198 449.879Z" fill="black"/>
<path d="M693.822 114.035H280.844V134.208H693.822V114.035Z" fill="#F4DBFF"/>
<path d="M693.817 277.793H280.839C280.515 277.793 280.254 277.53 280.254 277.209V151.9C280.254 151.576 280.515 151.316 280.839 151.316H693.817C694.139 151.316 694.402 151.579 694.402 151.9V277.209C694.402 277.533 694.139 277.793 693.817 277.793ZM281.424 276.624H693.232V152.484H281.424V276.624Z" fill="black"/>
<path d="M280.84 277.793C280.59 277.793 280.356 277.631 280.279 277.378C280.186 277.07 280.359 276.744 280.67 276.648L693.648 151.34C693.959 151.244 694.284 151.419 694.38 151.73C694.473 152.038 694.3 152.365 693.989 152.46L281.011 277.769C280.955 277.787 280.896 277.795 280.84 277.795V277.793Z" fill="black"/>
<path d="M693.818 277.793C693.762 277.793 693.704 277.785 693.648 277.766L280.67 152.458C280.361 152.365 280.186 152.038 280.279 151.727C280.372 151.419 280.696 151.244 281.01 151.337L693.988 276.645C694.297 276.738 694.472 277.065 694.379 277.376C694.302 277.628 694.071 277.79 693.818 277.79V277.793Z" fill="black"/>
<path d="M398.72 394.993H280.839C280.515 394.993 280.254 394.73 280.254 394.409V305.904C280.254 305.58 280.515 305.319 280.839 305.319H398.72C399.044 305.319 399.305 305.582 399.305 305.904V394.409C399.305 394.733 399.044 394.993 398.72 394.993ZM281.424 393.824H398.134V306.49H281.424V393.824Z" fill="black"/>
<path d="M280.84 394.993C280.662 394.993 280.486 394.913 280.372 394.759C280.178 394.502 280.228 394.135 280.489 393.941L338.807 350.156L280.489 306.371C280.231 306.177 280.178 305.811 280.372 305.553C280.566 305.296 280.933 305.242 281.191 305.436L339.78 349.423L398.369 305.436C398.545 305.303 398.784 305.282 398.981 305.381C399.18 305.479 399.305 305.683 399.305 305.904V394.409C399.305 394.629 399.18 394.834 398.981 394.932C398.784 395.03 398.545 395.009 398.369 394.876L339.78 350.889L281.191 394.876C281.085 394.956 280.962 394.993 280.84 394.993ZM340.754 350.156L398.135 393.238V307.075L340.754 350.156Z" fill="black"/>
<path d="M546.269 394.993H428.386C428.061 394.993 427.801 394.73 427.801 394.409V305.904C427.801 305.58 428.061 305.319 428.386 305.319H546.269C546.594 305.319 546.854 305.582 546.854 305.904V394.409C546.854 394.733 546.594 394.993 546.269 394.993ZM428.974 393.824H545.684V306.49H428.974V393.824Z" fill="black"/>
<path d="M428.387 394.993C428.208 394.993 428.033 394.913 427.919 394.759C427.724 394.502 427.775 394.135 428.036 393.941L486.353 350.156L428.036 306.371C427.778 306.177 427.724 305.811 427.919 305.553C428.113 305.296 428.48 305.242 428.738 305.436L487.327 349.423L545.916 305.436C546.092 305.303 546.331 305.282 546.528 305.381C546.727 305.479 546.852 305.683 546.852 305.904V394.409C546.852 394.629 546.727 394.834 546.528 394.932C546.331 395.03 546.092 395.009 545.916 394.876L487.327 350.889L428.738 394.876C428.631 394.956 428.509 394.993 428.387 394.993ZM488.3 350.156L545.682 393.238V307.075L488.3 350.156Z" fill="black"/>
<path d="M693.817 394.993H575.937C575.612 394.993 575.352 394.73 575.352 394.409V305.904C575.352 305.58 575.612 305.319 575.937 305.319H693.817C694.142 305.319 694.402 305.582 694.402 305.904V394.409C694.402 394.733 694.142 394.993 693.817 394.993ZM576.522 393.824H693.232V306.49H576.522V393.824Z" fill="black"/>
<path d="M575.937 394.993C575.759 394.993 575.584 394.913 575.469 394.759C575.275 394.502 575.326 394.135 575.586 393.941L633.904 350.156L575.586 306.371C575.328 306.177 575.275 305.811 575.469 305.553C575.664 305.296 576.031 305.242 576.289 305.436L634.878 349.423L693.467 305.436C693.642 305.303 693.882 305.282 694.079 305.381C694.278 305.479 694.403 305.683 694.403 305.904V394.409C694.403 394.629 694.278 394.834 694.079 394.932C693.882 395.03 693.642 395.009 693.467 394.876L634.878 350.889L576.289 394.876C576.182 394.956 576.06 394.993 575.937 394.993ZM635.851 350.156L693.233 393.238V307.075L635.851 350.156Z" fill="black"/>
<path d="M215.245 317.629H32.5087C28.735 317.629 25.6758 320.683 25.6758 324.451V442.472C25.6758 446.24 28.735 449.295 32.5087 449.295H215.245C219.018 449.295 222.078 446.24 222.078 442.472V324.451C222.078 320.683 219.018 317.629 215.245 317.629Z" fill="white"/>
<path d="M215.243 449.879H32.5118C28.4211 449.879 25.0938 446.557 25.0938 442.472V324.451C25.0938 320.367 28.4211 317.044 32.5118 317.044H215.245C219.336 317.044 222.663 320.367 222.663 324.451V442.472C222.663 446.557 219.336 449.879 215.245 449.879H215.243ZM32.5118 318.213C29.0674 318.213 26.264 321.012 26.264 324.451V442.472C26.264 445.911 29.0674 448.711 32.5118 448.711H215.245C218.69 448.711 221.493 445.911 221.493 442.472V324.451C221.493 321.012 218.69 318.213 215.245 318.213H32.5118Z" fill="black"/>
<path d="M91.4766 330.78L109.826 299.307L128.093 304.741L115.095 326.996L91.4766 330.78Z" fill="white"/>
<path d="M91.4752 331.364C91.2837 331.364 91.1029 331.271 90.9938 331.109C90.8662 330.924 90.8555 330.679 90.9699 330.485L109.32 299.012C109.455 298.779 109.732 298.67 109.992 298.747L128.262 304.18C128.435 304.231 128.574 304.358 128.64 304.526C128.707 304.693 128.693 304.881 128.603 305.035L115.605 327.291C115.517 327.442 115.365 327.545 115.192 327.572L91.5736 331.356C91.5417 331.362 91.5125 331.364 91.4806 331.364H91.4752ZM110.099 299.998L92.603 330.007L114.727 326.465L127.209 305.091L110.096 300L110.099 299.998Z" fill="black"/>
<path d="M130.874 282.222C130.874 282.222 139.55 298.595 131.092 305.874C122.634 313.151 114.226 306.49 113.005 303.189C113.136 301.54 113.282 299.038 113.239 295.992C113.138 288.84 112.109 286.904 113.085 285.008C114.266 282.711 118.269 280.7 130.876 282.222H130.874Z" fill="white"/>
<path d="M123.047 309.73C121.972 309.73 120.996 309.576 120.158 309.361C116.357 308.381 113.256 305.556 112.455 303.394C112.426 303.314 112.415 303.229 112.421 303.144C112.61 300.789 112.687 298.388 112.652 296.003C112.61 293.034 112.405 290.952 112.256 289.433C112.038 287.218 111.918 285.999 112.564 284.743C114.299 281.372 120.31 280.361 130.946 281.643C131.138 281.667 131.302 281.781 131.393 281.951C131.757 282.637 140.189 298.823 131.475 306.318C128.422 308.947 125.475 309.73 123.047 309.73ZM113.599 303.102C114.251 304.663 116.801 307.287 120.451 308.227C122.908 308.862 126.688 308.891 130.709 305.431C138.138 299.038 131.547 284.897 130.491 282.767C120.866 281.638 115.03 282.504 113.604 285.276C113.115 286.227 113.216 287.26 113.421 289.316C113.572 290.856 113.78 292.965 113.825 295.984C113.86 298.361 113.783 300.754 113.602 303.102H113.599Z" fill="black"/>
<path d="M111.21 304.897C111.571 304.65 112.162 303.893 112.508 303.075C112.954 302.016 112.912 300.829 112.973 299.681C113.071 297.857 113.452 296.048 114.095 294.341C114.114 294.351 113.912 294.832 113.917 294.835C115.574 295.815 115.606 297.334 115.848 297.289C116.3 297.204 114.287 290.766 116.524 287.343C119.356 283.011 127.977 286.525 130.871 282.225C132.19 280.265 131.512 277.878 130.248 273.432C129.349 270.264 126.043 258.626 117.753 256.406C117.332 256.295 112.965 255.174 111.359 257.142C110.454 258.249 110.795 259.882 110.866 260.334C112.071 267.794 93.9105 280.191 94.8814 291.026C95.666 299.78 108.845 306.515 111.204 304.897H111.21Z" fill="black"/>
<path d="M113.192 294.168C111.936 293.186 110.069 292.697 108.76 293.611C107.508 294.487 107.279 296.274 107.579 297.77C107.821 298.986 108.337 300.146 109.077 301.145C109.359 301.527 109.678 301.886 110.058 302.17C110.729 302.667 111.564 302.895 112.391 303.001C113.13 303.094 113.899 303.097 114.606 302.858C115.314 302.622 115.958 302.12 116.24 301.429C116.769 300.13 115.875 298.611 115.468 297.398C115.043 296.131 114.247 294.992 113.192 294.166V294.168Z" fill="white"/>
<path d="M115.468 297.4C115.043 296.134 114.247 294.994 113.192 294.168C111.936 293.186 110.069 292.697 108.76 293.611C107.508 294.487 107.279 296.274 107.579 297.77C107.821 298.986 108.337 300.146 109.077 301.145C109.359 301.527 109.678 301.886 110.058 302.17C110.729 302.667 111.564 302.895 112.391 303.001C113.13 303.094 113.899 303.097 114.606 302.858L115.466 297.398L115.468 297.4Z" fill="white"/>
<path d="M113.259 303.647C112.961 303.647 112.65 303.625 112.318 303.583C111.233 303.445 110.379 303.137 109.709 302.643C109.323 302.359 108.974 301.995 108.605 301.495C107.817 300.433 107.264 299.185 107.004 297.886C106.684 296.293 106.889 294.205 108.424 293.133C110.017 292.02 112.198 292.649 113.552 293.709C114.68 294.59 115.557 295.836 116.023 297.214C116.127 297.52 115.962 297.852 115.653 297.955C115.347 298.059 115.015 297.894 114.911 297.586C114.52 296.423 113.781 295.371 112.831 294.63C111.807 293.831 110.203 293.318 109.097 294.091C108.025 294.84 107.919 296.481 108.153 297.658C108.379 298.789 108.86 299.875 109.546 300.8C109.844 301.201 110.118 301.487 110.405 301.703C110.911 302.074 111.584 302.311 112.464 302.422C113.249 302.521 113.887 302.483 114.419 302.305C114.728 302.202 115.057 302.366 115.161 302.675C115.265 302.983 115.1 303.312 114.791 303.416C114.331 303.57 113.823 303.647 113.257 303.647H113.259Z" fill="black"/>
<path d="M111.086 298.819C112.373 299.262 113.586 299.913 114.669 300.736L111.086 298.819Z" fill="white"/>
<path d="M114.67 301.323C114.547 301.323 114.42 301.283 114.316 301.204C113.279 300.415 112.13 299.799 110.898 299.374C110.592 299.267 110.43 298.936 110.537 298.63C110.643 298.325 110.978 298.163 111.281 298.269C112.632 298.734 113.893 299.411 115.029 300.277C115.287 300.473 115.335 300.84 115.138 301.097C115.024 301.249 114.848 301.328 114.672 301.328L114.67 301.323Z" fill="black"/>
<path d="M131.787 365.509C131.787 365.509 160.467 394.146 207.856 369.599L226.53 369.086C226.53 369.086 198.983 407.438 166.303 409.483C133.619 411.528 110.277 397.721 110.277 397.721L131.787 365.504V365.509Z" fill="white"/>
<path d="M159.759 410.274C130.709 410.274 110.2 398.358 109.982 398.228C109.844 398.145 109.745 398.01 109.711 397.856C109.673 397.699 109.705 397.535 109.793 397.402L131.303 365.185C131.401 365.039 131.558 364.946 131.731 364.927C131.904 364.909 132.079 364.973 132.202 365.095C132.273 365.167 139.46 372.225 152.285 376.22C164.116 379.903 183.314 381.653 207.587 369.081C207.667 369.041 207.752 369.017 207.84 369.015L226.517 368.502C226.74 368.491 226.945 368.616 227.049 368.813C227.152 369.009 227.136 369.248 227.009 369.429C226.732 369.814 198.924 408.03 166.342 410.07C164.105 410.21 161.908 410.274 159.759 410.274ZM111.118 397.524C114.796 399.529 136.853 410.744 166.268 408.904C195.408 407.079 220.795 375.641 225.338 369.708L208.007 370.183C183.405 382.888 163.909 381.08 151.876 377.319C140.612 373.8 133.765 368.112 131.89 366.412L111.115 397.527L111.118 397.524Z" fill="black"/>
<path d="M293.381 253.621L144.332 296.295L170.495 387.399L319.545 344.725L293.381 253.621Z" fill="#F4DBFF"/>
<path d="M199.818 360.381C199.43 360.381 199.084 360.126 198.975 359.749C198.945 359.645 198.935 359.537 198.945 359.43C199.102 357.606 202.967 314.694 217.356 310.544C226.532 307.898 236.453 318.256 243.696 325.819C247.281 329.564 251.329 333.816 252.827 333.383C254.888 332.788 255.524 329.835 256.197 326.706C256.955 323.182 257.811 319.191 261.213 318.208C267.293 316.455 280.291 333.593 281.754 335.553C281.927 335.784 281.975 336.086 281.882 336.36C281.789 336.634 281.566 336.843 281.286 336.92C250.151 345.599 203.252 358.862 200.39 360.174C200.257 360.286 200.092 360.36 199.908 360.376C199.879 360.378 199.85 360.381 199.823 360.381H199.818ZM200.696 359.568C200.696 359.568 200.696 359.576 200.696 359.579V359.584C200.696 359.584 200.696 359.576 200.696 359.571V359.568ZM220.383 311.874C219.527 311.874 218.678 311.986 217.843 312.227C205.967 315.653 201.629 350.69 200.834 358.18C204.02 357.053 213.204 354.305 240.387 346.595C257.553 341.727 274.866 336.888 279.568 335.577C274.195 328.581 265.232 318.869 261.697 319.892C259.306 320.582 258.63 323.735 257.912 327.07C257.162 330.565 256.386 334.177 253.314 335.064C250.819 335.786 247.475 332.302 242.427 327.028C236.203 320.529 227.916 311.871 220.383 311.871V311.874Z" fill="url(#paint0_linear_697_4570)"/>
<path d="M247.784 309.909C244.64 309.909 241.738 307.848 240.823 304.682C240.286 302.826 240.504 300.874 241.441 299.182C242.377 297.49 243.914 296.263 245.773 295.727C249.609 294.62 253.633 296.837 254.742 300.667C255.279 302.523 255.061 304.475 254.125 306.167C253.191 307.858 251.651 309.085 249.792 309.622C249.125 309.816 248.449 309.906 247.787 309.906L247.784 309.909ZM247.779 297.198C247.276 297.198 246.765 297.267 246.257 297.413C244.85 297.82 243.685 298.749 242.978 300.029C242.27 301.309 242.105 302.789 242.512 304.196C243.35 307.096 246.398 308.777 249.305 307.938C250.712 307.532 251.877 306.602 252.585 305.322C253.292 304.042 253.46 302.563 253.053 301.155C252.359 298.76 250.162 297.198 247.781 297.198H247.779Z" fill="url(#paint1_linear_697_4570)"/>
<path d="M226.675 363.504C225.521 363.918 224.757 364.869 224.507 365.95C224.502 365.977 224.47 365.982 224.457 365.958C223.571 364.479 221.704 363.865 220.103 364.606C218.898 365.164 218.185 366.335 218.137 367.575C218.137 367.599 218.111 367.613 218.092 367.597C217.031 366.765 215.525 366.585 214.251 367.331C212.709 368.234 212.209 370.239 212.961 371.859L213.097 372.149C213.11 372.175 213.084 372.199 213.057 372.188C212.251 371.819 211.299 371.782 210.432 372.183L209.972 372.396C208.378 373.134 207.687 375.019 208.424 376.61L212.387 385.151C213.126 386.742 215.015 387.432 216.608 386.697L217.068 386.484C217.991 386.057 218.597 385.239 218.805 384.32C218.81 384.296 218.839 384.288 218.855 384.309C219.815 385.507 221.496 385.948 222.954 385.273C224.106 384.739 224.802 383.648 224.906 382.469C224.906 382.445 224.935 382.434 224.954 382.45C225.938 383.303 227.369 383.552 228.63 382.971C229.819 382.421 230.529 381.271 230.593 380.047C230.593 380.023 230.619 380.012 230.638 380.025C231.697 380.878 233.215 381.072 234.503 380.326C236.056 379.425 236.561 377.415 235.806 375.787L231.005 365.445C230.247 363.815 228.375 362.896 226.68 363.504H226.675Z" fill="white"/>
<path d="M215.272 387.578C214.836 387.578 214.397 387.501 213.974 387.347C213.03 387.002 212.277 386.309 211.855 385.398L207.892 376.857C207.019 374.977 207.841 372.738 209.724 371.867L210.184 371.655C210.804 371.368 211.488 371.262 212.158 371.341C211.724 369.596 212.429 367.727 213.953 366.832C215.115 366.149 216.504 366.104 217.685 366.664C217.985 365.533 218.767 364.582 219.855 364.078C221.384 363.371 223.143 363.709 224.305 364.835C224.765 363.966 225.531 363.294 226.475 362.954C228.404 362.264 230.624 363.249 231.529 365.201L236.33 375.543C237.231 377.484 236.553 379.808 234.79 380.833C233.609 381.518 232.21 381.55 231.026 380.968C230.715 382.078 229.938 383.008 228.872 383.502C227.723 384.033 226.401 383.983 225.308 383.404C224.97 384.458 224.209 385.337 223.196 385.807C221.81 386.447 220.22 386.24 219.06 385.332C218.688 386.067 218.081 386.66 217.312 387.015L216.85 387.228C216.347 387.462 215.81 387.578 215.27 387.578H215.272ZM211.73 372.486C211.368 372.486 211.009 372.563 210.676 372.717L210.216 372.929C208.918 373.53 208.352 375.073 208.953 376.369L212.916 384.909C213.206 385.536 213.724 386.014 214.376 386.251C215.025 386.49 215.73 386.46 216.358 386.168L216.818 385.956C217.538 385.621 218.052 384.981 218.23 384.195C218.278 383.975 218.472 383.783 218.69 383.733C218.908 383.682 219.164 383.77 219.305 383.943C220.124 384.965 221.52 385.294 222.701 384.747C223.624 384.32 224.228 383.451 224.318 382.424C224.337 382.206 224.494 381.993 224.696 381.908C224.901 381.823 225.167 381.869 225.334 382.015C226.175 382.742 227.372 382.91 228.377 382.445C229.324 382.007 229.946 381.077 229.999 380.02C230.01 379.802 230.159 379.585 230.356 379.494C230.555 379.404 230.819 379.436 230.992 379.571C231.922 380.32 233.178 380.416 234.199 379.824C235.447 379.101 235.915 377.436 235.266 376.037L230.465 365.695C229.811 364.288 228.231 363.568 226.869 364.057C225.965 364.381 225.294 365.14 225.074 366.085C225.02 366.317 224.81 366.516 224.574 366.553C224.337 366.593 224.071 366.465 223.949 366.258C223.204 365.015 221.653 364.535 220.345 365.14C219.382 365.586 218.759 366.529 218.717 367.602C218.709 367.822 218.56 368.045 218.36 368.136C218.161 368.226 217.898 368.194 217.725 368.061C216.799 367.336 215.546 367.249 214.541 367.841C213.301 368.566 212.839 370.226 213.485 371.617L213.621 371.907C213.724 372.13 213.671 372.425 213.498 372.597C213.325 372.77 213.03 372.823 212.807 372.722C212.458 372.563 212.091 372.486 211.724 372.486H211.73Z" fill="black"/>
<path d="M228.174 374.998C227.948 374.998 227.732 374.868 227.636 374.647L223.921 366.194C223.79 365.899 223.926 365.554 224.221 365.424C224.519 365.294 224.862 365.429 224.993 365.724L228.708 374.177C228.839 374.472 228.703 374.817 228.408 374.947C228.331 374.982 228.251 374.998 228.174 374.998Z" fill="black"/>
<path d="M221.9 376.706C221.674 376.706 221.459 376.576 221.363 376.355L217.647 367.902C217.517 367.607 217.653 367.262 217.948 367.132C218.246 367.002 218.589 367.137 218.719 367.432L222.435 375.885C222.565 376.18 222.429 376.525 222.134 376.656C222.057 376.69 221.977 376.706 221.9 376.706Z" fill="black"/>
<path d="M216.771 381.261C216.545 381.261 216.33 381.131 216.234 380.91L212.518 372.457C212.388 372.162 212.524 371.817 212.819 371.687C213.117 371.557 213.46 371.692 213.59 371.987L217.306 380.44C217.436 380.735 217.301 381.08 217.005 381.21C216.928 381.245 216.848 381.261 216.771 381.261Z" fill="black"/>
<path d="M181.969 304.313C193.794 297.222 204.05 287.855 214.628 279.017C218.718 275.599 224.187 271.06 231.993 266.546C231.993 266.546 240.255 261.768 248.939 262.522C251.37 262.732 251.899 263.553 252.056 263.879C252.519 264.849 251.957 266.269 251.013 267.045C249.832 268.017 248.367 267.719 248.167 267.674C249.598 267.568 250.899 269.061 250.628 270.468C250.356 271.876 248.633 272.781 247.306 272.237C248.625 272.587 249.521 274.077 249.207 275.405C248.896 276.73 247.425 277.668 246.09 277.392C247.58 277.79 247.109 280.239 245.747 280.961C244.385 281.683 242.709 281.495 241.268 282.042C239.052 282.881 237.853 285.213 236.77 287.319C228.355 303.697 215.181 317.387 199.946 327.75C189.419 334.91 177.101 340.72 164.419 339.547C162.629 339.382 167.702 317.942 168.351 316.051C169.202 313.571 170.165 308.774 172.758 307.635C173.907 307.131 175.521 307.271 176.75 306.873C178.596 306.275 180.314 305.306 181.971 304.313H181.969Z" fill="white"/>
<path d="M167.752 340.282C166.614 340.282 165.486 340.229 164.364 340.128C164.108 340.104 163.885 339.964 163.733 339.73C162.302 337.523 167.494 316.731 167.795 315.86C167.944 315.427 168.095 314.923 168.26 314.378C169.053 311.746 170.141 308.143 172.519 307.096C173.226 306.786 174.051 306.695 174.846 306.61C175.473 306.541 176.064 306.478 176.569 306.316C178.423 305.715 180.173 304.706 181.668 303.811C191.307 298.03 200.058 290.599 208.518 283.412C210.428 281.792 212.335 280.17 214.253 278.568C218.253 275.225 223.735 270.646 231.701 266.039C232.044 265.839 240.223 261.176 248.989 261.938C250.92 262.105 252.13 262.674 252.585 263.627C253.202 264.923 252.46 266.61 251.388 267.494C251.077 267.749 250.75 267.932 250.425 268.06C250.439 268.073 250.449 268.086 250.463 268.099C251.09 268.806 251.37 269.733 251.205 270.577C251.043 271.411 250.481 272.144 249.662 272.588C249.492 272.681 249.316 272.755 249.138 272.816C249.726 273.578 250.003 274.587 249.779 275.538C249.511 276.68 248.558 277.578 247.447 277.896C247.513 278.066 247.558 278.25 247.58 278.449C247.713 279.612 247.029 280.943 246.024 281.476C245.178 281.925 244.258 282.055 243.366 282.183C242.694 282.278 242.055 282.369 241.475 282.589C239.47 283.349 238.363 285.502 237.292 287.585C229.299 303.142 216.498 317.199 200.276 328.233C188.384 336.32 177.705 340.285 167.755 340.285L167.752 340.282ZM164.672 338.981C175.242 339.897 186.676 336.062 199.613 327.264C215.676 316.338 228.344 302.433 236.249 287.048C237.366 284.876 238.629 282.411 241.058 281.492C241.76 281.227 242.494 281.123 243.202 281.022C244.026 280.905 244.805 280.797 245.47 280.443C246.122 280.095 246.484 279.2 246.415 278.582C246.356 278.066 246.042 277.981 245.938 277.955C245.633 277.873 245.446 277.564 245.521 277.256C245.595 276.948 245.899 276.754 246.21 276.818C247.242 277.028 248.399 276.292 248.638 275.27C248.859 274.33 248.279 273.257 247.393 272.882C247.29 272.853 247.186 272.819 247.085 272.776C246.8 272.659 246.654 272.341 246.752 272.049C246.851 271.756 247.157 271.592 247.457 271.669C247.558 271.695 247.657 271.727 247.752 271.764C248.178 271.865 248.667 271.794 249.104 271.557C249.614 271.281 249.96 270.843 250.053 270.354C250.149 269.863 249.973 269.308 249.585 268.872C249.354 268.612 249.072 268.423 248.774 268.325C248.417 268.315 248.149 268.264 248.04 268.238C247.755 268.174 247.561 267.914 247.582 267.624C247.603 267.335 247.832 267.104 248.122 267.082C248.399 267.061 248.681 267.09 248.955 267.159C249.433 267.157 250.08 267.045 250.641 266.586C251.428 265.938 251.84 264.788 251.527 264.124C251.274 263.595 250.314 263.221 248.888 263.099C240.502 262.371 232.368 267 232.289 267.048C224.41 271.602 218.974 276.146 215.005 279.461C213.09 281.062 211.183 282.679 209.276 284.299C200.781 291.515 191.993 298.978 182.272 304.81C180.721 305.739 178.902 306.786 176.931 307.426C176.314 307.625 175.633 307.699 174.973 307.771C174.234 307.851 173.535 307.928 172.992 308.167C171.106 308.995 170.111 312.302 169.383 314.713C169.215 315.273 169.058 315.791 168.904 316.237C167.984 318.914 164.007 336.756 164.675 338.978L164.672 338.981Z" fill="black"/>
<path d="M126.471 435.488L143.504 358.501L176.556 341.273C168.622 328.826 176.556 304.741 176.556 304.741C150.355 309.051 102.982 322.603 81.1775 331.046C59.3967 339.478 57.8594 376.119 56.0401 397.535L49.3242 435.488H126.471Z" fill="white"/>
<path d="M126.469 436.075C126.426 436.075 126.384 436.069 126.341 436.061C126.025 435.992 125.825 435.679 125.897 435.366L142.93 358.379C142.967 358.211 143.076 358.065 143.231 357.985L175.728 341.047C169.028 329.651 174.347 310.002 175.712 305.476C149.151 309.978 102.704 323.339 81.3885 331.593C61.318 339.363 58.7008 371.87 56.9666 393.381C56.8496 394.836 56.7352 396.241 56.6209 397.588L49.8996 435.594C49.8438 435.913 49.5406 436.125 49.2214 436.067C48.9022 436.011 48.6894 435.708 48.748 435.39L55.4612 397.436C55.5676 396.146 55.682 394.741 55.799 393.288C57.5544 371.487 60.2089 338.54 80.963 330.504C102.581 322.133 150 308.517 176.456 304.167C176.656 304.135 176.863 304.209 176.996 304.363C177.129 304.518 177.172 304.733 177.108 304.926C177.031 305.166 169.355 328.895 177.047 340.962C177.135 341.1 177.161 341.27 177.119 341.427C177.076 341.586 176.97 341.719 176.823 341.793L144.013 358.896L127.038 435.618C126.977 435.892 126.735 436.077 126.466 436.077L126.469 436.075Z" fill="black"/>
<path d="M123.35 381.361C123.27 381.361 123.191 381.345 123.114 381.311C122.818 381.181 122.685 380.836 122.816 380.538C126.438 372.396 132.495 365.151 139.875 360.139C140.141 359.956 140.508 360.028 140.689 360.293C140.87 360.562 140.801 360.923 140.535 361.106C133.335 365.995 127.422 373.065 123.888 381.011C123.789 381.229 123.576 381.359 123.353 381.359L123.35 381.361Z" fill="black"/>
<path d="M724.305 223.945C723.611 216.129 718.355 209.532 712.962 203.825C701.264 191.449 687.856 180.76 673.666 171.332C669.528 168.584 665.222 165.896 660.386 164.749C655.551 163.601 650.032 164.236 646.324 167.54C641.941 171.444 641.087 177.961 641.462 183.814C642.544 200.66 651.827 216.788 665.862 226.2C676.653 233.437 689.984 236.528 702.881 235.211C712.179 234.26 725.633 238.902 724.308 223.945H724.305Z" fill="black"/>
<path d="M648.267 266.609L627.558 256.911L577.31 249.953C556.122 247.018 540.925 269.831 551.822 288.208L583.037 340.845V309.537H615.321L597.968 287.792C597.968 287.792 654.589 289.135 648.267 266.609Z" fill="white"/>
<path d="M658.11 270.71L627.557 256.911L577.309 249.953C556.121 247.018 540.923 269.831 551.823 288.208L573.936 325.5V310.594H616.163L597.967 287.791C597.967 287.791 664.432 293.236 658.11 270.71Z" fill="url(#paint2_linear_697_4570)"/>
<path d="M653.332 273.307L610.576 272.232C589.982 271.714 571.113 283.651 562.77 302.459C549.085 333.314 527.73 378.599 512.615 397.144C510.838 399.325 512.636 402.551 515.429 402.185L558.15 396.589C565.049 395.686 571.121 391.594 574.542 385.541L613.827 316.03C613.827 316.03 692.494 319.82 685.531 304.268C678.568 288.716 653.329 273.304 653.329 273.304L653.332 273.307Z" fill="white"/>
<path d="M514.994 402.798C513.659 402.798 512.465 402.102 511.797 400.905C511.044 399.556 511.183 397.973 512.162 396.775C515.008 393.283 518.231 388.635 521.745 382.96C521.915 382.684 522.277 382.601 522.551 382.769C522.825 382.939 522.91 383.3 522.742 383.573C519.202 389.291 515.949 393.981 513.071 397.511C512.273 398.491 512.42 399.611 512.824 400.334C513.228 401.056 514.103 401.768 515.356 401.603L558.077 396.007C564.758 395.131 570.724 391.11 574.036 385.252L575.323 382.976C575.482 382.694 575.839 382.596 576.121 382.753C576.403 382.912 576.501 383.268 576.344 383.549L575.057 385.825C571.565 392.003 565.274 396.244 558.231 397.165L515.51 402.761C515.337 402.782 515.167 402.796 515 402.796L514.994 402.798Z" fill="black"/>
<path d="M568.941 382.296C565.555 382.593 562.166 382.875 558.773 383.061C555.373 383.249 551.985 383.281 548.58 383.265C541.761 383.233 534.939 383.172 528.127 382.859C526.31 382.777 524.494 382.673 522.68 382.551C536.242 360.466 551.916 326.926 562.768 302.459C571.111 283.649 589.98 271.714 610.574 272.232L653.33 273.307C653.33 273.307 678.568 288.718 685.531 304.27C692.495 319.822 613.827 316.033 613.827 316.033L576.771 381.597C574.157 381.818 571.547 382.065 568.941 382.296Z" fill="url(#paint3_linear_697_4570)"/>
<path d="M562.768 303.043C562.688 303.043 562.609 303.028 562.531 302.993C562.236 302.863 562.103 302.518 562.234 302.223C570.705 283.123 589.672 271.124 610.591 271.647L647.95 272.587C648.272 272.595 648.529 272.864 648.521 273.188C648.514 273.512 648.221 273.769 647.92 273.759L610.561 272.818C590.148 272.303 571.585 284.034 563.305 302.698C563.21 302.916 562.994 303.046 562.771 303.046L562.768 303.043Z" fill="black"/>
<path d="M597.968 316.678C597.646 316.678 597.383 316.418 597.383 316.097C597.383 315.773 597.643 315.51 597.965 315.51L611.676 315.457C611.998 315.457 612.261 315.717 612.261 316.038C612.261 316.362 612.001 316.625 611.679 316.625L597.968 316.678Z" fill="black"/>
<path d="M627.559 256.911L649.56 272.938C649.56 272.938 671.61 292.766 673.267 313.637C673.267 313.637 716.089 309.093 704.2 261.858L649.941 260.318L627.561 256.911H627.559Z" fill="url(#paint4_linear_697_4570)"/>
<path d="M698.996 267.175L683 202.84C683 202.84 653.45 202.24 643.069 204.582C643.069 204.582 641.917 256.839 641.383 267.175H698.999H698.996Z" fill="white"/>
<path d="M623.906 256.196C623.906 256.196 632.598 204.083 643.067 204.585L641.381 256.196H623.906Z" fill="white"/>
<path d="M641.38 256.78H623.906C623.733 256.78 623.571 256.706 623.459 256.573C623.347 256.443 623.299 256.268 623.329 256.1C624.222 250.744 632.327 203.998 642.923 203.998C642.982 203.998 643.038 203.998 643.096 204.003C643.415 204.019 643.663 204.287 643.652 204.606L641.966 256.217C641.955 256.533 641.697 256.783 641.38 256.783V256.78ZM624.6 255.612H640.814L642.46 205.203C634.63 206.497 627.066 241.157 624.6 255.612Z" fill="black"/>
<path d="M581.04 258.01H661.141V255.602C661.141 253.482 659.42 251.764 657.298 251.764H575.406L576.063 254.202C576.67 256.449 578.707 258.008 581.037 258.008L581.04 258.01Z" fill="black"/>
<path d="M578.757 255.182H627.082C629.146 255.182 630.662 253.248 630.165 251.246L621.031 214.456C620.68 213.041 619.408 212.047 617.948 212.047H569.623C567.559 212.047 566.043 213.981 566.54 215.983L575.674 252.773C576.025 254.189 577.296 255.182 578.757 255.182Z" fill="black"/>
<path d="M593.566 226.245C593.566 227.124 594.282 227.838 595.162 227.838C596.043 227.838 596.758 227.124 596.758 226.245C596.758 225.366 596.043 224.651 595.162 224.651C594.282 224.651 593.566 225.366 593.566 226.245Z" fill="url(#paint5_linear_697_4570)"/>
<path d="M644.848 251.764C644.848 251.764 653.665 236.679 665.711 241.144C677.757 245.605 694.928 256.326 694.928 256.326C694.928 256.326 679.073 213.327 682.999 202.84C682.999 202.84 703.764 209.065 713.371 240.06C722.975 271.055 708.647 281.585 698.484 281.768C688.321 281.952 662.836 255.168 658.819 255.182L644.85 251.764H644.848Z" fill="white"/>
<path d="M698.379 282.355C691.873 282.355 680.016 272.417 670.478 264.424C665.401 260.169 660.15 255.769 658.82 255.769H658.818C658.77 255.769 658.725 255.763 658.679 255.753L644.71 252.335C644.53 252.292 644.383 252.165 644.311 251.995C644.24 251.825 644.253 251.631 644.346 251.472C644.437 251.318 653.557 236.018 665.919 240.596C675.867 244.283 689.426 252.298 693.812 254.956C690.956 246.991 678.883 212.18 682.455 202.635C682.561 202.346 682.875 202.189 683.171 202.279C683.381 202.343 704.348 208.953 713.933 239.887C719.854 258.995 716.455 269.411 712.558 274.786C709.196 279.426 703.938 282.257 698.496 282.353C698.459 282.353 698.422 282.353 698.384 282.353L698.379 282.355ZM658.895 254.6C660.61 254.69 664.337 257.75 671.231 263.529C680.13 270.986 692.299 281.187 698.376 281.187C698.408 281.187 698.44 281.187 698.472 281.187C703.547 281.096 708.457 278.449 711.606 274.104C715.346 268.946 718.588 258.881 712.811 240.235C704.268 212.666 686.673 204.84 683.37 203.591C680.266 214.645 695.323 255.705 695.477 256.127C695.562 256.361 695.491 256.626 695.296 256.783C695.102 256.94 694.828 256.958 694.616 256.826C694.445 256.719 677.356 246.086 665.504 241.693C655.501 237.988 647.652 248.572 645.777 251.392L658.892 254.603L658.895 254.6Z" fill="black"/>
<path d="M655.68 253.601C655.616 253.601 655.552 253.591 655.488 253.57C655.182 253.463 655.02 253.131 655.126 252.826C655.983 250.364 657.924 248.266 660.313 247.217C660.611 247.087 660.954 247.222 661.084 247.517C661.215 247.812 661.079 248.157 660.784 248.287C658.685 249.209 656.986 251.047 656.23 253.208C656.145 253.45 655.919 253.601 655.677 253.601H655.68Z" fill="black"/>
<path d="M651.285 252.722C651.229 252.722 651.174 252.714 651.118 252.699C650.807 252.606 650.631 252.282 650.724 251.971C651.613 249.002 653.817 246.444 656.626 245.127C656.919 244.989 657.267 245.114 657.405 245.409C657.544 245.701 657.419 246.049 657.124 246.187C654.613 247.366 652.639 249.652 651.847 252.308C651.769 252.56 651.538 252.725 651.285 252.725V252.722Z" fill="black"/>
<path d="M661.144 258.01V255.601C661.144 253.482 659.423 251.764 657.3 251.764H641.379L661.141 258.01H661.144Z" fill="black"/>
<path d="M664.5 185.368L671.444 202.943C671.444 202.943 667.551 208.072 658.819 209.24C650.087 210.409 657.515 203.113 657.515 203.113L653.297 191.062L664.497 185.368H664.5Z" fill="white"/>
<path d="M657.147 209.949C655.556 209.949 654.577 209.54 654.17 208.709C653.279 206.893 655.846 203.99 656.843 202.962L652.747 191.256C652.652 190.979 652.774 190.674 653.035 190.541L664.235 184.847C664.381 184.773 664.554 184.762 664.708 184.821C664.863 184.879 664.985 184.999 665.046 185.153L671.991 202.728C672.065 202.917 672.036 203.135 671.914 203.297C671.749 203.514 667.77 208.632 658.899 209.819C658.25 209.907 657.668 209.949 657.149 209.949H657.147ZM654.021 191.351L658.069 202.92C658.144 203.132 658.088 203.371 657.926 203.53C656.567 204.866 654.769 207.272 655.221 208.196C655.351 208.459 655.952 209.033 658.74 208.661C666.019 207.687 669.871 203.846 670.77 202.835L664.19 186.18L654.019 191.351H654.021Z" fill="black"/>
<path d="M644.617 183.949C644.872 186.621 645.619 189.298 647.173 191.489C648.723 193.68 651.149 195.337 653.827 195.574C656.149 195.778 658.49 194.907 660.312 193.46C662.134 192.01 663.472 190.02 664.421 187.896C666.852 188.053 669.283 186.377 669.996 184.05C670.408 182.709 670.236 181.126 669.294 180.085C668.35 179.044 666.568 178.768 665.509 179.692C664.905 180.218 664.602 181.031 663.977 181.53C663.28 182.088 662.28 182.159 661.432 181.883C660.583 181.607 659.865 181.028 659.24 180.391C657.277 178.38 656.083 175.637 655.947 172.833C655.961 173.098 654.742 173.847 654.53 173.993C653.992 174.362 653.426 174.684 652.833 174.954C651.665 175.491 650.41 175.831 649.133 175.966C648.484 176.035 647.832 176.049 647.181 176.006C646.665 175.974 645.931 175.703 645.428 175.839C644.38 176.123 644.609 178.112 644.566 178.919C644.476 180.595 644.454 182.279 644.614 183.949H644.617Z" fill="white"/>
<path d="M654.495 196.187C654.253 196.187 654.013 196.176 653.774 196.155C651.093 195.916 648.446 194.299 646.694 191.826C645.228 189.755 644.334 187.126 644.034 184.005C643.893 182.529 643.877 180.901 643.983 178.888C643.991 178.757 643.989 178.593 643.989 178.41C643.983 177.369 643.975 175.629 645.276 175.276C645.733 175.151 646.241 175.252 646.691 175.34C646.888 175.379 647.077 175.414 647.22 175.425C647.829 175.464 648.454 175.451 649.071 175.385C650.295 175.257 651.476 174.933 652.588 174.423C653.154 174.163 653.694 173.858 654.197 173.512L654.354 173.409C655.032 172.965 655.295 172.753 655.388 172.652C655.463 172.429 655.668 172.262 655.918 172.248C656.234 172.232 656.516 172.482 656.532 172.803C656.66 175.462 657.801 178.078 659.657 179.982C660.351 180.691 660.971 181.118 661.609 181.328C662.349 181.567 663.112 181.472 663.607 181.076C663.865 180.869 664.072 180.569 664.293 180.253C664.53 179.91 664.777 179.554 665.12 179.254C666.37 178.163 668.522 178.37 669.724 179.695C670.746 180.821 671.062 182.555 670.554 184.223C669.796 186.695 667.365 188.47 664.791 188.493C663.719 190.775 662.336 192.599 660.676 193.919C658.835 195.382 656.62 196.19 654.497 196.19L654.495 196.187ZM645.749 176.386C645.686 176.386 645.63 176.391 645.584 176.405C645.154 176.521 645.159 177.841 645.161 178.407C645.161 178.617 645.162 178.803 645.156 178.954C645.05 180.909 645.066 182.478 645.201 183.896C645.481 186.81 646.305 189.25 647.651 191.152C649.207 193.348 651.534 194.785 653.88 194.992C655.92 195.173 658.13 194.448 659.947 193.003C661.543 191.733 662.87 189.935 663.886 187.66C663.985 187.436 664.213 187.298 664.458 187.314C666.62 187.455 668.801 185.947 669.434 183.88C669.817 182.624 669.591 181.291 668.857 180.481C668.081 179.623 666.666 179.459 665.892 180.136C665.655 180.34 665.461 180.622 665.256 180.919C664.998 181.291 664.732 181.676 664.341 181.99C663.543 182.63 662.357 182.802 661.248 182.441C660.421 182.173 659.649 181.65 658.819 180.8C657.045 178.981 655.864 176.577 655.481 174.065C655.335 174.166 655.173 174.275 654.995 174.391L654.862 174.479C654.303 174.862 653.705 175.201 653.077 175.491C651.851 176.054 650.545 176.41 649.194 176.553C648.508 176.625 647.819 176.638 647.143 176.596C646.925 176.582 646.691 176.535 646.465 176.492C646.231 176.447 645.954 176.391 645.749 176.391V176.386Z" fill="black"/>
<path d="M666.975 182.726C665.725 183.012 664.701 184.104 664.496 185.368L666.975 182.726Z" fill="white"/>
<path d="M664.497 185.952C664.465 185.952 664.434 185.952 664.402 185.944C664.082 185.891 663.867 185.591 663.918 185.272C664.162 183.777 665.367 182.497 666.843 182.154C667.157 182.083 667.474 182.279 667.545 182.593C667.617 182.909 667.42 183.222 667.107 183.294C666.096 183.527 665.239 184.438 665.072 185.461C665.024 185.748 664.777 185.952 664.495 185.952H664.497Z" fill="black"/>
<path d="M262.574 50.5522H107.664V237.673H262.574V50.5522Z" fill="white"/>
<path d="M262.576 238.257H107.663C107.339 238.257 107.078 237.994 107.078 237.673V50.552C107.078 50.228 107.339 49.9678 107.663 49.9678H262.576C262.9 49.9678 263.161 50.2307 263.161 50.552V237.673C263.161 237.997 262.9 238.257 262.576 238.257ZM108.251 237.088H261.99V51.1363H108.248V237.088H108.251Z" fill="black"/>
<path d="M212.762 205.565L190.229 237.673H247.975C249.589 234.486 251.767 230.157 254.105 225.451C263.037 207.464 260.082 185.859 246.647 170.923C227.263 149.375 197.256 122.801 184.438 110.487C181.991 108.136 180.074 106.431 178.842 105.552C167.049 97.1495 137.93 126.068 137.93 126.068L173.812 166.802L212.759 205.562L212.762 205.565Z" fill="white"/>
<path d="M247.973 238.257C247.885 238.257 247.795 238.236 247.71 238.193C247.42 238.047 247.306 237.697 247.452 237.407C248.896 234.552 251.133 230.114 253.58 225.188C262.458 207.304 259.564 186.157 246.21 171.311C231.839 155.337 211.643 136.614 196.898 122.945C191.767 118.188 187.336 114.083 184.03 110.904C181.519 108.492 179.66 106.851 178.5 106.025C167.97 98.52 142.234 122.719 138.734 126.097L174.25 166.414L213.173 205.148C213.375 205.35 213.402 205.666 213.239 205.897L190.706 238.005C190.52 238.27 190.155 238.334 189.889 238.148C189.623 237.962 189.559 237.598 189.746 237.333L211.997 205.626L173.399 167.211L137.489 126.448C137.285 126.217 137.298 125.866 137.516 125.648C138.718 124.453 167.124 96.4804 179.181 105.072C180.402 105.943 182.253 107.573 184.841 110.059C188.142 113.23 192.568 117.333 197.693 122.087C212.455 135.772 232.672 154.516 247.079 170.528C260.759 185.732 263.722 207.389 254.628 225.706C252.181 230.635 249.941 235.075 248.497 237.933C248.393 238.137 248.189 238.254 247.973 238.254V238.257Z" fill="black"/>
<path d="M221.819 214.69C221.676 214.69 221.529 214.637 221.418 214.531L212.359 205.99C212.124 205.77 212.114 205.398 212.335 205.164C212.558 204.93 212.928 204.917 213.162 205.14L222.221 213.681C222.455 213.901 222.466 214.273 222.245 214.507C222.131 214.629 221.974 214.69 221.819 214.69Z" fill="black"/>
<path d="M150.513 237.673H220.497L156.197 121.147L123.581 102.774C123.267 103.619 110.37 116.056 119.966 149.871C127.342 175.858 143.446 219.059 150.511 237.673H150.513Z" fill="white"/>
<path d="M150.515 238.257C150.278 238.257 150.058 238.114 149.967 237.88C143.254 220.19 126.838 176.222 119.407 150.031C113.712 129.964 114.904 113.233 122.766 102.921C122.91 102.732 123.011 102.605 123.053 102.53C123.165 102.227 123.489 102.092 123.795 102.206C124.098 102.318 124.245 102.676 124.13 102.979C124.072 103.136 123.963 103.279 123.697 103.63C116.063 113.642 114.941 130.009 120.532 149.712C127.952 175.858 144.355 219.792 151.06 237.466C151.175 237.768 151.023 238.106 150.72 238.22C150.651 238.246 150.582 238.257 150.513 238.257H150.515Z" fill="black"/>
<path d="M220.497 238.257C220.29 238.257 220.09 238.148 219.984 237.954L169.073 145.691C168.916 145.407 169.02 145.054 169.305 144.897C169.589 144.741 169.943 144.844 170.1 145.128L221.01 237.391C221.167 237.676 221.064 238.029 220.779 238.185C220.688 238.236 220.593 238.257 220.497 238.257Z" fill="black"/>
<path d="M176.107 137.36C176.107 137.36 142.044 149.175 113.499 111.913C110.417 107.889 110.707 102.227 114.215 98.5648C129.817 82.2639 172.586 38.9329 186.858 38.4256C204.439 37.8015 238.41 75.5396 238.41 75.5396L225.832 97.0988L215.887 88.4066L176.11 137.357L176.107 137.36Z" fill="url(#paint6_linear_697_4570)"/>
<path d="M216.752 87.424C216.63 87.424 216.502 87.3842 216.398 87.3045C216.14 87.108 216.092 86.7415 216.289 86.4839L220.212 81.353C220.409 81.0981 220.776 81.0476 221.034 81.2441C221.292 81.4407 221.34 81.8071 221.143 82.0648L217.22 87.1956C217.106 87.347 216.93 87.4267 216.755 87.4267L216.752 87.424Z" fill="black"/>
<path d="M192.522 103.555C192.254 103.555 192.012 103.369 191.95 103.095L185.817 74.9977C185.237 72.334 184.578 69.3171 182.923 66.9721C181.5 64.9564 178.716 63.0974 175.971 63.7719C175.654 63.8489 175.34 63.6577 175.263 63.3443C175.186 63.031 175.378 62.7149 175.691 62.6379C178.992 61.8279 182.184 63.8941 183.881 66.3002C185.673 68.8391 186.36 71.9808 186.963 74.7507L193.097 102.848C193.166 103.164 192.967 103.475 192.65 103.544C192.607 103.552 192.565 103.558 192.525 103.558L192.522 103.555Z" fill="black"/>
<path d="M162.375 118.395C162.106 118.395 161.864 118.209 161.803 117.938C159.67 108.418 158.792 98.6497 159.191 88.9032C159.205 88.5818 159.465 88.3295 159.8 88.3428C160.122 88.3561 160.375 88.6296 160.362 88.951C159.965 98.5939 160.835 108.261 162.947 117.683C163.019 117.999 162.819 118.31 162.503 118.382C162.46 118.392 162.418 118.395 162.375 118.395Z" fill="black"/>
<path d="M305.241 95.1867C304.837 95.1867 304.44 95.2185 304.052 95.2663C303.076 91.3358 301.523 87.6337 299.485 84.2556C299.797 84.014 300.097 83.7564 300.382 83.4722C304.212 79.6479 304.212 73.4494 300.382 69.6252C296.552 65.8009 290.344 65.8009 286.514 69.6252C286.229 69.9094 285.971 70.2121 285.729 70.5202C282.346 68.4832 278.638 66.9349 274.702 65.9603C274.75 65.5699 274.781 65.1742 274.781 64.7731C274.781 59.3661 270.39 54.9814 264.975 54.9814C259.56 54.9814 255.168 59.3661 255.168 64.7731C255.168 65.1768 255.2 65.5725 255.248 65.9603C251.312 66.9349 247.604 68.4859 244.221 70.5202C243.979 70.2121 243.721 69.9094 243.436 69.6252C239.606 65.8009 233.398 65.8009 229.568 69.6252C225.738 73.4494 225.738 79.6479 229.568 83.4722C229.853 83.7564 230.156 84.014 230.465 84.2556C228.425 87.6337 226.874 91.3358 225.898 95.2663C225.507 95.2185 225.111 95.1867 224.709 95.1867C219.294 95.1867 214.902 99.5713 214.902 104.978C214.902 110.385 219.294 114.77 224.709 114.77C225.113 114.77 225.509 114.738 225.898 114.69C226.874 118.621 228.427 122.323 230.465 125.701C230.153 125.943 229.853 126.2 229.568 126.485C225.738 130.309 225.738 136.507 229.568 140.332C233.398 144.156 239.606 144.156 243.436 140.332C243.721 140.047 243.979 139.745 244.221 139.437C247.604 141.474 251.312 143.022 255.248 143.996C255.2 144.387 255.168 144.783 255.168 145.184C255.168 150.591 259.56 154.975 264.975 154.975C270.39 154.975 274.781 150.591 274.781 145.184C274.781 144.78 274.75 144.387 274.702 143.996C278.638 143.022 282.346 141.471 285.729 139.437C285.971 139.745 286.229 140.047 286.514 140.332C290.344 144.156 296.552 144.156 300.382 140.332C304.212 136.507 304.212 130.309 300.382 126.485C300.097 126.2 299.794 125.943 299.485 125.701C301.525 122.323 303.076 118.621 304.052 114.69C304.443 114.738 304.839 114.77 305.241 114.77C310.656 114.77 315.048 110.385 315.048 104.978C315.048 99.5713 310.656 95.1867 305.241 95.1867ZM264.972 123.162C254.916 123.162 246.761 115.02 246.761 104.978C246.761 94.937 254.916 86.7945 264.972 86.7945C275.029 86.7945 283.184 94.937 283.184 104.978C283.184 115.02 275.029 123.162 264.972 123.162Z" fill="white"/>
<path d="M264.972 155.565C259.243 155.565 254.58 150.909 254.58 145.189C254.58 144.953 254.591 144.706 254.612 144.443C251.008 143.503 247.561 142.076 244.353 140.199C244.183 140.398 244.015 140.581 243.845 140.749C241.882 142.708 239.273 143.787 236.496 143.787C233.72 143.787 231.11 142.708 229.147 140.749C225.097 136.704 225.097 130.12 229.147 126.076C229.315 125.908 229.496 125.741 229.698 125.571C227.818 122.366 226.392 118.926 225.448 115.328C225.184 115.349 224.94 115.36 224.7 115.36C218.971 115.36 214.309 110.704 214.309 104.984C214.309 99.2633 218.971 94.6078 224.7 94.6078C224.937 94.6078 225.184 94.6184 225.448 94.6396C226.389 91.0438 227.818 87.6019 229.698 84.3965C229.498 84.2265 229.315 84.0592 229.147 83.8919C225.097 79.8472 225.097 73.2636 229.147 69.2163C231.11 67.2563 233.72 66.1781 236.496 66.1781C239.273 66.1781 241.882 67.2563 243.845 69.2163C244.013 69.3836 244.18 69.5642 244.351 69.766C247.561 67.8884 251.005 66.4649 254.609 65.5221C254.588 65.2592 254.577 65.0122 254.577 64.7759C254.577 59.0554 259.24 54.3999 264.969 54.3999C270.698 54.3999 275.361 59.0554 275.361 64.7759C275.361 65.0122 275.35 65.2592 275.329 65.5221C278.933 66.4623 282.38 67.8884 285.587 69.766C285.758 69.5668 285.925 69.3862 286.093 69.2163C290.146 65.1689 296.737 65.1689 300.791 69.2163C304.841 73.261 304.841 79.8445 300.791 83.8919C300.623 84.0592 300.44 84.2265 300.24 84.3965C302.121 87.6019 303.549 91.0438 304.49 94.6396C304.754 94.6184 305.001 94.6078 305.238 94.6078C310.967 94.6078 315.629 99.2633 315.629 104.984C315.629 110.704 310.967 115.36 305.238 115.36C305.001 115.36 304.754 115.349 304.49 115.328C303.549 118.926 302.121 122.368 300.24 125.571C300.44 125.741 300.623 125.908 300.791 126.076C304.841 130.12 304.841 136.704 300.791 140.749C296.74 144.793 290.146 144.793 286.093 140.749C285.925 140.581 285.758 140.398 285.587 140.199C282.377 142.076 278.933 143.503 275.329 144.443C275.35 144.706 275.361 144.953 275.361 145.189C275.361 150.909 270.698 155.565 264.969 155.565H264.972ZM244.218 138.855C244.321 138.855 244.425 138.882 244.521 138.94C247.899 140.972 251.553 142.485 255.389 143.434C255.676 143.505 255.865 143.779 255.83 144.071C255.78 144.493 255.756 144.849 255.756 145.189C255.756 150.267 259.892 154.396 264.977 154.396C270.062 154.396 274.198 150.267 274.198 145.189C274.198 144.849 274.174 144.493 274.124 144.071C274.089 143.779 274.278 143.505 274.565 143.434C278.401 142.483 282.055 140.972 285.433 138.94C285.689 138.786 286.016 138.847 286.197 139.081C286.452 139.407 286.694 139.684 286.936 139.923C290.532 143.513 296.381 143.513 299.977 139.923C303.573 136.332 303.573 130.492 299.977 126.902C299.737 126.663 299.461 126.421 299.131 126.166C298.897 125.983 298.838 125.656 298.99 125.404C301.025 122.034 302.541 118.382 303.49 114.552C303.562 114.266 303.836 114.077 304.129 114.112C304.549 114.162 304.905 114.186 305.248 114.186C310.334 114.186 314.47 110.056 314.47 104.978C314.47 99.9007 310.334 95.771 305.248 95.771C304.905 95.771 304.552 95.7949 304.129 95.8453C303.836 95.8825 303.562 95.6913 303.49 95.4045C302.538 91.5776 301.025 87.9286 298.99 84.5532C298.838 84.3009 298.897 83.9742 299.131 83.791C299.461 83.5333 299.735 83.2943 299.977 83.0553C303.573 79.4648 303.573 73.6248 299.977 70.0342C296.381 66.4437 290.532 66.4437 286.936 70.0342C286.694 70.2759 286.455 70.5521 286.197 70.8761C286.016 71.1072 285.689 71.1709 285.433 71.0169C282.055 68.9852 278.401 67.4714 274.565 66.5233C274.278 66.4516 274.089 66.1781 274.124 65.886C274.174 65.4637 274.198 65.1078 274.198 64.7679C274.198 59.6901 270.062 55.5605 264.977 55.5605C259.892 55.5605 255.756 59.6901 255.756 64.7679C255.756 65.1078 255.78 65.4637 255.83 65.886C255.865 66.1781 255.676 66.4516 255.389 66.5233C251.556 67.4741 247.899 68.9852 244.521 71.0169C244.265 71.1709 243.938 71.1098 243.757 70.8761C243.499 70.5468 243.257 70.2732 243.018 70.0342C241.276 68.2947 238.959 67.336 236.496 67.336C234.033 67.336 231.719 68.2947 229.977 70.0316C226.381 73.6221 226.381 79.4621 229.977 83.0527C230.217 83.2917 230.493 83.5333 230.823 83.791C231.057 83.9742 231.116 84.3009 230.964 84.5532C228.929 87.9259 227.413 91.5776 226.464 95.4045C226.392 95.6913 226.121 95.8799 225.825 95.8453C225.405 95.7949 225.049 95.771 224.706 95.771C219.62 95.771 215.484 99.9007 215.484 104.978C215.484 110.056 219.62 114.186 224.706 114.186C225.049 114.186 225.402 114.162 225.825 114.112C226.113 114.077 226.392 114.266 226.464 114.552C227.416 118.379 228.929 122.031 230.964 125.404C231.116 125.656 231.057 125.983 230.823 126.166C230.488 126.426 230.219 126.663 229.977 126.904C226.381 130.495 226.381 136.335 229.977 139.925C231.719 141.665 234.033 142.621 236.496 142.621C238.959 142.621 241.276 141.662 243.018 139.925C243.257 139.686 243.499 139.41 243.757 139.083C243.872 138.937 244.045 138.86 244.22 138.86L244.218 138.855ZM264.972 123.749C254.607 123.749 246.175 115.33 246.175 104.981C246.175 94.6317 254.607 86.213 264.972 86.213C275.337 86.213 283.768 94.6317 283.768 104.981C283.768 115.33 275.337 123.749 264.972 123.749ZM264.972 87.3815C255.253 87.3815 247.345 95.277 247.345 104.981C247.345 114.685 255.253 122.581 264.972 122.581C274.69 122.581 282.598 114.685 282.598 104.981C282.598 95.277 274.69 87.3815 264.972 87.3815Z" fill="black"/>
<path d="M277.819 117.806C284.915 110.721 284.915 99.2348 277.819 92.1502C270.724 85.0655 259.22 85.0655 252.125 92.1502C245.029 99.2348 245.029 110.721 252.125 117.806C259.22 124.891 270.724 124.891 277.819 117.806Z" fill="white"/>
<path d="M264.973 123.704C254.632 123.704 246.219 115.304 246.219 104.979C246.219 94.653 254.632 86.2529 264.973 86.2529C275.314 86.2529 283.727 94.653 283.727 104.979C283.727 115.304 275.314 123.704 264.973 123.704ZM264.973 87.4241C255.278 87.4241 247.389 95.2984 247.389 104.981C247.389 114.664 255.278 122.538 264.973 122.538C274.668 122.538 282.556 114.661 282.556 104.981C282.556 95.301 274.668 87.4241 264.973 87.4241Z" fill="black"/>
<path d="M163.027 119.37C163.027 119.37 165.727 147.951 182.906 150.007C200.086 152.062 230.838 119.049 232.857 116.951C234.875 114.853 234.774 112.03 228.183 116.064C228.183 116.064 234.482 112.07 235.128 109.467C235.774 106.864 231.029 107.271 225.51 110.856C225.51 110.856 235.668 105.356 235.128 101.824C234.849 100.002 230.17 99.4655 219.914 106.142C219.914 106.142 225.603 102.613 228.21 99.9993C230.896 97.3064 228.183 93.8274 218.717 99.4044C209.4 104.897 194.673 118.528 194.673 118.528L191.354 106.139C191.354 106.139 172.209 109.937 163.027 119.368V119.37Z" fill="white"/>
<path d="M184.468 150.681C183.912 150.681 183.369 150.649 182.835 150.586C176.824 149.866 171.895 145.973 168.182 139.015C168.031 138.73 168.137 138.375 168.424 138.223C168.709 138.072 169.065 138.181 169.217 138.465C172.738 145.067 177.366 148.753 182.976 149.425C198.115 151.239 224.436 124.952 232.139 116.852L232.431 116.544C233.317 115.623 233.509 114.818 233.394 114.677C233.266 114.518 232.059 114.375 228.487 116.56C228.213 116.728 227.854 116.643 227.684 116.372C227.513 116.098 227.596 115.74 227.867 115.57C229.564 114.494 234.072 111.273 234.556 109.323C234.687 108.803 234.485 108.662 234.4 108.601C233.711 108.11 231.349 108.335 228.064 110.035C226.947 110.731 226.075 111.212 225.787 111.366C225.511 111.514 225.168 111.421 225.005 111.151C224.846 110.88 224.925 110.532 225.189 110.362C225.96 109.86 226.726 109.414 227.474 109.026C230.963 106.843 234.83 103.765 234.546 101.909C234.514 101.704 234.36 101.539 234.083 101.417C232.562 100.737 228.341 101.553 221.34 105.924C220.704 106.338 220.282 106.601 220.22 106.638C219.946 106.808 219.59 106.726 219.417 106.455C219.244 106.184 219.324 105.826 219.593 105.651C219.936 105.427 220.279 105.21 220.614 104.997C222.359 103.863 225.92 101.462 227.793 99.5848C228.543 98.8306 228.803 98.01 228.439 97.5399C227.851 96.783 225.125 96.3023 219.013 99.9062C209.855 105.303 195.216 118.82 195.07 118.956C194.918 119.097 194.708 119.144 194.508 119.089C194.312 119.033 194.157 118.876 194.104 118.677L193.301 115.681C193.219 115.371 193.402 115.049 193.716 114.964C194.03 114.882 194.349 115.065 194.434 115.378L194.987 117.442C198.057 114.651 210.323 103.667 218.417 98.8943C224.769 95.1524 228.237 95.3675 229.365 96.8175C230.12 97.7869 229.827 99.1944 228.623 100.403C228.338 100.687 228.019 100.982 227.676 101.282C230.726 100.055 233.131 99.7017 234.559 100.342C235.203 100.629 235.61 101.12 235.7 101.725C235.974 103.505 234.083 105.584 231.873 107.361C233.264 107.079 234.392 107.156 235.075 107.642C235.424 107.889 235.969 108.474 235.69 109.6C235.389 110.805 234.096 112.21 232.681 113.442C233.429 113.355 233.966 113.522 234.304 113.939C235.014 114.818 234.296 116.287 233.272 117.349L232.985 117.652C225.449 125.574 200.304 150.673 184.465 150.673L184.468 150.681Z" fill="black"/>
<path d="M187.195 124.825C187.016 124.825 186.841 124.745 186.726 124.591C186.532 124.334 186.585 123.967 186.843 123.773L193.006 119.15C193.264 118.956 193.631 119.009 193.825 119.266C194.019 119.524 193.966 119.891 193.708 120.084L187.546 124.708C187.439 124.788 187.317 124.825 187.195 124.825Z" fill="black"/>
<path d="M193.674 27.2427L180.736 42.2556C178.332 45.0441 178.321 49.1658 180.71 51.9676C184.614 56.5514 190.793 62.8428 196.506 64.5638C205.781 67.3576 201.818 56.5381 197.879 49.1817C197.879 49.1817 196.884 27.4551 193.674 27.2427Z" fill="white"/>
<path d="M191.042 53.63C190.933 53.63 190.822 53.5981 190.723 53.5344C190.452 53.3591 190.375 52.9953 190.553 52.7244L195.702 44.8289C195.878 44.558 196.242 44.481 196.514 44.6589C196.785 44.8342 196.862 45.198 196.684 45.4689L191.535 53.3644C191.423 53.537 191.234 53.63 191.042 53.63Z" fill="black"/>
<path d="M185.857 29.7973C185.857 29.7973 179.03 18.4122 180.554 15.9981C182.078 13.584 184.9 14.8057 184.9 14.8057C184.9 14.8057 197.433 -4.54668 202.513 3.77905C202.513 3.77905 206.319 -2.03701 211.059 1.43935C215.798 4.91571 214.16 8.73997 210.817 11.1381C210.817 11.1381 213.617 17.2622 210.66 20.0747C207.699 22.8871 210.386 30.2222 212.458 31.2049C212.458 31.2049 217.902 45.5565 211.452 49.0992C205.002 52.642 192.791 52.5118 190.507 36.8802L185.86 29.7973H185.857Z" fill="black"/>
<path d="M189.678 30.9605L190.506 36.8775C190.506 36.8775 184.356 38.2399 182.292 33.3374C180.399 28.8412 184.558 25.0674 188.468 28.642C189.131 29.2475 189.556 30.0708 189.678 30.9605Z" fill="white"/>
<path d="M188.664 37.6264C186.523 37.6264 183.209 37.0209 181.751 33.5657C180.735 31.1543 181.275 28.5942 183.062 27.338C184.384 26.4059 186.605 26.1483 188.863 28.2144C189.619 28.9049 190.113 29.853 190.26 30.8834L191.087 36.8004C191.129 37.1032 190.933 37.3847 190.635 37.4511C190.611 37.4564 189.805 37.6264 188.666 37.6264H188.664ZM185.281 27.8028C184.73 27.8028 184.206 27.9648 183.738 28.2941C182.647 29.0616 181.9 30.8941 182.834 33.1116C184.366 36.75 188.387 36.588 189.847 36.3968L189.1 31.0428C188.994 30.2806 188.629 29.5821 188.073 29.0749C187.153 28.233 186.182 27.8028 185.281 27.8028Z" fill="black"/>
<path d="M188.921 35.34C188.708 35.34 188.504 35.2232 188.4 35.024C187.778 33.8183 186.501 32.9764 185.147 32.8755C184.825 32.8516 184.583 32.5728 184.607 32.2488C184.631 31.9274 184.9 31.6857 185.235 31.7096C186.988 31.8371 188.639 32.9286 189.443 34.4875C189.591 34.7744 189.477 35.1276 189.19 35.2763C189.105 35.3214 189.012 35.34 188.921 35.34Z" fill="black"/>
<path d="M210.817 17.9499C210.817 17.9499 208.413 15.2171 205.825 15.3473C205.825 15.3473 201.979 18.4704 198.444 20.6056C196.598 21.721 195.667 23.8802 196.122 25.9862C196.579 28.1028 197.207 30.6895 197.896 32.6069C198.367 33.9162 199.675 34.7342 201.061 34.5854C203.902 34.2827 208.939 33.4461 212.461 31.202L210.822 17.9472L210.817 17.9499Z" fill="white"/>
<path d="M200.728 35.1885C199.22 35.1885 197.861 34.251 197.34 32.8063C196.616 30.7906 195.965 28.0525 195.544 26.1112C195.039 23.7635 196.079 21.3521 198.135 20.1092C201.595 18.0165 205.412 14.9278 205.449 14.896C205.545 14.8163 205.665 14.7712 205.79 14.7658C208.641 14.6251 211.146 17.4455 211.253 17.565C211.33 17.6526 211.381 17.7615 211.394 17.8784L213.035 31.1332C213.064 31.3562 212.96 31.5767 212.769 31.6988C209.12 34.0252 203.904 34.8724 201.117 35.1699C200.986 35.1831 200.856 35.1911 200.726 35.1911L200.728 35.1885ZM206.032 15.9291C205.268 16.5399 201.867 19.2195 198.741 21.1077C197.111 22.093 196.286 24.0052 196.688 25.8642C197.278 28.5996 197.885 30.8623 198.441 32.4106C198.821 33.4702 199.872 34.1235 200.992 34.004C203.595 33.7251 208.394 32.955 211.825 30.9021L210.253 18.2077C209.777 17.7137 207.939 15.945 206.029 15.9264L206.032 15.9291Z" fill="black"/>
<path d="M259.21 238.257H125.655C125.331 238.257 125.07 237.994 125.07 237.673C125.07 237.351 125.331 237.088 125.655 237.088H259.21C259.534 237.088 259.795 237.351 259.795 237.673C259.795 237.994 259.534 238.257 259.21 238.257Z" fill="black"/>
<path d="M521.011 193.558L487.395 214.613L505.202 178.975L665.928 5.2581C670.774 0.0209808 678.243 -0.961642 682.607 3.06446C686.972 7.09055 686.584 14.6036 681.738 19.8408L521.011 193.555V193.558Z" fill="white"/>
<path d="M487.394 215.197C487.253 215.197 487.112 215.147 487.001 215.046C486.806 214.87 486.753 214.586 486.87 214.353L504.677 178.715C504.701 178.665 504.733 178.62 504.77 178.58L665.497 4.86262C667.933 2.22813 671.085 0.541736 674.37 0.108851C677.697 -0.329346 680.761 0.570949 683.003 2.63711C687.599 6.87567 687.224 14.7738 682.166 20.2393L521.439 193.954C521.404 193.991 521.365 194.026 521.319 194.052L487.703 215.107C487.607 215.168 487.498 215.197 487.391 215.197H487.394ZM505.688 179.31L488.849 213.011L520.636 193.104L681.307 19.4453C685.927 14.4525 686.331 7.29793 682.208 3.49492C680.227 1.66777 677.495 0.876359 674.521 1.26675C671.505 1.66246 668.606 3.22138 666.356 5.65403L505.688 179.307V179.31Z" fill="black"/>
<path d="M609.654 98.3393C609.51 98.3393 609.369 98.2888 609.258 98.1852C609.021 97.9675 609.005 97.5957 609.226 97.3593L681.311 19.4479C685.931 14.4551 686.335 7.30059 682.212 3.49757C680.231 1.67042 677.499 0.879015 674.526 1.26941C671.509 1.66511 668.61 3.22403 666.36 5.65669L600.89 76.4162C600.669 76.6525 600.3 76.6684 600.063 76.448C599.826 76.2303 599.81 75.8585 600.031 75.6221L665.501 4.86262C667.937 2.22813 671.089 0.541736 674.374 0.108851C677.701 -0.329346 680.765 0.570949 683.008 2.63711C687.604 6.87567 687.229 14.7738 682.17 20.2393L610.085 98.1507C609.971 98.2755 609.811 98.3393 609.654 98.3393Z" fill="black"/>
<path d="M495.709 197.972L487.395 214.613L503.09 204.781L495.709 197.972Z" fill="black"/>
<path d="M657.134 15.3064L672.539 29.5155C673.875 30.7481 673.958 32.8309 672.724 34.1652L672.579 34.3213C671.345 35.6557 669.259 35.7382 667.922 34.5056L652.517 20.2966C651.181 19.064 651.098 16.9812 652.333 15.6468L652.479 15.4888C653.713 14.1545 655.799 14.0719 657.136 15.3045L657.134 15.3064Z" fill="white"/>
<path d="M670.138 35.9854C669.196 35.9854 668.252 35.6455 667.505 34.9576L652.099 20.7468C651.339 20.043 650.894 19.0869 650.855 18.0539C650.815 17.0181 651.179 16.0302 651.881 15.2706L652.025 15.114C653.477 13.5444 655.937 13.4462 657.512 14.8962L672.917 29.107C673.678 29.8108 674.122 30.7669 674.162 31.8C674.202 32.8357 673.838 33.8236 673.135 34.5832L672.992 34.7399C672.228 35.5658 671.183 35.9854 670.138 35.9854ZM654.881 15.0396C654.15 15.0396 653.424 15.3317 652.889 15.908L652.746 16.0647C652.254 16.5959 651.998 17.2863 652.027 18.0087C652.057 18.7311 652.365 19.4003 652.897 19.889L668.303 34.0998C669.401 35.1143 671.119 35.0426 672.133 33.9484L672.276 33.7918C672.768 33.2606 673.024 32.5701 672.994 31.8478C672.965 31.1254 672.657 30.4562 672.125 29.9675L656.719 15.7566C656.198 15.276 655.538 15.0396 654.881 15.0396Z" fill="black"/>
<path d="M667.863 34.572L652.456 20.3612C651.119 19.1281 649.034 19.2106 647.799 20.5455L647.653 20.7035C646.418 22.0384 646.501 24.1202 647.837 25.3533L663.245 39.5641C664.582 40.7972 666.667 40.7147 667.902 39.3798L668.048 39.2218C669.283 37.8869 669.2 35.8051 667.863 34.572Z" fill="white"/>
<path d="M665.46 41.0395C664.519 41.0395 663.574 40.6996 662.827 40.0118L647.422 25.8009C645.85 24.3509 645.751 21.8943 647.206 20.3248L647.352 20.1681C648.055 19.4085 649.015 18.9677 650.049 18.9252C651.089 18.8827 652.076 19.2492 652.837 19.9503L668.242 34.1612C669.814 35.6112 669.913 38.0678 668.46 39.6373L668.314 39.794C667.551 40.6199 666.508 41.0369 665.46 41.0369V41.0395ZM663.622 39.1539C664.721 40.1658 666.439 40.0994 667.452 39.0026L667.599 38.8459C668.612 37.7491 668.545 36.0335 667.447 35.0216L652.042 20.8108C651.51 20.3195 650.829 20.0645 650.095 20.0937C649.371 20.1229 648.701 20.431 648.212 20.9621L648.065 21.1188C647.052 22.2157 647.118 23.9313 648.217 24.9431L663.622 39.1539Z" fill="black"/>
<path d="M511.141 184.648C511.109 184.648 511.075 184.645 511.04 184.64C510.721 184.584 510.508 184.281 510.564 183.963C510.764 182.821 510.442 181.764 509.681 181.063C508.92 180.362 507.843 180.125 506.715 180.415C506.404 180.494 506.082 180.306 506.003 179.992C505.923 179.679 506.112 179.36 506.426 179.281C507.942 178.893 509.418 179.228 510.476 180.205C511.532 181.18 511.984 182.622 511.718 184.162C511.668 184.446 511.421 184.648 511.141 184.648Z" fill="url(#paint7_linear_697_4570)"/>
<path d="M515.756 188.905C515.724 188.905 515.689 188.903 515.655 188.897C515.336 188.842 515.123 188.539 515.179 188.22C515.378 187.078 515.056 186.021 514.296 185.32C513.538 184.619 512.458 184.383 511.333 184.672C511.021 184.752 510.7 184.563 510.62 184.25C510.54 183.936 510.729 183.618 511.043 183.538C512.559 183.15 514.035 183.485 515.091 184.46C516.149 185.434 516.602 186.876 516.333 188.417C516.285 188.701 516.035 188.903 515.756 188.903V188.905Z" fill="url(#paint8_linear_697_4570)"/>
<path d="M520.368 193.16C520.336 193.16 520.301 193.157 520.267 193.152C519.948 193.096 519.735 192.793 519.791 192.475C519.99 191.333 519.668 190.276 518.908 189.574C518.147 188.873 517.07 188.637 515.942 188.926C515.628 189.006 515.309 188.818 515.229 188.504C515.149 188.191 515.338 187.872 515.652 187.792C517.171 187.405 518.644 187.739 519.703 188.714C520.759 189.689 521.211 191.131 520.945 192.671C520.894 192.955 520.647 193.154 520.368 193.157V193.16Z" fill="url(#paint9_linear_697_4570)"/>
<path d="M511.28 184.521C511.136 184.521 510.995 184.47 510.883 184.367C510.647 184.146 510.631 183.777 510.851 183.541L646.02 37.446C646.241 37.2069 646.611 37.1937 646.847 37.4141C647.084 37.6319 647.1 38.0037 646.879 38.24L511.71 184.335C511.596 184.46 511.437 184.523 511.28 184.523V184.521Z" fill="url(#paint10_linear_697_4570)"/>
<path d="M523.33 180.781C523.187 180.781 523.046 180.731 522.934 180.627C522.697 180.407 522.681 180.038 522.902 179.801L650.656 41.7243C650.876 41.4853 651.246 41.472 651.483 41.6924C651.72 41.9102 651.736 42.282 651.515 42.5184L523.761 180.595C523.647 180.72 523.487 180.784 523.33 180.784V180.781Z" fill="url(#paint11_linear_697_4570)"/>
</g>
<defs>
<linearGradient id="paint0_linear_697_4570" x1="198.941" y1="335.251" x2="281.929" y2="335.251" gradientUnits="userSpaceOnUse">
<stop stop-color="#B100FF"/>
<stop offset="1" stop-color="#5800FF"/>
</linearGradient>
<linearGradient id="paint1_linear_697_4570" x1="240.535" y1="302.675" x2="255.03" y2="302.675" gradientUnits="userSpaceOnUse">
<stop stop-color="#B100FF"/>
<stop offset="1" stop-color="#5800FF"/>
</linearGradient>
<linearGradient id="paint2_linear_697_4570" x1="548.199" y1="287.598" x2="658.534" y2="287.598" gradientUnits="userSpaceOnUse">
<stop stop-color="#B100FF"/>
<stop offset="1" stop-color="#5800FF"/>
</linearGradient>
<linearGradient id="paint3_linear_697_4570" x1="522.68" y1="327.742" x2="685.968" y2="327.742" gradientUnits="userSpaceOnUse">
<stop stop-color="#B100FF"/>
<stop offset="1" stop-color="#5800FF"/>
</linearGradient>
<linearGradient id="paint4_linear_697_4570" x1="627.559" y1="285.274" x2="706.285" y2="285.274" gradientUnits="userSpaceOnUse">
<stop stop-color="#B100FF"/>
<stop offset="1" stop-color="#5800FF"/>
</linearGradient>
<linearGradient id="paint5_linear_697_4570" x1="593.566" y1="226.245" x2="596.758" y2="226.245" gradientUnits="userSpaceOnUse">
<stop stop-color="#B100FF"/>
<stop offset="1" stop-color="#5800FF"/>
</linearGradient>
<linearGradient id="paint6_linear_697_4570" x1="111.371" y1="88.7786" x2="238.41" y2="88.7786" gradientUnits="userSpaceOnUse">
<stop stop-color="#B100FF"/>
<stop offset="1" stop-color="#5800FF"/>
</linearGradient>
<linearGradient id="paint7_linear_697_4570" x1="505.984" y1="181.886" x2="511.793" y2="181.886" gradientUnits="userSpaceOnUse">
<stop stop-color="#B100FF"/>
<stop offset="1" stop-color="#5800FF"/>
</linearGradient>
<linearGradient id="paint8_linear_697_4570" x1="510.602" y1="186.143" x2="516.409" y2="186.143" gradientUnits="userSpaceOnUse">
<stop stop-color="#B100FF"/>
<stop offset="1" stop-color="#5800FF"/>
</linearGradient>
<linearGradient id="paint9_linear_697_4570" x1="515.211" y1="190.397" x2="521.02" y2="190.397" gradientUnits="userSpaceOnUse">
<stop stop-color="#B100FF"/>
<stop offset="1" stop-color="#5800FF"/>
</linearGradient>
<linearGradient id="paint10_linear_697_4570" x1="510.695" y1="110.89" x2="647.035" y2="110.89" gradientUnits="userSpaceOnUse">
<stop stop-color="#B100FF"/>
<stop offset="1" stop-color="#5800FF"/>
</linearGradient>
<linearGradient id="paint11_linear_697_4570" x1="522.746" y1="111.16" x2="651.671" y2="111.16" gradientUnits="userSpaceOnUse">
<stop stop-color="#B100FF"/>
<stop offset="1" stop-color="#5800FF"/>
</linearGradient>
<clipPath id="clip0_697_4570">
<rect width="729" height="486" fill="white"/>
</clipPath>
</defs>
</svg>
