<svg width="30" height="30" viewBox="0 0 30 30" fill="none" xmlns="http://www.w3.org/2000/svg">
<g clip-path="url(#clip0_1616_3383)">
<path d="M7.1031e-07 15C3.18621e-07 6.7285 6.7285 -2.71488e-07 15 -6.05235e-07C23.2715 -9.38981e-07 30 6.7285 30 15C30 23.2715 23.2703 30 15 30C6.72967 30 1.102e-06 23.2715 7.1031e-07 15Z" fill="#3B0098"/>
<path d="M16.6046 21.6346L10.7951 15.8251C10.3443 15.3719 10.3443 14.64 10.7951 14.1868L16.6046 8.37737C17.0391 8.00442 17.6817 8.00442 18.1162 8.37737C18.6031 8.7945 18.66 9.52879 18.2428 10.0156L13.2584 15.0002L18.2429 19.9963C18.6937 20.4494 18.6937 21.1814 18.2429 21.6346C17.7897 22.0854 17.0577 22.0854 16.6046 21.6346Z" fill="white"/>
</g>
<defs>
<clipPath id="clip0_1616_3383">
<rect width="30" height="30" fill="white" transform="matrix(4.7354e-08 1 1 -4.0349e-08 0 0)"/>
</clipPath>
</defs>
</svg>
