<svg width="69" height="69" viewBox="0 0 69 69" fill="none" xmlns="http://www.w3.org/2000/svg">
<g filter="url(#filter0_d_166_2171)">
<path d="M50.4652 8.26082H45.2852C44.5811 8.26082 44.0114 8.83054 44.0114 9.5346V10.8084H33.5866C33.059 9.32892 31.6583 8.26082 29.9999 8.26082C28.3414 8.26082 26.9408 9.32892 26.4132 10.8084H15.9883V9.5346C15.9883 8.83054 15.4186 8.26082 14.7145 8.26082H9.53452C8.83046 8.26082 8.26074 8.83054 8.26074 9.5346V14.6297C8.26074 15.3338 8.83046 15.9035 9.53452 15.9035H14.7145C15.4186 15.9035 15.9883 15.3338 15.9883 14.6297V13.3389H21.2196C16.799 16.1006 13.8842 20.951 13.5358 26.3837C12.0074 26.884 10.8932 28.3067 10.8932 30C10.8932 32.1071 12.6074 33.8213 14.7145 33.8213C16.8217 33.8213 18.5359 32.1071 18.5359 30C18.5359 28.3746 17.5117 26.9927 16.0783 26.4413C16.5129 20.3845 20.7392 15.2795 26.6178 13.823C27.2536 15.0523 28.5229 15.9035 29.9999 15.9035C31.4769 15.9035 32.7461 15.0523 33.3819 13.823C39.2606 15.2794 43.4868 20.3844 43.9214 26.4412C42.4881 26.9927 41.4639 28.3746 41.4639 30C41.4639 32.1071 43.178 33.8213 45.2852 33.8213C47.3924 33.8213 49.1065 32.1071 49.1065 30C49.1065 28.3067 47.9923 26.884 46.464 26.3837C46.1155 20.951 43.2007 16.1176 38.7801 13.3559H44.0114V14.6297C44.0114 15.3338 44.5811 15.9035 45.2852 15.9035H50.4652C51.1693 15.9035 51.739 15.3338 51.739 14.6297V9.5346C51.739 8.83054 51.1693 8.26082 50.4652 8.26082Z" fill="#00005B"/>
<path d="M38.6659 50.159C37.9996 48.1202 36.0801 46.5589 33.8213 46.5589H26.1786C23.9198 46.5589 22.0003 48.1202 21.334 50.159C21.0772 50.9451 21.7459 51.7389 22.573 51.7389H37.4269C38.254 51.7389 38.9228 50.9451 38.6659 50.159Z" fill="#00005B"/>
<path d="M41.2497 34.3884L31.2734 19.424V31.5082C32.7529 32.0358 33.821 33.4364 33.821 35.0949C33.821 37.2021 32.1068 38.9162 29.9997 38.9162C27.8925 38.9162 26.1783 37.2021 26.1783 35.0949C26.1783 33.4364 27.2464 32.0358 28.7259 31.5082V19.424L18.7497 34.3884C18.4125 34.8934 18.4797 35.5664 18.9089 35.9956C21.2473 38.334 22.742 41.3464 23.3189 44.5778C24.2037 44.2189 25.1661 44.0113 26.1783 44.0113H33.821C34.8332 44.0113 35.7956 44.2188 36.6804 44.5777C37.2573 41.3461 38.752 38.334 41.0904 35.9956C41.5196 35.5664 41.5868 34.8934 41.2497 34.3884Z" fill="#00005B"/>
<path d="M29.9999 33.8214C29.2971 33.8214 28.7261 34.3924 28.7261 35.0952C28.7261 35.7979 29.2971 36.3689 29.9999 36.3689C30.7026 36.3689 31.2736 35.7979 31.2736 35.0952C31.2736 34.3924 30.7026 33.8214 29.9999 33.8214Z" fill="#00005B"/>
</g>
<defs>
<filter id="filter0_d_166_2171" x="0.997584" y="0.99766" width="67.6886" height="67.6886" filterUnits="userSpaceOnUse" color-interpolation-filters="sRGB">
<feFlood flood-opacity="0" result="BackgroundImageFix"/>
<feColorMatrix in="SourceAlpha" type="matrix" values="0 0 0 0 0 0 0 0 0 0 0 0 0 0 0 0 0 0 127 0" result="hardAlpha"/>
<feOffset dx="4.84211" dy="4.84211"/>
<feGaussianBlur stdDeviation="6.05263"/>
<feComposite in2="hardAlpha" operator="out"/>
<feColorMatrix type="matrix" values="0 0 0 0 0 0 0 0 0 0 0 0 0 0 0 0 0 0 0.2 0"/>
<feBlend mode="normal" in2="BackgroundImageFix" result="effect1_dropShadow_166_2171"/>
<feBlend mode="normal" in="SourceGraphic" in2="effect1_dropShadow_166_2171" result="shape"/>
</filter>
</defs>
</svg>
