<svg width="616" height="487" viewBox="0 0 616 487" fill="none" xmlns="http://www.w3.org/2000/svg">
<g filter="url(#filter0_d_166_2421)">
<rect width="175.294" height="43.8235" transform="matrix(-1 0 0 1 604 216.601)" fill="#3B0098"/>
<rect width="175.294" height="43.8235" transform="matrix(-1 0 0 1 498.824 270.066)" fill="#3B0098"/>
<rect width="175.294" height="43.8235" transform="matrix(-1 0 0 1 393.647 323.531)" fill="#3B0098"/>
<rect width="175.294" height="43.8235" transform="matrix(-1 0 0 1 288.471 376.995)" fill="#3B0098"/>
<rect width="175.294" height="43.8235" transform="matrix(-1 0 0 1 183.294 430.46)" fill="#3B0098"/>
<path d="M517.52 164.909H527.894V192.643H517.52V164.909Z" fill="white"/>
<path d="M517.521 192.943H527.895C528.06 192.943 528.193 192.81 528.193 192.644V164.91C528.193 164.744 528.06 164.611 527.895 164.611H517.521C517.356 164.611 517.223 164.744 517.223 164.91V192.644C517.223 192.81 517.356 192.943 517.521 192.943ZM527.596 192.344H517.819V165.207H527.596V192.344Z" fill="#00005B"/>
<path d="M515.33 185.288H530.19C531.294 185.288 532.19 186.186 532.19 187.294V191.057C532.19 192.165 531.294 193.063 530.19 193.063H515.33C514.226 193.063 513.33 192.165 513.33 191.057V187.294C513.33 186.186 514.226 185.288 515.33 185.288Z" fill="white"/>
<path d="M515.331 193.362H530.19C531.457 193.362 532.488 192.328 532.488 191.057V187.294C532.488 186.024 531.457 184.989 530.19 184.989H515.331C514.064 184.989 513.032 186.024 513.032 187.294V191.057C513.032 192.328 514.064 193.362 515.331 193.362ZM530.19 185.587C531.128 185.587 531.891 186.352 531.891 187.293V191.056C531.891 191.997 531.128 192.761 530.19 192.761H515.331C514.392 192.761 513.63 191.997 513.63 191.056V187.293C513.63 186.352 514.392 185.587 515.331 185.587H530.19Z" fill="#00005B"/>
<path d="M539.178 191.802H506.346C504.534 191.802 503.065 193.277 503.065 195.091V197.895H542.459V195.091C542.459 193.275 540.988 191.802 539.178 191.802Z" fill="white"/>
<path d="M503.064 198.195H542.459C542.624 198.195 542.757 198.062 542.757 197.896V195.093C542.757 193.114 541.152 191.504 539.178 191.504H506.345C504.372 191.504 502.767 193.114 502.767 195.093V197.896C502.767 198.062 502.9 198.195 503.065 198.195H503.064ZM542.161 197.596H503.363V195.091C503.363 193.442 504.7 192.101 506.345 192.101H539.178C540.823 192.101 542.161 193.442 542.161 195.091V197.596Z" fill="#00005B"/>
<path d="M530.716 163.554C541.599 157.426 552.48 148.178 560.568 138.182C565.536 132.043 573.457 120.557 570.711 112.599C569.917 110.301 567.9 107.414 562.792 106.711C559.084 106.201 554.071 106.906 547.89 108.805L549.238 114.275C554.776 112.573 559.128 111.923 562.17 112.342C564.265 112.631 565.543 113.403 565.97 114.639C566.983 117.572 564.539 124.813 556.799 134.38C549.114 143.877 538.774 152.665 528.43 158.49L530.718 163.555L530.716 163.554Z" fill="white"/>
<path d="M530.717 163.853C530.767 163.853 530.818 163.839 530.863 163.814C541.778 157.669 552.69 148.394 560.8 138.37C565.807 132.183 573.787 120.597 570.993 112.501C570.173 110.124 568.09 107.139 562.834 106.415C559.082 105.898 554.026 106.607 547.804 108.519C547.652 108.566 547.563 108.723 547.602 108.877L548.95 114.347C548.97 114.427 549.022 114.495 549.092 114.535C549.164 114.575 549.249 114.584 549.326 114.56C554.823 112.872 559.132 112.225 562.131 112.638C564.104 112.909 565.301 113.615 565.688 114.736C566.673 117.591 564.236 124.714 556.568 134.19C548.906 143.66 538.597 152.42 528.284 158.228C528.15 158.304 528.095 158.471 528.158 158.612L530.445 163.678C530.48 163.754 530.545 163.813 530.624 163.839C530.654 163.849 530.685 163.854 530.717 163.854V163.853ZM560.277 106.85C561.158 106.85 561.983 106.903 562.751 107.008C567.709 107.69 569.662 110.478 570.429 112.697C573.129 120.52 565.265 131.904 560.338 137.993C552.342 147.875 541.611 157.022 530.855 163.132L528.815 158.614C539.111 152.77 549.384 144.019 557.032 134.566C564.844 124.912 567.292 117.552 566.253 114.54C565.785 113.188 564.427 112.349 562.212 112.045C559.182 111.627 554.891 112.25 549.453 113.896L548.248 109.007C552.984 107.572 557.016 106.848 560.278 106.848L560.277 106.85Z" fill="#00005B"/>
<path d="M514.479 163.239C503.772 157.111 493.068 147.863 485.11 137.867C480.225 131.728 472.431 120.242 475.133 112.284C475.913 109.986 477.898 107.099 482.924 106.396C486.572 105.886 491.504 106.591 497.585 108.49L496.259 113.96C490.81 112.258 486.529 111.608 483.536 112.027C481.476 112.316 480.218 113.088 479.799 114.324C478.803 117.257 481.207 124.498 488.821 134.065C496.381 143.562 506.553 152.35 516.73 158.175L514.48 163.24L514.479 163.239Z" fill="white"/>
<path d="M514.479 163.538C514.509 163.538 514.541 163.532 514.572 163.523C514.652 163.496 514.717 163.438 514.751 163.36L517.002 158.295C517.065 158.155 517.01 157.989 516.877 157.913C506.732 152.107 496.59 143.346 489.052 133.877C481.509 124.399 479.111 117.276 480.08 114.42C480.46 113.3 481.637 112.594 483.576 112.324C486.526 111.91 490.762 112.557 496.168 114.245C496.247 114.269 496.332 114.261 496.404 114.22C496.476 114.178 496.528 114.11 496.546 114.03L497.873 108.56C497.911 108.407 497.823 108.251 497.672 108.204C491.549 106.292 486.573 105.583 482.882 106.1C477.707 106.823 475.658 109.809 474.851 112.187C472.102 120.282 479.953 131.868 484.877 138.053C492.857 148.078 503.592 157.353 514.331 163.499C514.376 163.524 514.428 163.538 514.479 163.538ZM516.347 158.299L514.34 162.815C503.761 156.704 493.207 147.559 485.344 137.68C480.496 131.589 472.76 120.205 475.416 112.38C476.169 110.162 478.091 107.374 482.965 106.692C486.516 106.197 491.312 106.868 497.228 108.692L496.043 113.579C490.697 111.935 486.476 111.312 483.495 111.73C481.313 112.034 479.974 112.875 479.515 114.227C478.493 117.237 480.902 124.595 488.586 134.25C496.111 143.704 506.217 152.455 516.347 158.299Z" fill="#00005B"/>
<path d="M522.683 168.479C494.993 168.789 494.694 129.345 488.737 97.9246L556.84 97.6724C551.336 130 550.331 169.004 522.683 168.479Z" fill="white"/>
<path d="M523.227 168.784C533.687 168.784 541.222 163.023 546.25 151.189C550.779 140.529 552.892 126.031 554.936 112.01C555.626 107.281 556.339 102.391 557.133 97.7232C557.148 97.6364 557.124 97.547 557.067 97.4789C557.01 97.4122 556.927 97.3628 556.838 97.3735L488.735 97.6257C488.645 97.6257 488.562 97.6658 488.506 97.7352C488.45 97.8046 488.426 97.894 488.443 97.982C489.459 103.336 490.324 109.018 491.159 114.513C493.194 127.883 495.3 141.709 499.734 151.883C504.689 163.251 512.095 168.781 522.364 168.782C522.471 168.782 522.575 168.782 522.682 168.781C522.865 168.785 523.046 168.786 523.227 168.786V168.784ZM556.485 97.9727C555.713 102.542 555.017 107.309 554.345 111.923C552.306 125.906 550.198 140.366 545.7 150.954C540.712 162.696 533.568 168.184 523.251 168.186C523.064 168.186 522.878 168.184 522.689 168.18C522.686 168.18 522.684 168.18 522.68 168.18C522.569 168.18 522.459 168.182 522.35 168.182C512.215 168.182 505.197 162.917 500.281 151.641C495.877 141.539 493.779 127.754 491.749 114.421C490.93 109.042 490.084 103.483 489.095 98.2222L556.484 97.9727H556.485Z" fill="#00005B"/>
<path d="M497.098 134.346C497.118 134.346 497.137 134.345 497.157 134.34C497.318 134.306 497.424 134.149 497.39 133.986C496.126 127.819 495.27 121.09 494.442 114.583C494.136 112.175 493.82 109.685 493.487 107.258C493.464 107.094 493.315 106.979 493.15 107.002C492.986 107.024 492.872 107.175 492.895 107.339C493.227 109.764 493.544 112.251 493.85 114.657C494.679 121.176 495.536 127.917 496.805 134.106C496.834 134.247 496.958 134.345 497.096 134.345L497.098 134.346Z" fill="#00005B"/>
<path d="M522.09 166.638C522.243 166.638 522.374 166.52 522.387 166.364C522.402 166.2 522.279 166.055 522.115 166.04C511.997 165.162 505.221 157.976 500.794 143.426C500.746 143.268 500.579 143.179 500.421 143.227C500.264 143.275 500.175 143.443 500.223 143.601C503.06 152.922 508.41 165.451 522.064 166.636C522.073 166.636 522.081 166.636 522.09 166.636V166.638Z" fill="#00005B"/>
<path d="M487.161 92.4412H557.758C559.093 92.4412 560.176 93.5268 560.176 94.866V98.9988C560.176 100.338 559.093 101.424 557.758 101.424H487.161C485.826 101.424 484.743 100.338 484.743 98.9988V94.866C484.743 93.5268 485.826 92.4412 487.161 92.4412Z" fill="white"/>
<path d="M487.162 101.723H557.758C559.256 101.723 560.474 100.5 560.474 98.9989V94.866C560.474 93.3634 559.255 92.1424 557.758 92.1424H487.16C485.662 92.1424 484.444 93.3648 484.444 94.866V98.9989C484.444 100.502 485.663 101.723 487.16 101.723H487.162ZM557.758 92.7416C558.926 92.7416 559.878 93.6944 559.878 94.8674V99.0002C559.878 100.172 558.928 101.126 557.758 101.126H487.16C485.992 101.126 485.04 100.173 485.04 99.0002V94.8674C485.04 93.6957 485.99 92.7416 487.16 92.7416H557.758Z" fill="#00005B"/>
<path d="M507.97 96.446C508.134 96.446 508.267 96.3139 508.269 96.1498C508.27 95.9843 508.138 95.8495 507.973 95.8469L493.847 95.688H493.843C493.679 95.688 493.546 95.8202 493.545 95.9843C493.544 96.1498 493.676 96.2846 493.841 96.2872L507.966 96.446H507.97Z" fill="#00005B"/>
<path d="M519.54 96.5754C519.704 96.5754 519.837 96.4433 519.838 96.2791C519.84 96.1136 519.708 95.9789 519.543 95.9762L511.675 95.8881H511.671C511.507 95.8881 511.374 96.0202 511.373 96.1844C511.371 96.3498 511.503 96.4846 511.668 96.4873L519.536 96.5754H519.54Z" fill="#00005B"/>
<path d="M358.493 83.1971L350.064 74.2773L338.546 81.1146C336.225 79.3976 333.794 77.894 331.274 76.6197L332.178 63.2642L320.423 59.755L313.866 71.4438C311.033 71.1266 308.18 71.0459 305.335 71.2036L299.434 59.1636L287.504 62.0024L287.669 75.3885C285.081 76.5193 282.572 77.8832 280.161 79.4657L269.038 71.9886L260.129 80.4174L266.969 91.9467C265.256 94.2676 263.754 96.6996 262.48 99.2195L249.13 98.3073L245.629 110.066L257.314 116.634C256.999 119.468 256.92 122.323 257.077 125.171L245.048 131.063L247.894 143.001L261.272 142.845C262.403 145.435 263.768 147.946 265.351 150.362L257.884 161.486L266.313 170.406L277.831 163.569C280.152 165.284 282.583 166.789 285.103 168.064L284.2 181.419L295.954 184.928L302.511 173.24C305.342 173.557 308.197 173.637 311.042 173.482L316.943 185.522L328.873 182.681L328.708 169.295C331.296 168.164 333.805 166.8 336.216 165.218L347.339 172.695L356.248 164.266L349.408 152.737C351.122 150.416 352.625 147.984 353.897 145.464L367.247 146.376L370.748 134.617L359.063 128.051C359.379 125.217 359.457 122.362 359.3 119.514L371.331 113.618L368.485 101.678L355.107 101.834C353.976 99.2446 352.611 96.7337 351.027 94.3196L358.493 83.1953V83.1971ZM329.889 145.303C317.222 157.287 297.239 156.721 285.255 144.041C273.271 131.359 273.824 111.365 286.49 99.3808C299.156 87.3963 319.14 87.9626 331.124 100.644C343.108 113.326 342.554 133.32 329.889 145.304V145.303Z" fill="white"/>
<path d="M316.945 185.925C316.794 185.925 316.653 185.841 316.585 185.699L310.8 173.897C308.116 174.03 305.405 173.953 302.733 173.67L296.306 185.125C296.214 185.29 296.021 185.367 295.84 185.314L284.085 181.804C283.906 181.751 283.786 181.579 283.798 181.392L284.683 168.3C282.32 167.089 280.01 165.66 277.806 164.049L266.517 170.75C266.356 170.845 266.15 170.816 266.021 170.68L257.592 161.76C257.463 161.624 257.445 161.416 257.551 161.26L264.869 150.357C263.383 148.066 262.088 145.677 261.011 143.249L247.898 143.401C247.718 143.41 247.546 143.276 247.502 143.093L244.658 131.157C244.615 130.974 244.703 130.786 244.871 130.703L256.662 124.923C256.527 122.239 256.603 119.527 256.886 116.851L245.432 110.414C245.269 110.322 245.19 110.129 245.244 109.949L248.745 98.1907C248.799 98.0097 248.969 97.8932 249.157 97.9039L262.242 98.7982C263.453 96.4325 264.879 94.1206 266.487 91.9215L259.783 80.6216C259.686 80.4603 259.717 80.2542 259.853 80.1252L268.762 71.6964C268.899 71.5674 269.106 71.5495 269.262 71.6552L280.164 78.9835C282.451 77.5014 284.838 76.2038 287.266 75.1267L287.104 62.0059C287.102 61.8178 287.23 61.6529 287.412 61.6099L299.343 58.771C299.526 58.7262 299.714 58.8158 299.796 58.9843L305.581 70.786C308.263 70.6534 310.974 70.7286 313.648 71.0136L320.075 59.5578C320.167 59.3929 320.36 59.3158 320.541 59.3696L332.296 62.8787C332.475 62.9325 332.595 63.1028 332.583 63.291L331.697 76.383C334.061 77.5946 336.372 79.0248 338.573 80.6342L349.862 73.9331C350.023 73.8363 350.229 73.8668 350.358 74.003L358.787 82.9228C358.916 83.059 358.934 83.2669 358.829 83.4229L351.51 94.3267C352.994 96.6171 354.291 99.0061 355.368 101.435L368.482 101.282C368.664 101.291 368.833 101.408 368.878 101.59L371.723 113.53C371.766 113.713 371.678 113.901 371.51 113.984L359.719 119.764C359.854 122.45 359.778 125.163 359.495 127.836L370.949 134.273C371.112 134.365 371.191 134.558 371.137 134.737L367.636 146.496C367.582 146.677 367.412 146.794 367.224 146.783L354.139 145.889C352.93 148.251 351.503 150.563 349.894 152.767L356.598 164.067C356.694 164.228 356.664 164.434 356.528 164.563L347.618 172.992C347.482 173.121 347.274 173.139 347.118 173.033L336.217 165.705C333.928 167.189 331.542 168.485 329.115 169.56L329.277 182.681C329.278 182.869 329.151 183.034 328.968 183.077L317.038 185.918C317.007 185.925 316.975 185.928 316.945 185.928V185.925ZM311.044 173.08C311.196 173.08 311.338 173.166 311.404 173.306L317.163 185.057L328.468 182.365L328.309 169.3C328.307 169.139 328.402 168.992 328.549 168.927C331.095 167.814 333.602 166.454 335.998 164.882C336.132 164.795 336.308 164.795 336.442 164.884L347.298 172.182L355.739 164.194L349.063 152.943C348.98 152.803 348.989 152.629 349.084 152.498C350.787 150.193 352.285 147.765 353.537 145.283C353.611 145.139 353.761 145.053 353.924 145.062L366.953 145.953L370.27 134.809L358.864 128.398C358.723 128.32 358.644 128.164 358.662 128.004C358.974 125.203 359.053 122.353 358.897 119.534C358.888 119.373 358.975 119.222 359.121 119.151L370.861 113.396L368.164 102.082L355.107 102.234C354.96 102.234 354.799 102.141 354.734 101.994C353.62 99.4434 352.258 96.9343 350.686 94.5381C350.598 94.4037 350.598 94.2281 350.688 94.0937L357.976 83.2365L349.987 74.7844L338.745 81.4568C338.607 81.5392 338.431 81.5303 338.301 81.4353C335.998 79.7327 333.57 78.2326 331.086 76.9763C330.943 76.9028 330.855 76.7522 330.866 76.5909L331.748 63.5544L320.609 60.2281L314.21 71.6355C314.131 71.7771 313.974 71.8577 313.816 71.838C311.014 71.5244 308.166 71.4437 305.351 71.5996C305.193 71.6086 305.039 71.5208 304.968 71.3756L299.209 59.6241L287.903 62.3142L288.063 75.3794C288.065 75.5407 287.97 75.6877 287.823 75.7522C285.273 76.8669 282.766 78.2272 280.374 79.7972C280.24 79.885 280.064 79.885 279.93 79.7954L269.074 72.4975L260.633 80.4854L267.307 91.7387C267.39 91.8785 267.381 92.0523 267.286 92.1832C265.587 94.4844 264.089 96.9128 262.833 99.3986C262.76 99.542 262.609 99.628 262.446 99.6191L249.417 98.7283L246.1 109.872L257.506 116.283C257.647 116.362 257.726 116.518 257.708 116.677C257.396 119.482 257.318 122.332 257.473 125.147C257.482 125.309 257.395 125.459 257.249 125.531L245.509 131.286L248.206 142.6L261.263 142.448C261.437 142.444 261.572 142.541 261.636 142.688C262.751 145.238 264.112 147.747 265.684 150.143C265.772 150.278 265.772 150.453 265.682 150.588L258.394 161.445L266.383 169.897L277.625 163.225C277.765 163.142 277.939 163.151 278.07 163.246C280.374 164.951 282.802 166.451 285.284 167.705C285.427 167.779 285.515 167.929 285.504 168.09L284.622 181.127L295.761 184.453L302.16 173.046C302.239 172.904 302.393 172.824 302.556 172.843C305.357 173.157 308.204 173.238 311.021 173.084C311.028 173.084 311.035 173.084 311.042 173.084L311.044 173.08ZM308.231 154.333C307.923 154.333 307.613 154.33 307.304 154.321C298.766 154.079 290.831 150.527 284.963 144.315C272.846 131.494 273.407 111.204 286.214 99.0868C292.417 93.2173 300.538 90.1132 309.075 90.3587C317.613 90.6007 325.548 94.1528 331.416 100.365C343.533 113.186 342.972 133.476 330.165 145.593C324.186 151.249 316.429 154.333 308.231 154.333ZM308.148 91.1491C300.156 91.1491 292.595 94.1546 286.766 99.6693C274.28 111.482 273.733 131.261 285.545 143.761C291.269 149.817 299.002 153.281 307.326 153.516C315.649 153.751 323.564 150.729 329.612 145.009C342.098 133.196 342.644 113.417 330.832 100.917C325.109 94.8607 317.375 91.3964 309.051 91.1616C308.75 91.1527 308.448 91.1491 308.148 91.1491Z" fill="#00005B"/>
<path d="M430.85 18.654L423.835 13.8617L417.051 20.1828C415.229 19.3637 413.363 18.7042 411.471 18.2131L410.116 9.04599L401.65 8.40259L398.935 17.274C396.973 17.4766 395.03 17.8422 393.129 18.3673L387.367 11.0927L379.715 14.7703L381.797 23.8013C380.213 24.9465 378.717 26.2387 377.319 27.6653L368.695 24.2457L363.909 31.2587L370.232 38.0493C369.415 39.872 368.758 41.7377 368.267 43.6303L359.103 44.9798L358.467 53.4498L367.337 56.1722C367.541 58.1346 367.908 60.0774 368.433 61.9807L361.165 67.7409L364.848 75.3972L373.874 73.3218C375.02 74.9062 376.312 76.4044 377.739 77.8042L374.325 86.4283L381.34 91.2206L388.124 84.8995C389.947 85.7186 391.812 86.3781 393.704 86.8692L395.059 96.0363L403.526 96.6797L406.241 87.8083C408.203 87.6058 410.145 87.2402 412.046 86.715L417.809 93.9896L425.46 90.312L423.378 81.2811C424.962 80.1358 426.459 78.8436 427.856 77.417L436.481 80.8366L441.267 73.8237L434.943 67.033C435.76 65.2103 436.418 63.3446 436.909 61.452L446.073 60.1025L446.709 51.6325L437.839 48.9119C437.635 46.9495 437.267 45.0067 436.742 43.1034L444.012 37.3432L440.33 29.6869L431.304 31.7623C430.157 30.1779 428.865 28.6797 427.439 27.2799L430.852 18.6558L430.85 18.654ZM420.646 64.8734C413.842 74.8452 400.241 77.4045 390.269 70.5923C380.296 63.7801 377.728 50.1736 384.53 40.2036C391.334 30.2317 404.934 27.6724 414.906 34.4846C424.88 41.2968 427.448 54.9033 420.646 64.8734Z" fill="white"/>
<path d="M403.527 97.0759C403.517 97.0759 403.508 97.0759 403.497 97.0759L395.03 96.4324C394.844 96.4181 394.69 96.2765 394.663 96.0901L393.348 87.1864C391.617 86.7222 389.889 86.1129 388.205 85.3709L381.614 91.511C381.476 91.6383 381.268 91.6544 381.114 91.5487L374.099 86.7563C373.943 86.6506 373.882 86.4516 373.952 86.276L377.267 77.8992C375.963 76.5998 374.767 75.2127 373.705 73.7682L364.937 75.7844C364.754 75.8256 364.566 75.736 364.486 75.5675L360.803 67.9112C360.723 67.7409 360.769 67.5384 360.916 67.4219L367.976 61.8266C367.507 60.0757 367.166 58.2781 366.965 56.4751L358.348 53.8316C358.169 53.776 358.051 53.604 358.065 53.4176L358.701 44.9476C358.716 44.7594 358.857 44.6071 359.044 44.5802L367.944 43.2701C368.406 41.5388 369.015 39.8111 369.755 38.1282L363.613 31.5311C363.486 31.3931 363.47 31.1852 363.575 31.0311L368.361 24.0182C368.467 23.8622 368.666 23.8013 368.842 23.8712L377.219 27.1922C378.516 25.8892 379.901 24.6938 381.345 23.631L379.324 14.86C379.281 14.6772 379.373 14.489 379.541 14.4065L387.192 10.7289C387.361 10.6483 387.565 10.6949 387.682 10.8418L393.281 17.9085C395.032 17.439 396.829 17.102 398.63 16.9013L401.266 8.28434C401.322 8.10512 401.494 7.98684 401.68 8.00117L410.147 8.64458C410.333 8.65892 410.487 8.8005 410.514 8.98689L411.829 17.8924C413.56 18.3566 415.288 18.9659 416.972 19.7079L423.563 13.5678C423.701 13.4387 423.908 13.4244 424.063 13.5301L431.078 18.3225C431.234 18.4283 431.295 18.6272 431.225 18.8028L427.91 27.1796C429.214 28.479 430.409 29.8661 431.472 31.3107L440.24 29.2944C440.421 29.2532 440.611 29.3428 440.691 29.5113L444.374 37.1676C444.454 37.3379 444.408 37.5404 444.261 37.6569L437.199 43.2522C437.668 45.005 438.009 46.8025 438.21 48.6037L446.827 51.2472C447.006 51.3028 447.124 51.4748 447.11 51.6612L446.474 60.1312C446.459 60.3194 446.318 60.4717 446.132 60.4986L437.231 61.8087C436.769 63.54 436.16 65.2659 435.42 66.9506L441.562 73.5477C441.689 73.6857 441.706 73.8936 441.6 74.0477L436.814 81.0607C436.708 81.2166 436.509 81.2775 436.333 81.2076L427.956 77.8867C426.659 79.1896 425.272 80.385 423.83 81.446L425.851 90.2171C425.894 90.3999 425.802 90.588 425.634 90.6705L417.983 94.3481C417.812 94.4288 417.61 94.3822 417.493 94.2352L411.894 87.1685C410.143 87.6381 408.346 87.975 406.545 88.1757L403.907 96.7927C403.855 96.9629 403.698 97.0776 403.524 97.0776L403.527 97.0759ZM395.41 95.6546L403.237 96.2496L405.857 87.6865C405.903 87.5323 406.04 87.4212 406.199 87.4051C408.134 87.2044 410.064 86.8423 411.939 86.3244C412.094 86.2814 412.261 86.3351 412.36 86.4624L417.923 93.4861L424.996 90.0862L422.987 81.3689C422.952 81.2112 423.012 81.0481 423.143 80.9531C424.697 79.8294 426.186 78.5444 427.571 77.1339C427.684 77.0192 427.856 76.9816 428.006 77.0425L436.332 80.3438L440.754 73.8613L434.649 67.3054C434.54 67.1871 434.511 67.0151 434.576 66.8663C435.384 65.0634 436.038 63.2067 436.518 61.3499C436.559 61.194 436.688 61.0757 436.849 61.0524L445.694 59.7513L446.282 51.9229L437.719 49.2955C437.564 49.2489 437.453 49.1127 437.437 48.9532C437.237 47.0194 436.871 45.0874 436.353 43.2109C436.31 43.055 436.364 42.8884 436.491 42.788L443.508 37.2268L440.105 30.1493L431.391 32.153C431.234 32.1889 431.071 32.1279 430.976 31.9971C429.85 30.4414 428.566 28.9503 427.154 27.5649C427.039 27.452 427.001 27.28 427.062 27.1294L430.357 18.8046L423.873 14.3761L417.323 20.4785C417.205 20.5897 417.031 20.6165 416.884 20.5502C415.082 19.7402 413.225 19.0842 411.367 18.6021C411.211 18.5609 411.095 18.4318 411.069 18.2723L409.761 9.4224L401.934 8.82918L399.315 17.3924C399.268 17.5465 399.132 17.6576 398.972 17.6737C397.037 17.8745 395.107 18.2383 393.231 18.7544C393.075 18.7975 392.909 18.7437 392.81 18.6164L387.246 11.5928L380.174 14.9926L382.182 23.7099C382.218 23.8676 382.157 24.0307 382.026 24.1257C380.471 25.2512 378.982 26.5362 377.599 27.9449C377.486 28.0596 377.314 28.0954 377.163 28.0363L368.838 24.735L364.416 31.2175L370.521 37.7734C370.63 37.8917 370.659 38.0637 370.594 38.2125C369.786 40.0136 369.132 41.8704 368.652 43.7289C368.61 43.8848 368.481 44.0031 368.32 44.0264L359.475 45.3276L358.888 53.1559L367.451 55.7833C367.605 55.8299 367.716 55.9661 367.732 56.1256C367.935 58.063 368.299 59.995 368.817 61.8679C368.86 62.0238 368.806 62.1905 368.679 62.2908L361.661 67.8521L365.064 74.9295L373.778 72.9258C373.936 72.89 374.099 72.9509 374.194 73.0817C375.319 74.6374 376.604 76.1285 378.016 77.5139C378.131 77.6268 378.168 77.7988 378.108 77.9494L374.812 86.2742L381.297 90.7028L387.846 84.6003C387.965 84.4909 388.139 84.4623 388.285 84.5286C390.088 85.3387 391.945 85.9946 393.803 86.4767C393.959 86.5179 394.075 86.647 394.1 86.8065L395.408 95.6564L395.41 95.6546ZM402.556 74.813C398.119 74.813 393.787 73.4832 390.042 70.9257C379.901 63.9988 377.28 50.1163 384.198 39.9778C387.549 35.0671 392.613 31.7569 398.456 30.6565C404.298 29.5561 410.222 30.7981 415.133 34.1531C425.274 41.08 427.895 54.9625 420.979 65.101C417.628 70.0117 412.564 73.3219 406.721 74.4223C405.332 74.684 403.94 74.813 402.556 74.813ZM402.617 31.0687C401.284 31.0687 399.942 31.1942 398.603 31.4451C392.971 32.5061 388.092 35.6962 384.861 40.4294C378.194 50.2024 380.72 63.583 390.495 70.2608C395.229 73.4957 400.938 74.6929 406.57 73.6319C412.202 72.571 417.083 69.3808 420.312 64.6476C426.98 54.8747 424.453 41.494 414.678 34.8162C411.069 32.3501 406.893 31.0687 402.615 31.0687H402.617Z" fill="#00005B"/>
<path d="M37.3861 395.977L34.9639 417.46L44.0985 421.265L47.4625 397.844L37.3861 395.977Z" fill="white"/>
<path d="M44.0986 421.848C44.0231 421.848 43.9477 421.832 43.8748 421.804L34.7428 417.999C34.5035 417.9 34.3578 417.652 34.3864 417.395L36.8086 395.912C36.8268 395.751 36.91 395.605 37.0401 395.509C37.1702 395.413 37.3341 395.374 37.4928 395.405L47.5692 397.271C47.8762 397.328 48.0844 397.617 48.0401 397.927L44.6761 421.346C44.6501 421.525 44.5434 421.681 44.3873 421.77C44.2989 421.819 44.1974 421.845 44.0986 421.845V421.848ZM35.5936 417.09L43.6276 420.437L46.8043 398.317L37.8961 396.667L35.5936 417.09Z" fill="#00005B"/>
<path d="M32.8385 415.432C32.5497 417.47 32.0866 421.247 32.0476 424.633C32.0242 426.759 33.619 428.555 35.729 428.826C41.6921 429.591 55.2184 430.429 66.7388 429.383C67.5271 429.31 68.9216 428.737 69.3119 426.767C70.6153 420.151 59.1106 418.53 46.5001 413.733C46.0058 413.546 45.4464 413.657 45.0666 414.024L43.7059 415.341C42.3452 416.661 40.3263 417.033 38.5831 416.291L34.4464 414.527C33.7413 414.227 32.9452 414.678 32.8385 415.435V415.432Z" fill="white"/>
<path d="M54.7343 430.46C46.9812 430.46 39.7511 429.929 35.656 429.403C33.239 429.094 31.4386 427.04 31.4646 424.625C31.5037 421.182 31.9798 417.335 32.2608 415.349C32.3388 414.805 32.6562 414.339 33.1323 414.071C33.6084 413.803 34.1704 413.772 34.6751 413.985L38.8119 415.75C40.3417 416.403 42.103 416.078 43.2998 414.92L44.6605 413.603C45.199 413.08 46.003 412.918 46.708 413.186C49.6506 414.305 52.4786 415.235 55.213 416.132C64.025 419.024 70.9846 421.309 69.8866 426.881C69.4704 428.99 67.9614 429.861 66.7958 429.966C62.8776 430.322 58.7383 430.463 54.7395 430.463L54.7343 430.46ZM33.9909 415.013C33.892 415.013 33.7958 415.039 33.7073 415.089C33.5486 415.177 33.4419 415.333 33.4185 415.513C33.1427 417.473 32.6718 421.262 32.6328 424.641C32.612 426.462 33.9753 428.014 35.8043 428.248C41.9625 429.039 55.2677 429.838 66.6865 428.802C66.9623 428.776 68.3646 428.555 68.7393 426.655C69.6369 422.095 63.4344 420.06 54.8488 417.241C52.1014 416.338 49.2603 415.406 46.2918 414.277C46.0082 414.17 45.6882 414.235 45.4722 414.443L44.1115 415.76C42.5791 417.246 40.3182 417.665 38.354 416.827L34.2172 415.063C34.1444 415.032 34.0663 415.016 33.9883 415.016L33.9909 415.013Z" fill="#00005B"/>
<path d="M32.0579 424.125C32.0579 424.125 32.0501 424.469 32.0501 424.635C32.0266 426.762 33.6215 428.558 35.7315 428.828C41.6946 429.594 55.2209 430.432 66.7412 429.385C67.5295 429.312 68.9241 428.74 69.3143 426.77C69.434 426.166 69.3611 425.078 69.3611 425.078L68.5442 425.12C56.9016 425.695 45.2329 425.414 33.6319 424.284L32.0605 424.131L32.0579 424.125Z" fill="white"/>
<path d="M54.7343 430.46C46.9812 430.46 39.7511 429.929 35.656 429.404C33.239 429.094 31.4386 427.04 31.4646 424.625L31.4724 424.11C31.475 423.948 31.5479 423.792 31.6676 423.686C31.7898 423.576 31.9486 423.522 32.1125 423.54L33.6839 423.693C45.2173 424.818 56.9327 425.099 68.5103 424.526L69.3273 424.487C69.6421 424.472 69.9179 424.714 69.9387 425.031C69.9465 425.151 70.0141 426.215 69.884 426.876C69.4678 428.985 67.9588 429.854 66.7932 429.961C62.875 430.317 58.7357 430.458 54.7369 430.458L54.7343 430.46ZM32.6328 424.766C32.6744 426.53 34.0169 428.016 35.8043 428.245C41.9625 429.037 55.2677 429.836 66.6865 428.8C66.9623 428.774 68.3646 428.552 68.7393 426.653C68.7887 426.403 68.7991 426.017 68.7965 425.684L68.5702 425.695C56.9379 426.27 45.1626 425.986 33.5746 424.857L32.6354 424.766H32.6328Z" fill="#00005B"/>
<path d="M49.3906 421.458C49.2423 421.458 49.0914 421.4 48.9769 421.286C48.7479 421.057 48.7479 420.687 48.9769 420.461L53.4024 416.031C53.6287 415.802 54.0008 415.802 54.2271 416.031C54.4561 416.26 54.4561 416.63 54.2271 416.856L49.8016 421.286C49.6872 421.4 49.5389 421.458 49.388 421.458H49.3906Z" fill="#00005B"/>
<path d="M53.7378 421.918C53.5921 421.918 53.4465 421.864 53.332 421.754C53.1004 421.53 53.0926 421.161 53.3164 420.929L56.8521 417.254C57.0758 417.023 57.4453 417.015 57.6768 417.239C57.9084 417.463 57.9162 417.832 57.6924 418.064L54.1567 421.739C54.0422 421.858 53.8887 421.918 53.7352 421.918H53.7378Z" fill="#00005B"/>
<path d="M70.5552 254.404C70.5552 254.404 64.9954 257.631 62.8255 276.557C60.6557 295.484 61.379 317.796 46.2683 339.924C34.199 357.596 35.2605 387.42 33.5069 406.969C33.421 407.913 34.1469 408.731 35.0939 408.764L46.6637 409.16C47.4 409.186 48.0635 408.723 48.2898 408.02C50.3582 401.615 60.6401 370.711 72.1917 352.792C84.3989 333.855 99.2442 284.698 99.2442 284.698C99.2442 284.698 96.489 272.273 96.1066 260.366C95.7241 248.456 70.5552 254.404 70.5552 254.404Z" fill="#00005B"/>
<path d="M134.06 342.225L129.182 363.286L137.817 368.116L143.856 345.242L134.06 342.225Z" fill="white"/>
<path d="M137.817 368.702C137.718 368.702 137.619 368.676 137.531 368.626L128.896 363.796C128.669 363.668 128.552 363.408 128.612 363.156L133.49 342.095C133.527 341.936 133.628 341.801 133.769 341.72C133.909 341.639 134.076 341.621 134.232 341.668L144.027 344.684C144.327 344.776 144.501 345.088 144.42 345.392L138.382 368.27C138.335 368.444 138.213 368.587 138.046 368.658C137.973 368.689 137.895 368.704 137.817 368.704V368.702ZM129.851 362.992L137.445 367.242L143.148 345.634L134.487 342.969L129.848 362.992H129.851Z" fill="#00005B"/>
<path d="M128.147 362.042C127.858 364.079 126.029 367.939 125.99 371.325C125.967 373.452 127.561 375.247 129.671 375.518C135.635 376.283 150.524 377.038 162.047 375.992C162.835 375.919 164.23 375.346 164.62 373.376C165.924 366.76 154.419 365.139 141.808 360.342C141.314 360.155 140.755 360.266 140.375 360.633L139.014 361.95C137.653 363.27 135.635 363.642 133.891 362.9L129.755 361.136C129.05 360.836 128.253 361.287 128.147 362.044V362.042Z" fill="white"/>
<path d="M149.13 377.085C141.34 377.085 133.769 376.635 129.596 376.098C127.179 375.789 125.379 373.735 125.405 371.32C125.431 369.1 126.19 366.695 126.804 364.761C127.161 363.637 127.468 362.666 127.567 361.961C127.642 361.417 127.962 360.951 128.438 360.683C128.914 360.415 129.476 360.384 129.981 360.597L134.118 362.362C135.65 363.015 137.409 362.69 138.606 361.531L139.966 360.214C140.505 359.691 141.306 359.53 142.011 359.798C144.954 360.917 147.782 361.846 150.516 362.744C159.328 365.636 166.288 367.921 165.19 373.493C164.774 375.601 163.265 376.473 162.099 376.577C158.1 376.939 153.578 377.087 149.13 377.087V377.085ZM129.297 361.625C129.198 361.625 129.102 361.651 129.013 361.701C128.854 361.789 128.748 361.945 128.724 362.125C128.61 362.926 128.29 363.941 127.918 365.115C127.33 366.974 126.596 369.287 126.573 371.336C126.552 373.157 127.915 374.709 129.744 374.943C135.153 375.638 150.165 376.489 161.992 375.414C162.268 375.388 163.67 375.167 164.045 373.267C164.945 368.709 158.74 366.672 150.155 363.853C147.407 362.952 144.566 362.018 141.598 360.889C141.314 360.782 140.994 360.847 140.778 361.052L139.417 362.369C137.882 363.856 135.624 364.275 133.66 363.437L129.523 361.672C129.45 361.641 129.372 361.625 129.294 361.625H129.297Z" fill="#00005B"/>
<path d="M126.315 370.675C126.315 370.675 126.307 371.018 126.307 371.185C126.284 373.311 127.879 375.107 129.989 375.378C135.952 376.143 150.527 377.038 162.047 375.994C162.835 375.922 164.23 375.349 164.62 373.379C164.74 372.775 164.667 371.687 164.667 371.687L163.85 371.726C152.207 372.301 140.539 372.02 128.938 370.891L126.318 370.68L126.315 370.675Z" fill="white"/>
<path d="M150.238 377.054C141.608 377.054 133.522 376.419 129.913 375.955C127.496 375.646 125.696 373.592 125.722 371.177L125.73 370.661C125.732 370.5 125.803 370.349 125.922 370.24C126.042 370.131 126.198 370.076 126.362 370.091L128.982 370.302C140.528 371.427 152.244 371.708 163.819 371.138L164.636 371.099C164.964 371.091 165.226 371.325 165.247 371.643C165.255 371.762 165.323 372.827 165.192 373.488C164.776 375.596 163.267 376.468 162.102 376.572C158.288 376.918 154.205 377.054 150.24 377.054H150.238ZM126.89 371.307C126.927 373.077 128.272 374.568 130.062 374.797C135.291 375.469 149.975 376.502 161.995 375.411C162.271 375.385 163.673 375.164 164.048 373.264C164.097 373.012 164.108 372.629 164.105 372.296L163.879 372.306C152.249 372.879 140.474 372.598 128.88 371.468L126.893 371.307H126.89Z" fill="#00005B"/>
<path d="M144.699 368.069C144.551 368.069 144.4 368.012 144.285 367.897C144.057 367.668 144.057 367.299 144.285 367.072L148.711 362.643C148.937 362.414 149.309 362.414 149.536 362.643C149.765 362.872 149.765 363.241 149.536 363.468L145.11 367.897C144.996 368.012 144.847 368.069 144.697 368.069H144.699Z" fill="#00005B"/>
<path d="M149.044 368.527C148.898 368.527 148.752 368.473 148.638 368.363C148.406 368.14 148.398 367.77 148.622 367.538L152.158 363.863C152.382 363.632 152.751 363.624 152.982 363.848C153.214 364.072 153.222 364.441 152.998 364.673L149.462 368.348C149.348 368.467 149.194 368.527 149.041 368.527H149.044Z" fill="#00005B"/>
<path d="M89.9771 286.073C89.9771 286.073 117.253 294.19 146.265 278.606C147.121 278.145 148.032 279.129 147.514 279.951C146.054 282.262 141.879 287.939 139.701 293.852C137.019 301.134 131.357 338.808 129.492 350.53C129.323 351.589 130.121 352.555 131.193 352.589L142.347 352.951C143.052 352.974 143.702 352.581 144.009 351.943C148.034 343.555 176.682 277.747 175.68 265.452C174.595 252.158 157.057 252.837 150.73 252.431C144.184 252.012 91.983 253.227 91.983 253.227L89.9797 286.07L89.9771 286.073Z" fill="#00005B"/>
<path d="M13.7761 268.625C14.6737 267.552 15.8393 266.295 16.8383 265.306C18.1314 264.028 22.445 255.63 22.445 255.63L29.99 257.769C29.99 257.769 26.4621 263.94 27.3102 267.014C28.0985 269.877 28.7203 275.92 24.5316 280.321C24.0503 280.826 22.9992 280.959 22.6323 280.873C21.5396 280.618 21.5162 279.098 22.0522 278.111L23.5638 275.324C23.6964 275.079 23.4961 274.788 23.2203 274.827C22.0886 274.986 19.5988 275.712 16.9944 278.926C14.9911 281.399 11.0183 286.919 9.68105 286.005C7.29528 284.373 8.85371 274.488 13.7735 268.625H13.7761Z" fill="white"/>
<path d="M10.0163 286.692C9.77956 286.692 9.55841 286.627 9.35548 286.487C8.69204 286.031 8.26536 285.154 8.09105 283.881C7.5603 280.001 9.41271 272.921 13.3309 268.25C14.2311 267.175 15.3914 265.92 16.4321 264.892C17.4364 263.898 20.7406 257.678 21.9295 255.364C22.057 255.117 22.3406 254.994 22.6086 255.07L30.1509 257.209C30.3226 257.259 30.4631 257.384 30.5334 257.55C30.601 257.717 30.588 257.904 30.4996 258.06C29.5525 259.718 27.2344 264.533 27.877 266.86C28.2621 268.258 29.935 275.501 24.9605 280.724C24.2997 281.419 23.0118 281.562 22.5071 281.443C21.979 281.318 21.5627 280.971 21.3337 280.464C21.0059 279.73 21.0892 278.673 21.5471 277.833L22.8115 275.501C21.6798 275.774 19.614 276.63 17.4546 279.293C17.1554 279.66 16.8146 280.097 16.4451 280.568C13.6691 284.105 11.5071 286.692 10.0215 286.692H10.0163ZM22.7465 256.322C21.7864 258.172 18.4432 264.544 17.2517 265.723C16.25 266.712 15.0922 267.969 14.2259 268.999C10.6277 273.288 8.74668 280.074 9.24881 283.722C9.37369 284.631 9.64687 285.271 10.0163 285.524C10.8671 285.768 14.2545 281.466 15.5241 279.847C15.8988 279.371 16.2448 278.931 16.544 278.559C19.2368 275.238 21.8333 274.434 23.1419 274.249C23.488 274.199 23.8288 274.348 24.0265 274.634C24.2268 274.923 24.2477 275.292 24.0785 275.602L22.5669 278.39C22.2886 278.902 22.2157 279.587 22.3926 279.985C22.4707 280.162 22.5904 280.264 22.7673 280.305C22.9936 280.357 23.808 280.235 24.1098 279.917C28.6497 275.147 27.1043 268.461 26.7479 267.167C26.0064 264.481 28.2309 259.843 29.1285 258.131L22.7465 256.322Z" fill="#00005B"/>
<path d="M194.61 173.763L189.735 165.541C188.933 164.188 186.41 163.779 185.15 164.719C157.601 185.262 128.295 176.884 123.766 175.803C112.534 173.128 106.873 172.719 98.0062 172.181C85.0289 171.389 66.3616 178.898 53.8006 191.464C43.8074 201.46 26.7637 233.884 19.034 256.41C18.7088 257.358 19.1277 258.396 20.0148 258.859L27.7705 262.886C28.754 263.396 29.9612 263.024 30.4815 262.045C34.4283 254.607 51.5267 223.76 69.4187 213.576C70.7325 212.829 72.7124 213.62 72.637 215.13C72.3976 219.872 69.4577 237.447 68.5601 253.732C68.443 255.882 69.9234 257.787 72.0386 258.18L79.8671 259.632C93.5209 262.813 106.321 259.271 111.962 257.256C113.689 256.639 114.524 254.974 114.787 253.16C115.222 250.148 121.284 226.006 132.333 210.036C133.725 208.027 135.832 206.635 138.273 206.491C148.126 205.916 176.175 201.973 194.488 176.303C195.021 175.554 195.076 174.565 194.608 173.773L194.61 173.763Z" fill="white"/>
<path d="M28.6967 263.69C28.2934 263.69 27.885 263.596 27.5051 263.398L19.7494 259.372C18.5943 258.773 18.0635 257.446 18.485 256.218C26.4592 232.973 43.7476 200.693 53.3895 191.047C65.4952 178.937 84.277 170.754 98.0426 171.595C107.125 172.149 112.805 172.589 123.901 175.233C124.078 175.275 124.294 175.33 124.546 175.392C146.788 180.91 167.625 177.058 184.802 164.248C185.556 163.685 186.688 163.488 187.835 163.717C188.915 163.933 189.789 164.49 190.237 165.242L195.112 173.464C195.695 174.447 195.638 175.689 194.967 176.631C176.744 202.174 149.275 206.421 138.309 207.064C136.181 207.189 134.178 208.389 132.817 210.359C122.296 225.564 115.937 249.295 115.37 253.232C115.034 255.557 113.895 257.178 112.165 257.797C105.869 260.046 93.2815 263.346 79.7422 260.192L71.9397 258.745C69.5513 258.302 67.8498 256.129 67.9851 253.69C68.5627 243.21 69.965 232.346 70.9901 224.416C71.5416 220.142 71.9787 216.767 72.062 215.093C72.088 214.57 71.7237 214.263 71.5026 214.128C70.9692 213.8 70.2356 213.779 69.7126 214.075C52.276 223.999 35.6745 253.506 31.0018 262.313C30.5361 263.188 29.6307 263.69 28.6993 263.69H28.6967ZM96.0445 172.704C82.794 172.704 65.5447 180.535 54.2142 191.872C44.6686 201.421 27.5181 233.481 19.5881 256.595C19.3566 257.272 19.648 258.006 20.2854 258.336L28.0411 262.363C28.7357 262.724 29.6021 262.456 29.9689 261.767C34.678 252.889 51.4226 223.143 69.1324 213.063C70.0222 212.558 71.219 212.587 72.1114 213.136C72.8581 213.597 73.2639 214.331 73.2223 215.153C73.1365 216.871 72.6968 220.267 72.1426 224.567C71.1201 232.481 69.7204 243.319 69.1454 253.758C69.044 255.611 70.3344 257.261 72.1478 257.6L79.9763 259.052C93.2529 262.144 105.593 258.906 111.769 256.699C113.442 256.103 114.02 254.396 114.212 253.068C114.6 250.385 120.508 226.095 131.857 209.695C133.426 207.428 135.752 206.046 138.242 205.901C149.039 205.268 176.086 201.088 194.017 175.954C194.42 175.39 194.457 174.648 194.108 174.062L189.232 165.84C188.959 165.377 188.35 165.013 187.606 164.864C186.795 164.703 185.986 164.825 185.499 165.187C168.284 178.026 146.536 182.052 124.265 176.527C124.018 176.465 123.805 176.412 123.63 176.371C112.628 173.75 106.99 173.31 97.9698 172.761C97.3375 172.722 96.6949 172.704 96.0445 172.704Z" fill="#00005B"/>
<path d="M187.9 168.011C187.796 167.399 188.015 166.78 188.486 166.377C189.11 165.846 190.164 164.94 191.691 163.602C194.387 161.244 197.758 156.536 200.696 155.125C203.633 153.712 214.292 149.548 215.996 150.433C217.7 151.318 216.855 153.319 214.435 154.483C212.016 155.646 208.865 156.841 208.865 156.841C208.865 156.841 210.626 156.739 211.927 158.774C213.228 160.81 211.425 161.632 212.185 162.639C213.158 163.93 212.872 165.429 212.099 166.088C210.34 167.587 208.207 164.625 206.617 167.688C205.511 169.817 202.902 171.205 197.605 172.217C196.184 172.488 194.829 173.034 193.603 173.802C193.096 174.12 192.453 174.143 191.931 173.849C190.666 173.136 188.473 171.434 187.895 168.014L187.9 168.011Z" fill="white"/>
<path d="M192.727 174.637C192.355 174.637 191.982 174.544 191.649 174.356C190.299 173.594 187.942 171.769 187.325 168.11C187.188 167.295 187.489 166.462 188.109 165.934C188.733 165.403 189.781 164.5 191.309 163.165C192.263 162.329 193.307 161.189 194.412 159.982C196.408 157.801 198.474 155.547 200.446 154.6C201.702 153.996 214.022 148.746 216.269 149.915C217.06 150.326 217.49 150.979 217.479 151.757C217.461 152.947 216.394 154.191 214.693 155.008C213.366 155.646 211.813 156.296 210.676 156.757C211.251 157.077 211.878 157.603 212.424 158.459C213.324 159.867 212.965 160.875 212.726 161.538C212.552 162.028 212.541 162.132 212.656 162.285C213.819 163.826 213.47 165.687 212.481 166.53C211.516 167.353 210.457 167.131 209.606 166.954C208.511 166.725 207.85 166.587 207.14 167.956C205.915 170.317 203.097 171.761 197.719 172.789C196.387 173.045 195.11 173.549 193.918 174.296C193.554 174.525 193.14 174.64 192.727 174.64V174.637ZM188.475 167.915C189.011 171.098 191.054 172.678 192.222 173.339C192.552 173.526 192.966 173.513 193.299 173.305C194.613 172.482 196.026 171.923 197.498 171.642C202.486 170.689 205.059 169.424 206.102 167.418C207.221 165.265 208.737 165.58 209.843 165.812C210.681 165.986 211.219 166.072 211.724 165.64C212.216 165.221 212.554 164.089 211.724 162.988C211.209 162.306 211.441 161.663 211.625 161.145C211.833 160.562 212.031 160.013 211.438 159.087C210.353 157.39 208.959 157.418 208.896 157.421C208.615 157.431 208.358 157.233 208.3 156.952C208.243 156.671 208.394 156.393 208.662 156.291C208.693 156.278 211.818 155.091 214.185 153.954C215.64 153.254 216.301 152.338 216.308 151.737C216.308 151.617 216.316 151.253 215.728 150.948C214.49 150.305 204.814 153.793 200.948 155.651C199.179 156.502 197.191 158.673 195.268 160.77C194.142 162.001 193.075 163.165 192.074 164.042C190.541 165.382 189.487 166.288 188.86 166.822C188.548 167.087 188.403 167.496 188.473 167.915H188.475Z" fill="#00005B"/>
<path d="M116.681 149.894L102.106 174.06C101.909 174.336 99.7673 174.26 97.3555 174.505C96.229 174.619 95.0504 174.791 94.0748 174.95C93.2709 175.08 93.0445 176.126 93.7236 176.576L96.3331 178.305C101.802 181.928 108.296 183.801 114.842 183.359C116.66 183.237 118.403 182.943 119.954 182.458L125.535 180.702C126.372 180.439 126.365 179.249 125.527 178.994L118.419 176.839L124.421 164.097L116.681 149.894Z" fill="white"/>
<path d="M112.971 184.004C107.089 184.004 101.133 182.185 96.0105 178.791L93.401 177.063C92.8911 176.725 92.6439 176.121 92.774 175.522C92.9015 174.924 93.3776 174.473 93.9812 174.375C95.2118 174.174 96.3253 174.023 97.2958 173.924C98.2922 173.823 99.2497 173.776 100.02 173.737C100.675 173.703 101.412 173.667 101.7 173.609L116.182 149.592C116.288 149.412 116.478 149.308 116.694 149.311C116.902 149.316 117.095 149.431 117.194 149.615L124.934 163.818C125.022 163.982 125.027 164.177 124.949 164.346L119.236 176.477L125.699 178.437C126.331 178.63 126.742 179.182 126.747 179.843C126.75 180.504 126.344 181.061 125.714 181.259L120.134 183.015C118.586 183.497 116.819 183.809 114.886 183.939C114.251 183.984 113.614 184.004 112.974 184.004H112.971ZM116.658 151.068L102.608 174.362C102.299 174.794 101.739 174.82 100.08 174.903C99.3225 174.942 98.3807 174.989 97.4154 175.085C96.4684 175.181 95.3757 175.33 94.1711 175.525C93.9812 175.556 93.9292 175.704 93.9162 175.767C93.9031 175.829 93.8901 175.983 94.0488 176.09L96.6583 177.818C102.122 181.438 108.566 183.198 114.805 182.776C116.65 182.651 118.323 182.357 119.785 181.901L125.366 180.145C125.563 180.082 125.582 179.916 125.582 179.848C125.582 179.78 125.558 179.614 125.363 179.554L118.255 177.399C118.094 177.349 117.961 177.232 117.891 177.076C117.823 176.92 117.823 176.743 117.896 176.589L123.771 164.115L116.66 151.065L116.658 151.068Z" fill="#00005B"/>
<path d="M123.188 164.594C123.953 164.693 124.739 164.724 125.548 164.682L126.987 164.607C126.987 164.607 135.239 163.511 136.563 161.465C137.888 159.417 135.088 151.987 135.088 151.987C136.366 150.995 136.649 149.74 136.376 149.319C136.103 148.897 134.264 148.254 133.517 147.705C132.908 147.258 131.545 143.7 130.962 142.172C130.962 142.172 129.882 136.139 120.209 136.922C98.0478 138.718 113.981 159.235 113.981 159.235C114.324 159.633 114.678 160.016 115.042 160.38L123.185 164.596L123.188 164.594Z" fill="white"/>
<path d="M124.853 165.284C123.622 165.284 122.415 165.12 121.249 164.794C120.94 164.708 120.758 164.386 120.844 164.076C120.929 163.766 121.252 163.584 121.562 163.67C122.834 164.027 124.163 164.167 125.516 164.099L126.955 164.024C129.996 163.618 135.215 162.473 136.071 161.148C136.92 159.836 135.582 154.959 134.542 152.192C134.451 151.953 134.529 151.682 134.729 151.526C135.725 150.75 135.957 149.834 135.876 149.618C135.772 149.517 135.122 149.207 134.69 149.001C134.128 148.733 133.55 148.455 133.17 148.176C132.627 147.776 131.88 146.206 130.415 142.383C130.402 142.349 130.392 142.313 130.387 142.276C130.345 142.055 129.239 136.779 120.256 137.505C114.789 137.948 111.303 139.52 109.893 142.177C107.51 146.672 111.303 153.392 113.569 157.405L113.77 157.762C113.928 158.043 113.829 158.4 113.548 158.558C113.267 158.717 112.911 158.618 112.752 158.337L112.552 157.981C110.166 153.759 106.175 146.693 108.86 141.631C110.468 138.599 114.269 136.818 120.159 136.342C129.682 135.569 131.352 141.305 131.518 142.003C133.035 145.964 133.634 147.036 133.868 147.239C134.154 147.448 134.706 147.713 135.195 147.947C136.11 148.385 136.639 148.65 136.865 149.001C137.312 149.694 136.964 151.071 135.775 152.169C136.384 153.863 138.356 159.766 137.05 161.783C135.621 163.993 127.933 165.073 127.062 165.187L125.576 165.268C125.334 165.281 125.092 165.286 124.85 165.286L124.853 165.284Z" fill="#00005B"/>
<path d="M115.687 134.299C118.104 133.823 120.857 134.197 122.035 133.797C123.935 133.149 123.89 130.965 126.567 130.749C128.922 130.559 131.11 130.999 132.299 132.802C132.497 133.104 132.668 133.44 132.809 133.82C134.664 138.919 132.101 141.376 130.967 142.175C130.967 142.175 123.789 145.623 122.55 146.615C121.393 147.541 120.027 149.748 120.771 152.942C120.867 153.353 120.669 153.78 120.3 153.985C119.868 154.227 119.319 154.108 119.036 153.699C118.146 152.413 116.192 149.925 114.745 150.498C113.057 151.167 112.484 155.412 115.586 156.461C116.54 156.783 116.855 158.035 116.168 158.772C115.599 159.383 114.725 159.813 113.408 159.477C113.408 159.477 105.686 153.97 104.773 146.714C103.86 139.457 112.471 134.934 115.687 134.299Z" fill="#00005B"/>
<path d="M71.1978 457.607L70.2598 455.115H66.0598L65.1358 457.607H63.3578L67.2218 447.681H69.1678L73.0318 457.607H71.1978ZM68.1598 449.501L66.6478 453.561H69.6718L68.1598 449.501ZM75.8039 453.673V457.607H74.1799V450.789H75.7619V451.699C76.2099 450.915 77.0219 450.593 77.7779 450.593C79.4439 450.593 80.2419 451.797 80.2419 453.295V457.607H78.6179V453.575C78.6179 452.735 78.2399 452.063 77.2179 452.063C76.2939 452.063 75.8039 452.777 75.8039 453.673ZM81.7989 455.759C81.7989 454.541 82.6949 453.869 83.8569 453.701L85.6069 453.435C85.9989 453.379 86.1109 453.183 86.1109 452.945C86.1109 452.371 85.7189 451.909 84.8229 451.909C83.9689 451.909 83.4929 452.455 83.4229 453.141L81.9389 452.805C82.0649 451.629 83.1289 450.579 84.8089 450.579C86.9089 450.579 87.7069 451.769 87.7069 453.127V456.515C87.7069 457.131 87.7769 457.537 87.7909 457.607H86.2789C86.2649 457.565 86.2089 457.285 86.2089 456.739C85.8869 457.257 85.2149 457.817 84.1089 457.817C82.6809 457.817 81.7989 456.837 81.7989 455.759ZM84.4169 456.543C85.3269 456.543 86.1109 456.109 86.1109 454.779V454.471L84.3329 454.737C83.8289 454.821 83.4229 455.101 83.4229 455.661C83.4229 456.123 83.7729 456.543 84.4169 456.543ZM91.2941 457.607H89.6701V447.471H91.2941V457.607ZM95.4609 460.365H93.7249L95.3629 456.795L92.4509 450.789H94.2849L96.2449 455.101L98.0789 450.789H99.8009L95.4609 460.365ZM106.044 457.607H100.472V456.193L103.93 452.217H100.542V450.789H105.974V452.161L102.474 456.179H106.044V457.607ZM109.231 457.607H107.621V450.789H109.231V457.607ZM107.369 448.395C107.369 447.807 107.845 447.331 108.419 447.331C109.007 447.331 109.483 447.807 109.483 448.395C109.483 448.983 109.007 449.445 108.419 449.445C107.845 449.445 107.369 448.983 107.369 448.395ZM112.95 453.673V457.607H111.326V450.789H112.908V451.699C113.356 450.915 114.168 450.593 114.924 450.593C116.59 450.593 117.388 451.797 117.388 453.295V457.607H115.764V453.575C115.764 452.735 115.386 452.063 114.364 452.063C113.44 452.063 112.95 452.777 112.95 453.673ZM118.875 457.985L120.373 457.593C120.485 458.433 121.143 459.063 122.081 459.063C123.369 459.063 124.013 458.405 124.013 457.019V456.305C123.719 456.837 123.033 457.299 122.039 457.299C120.219 457.299 118.889 455.899 118.889 453.981C118.889 452.161 120.163 450.663 122.039 450.663C123.103 450.663 123.761 451.097 124.055 451.657V450.789H125.623V456.963C125.623 458.783 124.685 460.477 122.123 460.477C120.317 460.477 119.057 459.357 118.875 457.985ZM122.305 455.913C123.341 455.913 124.055 455.157 124.055 453.981C124.055 452.819 123.313 452.063 122.305 452.063C121.269 452.063 120.527 452.819 120.527 453.981C120.527 455.171 121.241 455.913 122.305 455.913Z" fill="white"/>
<path d="M163.527 404.352C161.455 404.352 159.831 403.078 159.831 400.684V394.216H161.497V400.586C161.497 401.986 162.267 402.756 163.527 402.756C164.801 402.756 165.557 401.986 165.557 400.586V394.216H167.237V400.684C167.237 403.078 165.613 404.352 163.527 404.352ZM171.208 404.142H169.5V394.216H171.208V404.142ZM180.644 404.352C178.572 404.352 176.948 403.078 176.948 400.684V394.216H178.614V400.586C178.614 401.986 179.384 402.756 180.644 402.756C181.918 402.756 182.674 401.986 182.674 400.586V394.216H184.354V400.684C184.354 403.078 182.73 404.352 180.644 404.352ZM194.233 394.216L190.929 399.186L194.219 404.142H192.203L189.893 400.516L187.555 404.142H185.581L188.899 399.172L185.609 394.216H187.625L189.935 397.856L192.259 394.216H194.233ZM200.793 402.602H202.557C204.279 402.602 205.707 401.496 205.707 399.2C205.707 396.876 204.293 395.756 202.571 395.756H200.793V402.602ZM202.613 404.142H199.113V394.216H202.627C205.329 394.216 207.457 396.008 207.457 399.2C207.457 402.378 205.301 404.142 202.613 404.142ZM210.238 399.984H213.584C213.556 399.186 213.024 398.472 211.904 398.472C210.882 398.472 210.294 399.256 210.238 399.984ZM213.766 401.762L215.138 402.196C214.774 403.386 213.696 404.352 212.058 404.352C210.21 404.352 208.572 403.008 208.572 400.698C208.572 398.542 210.168 397.114 211.89 397.114C213.99 397.114 215.222 398.5 215.222 400.656C215.222 400.922 215.194 401.146 215.18 401.174H210.196C210.238 402.21 211.05 402.952 212.058 402.952C213.038 402.952 213.542 402.434 213.766 401.762ZM216.172 402.294L217.586 401.902C217.642 402.518 218.104 403.064 218.972 403.064C219.644 403.064 219.994 402.7 219.994 402.28C219.994 401.916 219.742 401.636 219.196 401.524L218.188 401.3C216.984 401.034 216.354 400.25 216.354 399.312C216.354 398.122 217.446 397.114 218.86 397.114C220.764 397.114 221.38 398.346 221.492 399.018L220.12 399.41C220.064 399.018 219.77 398.388 218.86 398.388C218.286 398.388 217.88 398.752 217.88 399.172C217.88 399.536 218.146 399.802 218.566 399.886L219.602 400.096C220.89 400.376 221.562 401.16 221.562 402.168C221.562 403.204 220.722 404.352 218.986 404.352C217.012 404.352 216.256 403.064 216.172 402.294ZM224.782 404.142H223.172V397.324H224.782V404.142ZM222.92 394.93C222.92 394.342 223.396 393.866 223.97 393.866C224.558 393.866 225.034 394.342 225.034 394.93C225.034 395.518 224.558 395.98 223.97 395.98C223.396 395.98 222.92 395.518 222.92 394.93ZM226.387 404.52L227.885 404.128C227.997 404.968 228.655 405.598 229.593 405.598C230.881 405.598 231.525 404.94 231.525 403.554V402.84C231.231 403.372 230.545 403.834 229.551 403.834C227.731 403.834 226.401 402.434 226.401 400.516C226.401 398.696 227.675 397.198 229.551 397.198C230.615 397.198 231.273 397.632 231.567 398.192V397.324H233.135V403.498C233.135 405.318 232.197 407.012 229.635 407.012C227.829 407.012 226.569 405.892 226.387 404.52ZM229.817 402.448C230.853 402.448 231.567 401.692 231.567 400.516C231.567 399.354 230.825 398.598 229.817 398.598C228.781 398.598 228.039 399.354 228.039 400.516C228.039 401.706 228.753 402.448 229.817 402.448ZM236.745 400.208V404.142H235.121V397.324H236.703V398.234C237.151 397.45 237.963 397.128 238.719 397.128C240.385 397.128 241.183 398.332 241.183 399.83V404.142H239.559V400.11C239.559 399.27 239.181 398.598 238.159 398.598C237.235 398.598 236.745 399.312 236.745 400.208Z" fill="white"/>
<path d="M244.503 348.06L246.449 340.752H248.185L245.399 350.678H243.663L241.255 343.174L238.847 350.678H237.125L234.311 340.752H236.075L238.063 348.004L240.387 340.752H242.137L244.503 348.06ZM250.026 346.52H253.372C253.344 345.722 252.812 345.008 251.692 345.008C250.67 345.008 250.082 345.792 250.026 346.52ZM253.554 348.298L254.926 348.732C254.562 349.922 253.484 350.888 251.846 350.888C249.998 350.888 248.36 349.544 248.36 347.234C248.36 345.078 249.956 343.65 251.678 343.65C253.778 343.65 255.01 345.036 255.01 347.192C255.01 347.458 254.982 347.682 254.968 347.71H249.984C250.026 348.746 250.838 349.488 251.846 349.488C252.826 349.488 253.33 348.97 253.554 348.298ZM258.144 350.678H256.562V340.542H258.158V344.7C258.466 344.168 259.25 343.678 260.3 343.678C262.344 343.678 263.45 345.232 263.45 347.234C263.45 349.292 262.232 350.846 260.244 350.846C259.278 350.846 258.536 350.426 258.144 349.768V350.678ZM261.812 347.248C261.812 345.89 261.056 345.12 259.978 345.12C258.942 345.12 258.144 345.89 258.144 347.248C258.144 348.592 258.942 349.404 259.978 349.404C261.042 349.404 261.812 348.592 261.812 347.248ZM264.409 348.83L265.823 348.438C265.879 349.054 266.341 349.6 267.209 349.6C267.881 349.6 268.231 349.236 268.231 348.816C268.231 348.452 267.979 348.172 267.433 348.06L266.425 347.836C265.221 347.57 264.591 346.786 264.591 345.848C264.591 344.658 265.683 343.65 267.097 343.65C269.001 343.65 269.617 344.882 269.729 345.554L268.357 345.946C268.301 345.554 268.007 344.924 267.097 344.924C266.523 344.924 266.117 345.288 266.117 345.708C266.117 346.072 266.383 346.338 266.803 346.422L267.839 346.632C269.127 346.912 269.799 347.696 269.799 348.704C269.799 349.74 268.959 350.888 267.223 350.888C265.249 350.888 264.493 349.6 264.409 348.83ZM273.02 350.678H271.41V343.86H273.02V350.678ZM271.158 341.466C271.158 340.878 271.634 340.402 272.208 340.402C272.796 340.402 273.272 340.878 273.272 341.466C273.272 342.054 272.796 342.516 272.208 342.516C271.634 342.516 271.158 342.054 271.158 341.466ZM277.173 341.774V343.86H278.587V345.302H277.173V348.466C277.173 349.068 277.439 349.32 278.041 349.32C278.265 349.32 278.531 349.278 278.601 349.264V350.608C278.503 350.65 278.195 350.762 277.607 350.762C276.347 350.762 275.563 350.006 275.563 348.732V345.302H274.303V343.86H274.653C275.381 343.86 275.703 343.398 275.703 342.796V341.774H277.173ZM281.321 346.52H284.667C284.639 345.722 284.107 345.008 282.987 345.008C281.965 345.008 281.377 345.792 281.321 346.52ZM284.849 348.298L286.221 348.732C285.857 349.922 284.779 350.888 283.141 350.888C281.293 350.888 279.655 349.544 279.655 347.234C279.655 345.078 281.251 343.65 282.973 343.65C285.073 343.65 286.305 345.036 286.305 347.192C286.305 347.458 286.277 347.682 286.263 347.71H281.279C281.321 348.746 282.133 349.488 283.141 349.488C284.121 349.488 284.625 348.97 284.849 348.298ZM293.15 349.138H294.914C296.636 349.138 298.064 348.032 298.064 345.736C298.064 343.412 296.65 342.292 294.928 342.292H293.15V349.138ZM294.97 350.678H291.47V340.752H294.984C297.686 340.752 299.814 342.544 299.814 345.736C299.814 348.914 297.658 350.678 294.97 350.678ZM302.595 346.52H305.941C305.913 345.722 305.381 345.008 304.261 345.008C303.239 345.008 302.651 345.792 302.595 346.52ZM306.123 348.298L307.495 348.732C307.131 349.922 306.053 350.888 304.415 350.888C302.567 350.888 300.929 349.544 300.929 347.234C300.929 345.078 302.525 343.65 304.247 343.65C306.347 343.65 307.579 345.036 307.579 347.192C307.579 347.458 307.551 347.682 307.537 347.71H302.553C302.595 348.746 303.407 349.488 304.415 349.488C305.395 349.488 305.899 348.97 306.123 348.298ZM315.154 343.86L312.48 350.678H310.856L308.084 343.86H309.876L311.682 348.732L313.446 343.86H315.154ZM317.278 346.52H320.624C320.596 345.722 320.064 345.008 318.944 345.008C317.922 345.008 317.334 345.792 317.278 346.52ZM320.806 348.298L322.178 348.732C321.814 349.922 320.736 350.888 319.098 350.888C317.25 350.888 315.612 349.544 315.612 347.234C315.612 345.078 317.208 343.65 318.93 343.65C321.03 343.65 322.262 345.036 322.262 347.192C322.262 347.458 322.234 347.682 322.22 347.71H317.236C317.278 348.746 318.09 349.488 319.098 349.488C320.078 349.488 320.582 348.97 320.806 348.298ZM325.438 350.678H323.814V340.542H325.438V350.678ZM330.529 349.432C331.537 349.432 332.433 348.69 332.433 347.262C332.433 345.848 331.537 345.12 330.529 345.12C329.535 345.12 328.625 345.848 328.625 347.262C328.625 348.676 329.535 349.432 330.529 349.432ZM330.529 343.65C332.573 343.65 334.071 345.176 334.071 347.262C334.071 349.362 332.573 350.888 330.529 350.888C328.499 350.888 327.001 349.362 327.001 347.262C327.001 345.176 328.499 343.65 330.529 343.65ZM337.25 353.338H335.64V343.86H337.208V344.784C337.544 344.196 338.328 343.706 339.378 343.706C341.394 343.706 342.528 345.246 342.528 347.262C342.528 349.306 341.282 350.846 339.322 350.846C338.342 350.846 337.6 350.426 337.25 349.908V353.338ZM340.904 347.262C340.904 345.988 340.162 345.148 339.07 345.148C338.006 345.148 337.236 345.988 337.236 347.262C337.236 348.564 338.006 349.404 339.07 349.404C340.148 349.404 340.904 348.564 340.904 347.262ZM345.7 350.678H344.09V343.86H345.644V344.728C346.036 344.028 346.89 343.664 347.66 343.664C348.556 343.664 349.34 344.07 349.704 344.868C350.236 343.972 351.034 343.664 351.916 343.664C353.148 343.664 354.324 344.448 354.324 346.254V350.678H352.756V346.52C352.756 345.722 352.35 345.12 351.44 345.12C350.586 345.12 350.026 345.792 350.026 346.632V350.678H348.43V346.52C348.43 345.736 348.038 345.12 347.114 345.12C346.246 345.12 345.7 345.764 345.7 346.632V350.678ZM357.446 346.52H360.792C360.764 345.722 360.232 345.008 359.112 345.008C358.09 345.008 357.502 345.792 357.446 346.52ZM360.974 348.298L362.346 348.732C361.982 349.922 360.904 350.888 359.266 350.888C357.418 350.888 355.78 349.544 355.78 347.234C355.78 345.078 357.376 343.65 359.098 343.65C361.198 343.65 362.43 345.036 362.43 347.192C362.43 347.458 362.402 347.682 362.388 347.71H357.404C357.446 348.746 358.258 349.488 359.266 349.488C360.246 349.488 360.75 348.97 360.974 348.298ZM365.606 346.744V350.678H363.982V343.86H365.564V344.77C366.012 343.986 366.824 343.664 367.58 343.664C369.246 343.664 370.044 344.868 370.044 346.366V350.678H368.42V346.646C368.42 345.806 368.042 345.134 367.02 345.134C366.096 345.134 365.606 345.848 365.606 346.744ZM374.079 341.774V343.86H375.493V345.302H374.079V348.466C374.079 349.068 374.345 349.32 374.947 349.32C375.171 349.32 375.437 349.278 375.507 349.264V350.608C375.409 350.65 375.101 350.762 374.513 350.762C373.253 350.762 372.469 350.006 372.469 348.732V345.302H371.209V343.86H371.559C372.287 343.86 372.609 343.398 372.609 342.796V341.774H374.079Z" fill="white"/>
<path d="M363.211 291.851H364.961C366.025 291.851 366.669 291.263 366.669 290.325C366.669 289.373 366.025 288.771 364.961 288.771H363.211V291.851ZM365.213 293.335H363.211V297.213H361.531V287.287H365.213C367.117 287.287 368.377 288.575 368.377 290.311C368.377 292.061 367.117 293.335 365.213 293.335ZM373.625 290.353V292.005C373.443 291.977 373.261 291.963 373.093 291.963C371.833 291.963 371.259 292.691 371.259 293.965V297.213H369.635V290.395H371.217V291.487C371.539 290.745 372.295 290.311 373.191 290.311C373.387 290.311 373.555 290.339 373.625 290.353ZM377.909 295.967C378.917 295.967 379.813 295.225 379.813 293.797C379.813 292.383 378.917 291.655 377.909 291.655C376.915 291.655 376.005 292.383 376.005 293.797C376.005 295.211 376.915 295.967 377.909 295.967ZM377.909 290.185C379.953 290.185 381.451 291.711 381.451 293.797C381.451 295.897 379.953 297.423 377.909 297.423C375.879 297.423 374.381 295.897 374.381 293.797C374.381 291.711 375.879 290.185 377.909 290.185ZM384.112 293.783C384.112 295.085 384.84 295.953 385.946 295.953C387.01 295.953 387.752 295.071 387.752 293.769C387.752 292.467 387.024 291.655 385.96 291.655C384.896 291.655 384.112 292.481 384.112 293.783ZM389.32 287.077V295.967C389.32 296.583 389.376 297.101 389.39 297.213H387.836C387.808 297.059 387.766 296.611 387.766 296.331C387.444 296.905 386.73 297.381 385.764 297.381C383.804 297.381 382.488 295.841 382.488 293.783C382.488 291.823 383.818 290.213 385.736 290.213C386.926 290.213 387.528 290.759 387.738 291.193V287.077H389.32ZM395.839 296.457C395.503 297.073 394.705 297.409 393.907 297.409C392.283 297.409 391.331 296.205 391.331 294.693V290.395H392.955V294.399C392.955 295.239 393.347 295.953 394.327 295.953C395.265 295.953 395.755 295.323 395.755 294.427V290.395H397.379V295.967C397.379 296.527 397.421 296.961 397.449 297.213H395.895C395.867 297.059 395.839 296.737 395.839 296.457ZM402.408 291.683C401.414 291.683 400.532 292.425 400.532 293.797C400.532 295.169 401.414 295.939 402.436 295.939C403.5 295.939 403.99 295.197 404.144 294.679L405.572 295.197C405.25 296.261 404.228 297.423 402.436 297.423C400.434 297.423 398.908 295.869 398.908 293.797C398.908 291.697 400.434 290.185 402.394 290.185C404.228 290.185 405.236 291.333 405.516 292.425L404.06 292.957C403.906 292.355 403.444 291.683 402.408 291.683ZM409.072 288.309V290.395H410.486V291.837H409.072V295.001C409.072 295.603 409.338 295.855 409.94 295.855C410.164 295.855 410.43 295.813 410.5 295.799V297.143C410.402 297.185 410.094 297.297 409.506 297.297C408.246 297.297 407.462 296.541 407.462 295.267V291.837H406.202V290.395H406.552C407.28 290.395 407.602 289.933 407.602 289.331V288.309H409.072ZM422.866 288.869H419.632V297.213H417.952V288.869H414.732V287.287H422.866V288.869ZM423.912 293.055H427.258C427.23 292.257 426.698 291.543 425.578 291.543C424.556 291.543 423.968 292.327 423.912 293.055ZM427.44 294.833L428.812 295.267C428.448 296.457 427.37 297.423 425.732 297.423C423.884 297.423 422.246 296.079 422.246 293.769C422.246 291.613 423.842 290.185 425.564 290.185C427.664 290.185 428.896 291.571 428.896 293.727C428.896 293.993 428.868 294.217 428.854 294.245H423.87C423.912 295.281 424.724 296.023 425.732 296.023C426.712 296.023 427.216 295.505 427.44 294.833ZM429.846 295.365L431.26 294.973C431.316 295.589 431.778 296.135 432.646 296.135C433.318 296.135 433.668 295.771 433.668 295.351C433.668 294.987 433.416 294.707 432.87 294.595L431.862 294.371C430.658 294.105 430.028 293.321 430.028 292.383C430.028 291.193 431.12 290.185 432.534 290.185C434.438 290.185 435.054 291.417 435.166 292.089L433.794 292.481C433.738 292.089 433.444 291.459 432.534 291.459C431.96 291.459 431.554 291.823 431.554 292.243C431.554 292.607 431.82 292.873 432.24 292.957L433.276 293.167C434.564 293.447 435.236 294.231 435.236 295.239C435.236 296.275 434.396 297.423 432.66 297.423C430.686 297.423 429.93 296.135 429.846 295.365ZM438.904 288.309V290.395H440.318V291.837H438.904V295.001C438.904 295.603 439.17 295.855 439.772 295.855C439.996 295.855 440.262 295.813 440.332 295.799V297.143C440.234 297.185 439.926 297.297 439.338 297.297C438.078 297.297 437.294 296.541 437.294 295.267V291.837H436.034V290.395H436.384C437.112 290.395 437.434 289.933 437.434 289.331V288.309H438.904ZM443.597 297.213H441.987V290.395H443.597V297.213ZM441.735 288.001C441.735 287.413 442.211 286.937 442.785 286.937C443.373 286.937 443.849 287.413 443.849 288.001C443.849 288.589 443.373 289.051 442.785 289.051C442.211 289.051 441.735 288.589 441.735 288.001ZM447.316 293.279V297.213H445.692V290.395H447.274V291.305C447.722 290.521 448.534 290.199 449.29 290.199C450.956 290.199 451.754 291.403 451.754 292.901V297.213H450.13V293.181C450.13 292.341 449.752 291.669 448.73 291.669C447.806 291.669 447.316 292.383 447.316 293.279ZM453.241 297.591L454.739 297.199C454.851 298.039 455.509 298.669 456.447 298.669C457.735 298.669 458.379 298.011 458.379 296.625V295.911C458.085 296.443 457.399 296.905 456.405 296.905C454.585 296.905 453.255 295.505 453.255 293.587C453.255 291.767 454.529 290.269 456.405 290.269C457.469 290.269 458.127 290.703 458.421 291.263V290.395H459.989V296.569C459.989 298.389 459.051 300.083 456.489 300.083C454.683 300.083 453.423 298.963 453.241 297.591ZM456.671 295.519C457.707 295.519 458.421 294.763 458.421 293.587C458.421 292.425 457.679 291.669 456.671 291.669C455.635 291.669 454.893 292.425 454.893 293.587C454.893 294.777 455.607 295.519 456.671 295.519Z" fill="white"/>
<path d="M462.353 243.958C459.679 243.958 457.341 242.026 457.341 238.792C457.341 235.558 459.763 233.612 462.339 233.612C464.859 233.612 466.357 235.096 466.805 236.832L465.223 237.364C464.929 236.16 464.005 235.194 462.339 235.194C460.701 235.194 459.063 236.384 459.063 238.792C459.063 241.116 460.659 242.348 462.353 242.348C464.019 242.348 464.971 241.284 465.307 240.164L466.847 240.668C466.399 242.348 464.887 243.958 462.353 243.958ZM469.9 243.748H468.276V233.612H469.9V243.748ZM473.604 243.748H471.994V236.93H473.604V243.748ZM471.742 234.536C471.742 233.948 472.218 233.472 472.792 233.472C473.38 233.472 473.856 233.948 473.856 234.536C473.856 235.124 473.38 235.586 472.792 235.586C472.218 235.586 471.742 235.124 471.742 234.536ZM476.833 239.59H480.179C480.151 238.792 479.619 238.078 478.499 238.078C477.477 238.078 476.889 238.862 476.833 239.59ZM480.361 241.368L481.733 241.802C481.369 242.992 480.291 243.958 478.653 243.958C476.805 243.958 475.167 242.614 475.167 240.304C475.167 238.148 476.763 236.72 478.485 236.72C480.585 236.72 481.817 238.106 481.817 240.262C481.817 240.528 481.789 240.752 481.775 240.78H476.791C476.833 241.816 477.645 242.558 478.653 242.558C479.633 242.558 480.137 242.04 480.361 241.368ZM484.993 239.814V243.748H483.369V236.93H484.951V237.84C485.399 237.056 486.211 236.734 486.967 236.734C488.633 236.734 489.431 237.938 489.431 239.436V243.748H487.807V239.716C487.807 238.876 487.429 238.204 486.407 238.204C485.483 238.204 484.993 238.918 484.993 239.814ZM493.466 234.844V236.93H494.88V238.372H493.466V241.536C493.466 242.138 493.732 242.39 494.334 242.39C494.558 242.39 494.824 242.348 494.894 242.334V243.678C494.796 243.72 494.488 243.832 493.9 243.832C492.64 243.832 491.856 243.076 491.856 241.802V238.372H490.596V236.93H490.946C491.674 236.93 491.996 236.468 491.996 235.866V234.844H493.466ZM506.658 236.146L505.146 236.622C505.048 236.006 504.53 235.096 503.2 235.096C502.192 235.096 501.492 235.768 501.492 236.524C501.492 237.154 501.884 237.63 502.654 237.798L504.082 238.092C505.832 238.442 506.77 239.548 506.77 240.948C506.77 242.488 505.524 243.958 503.256 243.958C500.736 243.958 499.574 242.334 499.42 240.906L500.988 240.458C501.086 241.494 501.828 242.446 503.256 242.446C504.446 242.446 505.062 241.844 505.062 241.074C505.062 240.43 504.586 239.912 503.732 239.73L502.332 239.436C500.82 239.128 499.812 238.134 499.812 236.65C499.812 234.984 501.338 233.612 503.186 233.612C505.524 233.612 506.434 235.04 506.658 236.146ZM507.914 241.9C507.914 240.682 508.81 240.01 509.972 239.842L511.722 239.576C512.114 239.52 512.226 239.324 512.226 239.086C512.226 238.512 511.834 238.05 510.938 238.05C510.084 238.05 509.608 238.596 509.538 239.282L508.054 238.946C508.18 237.77 509.244 236.72 510.924 236.72C513.024 236.72 513.822 237.91 513.822 239.268V242.656C513.822 243.272 513.892 243.678 513.906 243.748H512.394C512.38 243.706 512.324 243.426 512.324 242.88C512.002 243.398 511.33 243.958 510.224 243.958C508.796 243.958 507.914 242.978 507.914 241.9ZM510.532 242.684C511.442 242.684 512.226 242.25 512.226 240.92V240.612L510.448 240.878C509.944 240.962 509.538 241.242 509.538 241.802C509.538 242.264 509.888 242.684 510.532 242.684ZM517.816 234.844V236.93H519.23V238.372H517.816V241.536C517.816 242.138 518.082 242.39 518.684 242.39C518.908 242.39 519.174 242.348 519.244 242.334V243.678C519.146 243.72 518.838 243.832 518.25 243.832C516.99 243.832 516.206 243.076 516.206 241.802V238.372H514.946V236.93H515.296C516.024 236.93 516.346 236.468 516.346 235.866V234.844H517.816ZM522.509 243.748H520.899V236.93H522.509V243.748ZM520.647 234.536C520.647 233.948 521.123 233.472 521.697 233.472C522.285 233.472 522.761 233.948 522.761 234.536C522.761 235.124 522.285 235.586 521.697 235.586C521.123 235.586 520.647 235.124 520.647 234.536ZM524.002 241.9L525.416 241.508C525.472 242.124 525.934 242.67 526.802 242.67C527.474 242.67 527.824 242.306 527.824 241.886C527.824 241.522 527.572 241.242 527.026 241.13L526.018 240.906C524.814 240.64 524.184 239.856 524.184 238.918C524.184 237.728 525.276 236.72 526.69 236.72C528.594 236.72 529.21 237.952 529.322 238.624L527.95 239.016C527.894 238.624 527.6 237.994 526.69 237.994C526.116 237.994 525.71 238.358 525.71 238.778C525.71 239.142 525.976 239.408 526.396 239.492L527.432 239.702C528.72 239.982 529.392 240.766 529.392 241.774C529.392 242.81 528.552 243.958 526.816 243.958C524.842 243.958 524.086 242.67 524.002 241.9ZM533.76 233.542C534.166 233.542 534.502 233.626 534.614 233.682V235.068C534.516 235.04 534.334 234.998 534.026 234.998C533.606 234.998 533.018 235.194 533.018 236.034V236.93H537.554V243.748H535.958V238.344H533.018V243.748H531.38V238.344H530.19V236.93H531.38V235.992C531.38 234.466 532.36 233.542 533.76 233.542ZM535.706 234.522C535.706 233.934 536.168 233.458 536.756 233.458C537.344 233.458 537.82 233.934 537.82 234.522C537.82 235.096 537.344 235.572 536.756 235.572C536.168 235.572 535.706 235.096 535.706 234.522ZM542.638 238.218C541.644 238.218 540.762 238.96 540.762 240.332C540.762 241.704 541.644 242.474 542.666 242.474C543.73 242.474 544.22 241.732 544.374 241.214L545.802 241.732C545.48 242.796 544.458 243.958 542.666 243.958C540.664 243.958 539.138 242.404 539.138 240.332C539.138 238.232 540.664 236.72 542.624 236.72C544.458 236.72 545.466 237.868 545.746 238.96L544.29 239.492C544.136 238.89 543.674 238.218 542.638 238.218ZM546.783 241.9C546.783 240.682 547.679 240.01 548.841 239.842L550.591 239.576C550.983 239.52 551.095 239.324 551.095 239.086C551.095 238.512 550.703 238.05 549.807 238.05C548.953 238.05 548.477 238.596 548.407 239.282L546.923 238.946C547.049 237.77 548.113 236.72 549.793 236.72C551.893 236.72 552.691 237.91 552.691 239.268V242.656C552.691 243.272 552.761 243.678 552.775 243.748H551.263C551.249 243.706 551.193 243.426 551.193 242.88C550.871 243.398 550.199 243.958 549.093 243.958C547.665 243.958 546.783 242.978 546.783 241.9ZM549.401 242.684C550.311 242.684 551.095 242.25 551.095 240.92V240.612L549.317 240.878C548.813 240.962 548.407 241.242 548.407 241.802C548.407 242.264 548.757 242.684 549.401 242.684ZM556.685 234.844V236.93H558.099V238.372H556.685V241.536C556.685 242.138 556.951 242.39 557.553 242.39C557.777 242.39 558.043 242.348 558.113 242.334V243.678C558.015 243.72 557.707 243.832 557.119 243.832C555.859 243.832 555.075 243.076 555.075 241.802V238.372H553.815V236.93H554.165C554.893 236.93 555.215 236.468 555.215 235.866V234.844H556.685ZM561.378 243.748H559.768V236.93H561.378V243.748ZM559.516 234.536C559.516 233.948 559.992 233.472 560.566 233.472C561.154 233.472 561.63 233.948 561.63 234.536C561.63 235.124 561.154 235.586 560.566 235.586C559.992 235.586 559.516 235.124 559.516 234.536ZM566.469 242.502C567.477 242.502 568.373 241.76 568.373 240.332C568.373 238.918 567.477 238.19 566.469 238.19C565.475 238.19 564.565 238.918 564.565 240.332C564.565 241.746 565.475 242.502 566.469 242.502ZM566.469 236.72C568.513 236.72 570.011 238.246 570.011 240.332C570.011 242.432 568.513 243.958 566.469 243.958C564.439 243.958 562.941 242.432 562.941 240.332C562.941 238.246 564.439 236.72 566.469 236.72ZM573.204 239.814V243.748H571.58V236.93H573.162V237.84C573.61 237.056 574.422 236.734 575.178 236.734C576.844 236.734 577.642 237.938 577.642 239.436V243.748H576.018V239.716C576.018 238.876 575.64 238.204 574.618 238.204C573.694 238.204 573.204 238.918 573.204 239.814Z" fill="white"/>
<path d="M214.001 96.736C213.886 96.736 213.772 96.6944 213.683 96.6111C213.494 96.4362 213.484 96.1406 213.66 95.9512C242.004 65.4687 269.527 52.6633 287.625 47.29C307.262 41.4588 320.388 42.8724 320.519 42.8869C320.774 42.9161 320.957 43.1472 320.928 43.4032C320.899 43.6593 320.666 43.8425 320.413 43.8134C320.284 43.7988 307.306 42.4081 287.835 48.1998C269.861 53.546 242.521 66.2807 214.341 96.5882C214.25 96.6861 214.125 96.736 214.001 96.736Z" fill="#00005B" fill-opacity="0.2"/>
<path d="M220.794 77.6788C220.666 77.6788 220.539 77.6268 220.446 77.5227C220.275 77.3291 220.292 77.0356 220.485 76.8628C251.493 49.2429 279.685 39.0501 297.875 35.3632C317.618 31.3598 330.206 33.9454 330.33 33.9725C330.582 34.0266 330.744 34.2744 330.69 34.5263C330.636 34.7782 330.391 34.9385 330.137 34.8864C330.015 34.8594 317.57 32.3133 298.001 36.2917C279.936 39.9641 251.931 50.1027 221.102 77.5623C221.012 77.6414 220.902 77.6809 220.792 77.6809L220.794 77.6788Z" fill="#00005B" fill-opacity="0.2"/>
<path d="M344.896 28.5243C344.844 28.5243 344.792 28.5243 344.74 28.5202C343.429 28.4452 342.676 27.4459 341.947 26.4779C341.259 25.566 340.609 24.7062 339.521 24.5292C338.216 24.319 337.161 25.2641 336.046 26.2634C334.821 27.3606 333.558 28.4973 331.82 28.237C330.283 28.008 329.439 26.811 328.694 25.7575C327.979 24.7478 327.365 23.8735 326.287 23.8381C325.373 23.8068 324.648 24.3981 323.888 25.0226C322.995 25.7555 321.983 26.584 320.586 26.2967C319.855 26.1468 319.4 25.7721 318.999 25.4411C318.604 25.1163 318.293 24.8582 317.755 24.8311C316.897 24.7874 315.971 25.3557 315.011 26.5195C314.847 26.7173 314.554 26.7464 314.355 26.582C314.158 26.4175 314.128 26.1239 314.293 25.9241C315.451 24.5209 316.627 23.836 317.803 23.8984C318.646 23.9422 319.148 24.3544 319.591 24.7187C319.954 25.0185 320.268 25.2766 320.773 25.3807C321.736 25.5785 322.459 24.9852 323.298 24.2982C324.12 23.6236 325.055 22.8575 326.318 22.9033C327.857 22.9554 328.669 24.1046 329.454 25.2163C330.154 26.2072 330.814 27.142 331.957 27.3127C333.259 27.5063 334.312 26.5653 335.425 25.5681C336.655 24.4668 337.928 23.328 339.668 23.6091C341.126 23.8443 341.957 24.9456 342.688 25.9158C343.344 26.786 343.911 27.5375 344.792 27.5896C346.032 27.6645 347.471 26.3113 348.952 23.6861C349.079 23.4613 349.363 23.3822 349.587 23.5091C349.812 23.6361 349.891 23.9213 349.764 24.1462C348.102 27.092 346.507 28.5264 344.896 28.5264V28.5243Z" fill="#00005B" fill-opacity="0.2"/>
<path d="M579.533 160.641C579.51 160.641 579.487 160.641 579.464 160.637C579.209 160.599 579.035 160.362 579.072 160.106L579.606 156.523C579.643 156.267 579.884 156.094 580.135 156.13C580.391 156.167 580.565 156.404 580.528 156.66L579.994 160.243C579.959 160.474 579.761 160.641 579.533 160.641Z" fill="#00005B"/>
<path d="M578.291 168.985C578.268 168.985 578.245 168.985 578.222 168.981C577.967 168.943 577.792 168.704 577.83 168.45L578.364 164.867C578.401 164.611 578.64 164.436 578.893 164.474C579.149 164.511 579.323 164.748 579.286 165.004L578.752 168.587C578.717 168.818 578.519 168.985 578.291 168.985Z" fill="#00005B"/>
<path d="M576.802 162.667C576.779 162.667 576.756 162.667 576.733 162.662L573.159 162.127C572.903 162.09 572.729 161.853 572.766 161.597C572.804 161.341 573.043 161.166 573.296 161.203L576.87 161.738C577.126 161.776 577.3 162.013 577.263 162.269C577.227 162.5 577.03 162.667 576.802 162.667Z" fill="#00005B"/>
<path d="M585.128 163.912C585.105 163.912 585.083 163.912 585.06 163.907L581.485 163.372C581.23 163.335 581.056 163.098 581.093 162.842C581.13 162.585 581.369 162.411 581.623 162.448L585.197 162.983C585.452 163.021 585.627 163.26 585.589 163.514C585.554 163.745 585.357 163.912 585.128 163.912Z" fill="#00005B"/>
<path d="M337.239 52.7128C336.188 52.7128 335.166 52.363 334.31 51.6989C332.213 50.0688 331.783 47.0335 333.355 44.9329C334.111 43.9211 335.216 43.2716 336.464 43.103C337.737 42.9322 339.004 43.2757 340.032 44.0752C342.132 45.7053 342.56 48.7406 340.988 50.8412C340.232 51.853 339.127 52.5025 337.878 52.6711C337.665 52.7003 337.451 52.7149 337.239 52.7149V52.7128ZM334.101 45.4908C332.832 47.1875 333.183 49.64 334.882 50.9599C335.71 51.6031 336.73 51.8842 337.754 51.7447C338.753 51.6094 339.638 51.0889 340.242 50.2791C341.511 48.5824 341.16 46.13 339.461 44.8101C338.632 44.1668 337.611 43.8878 336.589 44.0252C335.59 44.1605 334.705 44.681 334.101 45.4908Z" fill="#00005B" fill-opacity="0.2"/>
</g>
<defs>
<filter id="filter0_d_166_2421" x="0" y="0" width="616" height="486.284" filterUnits="userSpaceOnUse" color-interpolation-filters="sRGB">
<feFlood flood-opacity="0" result="BackgroundImageFix"/>
<feColorMatrix in="SourceAlpha" type="matrix" values="0 0 0 0 0 0 0 0 0 0 0 0 0 0 0 0 0 0 127 0" result="hardAlpha"/>
<feOffset dx="2" dy="2"/>
<feGaussianBlur stdDeviation="5"/>
<feComposite in2="hardAlpha" operator="out"/>
<feColorMatrix type="matrix" values="0 0 0 0 0 0 0 0 0 0 0 0 0 0 0.356863 0 0 0 0.2 0"/>
<feBlend mode="normal" in2="BackgroundImageFix" result="effect1_dropShadow_166_2421"/>
<feBlend mode="normal" in="SourceGraphic" in2="effect1_dropShadow_166_2421" result="shape"/>
</filter>
</defs>
</svg>
