<svg width="616" height="487" viewBox="0 0 616 487" fill="none" xmlns="http://www.w3.org/2000/svg">
<g filter="url(#filter0_d_697_5937)">
<rect width="175.294" height="43.8235" transform="matrix(-1 0 0 1 604 216.601)" fill="#00C485"/>
<rect width="175.294" height="43.8235" transform="matrix(-1 0 0 1 498.824 270.066)" fill="#00C485"/>
<rect width="175.294" height="43.8235" transform="matrix(-1 0 0 1 393.648 323.531)" fill="#00C485"/>
<rect width="175.294" height="43.8235" transform="matrix(-1 0 0 1 288.469 376.995)" fill="#00C485"/>
<rect width="175.294" height="43.8235" transform="matrix(-1 0 0 1 183.293 430.46)" fill="#00C485"/>
<path d="M517.516 164.909H527.891V192.643H517.516V164.909Z" fill="white"/>
<path d="M517.519 192.943H527.893C528.058 192.943 528.191 192.81 528.191 192.644V164.91C528.191 164.744 528.058 164.611 527.893 164.611H517.519C517.354 164.611 517.221 164.744 517.221 164.91V192.644C517.221 192.81 517.354 192.943 517.519 192.943ZM527.594 192.344H517.817V165.207H527.594V192.344Z" fill="url(#paint0_linear_697_5937)"/>
<path d="M515.332 185.289H530.191C531.296 185.289 532.191 186.187 532.191 187.294V191.057C532.191 192.165 531.296 193.063 530.191 193.063H515.332C514.227 193.063 513.332 192.165 513.332 191.057V187.294C513.332 186.187 514.227 185.289 515.332 185.289Z" fill="white"/>
<path d="M515.331 193.362H530.19C531.457 193.362 532.488 192.328 532.488 191.057V187.294C532.488 186.024 531.457 184.99 530.19 184.99H515.331C514.064 184.99 513.032 186.024 513.032 187.294V191.057C513.032 192.328 514.064 193.362 515.331 193.362ZM530.19 185.587C531.128 185.587 531.891 186.352 531.891 187.293V191.056C531.891 191.997 531.128 192.761 530.19 192.761H515.331C514.392 192.761 513.63 191.997 513.63 191.056V187.293C513.63 186.352 514.392 185.587 515.331 185.587H530.19Z" fill="url(#paint1_linear_697_5937)"/>
<path d="M539.18 191.802H506.348C504.536 191.802 503.067 193.277 503.067 195.091V197.895H542.461V195.091C542.461 193.275 540.99 191.802 539.18 191.802Z" fill="white"/>
<path d="M503.064 198.195H542.46C542.625 198.195 542.758 198.062 542.758 197.896V195.093C542.758 193.114 541.153 191.504 539.179 191.504H506.346C504.373 191.504 502.768 193.114 502.768 195.093V197.896C502.768 198.062 502.901 198.195 503.066 198.195H503.064ZM542.162 197.596H503.364V195.091C503.364 193.442 504.701 192.101 506.346 192.101H539.179C540.824 192.101 542.162 193.442 542.162 195.091V197.596Z" fill="url(#paint2_linear_697_5937)"/>
<path d="M530.715 163.554C541.598 157.426 552.479 148.178 560.567 138.182C565.535 132.043 573.457 120.557 570.71 112.599C569.916 110.301 567.899 107.414 562.791 106.711C559.083 106.201 554.07 106.906 547.889 108.805L549.237 114.275C554.775 112.573 559.127 111.923 562.169 112.342C564.264 112.631 565.542 113.403 565.969 114.639C566.982 117.572 564.538 124.813 556.798 134.38C549.113 143.877 538.773 152.665 528.429 158.49L530.717 163.555L530.715 163.554Z" fill="white"/>
<path d="M530.716 163.853C530.767 163.853 530.818 163.84 530.863 163.814C541.777 157.669 552.689 148.394 560.799 138.37C565.806 132.183 573.786 120.597 570.993 112.501C570.173 110.125 568.09 107.139 562.833 106.415C559.081 105.898 554.025 106.607 547.803 108.519C547.652 108.566 547.563 108.723 547.601 108.877L548.949 114.347C548.969 114.427 549.021 114.495 549.092 114.535C549.164 114.575 549.249 114.584 549.326 114.56C554.822 112.872 559.132 112.225 562.13 112.639C564.104 112.91 565.3 113.616 565.688 114.736C566.673 117.591 564.236 124.714 556.567 134.19C548.905 143.66 538.596 152.421 528.284 158.228C528.149 158.304 528.095 158.471 528.157 158.612L530.445 163.678C530.479 163.754 530.545 163.813 530.623 163.84C530.654 163.849 530.684 163.854 530.716 163.854V163.853ZM560.276 106.85C561.157 106.85 561.983 106.903 562.751 107.009C567.708 107.69 569.662 110.478 570.428 112.697C573.129 120.52 565.265 131.904 560.338 137.994C552.342 147.875 541.611 157.022 530.855 163.132L528.815 158.614C539.11 152.77 549.383 144.019 557.032 134.567C564.844 124.912 567.291 117.552 566.252 114.54C565.785 113.188 564.426 112.349 562.212 112.045C559.181 111.627 554.89 112.25 549.452 113.896L548.248 109.008C552.983 107.572 557.016 106.848 560.278 106.848L560.276 106.85Z" fill="url(#paint3_linear_697_5937)"/>
<path d="M514.479 163.239C503.772 157.111 493.068 147.863 485.11 137.867C480.225 131.728 472.431 120.242 475.133 112.284C475.913 109.986 477.898 107.099 482.924 106.396C486.572 105.886 491.504 106.591 497.585 108.49L496.259 113.96C490.81 112.258 486.529 111.608 483.536 112.027C481.476 112.316 480.218 113.088 479.799 114.324C478.803 117.257 481.207 124.498 488.821 134.065C496.381 143.562 506.553 152.35 516.73 158.175L514.48 163.24L514.479 163.239Z" fill="white"/>
<path d="M514.478 163.538C514.509 163.538 514.541 163.533 514.571 163.523C514.651 163.497 514.716 163.438 514.751 163.361L517.001 158.295C517.064 158.155 517.009 157.989 516.876 157.913C506.731 152.107 496.59 143.346 489.052 133.877C481.508 124.399 479.11 117.276 480.079 114.42C480.46 113.301 481.636 112.595 483.575 112.324C486.526 111.91 490.762 112.557 496.168 114.245C496.247 114.269 496.332 114.261 496.404 114.22C496.475 114.179 496.527 114.111 496.546 114.031L497.873 108.561C497.91 108.407 497.822 108.251 497.672 108.204C491.549 106.292 486.572 105.583 482.882 106.1C477.706 106.823 475.658 109.81 474.85 112.188C472.102 120.283 479.953 131.868 484.877 138.054C492.857 148.078 503.592 157.353 514.33 163.499C514.376 163.525 514.428 163.538 514.478 163.538ZM516.347 158.299L514.34 162.815C503.761 156.704 493.207 147.559 485.344 137.68C480.496 131.589 472.759 120.205 475.416 112.38C476.169 110.162 478.091 107.374 482.964 106.692C486.515 106.197 491.312 106.868 497.227 108.693L496.043 113.579C490.697 111.935 486.475 111.312 483.494 111.73C481.313 112.034 479.974 112.875 479.515 114.227C478.493 117.237 480.902 124.596 488.586 134.25C496.111 143.704 506.216 152.455 516.347 158.299Z" fill="url(#paint4_linear_697_5937)"/>
<path d="M522.683 168.48C494.993 168.789 494.693 129.345 488.736 97.9248L556.84 97.6726C551.335 130 550.331 169.004 522.683 168.48Z" fill="white"/>
<path d="M523.226 168.784C533.687 168.784 541.221 163.023 546.249 151.189C550.778 140.529 552.891 126.031 554.935 112.01C555.625 107.281 556.338 102.391 557.133 97.7234C557.147 97.6367 557.123 97.5473 557.066 97.4792C557.009 97.4125 556.926 97.3631 556.837 97.3738L488.734 97.626C488.644 97.626 488.561 97.666 488.505 97.7354C488.449 97.8048 488.425 97.8942 488.442 97.9823C489.458 103.336 490.323 109.018 491.158 114.514C493.193 127.884 495.299 141.709 499.733 151.883C504.688 163.251 512.094 168.781 522.363 168.783C522.47 168.783 522.574 168.783 522.682 168.781C522.864 168.785 523.045 168.787 523.226 168.787V168.784ZM556.484 97.9729C555.712 102.542 555.016 107.309 554.344 111.923C552.305 125.906 550.197 140.366 545.699 150.954C540.711 162.696 533.567 168.185 523.25 168.186C523.063 168.186 522.877 168.185 522.688 168.181C522.686 168.181 522.683 168.181 522.679 168.181C522.568 168.181 522.458 168.182 522.349 168.182C512.214 168.182 505.196 162.918 500.28 151.641C495.876 141.539 493.778 127.754 491.748 114.422C490.93 109.042 490.083 103.483 489.094 98.2225L556.483 97.9729H556.484Z" fill="url(#paint5_linear_697_5937)"/>
<path d="M497.096 134.346C497.116 134.346 497.136 134.345 497.155 134.34C497.317 134.306 497.422 134.149 497.388 133.986C496.124 127.819 495.268 121.09 494.44 114.583C494.134 112.175 493.818 109.685 493.485 107.258C493.462 107.094 493.313 106.979 493.148 107.002C492.985 107.024 492.87 107.175 492.893 107.339C493.225 109.764 493.542 112.251 493.848 114.657C494.677 121.176 495.534 127.917 496.803 134.106C496.832 134.247 496.956 134.345 497.094 134.345L497.096 134.346Z" fill="url(#paint6_linear_697_5937)"/>
<path d="M522.089 166.638C522.242 166.638 522.372 166.521 522.386 166.364C522.4 166.2 522.278 166.055 522.114 166.04C511.995 165.162 505.22 157.976 500.792 143.426C500.744 143.269 500.578 143.179 500.419 143.227C500.262 143.275 500.173 143.444 500.221 143.601C503.059 152.922 508.409 165.452 522.062 166.637C522.071 166.637 522.079 166.637 522.089 166.637V166.638Z" fill="url(#paint7_linear_697_5937)"/>
<path d="M487.161 92.4414H557.758C559.093 92.4414 560.176 93.527 560.176 94.8661V98.999C560.176 100.338 559.093 101.424 557.758 101.424H487.161C485.826 101.424 484.743 100.338 484.743 98.999V94.8661C484.743 93.527 485.826 92.4414 487.161 92.4414Z" fill="white"/>
<path d="M487.16 101.723H557.756C559.255 101.723 560.473 100.5 560.473 98.9991V94.8662C560.473 93.3636 559.254 92.1426 557.756 92.1426H487.159C485.66 92.1426 484.442 93.365 484.442 94.8662V98.9991C484.442 100.502 485.662 101.723 487.159 101.723H487.16ZM557.756 92.7418C558.925 92.7418 559.876 93.6946 559.876 94.8676V99.0004C559.876 100.172 558.926 101.126 557.756 101.126H487.159C485.99 101.126 485.039 100.173 485.039 99.0004V94.8676C485.039 93.6959 485.989 92.7418 487.159 92.7418H557.756Z" fill="url(#paint8_linear_697_5937)"/>
<path d="M507.971 96.4462C508.135 96.4462 508.268 96.3141 508.27 96.15C508.271 95.9845 508.139 95.8497 507.974 95.847L493.848 95.6882H493.844C493.68 95.6882 493.547 95.8203 493.546 95.9845C493.545 96.15 493.676 96.2847 493.842 96.2874L507.967 96.4462H507.971Z" fill="url(#paint9_linear_697_5937)"/>
<path d="M519.538 96.5754C519.702 96.5754 519.835 96.4433 519.836 96.2792C519.837 96.1137 519.706 95.9789 519.54 95.9763L511.672 95.8882H511.668C511.505 95.8882 511.372 96.0203 511.37 96.1844C511.369 96.3499 511.501 96.4847 511.666 96.4874L519.534 96.5754H519.538Z" fill="url(#paint10_linear_697_5937)"/>
<path d="M358.496 83.1971L350.067 74.2773L338.548 81.1146C336.228 79.3976 333.796 77.894 331.277 76.6197L332.18 63.2642L320.425 59.755L313.869 71.4438C311.036 71.1266 308.183 71.0459 305.337 71.2036L299.437 59.1636L287.506 62.0024L287.671 75.3885C285.084 76.5193 282.575 77.8832 280.163 79.4657L269.041 71.9886L260.131 80.4174L266.971 91.9467C265.258 94.2676 263.756 96.6996 262.482 99.2195L249.133 98.3073L245.631 110.066L257.316 116.634C257.001 119.468 256.922 122.323 257.08 125.171L245.051 131.063L247.896 143.001L261.275 142.845C262.405 145.435 263.771 147.946 265.353 150.362L257.886 161.486L266.315 170.406L277.834 163.569C280.154 165.284 282.586 166.789 285.105 168.064L284.202 181.419L295.957 184.928L302.513 173.24C305.345 173.557 308.199 173.637 311.045 173.482L316.945 185.522L328.876 182.681L328.711 169.295C331.298 168.164 333.807 166.8 336.219 165.218L347.341 172.695L356.251 164.266L349.411 152.737C351.124 150.416 352.627 147.984 353.9 145.464L367.249 146.376L370.751 134.617L359.066 128.051C359.381 125.217 359.46 122.362 359.302 119.514L371.333 113.618L368.487 101.678L355.109 101.834C353.978 99.2446 352.613 96.7337 351.029 94.3196L358.496 83.1953V83.1971ZM329.892 145.303C317.225 157.287 297.242 156.721 285.257 144.041C273.273 131.359 273.827 111.365 286.492 99.3808C299.159 87.3963 319.142 87.9626 331.126 100.644C343.111 113.326 342.557 133.32 329.892 145.304V145.303Z" fill="white"/>
<path d="M316.946 185.925C316.796 185.925 316.654 185.841 316.586 185.699L310.802 173.897C308.118 174.03 305.406 173.953 302.735 173.67L296.307 185.125C296.216 185.29 296.022 185.367 295.841 185.314L284.086 181.804C283.907 181.751 283.787 181.579 283.8 181.392L284.685 168.3C282.321 167.089 280.012 165.66 277.808 164.049L266.519 170.75C266.357 170.845 266.151 170.816 266.022 170.68L257.593 161.76C257.464 161.624 257.446 161.416 257.552 161.26L264.87 150.357C263.385 148.066 262.089 145.677 261.012 143.249L247.899 143.401C247.72 143.41 247.548 143.276 247.503 143.093L244.659 131.157C244.616 130.974 244.704 130.786 244.873 130.703L256.663 124.923C256.529 122.239 256.604 119.527 256.887 116.851L245.433 110.414C245.27 110.322 245.191 110.129 245.245 109.949L248.747 98.1907C248.8 98.0097 248.971 97.8932 249.159 97.9039L262.243 98.7982C263.454 96.4325 264.881 94.1206 266.488 91.9215L259.785 80.6216C259.688 80.4603 259.718 80.2542 259.855 80.1252L268.764 71.6964C268.9 71.5674 269.108 71.5495 269.264 71.6552L280.166 78.9835C282.452 77.5014 284.839 76.2038 287.267 75.1267L287.106 62.0059C287.104 61.8178 287.231 61.6529 287.414 61.6099L299.344 58.771C299.527 58.7262 299.715 58.8158 299.798 58.9843L305.582 70.786C308.264 70.6534 310.976 70.7286 313.649 71.0136L320.077 59.5578C320.168 59.3929 320.362 59.3158 320.543 59.3696L332.297 62.8787C332.477 62.9325 332.597 63.1028 332.584 63.291L331.699 76.383C334.062 77.5946 336.374 79.0248 338.574 80.6342L349.863 73.9331C350.025 73.8363 350.231 73.8668 350.36 74.003L358.789 82.9228C358.918 83.059 358.936 83.2669 358.83 83.4229L351.512 94.3267C352.996 96.6171 354.293 99.0061 355.37 101.435L368.483 101.282C368.666 101.291 368.834 101.408 368.879 101.59L371.725 113.53C371.768 113.713 371.68 113.901 371.511 113.984L359.721 119.764C359.855 122.45 359.78 125.163 359.497 127.836L370.95 134.273C371.113 134.365 371.192 134.558 371.139 134.737L367.637 146.496C367.583 146.677 367.413 146.794 367.225 146.783L354.141 145.889C352.931 148.251 351.505 150.563 349.896 152.767L356.599 164.067C356.696 164.228 356.665 164.434 356.529 164.563L347.62 172.992C347.484 173.121 347.276 173.139 347.12 173.033L336.218 165.705C333.93 167.189 331.543 168.485 329.117 169.56L329.278 182.681C329.28 182.869 329.153 183.034 328.97 183.077L317.039 185.918C317.009 185.925 316.977 185.928 316.946 185.928V185.925ZM311.045 173.08C311.198 173.08 311.339 173.166 311.406 173.306L317.165 185.057L328.47 182.365L328.31 169.3C328.309 169.139 328.404 168.992 328.551 168.927C331.097 167.814 333.604 166.454 335.999 164.882C336.134 164.795 336.309 164.795 336.444 164.884L347.299 172.182L355.741 164.194L349.064 152.943C348.982 152.803 348.991 152.629 349.086 152.498C350.788 150.193 352.286 147.765 353.539 145.283C353.612 145.139 353.763 145.053 353.926 145.062L366.954 145.953L370.271 134.809L358.866 128.398C358.724 128.32 358.645 128.164 358.663 128.004C358.975 125.203 359.054 122.353 358.898 119.534C358.889 119.373 358.977 119.222 359.122 119.151L370.863 113.396L368.166 102.082L355.108 102.234C354.961 102.234 354.8 102.141 354.736 101.994C353.621 99.4434 352.259 96.9343 350.688 94.5381C350.6 94.4037 350.6 94.2281 350.689 94.0937L357.977 83.2365L349.989 74.7844L338.746 81.4568C338.608 81.5392 338.433 81.5303 338.302 81.4353C335.999 79.7327 333.571 78.2326 331.088 76.9763C330.945 76.9028 330.857 76.7522 330.867 76.5909L331.749 63.5544L320.611 60.2281L314.212 71.6355C314.133 71.7771 313.975 71.8577 313.818 71.838C311.015 71.5244 308.168 71.4437 305.353 71.5996C305.195 71.6086 305.041 71.5208 304.969 71.3756L299.21 59.6241L287.905 62.3142L288.064 75.3794C288.066 75.5407 287.971 75.6877 287.824 75.7522C285.274 76.8669 282.768 78.2272 280.375 79.7972C280.241 79.885 280.065 79.885 279.931 79.7954L269.076 72.4975L260.634 80.4854L267.309 91.7387C267.391 91.8785 267.382 92.0523 267.287 92.1832C265.589 94.4844 264.091 96.9128 262.834 99.3986C262.761 99.542 262.611 99.628 262.447 99.6191L249.419 98.7283L246.102 109.872L257.507 116.283C257.649 116.362 257.728 116.518 257.71 116.677C257.398 119.482 257.319 122.332 257.475 125.147C257.484 125.309 257.396 125.459 257.251 125.531L245.51 131.286L248.207 142.6L261.265 142.448C261.439 142.444 261.573 142.541 261.638 142.688C262.752 145.238 264.114 147.747 265.685 150.143C265.773 150.278 265.773 150.453 265.684 150.588L258.396 161.445L266.384 169.897L277.627 163.225C277.766 163.142 277.94 163.151 278.071 163.246C280.375 164.951 282.803 166.451 285.285 167.705C285.429 167.779 285.516 167.929 285.506 168.09L284.624 181.127L295.762 184.453L302.161 173.046C302.24 172.904 302.394 172.824 302.557 172.843C305.358 173.157 308.205 173.238 311.022 173.084C311.029 173.084 311.037 173.084 311.044 173.084L311.045 173.08ZM308.232 154.333C307.924 154.333 307.614 154.33 307.306 154.321C298.767 154.079 290.833 150.527 284.964 144.315C272.848 131.494 273.408 111.204 286.215 99.0868C292.419 93.2173 300.54 90.1132 309.076 90.3587C317.615 90.6007 325.549 94.1528 331.418 100.365C343.534 113.186 342.974 133.476 330.167 145.593C324.187 151.249 316.43 154.333 308.232 154.333ZM308.15 91.1491C300.158 91.1491 292.596 94.1546 286.767 99.6693C274.281 111.482 273.735 131.261 285.547 143.761C291.27 149.817 299.004 153.281 307.327 153.516C315.651 153.751 323.565 150.729 329.613 145.009C342.099 133.196 342.646 113.417 330.833 100.917C325.11 94.8607 317.376 91.3964 309.053 91.1616C308.752 91.1527 308.449 91.1491 308.15 91.1491Z" fill="url(#paint11_linear_697_5937)"/>
<path d="M430.849 18.654L423.833 13.8617L417.049 20.1828C415.227 19.3637 413.361 18.7042 411.469 18.2131L410.114 9.04599L401.648 8.40259L398.933 17.274C396.971 17.4766 395.029 17.8422 393.127 18.3673L387.365 11.0927L379.713 14.7703L381.795 23.8013C380.211 24.9465 378.715 26.2387 377.317 27.6653L368.693 24.2457L363.907 31.2587L370.23 38.0493C369.413 39.872 368.756 41.7377 368.265 43.6303L359.101 44.9798L358.465 53.4498L367.335 56.1722C367.539 58.1346 367.906 60.0774 368.431 61.9807L361.163 67.7409L364.846 75.3972L373.872 73.3218C375.018 74.9062 376.31 76.4044 377.737 77.8042L374.323 86.4283L381.338 91.2206L388.123 84.8995C389.945 85.7186 391.81 86.3781 393.703 86.8692L395.057 96.0363L403.524 96.6797L406.239 87.8083C408.201 87.6058 410.143 87.2402 412.044 86.715L417.807 93.9896L425.459 90.312L423.376 81.2811C424.96 80.1358 426.457 78.8436 427.854 77.417L436.479 80.8366L441.265 73.8237L434.941 67.033C435.758 65.2103 436.416 63.3446 436.907 61.452L446.071 60.1025L446.707 51.6325L437.837 48.9119C437.633 46.9495 437.265 45.0067 436.74 43.1034L444.01 37.3432L440.328 29.6869L431.302 31.7623C430.155 30.1779 428.863 28.6797 427.437 27.2799L430.85 18.6558L430.849 18.654ZM420.644 64.8734C413.84 74.8452 400.239 77.4045 390.267 70.5923C380.294 63.7801 377.726 50.1736 384.528 40.2036C391.332 30.2317 404.932 27.6724 414.904 34.4846C424.878 41.2968 427.446 54.9033 420.644 64.8734Z" fill="white"/>
<path d="M403.526 97.0759C403.515 97.0759 403.506 97.0759 403.495 97.0759L395.029 96.4324C394.842 96.4181 394.688 96.2765 394.661 96.0901L393.346 87.1864C391.615 86.7222 389.888 86.1129 388.203 85.3709L381.613 91.511C381.475 91.6383 381.267 91.6544 381.113 91.5487L374.098 86.7563C373.942 86.6506 373.881 86.4516 373.951 86.276L377.266 77.8992C375.961 76.5998 374.766 75.2127 373.703 73.7682L364.936 75.7844C364.753 75.8256 364.565 75.736 364.484 75.5675L360.802 67.9112C360.721 67.7409 360.768 67.5384 360.915 67.4219L367.975 61.8266C367.505 60.0757 367.165 58.2781 366.964 56.4751L358.347 53.8316C358.168 53.776 358.049 53.604 358.064 53.4176L358.7 44.9476C358.714 44.7594 358.856 44.6071 359.042 44.5802L367.942 43.2701C368.405 41.5388 369.014 39.8111 369.754 38.1282L363.611 31.5311C363.484 31.3931 363.468 31.1852 363.574 31.0311L368.36 24.0182C368.466 23.8622 368.665 23.8013 368.84 23.8712L377.217 27.1922C378.515 25.8892 379.9 24.6938 381.344 23.631L379.323 14.86C379.28 14.6772 379.371 14.489 379.54 14.4065L387.191 10.7289C387.359 10.6483 387.564 10.6949 387.68 10.8418L393.28 17.9085C395.031 17.439 396.828 17.102 398.629 16.9013L401.265 8.28434C401.32 8.10512 401.492 7.98684 401.678 8.00117L410.145 8.64458C410.332 8.65892 410.486 8.8005 410.513 8.98689L411.828 17.8924C413.559 18.3566 415.286 18.9659 416.971 19.7079L423.561 13.5678C423.699 13.4387 423.907 13.4244 424.061 13.5301L431.076 18.3225C431.232 18.4283 431.293 18.6272 431.223 18.8028L427.908 27.1796C429.213 28.479 430.408 29.8661 431.471 31.3107L440.238 29.2944C440.419 29.2532 440.609 29.3428 440.69 29.5113L444.372 37.1676C444.453 37.3379 444.406 37.5404 444.259 37.6569L437.197 43.2522C437.667 45.005 438.007 46.8025 438.208 48.6037L446.825 51.2472C447.005 51.3028 447.123 51.4748 447.108 51.6612L446.472 60.1312C446.458 60.3194 446.316 60.4717 446.13 60.4986L437.23 61.8087C436.767 63.54 436.158 65.2659 435.418 66.9506L441.561 73.5477C441.688 73.6857 441.704 73.8936 441.598 74.0477L436.812 81.0607C436.706 81.2166 436.508 81.2775 436.332 81.2076L427.955 77.8867C426.658 79.1896 425.271 80.385 423.828 81.446L425.849 90.2171C425.892 90.3999 425.801 90.588 425.633 90.6705L417.981 94.3481C417.811 94.4288 417.608 94.3822 417.492 94.2352L411.892 87.1685C410.142 87.6381 408.344 87.975 406.543 88.1757L403.906 96.7927C403.854 96.9629 403.696 97.0776 403.522 97.0776L403.526 97.0759ZM395.409 95.6546L403.236 96.2496L405.855 87.6865C405.902 87.5323 406.038 87.4212 406.198 87.4051C408.133 87.2044 410.063 86.8423 411.937 86.3244C412.093 86.2814 412.26 86.3351 412.358 86.4624L417.922 93.4861L424.995 90.0862L422.986 81.3689C422.95 81.2112 423.011 81.0481 423.142 80.9531C424.695 79.8294 426.184 78.5444 427.57 77.1339C427.682 77.0192 427.854 76.9816 428.005 77.0425L436.33 80.3438L440.753 73.8613L434.648 67.3054C434.538 67.1871 434.51 67.0151 434.574 66.8663C435.382 65.0634 436.036 63.2067 436.517 61.3499C436.558 61.194 436.687 61.0757 436.848 61.0524L445.693 59.7513L446.281 51.9229L437.717 49.2955C437.563 49.2489 437.452 49.1127 437.436 48.9532C437.235 47.0194 436.87 45.0874 436.352 43.2109C436.309 43.055 436.362 42.8884 436.49 42.788L443.507 37.2268L440.104 30.1493L431.39 32.153C431.232 32.1889 431.069 32.1279 430.974 31.9971C429.849 30.4414 428.564 28.9503 427.152 27.5649C427.037 27.452 427 27.28 427.061 27.1294L430.356 18.8046L423.871 14.3761L417.322 20.4785C417.203 20.5897 417.03 20.6165 416.883 20.5502C415.08 19.7402 413.224 19.0842 411.365 18.6021C411.21 18.5609 411.093 18.4318 411.068 18.2723L409.76 9.4224L401.933 8.82918L399.313 17.3924C399.267 17.5465 399.13 17.6576 398.971 17.6737C397.036 17.8745 395.106 18.2383 393.23 18.7544C393.074 18.7975 392.907 18.7437 392.809 18.6164L387.245 11.5928L380.172 14.9926L382.181 23.7099C382.217 23.8676 382.156 24.0307 382.025 24.1257C380.47 25.2512 378.98 26.5362 377.597 27.9449C377.484 28.0596 377.312 28.0954 377.162 28.0363L368.837 24.735L364.414 31.2175L370.519 37.7734C370.628 37.8917 370.657 38.0637 370.593 38.2125C369.784 40.0136 369.13 41.8704 368.65 43.7289C368.609 43.8848 368.48 44.0031 368.319 44.0264L359.474 45.3276L358.886 53.1559L367.45 55.7833C367.604 55.8299 367.715 55.9661 367.731 56.1256C367.933 58.063 368.297 59.995 368.815 61.8679C368.858 62.0238 368.804 62.1905 368.677 62.2908L361.66 67.8521L365.063 74.9295L373.777 72.9258C373.935 72.89 374.098 72.9509 374.193 73.0817C375.318 74.6374 376.603 76.1285 378.015 77.5139C378.129 77.6268 378.167 77.7988 378.106 77.9494L374.811 86.2742L381.296 90.7028L387.845 84.6003C387.963 84.4909 388.137 84.4623 388.284 84.5286C390.087 85.3387 391.943 85.9946 393.801 86.4767C393.957 86.5179 394.074 86.647 394.099 86.8065L395.407 95.6564L395.409 95.6546ZM402.555 74.813C398.118 74.813 393.785 73.4832 390.04 70.9257C379.9 63.9988 377.278 50.1163 384.197 39.9778C387.548 35.0671 392.611 31.7569 398.455 30.6565C404.296 29.5561 410.22 30.7981 415.132 34.1531C425.272 41.08 427.894 54.9625 420.977 65.101C417.626 70.0117 412.562 73.3219 406.719 74.4223C405.33 74.684 403.938 74.813 402.555 74.813ZM402.616 31.0687C401.282 31.0687 399.94 31.1942 398.602 31.4451C392.97 32.5061 388.09 35.6962 384.86 40.4294C378.192 50.2024 380.719 63.583 390.493 70.2608C395.228 73.4957 400.937 74.6929 406.569 73.6319C412.2 72.571 417.082 69.3808 420.311 64.6476C426.978 54.8747 424.452 41.494 414.677 34.8162C411.068 32.3501 406.891 31.0687 402.614 31.0687H402.616Z" fill="url(#paint12_linear_697_5937)"/>
<path d="M37.387 395.978L34.9648 417.46L44.0994 421.265L47.4634 397.844L37.387 395.978Z" fill="white"/>
<path d="M44.0986 421.848C44.0231 421.848 43.9477 421.832 43.8748 421.804L34.7428 417.999C34.5035 417.9 34.3578 417.653 34.3864 417.395L36.8086 395.913C36.8268 395.751 36.91 395.605 37.0401 395.509C37.1702 395.413 37.3341 395.374 37.4928 395.405L47.5692 397.271C47.8762 397.328 48.0844 397.617 48.0401 397.927L44.6761 421.346C44.6501 421.525 44.5434 421.681 44.3873 421.77C44.2989 421.819 44.1974 421.845 44.0986 421.845V421.848ZM35.5936 417.09L43.6276 420.437L46.8043 398.317L37.8961 396.667L35.5936 417.09Z" fill="url(#paint13_linear_697_5937)"/>
<path d="M32.838 415.432C32.5493 417.47 32.0862 421.247 32.0471 424.633C32.0237 426.759 33.6186 428.555 35.7285 428.826C41.6917 429.591 55.2179 430.429 66.7383 429.383C67.5266 429.31 68.9211 428.737 69.3114 426.767C70.6148 420.151 59.1101 418.53 46.4996 413.733C46.0053 413.546 45.4459 413.657 45.0661 414.024L43.7054 415.341C42.3447 416.661 40.3258 417.033 38.5826 416.291L34.4459 414.527C33.7408 414.227 32.9447 414.678 32.838 415.435V415.432Z" fill="white"/>
<path d="M54.7348 430.46C46.9817 430.46 39.7516 429.929 35.6565 429.403C33.2395 429.094 31.4391 427.04 31.4651 424.625C31.5041 421.182 31.9803 417.335 32.2612 415.349C32.3393 414.805 32.6567 414.339 33.1328 414.071C33.6089 413.803 34.1709 413.772 34.6756 413.985L38.8123 415.75C40.3421 416.403 42.1035 416.078 43.3003 414.92L44.661 413.603C45.1995 413.08 46.0035 412.918 46.7085 413.186C49.6511 414.305 52.4791 415.235 55.2135 416.132C64.0255 419.024 70.9851 421.309 69.8871 426.881C69.4709 428.99 67.9619 429.861 66.7963 429.966C62.8781 430.322 58.7388 430.463 54.74 430.463L54.7348 430.46ZM33.9914 415.013C33.8925 415.013 33.7963 415.039 33.7078 415.089C33.5491 415.177 33.4424 415.333 33.419 415.513C33.1432 417.473 32.6723 421.262 32.6333 424.641C32.6125 426.462 33.9758 428.014 35.8048 428.248C41.963 429.039 55.2681 429.838 66.687 428.802C66.9628 428.776 68.3651 428.555 68.7398 426.655C69.6374 422.095 63.4349 420.06 54.8493 417.241C52.1019 416.338 49.2608 415.406 46.2922 414.277C46.0087 414.17 45.6887 414.235 45.4727 414.443L44.112 415.76C42.5796 417.246 40.3187 417.665 38.3544 416.827L34.2177 415.063C34.1449 415.032 34.0668 415.016 33.9888 415.016L33.9914 415.013Z" fill="url(#paint14_linear_697_5937)"/>
<path d="M32.0588 424.125C32.0588 424.125 32.051 424.469 32.051 424.636C32.0276 426.762 33.6225 428.558 35.7325 428.828C41.6956 429.594 55.2218 430.432 66.7422 429.385C67.5305 429.313 68.925 428.74 69.3153 426.77C69.435 426.166 69.3621 425.078 69.3621 425.078L68.5452 425.12C56.9025 425.695 45.2339 425.414 33.6329 424.284L32.0614 424.131L32.0588 424.125Z" fill="white"/>
<path d="M54.7348 430.46C46.9817 430.46 39.7516 429.929 35.6565 429.404C33.2395 429.094 31.4391 427.04 31.4651 424.625L31.4729 424.11C31.4755 423.948 31.5484 423.792 31.6681 423.686C31.7903 423.576 31.949 423.522 32.1129 423.54L33.6844 423.693C45.2177 424.818 56.9332 425.099 68.5108 424.526L69.3278 424.487C69.6426 424.472 69.9184 424.714 69.9392 425.031C69.947 425.151 70.0146 426.215 69.8845 426.876C69.4683 428.985 67.9593 429.854 66.7937 429.961C62.8755 430.317 58.7362 430.458 54.7374 430.458L54.7348 430.46ZM32.6333 424.766C32.6749 426.53 34.0174 428.016 35.8048 428.245C41.963 429.037 55.2681 429.836 66.687 428.8C66.9628 428.774 68.3651 428.553 68.7398 426.653C68.7892 426.403 68.7996 426.018 68.797 425.684L68.5707 425.695C56.9384 426.27 45.1631 425.986 33.5751 424.857L32.6359 424.766H32.6333Z" fill="url(#paint15_linear_697_5937)"/>
<path d="M49.3901 421.458C49.2418 421.458 49.0909 421.4 48.9764 421.286C48.7474 421.057 48.7474 420.687 48.9764 420.461L53.4019 416.031C53.6283 415.802 54.0003 415.802 54.2266 416.031C54.4556 416.26 54.4556 416.63 54.2266 416.856L49.8011 421.286C49.6867 421.4 49.5384 421.458 49.3875 421.458H49.3901Z" fill="url(#paint16_linear_697_5937)"/>
<path d="M53.7369 421.918C53.5912 421.918 53.4455 421.863 53.331 421.754C53.0994 421.53 53.0916 421.161 53.3154 420.929L56.8511 417.254C57.0749 417.023 57.4443 417.015 57.6759 417.239C57.9074 417.462 57.9152 417.832 57.6915 418.064L54.1557 421.739C54.0413 421.858 53.8878 421.918 53.7343 421.918H53.7369Z" fill="url(#paint17_linear_697_5937)"/>
<path d="M70.5552 254.404C70.5552 254.404 64.9954 257.631 62.8255 276.557C60.6557 295.484 61.379 317.796 46.2683 339.924C34.199 357.596 35.2605 387.42 33.5069 406.969C33.421 407.913 34.1469 408.731 35.0939 408.764L46.6637 409.16C47.4 409.186 48.0635 408.723 48.2898 408.02C50.3582 401.615 60.6401 370.711 72.1917 352.792C84.3989 333.855 99.2442 284.698 99.2442 284.698C99.2442 284.698 96.489 272.273 96.1066 260.366C95.7241 248.456 70.5552 254.404 70.5552 254.404Z" fill="url(#paint18_linear_697_5937)"/>
<path d="M134.062 342.225L129.184 363.286L137.819 368.116L143.857 345.242L134.062 342.225Z" fill="white"/>
<path d="M137.818 368.702C137.719 368.702 137.62 368.676 137.532 368.626L128.897 363.796C128.67 363.668 128.553 363.408 128.613 363.156L133.491 342.095C133.528 341.936 133.629 341.801 133.77 341.72C133.91 341.639 134.077 341.621 134.233 341.668L144.028 344.684C144.328 344.776 144.502 345.088 144.421 345.392L138.383 368.27C138.336 368.444 138.213 368.587 138.047 368.658C137.974 368.689 137.896 368.704 137.818 368.704V368.702ZM129.852 362.992L137.446 367.242L143.149 345.634L134.488 342.969L129.849 362.992H129.852Z" fill="url(#paint19_linear_697_5937)"/>
<path d="M128.149 362.042C127.86 364.08 126.031 367.939 125.992 371.325C125.969 373.452 127.564 375.247 129.674 375.518C135.637 376.283 150.527 377.038 162.049 375.992C162.838 375.919 164.232 375.346 164.623 373.376C165.926 366.76 154.421 365.139 141.811 360.342C141.316 360.155 140.757 360.267 140.377 360.634L139.017 361.951C137.656 363.27 135.637 363.642 133.894 362.9L129.757 361.136C129.052 360.837 128.256 361.287 128.149 362.044V362.042Z" fill="white"/>
<path d="M149.131 377.085C141.342 377.085 133.771 376.635 129.598 376.098C127.181 375.789 125.381 373.735 125.407 371.32C125.433 369.1 126.192 366.695 126.806 364.761C127.163 363.637 127.47 362.666 127.569 361.961C127.644 361.417 127.964 360.951 128.44 360.683C128.916 360.415 129.478 360.384 129.983 360.597L134.12 362.362C135.652 363.015 137.411 362.69 138.608 361.531L139.968 360.214C140.507 359.691 141.308 359.53 142.013 359.798C144.956 360.917 147.784 361.846 150.518 362.744C159.33 365.636 166.29 367.921 165.192 373.493C164.776 375.601 163.267 376.473 162.101 376.577C158.102 376.939 153.58 377.088 149.131 377.088V377.085ZM129.299 361.625C129.2 361.625 129.104 361.651 129.015 361.701C128.856 361.789 128.75 361.945 128.726 362.125C128.612 362.926 128.292 363.941 127.92 365.115C127.332 366.974 126.598 369.287 126.575 371.336C126.554 373.157 127.917 374.709 129.746 374.943C135.155 375.638 150.167 376.489 161.994 375.414C162.27 375.388 163.672 375.167 164.047 373.267C164.947 368.71 158.742 366.672 150.157 363.853C147.409 362.952 144.568 362.018 141.6 360.889C141.316 360.782 140.996 360.847 140.78 361.053L139.419 362.369C137.884 363.856 135.626 364.275 133.662 363.437L129.525 361.672C129.452 361.641 129.374 361.625 129.296 361.625H129.299Z" fill="url(#paint20_linear_697_5937)"/>
<path d="M126.317 370.675C126.317 370.675 126.309 371.018 126.309 371.185C126.285 373.311 127.88 375.107 129.99 375.378C135.953 376.143 150.528 377.038 162.048 375.994C162.837 375.922 164.231 375.349 164.622 373.379C164.741 372.775 164.668 371.687 164.668 371.687L163.851 371.726C152.209 372.301 140.54 372.02 128.939 370.891L126.319 370.68L126.317 370.675Z" fill="white"/>
<path d="M150.239 377.054C141.609 377.054 133.523 376.419 129.914 375.955C127.497 375.646 125.697 373.592 125.723 371.177L125.731 370.661C125.733 370.5 125.804 370.349 125.923 370.24C126.043 370.131 126.199 370.076 126.363 370.091L128.983 370.302C140.529 371.427 152.245 371.708 163.82 371.138L164.637 371.099C164.964 371.091 165.227 371.325 165.248 371.643C165.256 371.762 165.324 372.827 165.193 373.488C164.777 375.596 163.268 376.468 162.103 376.572C158.289 376.918 154.206 377.054 150.241 377.054H150.239ZM126.891 371.307C126.928 373.077 128.273 374.568 130.063 374.797C135.292 375.469 149.976 376.502 161.996 375.411C162.272 375.385 163.674 375.164 164.049 373.264C164.098 373.012 164.109 372.629 164.106 372.296L163.88 372.306C152.25 372.879 140.475 372.598 128.881 371.468L126.894 371.307H126.891Z" fill="url(#paint21_linear_697_5937)"/>
<path d="M144.703 368.069C144.554 368.069 144.403 368.012 144.289 367.897C144.06 367.668 144.06 367.299 144.289 367.072L148.714 362.643C148.941 362.414 149.313 362.414 149.539 362.643C149.768 362.872 149.768 363.241 149.539 363.468L145.114 367.897C144.999 368.012 144.851 368.069 144.7 368.069H144.703Z" fill="url(#paint22_linear_697_5937)"/>
<path d="M149.045 368.527C148.9 368.527 148.754 368.473 148.64 368.363C148.408 368.139 148.4 367.77 148.624 367.538L152.16 363.863C152.383 363.632 152.753 363.624 152.984 363.848C153.216 364.072 153.224 364.441 153 364.673L149.464 368.348C149.35 368.467 149.196 368.527 149.043 368.527H149.045Z" fill="url(#paint23_linear_697_5937)"/>
<path d="M89.9766 286.073C89.9766 286.073 117.253 294.19 146.264 278.606C147.12 278.145 148.031 279.129 147.513 279.951C146.054 282.263 141.878 287.939 139.7 293.852C137.018 301.134 131.357 338.808 129.491 350.53C129.322 351.589 130.121 352.555 131.193 352.589L142.346 352.951C143.051 352.974 143.702 352.581 144.009 351.943C148.034 343.555 176.681 277.747 175.679 265.452C174.594 252.158 157.056 252.837 150.729 252.431C144.183 252.012 91.9825 253.227 91.9825 253.227L89.9792 286.07L89.9766 286.073Z" fill="url(#paint24_linear_697_5937)"/>
<path d="M13.78 268.624C14.6776 267.552 15.8432 266.295 16.8423 265.306C18.1353 264.028 22.4489 255.629 22.4489 255.629L29.9939 257.769C29.9939 257.769 26.466 263.94 27.3141 267.013C28.1024 269.876 28.7242 275.92 24.5355 280.321C24.0542 280.826 23.0031 280.958 22.6363 280.873C21.5435 280.617 21.5201 279.098 22.0561 278.111L23.5677 275.324C23.7004 275.079 23.5 274.788 23.2242 274.827C22.0925 274.985 19.6027 275.711 16.9984 278.926C14.995 281.398 11.0222 286.919 9.68495 286.005C7.29919 284.373 8.85761 274.488 13.7774 268.624H13.78Z" fill="white"/>
<path d="M10.0183 286.692C9.78151 286.692 9.56036 286.627 9.35743 286.486C8.694 286.031 8.26732 285.154 8.093 283.881C7.56225 280.001 9.41467 272.921 13.3328 268.25C14.233 267.175 15.3934 265.92 16.4341 264.892C17.4383 263.898 20.7425 257.678 21.9315 255.364C22.059 255.117 22.3426 254.994 22.6105 255.07L30.1529 257.209C30.3246 257.259 30.4651 257.384 30.5353 257.55C30.603 257.717 30.59 257.904 30.5015 258.06C29.5545 259.718 27.2364 264.533 27.879 266.86C28.264 268.257 29.9369 275.501 24.9625 280.724C24.3016 281.419 23.0138 281.562 22.5091 281.442C21.9809 281.318 21.5646 280.971 21.3357 280.464C21.0079 279.73 21.0911 278.673 21.549 277.833L22.8135 275.501C21.6817 275.774 19.616 276.63 17.4565 279.293C17.1574 279.66 16.8165 280.097 16.4471 280.568C13.6711 284.105 11.509 286.692 10.0235 286.692H10.0183ZM22.7484 256.322C21.7884 258.172 18.4452 264.543 17.2536 265.722C16.252 266.711 15.0942 267.968 14.2278 268.999C10.6297 273.288 8.74863 280.073 9.25076 283.722C9.37564 284.631 9.64882 285.271 10.0183 285.523C10.869 285.768 14.2564 281.466 15.5261 279.847C15.9007 279.371 16.2468 278.931 16.5459 278.559C19.2387 275.238 21.8352 274.434 23.1439 274.249C23.4899 274.199 23.8307 274.348 24.0285 274.634C24.2288 274.923 24.2496 275.292 24.0805 275.602L22.5689 278.39C22.2905 278.902 22.2177 279.587 22.3946 279.985C22.4726 280.162 22.5923 280.263 22.7692 280.305C22.9956 280.357 23.8099 280.235 24.1117 279.917C28.6517 275.147 27.1063 268.46 26.7498 267.167C26.0084 264.481 28.2328 259.843 29.1304 258.13L22.7484 256.322Z" fill="url(#paint25_linear_697_5937)"/>
<path d="M194.612 173.763L189.736 165.541C188.935 164.188 186.411 163.779 185.152 164.719C157.602 185.261 128.297 176.883 123.767 175.803C112.536 173.128 106.874 172.719 98.0077 172.18C85.0304 171.389 66.3631 178.898 53.8021 191.464C43.8089 201.46 26.7651 233.884 19.0355 256.41C18.7102 257.358 19.1291 258.396 20.0163 258.859L27.772 262.886C28.7554 263.396 29.9626 263.024 30.483 262.045C34.4298 254.607 51.5282 223.76 69.4201 213.576C70.734 212.829 72.7139 213.62 72.6384 215.129C72.3991 219.871 69.4591 237.447 68.5616 253.732C68.4445 255.882 69.9249 257.787 72.04 258.18L79.8686 259.632C93.5223 262.813 106.323 259.27 111.963 257.256C113.691 256.639 114.526 254.973 114.789 253.159C115.223 250.148 121.285 226.006 132.335 210.036C133.727 208.027 135.834 206.634 138.274 206.491C148.127 205.916 176.176 201.973 194.489 176.303C195.023 175.553 195.077 174.564 194.609 173.773L194.612 173.763Z" fill="white"/>
<path d="M28.6991 263.69C28.2959 263.69 27.8874 263.596 27.5076 263.398L19.7519 259.372C18.5967 258.773 18.066 257.446 18.4874 256.218C26.4617 232.973 43.75 200.693 53.3919 191.047C65.4977 178.937 84.2794 170.754 98.045 171.595C107.128 172.149 112.807 172.589 123.903 175.233C124.08 175.275 124.296 175.33 124.549 175.392C146.791 180.91 167.628 177.058 184.804 164.248C185.559 163.685 186.69 163.488 187.838 163.717C188.917 163.933 189.792 164.49 190.239 165.242L195.115 173.464C195.698 174.447 195.64 175.689 194.969 176.631C176.747 202.174 149.278 206.421 138.312 207.064C136.183 207.189 134.18 208.389 132.819 210.359C122.298 225.564 115.94 249.295 115.372 253.232C115.037 255.557 113.897 257.178 112.167 257.797C105.871 260.046 93.2839 263.346 79.7446 260.192L71.9421 258.745C69.5537 258.302 67.8522 256.129 67.9875 253.69C68.5651 243.21 69.9674 232.346 70.9925 224.416C71.5441 220.142 71.9811 216.767 72.0644 215.093C72.0904 214.57 71.7262 214.263 71.505 214.128C70.9717 213.8 70.238 213.779 69.7151 214.075C52.2784 223.999 35.6769 253.506 31.0043 262.313C30.5385 263.188 29.6332 263.69 28.7017 263.69H28.6991ZM96.0469 172.704C82.7964 172.704 65.5471 180.535 54.2167 191.872C44.671 201.421 27.5206 233.481 19.5906 256.595C19.359 257.272 19.6504 258.006 20.2878 258.336L28.0435 262.363C28.7382 262.724 29.6045 262.456 29.9714 261.767C34.6805 252.889 51.4251 223.143 69.1349 213.063C70.0247 212.558 71.2214 212.587 72.1138 213.136C72.8605 213.597 73.2664 214.331 73.2248 215.153C73.1389 216.871 72.6992 220.267 72.1451 224.567C71.1226 232.481 69.7229 243.319 69.1479 253.758C69.0464 255.611 70.3369 257.261 72.1503 257.6L79.9788 259.052C93.2553 262.144 105.595 258.906 111.772 256.699C113.445 256.103 114.022 254.396 114.215 253.068C114.602 250.385 120.511 226.095 131.859 209.695C133.428 207.428 135.754 206.046 138.244 205.901C149.041 205.268 176.088 201.088 194.019 175.954C194.423 175.39 194.459 174.648 194.111 174.062L189.235 165.84C188.962 165.377 188.353 165.013 187.609 164.864C186.797 164.703 185.988 164.825 185.501 165.187C168.286 178.026 146.538 182.052 124.268 176.527C124.02 176.465 123.807 176.412 123.633 176.371C112.63 173.75 106.992 173.31 97.9722 172.761C97.34 172.722 96.6974 172.704 96.0469 172.704Z" fill="url(#paint26_linear_697_5937)"/>
<path d="M187.9 168.011C187.796 167.399 188.015 166.78 188.486 166.377C189.11 165.846 190.164 164.94 191.691 163.602C194.387 161.244 197.758 156.536 200.696 155.125C203.633 153.712 214.292 149.548 215.996 150.433C217.7 151.318 216.855 153.319 214.435 154.482C212.016 155.646 208.865 156.84 208.865 156.84C208.865 156.84 210.626 156.739 211.927 158.774C213.228 160.81 211.425 161.632 212.185 162.639C213.158 163.93 212.872 165.429 212.099 166.088C210.34 167.587 208.207 164.625 206.617 167.688C205.511 169.817 202.902 171.205 197.605 172.217C196.184 172.488 194.829 173.034 193.603 173.802C193.096 174.119 192.453 174.143 191.931 173.849C190.666 173.136 188.473 171.434 187.895 168.014L187.9 168.011Z" fill="white"/>
<path d="M192.727 174.637C192.355 174.637 191.983 174.544 191.65 174.356C190.3 173.594 187.942 171.769 187.326 168.11C187.188 167.295 187.49 166.462 188.109 165.934C188.733 165.403 189.782 164.5 191.309 163.165C192.264 162.329 193.307 161.189 194.413 159.982C196.408 157.801 198.474 155.547 200.446 154.599C201.703 153.996 214.022 148.746 216.27 149.915C217.061 150.326 217.49 150.979 217.48 151.757C217.461 152.947 216.395 154.191 214.693 155.008C213.366 155.646 211.813 156.296 210.676 156.757C211.251 157.077 211.878 157.603 212.425 158.459C213.325 159.867 212.966 160.874 212.726 161.538C212.552 162.027 212.542 162.132 212.656 162.285C213.819 163.826 213.47 165.687 212.482 166.53C211.517 167.352 210.458 167.131 209.607 166.954C208.512 166.725 207.851 166.587 207.14 167.956C205.915 170.317 203.097 171.761 197.72 172.789C196.388 173.044 195.11 173.549 193.919 174.296C193.554 174.525 193.141 174.64 192.727 174.64V174.637ZM188.476 167.915C189.012 171.098 191.054 172.678 192.222 173.339C192.553 173.526 192.966 173.513 193.299 173.305C194.613 172.482 196.026 171.923 197.499 171.642C202.486 170.689 205.059 169.424 206.102 167.418C207.221 165.265 208.738 165.58 209.844 165.812C210.681 165.986 211.22 166.072 211.725 165.64C212.216 165.221 212.555 164.089 211.725 162.988C211.21 162.306 211.441 161.663 211.626 161.145C211.834 160.562 212.032 160.013 211.439 159.086C210.354 157.39 208.959 157.418 208.897 157.421C208.616 157.431 208.358 157.233 208.301 156.952C208.244 156.671 208.395 156.393 208.662 156.291C208.694 156.278 211.818 155.091 214.186 153.954C215.64 153.254 216.301 152.338 216.309 151.737C216.309 151.617 216.317 151.252 215.729 150.948C214.49 150.305 204.815 153.793 200.948 155.651C199.179 156.502 197.192 158.673 195.269 160.77C194.142 162.001 193.076 163.165 192.074 164.042C190.542 165.382 189.488 166.288 188.861 166.822C188.549 167.087 188.403 167.496 188.473 167.915H188.476Z" fill="url(#paint27_linear_697_5937)"/>
<path d="M116.683 149.894L102.108 174.059C101.91 174.335 99.7693 174.26 97.3575 174.505C96.231 174.619 95.0524 174.791 94.0767 174.95C93.2728 175.08 93.0465 176.126 93.7255 176.576L96.335 178.304C101.804 181.927 108.298 183.801 114.844 183.359C116.662 183.236 118.405 182.942 119.956 182.458L125.537 180.701C126.374 180.439 126.367 179.249 125.529 178.994L118.421 176.839L124.423 164.096L116.683 149.894Z" fill="white"/>
<path d="M112.973 184.004C107.091 184.004 101.136 182.185 96.013 178.791L93.4035 177.063C92.8935 176.725 92.6464 176.121 92.7764 175.522C92.9039 174.924 93.38 174.473 93.9836 174.374C95.2142 174.174 96.3278 174.023 97.2982 173.924C98.2947 173.823 99.2521 173.776 100.022 173.737C100.678 173.703 101.414 173.666 101.703 173.609L116.184 149.592C116.291 149.412 116.481 149.308 116.697 149.311C116.905 149.316 117.097 149.431 117.196 149.615L124.936 163.818C125.025 163.982 125.03 164.177 124.952 164.346L119.238 176.477L125.701 178.437C126.333 178.63 126.744 179.182 126.75 179.843C126.752 180.504 126.346 181.061 125.717 181.258L120.136 183.015C118.588 183.497 116.821 183.809 114.888 183.939C114.254 183.983 113.616 184.004 112.976 184.004H112.973ZM116.66 151.068L102.611 174.361C102.301 174.793 101.742 174.819 100.082 174.903C99.3249 174.942 98.3831 174.989 97.4179 175.085C96.4709 175.181 95.3781 175.33 94.1736 175.525C93.9836 175.556 93.9316 175.704 93.9186 175.767C93.9056 175.829 93.8926 175.983 94.0513 176.09L96.6608 177.818C102.124 181.438 108.569 183.197 114.808 182.776C116.652 182.651 118.325 182.357 119.787 181.901L125.368 180.144C125.566 180.082 125.584 179.915 125.584 179.848C125.584 179.78 125.561 179.614 125.365 179.554L118.258 177.399C118.096 177.349 117.964 177.232 117.893 177.076C117.826 176.92 117.826 176.743 117.899 176.589L123.773 164.115L116.663 151.065L116.66 151.068Z" fill="url(#paint28_linear_697_5937)"/>
<path d="M123.192 164.594C123.956 164.693 124.742 164.724 125.551 164.682L126.99 164.607C126.99 164.607 135.243 163.511 136.567 161.465C137.891 159.417 135.092 151.986 135.092 151.986C136.369 150.995 136.653 149.74 136.38 149.319C136.106 148.897 134.267 148.254 133.52 147.705C132.911 147.257 131.548 143.7 130.965 142.172C130.965 142.172 129.886 136.139 120.213 136.922C98.0512 138.718 113.984 159.235 113.984 159.235C114.327 159.633 114.681 160.016 115.046 160.38L123.189 164.596L123.192 164.594Z" fill="white"/>
<path d="M124.856 165.284C123.625 165.284 122.418 165.12 121.252 164.794C120.943 164.708 120.761 164.386 120.847 164.076C120.932 163.766 121.255 163.584 121.565 163.67C122.837 164.026 124.166 164.167 125.519 164.099L126.958 164.024C129.999 163.618 135.218 162.473 136.074 161.148C136.922 159.836 135.585 154.959 134.545 152.192C134.453 151.953 134.532 151.682 134.732 151.526C135.728 150.75 135.96 149.834 135.879 149.618C135.775 149.517 135.125 149.207 134.693 149.001C134.131 148.733 133.553 148.455 133.173 148.176C132.63 147.775 131.883 146.206 130.418 142.383C130.405 142.349 130.395 142.312 130.39 142.276C130.348 142.055 129.242 136.779 120.259 137.505C114.792 137.948 111.306 139.52 109.896 142.177C107.513 146.672 111.306 153.392 113.572 157.405L113.773 157.762C113.931 158.043 113.832 158.399 113.551 158.558C113.27 158.717 112.914 158.618 112.755 158.337L112.555 157.98C110.169 153.759 106.178 146.693 108.863 141.631C110.471 138.598 114.272 136.818 120.162 136.342C129.685 135.569 131.355 141.305 131.521 142.003C133.038 145.964 133.637 147.036 133.871 147.239C134.157 147.448 134.708 147.713 135.198 147.947C136.113 148.384 136.642 148.65 136.868 149.001C137.315 149.694 136.967 151.07 135.778 152.169C136.387 153.863 138.359 159.766 137.053 161.783C135.624 163.993 127.936 165.073 127.065 165.187L125.579 165.268C125.337 165.281 125.095 165.286 124.853 165.286L124.856 165.284Z" fill="url(#paint29_linear_697_5937)"/>
<path d="M115.689 134.299C118.106 133.822 120.858 134.197 122.037 133.796C123.936 133.148 123.892 130.965 126.569 130.749C128.923 130.559 131.112 130.999 132.301 132.802C132.498 133.104 132.67 133.44 132.81 133.82C134.665 138.918 132.103 141.375 130.968 142.174C130.968 142.174 123.79 145.623 122.552 146.615C121.394 147.541 120.028 149.748 120.772 152.942C120.869 153.353 120.671 153.78 120.301 153.985C119.87 154.227 119.321 154.108 119.037 153.699C118.147 152.413 116.193 149.925 114.747 150.498C113.058 151.167 112.486 155.412 115.587 156.46C116.542 156.783 116.857 158.035 116.17 158.772C115.6 159.383 114.726 159.813 113.41 159.477C113.41 159.477 105.688 153.97 104.774 146.713C103.861 139.457 112.473 134.934 115.689 134.299Z" fill="url(#paint30_linear_697_5937)"/>
<path d="M71.1988 457.607L70.2608 455.115H66.0608L65.1368 457.607H63.3588L67.2228 447.681H69.1688L73.0328 457.607H71.1988ZM68.1608 449.501L66.6488 453.561H69.6728L68.1608 449.501ZM75.8049 453.673V457.607H74.1809V450.789H75.7629V451.699C76.2109 450.915 77.0229 450.593 77.7789 450.593C79.4449 450.593 80.2429 451.797 80.2429 453.295V457.607H78.6189V453.575C78.6189 452.735 78.2409 452.063 77.2189 452.063C76.2949 452.063 75.8049 452.777 75.8049 453.673ZM81.7999 455.759C81.7999 454.541 82.6959 453.869 83.8579 453.701L85.6079 453.435C85.9999 453.379 86.1119 453.183 86.1119 452.945C86.1119 452.371 85.7199 451.909 84.8239 451.909C83.9699 451.909 83.4939 452.455 83.4239 453.141L81.9399 452.805C82.0659 451.629 83.1299 450.579 84.8099 450.579C86.9099 450.579 87.7079 451.769 87.7079 453.127V456.515C87.7079 457.131 87.7779 457.537 87.7919 457.607H86.2799C86.2659 457.565 86.2099 457.285 86.2099 456.739C85.8879 457.257 85.2159 457.817 84.1099 457.817C82.6819 457.817 81.7999 456.837 81.7999 455.759ZM84.4179 456.543C85.3279 456.543 86.1119 456.109 86.1119 454.779V454.471L84.3339 454.737C83.8299 454.821 83.4239 455.101 83.4239 455.661C83.4239 456.123 83.7739 456.543 84.4179 456.543ZM91.2951 457.607H89.6711V447.471H91.2951V457.607ZM95.4618 460.365H93.7258L95.3638 456.795L92.4518 450.789H94.2858L96.2458 455.101L98.0798 450.789H99.8018L95.4618 460.365ZM106.045 457.607H100.473V456.193L103.931 452.217H100.543V450.789H105.975V452.161L102.475 456.179H106.045V457.607ZM109.232 457.607H107.622V450.789H109.232V457.607ZM107.37 448.395C107.37 447.807 107.846 447.331 108.42 447.331C109.008 447.331 109.484 447.807 109.484 448.395C109.484 448.983 109.008 449.445 108.42 449.445C107.846 449.445 107.37 448.983 107.37 448.395ZM112.951 453.673V457.607H111.327V450.789H112.909V451.699C113.357 450.915 114.169 450.593 114.925 450.593C116.591 450.593 117.389 451.797 117.389 453.295V457.607H115.765V453.575C115.765 452.735 115.387 452.063 114.365 452.063C113.441 452.063 112.951 452.777 112.951 453.673ZM118.876 457.985L120.374 457.593C120.486 458.433 121.144 459.063 122.082 459.063C123.37 459.063 124.014 458.405 124.014 457.019V456.305C123.72 456.837 123.034 457.299 122.04 457.299C120.22 457.299 118.89 455.899 118.89 453.981C118.89 452.161 120.164 450.663 122.04 450.663C123.104 450.663 123.762 451.097 124.056 451.657V450.789H125.624V456.963C125.624 458.783 124.686 460.477 122.124 460.477C120.318 460.477 119.058 459.357 118.876 457.985ZM122.306 455.913C123.342 455.913 124.056 455.157 124.056 453.981C124.056 452.819 123.314 452.063 122.306 452.063C121.27 452.063 120.528 452.819 120.528 453.981C120.528 455.171 121.242 455.913 122.306 455.913Z" fill="white"/>
<path d="M163.528 404.353C161.456 404.353 159.832 403.079 159.832 400.685V394.217H161.498V400.587C161.498 401.987 162.268 402.757 163.528 402.757C164.802 402.757 165.558 401.987 165.558 400.587V394.217H167.238V400.685C167.238 403.079 165.614 404.353 163.528 404.353ZM171.209 404.143H169.501V394.217H171.209V404.143ZM180.645 404.353C178.573 404.353 176.949 403.079 176.949 400.685V394.217H178.615V400.587C178.615 401.987 179.385 402.757 180.645 402.757C181.919 402.757 182.675 401.987 182.675 400.587V394.217H184.355V400.685C184.355 403.079 182.731 404.353 180.645 404.353ZM194.234 394.217L190.93 399.187L194.22 404.143H192.204L189.894 400.517L187.556 404.143H185.582L188.9 399.173L185.61 394.217H187.626L189.936 397.857L192.26 394.217H194.234ZM200.794 402.603H202.558C204.28 402.603 205.708 401.497 205.708 399.201C205.708 396.877 204.294 395.757 202.572 395.757H200.794V402.603ZM202.614 404.143H199.114V394.217H202.628C205.33 394.217 207.458 396.009 207.458 399.201C207.458 402.379 205.302 404.143 202.614 404.143ZM210.239 399.985H213.585C213.557 399.187 213.025 398.473 211.905 398.473C210.883 398.473 210.295 399.257 210.239 399.985ZM213.767 401.763L215.139 402.197C214.775 403.387 213.697 404.353 212.059 404.353C210.211 404.353 208.573 403.009 208.573 400.699C208.573 398.543 210.169 397.115 211.891 397.115C213.991 397.115 215.223 398.501 215.223 400.657C215.223 400.923 215.195 401.147 215.181 401.175H210.197C210.239 402.211 211.051 402.953 212.059 402.953C213.039 402.953 213.543 402.435 213.767 401.763ZM216.173 402.295L217.587 401.903C217.643 402.519 218.105 403.065 218.973 403.065C219.645 403.065 219.995 402.701 219.995 402.281C219.995 401.917 219.743 401.637 219.197 401.525L218.189 401.301C216.985 401.035 216.355 400.251 216.355 399.313C216.355 398.123 217.447 397.115 218.861 397.115C220.765 397.115 221.381 398.347 221.493 399.019L220.121 399.411C220.065 399.019 219.771 398.389 218.861 398.389C218.287 398.389 217.881 398.753 217.881 399.173C217.881 399.537 218.147 399.803 218.567 399.887L219.603 400.097C220.891 400.377 221.563 401.161 221.563 402.169C221.563 403.205 220.723 404.353 218.987 404.353C217.013 404.353 216.257 403.065 216.173 402.295ZM224.783 404.143H223.173V397.325H224.783V404.143ZM222.921 394.931C222.921 394.343 223.397 393.867 223.971 393.867C224.559 393.867 225.035 394.343 225.035 394.931C225.035 395.519 224.559 395.981 223.971 395.981C223.397 395.981 222.921 395.519 222.921 394.931ZM226.388 404.521L227.886 404.129C227.998 404.969 228.656 405.599 229.594 405.599C230.882 405.599 231.526 404.941 231.526 403.555V402.841C231.232 403.373 230.546 403.835 229.552 403.835C227.732 403.835 226.402 402.435 226.402 400.517C226.402 398.697 227.676 397.199 229.552 397.199C230.616 397.199 231.274 397.633 231.568 398.193V397.325H233.136V403.499C233.136 405.319 232.198 407.013 229.636 407.013C227.83 407.013 226.57 405.893 226.388 404.521ZM229.818 402.449C230.854 402.449 231.568 401.693 231.568 400.517C231.568 399.355 230.826 398.599 229.818 398.599C228.782 398.599 228.04 399.355 228.04 400.517C228.04 401.707 228.754 402.449 229.818 402.449ZM236.746 400.209V404.143H235.122V397.325H236.704V398.235C237.152 397.451 237.964 397.129 238.72 397.129C240.386 397.129 241.184 398.333 241.184 399.831V404.143H239.56V400.111C239.56 399.271 239.182 398.599 238.16 398.599C237.236 398.599 236.746 399.313 236.746 400.209Z" fill="white"/>
<path d="M244.503 348.06L246.449 340.752H248.185L245.399 350.678H243.663L241.255 343.174L238.847 350.678H237.125L234.311 340.752H236.075L238.063 348.004L240.387 340.752H242.137L244.503 348.06ZM250.026 346.52H253.372C253.344 345.722 252.812 345.008 251.692 345.008C250.67 345.008 250.082 345.792 250.026 346.52ZM253.554 348.298L254.926 348.732C254.562 349.922 253.484 350.888 251.846 350.888C249.998 350.888 248.36 349.544 248.36 347.234C248.36 345.078 249.956 343.65 251.678 343.65C253.778 343.65 255.01 345.036 255.01 347.192C255.01 347.458 254.982 347.682 254.968 347.71H249.984C250.026 348.746 250.838 349.488 251.846 349.488C252.826 349.488 253.33 348.97 253.554 348.298ZM258.144 350.678H256.562V340.542H258.158V344.7C258.466 344.168 259.25 343.678 260.3 343.678C262.344 343.678 263.45 345.232 263.45 347.234C263.45 349.292 262.232 350.846 260.244 350.846C259.278 350.846 258.536 350.426 258.144 349.768V350.678ZM261.812 347.248C261.812 345.89 261.056 345.12 259.978 345.12C258.942 345.12 258.144 345.89 258.144 347.248C258.144 348.592 258.942 349.404 259.978 349.404C261.042 349.404 261.812 348.592 261.812 347.248ZM264.409 348.83L265.823 348.438C265.879 349.054 266.341 349.6 267.209 349.6C267.881 349.6 268.231 349.236 268.231 348.816C268.231 348.452 267.979 348.172 267.433 348.06L266.425 347.836C265.221 347.57 264.591 346.786 264.591 345.848C264.591 344.658 265.683 343.65 267.097 343.65C269.001 343.65 269.617 344.882 269.729 345.554L268.357 345.946C268.301 345.554 268.007 344.924 267.097 344.924C266.523 344.924 266.117 345.288 266.117 345.708C266.117 346.072 266.383 346.338 266.803 346.422L267.839 346.632C269.127 346.912 269.799 347.696 269.799 348.704C269.799 349.74 268.959 350.888 267.223 350.888C265.249 350.888 264.493 349.6 264.409 348.83ZM273.019 350.678H271.409V343.86H273.019V350.678ZM271.157 341.466C271.157 340.878 271.633 340.402 272.207 340.402C272.795 340.402 273.271 340.878 273.271 341.466C273.271 342.054 272.795 342.516 272.207 342.516C271.633 342.516 271.157 342.054 271.157 341.466ZM277.172 341.774V343.86H278.586V345.302H277.172V348.466C277.172 349.068 277.438 349.32 278.04 349.32C278.264 349.32 278.53 349.278 278.6 349.264V350.608C278.502 350.65 278.194 350.762 277.606 350.762C276.346 350.762 275.562 350.006 275.562 348.732V345.302H274.302V343.86H274.652C275.38 343.86 275.702 343.398 275.702 342.796V341.774H277.172ZM281.321 346.52H284.667C284.639 345.722 284.107 345.008 282.987 345.008C281.965 345.008 281.377 345.792 281.321 346.52ZM284.849 348.298L286.221 348.732C285.857 349.922 284.779 350.888 283.141 350.888C281.293 350.888 279.655 349.544 279.655 347.234C279.655 345.078 281.251 343.65 282.973 343.65C285.073 343.65 286.305 345.036 286.305 347.192C286.305 347.458 286.277 347.682 286.263 347.71H281.279C281.321 348.746 282.133 349.488 283.141 349.488C284.121 349.488 284.625 348.97 284.849 348.298ZM293.149 349.138H294.913C296.635 349.138 298.063 348.032 298.063 345.736C298.063 343.412 296.649 342.292 294.927 342.292H293.149V349.138ZM294.969 350.678H291.469V340.752H294.983C297.685 340.752 299.813 342.544 299.813 345.736C299.813 348.914 297.657 350.678 294.969 350.678ZM302.594 346.52H305.94C305.912 345.722 305.38 345.008 304.26 345.008C303.238 345.008 302.65 345.792 302.594 346.52ZM306.122 348.298L307.494 348.732C307.13 349.922 306.052 350.888 304.414 350.888C302.566 350.888 300.928 349.544 300.928 347.234C300.928 345.078 302.524 343.65 304.246 343.65C306.346 343.65 307.578 345.036 307.578 347.192C307.578 347.458 307.55 347.682 307.536 347.71H302.552C302.594 348.746 303.406 349.488 304.414 349.488C305.394 349.488 305.898 348.97 306.122 348.298ZM315.153 343.86L312.479 350.678H310.855L308.083 343.86H309.875L311.681 348.732L313.445 343.86H315.153ZM317.278 346.52H320.624C320.596 345.722 320.064 345.008 318.944 345.008C317.922 345.008 317.334 345.792 317.278 346.52ZM320.806 348.298L322.178 348.732C321.814 349.922 320.736 350.888 319.098 350.888C317.25 350.888 315.612 349.544 315.612 347.234C315.612 345.078 317.208 343.65 318.93 343.65C321.03 343.65 322.262 345.036 322.262 347.192C322.262 347.458 322.234 347.682 322.22 347.71H317.236C317.278 348.746 318.09 349.488 319.098 349.488C320.078 349.488 320.582 348.97 320.806 348.298ZM325.438 350.678H323.814V340.542H325.438V350.678ZM330.528 349.432C331.536 349.432 332.432 348.69 332.432 347.262C332.432 345.848 331.536 345.12 330.528 345.12C329.534 345.12 328.624 345.848 328.624 347.262C328.624 348.676 329.534 349.432 330.528 349.432ZM330.528 343.65C332.572 343.65 334.07 345.176 334.07 347.262C334.07 349.362 332.572 350.888 330.528 350.888C328.498 350.888 327 349.362 327 347.262C327 345.176 328.498 343.65 330.528 343.65ZM337.25 353.338H335.64V343.86H337.208V344.784C337.544 344.196 338.328 343.706 339.378 343.706C341.394 343.706 342.528 345.246 342.528 347.262C342.528 349.306 341.282 350.846 339.322 350.846C338.342 350.846 337.6 350.426 337.25 349.908V353.338ZM340.904 347.262C340.904 345.988 340.162 345.148 339.07 345.148C338.006 345.148 337.236 345.988 337.236 347.262C337.236 348.564 338.006 349.404 339.07 349.404C340.148 349.404 340.904 348.564 340.904 347.262ZM345.699 350.678H344.089V343.86H345.643V344.728C346.035 344.028 346.889 343.664 347.659 343.664C348.555 343.664 349.339 344.07 349.703 344.868C350.235 343.972 351.033 343.664 351.915 343.664C353.147 343.664 354.323 344.448 354.323 346.254V350.678H352.755V346.52C352.755 345.722 352.349 345.12 351.439 345.12C350.585 345.12 350.025 345.792 350.025 346.632V350.678H348.429V346.52C348.429 345.736 348.037 345.12 347.113 345.12C346.245 345.12 345.699 345.764 345.699 346.632V350.678ZM357.446 346.52H360.792C360.764 345.722 360.232 345.008 359.112 345.008C358.09 345.008 357.502 345.792 357.446 346.52ZM360.974 348.298L362.346 348.732C361.982 349.922 360.904 350.888 359.266 350.888C357.418 350.888 355.78 349.544 355.78 347.234C355.78 345.078 357.376 343.65 359.098 343.65C361.198 343.65 362.43 345.036 362.43 347.192C362.43 347.458 362.402 347.682 362.388 347.71H357.404C357.446 348.746 358.258 349.488 359.266 349.488C360.246 349.488 360.75 348.97 360.974 348.298ZM365.606 346.744V350.678H363.982V343.86H365.564V344.77C366.012 343.986 366.824 343.664 367.58 343.664C369.246 343.664 370.044 344.868 370.044 346.366V350.678H368.42V346.646C368.42 345.806 368.042 345.134 367.02 345.134C366.096 345.134 365.606 345.848 365.606 346.744ZM374.079 341.774V343.86H375.493V345.302H374.079V348.466C374.079 349.068 374.345 349.32 374.947 349.32C375.171 349.32 375.437 349.278 375.507 349.264V350.608C375.409 350.65 375.101 350.762 374.513 350.762C373.253 350.762 372.469 350.006 372.469 348.732V345.302H371.209V343.86H371.559C372.287 343.86 372.609 343.398 372.609 342.796V341.774H374.079Z" fill="white"/>
<path d="M363.21 291.851H364.96C366.024 291.851 366.668 291.263 366.668 290.325C366.668 289.373 366.024 288.771 364.96 288.771H363.21V291.851ZM365.212 293.335H363.21V297.213H361.53V287.287H365.212C367.116 287.287 368.376 288.575 368.376 290.311C368.376 292.061 367.116 293.335 365.212 293.335ZM373.624 290.353V292.005C373.442 291.977 373.26 291.963 373.092 291.963C371.832 291.963 371.258 292.691 371.258 293.965V297.213H369.634V290.395H371.216V291.487C371.538 290.745 372.294 290.311 373.19 290.311C373.386 290.311 373.554 290.339 373.624 290.353ZM377.907 295.967C378.915 295.967 379.811 295.225 379.811 293.797C379.811 292.383 378.915 291.655 377.907 291.655C376.913 291.655 376.003 292.383 376.003 293.797C376.003 295.211 376.913 295.967 377.907 295.967ZM377.907 290.185C379.951 290.185 381.449 291.711 381.449 293.797C381.449 295.897 379.951 297.423 377.907 297.423C375.877 297.423 374.379 295.897 374.379 293.797C374.379 291.711 375.877 290.185 377.907 290.185ZM384.111 293.783C384.111 295.085 384.839 295.953 385.945 295.953C387.009 295.953 387.751 295.071 387.751 293.769C387.751 292.467 387.023 291.655 385.959 291.655C384.895 291.655 384.111 292.481 384.111 293.783ZM389.319 287.077V295.967C389.319 296.583 389.375 297.101 389.389 297.213H387.835C387.807 297.059 387.765 296.611 387.765 296.331C387.443 296.905 386.729 297.381 385.763 297.381C383.803 297.381 382.487 295.841 382.487 293.783C382.487 291.823 383.817 290.213 385.735 290.213C386.925 290.213 387.527 290.759 387.737 291.193V287.077H389.319ZM395.838 296.457C395.502 297.073 394.704 297.409 393.906 297.409C392.282 297.409 391.33 296.205 391.33 294.693V290.395H392.954V294.399C392.954 295.239 393.346 295.953 394.326 295.953C395.264 295.953 395.754 295.323 395.754 294.427V290.395H397.378V295.967C397.378 296.527 397.42 296.961 397.448 297.213H395.894C395.866 297.059 395.838 296.737 395.838 296.457ZM402.407 291.683C401.413 291.683 400.531 292.425 400.531 293.797C400.531 295.169 401.413 295.939 402.435 295.939C403.499 295.939 403.989 295.197 404.143 294.679L405.571 295.197C405.249 296.261 404.227 297.423 402.435 297.423C400.433 297.423 398.907 295.869 398.907 293.797C398.907 291.697 400.433 290.185 402.393 290.185C404.227 290.185 405.235 291.333 405.515 292.425L404.059 292.957C403.905 292.355 403.443 291.683 402.407 291.683ZM409.071 288.309V290.395H410.485V291.837H409.071V295.001C409.071 295.603 409.337 295.855 409.939 295.855C410.163 295.855 410.429 295.813 410.499 295.799V297.143C410.401 297.185 410.093 297.297 409.505 297.297C408.245 297.297 407.461 296.541 407.461 295.267V291.837H406.201V290.395H406.551C407.279 290.395 407.601 289.933 407.601 289.331V288.309H409.071ZM422.865 288.869H419.631V297.213H417.951V288.869H414.731V287.287H422.865V288.869ZM423.911 293.055H427.257C427.229 292.257 426.697 291.543 425.577 291.543C424.555 291.543 423.967 292.327 423.911 293.055ZM427.439 294.833L428.811 295.267C428.447 296.457 427.369 297.423 425.731 297.423C423.883 297.423 422.245 296.079 422.245 293.769C422.245 291.613 423.841 290.185 425.563 290.185C427.663 290.185 428.895 291.571 428.895 293.727C428.895 293.993 428.867 294.217 428.853 294.245H423.869C423.911 295.281 424.723 296.023 425.731 296.023C426.711 296.023 427.215 295.505 427.439 294.833ZM429.844 295.365L431.258 294.973C431.314 295.589 431.776 296.135 432.644 296.135C433.316 296.135 433.666 295.771 433.666 295.351C433.666 294.987 433.414 294.707 432.868 294.595L431.86 294.371C430.656 294.105 430.026 293.321 430.026 292.383C430.026 291.193 431.118 290.185 432.532 290.185C434.436 290.185 435.052 291.417 435.164 292.089L433.792 292.481C433.736 292.089 433.442 291.459 432.532 291.459C431.958 291.459 431.552 291.823 431.552 292.243C431.552 292.607 431.818 292.873 432.238 292.957L433.274 293.167C434.562 293.447 435.234 294.231 435.234 295.239C435.234 296.275 434.394 297.423 432.658 297.423C430.684 297.423 429.928 296.135 429.844 295.365ZM438.903 288.309V290.395H440.317V291.837H438.903V295.001C438.903 295.603 439.169 295.855 439.771 295.855C439.995 295.855 440.261 295.813 440.331 295.799V297.143C440.233 297.185 439.925 297.297 439.337 297.297C438.077 297.297 437.293 296.541 437.293 295.267V291.837H436.033V290.395H436.383C437.111 290.395 437.433 289.933 437.433 289.331V288.309H438.903ZM443.596 297.213H441.986V290.395H443.596V297.213ZM441.734 288.001C441.734 287.413 442.21 286.937 442.784 286.937C443.372 286.937 443.848 287.413 443.848 288.001C443.848 288.589 443.372 289.051 442.784 289.051C442.21 289.051 441.734 288.589 441.734 288.001ZM447.315 293.279V297.213H445.691V290.395H447.273V291.305C447.721 290.521 448.533 290.199 449.289 290.199C450.955 290.199 451.753 291.403 451.753 292.901V297.213H450.129V293.181C450.129 292.341 449.751 291.669 448.729 291.669C447.805 291.669 447.315 292.383 447.315 293.279ZM453.24 297.591L454.738 297.199C454.85 298.039 455.508 298.669 456.446 298.669C457.734 298.669 458.378 298.011 458.378 296.625V295.911C458.084 296.443 457.398 296.905 456.404 296.905C454.584 296.905 453.254 295.505 453.254 293.587C453.254 291.767 454.528 290.269 456.404 290.269C457.468 290.269 458.126 290.703 458.42 291.263V290.395H459.988V296.569C459.988 298.389 459.05 300.083 456.488 300.083C454.682 300.083 453.422 298.963 453.24 297.591ZM456.67 295.519C457.706 295.519 458.42 294.763 458.42 293.587C458.42 292.425 457.678 291.669 456.67 291.669C455.634 291.669 454.892 292.425 454.892 293.587C454.892 294.777 455.606 295.519 456.67 295.519Z" fill="white"/>
<path d="M462.354 243.958C459.68 243.958 457.342 242.026 457.342 238.792C457.342 235.558 459.764 233.612 462.34 233.612C464.86 233.612 466.358 235.096 466.806 236.832L465.224 237.364C464.93 236.16 464.006 235.194 462.34 235.194C460.702 235.194 459.064 236.384 459.064 238.792C459.064 241.116 460.66 242.348 462.354 242.348C464.02 242.348 464.972 241.284 465.308 240.164L466.848 240.668C466.4 242.348 464.888 243.958 462.354 243.958ZM469.901 243.748H468.277V233.612H469.901V243.748ZM473.605 243.748H471.995V236.93H473.605V243.748ZM471.743 234.536C471.743 233.948 472.219 233.472 472.793 233.472C473.381 233.472 473.857 233.948 473.857 234.536C473.857 235.124 473.381 235.586 472.793 235.586C472.219 235.586 471.743 235.124 471.743 234.536ZM476.834 239.59H480.18C480.152 238.792 479.62 238.078 478.5 238.078C477.478 238.078 476.89 238.862 476.834 239.59ZM480.362 241.368L481.734 241.802C481.37 242.992 480.292 243.958 478.654 243.958C476.806 243.958 475.168 242.614 475.168 240.304C475.168 238.148 476.764 236.72 478.486 236.72C480.586 236.72 481.818 238.106 481.818 240.262C481.818 240.528 481.79 240.752 481.776 240.78H476.792C476.834 241.816 477.646 242.558 478.654 242.558C479.634 242.558 480.138 242.04 480.362 241.368ZM484.994 239.814V243.748H483.37V236.93H484.952V237.84C485.4 237.056 486.212 236.734 486.968 236.734C488.634 236.734 489.432 237.938 489.432 239.436V243.748H487.808V239.716C487.808 238.876 487.43 238.204 486.408 238.204C485.484 238.204 484.994 238.918 484.994 239.814ZM493.467 234.844V236.93H494.881V238.372H493.467V241.536C493.467 242.138 493.733 242.39 494.335 242.39C494.559 242.39 494.825 242.348 494.895 242.334V243.678C494.797 243.72 494.489 243.832 493.901 243.832C492.641 243.832 491.857 243.076 491.857 241.802V238.372H490.597V236.93H490.947C491.675 236.93 491.997 236.468 491.997 235.866V234.844H493.467ZM506.659 236.146L505.147 236.622C505.049 236.006 504.531 235.096 503.201 235.096C502.193 235.096 501.493 235.768 501.493 236.524C501.493 237.154 501.885 237.63 502.655 237.798L504.083 238.092C505.833 238.442 506.771 239.548 506.771 240.948C506.771 242.488 505.525 243.958 503.257 243.958C500.737 243.958 499.575 242.334 499.421 240.906L500.989 240.458C501.087 241.494 501.829 242.446 503.257 242.446C504.447 242.446 505.063 241.844 505.063 241.074C505.063 240.43 504.587 239.912 503.733 239.73L502.333 239.436C500.821 239.128 499.813 238.134 499.813 236.65C499.813 234.984 501.339 233.612 503.187 233.612C505.525 233.612 506.435 235.04 506.659 236.146ZM507.915 241.9C507.915 240.682 508.811 240.01 509.973 239.842L511.723 239.576C512.115 239.52 512.227 239.324 512.227 239.086C512.227 238.512 511.835 238.05 510.939 238.05C510.085 238.05 509.609 238.596 509.539 239.282L508.055 238.946C508.181 237.77 509.245 236.72 510.925 236.72C513.025 236.72 513.823 237.91 513.823 239.268V242.656C513.823 243.272 513.893 243.678 513.907 243.748H512.395C512.381 243.706 512.325 243.426 512.325 242.88C512.003 243.398 511.331 243.958 510.225 243.958C508.797 243.958 507.915 242.978 507.915 241.9ZM510.533 242.684C511.443 242.684 512.227 242.25 512.227 240.92V240.612L510.449 240.878C509.945 240.962 509.539 241.242 509.539 241.802C509.539 242.264 509.889 242.684 510.533 242.684ZM517.817 234.844V236.93H519.231V238.372H517.817V241.536C517.817 242.138 518.083 242.39 518.685 242.39C518.909 242.39 519.175 242.348 519.245 242.334V243.678C519.147 243.72 518.839 243.832 518.251 243.832C516.991 243.832 516.207 243.076 516.207 241.802V238.372H514.947V236.93H515.297C516.025 236.93 516.347 236.468 516.347 235.866V234.844H517.817ZM522.51 243.748H520.9V236.93H522.51V243.748ZM520.648 234.536C520.648 233.948 521.124 233.472 521.698 233.472C522.286 233.472 522.762 233.948 522.762 234.536C522.762 235.124 522.286 235.586 521.698 235.586C521.124 235.586 520.648 235.124 520.648 234.536ZM524.003 241.9L525.417 241.508C525.473 242.124 525.935 242.67 526.803 242.67C527.475 242.67 527.825 242.306 527.825 241.886C527.825 241.522 527.573 241.242 527.027 241.13L526.019 240.906C524.815 240.64 524.185 239.856 524.185 238.918C524.185 237.728 525.277 236.72 526.691 236.72C528.595 236.72 529.211 237.952 529.323 238.624L527.951 239.016C527.895 238.624 527.601 237.994 526.691 237.994C526.117 237.994 525.711 238.358 525.711 238.778C525.711 239.142 525.977 239.408 526.397 239.492L527.433 239.702C528.721 239.982 529.393 240.766 529.393 241.774C529.393 242.81 528.553 243.958 526.817 243.958C524.843 243.958 524.087 242.67 524.003 241.9ZM533.761 233.542C534.167 233.542 534.503 233.626 534.615 233.682V235.068C534.517 235.04 534.335 234.998 534.027 234.998C533.607 234.998 533.019 235.194 533.019 236.034V236.93H537.555V243.748H535.959V238.344H533.019V243.748H531.381V238.344H530.191V236.93H531.381V235.992C531.381 234.466 532.361 233.542 533.761 233.542ZM535.707 234.522C535.707 233.934 536.169 233.458 536.757 233.458C537.345 233.458 537.821 233.934 537.821 234.522C537.821 235.096 537.345 235.572 536.757 235.572C536.169 235.572 535.707 235.096 535.707 234.522ZM542.639 238.218C541.645 238.218 540.763 238.96 540.763 240.332C540.763 241.704 541.645 242.474 542.667 242.474C543.731 242.474 544.221 241.732 544.375 241.214L545.803 241.732C545.481 242.796 544.459 243.958 542.667 243.958C540.665 243.958 539.139 242.404 539.139 240.332C539.139 238.232 540.665 236.72 542.625 236.72C544.459 236.72 545.467 237.868 545.747 238.96L544.291 239.492C544.137 238.89 543.675 238.218 542.639 238.218ZM546.784 241.9C546.784 240.682 547.68 240.01 548.842 239.842L550.592 239.576C550.984 239.52 551.096 239.324 551.096 239.086C551.096 238.512 550.704 238.05 549.808 238.05C548.954 238.05 548.478 238.596 548.408 239.282L546.924 238.946C547.05 237.77 548.114 236.72 549.794 236.72C551.894 236.72 552.692 237.91 552.692 239.268V242.656C552.692 243.272 552.762 243.678 552.776 243.748H551.264C551.25 243.706 551.194 243.426 551.194 242.88C550.872 243.398 550.2 243.958 549.094 243.958C547.666 243.958 546.784 242.978 546.784 241.9ZM549.402 242.684C550.312 242.684 551.096 242.25 551.096 240.92V240.612L549.318 240.878C548.814 240.962 548.408 241.242 548.408 241.802C548.408 242.264 548.758 242.684 549.402 242.684ZM556.686 234.844V236.93H558.1V238.372H556.686V241.536C556.686 242.138 556.952 242.39 557.554 242.39C557.778 242.39 558.044 242.348 558.114 242.334V243.678C558.016 243.72 557.708 243.832 557.12 243.832C555.86 243.832 555.076 243.076 555.076 241.802V238.372H553.816V236.93H554.166C554.894 236.93 555.216 236.468 555.216 235.866V234.844H556.686ZM561.379 243.748H559.769V236.93H561.379V243.748ZM559.517 234.536C559.517 233.948 559.993 233.472 560.567 233.472C561.155 233.472 561.631 233.948 561.631 234.536C561.631 235.124 561.155 235.586 560.567 235.586C559.993 235.586 559.517 235.124 559.517 234.536ZM566.47 242.502C567.478 242.502 568.374 241.76 568.374 240.332C568.374 238.918 567.478 238.19 566.47 238.19C565.476 238.19 564.566 238.918 564.566 240.332C564.566 241.746 565.476 242.502 566.47 242.502ZM566.47 236.72C568.514 236.72 570.012 238.246 570.012 240.332C570.012 242.432 568.514 243.958 566.47 243.958C564.44 243.958 562.942 242.432 562.942 240.332C562.942 238.246 564.44 236.72 566.47 236.72ZM573.205 239.814V243.748H571.581V236.93H573.163V237.84C573.611 237.056 574.423 236.734 575.179 236.734C576.845 236.734 577.643 237.938 577.643 239.436V243.748H576.019V239.716C576.019 238.876 575.641 238.204 574.619 238.204C573.695 238.204 573.205 238.918 573.205 239.814Z" fill="white"/>
<path d="M214.002 96.736C213.887 96.736 213.773 96.6944 213.684 96.6111C213.495 96.4362 213.485 96.1406 213.661 95.9512C242.005 65.4687 269.528 52.6633 287.626 47.29C307.263 41.4588 320.389 42.8724 320.52 42.8869C320.775 42.9161 320.958 43.1472 320.929 43.4032C320.9 43.6593 320.667 43.8425 320.414 43.8134C320.285 43.7988 307.307 42.4081 287.836 48.1998C269.862 53.546 242.522 66.2807 214.342 96.5882C214.251 96.6861 214.126 96.736 214.002 96.736Z" fill="#00005B" fill-opacity="0.2"/>
<path d="M220.794 77.6788C220.666 77.6788 220.539 77.6268 220.446 77.5227C220.275 77.3291 220.292 77.0356 220.485 76.8628C251.493 49.2429 279.685 39.0501 297.875 35.3632C317.618 31.3598 330.206 33.9454 330.33 33.9725C330.582 34.0266 330.744 34.2744 330.69 34.5263C330.636 34.7782 330.391 34.9385 330.137 34.8864C330.015 34.8594 317.57 32.3133 298.001 36.2917C279.936 39.9641 251.931 50.1027 221.102 77.5623C221.012 77.6414 220.902 77.6809 220.792 77.6809L220.794 77.6788Z" fill="#00005B" fill-opacity="0.2"/>
<path d="M344.897 28.5243C344.845 28.5243 344.793 28.5243 344.741 28.5202C343.431 28.4452 342.677 27.4459 341.948 26.4779C341.261 25.566 340.61 24.7062 339.522 24.5292C338.218 24.319 337.163 25.2641 336.048 26.2634C334.822 27.3606 333.559 28.4973 331.821 28.237C330.284 28.008 329.441 26.811 328.695 25.7575C327.981 24.7478 327.366 23.8735 326.288 23.8381C325.374 23.8068 324.649 24.3981 323.889 25.0226C322.996 25.7555 321.985 26.584 320.587 26.2967C319.856 26.1468 319.401 25.7721 319 25.4411C318.606 25.1163 318.294 24.8582 317.756 24.8311C316.898 24.7874 315.972 25.3557 315.013 26.5195C314.849 26.7173 314.556 26.7464 314.356 26.582C314.159 26.4175 314.13 26.1239 314.294 25.9241C315.453 24.5209 316.628 23.836 317.804 23.8984C318.647 23.9422 319.15 24.3544 319.592 24.7187C319.956 25.0185 320.269 25.2766 320.774 25.3807C321.738 25.5785 322.46 24.9852 323.299 24.2982C324.122 23.6236 325.057 22.8575 326.319 22.9033C327.858 22.9554 328.67 24.1046 329.455 25.2163C330.155 26.2072 330.816 27.142 331.958 27.3127C333.26 27.5063 334.313 26.5653 335.427 25.5681C336.656 24.4668 337.929 23.328 339.67 23.6091C341.128 23.8443 341.958 24.9456 342.689 25.9158C343.346 26.786 343.913 27.5375 344.793 27.5896C346.033 27.6645 347.473 26.3113 348.953 23.6861C349.08 23.4613 349.365 23.3822 349.589 23.5091C349.813 23.6361 349.892 23.9213 349.765 24.1462C348.104 27.092 346.509 28.5264 344.897 28.5264V28.5243Z" fill="#00005B" fill-opacity="0.2"/>
<path d="M579.533 160.641C579.51 160.641 579.487 160.641 579.464 160.637C579.209 160.599 579.034 160.362 579.071 160.106L579.605 156.523C579.643 156.267 579.884 156.094 580.135 156.129C580.39 156.167 580.565 156.404 580.527 156.66L579.994 160.243C579.958 160.474 579.761 160.641 579.533 160.641Z" fill="url(#paint31_linear_697_5937)"/>
<path d="M578.29 168.985C578.268 168.985 578.245 168.985 578.222 168.981C577.966 168.943 577.792 168.704 577.829 168.45L578.363 164.867C578.4 164.611 578.639 164.436 578.893 164.474C579.148 164.511 579.323 164.748 579.285 165.004L578.751 168.587C578.716 168.818 578.519 168.985 578.29 168.985Z" fill="url(#paint32_linear_697_5937)"/>
<path d="M576.802 162.667C576.779 162.667 576.757 162.667 576.734 162.662L573.159 162.127C572.904 162.09 572.729 161.853 572.767 161.597C572.804 161.34 573.043 161.166 573.296 161.203L576.871 161.738C577.126 161.776 577.301 162.013 577.263 162.269C577.228 162.5 577.031 162.667 576.802 162.667Z" fill="url(#paint33_linear_697_5937)"/>
<path d="M585.13 163.911C585.107 163.911 585.085 163.911 585.062 163.907L581.487 163.372C581.232 163.335 581.058 163.097 581.095 162.841C581.132 162.585 581.371 162.41 581.624 162.448L585.199 162.983C585.454 163.02 585.629 163.26 585.591 163.514C585.556 163.745 585.359 163.911 585.13 163.911Z" fill="url(#paint34_linear_697_5937)"/>
<path d="M337.237 52.7126C336.186 52.7126 335.165 52.3629 334.309 51.6988C332.211 50.0687 331.781 47.0334 333.354 44.9328C334.11 43.921 335.214 43.2715 336.463 43.1028C337.736 42.9321 339.003 43.2756 340.031 44.0751C342.131 45.7051 342.558 48.7405 340.986 50.8411C340.23 51.8528 339.125 52.5024 337.877 52.671C337.663 52.7002 337.449 52.7147 337.237 52.7147V52.7126ZM334.099 45.4907C332.83 47.1874 333.181 49.6398 334.88 50.9597C335.709 51.603 336.728 51.8841 337.752 51.7446C338.751 51.6093 339.636 51.0888 340.241 50.279C341.51 48.5823 341.159 46.1298 339.46 44.81C338.631 44.1667 337.609 43.8877 336.587 44.0251C335.588 44.1604 334.704 44.6809 334.099 45.4907Z" fill="#00005B" fill-opacity="0.2"/>
</g>
<defs>
<filter id="filter0_d_697_5937" x="0" y="0" width="616" height="486.284" filterUnits="userSpaceOnUse" color-interpolation-filters="sRGB">
<feFlood flood-opacity="0" result="BackgroundImageFix"/>
<feColorMatrix in="SourceAlpha" type="matrix" values="0 0 0 0 0 0 0 0 0 0 0 0 0 0 0 0 0 0 127 0" result="hardAlpha"/>
<feOffset dx="2" dy="2"/>
<feGaussianBlur stdDeviation="5"/>
<feComposite in2="hardAlpha" operator="out"/>
<feColorMatrix type="matrix" values="0 0 0 0 0 0 0 0 0 0 0 0 0 0 0.356863 0 0 0 0.2 0"/>
<feBlend mode="normal" in2="BackgroundImageFix" result="effect1_dropShadow_697_5937"/>
<feBlend mode="normal" in="SourceGraphic" in2="effect1_dropShadow_697_5937" result="shape"/>
</filter>
<linearGradient id="paint0_linear_697_5937" x1="528.191" y1="178.777" x2="517.221" y2="178.777" gradientUnits="userSpaceOnUse">
<stop stop-color="#0099D6"/>
<stop offset="1" stop-color="#00B8A2"/>
</linearGradient>
<linearGradient id="paint1_linear_697_5937" x1="532.488" y1="189.176" x2="513.032" y2="189.176" gradientUnits="userSpaceOnUse">
<stop stop-color="#0099D6"/>
<stop offset="1" stop-color="#00B8A2"/>
</linearGradient>
<linearGradient id="paint2_linear_697_5937" x1="542.758" y1="194.85" x2="502.768" y2="194.85" gradientUnits="userSpaceOnUse">
<stop stop-color="#0099D6"/>
<stop offset="1" stop-color="#00B8A2"/>
</linearGradient>
<linearGradient id="paint3_linear_697_5937" x1="571.57" y1="135.053" x2="528.131" y2="135.053" gradientUnits="userSpaceOnUse">
<stop stop-color="#0099D6"/>
<stop offset="1" stop-color="#00B8A2"/>
</linearGradient>
<linearGradient id="paint4_linear_697_5937" x1="517.027" y1="134.737" x2="474.282" y2="134.737" gradientUnits="userSpaceOnUse">
<stop stop-color="#0099D6"/>
<stop offset="1" stop-color="#00B8A2"/>
</linearGradient>
<linearGradient id="paint5_linear_697_5937" x1="557.137" y1="133.079" x2="488.437" y2="133.079" gradientUnits="userSpaceOnUse">
<stop stop-color="#0099D6"/>
<stop offset="1" stop-color="#00B8A2"/>
</linearGradient>
<linearGradient id="paint6_linear_697_5937" x1="497.395" y1="120.673" x2="492.89" y2="120.673" gradientUnits="userSpaceOnUse">
<stop stop-color="#0099D6"/>
<stop offset="1" stop-color="#00B8A2"/>
</linearGradient>
<linearGradient id="paint7_linear_697_5937" x1="522.387" y1="154.926" x2="500.208" y2="154.926" gradientUnits="userSpaceOnUse">
<stop stop-color="#0099D6"/>
<stop offset="1" stop-color="#00B8A2"/>
</linearGradient>
<linearGradient id="paint8_linear_697_5937" x1="560.473" y1="96.9327" x2="484.442" y2="96.9327" gradientUnits="userSpaceOnUse">
<stop stop-color="#0099D6"/>
<stop offset="1" stop-color="#00B8A2"/>
</linearGradient>
<linearGradient id="paint9_linear_697_5937" x1="508.27" y1="96.0672" x2="493.546" y2="96.0672" gradientUnits="userSpaceOnUse">
<stop stop-color="#0099D6"/>
<stop offset="1" stop-color="#00B8A2"/>
</linearGradient>
<linearGradient id="paint10_linear_697_5937" x1="519.836" y1="96.2318" x2="511.37" y2="96.2318" gradientUnits="userSpaceOnUse">
<stop stop-color="#0099D6"/>
<stop offset="1" stop-color="#00B8A2"/>
</linearGradient>
<linearGradient id="paint11_linear_697_5937" x1="244.648" y1="122.344" x2="371.735" y2="122.344" gradientUnits="userSpaceOnUse">
<stop stop-color="#0099D6"/>
<stop offset="1" stop-color="#00B8A2"/>
</linearGradient>
<linearGradient id="paint12_linear_697_5937" x1="358.062" y1="52.5388" x2="447.11" y2="52.5388" gradientUnits="userSpaceOnUse">
<stop stop-color="#0099D6"/>
<stop offset="1" stop-color="#00B8A2"/>
</linearGradient>
<linearGradient id="paint13_linear_697_5937" x1="34.3828" y1="408.621" x2="48.0461" y2="408.621" gradientUnits="userSpaceOnUse">
<stop stop-color="#0099D6"/>
<stop offset="1" stop-color="#00B8A2"/>
</linearGradient>
<linearGradient id="paint14_linear_697_5937" x1="31.4648" y1="421.761" x2="70.0014" y2="421.761" gradientUnits="userSpaceOnUse">
<stop stop-color="#0099D6"/>
<stop offset="1" stop-color="#00B8A2"/>
</linearGradient>
<linearGradient id="paint15_linear_697_5937" x1="31.4648" y1="426.998" x2="69.9637" y2="426.998" gradientUnits="userSpaceOnUse">
<stop stop-color="#0099D6"/>
<stop offset="1" stop-color="#00B8A2"/>
</linearGradient>
<linearGradient id="paint16_linear_697_5937" x1="48.8047" y1="418.659" x2="54.3984" y2="418.659" gradientUnits="userSpaceOnUse">
<stop stop-color="#0099D6"/>
<stop offset="1" stop-color="#00B8A2"/>
</linearGradient>
<linearGradient id="paint17_linear_697_5937" x1="53.1523" y1="419.497" x2="57.8545" y2="419.497" gradientUnits="userSpaceOnUse">
<stop stop-color="#0099D6"/>
<stop offset="1" stop-color="#00B8A2"/>
</linearGradient>
<linearGradient id="paint18_linear_697_5937" x1="33.5" y1="331.04" x2="99.2442" y2="331.04" gradientUnits="userSpaceOnUse">
<stop stop-color="#0099D6"/>
<stop offset="1" stop-color="#00B8A2"/>
</linearGradient>
<linearGradient id="paint19_linear_697_5937" x1="128.598" y1="355.173" x2="144.441" y2="355.173" gradientUnits="userSpaceOnUse">
<stop stop-color="#0099D6"/>
<stop offset="1" stop-color="#00B8A2"/>
</linearGradient>
<linearGradient id="paint20_linear_697_5937" x1="125.406" y1="368.379" x2="165.306" y2="368.379" gradientUnits="userSpaceOnUse">
<stop stop-color="#0099D6"/>
<stop offset="1" stop-color="#00B8A2"/>
</linearGradient>
<linearGradient id="paint21_linear_697_5937" x1="125.723" y1="373.571" x2="165.273" y2="373.571" gradientUnits="userSpaceOnUse">
<stop stop-color="#0099D6"/>
<stop offset="1" stop-color="#00B8A2"/>
</linearGradient>
<linearGradient id="paint22_linear_697_5937" x1="144.117" y1="365.27" x2="149.711" y2="365.27" gradientUnits="userSpaceOnUse">
<stop stop-color="#0099D6"/>
<stop offset="1" stop-color="#00B8A2"/>
</linearGradient>
<linearGradient id="paint23_linear_697_5937" x1="148.461" y1="366.106" x2="153.163" y2="366.106" gradientUnits="userSpaceOnUse">
<stop stop-color="#0099D6"/>
<stop offset="1" stop-color="#00B8A2"/>
</linearGradient>
<linearGradient id="paint24_linear_697_5937" x1="89.9766" y1="302.647" x2="175.705" y2="302.647" gradientUnits="userSpaceOnUse">
<stop stop-color="#00B8A2"/>
<stop offset="1" stop-color="#0099D6"/>
</linearGradient>
<linearGradient id="paint25_linear_697_5937" x1="8.00391" y1="270.87" x2="30.5783" y2="270.87" gradientUnits="userSpaceOnUse">
<stop stop-color="#0099D6"/>
<stop offset="1" stop-color="#00B8A2"/>
</linearGradient>
<linearGradient id="paint26_linear_697_5937" x1="18.3437" y1="213.657" x2="195.515" y2="213.657" gradientUnits="userSpaceOnUse">
<stop stop-color="#0099D6"/>
<stop offset="1" stop-color="#00B8A2"/>
</linearGradient>
<linearGradient id="paint27_linear_697_5937" x1="187.293" y1="162.193" x2="217.48" y2="162.193" gradientUnits="userSpaceOnUse">
<stop stop-color="#0099D6"/>
<stop offset="1" stop-color="#00B8A2"/>
</linearGradient>
<linearGradient id="paint28_linear_697_5937" x1="92.7422" y1="166.658" x2="126.75" y2="166.658" gradientUnits="userSpaceOnUse">
<stop stop-color="#0099D6"/>
<stop offset="1" stop-color="#00B8A2"/>
</linearGradient>
<linearGradient id="paint29_linear_697_5937" x1="107.969" y1="150.778" x2="137.491" y2="150.778" gradientUnits="userSpaceOnUse">
<stop stop-color="#0099D6"/>
<stop offset="1" stop-color="#00B8A2"/>
</linearGradient>
<linearGradient id="paint30_linear_697_5937" x1="104.707" y1="145.151" x2="133.465" y2="145.151" gradientUnits="userSpaceOnUse">
<stop stop-color="#0099D6"/>
<stop offset="1" stop-color="#00B8A2"/>
</linearGradient>
<linearGradient id="paint31_linear_697_5937" x1="579.066" y1="158.383" x2="580.532" y2="158.383" gradientUnits="userSpaceOnUse">
<stop stop-color="#0099D6"/>
<stop offset="1" stop-color="#00B8A2"/>
</linearGradient>
<linearGradient id="paint32_linear_697_5937" x1="577.824" y1="166.727" x2="579.29" y2="166.727" gradientUnits="userSpaceOnUse">
<stop stop-color="#0099D6"/>
<stop offset="1" stop-color="#00B8A2"/>
</linearGradient>
<linearGradient id="paint33_linear_697_5937" x1="572.762" y1="161.932" x2="577.268" y2="161.932" gradientUnits="userSpaceOnUse">
<stop stop-color="#0099D6"/>
<stop offset="1" stop-color="#00B8A2"/>
</linearGradient>
<linearGradient id="paint34_linear_697_5937" x1="581.09" y1="163.177" x2="585.596" y2="163.177" gradientUnits="userSpaceOnUse">
<stop stop-color="#0099D6"/>
<stop offset="1" stop-color="#00B8A2"/>
</linearGradient>
</defs>
</svg>
