<svg width="69" height="67" viewBox="0 0 69 67" fill="none" xmlns="http://www.w3.org/2000/svg">
<g filter="url(#filter0_d_166_2209)">
<path d="M43.4844 19.9278L36.2721 18.8798L33.0466 12.3444C31.8013 9.82067 28.1988 9.81973 26.9529 12.3443L23.7274 18.8798L16.5151 19.9278C13.7301 20.3324 12.6162 23.7581 14.632 25.7233L19.851 30.8104L18.619 37.9935C18.1432 40.7671 21.0567 42.8852 23.5489 41.5754L29.9997 38.1838L36.4507 41.5754C38.9459 42.8869 41.8552 40.7608 41.3804 37.9935L40.1484 30.8104L45.3674 25.7233C47.3825 23.7588 46.2705 20.3327 43.4844 19.9278Z" fill="#00005B"/>
<path d="M19.6531 11.1805L17.9116 8.78358C17.4388 8.13307 16.5282 7.98879 15.8777 8.46157C15.2271 8.93427 15.0829 9.84493 15.5556 10.4955L17.2971 12.8924C17.7701 13.5433 18.6809 13.6871 19.3311 13.2145C19.9816 12.7418 20.1258 11.8311 19.6531 11.1805Z" fill="#00005B"/>
<path d="M13.8736 32.6609C13.6251 31.8962 12.8038 31.4772 12.0388 31.726L9.16376 32.6602C8.39892 32.9086 7.98041 33.7302 8.22887 34.4951C8.47785 35.2614 9.30088 35.6782 10.0638 35.43L12.9388 34.4958C13.7037 34.2474 14.1222 33.4258 13.8736 32.6609Z" fill="#00005B"/>
<path d="M44.1231 8.4616C43.4726 7.98882 42.5619 8.13301 42.0891 8.78361L40.3476 11.1805C39.8748 11.8311 40.0191 12.7419 40.6697 13.2145C41.3205 13.6873 42.231 13.5428 42.7036 12.8925L44.4452 10.4955C44.918 9.84495 44.7737 8.93429 44.1231 8.4616Z" fill="#00005B"/>
<path d="M50.8368 32.6603L47.9618 31.7261C47.1969 31.4771 46.3754 31.8961 46.1269 32.661C45.8783 33.4258 46.2968 34.2473 47.0618 34.4959L49.9368 35.4301C50.7001 35.6784 51.5228 35.2611 51.7717 34.4952C52.0202 33.7303 51.6017 32.9088 50.8368 32.6603Z" fill="#00005B"/>
<path d="M30.0006 43.9497C29.1964 43.9497 28.5444 44.6016 28.5444 45.4058V48.3613C28.5444 49.1654 29.1964 49.8174 30.0006 49.8174C30.8047 49.8174 31.4567 49.1654 31.4567 48.3613V45.4058C31.4568 44.6016 30.8048 43.9497 30.0006 43.9497Z" fill="#00005B"/>
</g>
<defs>
<filter id="filter0_d_166_2209" x="0.895031" y="0.921124" width="67.8934" height="65.8414" filterUnits="userSpaceOnUse" color-interpolation-filters="sRGB">
<feFlood flood-opacity="0" result="BackgroundImageFix"/>
<feColorMatrix in="SourceAlpha" type="matrix" values="0 0 0 0 0 0 0 0 0 0 0 0 0 0 0 0 0 0 127 0" result="hardAlpha"/>
<feOffset dx="4.84146" dy="4.84146"/>
<feGaussianBlur stdDeviation="6.05183"/>
<feComposite in2="hardAlpha" operator="out"/>
<feColorMatrix type="matrix" values="0 0 0 0 0 0 0 0 0 0 0 0 0 0 0 0 0 0 0.2 0"/>
<feBlend mode="normal" in2="BackgroundImageFix" result="effect1_dropShadow_166_2209"/>
<feBlend mode="normal" in="SourceGraphic" in2="effect1_dropShadow_166_2209" result="shape"/>
</filter>
</defs>
</svg>
