<svg width="69" height="69" viewBox="0 0 69 69" fill="none" xmlns="http://www.w3.org/2000/svg">
<g filter="url(#filter0_d_166_2200)">
<path d="M32.2078 36.2841H8.26074V37.5579C8.26074 39.6683 9.97159 41.3792 12.0821 41.3792H32.2078V36.2841Z" fill="#00005B"/>
<path d="M32.2078 43.9266H25.754V46.644H23.2753C22.7271 46.644 22.2402 46.9948 22.0669 47.515L21.2177 50.0626C20.9428 50.8874 21.5567 51.7391 22.4261 51.7391H32.8932C32.4582 50.9891 32.2078 50.1193 32.2078 49.1916V43.9266Z" fill="#00005B"/>
<path d="M47.9177 8.26106H12.0821C11.4921 8.26106 10.9336 8.39498 10.4347 8.63368L17.6018 15.8007V14.6299C17.6018 13.9265 18.1721 13.3562 18.8756 13.3562C19.579 13.3562 20.1493 13.9265 20.1493 14.6299V18.8759C20.1493 19.5793 19.579 20.1496 18.8756 20.1496H14.6296C13.9262 20.1496 13.3559 19.5793 13.3559 18.8759C13.3559 18.1724 13.9262 17.6021 14.6296 17.6021H15.8004L8.63336 10.435C8.39466 10.9339 8.26074 11.4925 8.26074 12.0824V33.7366H32.2078V27.113C32.2078 24.3035 34.4934 22.0179 37.3029 22.0179H49.1914C50.1192 22.0179 50.9889 22.2683 51.739 22.7033V12.0824C51.739 9.97192 50.0281 8.26106 47.9177 8.26106Z" fill="#00005B"/>
<path d="M49.191 24.5653H37.3024C37.0743 24.5653 36.8534 24.5957 36.643 24.652L42.8221 30.8312V29.6604C42.8221 28.9569 43.3925 28.3866 44.0959 28.3866C44.7994 28.3866 45.3697 28.9569 45.3697 29.6604V33.9063C45.3697 34.6098 44.7994 35.1801 44.0959 35.1801H39.85C39.1465 35.1801 38.5762 34.6098 38.5762 33.9063C38.5762 33.2029 39.1465 32.6325 39.85 32.6325H41.0208L34.8416 26.4533C34.7853 26.6637 34.7549 26.8847 34.7549 27.1128V49.1917C34.7549 50.5987 35.8954 51.7392 37.3024 51.7392H49.191C50.598 51.7392 51.7386 50.5987 51.7386 49.1917V27.1128C51.7386 25.7058 50.598 24.5653 49.191 24.5653Z" fill="#00005B"/>
</g>
<defs>
<filter id="filter0_d_166_2200" x="0.998547" y="0.998868" width="67.6853" height="67.6855" filterUnits="userSpaceOnUse" color-interpolation-filters="sRGB">
<feFlood flood-opacity="0" result="BackgroundImageFix"/>
<feColorMatrix in="SourceAlpha" type="matrix" values="0 0 0 0 0 0 0 0 0 0 0 0 0 0 0 0 0 0 127 0" result="hardAlpha"/>
<feOffset dx="4.84146" dy="4.84146"/>
<feGaussianBlur stdDeviation="6.05183"/>
<feComposite in2="hardAlpha" operator="out"/>
<feColorMatrix type="matrix" values="0 0 0 0 0 0 0 0 0 0 0 0 0 0 0 0 0 0 0.2 0"/>
<feBlend mode="normal" in2="BackgroundImageFix" result="effect1_dropShadow_166_2200"/>
<feBlend mode="normal" in="SourceGraphic" in2="effect1_dropShadow_166_2200" result="shape"/>
</filter>
</defs>
</svg>
