<svg width="30" height="30" viewBox="0 0 30 30" fill="none" xmlns="http://www.w3.org/2000/svg">
<g clip-path="url(#clip0_1616_3376)">
<path d="M30 15C30 6.7285 23.2715 -2.71488e-07 15 -6.05235e-07C6.72849 -9.38981e-07 -1.98755e-06 6.7285 -2.37924e-06 15C-2.77093e-06 23.2715 6.72967 30 15 30C23.2703 30 30 23.2715 30 15Z" fill="white"/>
<path d="M13.3954 21.6346L19.2049 15.8251C19.6557 15.3719 19.6557 14.64 19.2049 14.1868L13.3954 8.37737C12.9609 8.00442 12.3183 8.00442 11.8838 8.37737C11.3969 8.7945 11.34 9.52879 11.7572 10.0156L16.7416 15.0002L11.7571 19.9963C11.3063 20.4494 11.3063 21.1814 11.7571 21.6346C12.2103 22.0854 12.9423 22.0854 13.3954 21.6346Z" fill="#3B0098"/>
</g>
<defs>
<clipPath id="clip0_1616_3376">
<rect width="30" height="30" fill="white" transform="translate(30) rotate(90)"/>
</clipPath>
</defs>
</svg>
