<svg width="75" height="75" viewBox="0 0 75 75" fill="none" xmlns="http://www.w3.org/2000/svg">
<g filter="url(#filter0_d_166_2195)">
<path d="M57.756 30.1378C57.6771 29.435 56.8574 28.9063 56.1485 28.9063C53.8577 28.9063 51.8247 27.5618 50.9721 25.4807C50.1017 23.3497 50.6633 20.865 52.37 19.2992C52.9076 18.8077 52.9731 17.9847 52.5225 17.4134C51.3496 15.9244 50.0172 14.5792 48.5619 13.4135C47.9926 12.9568 47.156 13.0204 46.6619 13.5672C45.1718 15.2175 42.495 15.8308 40.4265 14.9678C38.2748 14.0624 36.9166 11.8812 37.05 9.54007C37.0939 8.80422 36.5559 8.16481 35.8227 8.0794C33.955 7.86316 32.071 7.85689 30.1979 8.06469C29.474 8.1447 28.9364 8.76897 28.9604 9.49552C29.0415 11.8138 27.668 13.9565 25.537 14.8294C23.4934 15.6643 20.8352 15.0556 19.3481 13.4198C18.8566 12.8809 18.0347 12.8147 17.4615 13.2617C15.9634 14.4374 14.6009 15.7834 13.4172 17.2603C12.956 17.8344 13.0241 18.6665 13.5662 19.1597C15.3067 20.7359 15.8678 23.242 14.9642 25.3979C14.1014 27.4532 11.9674 28.7772 9.52456 28.7772C8.73184 28.7517 8.16769 29.2843 8.08011 30.0052C7.86042 31.8828 7.85804 33.7969 8.06951 35.6898C8.14844 36.3956 8.99241 36.9198 9.70901 36.9198C11.8865 36.8644 13.9758 38.2116 14.8535 40.3451C15.7268 42.4761 15.1646 44.9598 13.4551 46.5277C12.9203 47.0192 12.852 47.8403 13.3035 48.4109C14.4645 49.8906 15.7982 51.2367 17.2578 52.4124C17.8308 52.8738 18.6642 52.8092 19.1609 52.2617C20.6568 50.6075 23.3331 49.9953 25.3932 50.86C27.5512 51.763 28.9087 53.944 28.7762 56.2858C28.7327 57.0216 29.272 57.663 30.0027 57.7465C30.9584 57.8582 31.9192 57.9136 32.8829 57.9136C33.7976 57.9136 34.7125 57.8637 35.6274 57.7618C36.3522 57.6818 36.8889 57.0569 36.8645 56.3301C36.7808 54.0129 38.1573 51.87 40.2857 50.9988C42.343 50.1585 44.9893 50.7735 46.4772 52.407C46.9713 52.9447 47.7882 53.01 48.3639 52.5648C49.8593 51.3922 51.2192 50.0468 52.4081 48.566C52.8698 47.993 52.8042 47.1598 52.2591 46.6657C50.5191 45.0906 49.9549 42.5834 50.8586 40.4297C51.7079 38.4021 53.7626 37.0406 55.9725 37.0406L56.2817 37.0489C56.9992 37.107 57.6585 36.5545 57.7452 35.8226C57.966 33.9433 57.9684 32.0313 57.756 30.1378ZM32.913 47.3263C24.9527 47.3263 18.5001 40.8736 18.5001 32.9136C18.5001 24.9535 24.9529 18.5009 32.913 18.5009C40.873 18.5009 47.3259 24.9535 47.3259 32.9136C47.3259 35.6154 46.581 38.1426 45.2873 40.3036L38.9762 33.9924C39.4331 32.9151 39.6744 31.7472 39.6742 30.5419C39.6742 28.1817 38.755 25.9629 37.0859 24.2942C35.4172 22.6255 33.1984 21.7065 30.8386 21.7065C30.0511 21.7065 29.2673 21.8112 28.5089 22.0177C28.1768 22.1083 27.9052 22.3821 27.8168 22.7148C27.7264 23.0552 27.8282 23.404 28.0942 23.6702C28.0942 23.6702 31.2099 26.8099 32.2524 27.8522C32.3616 27.9614 32.3614 28.2219 32.346 28.3158L32.3363 28.3843C32.2312 29.5304 32.0286 30.906 31.8614 31.4347C31.8389 31.457 31.8178 31.4758 31.7948 31.4987C31.7708 31.5228 31.7488 31.5459 31.7256 31.5697C31.19 31.7416 29.7931 31.9466 28.6289 32.0508L28.6292 32.0445L28.5768 32.0577C28.5675 32.0588 28.5502 32.0601 28.5273 32.0601C28.4015 32.0601 28.2164 32.0248 28.0481 31.8568C26.9631 30.7718 23.9695 27.7996 23.9695 27.7996C23.7009 27.5319 23.4255 27.4757 23.2419 27.4757C22.8139 27.4757 22.4308 27.7849 22.3101 28.2284C21.486 31.278 22.3596 34.5583 24.5905 36.7894C26.2596 38.4583 28.4787 39.3773 30.8389 39.3773C32.0442 39.3773 33.212 39.1362 34.2891 38.6793L40.6687 45.0589C38.4289 46.4921 35.7692 47.3263 32.913 47.3263Z" fill="#00005B"/>
</g>
<defs>
<filter id="filter0_d_166_2195" x="0.650891" y="0.650738" width="74.2073" height="74.208" filterUnits="userSpaceOnUse" color-interpolation-filters="sRGB">
<feFlood flood-opacity="0" result="BackgroundImageFix"/>
<feColorMatrix in="SourceAlpha" type="matrix" values="0 0 0 0 0 0 0 0 0 0 0 0 0 0 0 0 0 0 127 0" result="hardAlpha"/>
<feOffset dx="4.84146" dy="4.84146"/>
<feGaussianBlur stdDeviation="6.05183"/>
<feComposite in2="hardAlpha" operator="out"/>
<feColorMatrix type="matrix" values="0 0 0 0 0 0 0 0 0 0 0 0 0 0 0 0 0 0 0.2 0"/>
<feBlend mode="normal" in2="BackgroundImageFix" result="effect1_dropShadow_166_2195"/>
<feBlend mode="normal" in="SourceGraphic" in2="effect1_dropShadow_166_2195" result="shape"/>
</filter>
</defs>
</svg>
