<svg width="62" height="69" viewBox="0 0 62 69" fill="none" xmlns="http://www.w3.org/2000/svg">
<g filter="url(#filter0_d_166_2164)">
<path d="M25.999 21.7172C21.431 21.7172 17.7148 25.4334 17.7148 30.001C17.7148 34.569 21.431 38.2852 25.999 38.2852C30.5667 38.2852 34.2829 34.569 34.2829 30.001C34.2829 25.4334 30.5667 21.7172 25.999 21.7172ZM30.9173 28.441L24.9827 34.3757C24.7335 34.6248 24.4068 34.7495 24.0804 34.7495C23.754 34.7495 23.4276 34.6251 23.1785 34.3757L20.9106 32.1077C20.4123 31.6098 20.4123 30.8021 20.9106 30.3039C21.4085 29.8057 22.2162 29.8057 22.7144 30.3039L24.0804 31.6699L29.1135 26.6371C29.6114 26.1389 30.4191 26.1389 30.9173 26.6371C31.4155 27.135 31.4155 27.9428 30.9173 28.441Z" fill="#00005B"/>
<path d="M44.4687 20.0583L44.4674 20.0244C44.4484 19.6068 44.4358 19.165 44.4282 18.6734C44.3927 16.2761 42.487 14.2931 40.0894 14.1591C35.0905 13.8801 31.2234 12.2501 27.9192 9.02952L27.891 9.00265C26.8133 8.01448 25.1876 8.01448 24.1095 9.00265L24.0813 9.02952C20.7772 12.2501 16.9101 13.8801 11.9112 14.1594C9.51387 14.2931 7.60786 16.2761 7.57236 18.6737C7.56507 19.162 7.55213 19.6038 7.53322 20.0244L7.53123 20.1031C7.43404 25.2005 7.3133 31.5445 9.43559 37.3026C10.6026 40.4692 12.3699 43.2217 14.6882 45.4843C17.3287 48.0611 20.7871 50.1067 24.9673 51.5643C25.1033 51.6117 25.2446 51.6502 25.3886 51.679C25.5916 51.7195 25.796 51.7397 26.0003 51.7397C26.2046 51.7397 26.4093 51.7195 26.612 51.679C26.7559 51.6502 26.8982 51.6114 27.0349 51.5636C31.2102 50.1034 34.6649 48.0567 37.303 45.4803C39.6204 43.2171 41.3877 40.4639 42.5557 37.2967C44.686 31.5212 44.5655 25.1653 44.4687 20.0583ZM25.9996 40.8367C20.0248 40.8367 15.1643 35.9761 15.1643 30.0013C15.1643 24.0265 20.0248 19.166 25.9996 19.166C31.9741 19.166 36.835 24.0265 36.835 30.0013C36.835 35.9761 31.9741 40.8367 25.9996 40.8367Z" fill="#00005B"/>
</g>
<defs>
<filter id="filter0_d_166_2164" x="0.224635" y="0.998362" width="61.2345" height="67.6888" filterUnits="userSpaceOnUse" color-interpolation-filters="sRGB">
<feFlood flood-opacity="0" result="BackgroundImageFix"/>
<feColorMatrix in="SourceAlpha" type="matrix" values="0 0 0 0 0 0 0 0 0 0 0 0 0 0 0 0 0 0 127 0" result="hardAlpha"/>
<feOffset dx="4.84211" dy="4.84211"/>
<feGaussianBlur stdDeviation="6.05263"/>
<feComposite in2="hardAlpha" operator="out"/>
<feColorMatrix type="matrix" values="0 0 0 0 0 0 0 0 0 0 0 0 0 0 0 0 0 0 0.2 0"/>
<feBlend mode="normal" in2="BackgroundImageFix" result="effect1_dropShadow_166_2164"/>
<feBlend mode="normal" in="SourceGraphic" in2="effect1_dropShadow_166_2164" result="shape"/>
</filter>
</defs>
</svg>
