<svg width="30" height="30" viewBox="0 0 30 30" fill="none" xmlns="http://www.w3.org/2000/svg">
<g clip-path="url(#clip0_166_2565)">
<path d="M30 15C30 6.7285 23.2715 -2.71488e-07 15 -6.05235e-07C6.72849 -9.38981e-07 -2.22597e-06 6.7285 -2.61766e-06 15C-3.00935e-06 23.2715 6.72967 30 15 30C23.2703 30 30 23.2715 30 15Z" fill="#3B0098"/>
<path d="M13.3964 21.6344L19.2058 15.825C19.6567 15.3718 19.6567 14.6399 19.2058 14.1867L13.3964 8.37725C12.9618 8.0043 12.3193 8.0043 11.8848 8.37725C11.3979 8.79437 11.341 9.52867 11.7582 10.0155L16.7426 15L11.7581 19.9962C11.3073 20.4493 11.3073 21.1813 11.7581 21.6344C12.2113 22.0853 12.9433 22.0853 13.3964 21.6344Z" fill="white"/>
</g>
<defs>
<clipPath id="clip0_166_2565">
<rect width="30" height="30" fill="white" transform="translate(30) rotate(90)"/>
</clipPath>
</defs>
</svg>
