<svg width="69" height="69" viewBox="0 0 69 69" fill="none" xmlns="http://www.w3.org/2000/svg">
<g filter="url(#filter0_d_166_2157)">
<path d="M50.848 8.09199C42.3607 7.93982 32.6813 12.3764 26.5545 19.2587C20.6994 19.3692 14.9983 21.7695 10.8009 25.967C10.5563 26.2079 10.4694 26.5684 10.5762 26.8945C10.6849 27.2224 10.9675 27.4597 11.3081 27.5087L18.29 28.5087L17.4277 29.4742C17.107 29.8329 17.1233 30.3782 17.4639 30.7188L29.107 42.3619C29.2828 42.5376 29.5147 42.6264 29.7483 42.6264C29.9639 42.6264 30.1795 42.5503 30.3516 42.3963L31.3172 41.534L32.3172 48.5159C32.3661 48.8565 32.6342 49.1065 32.9585 49.2152C33.0418 49.2423 33.1288 49.255 33.2175 49.255C33.4748 49.255 33.7375 49.1427 33.9186 48.9634C38.0581 44.8239 40.4585 39.1228 40.569 33.2677C47.4585 27.1282 51.9313 17.4525 51.7339 8.97605C51.7212 8.49416 51.3317 8.10467 50.848 8.09199ZM42.5002 23.7297C41.6179 24.6119 40.4585 25.0539 39.2973 25.0539C38.136 25.0539 36.9766 24.6119 36.0944 23.7297C34.3299 21.9634 34.3299 19.0902 36.0944 17.3239C37.8607 15.5576 40.7339 15.5576 42.5002 17.3239C44.2665 19.0902 44.2665 21.9652 42.5002 23.7297Z" fill="#00005B"/>
<path d="M13.1956 38.7122C11.2572 40.6506 8.59599 49.4078 8.29889 50.3988C8.20288 50.7176 8.29164 51.0636 8.52534 51.2991C8.69925 51.4731 8.92932 51.5654 9.16664 51.5654C9.2536 51.5654 9.34056 51.5528 9.42751 51.5274C10.4185 51.2303 19.1757 48.5691 21.1141 46.6307C23.2971 44.4477 23.2971 40.8952 21.1141 38.7122C18.9293 36.5292 15.3786 36.531 13.1956 38.7122Z" fill="#00005B"/>
</g>
<defs>
<filter id="filter0_d_166_2157" x="0.997584" y="0.825037" width="67.69" height="67.6878" filterUnits="userSpaceOnUse" color-interpolation-filters="sRGB">
<feFlood flood-opacity="0" result="BackgroundImageFix"/>
<feColorMatrix in="SourceAlpha" type="matrix" values="0 0 0 0 0 0 0 0 0 0 0 0 0 0 0 0 0 0 127 0" result="hardAlpha"/>
<feOffset dx="4.84211" dy="4.84211"/>
<feGaussianBlur stdDeviation="6.05263"/>
<feComposite in2="hardAlpha" operator="out"/>
<feColorMatrix type="matrix" values="0 0 0 0 0 0 0 0 0 0 0 0 0 0 0 0 0 0 0.2 0"/>
<feBlend mode="normal" in2="BackgroundImageFix" result="effect1_dropShadow_166_2157"/>
<feBlend mode="normal" in="SourceGraphic" in2="effect1_dropShadow_166_2157" result="shape"/>
</filter>
</defs>
</svg>
