<svg width="64" height="57" viewBox="0 0 64 57" fill="none" xmlns="http://www.w3.org/2000/svg">
<g filter="url(#filter0_d_166_2232)">
<path fill-rule="evenodd" clip-rule="evenodd" d="M27.4948 8.12119C24.405 8.01829 21.2832 8.86128 18.5881 10.6603C15.561 12.683 13.4455 15.67 12.4711 19.0091C12.2021 18.9763 11.8798 18.9908 11.4972 19.099C10.0687 19.5043 8.99433 20.6748 8.51124 21.7057C7.88467 23.0492 7.62042 24.826 7.89916 26.6603C8.17597 28.4888 8.94844 29.9961 9.91462 30.9318C10.8837 31.868 11.9779 32.1724 13.0649 31.9439C14.6832 31.5985 15.4856 31.34 15.2591 29.8323L14.162 22.5236C14.3832 18.568 16.431 14.8444 19.8562 12.5545C24.4407 9.4922 30.4513 9.68834 34.8243 13.0453C37.8663 15.3777 39.6325 18.8724 39.8364 22.541L39.0692 27.6536C37.3581 32.3362 33.1161 35.5796 28.2074 36.04H24.9388C24.0953 36.04 23.4161 36.7193 23.4161 37.5618V38.3647C23.4161 39.2077 24.0953 39.8869 24.9388 39.8869H29.06C29.903 39.8869 30.5794 39.2077 30.5794 38.3647V37.9449C34.2808 37.0415 37.5117 34.7666 39.6156 31.5941L40.9359 31.9444C42.0103 32.2231 43.1175 31.868 44.0861 30.9323C45.0523 29.9961 45.8243 28.4893 46.1016 26.6608C46.3813 24.8265 46.1093 23.0526 45.49 21.7062C44.8682 20.3598 43.9422 19.5048 42.8731 19.198C42.4253 19.069 41.9393 19.0217 41.5224 19.0091C40.6412 15.9898 38.8272 13.2439 36.2127 11.2391C33.6422 9.2666 30.5847 8.22264 27.4948 8.12119Z" fill="#00005B"/>
<path fill-rule="evenodd" clip-rule="evenodd" d="M32.3178 21.2699C33.4072 21.2699 34.2903 22.153 34.2927 23.2453C34.2903 24.3346 33.4072 25.2201 32.3178 25.2201C31.2255 25.2201 30.34 24.3346 30.34 23.2453C30.34 22.1535 31.226 21.2699 32.3178 21.2699ZM26.999 21.2699C28.0908 21.2699 28.9738 22.153 28.9738 23.2453C28.9738 24.3346 28.0908 25.2201 26.999 25.2201C25.9062 25.2201 25.0231 24.3346 25.0231 23.2453C25.0231 22.1535 25.9062 21.2699 26.999 21.2699ZM21.6821 21.2699C22.7714 21.2699 23.6569 22.153 23.6569 23.2453C23.6569 24.3346 22.7714 25.2201 21.6821 25.2201C20.5903 25.2201 19.7067 24.3346 19.7067 23.2453C19.7067 22.1535 20.5903 21.2699 21.6821 21.2699ZM26.999 12.7858C21.2067 12.7858 16.5391 17.2999 16.5391 23.2453C16.5391 26.1008 17.6188 28.6245 19.3777 30.4762L18.7536 33.2743C18.5478 34.195 19.1864 34.8143 20.0139 34.3535L22.7463 32.8293C24.0449 33.3931 25.4811 33.7047 26.999 33.7047C32.7932 33.7047 37.4579 29.1936 37.4579 23.2453C37.4579 17.2999 32.7932 12.7858 26.999 12.7858Z" fill="#00005B"/>
</g>
<defs>
<filter id="filter0_d_166_2232" x="0.526379" y="0.850598" width="62.6302" height="55.9814" filterUnits="userSpaceOnUse" color-interpolation-filters="sRGB">
<feFlood flood-opacity="0" result="BackgroundImageFix"/>
<feColorMatrix in="SourceAlpha" type="matrix" values="0 0 0 0 0 0 0 0 0 0 0 0 0 0 0 0 0 0 127 0" result="hardAlpha"/>
<feOffset dx="4.84146" dy="4.84146"/>
<feGaussianBlur stdDeviation="6.05183"/>
<feComposite in2="hardAlpha" operator="out"/>
<feColorMatrix type="matrix" values="0 0 0 0 0 0 0 0 0 0 0 0 0 0 0 0 0 0 0.2 0"/>
<feBlend mode="normal" in2="BackgroundImageFix" result="effect1_dropShadow_166_2232"/>
<feBlend mode="normal" in="SourceGraphic" in2="effect1_dropShadow_166_2232" result="shape"/>
</filter>
</defs>
</svg>
