<svg width="30" height="30" viewBox="0 0 30 30" fill="none" xmlns="http://www.w3.org/2000/svg">
<g clip-path="url(#clip0_166_2572)">
<path d="M7.1031e-07 15C3.18621e-07 23.2715 6.7285 30 15 30C23.2715 30 30 23.2715 30 15C30 6.7285 23.2703 9.38934e-07 15 6.05235e-07C6.72967 2.71535e-07 1.102e-06 6.7285 7.1031e-07 15Z" fill="white"/>
<path d="M16.6036 8.36557L10.7942 14.175C10.3433 14.6282 10.3433 15.3601 10.7942 15.8133L16.6036 21.6228C17.0382 21.9957 17.6807 21.9957 18.1152 21.6228C18.6021 21.2056 18.659 20.4713 18.2418 19.9845L13.2574 15L18.2419 10.0038C18.6927 9.55068 18.6927 8.81873 18.2419 8.36557C17.7887 7.91475 17.0567 7.91475 16.6036 8.36557Z" fill="#00005B"/>
</g>
<defs>
<clipPath id="clip0_166_2572">
<rect width="30" height="30" fill="white" transform="translate(0 30) rotate(-90)"/>
</clipPath>
</defs>
</svg>
