<svg width="26" height="26" viewBox="0 0 26 26" fill="none" xmlns="http://www.w3.org/2000/svg">
<path d="M13 25.25C6.24473 25.25 0.75 19.7553 0.75 13C0.75 6.24473 6.24473 0.75 13 0.75C19.7553 0.75 25.25 6.24568 25.25 13C25.25 19.7543 19.7553 25.25 13 25.25ZM13 3.10902C7.54704 3.10902 3.10902 7.54613 3.10902 13C3.10902 18.4539 7.54704 22.891 13 22.891C18.4539 22.891 22.891 18.4539 22.891 13C22.891 7.54613 18.453 3.10902 13 3.10902Z" fill="#3B0098" stroke="#3B0098" stroke-width="0.5"/>
<path d="M18.3071 11.7171L13.6595 16.3646C13.297 16.7253 12.7114 16.7253 12.3489 16.3646L7.70131 11.7171C7.40295 11.3695 7.40295 10.8554 7.70131 10.5078C8.03501 10.1183 8.62245 10.0728 9.01193 10.4065L12.9995 14.3941L16.9964 10.4065C17.359 10.0458 17.9445 10.0458 18.3071 10.4065C18.6677 10.769 18.6677 11.3546 18.3071 11.7171Z" fill="#3B0098"/>
<path d="M18.3071 11.7171L13.6595 16.3646C13.297 16.7253 12.7114 16.7253 12.3489 16.3646L7.70131 11.7171C7.40295 11.3695 7.40295 10.8554 7.70131 10.5078C8.03501 10.1183 8.62245 10.0728 9.01193 10.4065L12.9995 14.3941L16.9964 10.4065C17.359 10.0458 17.9445 10.0458 18.3071 10.4065C18.6677 10.769 18.6677 11.3546 18.3071 11.7171Z" stroke="#3B0098"/>
</svg>
