<svg width="40" height="40" viewBox="0 0 40 40" fill="none" xmlns="http://www.w3.org/2000/svg">
<path d="M12.703 5.74672C12.6097 5.25227 12.5621 4.73735 12.5621 4.21704C12.5621 3.64072 12.6224 3.06691 12.7413 2.51105C12.8071 2.20476 12.6231 1.90026 12.3305 1.83167C12.0402 1.76416 11.748 1.95519 11.6822 2.26221C11.5458 2.89958 11.4766 3.55741 11.4766 4.21704C11.4766 4.81132 11.5307 5.40021 11.6383 5.96756C11.6894 6.23867 11.9162 6.42611 12.1701 6.42611C12.2047 6.42611 12.2404 6.42251 12.276 6.41497C12.57 6.35429 12.7612 6.05482 12.703 5.74672Z" fill="#473BF0"/>
<path d="M27.3416 7.4127C27.0733 7.27265 26.7471 7.38756 26.6138 7.66908C25.3518 10.3302 22.8075 11.9841 19.9737 11.9849C17.1399 11.9841 14.5959 10.3302 13.3339 7.66908C13.2003 7.38756 12.8737 7.27265 12.6061 7.4127C12.3378 7.55238 12.2281 7.8655 12.3614 8.14701C13.8078 11.1967 16.7221 13.0661 19.9696 13.0661H19.9713H19.9764H19.9781C23.2252 13.0661 26.1402 11.1967 27.5863 8.14701C27.7192 7.8655 27.6099 7.55238 27.3416 7.4127Z" fill="#473BF0"/>
<path d="M28.3028 5.96867C28.4118 5.39522 28.4673 4.80633 28.4673 4.21708C28.4673 3.55601 28.3974 2.89566 28.26 2.25506C28.1942 1.94841 27.9036 1.75522 27.6113 1.82488C27.3191 1.89383 27.135 2.19833 27.2008 2.50462C27.3208 3.06371 27.3818 3.63968 27.3818 4.21708C27.3818 4.73128 27.3331 5.24584 27.2378 5.74604C27.1793 6.05413 27.3701 6.35361 27.6641 6.41501C27.7001 6.42255 27.7357 6.42614 27.771 6.42614C28.0243 6.42614 28.2511 6.23906 28.3028 5.96867Z" fill="#473BF0"/>
<path d="M25.2152 15.0883H14.6454C14.3198 15.0883 13.9453 15.4915 13.9453 15.8348V39.3072C13.9453 39.6486 14.3202 39.9079 14.6454 39.9079H25.2152C25.5407 39.9079 25.7878 39.6486 25.7878 39.3072V15.8348C25.7878 15.4915 25.5407 15.0883 25.2152 15.0883Z" fill="#473BF0"/>
<path d="M15.8199 3.71058L17.7566 5.22123C17.9002 5.33039 17.9602 5.54225 17.9053 5.71892L17.1655 8.11398C17.0432 8.50933 17.4749 8.84256 17.7957 8.59838L19.7324 7.12579C19.876 7.01627 20.0706 7.01735 20.2138 7.12687L22.1506 8.60197C22.4717 8.84651 22.9034 8.51795 22.7807 8.1226L22.0409 5.73687C21.9861 5.55984 22.0464 5.3663 22.1896 5.25714L24.1267 3.71058C24.4478 3.46604 24.2826 2.86243 23.8858 2.86243H21.492C21.3145 2.86243 21.1572 2.81467 21.1024 2.63765L20.3626 0.287824C20.2402 -0.107883 19.7064 -0.0895694 19.5837 0.305778L18.8442 2.62867C18.7891 2.80534 18.6318 2.86243 18.4546 2.86243H16.0604C15.664 2.86243 15.4991 3.46604 15.8199 3.71058Z" fill="#473BF0"/>
<path d="M11.8424 27.751C11.8424 27.4084 11.5776 27.1305 11.2503 27.1305H0.592122C0.265221 27.1305 0 27.4084 0 27.751V39.3794C0 39.722 0.265221 39.9999 0.592122 39.9999H11.2503C11.5776 39.9999 11.8424 39.722 11.8424 39.3794V27.751Z" fill="#473BF0"/>
<path d="M4.74936 20.2724C4.84051 20.3421 4.87889 20.4649 4.84394 20.5769L4.58797 21.4017C4.51053 21.6527 4.78431 21.861 4.98786 21.7062L5.65742 21.1963C5.74857 21.127 5.87158 21.127 5.96273 21.1963L6.6323 21.7062C6.83584 21.861 7.10963 21.6527 7.03218 21.4017L6.77622 20.5769C6.74161 20.4649 6.77964 20.3421 6.87045 20.2724L7.54035 19.7403C7.74355 19.5855 7.63904 19.225 7.38753 19.225H6.55999C6.4476 19.225 6.34754 19.1718 6.31293 19.0598L6.05731 18.2465C5.97952 17.9955 5.64097 18.0012 5.56319 18.2519L5.30756 19.0569C5.27261 19.169 5.17289 19.225 5.06016 19.225H4.23297C3.98145 19.225 3.8766 19.5855 4.08014 19.7403L4.74936 20.2724Z" fill="#473BF0"/>
<path d="M5.81075 25.1086C8.45406 25.1086 10.6043 22.8554 10.6043 20.0858C10.6043 17.3162 8.45406 15.0626 5.81075 15.0626C3.16779 15.0626 1.01758 17.3162 1.01758 20.0858C1.01758 22.8554 3.16779 25.1086 5.81075 25.1086ZM5.81075 16.2002C7.85885 16.2002 9.51871 17.9399 9.51871 20.0858C9.51871 22.2317 7.85885 23.971 5.81075 23.971C3.76334 23.971 2.10314 22.2317 2.10314 20.0858C2.10314 17.9399 3.76334 16.2002 5.81075 16.2002Z" fill="#473BF0"/>
<path d="M40.0006 27.751C40.0006 27.4084 39.7358 27.1305 39.4085 27.1305H28.7503C28.4234 27.1305 28.1582 27.4084 28.1582 27.751V39.3794C28.1582 39.722 28.4234 39.9999 28.7503 39.9999H39.4085C39.7358 39.9999 40.0006 39.722 40.0006 39.3794V27.751Z" fill="#473BF0"/>
<path d="M32.9935 20.2724C33.0847 20.3421 33.1227 20.4649 33.0881 20.5769L32.8325 21.4017C32.7547 21.6527 33.0285 21.861 33.232 21.7062L33.9016 21.1963C33.9927 21.127 34.1157 21.127 34.2069 21.1963L34.8764 21.7062C35.08 21.861 35.3538 21.6527 35.2763 21.4017L35.0207 20.5769C34.9857 20.4649 35.0238 20.3421 35.1146 20.2724L35.7845 19.7403C35.9877 19.5855 35.8832 19.225 35.6317 19.225H34.8038C34.6914 19.225 34.5917 19.1718 34.5571 19.0598L34.3014 18.2465C34.2237 17.9955 33.8851 18.0012 33.8073 18.2519L33.5517 19.0569C33.5167 19.169 33.417 19.225 33.3046 19.225H32.4771C32.2256 19.225 32.1207 19.5855 32.3243 19.7403L32.9935 20.2724Z" fill="#473BF0"/>
<path d="M34.051 25.1086C36.6943 25.1086 38.8448 22.8554 38.8448 20.0858C38.8448 17.3162 36.6943 15.0626 34.051 15.0626C31.408 15.0626 29.2578 17.3162 29.2578 20.0858C29.2578 22.8554 31.408 25.1086 34.051 25.1086ZM34.051 16.2002C36.0987 16.2002 37.7593 17.9399 37.7593 20.0858C37.7593 22.2317 36.0987 23.971 34.051 23.971C32.0036 23.971 30.3434 22.2317 30.3434 20.0858C30.3434 17.9399 32.0036 16.2002 34.051 16.2002Z" fill="#473BF0"/>
</svg>
