<svg width="821" height="565" viewBox="0 0 821 565" fill="none" xmlns="http://www.w3.org/2000/svg">
<mask id="mask0_1691_1326" style="mask-type:alpha" maskUnits="userSpaceOnUse" x="0" y="0" width="821" height="565">
<rect width="821" height="565" fill="#D9D9D9"/>
</mask>
<g mask="url(#mask0_1691_1326)">
<g style="mix-blend-mode:luminosity">
<g opacity="0.7">
<path d="M367.42 76.7362C399.361 114.8 495.366 154.194 565.009 99.8171C634.653 45.4406 273.133 -35.6464 367.42 76.7362Z" fill="url(#paint0_radial_1691_1326)"/>
</g>
<g opacity="0.7">
<path d="M184.658 518.737C67.0445 395.388 56.1433 275.579 108.285 182.777C211.472 -0.86293 329.563 113.857 473.874 133.993C620.975 154.517 797.408 231.109 673.104 444.146C588.62 588.948 352.592 694.886 184.645 518.737H184.658Z" fill="url(#paint1_radial_1691_1326)"/>
</g>
<mask id="mask1_1691_1326" style="mask-type:luminance" maskUnits="userSpaceOnUse" x="78" y="80" width="638" height="531">
<path d="M184.658 518.737C67.0445 395.388 56.1433 275.579 108.285 182.777C211.472 -0.86293 329.563 113.857 473.874 133.993C620.975 154.517 797.408 231.109 673.104 444.146C588.62 588.948 352.592 694.886 184.645 518.737H184.658Z" fill="white"/>
</mask>
<g mask="url(#mask1_1691_1326)">
<path d="M68.0004 358.81C68.0004 460.382 145.458 555.883 304.08 586.197C513.501 626.224 782.645 628.872 782.645 429.009C782.645 353.954 790.175 148.95 747.41 121.284H637.831V374.568L577.745 472.562V271.046H537.111V188.499L422.933 101.729V216.631H326.179V67.7344C297.079 71.4025 269.245 84.6544 244.705 105.527V320.553H200.906V271.769L71.2811 205.897C67.6775 226.537 68.0004 336.285 68.0004 358.81ZM310.137 421.259H385.503V470.043H310.137V421.259ZM356.79 243.406H391.534V384.229H356.79V243.406ZM305.953 142.015H266.236V111.998H305.953V142.015ZM305.953 180.091H266.236V150.061H305.953V180.091ZM305.953 218.18H266.236V188.164H305.953V218.18ZM305.953 256.257H266.236V226.24H305.953V256.257ZM703.47 206.982H654.428V135.453H703.47V206.982ZM703.47 297.705H654.428V226.176H703.47V297.705ZM703.47 388.427H654.428V316.898H703.47V388.427ZM703.47 479.149H654.428V407.62H703.47V479.149ZM264.208 315.167H320.948V380.083H264.208V315.167Z" fill="#B6E3F5"/>
<path d="M647.531 117.307H646.213V557.692H647.531V117.307Z" fill="white"/>
<path d="M519.778 17H518.46V557.692H519.778V17Z" fill="white"/>
<path d="M392.025 17H390.708V557.692H392.025V17Z" fill="white"/>
<path d="M264.285 17H262.968V557.692H264.285V17Z" fill="white"/>
<path d="M133.872 117.151H132.555V557.692H133.872V117.151Z" fill="white"/>
<path d="M703.651 558.401H84.21V614.431H703.651V558.401Z" fill="#A3CADC"/>
<path d="M703.651 551.686H84.21V558.35H703.651V551.686Z" fill="white"/>
<path d="M703.651 467.745H84.21V469.063H703.651V467.745Z" fill="white"/>
<path d="M703.651 378.455H84.21V379.773H703.651V378.455Z" fill="white"/>
<path d="M703.651 289.181H84.21V290.498H703.651V289.181Z" fill="white"/>
<path d="M703.651 196.959H84.21V198.276H703.651V196.959Z" fill="white"/>
<path d="M703.651 104.738H84.21V106.056H703.651V104.738Z" fill="white"/>
</g>
<path d="M357.358 492.66C386.458 465.988 424.909 535.063 421.228 562.342H406.697C392.567 555.535 333.799 514.256 357.358 492.66Z" fill="url(#paint2_linear_1691_1326)"/>
<path d="M413.659 562.6C392.102 523.155 357.28 493.473 356.932 493.176L357.784 492.169C358.133 492.466 393.135 522.315 414.808 561.967L413.646 562.6H413.659Z" fill="#1A120E"/>
<path d="M396.558 535.58C395.525 535.477 371.191 532.919 363.777 530.142L364.242 528.902C371.488 531.615 396.442 534.237 396.687 534.263L396.545 535.58H396.558Z" fill="#1A120E"/>
<path d="M378.876 512.344L377.649 511.853C381.033 503.419 381.705 489.844 381.717 489.715L383.048 489.779C383.022 490.348 382.363 503.716 378.889 512.344H378.876Z" fill="#1A120E"/>
<path d="M408.363 517.756C417.288 533.384 422.726 551.299 421.227 562.355C400.911 544.634 405.147 520.675 408.363 517.756Z" fill="#1A120E"/>
<path d="M431.974 474.073C457.793 463.34 450.018 527.791 427.337 562.342H416.759C411.476 553.714 411.063 482.766 431.961 474.073H431.974Z" fill="url(#paint3_linear_1691_1326)"/>
<path d="M421.886 562.483L420.595 562.212C424.65 543.084 435.668 481.384 435.771 480.764L437.076 480.996C436.959 481.616 425.955 543.342 421.886 562.483Z" fill="#1A120E"/>
<path d="M436.85 529.262L425.565 540.591L426.507 541.53L437.792 530.201L436.85 529.262Z" fill="#1A120E"/>
<path d="M417.371 506.1L416.606 507.189L429.463 516.211L430.227 515.123L417.371 506.1Z" fill="#1A120E"/>
<path d="M380.917 562.444V571.331C380.917 581.431 383.022 591.35 387.013 600.159L388.602 603.659L399.245 613.217H429.494L440.77 603.659L442.358 600.159C446.362 591.35 448.455 581.431 448.455 571.331V562.444H380.917Z" fill="url(#paint4_linear_1691_1326)"/>
<path d="M241.954 166.361C249.639 169.28 303.602 185.141 303.602 185.141L310.331 141.64C310.835 130.416 344.856 130.777 348.911 136.15C356.106 145.683 352.76 237.296 341.368 241.003C308.445 251.736 236.309 222.249 228.43 212.936C194.887 173.271 212.389 155.137 241.954 166.361Z" fill="url(#paint5_linear_1691_1326)"/>
<path d="M284.912 343.724C285.984 377.474 287.457 466.736 289.691 520.054C290.259 533.654 290.143 570.53 290.143 570.53C254.056 586.184 230.497 584.518 230.497 584.518C230.497 584.518 204.277 335.354 211.73 316.432C217.891 300.804 283.672 305.157 284.912 343.724Z" fill="url(#paint6_linear_1691_1326)"/>
<path d="M238.337 368.2C240.287 375.562 233.764 383.48 231 389.628C226.751 399.069 230.742 408.524 228.985 418.379C227.319 427.717 221.003 435.467 219.996 445.063C218.898 455.474 214.016 493.111 213.641 493.653C211.898 479.381 211.51 476.062 209.34 456.881C206.576 432.625 202.236 394.097 202.094 363.589C205.336 364.932 208.824 365.526 211.665 366.443C220.784 369.401 229.425 371.003 238.35 368.187L238.337 368.2Z" fill="#1A120E"/>
<path d="M229.851 339.875C227.397 373.625 214.326 474.499 214.61 529.909C214.675 543.045 216.999 580.695 216.999 580.695C177.05 590.434 154.628 581.909 154.628 581.909C154.628 581.909 146.271 506.854 144.075 456.895C142.345 417.385 141.001 340.03 150.443 321.121C158.231 305.493 232.667 301.321 229.864 339.888L229.851 339.875Z" fill="url(#paint7_linear_1691_1326)"/>
<path d="M156.947 385.709L155.591 385.714L155.599 387.755L156.955 387.75L156.947 385.709Z" fill="white"/>
<path d="M161.111 514.1L159.755 514.191L159.484 510.032L160.84 509.941L161.111 514.1Z" fill="white"/>
<path d="M160.491 504.399L159.135 504.477L158.89 500.305L160.246 500.228L160.491 504.399Z" fill="white"/>
<path d="M161.809 523.8L160.453 523.903C160.349 522.521 160.246 521.139 160.143 519.744L161.499 519.641C161.602 521.036 161.705 522.418 161.809 523.8Z" fill="white"/>
<path d="M159.226 480.816L157.871 480.879L158.065 485.046L159.419 484.983L159.226 480.816Z" fill="white"/>
<path d="M159.704 490.527L158.35 490.599L158.571 494.765L159.925 494.693L159.704 490.527Z" fill="white"/>
<path d="M165.658 562.471L164.302 562.652C164.121 561.296 163.953 559.914 163.772 558.506L165.128 558.338C165.296 559.733 165.477 561.115 165.658 562.471Z" fill="white"/>
<path d="M163.475 543.174L162.119 543.303C161.99 541.934 161.848 540.539 161.731 539.144L163.088 539.015C163.217 540.41 163.346 541.792 163.475 543.161V543.174Z" fill="white"/>
<path d="M162.584 533.487L161.228 533.603C161.111 532.221 160.995 530.839 160.879 529.444L162.235 529.341C162.351 530.736 162.468 532.118 162.584 533.487Z" fill="white"/>
<path d="M164.483 552.835L163.126 552.99C162.971 551.621 162.829 550.239 162.674 548.844L164.03 548.702C164.173 550.097 164.328 551.479 164.483 552.848V552.835Z" fill="white"/>
<path d="M157.146 407.193L155.79 407.219L155.738 403.047L157.094 403.034L157.146 407.193Z" fill="white"/>
<path d="M157.416 422.48L156.06 422.509L156.149 426.68L157.505 426.651L157.416 422.48Z" fill="white"/>
<path d="M157.194 412.77L155.838 412.794L155.911 416.965L157.267 416.941L157.194 412.77Z" fill="white"/>
<path d="M156.97 393.292L155.614 393.302L155.645 397.474L157.001 397.464L156.97 393.292Z" fill="white"/>
<path d="M158.832 471.096L157.477 471.153L157.654 475.321L159.009 475.264L158.832 471.096Z" fill="white"/>
<path d="M157.714 436.384L156.345 436.423L156.255 432.251L157.611 432.212L157.714 436.384Z" fill="white"/>
<path d="M158.151 451.664L156.796 451.711L156.939 455.88L158.294 455.834L158.151 451.664Z" fill="white"/>
<path d="M158.464 461.378L157.108 461.428L157.263 465.597L158.618 465.547L158.464 461.378Z" fill="white"/>
<path d="M157.834 441.954L156.478 441.991L156.594 446.162L157.95 446.124L157.834 441.954Z" fill="white"/>
<path d="M151.231 387.742H149.875L149.862 385.714H151.231V387.742Z" fill="white"/>
<path d="M155.377 514.099L154.021 514.19L153.737 510.031L155.106 509.94L155.377 514.099Z" fill="white"/>
<path d="M156.074 523.799L154.718 523.902C154.615 522.52 154.512 521.138 154.408 519.743L155.764 519.64C155.868 521.035 155.971 522.417 156.074 523.799Z" fill="white"/>
<path d="M153.978 490.519L152.624 490.591L152.844 494.757L154.199 494.685L153.978 490.519Z" fill="white"/>
<path d="M156.849 533.486L155.493 533.602C155.377 532.22 155.261 530.838 155.145 529.443L156.501 529.34C156.617 530.735 156.733 532.117 156.849 533.486Z" fill="white"/>
<path d="M153.498 480.811L152.143 480.874L152.336 485.041L153.691 484.978L153.498 480.811Z" fill="white"/>
<path d="M159.91 562.469L158.554 562.65C158.373 561.294 158.206 559.912 158.038 558.504L159.394 558.336C159.562 559.731 159.743 561.113 159.91 562.469Z" fill="white"/>
<path d="M157.741 543.173L156.384 543.302C156.255 541.933 156.126 540.538 155.997 539.143L157.353 539.014C157.482 540.409 157.611 541.791 157.741 543.16V543.173Z" fill="white"/>
<path d="M158.748 552.834L157.392 552.989C157.237 551.62 157.095 550.238 156.94 548.843L158.296 548.701C158.438 550.096 158.593 551.478 158.748 552.847V552.834Z" fill="white"/>
<path d="M154.757 504.398L153.401 504.476L153.156 500.304L154.512 500.227L154.757 504.398Z" fill="white"/>
<path d="M151.517 412.75L150.161 412.773L150.234 416.945L151.59 416.921L151.517 412.75Z" fill="white"/>
<path d="M151.34 403.036L149.984 403.055L150.042 407.226L151.398 407.207L151.34 403.036Z" fill="white"/>
<path d="M151.236 393.295L149.88 393.305L149.91 397.476L151.266 397.467L151.236 393.295Z" fill="white"/>
<path d="M151.683 422.485L150.327 422.514L150.416 426.685L151.772 426.656L151.683 422.485Z" fill="white"/>
<path d="M153.09 471.106L151.735 471.164L151.912 475.332L153.267 475.274L153.09 471.106Z" fill="white"/>
<path d="M151.98 436.384L150.611 436.423L150.508 432.251L151.877 432.212L151.98 436.384Z" fill="white"/>
<path d="M152.433 451.654L151.078 451.7L151.221 455.87L152.576 455.823L152.433 451.654Z" fill="white"/>
<path d="M152.733 461.382L151.378 461.433L151.532 465.602L152.888 465.551L152.733 461.382Z" fill="white"/>
<path d="M152.089 441.943L150.733 441.98L150.849 446.151L152.205 446.113L152.089 441.943Z" fill="white"/>
<path d="M200.57 159.129C212.879 157.979 239.654 160.265 251.008 186.369C262.361 212.472 296.511 382.822 296.511 382.822C219.376 417.475 134.44 399.561 134.44 399.561C134.44 399.561 144.708 203.947 153.052 187.492C165.826 162.293 191.581 159.981 200.583 159.142L200.57 159.129Z" fill="url(#paint8_linear_1691_1326)"/>
<path d="M242.664 283.845C242.664 283.845 204.342 310.658 167.97 287.19C137.463 267.506 151.606 195.912 155.274 184.817C155.274 184.817 154.189 284.439 242.677 283.845H242.664Z" fill="#1A120E"/>
<path d="M221.598 138.075L215.631 170.585C215.631 170.585 198.723 174.305 189.979 160.756L195.727 140.465L221.598 138.075Z" fill="#FDAE97"/>
<path d="M219.183 150.927L216.883 163.752C199.666 165.109 199.356 138.954 199.434 138.98L219.183 150.927Z" fill="#FF7761"/>
<path d="M212.595 111.042C215.824 109.647 226.829 111.274 229.929 111.687C240.132 113.082 239.267 119.863 240.055 130.132C240.933 141.64 240.907 161.595 227.268 162.46C219.531 162.951 204.691 153.419 201.061 146.561C199.77 144.12 199.731 137.39 200.519 134.097C202.999 123.738 204.923 114.374 212.595 111.029V111.042Z" fill="#FDAE97"/>
<path d="M213.641 98.177C226.868 97.57 241.734 108.239 239.512 122.188C237.536 112.772 233.933 113.999 225.602 114.464C218.872 114.839 207.351 115.911 208.695 123.505C210.529 133.799 204.381 135.336 204.381 135.336L191.994 151.546C191.994 151.546 192.653 136.628 190.573 125.598C187.926 111.623 197.664 98.9003 213.641 98.177Z" fill="#1A120E"/>
<path d="M238.776 126.954L238.427 128.272C235.185 127.432 233.3 129.408 232.861 129.951C232.77 130.906 232.538 135.672 235.547 138.979C236.09 139.573 236.077 140.154 235.986 140.542C235.534 142.337 231.879 143.693 231.156 143.952L230.704 142.66C232.176 142.143 234.462 141.007 234.669 140.206C234.682 140.154 234.708 140.064 234.553 139.883C230.768 135.75 231.504 129.847 231.543 129.589L231.569 129.421L231.659 129.292C231.659 129.292 234.178 125.753 238.776 126.941V126.954Z" fill="#1A120E"/>
<path d="M198.555 127.936C202.547 127.651 206.008 130.661 206.292 134.652C206.576 138.643 203.567 142.104 199.576 142.389C195.585 142.673 192.123 139.663 191.839 135.672C191.555 131.681 194.564 128.22 198.555 127.936Z" fill="#FDAE97"/>
<path d="M201.294 130.802C202.766 132.456 201.694 133.437 200.906 134.161C200.428 134.6 199.924 135.065 199.627 135.762C199.292 136.576 199.537 137.002 199.834 137.532C200.144 138.074 200.635 138.901 199.782 139.869C199.421 140.283 198.943 140.515 198.413 140.541C198.155 140.541 197.91 140.515 197.677 140.451C196.708 140.179 195.908 139.43 195.804 139.327L196.747 138.345C197.096 138.681 197.845 139.198 198.362 139.172C198.53 139.172 198.646 139.094 198.762 138.965C198.956 138.746 198.969 138.733 198.659 138.19C198.31 137.583 197.767 136.653 198.362 135.22C198.762 134.238 199.434 133.631 199.976 133.14C200.79 132.391 200.841 132.339 200.26 131.694C199.214 130.531 196.411 132.016 195.507 132.624L194.745 131.5C194.926 131.371 199.227 128.49 201.281 130.777L201.294 130.802Z" fill="#1A120E"/>
<path d="M233.494 147.671C233.494 147.671 233.3 151.869 229.205 151.894C225.098 151.907 222.425 146.818 222.425 146.818C227.63 148.536 233.494 147.671 233.494 147.671Z" fill="#1A120E"/>
<path d="M228.262 128.478L227.152 129.266C227.152 129.266 225.292 126.928 219.647 130.364L218.937 129.201C225.757 125.042 228.159 128.336 228.262 128.478Z" fill="#1A120E"/>
<path d="M222.967 130.984C224 130.906 224.891 131.694 224.969 132.727C225.046 133.761 224.259 134.665 223.225 134.729C222.192 134.807 221.288 134.019 221.223 132.986C221.146 131.952 221.934 131.048 222.967 130.984Z" fill="#1A120E"/>
<path d="M235.366 130.106C236.399 130.028 237.304 130.816 237.368 131.85C237.446 132.883 236.658 133.787 235.624 133.852C234.591 133.929 233.687 133.141 233.622 132.108C233.545 131.075 234.333 130.17 235.366 130.106Z" fill="#1A120E"/>
<path d="M192.55 463.185C192.459 463.314 183.018 476.514 185.071 489.546L183.728 489.753C181.597 476.165 191.051 462.939 191.452 462.384L192.55 463.185Z" fill="#1A120E"/>
<path d="M258.847 487.157C260.694 492.931 263.73 496.741 267.876 498.511C274.708 501.417 282.342 497.748 282.419 497.71L283.026 498.937C282.794 499.053 278.725 501.016 273.727 501.016C271.686 501.016 269.503 500.693 267.346 499.776C262.813 497.852 259.519 493.745 257.543 487.584C251.24 467.9 243.839 436.514 243.774 436.204L245.105 435.894C245.182 436.204 252.557 467.538 258.847 487.17V487.157Z" fill="#1A120E"/>
<path d="M289.381 372.036L289.924 373.276C267.217 383.157 242.044 388.026 218.898 390.196C175.965 394.213 139.943 388.892 139.387 388.801L139.594 387.458C140.433 387.587 224.917 400.064 289.381 372.036Z" fill="white"/>
<path d="M208.036 313.448L272.397 308.062C271.803 320.151 284.912 343.736 284.912 343.736C237.872 363.613 184.387 353.746 184.387 353.746C206.06 335.121 208.036 313.448 208.036 313.448Z" fill="url(#paint9_linear_1691_1326)"/>
<path d="M207.235 312.492L208.578 312.738C208.527 313.035 202.895 342.109 183.405 354.715L182.669 353.565C201.668 341.282 207.196 312.764 207.248 312.479L207.235 312.492Z" fill="#1A120E"/>
<path d="M288.981 345.725L288.09 346.746C275.135 335.444 270.963 306.254 270.795 305.014L272.138 304.82C272.177 305.117 276.413 334.747 288.981 345.713V345.725Z" fill="#1A120E"/>
<path d="M270.11 261.721C268.483 253.119 262.606 229.625 262.554 229.379L263.807 229.069C263.872 229.302 269.749 252.848 271.389 261.476L270.123 261.721H270.11Z" fill="#1A120E"/>
<path d="M578.791 612.326H571.532L563.666 593.765L538.105 533.409L536.814 530.374L489.618 418.947L482.205 401.471L477.697 390.816L477.49 390.325L476.715 388.504L476.431 387.832H483.677L483.961 388.504L484.736 390.325L484.943 390.816L489.451 401.471L496.864 418.947L534.179 507.034L546.01 534.959L568.251 587.45L578.791 612.326Z" fill="#1A120E"/>
<path d="M348.653 612.313H341.394L436.508 387.832H443.753L348.653 612.313Z" fill="#1A120E"/>
<path d="M463.231 387.832H455.972V612.313H463.231V387.832Z" fill="#1A120E"/>
<path d="M516.832 388.503H402.357V418.946H516.832V388.503Z" fill="#1A120E"/>
<path d="M644.172 110.604H275.044V390.817H644.172V110.604Z" fill="white"/>
<path d="M645.451 392.108H273.753V109.312H645.464V392.108H645.451ZM276.336 389.525H642.881V111.895H276.336V389.525Z" fill="#FD6645"/>
<path d="M654.854 391.812V399.987C654.854 400.801 654.195 401.473 653.368 401.473H265.848C265.035 401.473 264.376 400.801 264.376 399.987V391.812C264.376 390.998 265.035 390.326 265.848 390.326H653.368C654.195 390.326 654.854 390.998 654.854 391.812Z" fill="url(#paint10_linear_1691_1326)"/>
<path d="M653.368 402.145H265.848C264.66 402.145 263.691 401.176 263.691 399.975V391.799C263.691 390.611 264.66 389.629 265.848 389.629H653.368C654.557 389.629 655.525 390.598 655.525 391.799V399.975C655.525 401.163 654.557 402.145 653.368 402.145ZM265.848 390.998C265.409 390.998 265.047 391.36 265.047 391.799V399.975C265.047 400.414 265.409 400.775 265.848 400.775H653.368C653.807 400.775 654.169 400.414 654.169 399.975V391.799C654.169 391.36 653.807 390.998 653.368 390.998H265.848Z" fill="#1A120E"/>
<path d="M267.127 105.037H652.09C653.614 105.037 654.854 106.277 654.854 107.801V113.42C654.854 114.944 653.614 116.184 652.09 116.184H267.127C265.603 116.184 264.363 114.944 264.363 113.42V107.801C264.363 106.277 265.603 105.037 267.127 105.037Z" fill="url(#paint11_linear_1691_1326)"/>
<path d="M652.09 116.842H267.127C265.228 116.842 263.691 115.305 263.691 113.407V107.788C263.691 105.89 265.228 104.353 267.127 104.353H652.09C653.988 104.353 655.525 105.89 655.525 107.788V113.407C655.525 115.305 653.988 116.842 652.09 116.842ZM267.127 105.709C265.977 105.709 265.047 106.639 265.047 107.788V113.407C265.047 114.556 265.977 115.486 267.127 115.486H652.09C653.239 115.486 654.169 114.556 654.169 113.407V107.788C654.169 106.639 653.239 105.709 652.09 105.709H267.127Z" fill="#1A120E"/>
<path d="M623.364 115.55H471.11V116.79H623.364V115.55Z" fill="#200406"/>
<path d="M396.364 326.664C395.589 326.599 395.486 326.586 395.344 326.574H395.254L395.396 325.243C395.744 325.282 396.119 325.308 396.481 325.346L396.377 326.664H396.364Z" fill="#1A120E"/>
<path d="M461.268 257.743C461.229 257.472 461.19 257.201 461.152 256.981C461.126 256.736 461.087 256.49 461.048 256.245L461.01 256.025C456.98 231.33 438.006 211.439 413.724 206.389C413.556 206.35 413.401 206.325 413.233 206.286C412.445 206.131 411.683 206.015 410.753 205.847C410.727 205.847 410.689 205.847 410.663 205.847C410.585 205.834 410.508 205.821 410.417 205.808C410.392 205.808 410.353 205.808 410.314 205.808L410.185 205.782L405.651 204.878L398.393 253.83L398.367 254.062L398.328 254.308L396.804 264.576L344.636 265.17H344.132L336.938 265.26V265.919C336.938 266.94 336.977 267.857 337.028 268.683C338.088 292.681 354.943 318.255 385.412 325.088C385.864 325.191 386.316 325.294 386.781 325.385C389.493 325.94 392.322 326.34 395.241 326.586H395.267C395.59 326.612 395.938 326.637 396.365 326.676C396.946 326.728 397.682 326.78 398.728 326.831C399.426 326.857 400.214 326.883 401.105 326.883C403.507 326.883 406.555 326.741 409.875 326.25C423.656 324.209 436.469 317.299 445.975 306.76C449.966 302.342 453.273 297.396 455.804 292.1C456.541 290.576 457.212 289.013 457.806 287.437C457.961 287.037 458.103 286.636 458.258 286.223C458.336 286.004 458.413 285.771 458.491 285.539C460.39 280.062 461.487 274.315 461.733 268.477C461.733 268.257 461.759 268.037 461.759 267.818C461.784 267.004 461.797 266.165 461.785 265.325C461.759 263.388 461.668 260.985 461.255 257.769L461.268 257.743ZM460.415 268.399C460.067 276.42 458.142 284.053 454.926 290.989C454.823 291.209 454.719 291.428 454.616 291.635C454.513 291.868 454.409 292.087 454.293 292.307C454.229 292.462 454.151 292.604 454.074 292.746C445.562 309.64 429.275 322.014 409.694 324.907C405.264 325.565 401.312 325.578 398.806 325.475C397.643 325.423 396.868 325.359 396.248 325.32C396.158 325.32 396.081 325.307 396.003 325.294C395.783 325.268 395.59 325.255 395.396 325.23L394.97 325.191C392.464 324.984 390.036 324.636 387.685 324.183H387.672C387.207 324.093 386.768 324.003 386.316 323.899C356.118 317.415 339.405 292.216 338.346 268.58C338.307 267.947 338.281 267.275 338.268 266.552L344.365 266.487H344.623L344.856 266.475L397.953 265.867L399.671 254.269L399.71 254.023L399.749 253.791L406.762 206.428L409.991 207.074H410.082C410.082 207.074 410.185 207.099 410.224 207.112C410.314 207.125 410.392 207.138 410.469 207.151C410.857 207.216 411.205 207.267 411.541 207.332C412.045 207.422 412.51 207.5 412.975 207.59C413.53 207.707 414.086 207.823 414.628 207.952C437.812 213.273 455.817 232.48 459.705 256.232L459.731 256.452C459.77 256.684 459.808 256.904 459.834 257.175C459.886 257.42 459.912 257.666 459.95 257.911C460.364 261.063 460.441 263.426 460.467 265.312C460.467 266.035 460.467 266.746 460.441 267.443C460.441 267.766 460.441 268.076 460.415 268.399Z" fill="#1A120E"/>
<path d="M396.364 326.664C395.589 326.599 395.486 326.586 395.344 326.574H395.254L395.396 325.243C395.744 325.282 396.119 325.308 396.481 325.346L396.377 326.664H396.364Z" fill="#1A120E"/>
<path d="M310.473 238.523V239.298L374.239 238.627L342.479 184.806L339.547 186.278C321.981 196.934 310.292 216.398 310.486 238.523H310.473Z" fill="url(#paint12_linear_1691_1326)"/>
<path d="M466.499 246.61C463.115 220.584 442.372 199.014 416.075 195.217L412.096 194.429L410.999 201.765L410.469 205.343L410.404 205.795L410.211 207.112L403.262 253.985L399.697 254.023H398.354L343.486 254.669C343.486 255.586 343.525 256.503 343.577 257.407C343.693 259.926 343.951 262.522 344.39 265.144C344.455 265.583 344.533 266.035 344.61 266.474C348.369 286.985 362.163 308.865 391.857 313.876C392.309 313.954 392.761 314.018 393.213 314.083C399.904 315.077 407.369 315.232 415.674 314.354C431.199 312.701 444.774 304.344 454.061 292.332C454.254 292.1 454.422 291.867 454.603 291.635C455.921 289.891 457.135 288.083 458.258 286.197C461.474 280.811 463.916 274.883 465.388 268.644C466.266 264.937 466.809 261.101 466.977 257.201C467.015 256.18 467.041 255.147 467.028 254.101C467.002 252.331 466.925 249.929 466.499 246.61Z" fill="url(#paint13_linear_1691_1326)"/>
<path d="M395.977 246.21L405.38 181.746C405.38 181.746 405.367 181.746 405.354 181.746L401.402 180.958C396.055 180.196 390.372 180.028 384.133 180.958C376.074 182.121 368.531 184.911 361.853 188.966L395.964 246.223L395.977 246.21Z" fill="url(#paint14_linear_1691_1326)"/>
<path d="M362.395 339.579L362.176 338.275C377.869 335.666 388.473 325.746 393.678 308.813C397.579 296.117 396.817 284.053 396.804 283.937L398.134 283.847C398.134 283.976 398.922 296.285 394.944 309.214C389.648 326.431 378.398 336.932 362.382 339.592L362.395 339.579Z" fill="#1A120E"/>
<path d="M365.547 332.695L366.619 333.47L362.77 338.766L368.337 342.214L367.639 343.351L360.858 339.14L365.547 332.695Z" fill="#1A120E"/>
<path d="M371.927 186.098C371.643 185.904 365.03 181.229 364.139 173.802C363.597 169.333 365.276 164.877 369.099 160.537L370.093 161.415C366.529 165.458 364.966 169.565 365.456 173.634C366.283 180.467 372.612 184.948 372.677 185L371.915 186.085L371.927 186.098Z" fill="#1A120E"/>
<path d="M371.101 167.887L369.783 167.977L369.344 161.442L362.86 162.346L362.679 161.029L370.584 159.931L371.101 167.887Z" fill="#1A120E"/>
<path d="M310.486 260.52C307.14 240.345 322.666 234.106 322.821 234.055L323.298 235.295C322.704 235.527 308.626 241.223 311.79 260.313L310.486 260.533V260.52Z" fill="#1A120E"/>
<path d="M305.242 256.774L306.081 255.741L311.145 259.9L314.916 254.553L316.001 255.315L311.403 261.837L305.242 256.774Z" fill="#1A120E"/>
<path d="M424.263 156.999H389.61V158.239H424.263V156.999Z" fill="#1A120E"/>
<path d="M412.846 160.24H389.61V161.48H412.846V160.24Z" fill="#1A120E"/>
<path d="M420.014 163.495H389.61V164.735H420.014V163.495Z" fill="#1A120E"/>
<path d="M387.465 160.821C387.465 163.727 385.115 166.078 382.208 166.078C379.302 166.078 376.952 163.727 376.952 160.821C376.952 157.915 379.302 155.564 382.208 155.564C385.115 155.564 387.465 157.915 387.465 160.821Z" fill="url(#paint15_linear_1691_1326)"/>
<path d="M409.681 348.362H375.027V349.602H409.681V348.362Z" fill="#1A120E"/>
<path d="M398.263 351.617H375.027V352.857H398.263V351.617Z" fill="#1A120E"/>
<path d="M405.432 354.859H375.027V356.099H405.432V354.859Z" fill="#1A120E"/>
<path d="M372.896 352.198C372.896 355.104 370.545 357.455 367.639 357.455C364.733 357.455 362.382 355.104 362.382 352.198C362.382 349.292 364.733 346.941 367.639 346.941C370.545 346.941 372.896 349.292 372.896 352.198Z" fill="url(#paint16_linear_1691_1326)"/>
<path d="M317.086 274.212H282.432V275.452H317.086V274.212Z" fill="#1A120E"/>
<path d="M317.086 270.969H293.85V272.209H317.086V270.969Z" fill="#1A120E"/>
<path d="M317.073 267.715H286.669V268.955H317.073V267.715Z" fill="#1A120E"/>
<path d="M330.803 271.293C330.803 274.199 328.452 276.55 325.546 276.55C322.64 276.55 320.289 274.199 320.289 271.293C320.289 268.387 322.64 266.036 325.546 266.036C328.452 266.036 330.803 268.387 330.803 271.293Z" fill="url(#paint17_linear_1691_1326)"/>
<path d="M502.457 225.53H506.655C510.995 225.53 514.521 229.056 514.521 233.396V251.298C514.521 255.638 510.995 259.164 506.655 259.164H502.457C498.117 259.164 494.591 255.638 494.591 251.298V233.396C494.591 229.056 498.117 225.53 502.457 225.53Z" fill="url(#paint18_linear_1691_1326)"/>
<path d="M536.026 201.661H531.841C527.497 201.661 523.975 205.183 523.975 209.527V251.297C523.975 255.642 527.497 259.163 531.841 259.163H536.026C540.37 259.163 543.892 255.642 543.892 251.297V209.527C543.892 205.183 540.37 201.661 536.026 201.661Z" fill="url(#paint19_linear_1691_1326)"/>
<path d="M564.377 184.03H568.574C572.914 184.03 576.44 187.556 576.44 191.896V251.297C576.44 255.637 572.914 259.163 568.574 259.163H564.377C560.037 259.163 556.511 255.637 556.511 251.297V191.896C556.511 187.556 560.037 184.03 564.377 184.03Z" fill="url(#paint20_linear_1691_1326)"/>
<path d="M600.451 163.353H596.267C591.922 163.353 588.401 166.874 588.401 171.218V251.285C588.401 255.629 591.922 259.151 596.267 259.151H600.451C604.795 259.151 608.317 255.629 608.317 251.285V171.218C608.317 166.874 604.795 163.353 600.451 163.353Z" fill="url(#paint21_linear_1691_1326)"/>
<path d="M575.316 147.297L586.063 153.368L586.863 140.129L575.316 147.297Z" fill="url(#paint22_linear_1691_1326)"/>
<path d="M496.839 204.127C496.296 204.089 495.805 203.791 495.637 203.339C495.418 202.771 495.818 202.177 496.529 202.022C497.084 201.906 552.068 189.287 581.49 146.948C581.839 146.431 582.666 146.263 583.311 146.56C583.957 146.858 584.203 147.516 583.854 148.033C553.902 191.147 497.898 203.972 497.329 204.089C497.174 204.127 497.006 204.14 496.851 204.127H496.839Z" fill="url(#paint23_linear_1691_1326)"/>
<path d="M617.333 320.438H493.016V324.416H617.333V320.438Z" fill="#1A120E"/>
<path d="M532.616 306.463H493.016V310.441H532.616V306.463Z" fill="#1A120E"/>
<path d="M577.461 306.463H549.743V310.441H577.461V306.463Z" fill="#1A120E"/>
<path d="M576.027 292.487H493.016V296.465H576.027V292.487Z" fill="#1A120E"/>
<path d="M628.143 292.487H587.161V296.465H628.143V292.487Z" fill="#1A120E"/>
<path d="M604.132 363.356H493.016V367.335H604.132V363.356Z" fill="#1A120E"/>
<path d="M532.616 349.382H493.016V353.36H532.616V349.382Z" fill="#1A120E"/>
<path d="M622.783 349.382H549.743V353.36H622.783V349.382Z" fill="#1A120E"/>
<path d="M576.027 335.406H493.016V339.384H576.027V335.406Z" fill="#1A120E"/>
<path d="M628.143 335.406H587.161V339.384H628.143V335.406Z" fill="#1A120E"/>
<path opacity="0.25" d="M332.856 265.672C329.408 263.296 325.559 258.749 323.479 255.611C322.11 256.644 320.599 257.6 319.217 259.795C317.551 262.443 316.337 261.875 313.857 263.296C311.377 264.703 308.406 266.563 305.681 263.451C302.969 260.351 304.454 252.304 299.494 257.6C297.841 259.356 295.632 261.358 293.062 263.476C293.695 264.949 294.186 266.357 294.457 267.713C294.547 268.126 294.612 268.539 294.651 268.953C294.69 269.224 294.702 269.482 294.715 269.754C294.715 270.167 294.715 270.567 294.651 270.968C294.612 271.394 294.522 271.807 294.405 272.208C294.212 272.905 293.915 273.577 293.553 274.21C293.308 274.636 293.023 275.049 292.726 275.45C289.962 279.092 284.938 281.572 281.799 282.373C280.404 282.734 278.028 283.522 275.057 284.581V238.548C279.022 239.465 282.432 242.165 284.202 245.949C288.399 244.516 291.964 243.03 294.405 241.48C301.315 238.071 306.973 238.071 310.486 238.833C310.964 238.923 311.403 239.039 311.803 239.168C311.894 239.194 311.997 239.233 312.113 239.285C312.707 239.517 313.599 239.982 314.671 240.615C315.006 240.809 315.368 241.015 315.743 241.248C319.553 243.573 324.681 247.215 325.959 249.114C325.998 249.14 326.024 249.165 326.063 249.204C329.292 252.717 333.128 260.067 335.349 263.373C336.331 264.82 335.737 267.648 332.869 265.672H332.856Z" fill="#1B1B1B"/>
<path opacity="0.25" d="M644.159 390.326V375.446C639.186 371.236 639.316 363.551 639.316 363.551C639.987 359.947 641.821 354.548 644.172 348.504V229.482C643.862 229.301 643.552 229.133 643.242 228.978C640.723 193.343 634.511 155.577 623.3 146.69C610.681 136.693 602.195 141.873 598.927 148.408C598.514 148.486 598.113 148.576 597.713 148.705C597.713 148.705 595.595 150.94 597.041 153.097C593.851 153.755 590.545 155.189 587.173 157.63C587.006 157.759 586.863 157.876 586.708 157.992C572.979 163.029 576.066 176.488 576.066 176.488C576.143 176.229 576.208 175.997 576.272 175.764C576.208 176.307 576.143 176.888 576.092 177.482C576.014 177.482 575.949 177.482 575.872 177.482C573.34 177.482 571.364 178.645 570.137 179.626C567.115 179.898 566.973 180.311 566.934 180.453C566.831 180.84 567.089 181.46 567.464 182.313C567.528 182.481 567.606 182.649 567.657 182.778C567.864 183.269 568.342 183.643 568.639 183.837C568.639 183.914 568.639 183.979 568.665 184.056C568.871 186.42 569.646 188.9 571.209 190.579C572.462 191.922 574.077 192.62 576.001 192.62C576.13 192.62 576.259 192.62 576.401 192.62H576.44C576.569 192.607 576.686 192.581 576.802 192.555C578.145 200.408 581.348 207.951 588.4 208.972C588.543 208.984 588.685 209.01 588.827 209.023V215.778V217.819C588.672 217.845 588.53 217.884 588.388 217.935C585.959 218.672 584.358 221.448 584.358 221.448C584.358 221.448 581.064 220.325 576.427 220.066C574.49 219.95 572.333 220.002 570.073 220.338C565.152 220.17 560.321 222.185 556.511 226.705C555.155 228.32 553.928 230.244 552.868 232.505C550.608 237.348 547.34 241.158 543.892 244.62C539.01 249.502 533.74 253.687 530.317 259.047C529.116 260.92 528.147 262.935 527.501 265.169C523.678 278.331 533.572 283.394 533.572 283.394C533.895 284.208 533.701 285.499 533.378 286.726C515.838 281.586 486.893 273.746 477.477 272.054C477.31 272.054 471.407 269.858 466.137 268.825C465.969 268.799 465.801 268.76 465.633 268.721C465.556 268.708 465.466 268.682 465.388 268.67C465.324 268.657 465.246 268.644 465.181 268.631C464.148 268.398 462.973 268.127 461.759 267.817C461.319 267.701 460.88 267.585 460.428 267.468C458 266.835 455.546 266.112 453.815 265.544C451 264.627 449.618 264.743 448.223 265.583L414.615 207.977L413.711 206.414L411.205 202.126L410.999 201.79L410.818 201.454L404.166 190.075L401.686 185.813L400.395 186.536L403.766 192.839L410.288 205.019L410.469 205.368L410.663 205.743L410.74 205.872L411.528 207.357L444.27 268.553C443.909 268.85 443.65 269.057 443.65 269.057C434.028 274.043 441.997 277.478 441.997 277.478C441.183 278.434 440.873 279.274 440.873 279.997C440.873 282.49 444.58 283.678 444.58 283.678C442.914 289.154 448.726 288.457 448.726 288.457V288.509H448.701C448.701 288.509 448.701 288.509 448.726 288.521C448.468 291.621 450.677 292.655 453.88 292.37C453.944 292.37 453.996 292.37 454.061 292.358C454.125 292.358 454.203 292.358 454.28 292.332C454.319 292.332 454.358 292.332 454.409 292.332C454.862 292.28 455.326 292.203 455.804 292.112C456.114 292.035 456.424 291.957 456.747 291.88L459.124 296.323C459.95 297.782 461.797 298.312 463.257 297.485C464.716 296.672 465.233 294.825 464.419 293.365L462.34 289.787C463.631 289.18 464.897 288.483 466.098 287.734C466.15 287.708 466.202 287.695 466.253 287.682C471.859 289.516 484.594 298.079 498.711 306.501C500.959 307.831 503.245 309.174 505.544 310.479C512.299 314.328 519.158 317.893 525.512 320.476C526.791 321.005 528.057 321.483 529.284 321.922C528.987 322.736 528.69 323.589 528.418 324.454C527.372 327.722 526.494 331.364 525.771 335.445C525.538 336.724 525.331 338.042 525.138 339.411C524.699 342.498 524.337 345.83 524.079 349.421C523.975 350.699 523.898 352.017 523.82 353.373C523.652 356.408 523.562 359.753 523.549 363.396C523.536 364.687 523.536 366.005 523.549 367.361C523.575 374.284 523.82 382.059 524.208 390.365C524.208 390.532 524.208 390.687 524.234 390.855C524.401 394.33 524.582 397.882 524.802 401.511H631.94C631.902 401.304 631.876 401.085 631.85 400.878C632.186 401.085 632.522 401.304 632.858 401.511H641.937C644.094 397.907 646.523 392.625 646.884 391.85C646.678 392.547 645.399 396.81 644.353 401.511H650.475C651.495 396.448 651.87 391.527 651.947 390.365H644.159V390.326ZM576.427 191.703C576.427 191.703 576.389 191.703 576.363 191.703C576.246 191.703 576.13 191.703 576.014 191.703C574.335 191.703 572.94 191.109 571.855 189.933C570.46 188.448 569.75 186.226 569.556 184.082C569.491 183.604 569.479 183.127 569.479 182.662C569.633 182.003 569.84 181.318 570.073 180.802C571.028 179.898 573.069 178.322 575.872 178.322C575.924 178.322 575.975 178.322 576.027 178.335C575.975 179.187 575.937 180.078 575.937 181.021C575.911 184.121 576.092 187.893 576.66 191.651C576.582 191.651 576.505 191.651 576.427 191.677V191.703ZM578.843 168.415C579.049 168.041 579.14 167.963 579.14 167.963C579.166 167.963 579.204 167.963 579.23 167.963C579.101 168.118 578.972 168.26 578.843 168.428V168.415ZM629.732 325.113C626.968 320.308 623.984 316.239 621.814 312.894C624.062 313.953 626.102 314.521 627.898 314.521C629.086 314.521 630.184 314.276 631.166 313.798C630.688 317.363 630.21 321.212 629.732 325.113ZM612.902 196.495C614.659 197.567 617.462 194.958 619.347 191.703C619.425 191.574 619.476 191.457 619.541 191.328C621.362 201.519 622.086 213.854 622.305 225.207C621.711 224.949 621.104 224.716 620.471 224.535L620.303 225.142C620.303 225.142 616.764 220.144 612.915 218.581V196.495H612.902ZM568.251 587.45C567.179 589.194 566.017 590.847 564.777 592.423C564.557 592.423 564.338 592.397 564.118 592.397V593.237C563.976 593.418 563.834 593.586 563.666 593.766L571.532 612.327H578.791L568.251 587.45Z" fill="#1B1B1B"/>
<path d="M627.394 182.778C624.32 188.086 618.766 191.703 619.412 180.337C620.199 166.413 579.63 160.033 595.22 148.718C618.52 131.811 639.651 161.634 627.394 182.791V182.778Z" fill="#1A120E"/>
<path d="M596.886 190.528V212.317C598.087 214.086 604.571 221.784 620.949 210.974V181.486C620.949 181.486 611.83 185.762 596.886 190.528Z" fill="#FDAE97"/>
<path d="M596.873 197.167V206.828C609.634 207.086 609.944 194.312 609.918 194.338C603.77 198.264 598.668 197.36 596.873 197.167Z" fill="#FF7761"/>
<path d="M598.165 200.137C605.088 200.086 617.72 190.657 620.523 184.315C621.517 182.055 621.13 176.062 620.213 173.169C617.345 164.089 615.046 155.861 607.994 153.368C605.023 152.322 594.226 155.939 591.5 156.533C586.295 157.657 584.022 162.926 583.97 172.123C583.906 182.442 585.946 200.228 598.152 200.137H598.165Z" fill="#FDAE97"/>
<path d="M593.528 183.914C592.856 183.733 589.498 182.752 588.981 181.15C588.865 180.802 588.826 180.259 589.278 179.691C591.694 176.643 591.255 171.67 591.113 170.43C590.454 170.081 588.439 169.242 585.714 170.159L585.3 168.932C589.227 167.614 591.952 169.41 592.068 169.487L592.301 169.642L592.352 169.913C592.391 170.185 593.412 176.552 590.299 180.479C590.183 180.621 590.208 180.685 590.221 180.737C590.441 181.396 592.482 182.274 593.877 182.649L593.541 183.888L593.528 183.914Z" fill="#1A120E"/>
<path d="M618.895 168.17C618.895 168.17 614.878 172.936 611.533 165.561C607.439 156.533 593.115 157.928 587.186 159.039C587.186 159.039 586.36 159.671 584.112 167.563C584.112 167.563 580.522 151.973 598.178 148.073C615.356 144.276 619.954 160.976 618.882 168.17H618.895Z" fill="#1A120E"/>
<path d="M614.09 172.575C613.005 175.985 614.878 179.627 618.275 180.712C621.685 181.797 625.327 179.924 626.412 176.527C627.497 173.117 625.624 169.475 622.227 168.39C618.83 167.305 615.175 169.178 614.09 172.575Z" fill="#FDAE97"/>
<path d="M620.794 178.219C620.109 178.219 619.437 177.999 619.024 177.328C618.378 176.307 619.089 175.674 619.425 175.377C619.773 175.054 619.967 174.887 619.838 174.318C619.722 173.802 619.437 173.492 619.127 173.169C618.456 172.458 617.952 171.696 619.153 170.263C619.554 169.785 620.083 169.539 620.69 169.526H620.716C622.563 169.526 624.643 171.838 624.875 172.097L623.906 172.949C623.183 172.122 621.672 170.818 620.716 170.818C620.484 170.818 620.316 170.908 620.161 171.089C619.592 171.761 619.631 171.787 620.083 172.277C620.432 172.652 620.91 173.156 621.117 174.021C621.414 175.326 620.716 175.946 620.303 176.32C620.225 176.385 620.122 176.488 620.083 176.54C620.083 176.54 620.109 176.579 620.135 176.63C620.548 177.276 621.995 176.63 622.008 176.63L622.55 177.793C622.098 177.999 621.452 178.206 620.807 178.206L620.794 178.219Z" fill="#1A120E"/>
<path d="M590.945 187.634C590.945 187.634 597.338 190.618 603.112 186.808C603.112 186.808 600.761 193.253 596.899 192.891C593.05 192.529 590.932 187.634 590.932 187.634H590.945Z" fill="#1A120E"/>
<path d="M597.571 169.952L596.525 169.19C596.628 169.048 599.108 165.716 605.785 167.937L605.372 169.164C599.65 167.253 597.648 169.836 597.558 169.952H597.571Z" fill="#1A120E"/>
<path d="M604.378 173.272C604.378 174.473 603.396 175.454 602.195 175.454C600.994 175.454 600.012 174.473 600.012 173.272C600.012 172.07 600.994 171.089 602.195 171.089C603.396 171.089 604.378 172.07 604.378 173.272Z" fill="#1A120E"/>
<path d="M591.242 173.272C591.242 174.473 590.26 175.454 589.059 175.454C587.858 175.454 586.876 174.473 586.876 173.272C586.876 172.07 587.858 171.089 589.059 171.089C590.26 171.089 591.242 172.07 591.242 173.272Z" fill="#1A120E"/>
<path d="M471.317 288.521C472.776 287.707 473.306 285.86 472.479 284.4L409.746 176.861L408.454 177.585L467.183 287.358C467.997 288.818 469.844 289.334 471.304 288.521H471.317Z" fill="#1A120E"/>
<path d="M657.941 471.864C665.161 477.767 674.848 495.074 682.145 512.627C686.498 523.089 691.91 524.755 691.91 524.755C691.91 524.755 682.843 538.743 679.821 549.309C679.821 549.309 612.76 490.618 603.267 475.739C593.774 460.86 633.361 451.793 657.941 471.864Z" fill="#FDAE97"/>
<path d="M626.025 480.441C627.472 489.65 624.436 532.816 618.172 550.769C614.439 561.476 610.332 581.858 610.332 581.858C610.332 581.858 593.657 570.686 584.358 576.549C584.358 576.549 573.521 488.1 576.376 470.677C579.23 453.266 621.091 449.081 626.012 480.428L626.025 480.441Z" fill="#FDAE97"/>
<path d="M642.054 287.823C640.078 293.248 634.407 345.222 634.046 348.593C633.49 350.001 626.503 368.252 634.601 371.791C635.014 372.036 637.843 373.754 638.463 376.466C638.67 377.383 638.114 380.018 636.9 383.415C635.893 386.218 635.699 389.189 638.192 390.816C641.692 393.076 645.993 395.763 647.052 395.956C648.886 396.305 654.983 382.782 654.983 382.782C654.983 382.782 650.32 397.997 650.992 403.913C651.16 405.437 652.929 404.985 654.014 403.913C658.987 398.966 660.046 381.142 660.046 381.142C660.046 381.142 661.157 371.558 654.079 367.774C647.233 364.118 647.388 354.625 647.388 354.625H647.375C649.945 341.025 668.932 301.811 670.146 298.311C677.25 277.917 647.982 271.614 642.067 287.81L642.054 287.823Z" fill="#FDAE97"/>
<path d="M639.096 391.152L644.418 377.577C644.418 377.577 642.196 386.851 639.096 391.152Z" fill="#1A120E"/>
<path d="M643.113 393.955L650.811 378.805C650.811 378.805 646.613 389.964 643.113 393.955Z" fill="#1A120E"/>
<path d="M655.667 222.675C673.776 235.152 688.255 272.015 675.184 275.967C675.184 275.967 677.121 281.753 679.136 284.207C679.136 284.207 659.116 298.092 638.722 298.118C638.722 298.118 637.443 293.197 635.648 292.177C635.648 292.177 624.772 294.489 619.451 281.844C614.129 269.199 622.318 255.573 618.585 240.5C613.135 218.491 635.815 208.984 655.68 222.675H655.667Z" fill="url(#paint24_linear_1691_1326)"/>
<path d="M666.039 292.1L665.522 290.95C671.929 288.07 676.669 285.086 678.219 284.066C676.32 281.354 674.654 276.407 674.577 276.174L674.37 275.554L674.99 275.361C677.405 274.624 678.878 272.622 679.381 269.393C681.164 257.963 669.578 233.035 655.293 223.193L656.016 222.146C670.908 232.415 682.507 257.575 680.634 269.587C680.105 273.01 678.49 275.335 675.984 276.355C676.527 277.866 678.077 281.922 679.614 283.808L680.04 284.337L679.472 284.725C679.472 284.725 673.97 288.509 666.026 292.087L666.039 292.1Z" fill="#1A120E"/>
<path d="M642.764 289.154C641.305 289.154 639.742 288.973 638.089 288.586L638.386 287.359C652.077 290.627 658.793 277.775 658.871 277.646L659.116 277.168L659.62 277.323C666.401 279.415 672.084 270.839 672.148 270.762L673.207 271.459C672.962 271.834 667.188 280.526 659.749 278.679C658.522 280.746 652.929 289.154 642.777 289.154H642.764Z" fill="#1A120E"/>
<path d="M676.953 499.013C663.004 479.846 654.776 445.295 645.283 416.441C639.652 399.353 636.19 373.805 642.261 357.776C652.322 331.247 635.144 312.751 628.867 302.354C622.602 291.969 569.246 278.536 558.771 286.286C543.698 297.433 533.83 308.45 531.88 344.395C529.297 392.223 545.196 524.264 545.196 524.264C586.747 533.499 624.114 527.196 624.114 527.196C626.309 516.644 625.999 491.083 625.999 491.083L647.349 514.693C656.404 504.67 669.191 500.615 676.953 499V499.013Z" fill="url(#paint25_linear_1691_1326)"/>
<path d="M628.337 216.217C628.337 216.217 623.752 209.746 619.335 209.216C614.917 208.7 599.767 208.377 596.977 208.842C594.252 209.294 592.418 212.497 592.418 212.497C592.418 212.497 573.069 205.897 562.517 220.905C554.677 232.065 552.107 273.331 558.758 287.513C558.758 287.513 585.43 279.699 629.138 302.896C655.254 316.755 641.369 256.269 643.513 245.924C645.722 235.281 638.928 219.316 628.337 216.204V216.217Z" fill="url(#paint26_linear_1691_1326)"/>
<path d="M635.957 305.596C633.891 305.596 631.514 304.886 628.854 303.478L629.448 302.354C633.658 304.589 636.991 304.925 639.367 303.362C646.626 298.57 644.805 277.4 643.487 261.94C642.842 254.475 642.338 248.585 642.919 245.821C645.05 235.578 638.528 219.885 628.182 216.837L628.544 215.623C639.483 218.852 646.394 235.346 644.159 246.079C643.617 248.662 644.159 254.772 644.753 261.837C646.109 277.607 647.956 299.216 640.078 304.421C638.889 305.209 637.52 305.596 635.97 305.596H635.957Z" fill="#1A120E"/>
<path d="M557.415 314.417C563.602 311.111 576.143 306.435 581.633 290.781C587.122 275.126 557.648 258.826 552.74 264.083C552.74 264.083 539.268 292.498 540.547 300.532C541.825 308.566 553.14 316.716 557.415 314.43V314.417Z" fill="#FDAE97"/>
<path d="M450.057 268.527C450.057 268.527 442.088 265.105 451.71 260.119C451.71 260.119 454.048 258.195 455.688 257.019C457.329 255.857 458.672 255.547 461.875 256.593C465.078 257.639 470.774 259.202 474.197 259.874C479.518 260.92 485.473 263.141 485.537 263.103C498.505 265.427 548.593 279.428 554.754 281.973C576.841 291.079 570.279 314.521 551.435 315.619C530.304 316.859 486.222 282.593 474.313 278.718C474.261 278.731 474.21 278.744 474.158 278.757C466.654 283.497 456.153 286.119 456.786 279.493C456.786 279.493 450.974 280.203 452.64 274.714C452.64 274.714 446.466 272.738 450.057 268.514V268.527Z" fill="#FDAE97"/>
<path d="M450.057 268.527C451.322 268.308 452.472 267.817 453.583 267.274C454.681 266.706 455.753 266.06 456.67 265.169C455.391 265.401 454.254 265.879 453.144 266.422C452.046 266.99 450.987 267.623 450.057 268.527Z" fill="#1A120E"/>
<path d="M452.653 274.741C454.319 274.418 455.882 273.798 457.38 273.074C458.129 272.7 458.865 272.3 459.563 271.835C460.26 271.37 460.945 270.879 461.539 270.259C459.937 270.827 458.452 271.499 456.967 272.222C455.494 272.958 454.035 273.733 452.666 274.741H452.653Z" fill="#1A120E"/>
<path d="M456.76 279.558C457.354 279.713 457.948 279.713 458.529 279.674C459.124 279.623 459.705 279.494 460.26 279.313C461.371 278.938 462.443 278.344 463.218 277.414C462.624 277.543 462.094 277.737 461.552 277.905L459.963 278.422C458.904 278.783 457.858 279.106 456.747 279.571L456.76 279.558Z" fill="#1A120E"/>
<path d="M553.592 287.525L572.488 293.157L571.429 305.375L568.2 307.881C568.2 307.881 558.681 315.979 551.331 314.042C543.982 312.105 541.412 300.506 541.412 300.506L548.232 291.452L553.592 287.538V287.525Z" fill="#FDAE97"/>
<path d="M600.955 233.072C607.155 254.164 595.195 291.917 582.55 286.764C582.55 286.764 580.419 292.473 580.431 295.663C580.431 295.663 556.136 293.842 540.288 281.016C540.288 281.016 542.394 276.392 541.645 274.455C541.645 274.455 531.738 269.405 535.574 256.23C539.397 243.056 554.341 237.631 560.941 223.566C570.564 203.029 594.174 209.939 600.981 233.085L600.955 233.072Z" fill="url(#paint27_linear_1691_1326)"/>
<path d="M581.064 296.334L580.38 296.283C580.315 296.283 573.728 295.766 565.294 293.531L565.617 292.304C572.411 294.1 577.965 294.771 579.812 294.952C580.044 291.646 581.865 286.751 581.956 286.531L582.188 285.924L582.795 286.169C585.133 287.125 587.548 286.492 589.964 284.309C598.54 276.56 605.256 249.901 600.361 233.252L601.575 232.891C606.677 250.237 599.844 277.089 590.816 285.252C588.246 287.577 585.533 288.365 582.937 287.577C582.408 289.101 581.052 293.209 581.064 295.663V296.347V296.334Z" fill="#1A120E"/>
<path d="M583.854 281.999C583.428 282.141 573.47 285.253 568.846 279.131C566.262 280.087 554.018 283.897 545.791 273.203L546.798 272.428C555.374 283.574 568.29 278.02 568.82 277.788L569.311 277.568L569.608 278.007C573.547 283.91 583.376 280.823 583.467 280.797L583.854 281.999Z" fill="#1A120E"/>
<path d="M669.268 542.954C677.586 549.167 683.424 563.361 689.572 580.436C691.716 586.391 694.273 592.113 692.956 598.674C691.806 604.396 687.26 609.433 683.114 612.12C681.783 612.985 681.784 614.431 683.372 614.419C689.107 614.367 697.502 614.315 703.147 614.315C712.433 614.315 723.464 609.045 720.377 595.587C717.303 582.128 719.408 572.028 723.024 557.381C726.654 542.747 721.604 532.673 705.549 529.999C699.788 529.043 695.165 526.899 691.6 524.562C689.533 523.193 687.815 521.759 686.446 520.441C686.446 520.441 665.987 523.645 669.268 542.967V542.954Z" fill="url(#paint28_linear_1691_1326)"/>
<path d="M696.831 594.617C698.884 582.954 697.438 570.749 696.831 565.169C696.133 558.737 692.801 549.424 696.094 540.577C700.06 529.921 706.35 530.218 706.957 530.321C721.668 532.788 726.512 543.237 723.011 557.419C719.395 572.053 717.277 582.166 720.364 595.625C723.451 609.07 712.42 614.353 703.134 614.353C698.858 614.353 692.09 614.392 686.95 614.418C685.322 614.418 684.599 612.364 685.891 611.369C689.83 608.347 695.332 603.129 696.831 594.617Z" fill="white"/>
<path d="M686.937 614.87C685.994 614.87 685.193 614.302 684.883 613.411C684.573 612.52 684.857 611.577 685.607 611.008C691.729 606.307 695.255 600.921 696.379 594.54C698.355 583.368 697.063 571.537 696.443 565.841L696.379 565.221C696.211 563.671 695.888 561.94 695.539 560.106C694.467 554.372 693.124 547.242 695.668 540.409C699.982 528.811 706.97 529.844 707.034 529.87C713.802 531.006 718.697 533.809 721.591 538.227C724.742 543.018 725.388 549.696 723.451 557.523C719.782 572.351 717.78 582.309 720.803 595.509C721.991 600.714 721.229 605.08 718.517 608.477C715.365 612.442 709.605 614.806 703.121 614.806C698.845 614.806 692.077 614.845 686.95 614.87C686.95 614.87 686.95 614.87 686.937 614.87ZM697.283 594.695C696.12 601.308 692.478 606.875 686.175 611.719C685.658 612.119 685.619 612.7 685.762 613.101C685.904 613.514 686.291 613.953 686.95 613.953C692.077 613.915 698.858 613.889 703.134 613.889C709.346 613.889 714.836 611.654 717.819 607.909C720.351 604.744 721.048 600.637 719.924 595.716C716.85 582.309 718.878 572.26 722.572 557.304C724.445 549.722 723.851 543.303 720.842 538.717C718.09 534.52 713.389 531.846 706.892 530.761C706.84 530.748 700.512 530.012 696.534 540.732C694.079 547.319 695.397 554.32 696.443 559.938C696.792 561.785 697.115 563.542 697.296 565.118L697.36 565.738C697.98 571.472 699.285 583.381 697.283 594.695Z" fill="#1A120E"/>
<path d="M700.499 594.618C702.552 582.955 701.106 570.75 700.499 565.17C699.801 558.738 696.469 549.425 699.763 540.578C703.728 529.922 710.018 530.219 710.625 530.322C725.336 532.789 730.18 543.238 726.68 557.42C723.063 572.054 720.945 582.167 724.032 595.626C727.119 609.071 716.088 614.354 706.802 614.354C702.062 614.354 694.286 614.367 689.042 614.406C687.893 614.406 687.402 612.933 688.345 612.262C692.258 609.433 698.846 604.06 700.512 594.631L700.499 594.618Z" fill="url(#paint29_linear_1691_1326)"/>
<path d="M689.029 615C688.242 615 687.57 614.509 687.324 613.76C687.079 613.011 687.324 612.223 687.983 611.758C692.349 608.593 698.355 603.375 699.905 594.515C701.868 583.368 700.589 571.55 699.969 565.88L699.905 565.247C699.737 563.71 699.414 561.979 699.065 560.145C697.98 554.398 696.637 547.229 699.194 540.371C703.547 528.669 710.651 529.728 710.728 529.728C717.535 530.865 722.469 533.706 725.388 538.149C728.565 542.98 729.211 549.696 727.261 557.562C723.606 572.364 721.591 582.309 724.613 595.484C725.814 600.728 725.039 605.132 722.301 608.568C719.111 612.559 713.312 614.948 706.789 614.948C702.062 614.948 694.273 614.961 689.029 615ZM701.106 594.722C699.466 604.021 693.24 609.459 688.694 612.739C688.371 612.972 688.448 613.295 688.487 613.385C688.513 613.476 688.642 613.786 689.042 613.786C694.286 613.76 702.075 613.734 706.802 613.734C712.963 613.734 718.413 611.512 721.371 607.806C723.864 604.68 724.561 600.611 723.451 595.742C720.377 582.309 722.404 572.235 726.098 557.265C727.958 549.722 727.377 543.342 724.394 538.808C721.668 534.649 717.006 531.988 710.548 530.916C710.47 530.916 704.296 530.167 700.344 540.784C697.903 547.333 699.22 554.307 700.266 559.913C700.615 561.773 700.938 563.516 701.119 565.105L701.183 565.738C701.803 571.473 703.095 583.394 701.106 594.722Z" fill="#1A120E"/>
<path d="M723.696 547.849C723.696 555.405 718.93 561.527 713.04 561.527C707.151 561.527 702.385 555.405 702.385 547.849C702.385 540.293 707.151 534.158 713.04 534.158C718.93 534.158 723.696 540.28 723.696 547.849Z" fill="white"/>
<path d="M694.919 560.158C684.457 547.397 687.428 537.361 689.197 533.641C691.109 529.612 694.364 526.796 697.115 526.796V528.062C695.229 528.062 692.22 530.206 690.334 534.184C688.681 537.684 685.904 547.152 695.901 559.357L694.919 560.158Z" fill="#1A120E"/>
<path d="M685.684 572.338C681.848 560.636 692.271 555.922 692.388 555.87L692.891 557.033C692.504 557.2 683.424 561.359 686.885 571.938L685.684 572.338Z" fill="#1A120E"/>
<path d="M681.9 564.627C678.064 552.925 688.487 548.211 688.59 548.159L689.094 549.322C688.707 549.49 679.627 553.649 683.088 564.227L681.887 564.627H681.9Z" fill="#1A120E"/>
<path d="M623.08 476.036C622.835 473.815 622.563 471.438 622.279 468.932C618.585 436.668 612.411 382.653 625.289 354.07C638.747 324.221 614.917 303.258 614.672 303.051L615.498 302.096C615.744 302.315 640.284 323.898 626.451 354.599C613.716 382.873 619.864 436.655 623.545 468.803C623.829 471.309 624.1 473.685 624.346 475.907L623.08 476.049V476.036Z" fill="#1A120E"/>
<path d="M625.069 293.157C607.684 280.77 610.551 263.799 610.577 263.631L611.83 263.85C611.804 264.018 609.105 280.215 625.805 292.124L625.069 293.157Z" fill="#1A120E"/>
<path d="M611.675 170.817C611.623 170.675 611.456 170.262 607.762 170.236L606.741 169.9L607.645 170.688C608.382 171.076 609.105 173.465 609.324 174.356L609.402 174.653L609.673 174.499C609.673 174.499 610.694 173.93 610.978 173.207C611.029 173.065 611.107 172.897 611.184 172.729C611.572 171.851 611.83 171.192 611.675 170.817Z" fill="#1A120E"/>
<path d="M578.481 170.662C575.162 170.933 575.032 171.372 574.981 171.514C574.864 171.902 575.123 172.522 575.497 173.374C575.575 173.542 575.639 173.71 575.704 173.839C575.988 174.549 576.892 175.027 576.931 175.04L577.228 175.195L577.28 174.859C577.499 173.607 578.055 171.475 578.623 171.088L579.359 170.571L578.468 170.649L578.481 170.662Z" fill="#1A120E"/>
<path d="M589.989 172.342C590.079 172.342 590.17 172.329 590.26 172.29C592.65 171.321 594.561 172.264 594.574 172.264C594.936 172.445 595.362 172.303 595.556 171.941C595.737 171.58 595.608 171.153 595.246 170.973C595.143 170.921 592.74 169.733 589.731 170.947C589.356 171.102 589.175 171.515 589.317 171.89C589.421 172.174 589.692 172.342 589.976 172.342H589.989Z" fill="#1A120E"/>
<path d="M601.601 183.681C599.521 183.681 597.816 183.009 596.538 181.692C594.445 179.548 593.851 175.918 593.967 173.464C594.109 170.545 596.137 169.176 601.2 168.582C601.614 168.53 602.014 168.518 602.401 168.518C606.857 168.518 609.725 171.398 609.751 171.437L609.802 171.488L609.854 171.605C610.371 174.407 609.931 178.334 607.826 180.904C606.367 182.686 604.365 183.616 601.846 183.681H601.614H601.601ZM602.388 169.396C602.027 169.396 601.665 169.422 601.291 169.46C596.705 169.99 594.962 171.088 594.846 173.503C594.82 174.007 594.665 178.502 597.17 181.072C598.281 182.222 599.779 182.803 601.614 182.803H601.833C604.08 182.751 605.863 181.924 607.142 180.349C609.027 178.037 609.441 174.485 609.014 171.953C608.524 171.514 606.031 169.396 602.388 169.396Z" fill="#1A120E"/>
<path d="M584.035 183.681C582.123 183.681 580.509 182.997 579.243 181.641C577.009 179.251 576.363 175.183 576.724 172.212V172.147L576.776 172.044C576.918 171.863 579.618 168.557 583.906 168.557C584.061 168.557 584.203 168.557 584.358 168.557C588.93 168.802 590.803 170.029 591.061 172.948C591.113 173.516 591.474 178.644 588.878 181.602C587.755 182.881 586.269 183.578 584.435 183.668C584.293 183.668 584.164 183.668 584.035 183.668V183.681ZM577.59 172.444C577.293 175.183 577.887 178.889 579.902 181.046C580.987 182.222 582.395 182.816 584.061 182.816C584.177 182.816 584.293 182.816 584.409 182.816C585.998 182.738 587.277 182.144 588.233 181.059C590.57 178.386 590.247 173.594 590.196 173.064C589.976 170.636 588.439 169.693 584.319 169.474C584.19 169.474 584.048 169.474 583.919 169.474C580.38 169.474 578.029 171.979 577.59 172.483V172.444Z" fill="#1A120E"/>
<path d="M611.146 171.307C611.042 171.23 610.978 171.114 610.952 170.984C610.939 170.855 610.965 170.713 611.042 170.61C611.146 170.481 611.288 170.403 611.443 170.403C611.507 170.403 611.559 170.403 611.611 170.429L616.545 169.15C616.545 169.15 616.157 169.9 616.105 170.016L616.054 170.119L611.236 171.359L611.133 171.282L611.146 171.307Z" fill="#1A120E"/>
<path d="M606.16 141.381C608.64 134.084 617.513 126.812 631.346 137.765C646.071 149.428 652.167 210.908 652.606 251.942C652.606 251.942 648.576 255.223 641.86 253.531C641.86 253.531 639.923 233.318 639.548 230.231C639.548 230.231 639.509 248.274 638.825 251.826C638.825 251.826 633.607 254.435 629.654 250.664C629.654 250.664 634.046 182.88 621.672 164.682C610.009 147.529 603.564 148.989 606.16 141.381Z" fill="#1A120E"/>
<path d="M605.76 139.779C605.76 139.779 603.538 142.13 605.179 144.313C605.179 144.313 616.183 144.339 621.117 150.125C621.117 150.125 623.726 147.878 623.506 144.804C623.506 144.804 613.949 137.093 605.76 139.766V139.779Z" fill="url(#paint30_linear_1691_1326)"/>
<path d="M318.197 248.054C320.677 246.634 321.891 247.215 323.557 244.567C324.939 242.371 326.45 241.416 327.819 240.382C329.899 243.508 333.748 248.067 337.209 250.444C340.064 252.407 340.658 249.591 339.676 248.145C337.455 244.838 333.619 237.502 330.39 233.976C330.364 233.95 330.325 233.924 330.299 233.898C328.413 231.122 318.378 224.625 316.143 223.94C312.811 222.92 306.598 222.377 298.745 226.252C286.126 234.26 243.607 240.757 238.789 243.715C223.316 253.195 236.451 279.182 253.32 274.403C266.752 270.593 294.276 252.536 303.834 242.371C308.807 237.089 307.309 245.123 310.021 248.235C312.746 251.348 315.717 249.488 318.197 248.08V248.054Z" fill="#FDAE97"/>
<path d="M198.543 188.19C202.702 195.281 220.694 239.88 220.694 239.88L275.664 222.96C281.309 222.688 286.54 225.956 288.735 231.161C292.559 240.215 298.81 248.094 299.042 254.514C299.288 261.243 290.699 265.97 286.113 267.132C278.002 269.199 237.433 285.745 233.261 287.062C177.502 304.641 165.697 233.37 158.813 215.998C139.452 167.188 182.54 160.911 198.543 188.19Z" fill="url(#paint31_linear_1691_1326)"/>
<path d="M187.009 177.081L187.732 175.932C192.304 178.812 196.243 182.932 199.124 187.84C203.05 194.531 218.872 233.563 221.081 239.052L275.458 222.313L275.858 223.618L220.293 240.719L220.061 240.137C219.88 239.698 202.03 195.487 197.948 188.525C195.171 183.798 191.387 179.832 186.996 177.068L187.009 177.081Z" fill="#1A120E"/>
<path d="M315.368 102.415C315.368 102.415 312.978 98.2043 308.755 103.151C304.531 108.098 307.231 111.521 309.259 110.94C311.286 110.371 312.63 110.152 313.598 106.703C313.598 106.703 314.141 109.764 316.517 109.467C318.881 109.157 320.108 107.116 320.108 107.116C320.108 107.116 320.031 109.945 321.18 110.358C322.33 110.772 325.197 109.674 326.308 106.768C326.308 106.768 327.225 109.803 330.428 107.84C333.631 105.864 332.533 105.334 332.533 105.334H336.938C336.938 105.334 335.013 99.638 328.374 101.808C328.374 101.808 325.507 98.3076 322.239 102.48C322.239 102.48 318.778 97.3131 315.394 102.415H315.368Z" fill="#FDAE97"/>
<path d="M320.16 106.936C320.224 106.548 320.328 106.174 320.431 105.799C320.534 105.425 320.651 105.063 320.806 104.701C320.948 104.34 321.116 104.004 321.297 103.655C321.477 103.319 321.71 103.009 321.942 102.687C321.658 102.945 321.387 103.242 321.167 103.578C320.948 103.901 320.767 104.262 320.625 104.624C320.341 105.36 320.16 106.135 320.173 106.923L320.16 106.936Z" fill="#1A120E"/>
<path d="M326.321 106.444C326.385 106.056 326.489 105.682 326.592 105.307C326.695 104.933 326.812 104.571 326.967 104.209C327.109 103.848 327.277 103.512 327.457 103.163C327.638 102.827 327.871 102.517 328.103 102.194C327.819 102.453 327.548 102.75 327.328 103.086C327.109 103.408 326.928 103.77 326.786 104.132C326.502 104.868 326.321 105.643 326.334 106.431L326.321 106.444Z" fill="#1A120E"/>
<path d="M313.611 106.702C313.676 106.315 313.779 105.94 313.883 105.566C313.986 105.191 314.102 104.83 314.257 104.468C314.399 104.106 314.567 103.771 314.748 103.422C314.929 103.086 315.161 102.776 315.394 102.453C315.11 102.711 314.838 103.009 314.619 103.344C314.399 103.667 314.218 104.029 314.076 104.391C313.792 105.127 313.611 105.902 313.624 106.69L313.611 106.702Z" fill="#1A120E"/>
</g>
</g>
<defs>
<radialGradient id="paint0_radial_1691_1326" cx="0" cy="0" r="1" gradientUnits="userSpaceOnUse" gradientTransform="translate(462.805 73.4167) scale(87.1316 87.1317)">
<stop stop-color="#A1D4FD"/>
<stop offset="1" stop-color="#DFEFFD"/>
</radialGradient>
<radialGradient id="paint1_radial_1691_1326" cx="0" cy="0" r="1" gradientUnits="userSpaceOnUse" gradientTransform="translate(396.856 345.429) scale(293.026 293.026)">
<stop stop-color="#A1D4FD"/>
<stop offset="1" stop-color="#DFEFFD"/>
</radialGradient>
<linearGradient id="paint2_linear_1691_1326" x1="351.856" y1="524.498" x2="421.486" y2="524.498" gradientUnits="userSpaceOnUse">
<stop stop-color="#007D8E"/>
<stop offset="1" stop-color="#05BBD0"/>
</linearGradient>
<linearGradient id="paint3_linear_1691_1326" x1="413.711" y1="517.613" x2="448.145" y2="517.613" gradientUnits="userSpaceOnUse">
<stop stop-color="#007D8E"/>
<stop offset="1" stop-color="#05BBD0"/>
</linearGradient>
<linearGradient id="paint4_linear_1691_1326" x1="380.917" y1="587.837" x2="448.468" y2="587.837" gradientUnits="userSpaceOnUse">
<stop stop-color="#E9E8E3"/>
<stop offset="1" stop-color="#A8AEB7"/>
</linearGradient>
<linearGradient id="paint5_linear_1691_1326" x1="291.138" y1="401.717" x2="280.805" y2="155.667" gradientUnits="userSpaceOnUse">
<stop stop-color="#007D8E"/>
<stop offset="1" stop-color="#05BBD0"/>
</linearGradient>
<linearGradient id="paint6_linear_1691_1326" x1="210.399" y1="446.277" x2="290.156" y2="446.277" gradientUnits="userSpaceOnUse">
<stop stop-color="#011B8B"/>
<stop offset="1" stop-color="#0573D3"/>
</linearGradient>
<linearGradient id="paint7_linear_1691_1326" x1="142.836" y1="447.569" x2="229.928" y2="447.569" gradientUnits="userSpaceOnUse">
<stop stop-color="#011B8B"/>
<stop offset="1" stop-color="#0573D3"/>
</linearGradient>
<linearGradient id="paint8_linear_1691_1326" x1="216.031" y1="404.869" x2="205.698" y2="158.819" gradientUnits="userSpaceOnUse">
<stop stop-color="#007D8E"/>
<stop offset="1" stop-color="#05BBD0"/>
</linearGradient>
<linearGradient id="paint9_linear_1691_1326" x1="236.981" y1="403.989" x2="226.648" y2="157.938" gradientUnits="userSpaceOnUse">
<stop stop-color="#007D8E"/>
<stop offset="1" stop-color="#05BBD0"/>
</linearGradient>
<linearGradient id="paint10_linear_1691_1326" x1="264.363" y1="395.893" x2="654.854" y2="395.893" gradientUnits="userSpaceOnUse">
<stop stop-color="#E9E8E3"/>
<stop offset="1" stop-color="#A8AEB7"/>
</linearGradient>
<linearGradient id="paint11_linear_1691_1326" x1="264.363" y1="110.604" x2="654.841" y2="110.604" gradientUnits="userSpaceOnUse">
<stop stop-color="#E9E8E3"/>
<stop offset="1" stop-color="#A8AEB7"/>
</linearGradient>
<linearGradient id="paint12_linear_1691_1326" x1="310.473" y1="212.059" x2="374.227" y2="212.059" gradientUnits="userSpaceOnUse">
<stop stop-color="#FD4428"/>
<stop offset="1" stop-color="#FD7E3B"/>
</linearGradient>
<linearGradient id="paint13_linear_1691_1326" x1="343.499" y1="254.682" x2="467.041" y2="254.682" gradientUnits="userSpaceOnUse">
<stop stop-color="#011B8B"/>
<stop offset="1" stop-color="#0573D3"/>
</linearGradient>
<linearGradient id="paint14_linear_1691_1326" x1="361.866" y1="213.274" x2="405.38" y2="213.274" gradientUnits="userSpaceOnUse">
<stop stop-color="#FDA024"/>
<stop offset="1" stop-color="#FDB245"/>
</linearGradient>
<linearGradient id="paint15_linear_1691_1326" x1="376.965" y1="160.821" x2="387.465" y2="160.821" gradientUnits="userSpaceOnUse">
<stop stop-color="#FDA024"/>
<stop offset="1" stop-color="#FDB245"/>
</linearGradient>
<linearGradient id="paint16_linear_1691_1326" x1="362.382" y1="352.198" x2="372.896" y2="352.198" gradientUnits="userSpaceOnUse">
<stop stop-color="#011B8B"/>
<stop offset="1" stop-color="#0573D3"/>
</linearGradient>
<linearGradient id="paint17_linear_1691_1326" x1="320.289" y1="271.293" x2="330.803" y2="271.293" gradientUnits="userSpaceOnUse">
<stop stop-color="#FD4428"/>
<stop offset="1" stop-color="#FD7E3B"/>
</linearGradient>
<linearGradient id="paint18_linear_1691_1326" x1="494.591" y1="242.347" x2="514.508" y2="242.347" gradientUnits="userSpaceOnUse">
<stop stop-color="#011B8B"/>
<stop offset="1" stop-color="#0573D3"/>
</linearGradient>
<linearGradient id="paint19_linear_1691_1326" x1="523.975" y1="230.412" x2="543.905" y2="230.412" gradientUnits="userSpaceOnUse">
<stop stop-color="#FD4428"/>
<stop offset="1" stop-color="#FD7E3B"/>
</linearGradient>
<linearGradient id="paint20_linear_1691_1326" x1="556.524" y1="221.603" x2="576.44" y2="221.603" gradientUnits="userSpaceOnUse">
<stop stop-color="#011B8B"/>
<stop offset="1" stop-color="#0573D3"/>
</linearGradient>
<linearGradient id="paint21_linear_1691_1326" x1="588.401" y1="211.258" x2="608.317" y2="211.258" gradientUnits="userSpaceOnUse">
<stop stop-color="#FD4428"/>
<stop offset="1" stop-color="#FD7E3B"/>
</linearGradient>
<linearGradient id="paint22_linear_1691_1326" x1="575.316" y1="146.742" x2="586.863" y2="146.742" gradientUnits="userSpaceOnUse">
<stop stop-color="#011B8B"/>
<stop offset="1" stop-color="#0573D3"/>
</linearGradient>
<linearGradient id="paint23_linear_1691_1326" x1="495.573" y1="175.273" x2="584.009" y2="175.273" gradientUnits="userSpaceOnUse">
<stop stop-color="#011B8B"/>
<stop offset="1" stop-color="#0573D3"/>
</linearGradient>
<linearGradient id="paint24_linear_1691_1326" x1="650.63" y1="302.29" x2="645.464" y2="204.554" gradientUnits="userSpaceOnUse">
<stop stop-color="#011B8B"/>
<stop offset="1" stop-color="#0573D3"/>
</linearGradient>
<linearGradient id="paint25_linear_1691_1326" x1="531.596" y1="406.651" x2="676.953" y2="406.651" gradientUnits="userSpaceOnUse">
<stop stop-color="#FD4428"/>
<stop offset="1" stop-color="#FD7E3B"/>
</linearGradient>
<linearGradient id="paint26_linear_1691_1326" x1="602.182" y1="304.847" x2="597.016" y2="207.111" gradientUnits="userSpaceOnUse">
<stop stop-color="#011B8B"/>
<stop offset="1" stop-color="#0573D3"/>
</linearGradient>
<linearGradient id="paint27_linear_1691_1326" x1="571.468" y1="306.474" x2="566.301" y2="208.738" gradientUnits="userSpaceOnUse">
<stop stop-color="#011B8B"/>
<stop offset="1" stop-color="#0573D3"/>
</linearGradient>
<linearGradient id="paint28_linear_1691_1326" x1="668.906" y1="567.417" x2="724.122" y2="567.417" gradientUnits="userSpaceOnUse">
<stop stop-color="#007D8E"/>
<stop offset="1" stop-color="#05BBD0"/>
</linearGradient>
<linearGradient id="paint29_linear_1691_1326" x1="687.841" y1="572.351" x2="727.777" y2="572.351" gradientUnits="userSpaceOnUse">
<stop stop-color="#E9E8E3"/>
<stop offset="1" stop-color="#A8AEB7"/>
</linearGradient>
<linearGradient id="paint30_linear_1691_1326" x1="604.571" y1="144.675" x2="623.519" y2="144.675" gradientUnits="userSpaceOnUse">
<stop stop-color="#FD4428"/>
<stop offset="1" stop-color="#FD7E3B"/>
</linearGradient>
<linearGradient id="paint31_linear_1691_1326" x1="234.01" y1="404.12" x2="223.677" y2="158.069" gradientUnits="userSpaceOnUse">
<stop stop-color="#007D8E"/>
<stop offset="1" stop-color="#05BBD0"/>
</linearGradient>
</defs>
</svg>
