<svg width="1946" height="589" viewBox="0 0 1946 589" fill="none" xmlns="http://www.w3.org/2000/svg">
<rect width="1946" height="570" fill="url(#paint0_linear_734_370)"/>
<g filter="url(#filter0_f_734_370)">
<ellipse cx="975.282" cy="280.784" rx="396.549" ry="226.95" fill="url(#paint1_linear_734_370)"/>
</g>
<g opacity="0.3" filter="url(#filter1_f_734_370)">
<ellipse cx="975.282" cy="300.205" rx="396.549" ry="226.95" fill="url(#paint2_linear_734_370)"/>
<path d="M1367.32 300.205C1367.32 360.563 1324.54 416.085 1253.45 456.771C1182.48 497.384 1084.15 522.648 975.282 522.648C866.418 522.648 768.082 497.384 697.118 456.771C626.028 416.085 583.24 360.563 583.24 300.205C583.24 239.846 626.028 184.325 697.118 143.639C768.082 103.025 866.418 77.7621 975.282 77.7621C1084.15 77.7621 1182.48 103.025 1253.45 143.639C1324.54 184.325 1367.32 239.846 1367.32 300.205Z" stroke="url(#paint3_linear_734_370)" stroke-width="9.01533"/>
</g>
<g opacity="0.3" filter="url(#filter2_f_734_370)">
<ellipse cx="975.282" cy="342.687" rx="396.549" ry="226.95" fill="url(#paint4_linear_734_370)"/>
<path d="M1367.32 342.687C1367.32 403.046 1324.54 458.568 1253.45 499.253C1182.48 539.867 1084.15 565.13 975.282 565.13C866.418 565.13 768.082 539.867 697.118 499.253C626.028 458.568 583.24 403.046 583.24 342.687C583.24 282.329 626.028 226.807 697.118 186.121C768.082 145.508 866.418 120.244 975.282 120.244C1084.15 120.244 1182.48 145.508 1253.45 186.121C1324.54 226.807 1367.32 282.329 1367.32 342.687Z" stroke="url(#paint5_linear_734_370)" stroke-width="9.01533"/>
</g>
<g opacity="0.3" filter="url(#filter3_f_734_370)">
<mask id="path-7-inside-1_734_370" fill="white">
<path fill-rule="evenodd" clip-rule="evenodd" d="M1231.03 125.774C1163.46 101.945 1074.42 87.4683 976.845 87.4683C879.632 87.4683 790.889 101.839 723.406 125.511C784.986 93.555 875.747 73.3525 976.966 73.3525C1078.46 73.3525 1169.44 93.666 1231.03 125.774Z"/>
</mask>
<path fill-rule="evenodd" clip-rule="evenodd" d="M1231.03 125.774C1163.46 101.945 1074.42 87.4683 976.845 87.4683C879.632 87.4683 790.889 101.839 723.406 125.511C784.986 93.555 875.747 73.3525 976.966 73.3525C1078.46 73.3525 1169.44 93.666 1231.03 125.774Z" fill="url(#paint6_linear_734_370)"/>
<path d="M1231.03 125.774L1228.03 134.277L1235.2 117.78L1231.03 125.774ZM723.406 125.511L719.254 117.509L726.39 134.018L723.406 125.511ZM976.845 96.4836C1073.61 96.4836 1161.61 110.852 1228.03 134.277L1234.03 117.272C1165.31 93.0382 1075.22 78.4529 976.845 78.4529V96.4836ZM726.39 134.018C792.731 110.746 880.434 96.4836 976.845 96.4836V78.4529C878.829 78.4529 789.046 92.931 720.422 117.004L726.39 134.018ZM727.559 133.513C787.525 102.394 876.768 82.3679 976.966 82.3679V64.3372C874.727 64.3372 782.447 84.7158 719.254 117.509L727.559 133.513ZM976.966 82.3679C1077.44 82.3679 1166.9 102.505 1226.86 133.769L1235.2 117.78C1171.99 84.8273 1079.48 64.3372 976.966 64.3372V82.3679Z" fill="url(#paint7_linear_734_370)" mask="url(#path-7-inside-1_734_370)"/>
</g>
<g opacity="0.3" filter="url(#filter4_f_734_370)">
<mask id="path-9-inside-2_734_370" fill="white">
<path fill-rule="evenodd" clip-rule="evenodd" d="M1231.03 125.774C1163.46 101.945 1074.42 87.4683 976.845 87.4683C879.632 87.4683 790.889 101.839 723.406 125.511C784.986 93.555 875.747 73.3525 976.966 73.3525C1078.46 73.3525 1169.44 93.666 1231.03 125.774Z"/>
</mask>
<path fill-rule="evenodd" clip-rule="evenodd" d="M1231.03 125.774C1163.46 101.945 1074.42 87.4683 976.845 87.4683C879.632 87.4683 790.889 101.839 723.406 125.511C784.986 93.555 875.747 73.3525 976.966 73.3525C1078.46 73.3525 1169.44 93.666 1231.03 125.774Z" fill="url(#paint8_linear_734_370)"/>
<path d="M1231.03 125.774L1228.03 134.277L1235.2 117.78L1231.03 125.774ZM723.406 125.511L719.254 117.509L726.39 134.018L723.406 125.511ZM976.845 96.4836C1073.61 96.4836 1161.61 110.852 1228.03 134.277L1234.03 117.272C1165.31 93.0382 1075.22 78.4529 976.845 78.4529V96.4836ZM726.39 134.018C792.731 110.746 880.434 96.4836 976.845 96.4836V78.4529C878.829 78.4529 789.046 92.931 720.422 117.004L726.39 134.018ZM727.559 133.513C787.525 102.394 876.768 82.3679 976.966 82.3679V64.3372C874.727 64.3372 782.447 84.7158 719.254 117.509L727.559 133.513ZM976.966 82.3679C1077.44 82.3679 1166.9 102.505 1226.86 133.769L1235.2 117.78C1171.99 84.8273 1079.48 64.3372 976.966 64.3372V82.3679Z" fill="url(#paint9_linear_734_370)" mask="url(#path-9-inside-2_734_370)"/>
</g>
<path d="M1448.79 300.914C1441.06 300.914 1434.62 306.41 1433.25 313.652H1341.77V274.935H1390.72C1392.09 282.177 1398.53 287.673 1406.27 287.673C1414.98 287.673 1422.07 280.672 1422.07 272.077C1422.07 263.482 1414.98 256.481 1406.27 256.481C1398.54 256.481 1392.1 261.977 1390.72 269.219H1341.77V235.852H1395.91L1414.03 217.971C1416.58 219.697 1419.65 220.712 1422.97 220.712C1431.69 220.712 1438.78 213.711 1438.78 205.116C1438.78 196.521 1431.68 189.52 1422.97 189.52C1414.26 189.52 1407.16 196.521 1407.16 205.116C1407.16 208.382 1408.19 211.419 1409.94 213.932L1393.51 230.143H1341.78V218.869C1341.78 211.861 1339.01 205.268 1333.99 200.311L1306.18 172.875C1301.16 167.918 1294.48 165.191 1287.37 165.191H1275.95V107.412L1292.38 91.2019C1294.92 92.9279 1298 93.9427 1301.31 93.9427C1310.03 93.9427 1317.12 86.9422 1317.12 78.3469C1317.12 69.7515 1310.02 62.751 1301.31 62.751C1292.6 62.751 1285.5 69.7515 1285.5 78.3469C1285.5 81.6124 1286.53 84.6501 1288.28 87.1631L1270.16 105.044V165.191H1236.34V126.902C1243.67 125.556 1249.25 119.197 1249.25 111.568C1249.25 102.966 1242.16 95.9725 1233.44 95.9725C1224.73 95.9725 1217.64 102.973 1217.64 111.568C1217.64 119.19 1223.21 125.549 1230.55 126.902V165.191H1191.31V74.9294C1198.64 73.5832 1204.22 67.2247 1204.22 59.5959C1204.22 50.9936 1197.12 44 1188.41 44C1179.7 44 1172.6 51.0005 1172.6 59.5959C1172.6 67.2178 1178.17 73.5763 1185.51 74.9294V165.184H1146.27V116.884C1153.61 115.538 1159.18 109.18 1159.18 101.551C1159.18 92.9486 1152.09 85.9549 1143.37 85.9549C1134.66 85.9549 1127.57 92.9555 1127.57 101.551C1127.57 109.173 1133.14 115.531 1140.48 116.884V165.184H1106.66V111.769L1088.54 93.8875C1090.28 91.3814 1091.31 88.3437 1091.31 85.0712C1091.31 76.469 1084.22 69.4754 1075.51 69.4754C1066.79 69.4754 1059.7 76.4759 1059.7 85.0712C1059.7 93.6666 1066.79 100.667 1075.51 100.667C1078.82 100.667 1081.89 99.6523 1084.44 97.9263L1100.87 114.137V165.177H1089.45C1082.34 165.177 1075.66 167.904 1070.64 172.861L1042.83 200.297C1037.8 205.254 1035.04 211.84 1035.04 218.855V230.129H976.479L960.05 213.919C961.799 211.412 962.828 208.375 962.828 205.102C962.828 196.5 955.732 189.506 947.02 189.506C938.309 189.506 931.213 196.507 931.213 205.102C931.213 213.698 938.309 220.698 947.02 220.698C950.33 220.698 953.409 219.683 955.956 217.957L974.079 235.838H1035.04V269.205H996.233C994.869 261.97 988.424 256.467 980.692 256.467C971.973 256.467 964.885 263.468 964.885 272.063C964.885 280.658 971.98 287.659 980.692 287.659C988.417 287.659 994.862 282.164 996.233 274.921H1035.04V313.638H943.536C942.171 306.403 935.727 300.901 927.995 300.901C919.276 300.901 912.188 307.901 912.188 316.497C912.188 325.092 919.283 332.092 927.995 332.092C935.72 332.092 942.164 326.597 943.536 319.355H1035.01V358.072H986.059C984.694 350.83 978.25 345.334 970.518 345.334C961.799 345.334 954.711 352.335 954.711 360.93C954.711 369.525 961.806 376.526 970.518 376.526C978.243 376.526 984.687 371.03 986.059 363.788H1035.01V397.155H980.874L962.751 415.036C960.211 413.31 957.132 412.295 953.815 412.295C945.096 412.295 938.008 419.295 938.008 427.891C938.008 436.486 945.103 443.487 953.815 443.487C962.527 443.487 969.622 436.486 969.622 427.891C969.622 424.625 968.593 421.588 966.844 419.075L983.274 402.864H1035.01V414.138C1035.01 421.146 1037.77 427.739 1042.79 432.696L1070.6 460.132C1075.63 465.089 1082.3 467.816 1089.41 467.816H1100.84V525.595L1084.41 541.805C1081.87 540.079 1078.79 539.064 1075.47 539.064C1066.75 539.064 1059.66 546.065 1059.66 554.66C1059.66 563.255 1066.76 570.256 1075.47 570.256C1084.18 570.256 1091.28 563.255 1091.28 554.66C1091.28 551.395 1090.25 548.357 1088.5 545.844L1106.62 527.963V467.816H1140.44V506.105C1133.11 507.451 1127.53 513.81 1127.53 521.439C1127.53 530.041 1134.63 537.034 1143.34 537.034C1152.05 537.034 1159.15 530.034 1159.15 521.439C1159.15 513.817 1153.58 507.458 1146.24 506.105V467.816H1185.48V558.071C1178.14 559.417 1172.57 565.775 1172.57 573.404C1172.57 582.006 1179.66 589 1188.37 589C1197.09 589 1204.18 581.999 1204.18 573.404C1204.18 565.782 1198.61 559.424 1191.27 558.071V467.816H1230.51V516.116C1223.17 517.462 1217.6 523.82 1217.6 531.449C1217.6 540.051 1224.7 547.045 1233.41 547.045C1242.12 547.045 1249.22 540.045 1249.22 531.449C1249.22 523.827 1243.65 517.469 1236.31 516.116V467.816H1270.12V521.231L1288.25 539.113C1286.5 541.626 1285.47 544.656 1285.47 547.929C1285.47 556.531 1292.57 563.525 1301.28 563.525C1309.99 563.525 1317.08 556.524 1317.08 547.929C1317.08 539.333 1309.99 532.333 1301.28 532.333C1297.97 532.333 1294.89 533.348 1292.34 535.074L1275.91 518.863V467.823H1287.34C1294.44 467.823 1301.12 465.096 1306.15 460.139L1333.95 432.703C1338.98 427.746 1341.74 421.16 1341.74 414.145V402.871H1400.3L1416.73 419.081C1414.98 421.588 1413.96 424.625 1413.96 427.898C1413.96 436.5 1421.05 443.494 1429.76 443.494C1438.47 443.494 1445.57 436.493 1445.57 427.898C1445.57 419.302 1438.47 412.302 1429.76 412.302C1426.45 412.302 1423.37 413.317 1420.83 415.043L1402.7 397.162H1341.74V363.795H1380.55C1381.91 371.03 1388.36 376.533 1396.09 376.533C1404.81 376.533 1411.9 369.532 1411.9 360.937C1411.9 352.342 1404.8 345.341 1396.09 345.341C1388.37 345.341 1381.92 350.836 1380.55 358.079H1341.74V319.362H1433.22C1434.58 326.597 1441.03 332.099 1448.76 332.099C1457.48 332.099 1464.57 325.099 1464.57 316.503C1464.57 307.908 1457.47 300.908 1448.76 300.908L1448.79 300.914ZM1406.27 262.204C1411.79 262.204 1416.29 266.637 1416.29 272.084C1416.29 277.531 1411.79 281.963 1406.27 281.963C1400.75 281.963 1396.26 277.531 1396.26 272.084C1396.26 266.637 1400.75 262.204 1406.27 262.204ZM1422.97 195.23C1428.49 195.23 1432.98 199.662 1432.98 205.109C1432.98 210.556 1428.49 214.989 1422.97 214.989C1417.45 214.989 1412.96 210.556 1412.96 205.109C1412.96 199.662 1417.45 195.23 1422.97 195.23ZM1301.31 68.4605C1306.83 68.4605 1311.33 72.8928 1311.33 78.34C1311.33 83.7871 1306.83 88.2194 1301.31 88.2194C1295.79 88.2194 1291.3 83.7871 1291.3 78.34C1291.3 72.8928 1295.79 68.4605 1301.31 68.4605ZM1223.42 111.561C1223.42 106.114 1227.92 101.682 1233.44 101.682C1238.96 101.682 1243.45 106.114 1243.45 111.561C1243.45 117.009 1238.96 121.441 1233.44 121.441C1227.92 121.441 1223.42 117.009 1223.42 111.561ZM1178.38 59.5959C1178.38 54.1487 1182.87 49.7164 1188.4 49.7164C1193.92 49.7164 1198.41 54.1487 1198.41 59.5959C1198.41 65.0431 1193.92 69.4754 1188.4 69.4754C1182.87 69.4754 1178.38 65.0431 1178.38 59.5959ZM1133.35 101.551C1133.35 96.1037 1137.84 91.6714 1143.36 91.6714C1148.88 91.6714 1153.37 96.1037 1153.37 101.551C1153.37 106.998 1148.88 111.43 1143.36 111.43C1137.84 111.43 1133.35 106.998 1133.35 101.551ZM1075.48 94.9507C1069.96 94.9507 1065.47 90.5184 1065.47 85.0712C1065.47 79.6241 1069.96 75.1918 1075.48 75.1918C1081 75.1918 1085.49 79.6241 1085.49 85.0712C1085.49 90.5184 1081 94.9507 1075.48 94.9507ZM946.992 214.989C941.472 214.989 936.979 210.556 936.979 205.109C936.979 199.662 941.472 195.23 946.992 195.23C952.513 195.23 957.006 199.662 957.006 205.109C957.006 210.556 952.513 214.989 946.992 214.989ZM980.664 281.956C975.143 281.956 970.651 277.524 970.651 272.077C970.651 266.63 975.143 262.197 980.664 262.197C986.185 262.197 990.677 266.63 990.677 272.077C990.677 277.524 986.185 281.956 980.664 281.956ZM927.995 326.39C922.474 326.39 917.981 321.958 917.981 316.51C917.981 311.063 922.474 306.631 927.995 306.631C933.516 306.631 938.008 311.063 938.008 316.51C938.008 321.958 933.516 326.39 927.995 326.39ZM970.518 370.83C964.997 370.83 960.504 366.398 960.504 360.951C960.504 355.504 964.997 351.071 970.518 351.071C976.039 351.071 980.531 355.504 980.531 360.951C980.531 366.398 976.039 370.83 970.518 370.83ZM953.815 437.798C948.294 437.798 943.802 433.366 943.802 427.918C943.802 422.471 948.294 418.039 953.815 418.039C959.336 418.039 963.828 422.471 963.828 427.918C963.828 433.366 959.336 437.798 953.815 437.798ZM1075.48 564.567C1069.96 564.567 1065.47 560.135 1065.47 554.688C1065.47 549.241 1069.96 544.808 1075.48 544.808C1081 544.808 1085.49 549.241 1085.49 554.688C1085.49 560.135 1081 564.567 1075.48 564.567ZM1153.37 521.473C1153.37 526.92 1148.87 531.353 1143.35 531.353C1137.83 531.353 1133.34 526.92 1133.34 521.473C1133.34 516.026 1137.83 511.594 1143.35 511.594C1148.87 511.594 1153.37 516.026 1153.37 521.473ZM1198.4 573.432C1198.4 578.879 1193.91 583.311 1188.39 583.311C1182.87 583.311 1178.37 578.879 1178.37 573.432C1178.37 567.985 1182.87 563.552 1188.39 563.552C1193.91 563.552 1198.4 567.985 1198.4 573.432ZM1243.44 531.484C1243.44 536.931 1238.95 541.363 1233.43 541.363C1227.91 541.363 1223.42 536.931 1223.42 531.484C1223.42 526.037 1227.91 521.604 1233.43 521.604C1238.95 521.604 1243.44 526.037 1243.44 531.484ZM1301.31 538.084C1306.83 538.084 1311.33 542.516 1311.33 547.963C1311.33 553.41 1306.83 557.843 1301.31 557.843C1295.79 557.843 1291.3 553.41 1291.3 547.963C1291.3 542.516 1295.79 538.084 1301.31 538.084ZM1429.8 418.046C1435.32 418.046 1439.81 422.478 1439.81 427.925C1439.81 433.372 1435.32 437.805 1429.8 437.805C1424.28 437.805 1419.78 433.372 1419.78 427.925C1419.78 422.478 1424.28 418.046 1429.8 418.046ZM1396.13 351.078C1401.65 351.078 1406.14 355.51 1406.14 360.958C1406.14 366.405 1401.65 370.837 1396.13 370.837C1390.61 370.837 1386.11 366.405 1386.11 360.958C1386.11 355.51 1390.61 351.078 1396.13 351.078ZM1335.98 414.173C1335.98 419.654 1333.81 424.805 1329.88 428.685L1302.07 456.121C1298.15 459.994 1292.92 462.127 1287.37 462.127H1089.42C1083.86 462.127 1078.64 459.994 1074.71 456.121L1046.9 428.685C1042.98 424.812 1040.81 419.654 1040.81 414.173V218.862C1040.81 213.38 1042.98 208.23 1046.9 204.35L1074.71 176.914C1078.63 173.041 1083.86 170.9 1089.42 170.9H1287.37C1292.93 170.9 1298.15 173.034 1302.08 176.914L1329.89 204.35C1333.81 208.223 1335.98 213.38 1335.98 218.862V414.173H1335.98ZM1448.79 326.39C1443.27 326.39 1438.78 321.958 1438.78 316.51C1438.78 311.063 1443.27 306.631 1448.79 306.631C1454.31 306.631 1458.8 311.063 1458.8 316.51C1458.8 321.958 1454.31 326.39 1448.79 326.39Z" fill="url(#paint10_linear_734_370)" fill-opacity="0.07"/>
<path d="M1247.25 246.007C1244.52 243.316 1240.9 241.836 1237.05 241.836H1140.67C1136.82 241.836 1133.19 243.316 1130.47 246.007L1116.93 259.366C1114.2 262.058 1112.7 265.63 1112.7 269.429V364.522C1112.7 368.321 1114.2 371.9 1116.93 374.585L1130.47 387.944C1133.2 390.635 1136.82 392.115 1140.67 392.115H1237.05C1240.9 392.115 1244.53 390.635 1247.25 387.944L1260.79 374.585C1263.52 371.893 1265.02 368.321 1265.02 364.522V269.429C1265.02 265.63 1263.52 262.051 1260.79 259.366L1247.25 246.007ZM1259.23 364.522C1259.23 366.8 1258.33 368.941 1256.7 370.551L1243.16 383.911C1241.53 385.521 1239.36 386.409 1237.05 386.409H1140.67C1138.36 386.409 1136.19 385.521 1134.56 383.911L1121.02 370.551C1119.39 368.941 1118.49 366.8 1118.49 364.522V269.429C1118.49 267.151 1119.39 265.01 1121.02 263.4L1134.56 250.04C1136.19 248.43 1138.36 247.542 1140.67 247.542H1237.05C1239.36 247.542 1241.53 248.43 1243.16 250.04L1256.7 263.4C1258.33 265.01 1259.23 267.151 1259.23 269.429V364.522Z" fill="url(#paint11_linear_734_370)" fill-opacity="0.07"/>
<path d="M1294.29 185.523C1292.56 183.811 1290.25 182.866 1287.79 182.866H1089.93C1087.47 182.866 1085.16 183.811 1083.42 185.523L1055.63 212.946C1053.89 214.658 1052.93 216.942 1052.93 219.364V414.587C1052.93 417.01 1053.89 419.287 1055.63 421.005L1083.42 448.429C1085.16 450.14 1087.46 451.086 1089.93 451.086H1287.79C1290.25 451.086 1292.56 450.14 1294.3 448.429L1322.09 421.005C1323.83 419.294 1324.79 417.016 1324.79 414.587V219.364C1324.79 216.942 1323.83 214.665 1322.09 212.946L1294.3 185.523H1294.29ZM1318.99 414.587C1318.99 415.484 1318.64 416.326 1317.99 416.961L1290.2 444.385C1289.56 445.02 1288.7 445.365 1287.79 445.365H1089.93C1089.02 445.365 1088.16 445.013 1087.52 444.385L1059.73 416.961C1059.08 416.326 1058.73 415.484 1058.73 414.587V219.364C1058.73 218.467 1059.09 217.625 1059.73 216.99L1087.52 189.566C1088.16 188.932 1089.02 188.586 1089.93 188.586H1287.79C1288.7 188.586 1289.56 188.938 1290.2 189.566L1317.99 216.99C1318.64 217.625 1318.99 218.467 1318.99 219.364V414.587Z" fill="url(#paint12_linear_734_370)" fill-opacity="0.07"/>
<path d="M1166.48 286.539L1145.48 346.461H1158.72L1163.25 331.928H1184.55L1189.08 346.461H1202.36L1181.36 286.539H1166.49H1166.48ZM1166.18 322.543L1173.79 298.17H1174.04L1181.63 322.543H1166.18Z" fill="url(#paint13_linear_734_370)" fill-opacity="0.07"/>
<path d="M1221.64 286.539H1209.1V346.461H1221.64V286.539Z" fill="url(#paint14_linear_734_370)" fill-opacity="0.07"/>
<defs>
<filter id="filter0_f_734_370" x="547.479" y="22.5804" width="855.605" height="516.407" filterUnits="userSpaceOnUse" color-interpolation-filters="sRGB">
<feFlood flood-opacity="0" result="BackgroundImageFix"/>
<feBlend mode="normal" in="SourceGraphic" in2="BackgroundImageFix" result="shape"/>
<feGaussianBlur stdDeviation="15.6266" result="effect1_foregroundBlur_734_370"/>
</filter>
<filter id="filter1_f_734_370" x="572.722" y="67.2442" width="805.119" height="465.921" filterUnits="userSpaceOnUse" color-interpolation-filters="sRGB">
<feFlood flood-opacity="0" result="BackgroundImageFix"/>
<feBlend mode="normal" in="SourceGraphic" in2="BackgroundImageFix" result="shape"/>
<feGaussianBlur stdDeviation="3.00511" result="effect1_foregroundBlur_734_370"/>
</filter>
<filter id="filter2_f_734_370" x="572.722" y="109.727" width="805.119" height="465.921" filterUnits="userSpaceOnUse" color-interpolation-filters="sRGB">
<feFlood flood-opacity="0" result="BackgroundImageFix"/>
<feBlend mode="normal" in="SourceGraphic" in2="BackgroundImageFix" result="shape"/>
<feGaussianBlur stdDeviation="3.00511" result="effect1_foregroundBlur_734_370"/>
</filter>
<filter id="filter3_f_734_370" x="702.626" y="52.5727" width="549.186" height="93.9816" filterUnits="userSpaceOnUse" color-interpolation-filters="sRGB">
<feFlood flood-opacity="0" result="BackgroundImageFix"/>
<feBlend mode="normal" in="SourceGraphic" in2="BackgroundImageFix" result="shape"/>
<feGaussianBlur stdDeviation="10.3899" result="effect1_foregroundBlur_734_370"/>
</filter>
<filter id="filter4_f_734_370" x="702.626" y="52.5727" width="549.186" height="93.9816" filterUnits="userSpaceOnUse" color-interpolation-filters="sRGB">
<feFlood flood-opacity="0" result="BackgroundImageFix"/>
<feBlend mode="normal" in="SourceGraphic" in2="BackgroundImageFix" result="shape"/>
<feGaussianBlur stdDeviation="10.3899" result="effect1_foregroundBlur_734_370"/>
</filter>
<linearGradient id="paint0_linear_734_370" x1="948.675" y1="570" x2="948.461" y2="6.51862e-05" gradientUnits="userSpaceOnUse">
<stop stop-color="#440386"/>
<stop offset="0.793247" stop-color="#0F0039"/>
</linearGradient>
<linearGradient id="paint1_linear_734_370" x1="975.282" y1="53.8335" x2="975.282" y2="157.034" gradientUnits="userSpaceOnUse">
<stop stop-color="#F89941"/>
<stop offset="1" stop-color="#E569FA" stop-opacity="0"/>
</linearGradient>
<linearGradient id="paint2_linear_734_370" x1="975.282" y1="73.2544" x2="975.282" y2="157.034" gradientUnits="userSpaceOnUse">
<stop stop-color="white"/>
<stop offset="1" stop-color="#E569FA" stop-opacity="0"/>
</linearGradient>
<linearGradient id="paint3_linear_734_370" x1="975.282" y1="73.2544" x2="975.282" y2="117.064" gradientUnits="userSpaceOnUse">
<stop stop-color="white"/>
<stop offset="1" stop-color="white" stop-opacity="0"/>
</linearGradient>
<linearGradient id="paint4_linear_734_370" x1="975.282" y1="115.737" x2="975.282" y2="199.517" gradientUnits="userSpaceOnUse">
<stop stop-color="white"/>
<stop offset="1" stop-color="#E569FA" stop-opacity="0"/>
</linearGradient>
<linearGradient id="paint5_linear_734_370" x1="975.282" y1="115.737" x2="975.282" y2="159.546" gradientUnits="userSpaceOnUse">
<stop stop-color="white"/>
<stop offset="1" stop-color="white" stop-opacity="0"/>
</linearGradient>
<linearGradient id="paint6_linear_734_370" x1="680.082" y1="73.3525" x2="1255.28" y2="73.3525" gradientUnits="userSpaceOnUse">
<stop stop-color="#131418" stop-opacity="0"/>
<stop offset="0.5" stop-color="white"/>
<stop offset="1" stop-color="#131418" stop-opacity="0"/>
</linearGradient>
<linearGradient id="paint7_linear_734_370" x1="976.964" y1="73.3525" x2="976.964" y2="102.608" gradientUnits="userSpaceOnUse">
<stop stop-color="white"/>
<stop offset="1" stop-color="white" stop-opacity="0"/>
</linearGradient>
<linearGradient id="paint8_linear_734_370" x1="680.082" y1="73.3525" x2="1255.28" y2="73.3525" gradientUnits="userSpaceOnUse">
<stop stop-color="#131418" stop-opacity="0"/>
<stop offset="0.5" stop-color="white"/>
<stop offset="1" stop-color="#131418" stop-opacity="0"/>
</linearGradient>
<linearGradient id="paint9_linear_734_370" x1="976.964" y1="73.3525" x2="976.964" y2="102.608" gradientUnits="userSpaceOnUse">
<stop stop-color="white"/>
<stop offset="1" stop-color="white" stop-opacity="0"/>
</linearGradient>
<linearGradient id="paint10_linear_734_370" x1="1188.38" y1="44" x2="1188.38" y2="563" gradientUnits="userSpaceOnUse">
<stop stop-color="white"/>
<stop offset="1" stop-color="white" stop-opacity="0"/>
</linearGradient>
<linearGradient id="paint11_linear_734_370" x1="1188.86" y1="241.836" x2="1188.86" y2="384.946" gradientUnits="userSpaceOnUse">
<stop stop-color="white"/>
<stop offset="1" stop-color="white" stop-opacity="0"/>
</linearGradient>
<linearGradient id="paint12_linear_734_370" x1="1188.86" y1="182.866" x2="1188.86" y2="438.29" gradientUnits="userSpaceOnUse">
<stop stop-color="white"/>
<stop offset="1" stop-color="white" stop-opacity="0"/>
</linearGradient>
<linearGradient id="paint13_linear_734_370" x1="1173.92" y1="286.539" x2="1173.92" y2="343.602" gradientUnits="userSpaceOnUse">
<stop stop-color="white"/>
<stop offset="1" stop-color="white" stop-opacity="0"/>
</linearGradient>
<linearGradient id="paint14_linear_734_370" x1="1215.37" y1="286.539" x2="1215.37" y2="343.602" gradientUnits="userSpaceOnUse">
<stop stop-color="white"/>
<stop offset="1" stop-color="white" stop-opacity="0"/>
</linearGradient>
</defs>
</svg>
