<svg width="41" height="39" viewBox="0 0 41 39" fill="none" xmlns="http://www.w3.org/2000/svg">
<path opacity="0.5" d="M38.2003 17.8931C36.5199 25.4492 28.3976 31.199 18.6535 31.199C17.272 31.199 15.8931 31.0745 14.5332 30.8383C17.8742 33.7311 23.0469 35.1903 28.3924 34.3997L35.547 37.9322C35.6688 37.9919 35.801 38.0217 35.9332 38.0217C36.0913 38.0217 36.2486 37.9791 36.3877 37.8946C36.6417 37.7394 36.7972 37.4648 36.7972 37.1689V30.6626C39.0289 28.6635 40.2531 26.1426 40.2531 23.5235C40.2531 21.521 39.53 19.5868 38.2003 17.8931Z" fill="white"/>
<path d="M18.4513 0C8.27671 0 0 6.50809 0 14.5079C0 17.5828 1.21339 20.5142 3.51453 23.0079V31.5761C3.51453 31.8722 3.67268 32.1462 3.931 32.3023C4.07246 32.3868 4.23237 32.4295 4.39316 32.4295C4.52759 32.4295 4.66202 32.3996 4.7859 32.3399L12.9835 28.3587C14.7715 28.7948 16.6088 29.0159 18.4513 29.0159C28.6258 29.0159 36.9025 22.5078 36.9025 14.5079C36.9025 6.50809 28.6258 0 18.4513 0Z" fill="white"/>
</svg>
