<svg width="40" height="43" viewBox="0 0 40 43" fill="none" xmlns="http://www.w3.org/2000/svg">
<path fill-rule="evenodd" clip-rule="evenodd" d="M8.94727 11.9412C8.94727 6.19826 13.2227 -0.000244141 20.1298 -0.000244141C27.037 -0.000244141 31.3124 6.19826 31.3124 11.9412C31.3124 20.4517 25.5077 25.7197 20.1298 25.7197C14.752 25.7197 8.94727 20.4517 8.94727 11.9412ZM10.8535 12.9087C11.258 19.7098 15.8521 23.882 20.1323 23.882C24.4124 23.882 29.0056 19.7108 29.4119 12.9115C26.6396 12.5404 24.049 11.3711 21.9699 9.5376C19.4017 11.8101 16.1261 13.053 12.6502 13.053C12.0566 13.053 11.4583 12.9951 10.8535 12.9087Z" fill="#473BF0"/>
<path opacity="0.5" d="M36.8774 30.3964L27.1876 24.6008C24.9167 26.5553 22.2021 27.6301 19.5695 27.6301C16.9369 27.6301 14.2224 26.5553 11.9514 24.6008L2.26168 30.3964C0.86665 31.2306 0 32.7568 0 34.3788V41.564C0 42.0777 0.417483 42.493 0.931882 42.493H18.6376V33.2037C18.6376 32.69 19.0542 32.2747 19.5695 32.2747C20.0848 32.2747 20.5014 32.69 20.5014 33.2037V42.493H38.2071C38.7215 42.493 39.139 42.0777 39.139 41.564V34.3788C39.139 32.7568 38.2724 31.2306 36.8774 30.3964Z" fill="#473BF0"/>
</svg>
