<svg width="88" height="88" viewBox="0 0 88 88" fill="none" xmlns="http://www.w3.org/2000/svg">
<rect width="88" height="88" rx="16.77" fill="#F6F1D0"/>
<path fill-rule="evenodd" clip-rule="evenodd" d="M37.3689 43.221C39.2649 45.6592 40.6843 47.7829 41.6267 49.6917C45.1628 56.8543 40.1323 64.1292 33.3953 63.9983C26.6584 64.1293 21.628 56.8543 25.164 49.6917C26.1064 47.7829 27.5258 45.6592 29.4218 43.221C29.6986 43.3339 29.9961 43.3956 30.3057 43.3956H36.485C36.7946 43.3956 37.0921 43.3339 37.3689 43.221ZM30.3058 41.9204H36.485C37.2469 41.9204 37.8701 41.2014 37.8701 40.3227C37.8701 39.4438 37.2469 38.7248 36.485 38.7248H30.3058C29.5439 38.7248 28.9207 39.4438 28.9207 40.3226C28.9207 41.2015 29.5439 41.9204 30.3058 41.9204ZM40.8636 40.3201C40.4792 40.3201 40.1656 40.6818 40.1656 41.1253V44.7158C41.1166 46.0684 42.0112 47.49 42.7377 48.9617C44.2134 51.9509 44.5364 55.4182 43.3131 58.5984C43.2215 58.8361 43.1229 59.068 43.0182 59.2946H44.7525V41.1253C44.7525 40.6818 44.4389 40.3201 44.0545 40.3201H40.8636ZM56.2741 40.8115L56.1432 43.0559C56.1376 43.1514 56.1774 43.2366 56.2496 43.2838C56.3219 43.331 56.4057 43.3265 56.4738 43.2719L61.4893 39.2488C61.5439 39.205 61.5752 39.1411 61.5794 39.0646C61.5836 38.988 61.5597 38.9201 61.5103 38.8687L57.003 34.1747C56.9416 34.1107 56.8593 34.0939 56.7826 34.1298C56.706 34.1657 56.657 34.2437 56.6514 34.3389L56.5158 36.6652C52.8657 36.5508 47.8647 34.8334 44.6684 32.6314C41.1438 30.2034 38.8313 27.314 37.2042 24C38.2879 29.0352 41.5068 34.0174 46.314 37.3291C49.5494 39.5579 53.0214 40.6972 56.2741 40.8115ZM63.3032 60.7697H42.1965C41.7004 61.5188 41.1257 62.1856 40.4909 62.7645H63.3032C63.687 62.7645 64 62.4034 64 61.9606V61.5736C64 61.1308 63.687 60.7697 63.3032 60.7697ZM61.0892 51.1927H57.8982C57.5138 51.1927 57.2002 51.5544 57.2002 51.998V59.2946H61.7871V51.998C61.7871 51.5544 61.4736 51.1927 61.0892 51.1927ZM49.3809 45.874H52.5719C52.9564 45.874 53.2699 46.2357 53.2699 46.6793V59.2946H48.6829V46.6792C48.6828 46.2357 48.9964 45.874 49.3809 45.874ZM33.3243 56.4843C32.9081 56.4719 32.504 56.3418 32.1818 56.0942C31.8903 55.8703 31.6676 55.5426 31.5746 55.1123C31.4918 54.7237 31.1516 54.4862 30.8148 54.5818C30.478 54.6774 30.2722 55.0698 30.355 55.4583C30.5307 56.2712 30.9462 56.8858 31.4885 57.3025C31.859 57.5872 32.2892 57.7753 32.7397 57.867V58.4307C32.7397 58.8317 33.0216 59.1568 33.3691 59.1568C33.7167 59.1568 33.9986 58.8316 33.9986 58.4306V57.8807C34.546 57.7845 35.1038 57.554 35.5417 57.1706C36.068 56.7099 36.4181 56.0503 36.3998 55.1651C36.3978 55.0637 36.3927 54.9745 36.3847 54.8984C36.2827 53.9284 35.8277 53.2969 35.2245 52.8768C34.6947 52.5077 34.0593 52.324 33.4768 52.2136C33.0566 52.1341 32.6141 51.9994 32.29 51.7552C32.0389 51.5661 31.8587 51.2923 31.8419 50.8919C31.8236 50.4587 31.9876 50.1092 32.2459 49.867C32.4482 49.6771 32.7064 49.5453 32.9862 49.4803C33.0988 49.4542 33.2146 49.4391 33.3317 49.4355C33.344 49.4363 33.3565 49.4368 33.3691 49.4368C33.3843 49.4368 33.3993 49.4361 33.4141 49.4349C33.5689 49.4375 33.7247 49.4605 33.8769 49.5049C34.3448 49.6417 34.7708 49.9975 34.9952 50.6139C35.1296 50.9836 35.4984 51.1576 35.8189 51.0025C36.1394 50.8475 36.2902 50.422 36.1558 50.0523C35.7607 48.9669 35.0086 48.3397 34.1818 48.0979C34.1211 48.0801 34.06 48.0646 33.9986 48.0512V47.4885C33.9986 47.0875 33.7168 46.7624 33.3691 46.7624C33.0215 46.7624 32.7397 47.0875 32.7397 47.4885V48.0621C32.2628 48.173 31.8149 48.4052 31.4542 48.7436C30.8998 49.2635 30.5482 50.0185 30.5879 50.9599C30.6277 51.9058 31.0368 52.5403 31.6063 52.9692C32.1029 53.3431 32.7128 53.5366 33.2751 53.6431C33.7269 53.7287 34.2091 53.8638 34.5754 54.119C34.8685 54.3232 35.0886 54.6214 35.1356 55.0684C35.1418 55.1279 35.1452 55.1713 35.1458 55.1989C35.1531 55.5542 35.0058 55.8251 34.7844 56.0188C34.5073 56.2614 34.1183 56.4043 33.7292 56.4588C33.6232 56.4736 33.5307 56.482 33.4522 56.4841L33.4223 56.4848C33.4048 56.4831 33.387 56.4822 33.3691 56.4822C33.354 56.4825 33.3391 56.4831 33.3243 56.4843ZM30.1138 37.2578L29.1177 36.1089C28.5642 35.4703 28.5642 34.4254 29.1177 33.7868C29.5885 33.2437 30.3339 33.1519 30.8941 33.5668C31.1022 33.7208 31.3412 33.7455 31.5696 33.6364C31.7979 33.5272 31.9518 33.315 32.0046 33.0363C32.144 32.2992 32.7161 31.7429 33.3954 31.7428C34.0624 31.7428 34.6442 32.2852 34.7863 33.0363C34.8391 33.315 34.9929 33.5272 35.2213 33.6364C35.4498 33.7455 35.6886 33.7208 35.8967 33.5668C36.447 33.1593 37.1926 33.2327 37.673 33.7868V33.7868C38.2265 34.4254 38.2265 35.4703 37.673 36.1089L36.6769 37.2578C36.6135 37.2526 36.5495 37.2497 36.4849 37.2497H30.3058C30.2412 37.2497 30.1772 37.2526 30.1138 37.2578Z" fill="#FCDC02"/>
</svg>
