<svg width="89" height="89" viewBox="0 0 89 89" fill="none" xmlns="http://www.w3.org/2000/svg">
<rect opacity="0.1" width="88.3424" height="88.3424" rx="16.7739" fill="#473BF0"/>
<path fill-rule="evenodd" clip-rule="evenodd" d="M33.5547 35.4254C33.5547 29.6825 37.8302 23.484 44.7373 23.484C51.6444 23.484 55.9198 29.6825 55.9198 35.4254C55.9198 43.9359 50.1152 49.2039 44.7373 49.2039C39.3594 49.2039 33.5547 43.9359 33.5547 35.4254ZM35.4609 36.393C35.8654 43.1941 40.4596 47.3662 44.7397 47.3662C49.0198 47.3662 53.6131 43.195 54.0194 36.3957C51.247 36.0246 48.6564 34.8553 46.5774 33.0218C44.0091 35.2944 40.7335 36.5372 37.2576 36.5372C36.664 36.5372 36.0657 36.4793 35.4609 36.393Z" fill="#473BF0"/>
<path opacity="0.5" d="M61.4848 53.8804L51.7951 48.0848C49.5241 50.0393 46.8095 51.1141 44.1769 51.1141C41.5444 51.1141 38.8298 50.0393 36.5588 48.0848L26.8691 53.8804C25.4741 54.7146 24.6074 56.2409 24.6074 57.8628V65.048C24.6074 65.5617 25.0249 65.977 25.5393 65.977H43.2451V56.6877C43.2451 56.174 43.6616 55.7587 44.1769 55.7587C44.6923 55.7587 45.1088 56.174 45.1088 56.6877V65.977H62.8146C63.329 65.977 63.7465 65.5617 63.7465 65.048V57.8628C63.7465 56.2409 62.8798 54.7146 61.4848 53.8804Z" fill="#473BF0"/>
</svg>
