<svg width="30" height="30" viewBox="0 0 30 30" fill="none" xmlns="http://www.w3.org/2000/svg">
<path d="M9.52722 4.31C9.45732 3.93916 9.42159 3.55296 9.42159 3.16273C9.42159 2.73048 9.46683 2.30012 9.556 1.88323C9.60535 1.65351 9.46734 1.42513 9.24786 1.37369C9.03018 1.32306 8.81096 1.46634 8.76162 1.6966C8.65934 2.17463 8.60742 2.668 8.60742 3.16273C8.60742 3.60844 8.64803 4.05011 8.72873 4.47562C8.76702 4.67895 8.93715 4.81953 9.12759 4.81953C9.15354 4.81953 9.18027 4.81684 9.207 4.81119C9.4275 4.76567 9.57091 4.54107 9.52722 4.31Z" fill="#473BF0"/>
<path d="M20.5063 5.55952C20.305 5.45449 20.0604 5.54067 19.9604 5.75181C19.0139 7.74768 17.1057 8.98813 14.9803 8.98867C12.8549 8.98813 10.947 7.74768 10.0004 5.75181C9.9002 5.54067 9.65528 5.45449 9.45456 5.55952C9.25333 5.66428 9.17109 5.89912 9.27106 6.11026C10.3559 8.39753 12.5416 9.79956 14.9772 9.79956H14.9785H14.9823H14.9836C17.4189 9.79956 19.6052 8.39753 20.6898 6.11026C20.7895 5.89912 20.7075 5.66428 20.5063 5.55952Z" fill="#473BF0"/>
<path d="M21.2271 4.47631C21.3089 4.04622 21.3505 3.60454 21.3505 3.1626C21.3505 2.6668 21.2981 2.17154 21.195 1.69109C21.1457 1.46109 20.9277 1.3162 20.7085 1.36845C20.4893 1.42016 20.3513 1.64853 20.4006 1.87826C20.4906 2.29757 20.5363 2.72955 20.5363 3.1626C20.5363 3.54826 20.4998 3.93418 20.4284 4.30933C20.3844 4.5404 20.5276 4.76501 20.7481 4.81106C20.7751 4.81672 20.8018 4.81941 20.8283 4.81941C21.0182 4.81941 21.1883 4.6791 21.2271 4.47631Z" fill="#473BF0"/>
<path d="M18.9114 11.316H10.984C10.7399 11.316 10.459 11.6185 10.459 11.8759V29.4803C10.459 29.7364 10.7401 29.9309 10.984 29.9309H18.9114C19.1556 29.9309 19.3409 29.7364 19.3409 29.4803V11.8759C19.3409 11.6185 19.1556 11.316 18.9114 11.316Z" fill="#473BF0"/>
<path d="M11.8654 2.78295L13.318 3.91594C13.4256 3.99781 13.4706 4.15671 13.4295 4.28921L12.8746 6.08552C12.7829 6.38203 13.1067 6.63195 13.3473 6.44882L14.7998 5.34437C14.9075 5.26223 15.0535 5.26304 15.1609 5.34518L16.6134 6.45151C16.8543 6.63491 17.1781 6.38849 17.0861 6.09198L16.5312 4.30267C16.4901 4.1699 16.5353 4.02474 16.6427 3.94287L18.0956 2.78295C18.3364 2.59955 18.2125 2.14683 17.9149 2.14683H16.1195C15.9864 2.14683 15.8684 2.11102 15.8273 1.97824L15.2724 0.215869C15.1807 -0.0809123 14.7803 -0.0671773 14.6883 0.229335L14.1337 1.97151C14.0923 2.10401 13.9743 2.14683 13.8415 2.14683H12.0458C11.7485 2.14683 11.6248 2.59955 11.8654 2.78295Z" fill="#473BF0"/>
<path d="M8.88188 20.8131C8.88188 20.5562 8.68322 20.3478 8.43778 20.3478H0.444094C0.198917 20.3478 0 20.5562 0 20.8131V29.5345C0 29.7915 0.198917 29.9999 0.444094 29.9999H8.43778C8.68322 29.9999 8.88188 29.7915 8.88188 29.5345V20.8131Z" fill="#473BF0"/>
<path d="M3.563 15.2042C3.63136 15.2564 3.66015 15.3485 3.63393 15.4326L3.44195 16.0512C3.38387 16.2394 3.58922 16.3956 3.74187 16.2796L4.24405 15.8971C4.31241 15.8452 4.40467 15.8452 4.47303 15.8971L4.97521 16.2796C5.12787 16.3956 5.33321 16.2394 5.27513 16.0512L5.08315 15.4326C5.05719 15.3485 5.08572 15.2564 5.15382 15.2042L5.65626 14.8051C5.80866 14.689 5.73027 14.4186 5.54163 14.4186H4.92098C4.83669 14.4186 4.76164 14.3788 4.73569 14.2947L4.54397 13.6847C4.48563 13.4965 4.23171 13.5008 4.17337 13.6888L3.98165 14.2926C3.95544 14.3766 3.88065 14.4186 3.7961 14.4186H3.1757C2.98707 14.4186 2.90843 14.689 3.06108 14.8051L3.563 15.2042Z" fill="#473BF0"/>
<path d="M4.35857 18.8314C6.34106 18.8314 7.95372 17.1415 7.95372 15.0643C7.95372 12.9871 6.34106 11.2969 4.35857 11.2969C2.37634 11.2969 0.763672 12.9871 0.763672 15.0643C0.763672 17.1415 2.37634 18.8314 4.35857 18.8314ZM4.35857 12.1501C5.89465 12.1501 7.13955 13.4549 7.13955 15.0643C7.13955 16.6737 5.89465 17.9782 4.35857 17.9782C2.823 17.9782 1.57784 16.6737 1.57784 15.0643C1.57784 13.4549 2.823 12.1501 4.35857 12.1501Z" fill="#473BF0"/>
<path d="M30.001 20.8133C30.001 20.5563 29.8024 20.3479 29.5569 20.3479H21.5632C21.3181 20.3479 21.1191 20.5563 21.1191 20.8133V29.5347C21.1191 29.7916 21.3181 30 21.5632 30H29.5569C29.8024 30 30.001 29.7916 30.001 29.5347V20.8133Z" fill="#473BF0"/>
<path d="M24.7446 15.2042C24.813 15.2564 24.8415 15.3485 24.8156 15.4326L24.6239 16.0512C24.5655 16.2394 24.7709 16.3956 24.9235 16.2796L25.4257 15.8971C25.494 15.8452 25.5863 15.8452 25.6547 15.8971L26.1568 16.2796C26.3095 16.3956 26.5148 16.2394 26.4568 16.0512L26.265 15.4326C26.2388 15.3485 26.2674 15.2564 26.3355 15.2042L26.8379 14.8051C26.9903 14.689 26.9119 14.4186 26.7233 14.4186H26.1024C26.0181 14.4186 25.9433 14.3788 25.9173 14.2947L25.7256 13.6847C25.6673 13.4965 25.4134 13.5008 25.355 13.6888L25.1633 14.2926C25.1371 14.3766 25.0623 14.4186 24.978 14.4186H24.3573C24.1687 14.4186 24.0901 14.689 24.2427 14.8051L24.7446 15.2042Z" fill="#473BF0"/>
<path d="M25.5383 18.8314C27.5207 18.8314 29.1337 17.1415 29.1337 15.0643C29.1337 12.9871 27.5207 11.2969 25.5383 11.2969C23.556 11.2969 21.9434 12.9871 21.9434 15.0643C21.9434 17.1415 23.556 18.8314 25.5383 18.8314ZM25.5383 12.1501C27.0741 12.1501 28.3195 13.4549 28.3195 15.0643C28.3195 16.6737 27.0741 17.9782 25.5383 17.9782C24.0027 17.9782 22.7575 16.6737 22.7575 15.0643C22.7575 13.4549 24.0027 12.1501 25.5383 12.1501Z" fill="#473BF0"/>
</svg>
