<svg width="30" height="30" viewBox="0 0 30 30" fill="none" xmlns="http://www.w3.org/2000/svg">
<path d="M0.9375 7.82879H16.2019C16.623 9.53 18.1619 10.7952 19.9914 10.7952C21.8208 10.7952 23.3597 9.53 23.7808 7.82879H29.0625C29.5802 7.82879 30 7.40902 30 6.89129C30 6.37355 29.5802 5.95379 29.0625 5.95379H23.7807C23.3597 4.25258 21.8208 2.9873 19.9913 2.9873C18.1618 2.9873 16.6229 4.25258 16.2019 5.95379H0.9375C0.419766 5.95379 0 6.37355 0 6.89129C0 7.40902 0.419766 7.82879 0.9375 7.82879ZM19.9914 4.8623C21.1102 4.8623 22.0204 5.7725 22.0204 6.89123C22.0204 8.01002 21.1102 8.92021 19.9914 8.92021C18.8726 8.92021 17.9624 8.01002 17.9624 6.89123C17.9624 5.7725 18.8726 4.8623 19.9914 4.8623ZM0.9375 15.9375H6.21926C6.64031 17.6387 8.17916 18.9039 10.0087 18.9039C11.8382 18.9039 13.3771 17.6387 13.7981 15.9375H29.0625C29.5802 15.9375 30 15.5177 30 15C30 14.4822 29.5802 14.0625 29.0625 14.0625H13.7981C13.377 12.3612 11.8382 11.096 10.0086 11.096C8.1791 11.096 6.64025 12.3612 6.2192 14.0625H0.9375C0.419766 14.0625 0 14.4822 0 15C0 15.5177 0.419707 15.9375 0.9375 15.9375ZM10.0086 12.971C11.1274 12.971 12.0376 13.8812 12.0376 15C12.0376 16.1187 11.1274 17.0289 10.0086 17.0289C8.88984 17.0289 7.97965 16.1187 7.97965 15C7.97965 13.8812 8.88984 12.971 10.0086 12.971ZM29.0625 22.1711H23.7807C23.3597 20.4699 21.8208 19.2046 19.9913 19.2046C18.1618 19.2046 16.6229 20.4699 16.2019 22.1711H0.9375C0.419766 22.1711 0 22.5909 0 23.1086C0 23.6264 0.419766 24.0461 0.9375 24.0461H16.2019C16.623 25.7473 18.1618 27.0126 19.9914 27.0126C21.8209 27.0126 23.3597 25.7473 23.7808 24.0461H29.0625C29.5802 24.0461 30 23.6264 30 23.1086C30 22.5909 29.5803 22.1711 29.0625 22.1711ZM19.9914 25.1376C18.8726 25.1376 17.9624 24.2274 17.9624 23.1086C17.9624 21.9898 18.8726 21.0796 19.9914 21.0796C21.1102 21.0796 22.0204 21.9898 22.0204 23.1086C22.0204 24.2274 21.1102 25.1376 19.9914 25.1376Z" fill="black"/>
</svg>
