<svg width="28" height="28" viewBox="0 0 28 28" fill="none" xmlns="http://www.w3.org/2000/svg">
<path d="M13.9987 2.33301C17.1685 2.33301 17.564 2.34467 18.8077 2.40301C20.0502 2.46134 20.896 2.65617 21.6404 2.94551C22.4104 3.24184 23.059 3.64317 23.7077 4.29067C24.3009 4.87389 24.76 5.57936 25.0529 6.35801C25.341 7.10117 25.537 7.94817 25.5954 9.19067C25.6502 10.4343 25.6654 10.8298 25.6654 13.9997C25.6654 17.1695 25.6537 17.565 25.5954 18.8087C25.537 20.0512 25.341 20.897 25.0529 21.6413C24.7608 22.4204 24.3017 23.1261 23.7077 23.7087C23.1243 24.3017 22.4189 24.7607 21.6404 25.0538C20.8972 25.342 20.0502 25.538 18.8077 25.5963C17.564 25.6512 17.1685 25.6663 13.9987 25.6663C10.8289 25.6663 10.4334 25.6547 9.1897 25.5963C7.9472 25.538 7.10136 25.342 6.35703 25.0538C5.57808 24.7616 4.87248 24.3024 4.2897 23.7087C3.69634 23.1256 3.23728 22.4201 2.94453 21.6413C2.6552 20.8982 2.46036 20.0512 2.40203 18.8087C2.3472 17.565 2.33203 17.1695 2.33203 13.9997C2.33203 10.8298 2.3437 10.4343 2.40203 9.19067C2.46036 7.94701 2.6552 7.10234 2.94453 6.35801C3.23647 5.57888 3.69564 4.87322 4.2897 4.29067C4.87265 3.69711 5.5782 3.23803 6.35703 2.94551C7.10136 2.65617 7.94603 2.46134 9.1897 2.40301C10.4334 2.34817 10.8289 2.33301 13.9987 2.33301ZM13.9987 8.16634C12.4516 8.16634 10.9679 8.78092 9.87391 9.87489C8.77995 10.9688 8.16537 12.4526 8.16537 13.9997C8.16537 15.5468 8.77995 17.0305 9.87391 18.1245C10.9679 19.2184 12.4516 19.833 13.9987 19.833C15.5458 19.833 17.0295 19.2184 18.1235 18.1245C19.2175 17.0305 19.832 15.5468 19.832 13.9997C19.832 12.4526 19.2175 10.9688 18.1235 9.87489C17.0295 8.78092 15.5458 8.16634 13.9987 8.16634ZM21.582 7.87467C21.582 7.4879 21.4284 7.11697 21.1549 6.84348C20.8814 6.56999 20.5105 6.41634 20.1237 6.41634C19.7369 6.41634 19.366 6.56999 19.0925 6.84348C18.819 7.11697 18.6654 7.4879 18.6654 7.87467C18.6654 8.26145 18.819 8.63238 19.0925 8.90587C19.366 9.17936 19.7369 9.33301 20.1237 9.33301C20.5105 9.33301 20.8814 9.17936 21.1549 8.90587C21.4284 8.63238 21.582 8.26145 21.582 7.87467ZM13.9987 10.4997C14.927 10.4997 15.8172 10.8684 16.4736 11.5248C17.13 12.1812 17.4987 13.0714 17.4987 13.9997C17.4987 14.9279 17.13 15.8182 16.4736 16.4745C15.8172 17.1309 14.927 17.4997 13.9987 17.4997C13.0704 17.4997 12.1802 17.1309 11.5238 16.4745C10.8674 15.8182 10.4987 14.9279 10.4987 13.9997C10.4987 13.0714 10.8674 12.1812 11.5238 11.5248C12.1802 10.8684 13.0704 10.4997 13.9987 10.4997Z" fill="#2C2C2C"/>
</svg>
