<svg width="23" height="23" viewBox="0 0 23 23" fill="none" xmlns="http://www.w3.org/2000/svg">
<path d="M0.314771 7.2676H5.04035V22.1457H0.314771V7.2676ZM2.70919 0.0957031C1.09182 0.0957031 0.0351562 1.2066 0.0351562 2.66468C0.0351562 4.09278 1.0609 5.23597 2.64735 5.23597H2.67748C4.32577 5.23597 5.35225 4.09272 5.35225 2.66468C5.32133 1.2066 4.32583 0.0957031 2.70919 0.0957031ZM16.643 6.9181C14.1346 6.9181 13.0108 8.36157 12.3839 9.37387V7.2676H7.6569C7.71948 8.66334 7.6569 22.1457 7.6569 22.1457H12.3839V13.8367C12.3839 13.3917 12.4148 12.9483 12.5392 12.6295C12.8814 11.7412 13.6592 10.8212 14.9637 10.8212C16.6754 10.8212 17.3589 12.1862 17.3589 14.1853V22.1457H22.0852V13.6143C22.0852 9.04442 19.7541 6.9181 16.643 6.9181Z" fill="#1D1D1D"/>
</svg>
