<svg width="28" height="28" viewBox="0 0 28 28" fill="none" xmlns="http://www.w3.org/2000/svg">
<path d="M10.5454 25.1297C11.6654 25.468 12.797 25.6663 13.9987 25.6663C17.0929 25.6663 20.0604 24.4372 22.2483 22.2493C24.4362 20.0613 25.6654 17.0939 25.6654 13.9997C25.6654 12.4676 25.3636 10.9505 24.7773 9.53503C24.191 8.11957 23.3316 6.83345 22.2483 5.7501C21.1649 4.66675 19.8788 3.80738 18.4633 3.22108C17.0479 2.63478 15.5308 2.33301 13.9987 2.33301C12.4666 2.33301 10.9495 2.63478 9.53406 3.22108C8.11859 3.80738 6.83247 4.66675 5.74912 5.7501C3.56119 7.93802 2.33203 10.9055 2.33203 13.9997C2.33203 18.958 5.44703 23.2163 9.84536 24.8963C9.74036 23.9863 9.63536 22.4813 9.84536 21.443L11.187 15.6797C11.187 15.6797 10.8487 15.003 10.8487 13.9297C10.8487 12.3197 11.852 11.118 12.9954 11.118C13.9987 11.118 14.4654 11.853 14.4654 12.798C14.4654 13.8013 13.8004 15.2363 13.462 16.613C13.2637 17.7563 14.0687 18.7597 15.2354 18.7597C17.312 18.7597 18.922 16.543 18.922 13.4163C18.922 10.6163 16.9154 8.70301 14.0337 8.70301C10.7437 8.70301 8.80703 11.153 8.80703 13.7313C8.80703 14.7347 9.1337 15.7497 9.67036 16.4147C9.77536 16.4847 9.77537 16.578 9.74037 16.753L9.40203 18.0247C9.40203 18.223 9.2737 18.293 9.07537 18.153C7.58203 17.4997 6.7187 15.3763 6.7187 13.6613C6.7187 9.97468 9.33203 6.62634 14.372 6.62634C18.3854 6.62634 21.512 9.50801 21.512 13.3347C21.512 17.348 19.027 20.568 15.4687 20.568C14.337 20.568 13.2287 19.9613 12.832 19.2497L12.0504 22.0147C11.782 23.018 11.047 24.3597 10.5454 25.1647V25.1297Z" fill="#2C2C2C"/>
</svg>
