<svg width="19" height="19" viewBox="0 0 19 19" fill="none" xmlns="http://www.w3.org/2000/svg">
<path d="M3.58282 11.6598C4.80863 11.6598 5.80235 10.6881 5.80235 9.48955C5.80235 8.29097 4.80863 7.31934 3.58282 7.31934C2.357 7.31934 1.36328 8.29097 1.36328 9.48955C1.36328 10.6881 2.357 11.6598 3.58282 11.6598Z" stroke="#2C2C2C" stroke-width="1.62766" stroke-linecap="round" stroke-linejoin="round"/>
<path d="M15.4188 5.14902C16.6446 5.14902 17.6383 4.17738 17.6383 2.97881C17.6383 1.78023 16.6446 0.808594 15.4188 0.808594C14.1929 0.808594 13.1992 1.78023 13.1992 2.97881C13.1992 4.17738 14.1929 5.14902 15.4188 5.14902Z" stroke="#2C2C2C" stroke-width="1.62766" stroke-linecap="round" stroke-linejoin="round"/>
<path d="M15.4188 18.1705C16.6446 18.1705 17.6383 17.1989 17.6383 16.0003C17.6383 14.8017 16.6446 13.8301 15.4188 13.8301C14.1929 13.8301 13.1992 14.8017 13.1992 16.0003C13.1992 17.1989 14.1929 18.1705 15.4188 18.1705Z" stroke="#2C2C2C" stroke-width="1.62766" stroke-linecap="round" stroke-linejoin="round"/>
<path d="M5.51562 10.5536L13.4847 14.9365M13.4847 4.04297L5.51562 8.42589" stroke="#2C2C2C" stroke-width="1.62766" stroke-linecap="round" stroke-linejoin="round"/>
</svg>
