<svg width="28" height="28" viewBox="0 0 28 28" fill="none" xmlns="http://www.w3.org/2000/svg">
<path d="M25.1322 7.58133C25.6654 9.66033 25.6654 14.0003 25.6654 14.0003C25.6654 14.0003 25.6654 18.3403 25.1322 20.4193C24.8359 21.5685 23.969 22.4727 22.8712 22.7783C20.8774 23.3337 13.9987 23.3337 13.9987 23.3337C13.9987 23.3337 7.12353 23.3337 5.1262 22.7783C4.0237 22.468 3.15803 21.565 2.8652 20.4193C2.33203 18.3403 2.33203 14.0003 2.33203 14.0003C2.33203 14.0003 2.33203 9.66033 2.8652 7.58133C3.16153 6.43216 4.02836 5.52799 5.1262 5.22233C7.12353 4.66699 13.9987 4.66699 13.9987 4.66699C13.9987 4.66699 20.8774 4.66699 22.8712 5.22233C23.9737 5.53266 24.8394 6.43566 25.1322 7.58133ZM11.6654 18.0837L18.6654 14.0003L11.6654 9.91699V18.0837Z" fill="#2C2C2C"/>
</svg>
