<svg width="130" height="79" viewBox="0 0 130 79" fill="none" xmlns="http://www.w3.org/2000/svg">
<path d="M34.1199 78.2886C27.176 78.2886 21.2343 76.6779 16.2948 73.4565C11.3554 70.1635 7.52546 65.6177 4.80517 59.8192C2.15646 53.9491 0.832104 47.1483 0.832104 39.417C0.832104 31.7572 2.15646 24.9922 4.80517 19.1221C7.52546 13.252 11.3554 8.70626 16.2948 5.48487C21.2343 2.19188 27.176 0.545381 34.1199 0.545381C41.0638 0.545381 47.0055 2.19188 51.945 5.48487C56.8845 8.70626 60.6786 13.252 63.3273 19.1221C66.0476 24.9922 67.4078 31.7572 67.4078 39.417C67.4078 47.1483 66.0476 53.9491 63.3273 59.8192C60.6786 65.6177 56.8845 70.1635 51.945 73.4565C47.0055 76.6779 41.0638 78.2886 34.1199 78.2886ZM34.1199 65.9399C39.7753 65.9399 44.3926 63.5775 47.972 58.8528C51.5513 54.128 53.341 47.6494 53.341 39.417C53.341 31.1845 51.5513 24.7059 47.972 19.9812C44.3926 15.2565 39.7753 12.8941 34.1199 12.8941C28.393 12.8941 23.7399 15.2565 20.1605 19.9812C16.6528 24.7059 14.8989 31.1845 14.8989 39.417C14.8989 47.6494 16.6528 54.128 20.1605 58.8528C23.7399 63.5775 28.393 65.9399 34.1199 65.9399ZM77.7246 77V67.0137C82.3062 63.2196 86.7446 59.4613 91.0398 55.7387C95.4066 52.0162 99.2722 48.3295 102.637 44.6786C106.073 41.0277 108.793 37.4841 110.798 34.048C112.874 30.5402 113.912 27.1398 113.912 23.8469C113.912 20.7686 113.053 18.0483 111.335 15.686C109.688 13.3236 106.932 12.1424 103.066 12.1424C99.1291 12.1424 96.1582 13.431 94.1538 16.0081C92.1494 18.5852 91.1471 21.6993 91.1471 25.3502H77.832C77.9752 19.838 79.1922 15.2565 81.4829 11.6055C83.7737 7.88302 86.8162 5.12693 90.6102 3.33726C94.4043 1.47601 98.6638 0.545381 103.388 0.545381C111.048 0.545381 116.99 2.65719 121.214 6.8808C125.509 11.0328 127.656 16.4376 127.656 23.0952C127.656 27.2472 126.69 31.2919 124.757 35.2291C122.896 39.1664 120.426 42.9605 117.348 46.6114C114.27 50.2624 110.941 53.6985 107.362 56.9199C103.782 60.0697 100.31 63.0048 96.9457 65.7251H129.482V77H77.7246Z" fill="url(#paint0_linear_2_1339)"/>
<defs>
<linearGradient id="paint0_linear_2_1339" x1="65" y1="-17.9338" x2="65.0837" y2="86.6688" gradientUnits="userSpaceOnUse">
<stop stop-color="#5800FF"/>
<stop offset="1" stop-color="#FCFCFC" stop-opacity="0"/>
</linearGradient>
</defs>
</svg>
