<svg width="131" height="79" viewBox="0 0 131 79" fill="none" xmlns="http://www.w3.org/2000/svg">
<path d="M34.1199 78.2886C27.176 78.2886 21.2343 76.6779 16.2948 73.4565C11.3554 70.1635 7.52546 65.6177 4.80517 59.8192C2.15646 53.9491 0.832104 47.1483 0.832104 39.417C0.832104 31.7572 2.15646 24.9922 4.80517 19.1221C7.52546 13.252 11.3554 8.70626 16.2948 5.48487C21.2343 2.19188 27.176 0.545381 34.1199 0.545381C41.0638 0.545381 47.0055 2.19188 51.945 5.48487C56.8845 8.70626 60.6786 13.252 63.3273 19.1221C66.0476 24.9922 67.4078 31.7572 67.4078 39.417C67.4078 47.1483 66.0476 53.9491 63.3273 59.8192C60.6786 65.6177 56.8845 70.1635 51.945 73.4565C47.0055 76.6779 41.0638 78.2886 34.1199 78.2886ZM34.1199 65.9399C39.7753 65.9399 44.3926 63.5775 47.972 58.8528C51.5513 54.128 53.341 47.6494 53.341 39.417C53.341 31.1845 51.5513 24.7059 47.972 19.9812C44.3926 15.2565 39.7753 12.8941 34.1199 12.8941C28.393 12.8941 23.7399 15.2565 20.1605 19.9812C16.6528 24.7059 14.8989 31.1845 14.8989 39.417C14.8989 47.6494 16.6528 54.128 20.1605 58.8528C23.7399 63.5775 28.393 65.9399 34.1199 65.9399ZM104.664 78.2886C99.725 78.2886 95.2508 77.4295 91.2419 75.7114C87.2331 73.9218 84.0117 71.2015 81.5777 67.5506C79.1438 63.8996 77.8552 59.3181 77.7121 53.8059H91.2419C91.3135 57.4568 92.4947 60.5351 94.7855 63.0406C97.1478 65.4745 100.441 66.6915 104.664 66.6915C108.673 66.6915 111.752 65.5819 113.899 63.3627C116.047 61.1435 117.121 58.3517 117.121 54.9871C117.121 51.0498 115.689 48.079 112.825 46.0745C110.033 43.9985 106.418 42.9605 101.98 42.9605H96.3962V31.6856H102.087C105.738 31.6856 108.781 30.8266 111.215 29.1085C113.649 27.3904 114.866 24.8491 114.866 21.4845C114.866 18.6926 113.935 16.4734 112.074 14.8269C110.284 13.1088 107.778 12.2498 104.557 12.2498C101.049 12.2498 98.2932 13.2878 96.2888 15.3638C94.356 17.4398 93.2822 19.9812 93.0674 22.9878H79.6449C79.9312 16.0439 82.3294 10.5675 86.8394 6.55866C91.4209 2.54981 97.3268 0.545381 104.557 0.545381C109.711 0.545381 114.042 1.47601 117.55 3.33726C121.129 5.12693 123.814 7.52509 125.604 10.5317C127.465 13.5384 128.395 16.8672 128.395 20.5181C128.395 24.7417 127.214 28.321 124.852 31.2561C122.561 34.1196 119.698 36.0524 116.262 37.0546C120.485 37.9136 123.921 39.9897 126.57 43.2827C129.219 46.5041 130.543 50.5845 130.543 55.524C130.543 59.676 129.541 63.4701 127.536 66.9063C125.532 70.3424 122.597 73.0985 118.731 75.1745C114.937 77.2506 110.248 78.2886 104.664 78.2886Z" fill="url(#paint0_linear_2_1331)"/>
<defs>
<linearGradient id="paint0_linear_2_1331" x1="66.5" y1="-17.9338" x2="66.582" y2="86.6688" gradientUnits="userSpaceOnUse">
<stop stop-color="#FF885A"/>
<stop offset="1" stop-color="#FCFCFC" stop-opacity="0"/>
</linearGradient>
</defs>
</svg>
