<svg width="134" height="79" viewBox="0 0 134 79" fill="none" xmlns="http://www.w3.org/2000/svg">
<path d="M34.1199 78.2886C27.176 78.2886 21.2343 76.6779 16.2948 73.4565C11.3554 70.1635 7.52546 65.6177 4.80517 59.8192C2.15646 53.9491 0.832104 47.1483 0.832104 39.417C0.832104 31.7572 2.15646 24.9922 4.80517 19.1221C7.52546 13.252 11.3554 8.70626 16.2948 5.48487C21.2343 2.19188 27.176 0.545381 34.1199 0.545381C41.0638 0.545381 47.0055 2.19188 51.945 5.48487C56.8845 8.70626 60.6786 13.252 63.3273 19.1221C66.0476 24.9922 67.4078 31.7572 67.4078 39.417C67.4078 47.1483 66.0476 53.9491 63.3273 59.8192C60.6786 65.6177 56.8845 70.1635 51.945 73.4565C47.0055 76.6779 41.0638 78.2886 34.1199 78.2886ZM34.1199 65.9399C39.7753 65.9399 44.3926 63.5775 47.972 58.8528C51.5513 54.128 53.341 47.6494 53.341 39.417C53.341 31.1845 51.5513 24.7059 47.972 19.9812C44.3926 15.2565 39.7753 12.8941 34.1199 12.8941C28.393 12.8941 23.7399 15.2565 20.1605 19.9812C16.6528 24.7059 14.8989 31.1845 14.8989 39.417C14.8989 47.6494 16.6528 54.128 20.1605 58.8528C23.7399 63.5775 28.393 65.9399 34.1199 65.9399ZM107.027 78.2886C101.515 78.2886 96.7541 77.3221 92.7453 75.3893C88.808 73.4565 85.694 70.8077 83.4032 67.4432C81.184 64.007 79.8954 60.1413 79.5375 55.8461H92.96C93.6043 58.9244 95.1792 61.5015 97.6847 63.5775C100.19 65.5819 103.304 66.5841 107.027 66.5841C111.036 66.5841 114.293 65.1166 116.798 62.1815C119.376 59.2465 120.664 55.5956 120.664 51.2288C120.664 46.7188 119.376 43.1395 116.798 40.4908C114.293 37.8421 111.107 36.5177 107.242 36.5177C104.02 36.5177 101.228 37.3052 98.8659 38.8801C96.5036 40.455 94.8213 42.4236 93.8191 44.786H80.6113L87.0541 1.83394H128.718V13.8605H97.3626L93.9264 31.2561C95.5014 29.538 97.649 28.1421 100.369 27.0683C103.09 25.9229 106.132 25.3502 109.497 25.3502C114.866 25.3502 119.34 26.5672 122.919 29.0011C126.498 31.3635 129.219 34.5133 131.08 38.4505C132.941 42.3162 133.872 46.5398 133.872 51.1214C133.872 56.3472 132.726 61.0004 130.436 65.0808C128.216 69.1613 125.067 72.3827 120.986 74.745C116.977 77.1074 112.324 78.2886 107.027 78.2886Z" fill="url(#paint0_linear_2_1326)"/>
<defs>
<linearGradient id="paint0_linear_2_1326" x1="68" y1="-17.9338" x2="68.0803" y2="86.6688" gradientUnits="userSpaceOnUse">
<stop stop-color="#ED5BDE"/>
<stop offset="1" stop-color="#FCFCFC" stop-opacity="0"/>
</linearGradient>
</defs>
</svg>
