<svg width="135" height="79" viewBox="0 0 135 79" fill="none" xmlns="http://www.w3.org/2000/svg">
<path d="M34.1199 78.2886C27.176 78.2886 21.2343 76.6779 16.2948 73.4565C11.3554 70.1635 7.52546 65.6177 4.80517 59.8192C2.15646 53.9491 0.832104 47.1483 0.832104 39.417C0.832104 31.7572 2.15646 24.9922 4.80517 19.1221C7.52546 13.252 11.3554 8.70626 16.2948 5.48487C21.2343 2.19188 27.176 0.545381 34.1199 0.545381C41.0638 0.545381 47.0055 2.19188 51.945 5.48487C56.8845 8.70626 60.6786 13.252 63.3273 19.1221C66.0476 24.9922 67.4078 31.7572 67.4078 39.417C67.4078 47.1483 66.0476 53.9491 63.3273 59.8192C60.6786 65.6177 56.8845 70.1635 51.945 73.4565C47.0055 76.6779 41.0638 78.2886 34.1199 78.2886ZM34.1199 65.9399C39.7753 65.9399 44.3926 63.5775 47.972 58.8528C51.5513 54.128 53.341 47.6494 53.341 39.417C53.341 31.1845 51.5513 24.7059 47.972 19.9812C44.3926 15.2565 39.7753 12.8941 34.1199 12.8941C28.393 12.8941 23.7399 15.2565 20.1605 19.9812C16.6528 24.7059 14.8989 31.1845 14.8989 39.417C14.8989 47.6494 16.6528 54.128 20.1605 58.8528C23.7399 63.5775 28.393 65.9399 34.1199 65.9399ZM108.315 78.2886C102.66 78.2886 97.8995 77.2506 94.0338 75.1745C90.1681 73.0985 87.0541 70.3066 84.6918 66.7989C82.3294 63.2911 80.6113 59.3897 79.5375 55.0945C78.5353 50.7993 78.0342 46.3967 78.0342 41.8867C78.0342 33.5111 79.2154 26.245 81.5777 20.0886C83.9401 13.8605 87.3405 9.0642 91.7788 5.69962C96.2172 2.26346 101.586 0.545381 107.886 0.545381C113.04 0.545381 117.407 1.58339 120.986 3.6594C124.637 5.66383 127.465 8.31254 129.469 11.6055C131.474 14.8985 132.655 18.4421 133.013 22.2362H120.235C119.59 18.9432 118.194 16.4018 116.047 14.6122C113.899 12.8225 111.143 11.9277 107.778 11.9277C102.982 11.9277 99.1165 14.1469 96.1814 18.5852C93.2464 22.952 91.6715 29.6454 91.4567 38.6653C93.1748 35.7303 95.7519 33.2963 99.1881 31.3635C102.624 29.4306 106.454 28.4642 110.678 28.4642C114.83 28.4642 118.731 29.4664 122.382 31.4708C126.033 33.4753 128.968 36.3029 131.187 39.9539C133.478 43.6048 134.623 47.9 134.623 52.8395C134.623 57.3494 133.514 61.5373 131.295 65.403C129.147 69.2686 126.069 72.3827 122.06 74.745C118.123 77.1074 113.541 78.2886 108.315 78.2886ZM107.564 66.4768C111.573 66.4768 114.866 65.2598 117.443 62.8258C120.091 60.3203 121.416 57.1705 121.416 53.3764C121.416 49.3675 120.091 46.1461 117.443 43.7122C114.794 41.2782 111.429 40.0613 107.349 40.0613C104.7 40.0613 102.302 40.6697 100.154 41.8867C98.0785 43.0321 96.432 44.607 95.215 46.6114C93.998 48.5443 93.3895 50.7277 93.3895 53.1616C93.3895 57.0273 94.7139 60.2129 97.3626 62.7184C100.083 65.224 103.483 66.4768 107.564 66.4768Z" fill="url(#paint0_linear_2_1340)"/>
<defs>
<linearGradient id="paint0_linear_2_1340" x1="68.5" y1="-17.9338" x2="68.5797" y2="86.6688" gradientUnits="userSpaceOnUse">
<stop stop-color="#79D6D6"/>
<stop offset="1" stop-color="#FCFCFC" stop-opacity="0"/>
</linearGradient>
</defs>
</svg>
