<svg width="127" height="79" viewBox="0 0 127 79" fill="none" xmlns="http://www.w3.org/2000/svg">
<path d="M34.1199 78.2886C27.176 78.2886 21.2343 76.6779 16.2948 73.4565C11.3554 70.1635 7.52546 65.6177 4.80517 59.8192C2.15646 53.9491 0.832104 47.1483 0.832104 39.417C0.832104 31.7572 2.15646 24.9922 4.80517 19.1221C7.52546 13.252 11.3554 8.70626 16.2948 5.48487C21.2343 2.19188 27.176 0.545381 34.1199 0.545381C41.0638 0.545381 47.0055 2.19188 51.945 5.48487C56.8845 8.70626 60.6786 13.252 63.3273 19.1221C66.0476 24.9922 67.4078 31.7572 67.4078 39.417C67.4078 47.1483 66.0476 53.9491 63.3273 59.8192C60.6786 65.6177 56.8845 70.1635 51.945 73.4565C47.0055 76.6779 41.0638 78.2886 34.1199 78.2886ZM34.1199 65.9399C39.7753 65.9399 44.3926 63.5775 47.972 58.8528C51.5513 54.128 53.341 47.6494 53.341 39.417C53.341 31.1845 51.5513 24.7059 47.972 19.9812C44.3926 15.2565 39.7753 12.8941 34.1199 12.8941C28.393 12.8941 23.7399 15.2565 20.1605 19.9812C16.6528 24.7059 14.8989 31.1845 14.8989 39.417C14.8989 47.6494 16.6528 54.128 20.1605 58.8528C23.7399 63.5775 28.393 65.9399 34.1199 65.9399ZM83.6356 77L111.984 13.5384H74.9378V1.83394H126.158V11.6055L97.9171 77H83.6356Z" fill="url(#paint0_linear_2_1332)"/>
<defs>
<linearGradient id="paint0_linear_2_1332" x1="63" y1="-17.9338" x2="63.0862" y2="86.6688" gradientUnits="userSpaceOnUse">
<stop stop-color="#CEE259"/>
<stop offset="1" stop-color="#FCFCFC" stop-opacity="0"/>
</linearGradient>
</defs>
</svg>
