<svg width="135" height="79" viewBox="0 0 135 79" fill="none" xmlns="http://www.w3.org/2000/svg">
<path d="M34.1199 78.2886C27.176 78.2886 21.2343 76.6779 16.2948 73.4565C11.3554 70.1635 7.52546 65.6177 4.80517 59.8192C2.15646 53.9491 0.832104 47.1483 0.832104 39.417C0.832104 31.7572 2.15646 24.9922 4.80517 19.1221C7.52546 13.252 11.3554 8.70626 16.2948 5.48487C21.2343 2.19188 27.176 0.545381 34.1199 0.545381C41.0638 0.545381 47.0055 2.19188 51.945 5.48487C56.8845 8.70626 60.6786 13.252 63.3273 19.1221C66.0476 24.9922 67.4078 31.7572 67.4078 39.417C67.4078 47.1483 66.0476 53.9491 63.3273 59.8192C60.6786 65.6177 56.8845 70.1635 51.945 73.4565C47.0055 76.6779 41.0638 78.2886 34.1199 78.2886ZM34.1199 65.9399C39.7753 65.9399 44.3926 63.5775 47.972 58.8528C51.5513 54.128 53.341 47.6494 53.341 39.417C53.341 31.1845 51.5513 24.7059 47.972 19.9812C44.3926 15.2565 39.7753 12.8941 34.1199 12.8941C28.393 12.8941 23.7399 15.2565 20.1605 19.9812C16.6528 24.7059 14.8989 31.1845 14.8989 39.417C14.8989 47.6494 16.6528 54.128 20.1605 58.8528C23.7399 63.5775 28.393 65.9399 34.1199 65.9399ZM106.597 78.2886C101.443 78.2886 96.7899 77.3937 92.6379 75.6041C88.4859 73.7428 85.1571 71.1299 82.6515 67.7653C80.2176 64.4007 79.0006 60.4993 79.0006 56.0609C79.0006 51.4793 80.1818 47.4705 82.5442 44.0343C84.9781 40.5982 88.1637 38.1284 92.101 36.6251C88.6648 35.1218 85.9445 32.9742 83.9401 30.1823C81.9357 27.3188 80.9335 24.1332 80.9335 20.6255C80.9335 17.0461 81.8999 13.7531 83.8327 10.7465C85.7656 7.66826 88.629 5.19852 92.4231 3.33726C96.2888 1.47601 101.014 0.545381 106.597 0.545381C112.181 0.545381 116.87 1.47601 120.664 3.33726C124.458 5.19852 127.322 7.66826 129.254 10.7465C131.187 13.7531 132.154 17.0461 132.154 20.6255C132.154 24.0616 131.116 27.2472 129.04 30.1823C127.035 33.0458 124.351 35.1934 120.986 36.6251C124.995 38.1284 128.181 40.5982 130.543 44.0343C132.905 47.4705 134.087 51.4793 134.087 56.0609C134.087 60.4993 132.87 64.4007 130.436 67.7653C128.002 71.1299 124.673 73.7428 120.449 75.6041C116.297 77.3937 111.68 78.2886 106.597 78.2886ZM106.597 32.5446C110.32 32.5446 113.255 31.5782 115.402 29.6454C117.55 27.7125 118.624 25.2428 118.624 22.2362C118.624 18.9432 117.55 16.366 115.402 14.5048C113.326 12.6435 110.391 11.7129 106.597 11.7129C102.732 11.7129 99.7608 12.6435 97.6847 14.5048C95.6087 16.366 94.5707 18.9432 94.5707 22.2362C94.5707 25.3144 95.6087 27.8199 97.6847 29.7528C99.8324 31.614 102.803 32.5446 106.597 32.5446ZM106.597 66.7989C111.179 66.7989 114.651 65.6893 117.013 63.4701C119.376 61.1793 120.557 58.3159 120.557 54.8797C120.557 51.0856 119.304 48.1148 116.798 45.9672C114.364 43.8196 110.964 42.7458 106.597 42.7458C102.231 42.7458 98.7585 43.8196 96.1814 45.9672C93.6759 48.1148 92.4231 51.0856 92.4231 54.8797C92.4231 58.3159 93.6043 61.1793 95.9667 63.4701C98.4006 65.6893 101.944 66.7989 106.597 66.7989Z" fill="url(#paint0_linear_2_1346)"/>
<defs>
<linearGradient id="paint0_linear_2_1346" x1="68.5" y1="-17.9338" x2="68.5797" y2="86.6688" gradientUnits="userSpaceOnUse">
<stop stop-color="#55B06E"/>
<stop offset="1" stop-color="#FCFCFC" stop-opacity="0"/>
</linearGradient>
</defs>
</svg>
