<svg width="109" height="109" viewBox="0 0 109 109" fill="none" xmlns="http://www.w3.org/2000/svg">
<circle cx="54.1861" cy="54.1861" r="54.1861" fill="#F64B4B"/>
<g clip-path="url(#clip0_1607_3009)">
<g clip-path="url(#clip1_1607_3009)">
<path d="M73.7295 47.0062C73.7295 44.3968 71.6093 42.2766 68.9998 42.2766H53.5061C53.0168 42.2766 52.6906 42.1135 52.3644 41.7873L49.755 38.6885C48.9395 37.5469 47.6348 36.8945 46.1669 36.8945H39.3171C36.7076 36.8945 34.5874 39.0147 34.5874 41.6242V67.3927C34.5874 70.0022 36.7076 72.1224 39.3171 72.1224H68.9998C71.6093 72.1224 73.7295 70.0022 73.7295 67.3927V47.0062ZM61.1714 57.281C61.1714 60.2167 59.8667 62.8261 57.5834 64.7833L54.9739 67.0665C54.8108 67.2296 54.4846 67.3927 54.1584 67.3927C53.8323 67.3927 53.6692 67.2296 53.343 67.0665L50.5704 64.7833C48.4502 62.8261 47.1455 60.2167 47.1455 57.281V50.4312C47.1455 49.7788 47.6348 49.2895 48.2871 49.2895H60.0297C60.6821 49.2895 61.1714 49.7788 61.1714 50.4312V57.281Z" fill="white"/>
<path d="M55.9527 54.1824L53.1801 56.1395L52.6908 55.4872C52.2015 54.8348 51.0599 54.6717 50.4075 55.161C49.5921 55.6503 49.5921 56.7919 50.0813 57.4443L51.5492 59.4014C52.0385 60.0538 53.017 60.2168 53.8325 59.7276L57.9098 56.955C58.7252 56.4657 58.8883 55.4872 58.399 54.6717C57.7467 53.8563 56.7681 53.6932 55.9527 54.1824Z" fill="white"/>
</g>
</g>
<defs>
<clipPath id="clip0_1607_3009">
<rect width="42.0037" height="47" fill="white" transform="translate(33 31)"/>
</clipPath>
<clipPath id="clip1_1607_3009">
<rect width="42.0037" height="47" fill="white" transform="translate(33 31)"/>
</clipPath>
</defs>
</svg>
