<svg width="627" height="378" viewBox="0 0 627 378" fill="none" xmlns="http://www.w3.org/2000/svg">
<g style="mix-blend-mode:multiply">
<path d="M10.3584 249.851L23.2358 277.594C24.0158 279.271 26.0593 279.919 27.6661 278.998L62.843 258.688C65.417 257.206 64.6916 253.306 61.7511 252.854L13.6967 245.42C11.2086 245.038 9.30542 247.573 10.3584 249.858V249.851Z" fill="#E8ECF7"/>
</g>
<g style="mix-blend-mode:multiply">
<path d="M194.957 26.5512C184.443 20.4829 167.4 20.4829 156.886 26.5512C146.372 32.6194 146.372 42.4627 156.886 48.5309C167.4 54.5991 184.443 54.5991 194.957 48.5309C205.471 42.4627 205.471 32.6194 194.957 26.5512ZM165.864 43.3441C160.31 40.1384 160.31 34.9437 165.864 31.738C171.417 28.5323 180.418 28.5323 185.971 31.738C191.525 34.9437 191.525 40.1384 185.971 43.3441C180.418 46.5498 171.417 46.5498 165.864 43.3441Z" fill="#E8ECF7"/>
</g>
<path d="M493.67 92.0929C495.526 93.1615 498.529 93.1615 500.378 92.0929C502.226 91.0244 502.226 89.285 500.378 88.2165C498.521 87.1479 495.518 87.1479 493.67 88.2165C491.813 89.285 491.813 91.0244 493.67 92.0929Z" fill="#E8ECF7"/>
<path d="M510.089 101.57C511.945 102.638 514.948 102.638 516.797 101.57C518.653 100.501 518.653 98.7616 516.797 97.693C514.948 96.6245 511.938 96.6245 510.089 97.693C508.241 98.7616 508.241 100.501 510.089 101.57Z" fill="#E8ECF7"/>
<path d="M526.508 111.046C528.364 112.115 531.367 112.115 533.216 111.046C535.072 109.978 535.072 108.238 533.216 107.17C531.359 106.101 528.357 106.101 526.508 107.17C524.652 108.238 524.652 109.97 526.508 111.046Z" fill="#E8ECF7"/>
<path d="M549.641 116.654C547.785 115.585 544.782 115.585 542.933 116.654C541.077 117.723 541.077 119.462 542.933 120.53C544.789 121.599 547.792 121.599 549.641 120.53C551.489 119.462 551.489 117.723 549.641 116.654Z" fill="#E8ECF7"/>
<path d="M477.252 101.57C479.109 102.638 482.112 102.638 483.96 101.57C485.817 100.501 485.817 98.7616 483.96 97.693C482.104 96.6245 479.101 96.6245 477.252 97.693C475.404 98.7616 475.404 100.501 477.252 101.57Z" fill="#E8ECF7"/>
<path d="M493.67 111.046C495.526 112.115 498.529 112.115 500.378 111.046C502.226 109.978 502.226 108.238 500.378 107.17C498.521 106.101 495.518 106.101 493.67 107.17C491.813 108.238 491.813 109.97 493.67 111.046Z" fill="#E8ECF7"/>
<path d="M510.089 120.524C511.945 121.592 514.948 121.592 516.805 120.524C518.661 119.455 518.661 117.716 516.805 116.647C514.956 115.579 511.945 115.579 510.097 116.647C508.248 117.716 508.248 119.455 510.097 120.524H510.089Z" fill="#E8ECF7"/>
<path d="M533.224 126.132C531.367 125.063 528.364 125.063 526.516 126.132C524.667 127.2 524.667 128.932 526.516 130.008C528.372 131.077 531.375 131.077 533.224 130.008C535.08 128.939 535.08 127.208 533.224 126.132Z" fill="#E8ECF7"/>
<path d="M460.833 111.046C462.689 112.115 465.692 112.115 467.541 111.046C469.389 109.978 469.389 108.238 467.541 107.17C465.684 106.101 462.682 106.101 460.833 107.17C458.977 108.238 458.977 109.97 460.833 111.046Z" fill="#E8ECF7"/>
<path d="M477.252 120.524C479.109 121.592 482.112 121.592 483.96 120.524C485.817 119.455 485.817 117.716 483.96 116.647C482.104 115.579 479.101 115.579 477.252 116.647C475.404 117.716 475.404 119.455 477.252 120.524Z" fill="#E8ECF7"/>
<path d="M493.67 130.008C495.526 131.077 498.529 131.077 500.378 130.008C502.226 128.939 502.226 127.208 500.378 126.132C498.521 125.063 495.518 125.063 493.67 126.132C491.813 127.2 491.813 128.932 493.67 130.008Z" fill="#E8ECF7"/>
<path d="M516.805 135.615C514.948 134.546 511.945 134.546 510.089 135.615C508.241 136.683 508.241 138.423 510.089 139.491C511.945 140.56 514.948 140.56 516.805 139.491C518.661 138.423 518.661 136.683 516.805 135.615Z" fill="#E8ECF7"/>
<path d="M444.415 120.524C446.272 121.592 449.275 121.592 451.123 120.524C452.98 119.455 452.98 117.716 451.123 116.647C449.267 115.579 446.264 115.579 444.415 116.647C442.559 117.716 442.559 119.455 444.415 120.524Z" fill="#E8ECF7"/>
<path d="M460.833 130.008C462.689 131.077 465.692 131.077 467.541 130.008C469.389 128.939 469.389 127.208 467.541 126.132C465.684 125.063 462.682 125.063 460.833 126.132C458.977 127.2 458.977 128.939 460.833 130.008Z" fill="#E8ECF7"/>
<path d="M477.252 139.485C479.109 140.553 482.112 140.553 483.96 139.485C485.817 138.416 485.817 136.677 483.96 135.608C482.104 134.539 479.101 134.539 477.252 135.608C475.404 136.677 475.404 138.408 477.252 139.485Z" fill="#E8ECF7"/>
<path d="M500.387 145.092C498.53 144.024 495.527 144.024 493.679 145.092C491.823 146.161 491.823 147.9 493.679 148.969C495.535 150.037 498.538 150.037 500.387 148.969C502.235 147.9 502.235 146.161 500.387 145.092Z" fill="#E8ECF7"/>
<path d="M434.704 126.132C432.848 125.063 429.845 125.063 427.996 126.132C426.14 127.2 426.14 128.939 427.996 130.008C429.853 131.077 432.856 131.077 434.704 130.008C436.56 128.939 436.56 127.208 434.704 126.132Z" fill="#E8ECF7"/>
<path d="M451.123 135.615C449.267 134.546 446.264 134.546 444.415 135.615C442.559 136.683 442.559 138.415 444.415 139.491C446.272 140.56 449.275 140.56 451.123 139.491C452.98 138.423 452.98 136.683 451.123 135.615Z" fill="#E8ECF7"/>
<path d="M467.541 145.092C465.684 144.024 462.682 144.024 460.833 145.092C458.977 146.161 458.977 147.9 460.833 148.969C462.689 150.037 465.692 150.037 467.541 148.969C469.389 147.9 469.389 146.161 467.541 145.092Z" fill="#E8ECF7"/>
<path d="M483.96 154.569C482.104 153.5 479.101 153.5 477.252 154.569C475.404 155.638 475.404 157.377 477.252 158.445C479.109 159.514 482.112 159.514 483.96 158.445C485.817 157.377 485.817 155.638 483.96 154.569Z" fill="#E8ECF7"/>
<g style="mix-blend-mode:multiply">
<path d="M610.729 275.848L625.479 284.365C627.725 285.66 627.444 287.929 624.847 289.435L611.353 297.227C608.756 298.724 604.825 298.888 602.578 297.593L587.829 289.076C585.583 287.773 585.864 285.511 588.461 284.006L601.955 276.214C604.552 274.717 608.483 274.553 610.729 275.855V275.848Z" fill="#E8ECF7"/>
</g>
<path d="M171.985 284.1L156.105 274.935C151.713 272.4 151.713 268.266 156.105 265.732L163.132 261.676C164.544 260.857 164.544 259.531 163.132 258.712L144.288 247.831" stroke="#4141AA" stroke-width="0.779977"/>
<path d="M146.987 246.271L165.831 257.151C168.74 258.828 168.74 261.558 165.831 263.235L158.803 267.291C155.894 268.968 155.894 271.698 158.803 273.375L174.684 282.539" stroke="#4141AA" stroke-width="0.779977"/>
<path style="mix-blend-mode:multiply" d="M185.096 220.353H165.854L163.78 221.546L161.713 220.353H142.463L140.396 221.546L138.321 220.353H119.071L130.771 227.099V258.696L119.071 265.451H138.321L140.396 264.257L142.463 265.451H161.713L163.78 264.257L165.854 265.451H185.096L224.158 242.902L185.096 220.353Z" fill="url(#paint0_linear_1597_2673)"/>
<path d="M119.071 265.451L80.0178 242.902V231.787L119.071 254.336V265.451Z" fill="#5555C6"/>
<path d="M158.133 242.902L119.072 265.451V254.336L158.133 231.787V242.902Z" fill="#4141AA"/>
<path d="M119.071 254.336L80.0177 231.786L119.071 209.237L158.132 231.786L119.071 254.336Z" fill="#7F7FF4"/>
<path d="M123.416 255.669L125.022 254.749V258.173L123.416 259.101V255.669Z" fill="#F48A71"/>
<path d="M114.274 256.2V258.048L93.87 246.27V244.414L114.274 256.2Z" fill="#34318F"/>
<path d="M92.2321 243.471V245.328L89.7751 243.908V242.052L92.2321 243.471Z" fill="#34318F"/>
<path d="M126.715 253.767L128.322 252.839V256.271L126.715 257.199V253.767Z" fill="#F48A71"/>
<path d="M130.022 251.863L131.629 250.935V254.366L130.022 255.295V251.863Z" fill="#F7F7FC"/>
<path d="M83.7928 239.524C83.7928 238.776 84.3154 238.471 84.9706 238.846C85.6258 239.22 86.1484 240.133 86.1484 240.881C86.1484 241.63 85.6258 241.934 84.9706 241.56C84.3232 241.186 83.7928 240.273 83.7928 239.524Z" fill="#F48A71"/>
<path d="M119.071 251.949L80.0178 229.392V218.285L119.071 240.834V251.949Z" fill="#5555C6"/>
<path d="M158.133 229.392L119.072 251.949V240.834L158.133 218.285V229.392Z" fill="#4141AA"/>
<path d="M119.071 240.835L80.0178 218.285L119.071 195.736L158.133 218.285L119.071 240.835Z" fill="#7F7FF4"/>
<path d="M123.415 242.168L125.022 241.24V244.672L123.415 245.6V242.168Z" fill="#1E1C6B"/>
<path d="M114.274 242.691V244.547L93.87 232.769V230.913L114.274 242.691Z" fill="#34318F"/>
<path d="M92.2321 229.969V231.818L89.7751 230.398V228.542L92.2321 229.969Z" fill="#34318F"/>
<path d="M126.715 240.265L128.322 239.337V242.769L126.715 243.697V240.265Z" fill="#F48A71"/>
<path d="M130.022 238.354L131.629 237.426V240.858L130.022 241.786V238.354Z" fill="#F3B378"/>
<path d="M83.7928 226.023C83.7928 225.275 84.3154 224.97 84.9706 225.345C85.6258 225.719 86.1484 226.632 86.1484 227.381C86.1484 228.129 85.6258 228.433 84.9706 228.059C84.3154 227.685 83.7928 226.772 83.7928 226.023Z" fill="#34318F"/>
<path d="M119.071 238.439L80.0178 215.89V204.783L119.071 227.332V238.439Z" fill="#5555C6"/>
<path d="M158.133 215.89L119.072 238.439V227.332L158.133 204.783V215.89Z" fill="#4141AA"/>
<path d="M119.071 227.333L80.0178 204.783L119.071 182.227L158.133 204.783L119.071 227.333Z" fill="#7F7FF4"/>
<path d="M123.415 228.666L125.022 227.738V231.17L123.415 232.098V228.666Z" fill="#F48A71"/>
<path d="M114.274 229.189V231.045L93.87 219.26V217.403L114.274 229.189Z" fill="#34318F"/>
<path d="M92.2321 216.46V218.316L89.7751 216.896V215.04L92.2321 216.46Z" fill="#34318F"/>
<path d="M126.715 226.755L128.322 225.827V229.259L126.715 230.187V226.755Z" fill="#F7F7FC"/>
<path d="M130.022 224.852L131.629 223.924V227.356L130.022 228.284V224.852Z" fill="#1E1C6B"/>
<path d="M83.7928 212.514C83.7928 211.765 84.3154 211.461 84.9706 211.835C85.6258 212.209 86.1484 213.122 86.1484 213.871C86.1484 214.62 85.6258 214.924 84.9706 214.549C84.3232 214.175 83.7928 213.262 83.7928 212.514Z" fill="#F48A71"/>
<path d="M119.071 224.938L80.0178 202.389V191.274L119.071 213.824V224.938Z" fill="#5555C6"/>
<path d="M158.133 202.389L119.072 224.938V213.824L158.133 191.274V202.389Z" fill="#4141AA"/>
<path d="M119.071 213.824L80.0178 191.275L119.071 168.726L158.133 191.275L119.071 213.824Z" fill="#7F7FF4"/>
<path d="M123.415 215.158L125.022 214.229V217.661L123.415 218.59V215.158Z" fill="#F7F7FC"/>
<path d="M114.274 215.68V217.536L93.87 205.759V203.902L114.274 215.68Z" fill="#34318F"/>
<path d="M92.2321 202.959V204.815L89.7751 203.395V201.539L92.2321 202.959Z" fill="#34318F"/>
<path d="M126.715 213.254L128.322 212.326V215.758L126.715 216.686V213.254Z" fill="#F48A71"/>
<path d="M130.022 211.351L131.629 210.423V213.855L130.022 214.775V211.351Z" fill="#F7F7FC"/>
<path d="M83.7928 199.013C83.7928 198.264 84.3154 197.96 84.9706 198.334C85.6258 198.708 86.1484 199.621 86.1484 200.37C86.1484 201.119 85.6258 201.423 84.9706 201.048C84.3154 200.674 83.7928 199.761 83.7928 199.013Z" fill="#F3B378"/>
<path style="mix-blend-mode:multiply" d="M534.542 147.151H407.453V203.871H534.542V147.151Z" fill="url(#paint1_linear_1597_2673)"/>
<path style="mix-blend-mode:multiply" d="M347.16 255.357H220.071V312.077H347.16V255.357Z" fill="url(#paint2_linear_1597_2673)"/>
<path style="mix-blend-mode:multiply" d="M440.866 201.258H313.777V257.978H440.866V201.258Z" fill="url(#paint3_linear_1597_2673)"/>
<path d="M358.368 85.3311V175.512C358.368 182.766 363.165 190.027 372.759 195.565C382.352 201.103 394.918 203.872 407.491 203.872C420.064 203.872 432.63 201.103 442.223 195.565C451.817 190.027 456.606 182.774 456.606 175.512V85.3311H358.368Z" fill="url(#paint4_linear_1597_2673)"/>
<path d="M442.223 65.2783L407.491 85.3315H358.368C358.368 92.5853 363.165 99.8469 372.759 105.385C382.352 110.923 394.918 113.691 407.491 113.691C420.064 113.691 432.63 110.923 442.223 105.385C451.817 99.8469 456.606 92.5931 456.606 85.3315C456.606 78.0699 451.809 70.8162 442.216 65.2783H442.223Z" fill="#7F7FF4"/>
<path d="M407.491 56.9707C394.918 56.9707 382.352 59.7396 372.759 65.2775C363.165 70.8153 358.376 78.0691 358.376 85.3307H407.499L425.805 59.0064C419.939 57.6493 413.723 56.9707 407.499 56.9707H407.491Z" fill="#EFEFF3"/>
<path d="M425.797 59.0068L407.491 85.331L442.224 65.2779C437.38 62.4855 431.78 60.3952 425.797 59.0068Z" fill="#FD9009"/>
<path d="M264.661 139.43V229.611C264.661 236.864 269.458 244.126 279.052 249.664C288.646 255.202 301.211 257.971 313.784 257.971C326.358 257.971 338.923 255.202 348.517 249.664C358.111 244.126 362.9 236.872 362.9 229.611V139.43H264.661Z" fill="url(#paint5_linear_1597_2673)"/>
<path d="M313.777 139.429L279.045 119.376C288.638 113.838 301.204 111.069 313.777 111.069C326.35 111.069 338.916 113.838 348.509 119.376C358.103 124.914 362.892 132.168 362.892 139.429C362.892 146.683 358.095 153.945 348.501 159.483C338.908 165.02 326.342 167.789 313.769 167.789C301.196 167.789 288.63 165.02 279.037 159.483C269.443 153.945 264.654 146.691 264.654 139.429H313.777Z" fill="#EFEFF3"/>
<path d="M264.661 139.429C264.661 132.175 269.458 124.914 279.052 119.376L313.784 139.429H264.661Z" fill="#FC780B"/>
<path d="M170.948 193.536V283.717C170.948 290.971 175.744 298.232 185.338 303.77C194.932 309.308 207.497 312.077 220.071 312.077V193.536H170.948Z" fill="url(#paint6_linear_1597_2673)"/>
<path d="M220.07 193.536V312.077C232.644 312.077 245.209 309.308 254.803 303.77C264.396 298.232 269.186 290.979 269.186 283.717V193.536H220.063H220.07Z" fill="url(#paint7_linear_1597_2673)"/>
<path d="M254.803 173.482L220.071 193.536V221.896C232.644 221.896 245.21 219.127 254.803 213.589C264.397 208.051 269.186 200.797 269.186 193.536C269.186 186.282 264.389 179.02 254.796 173.482H254.803Z" fill="#7F7FF4"/>
<path d="M254.803 173.483C245.209 167.945 232.644 165.176 220.07 165.176C207.497 165.176 194.932 167.945 185.338 173.483C175.744 179.02 170.955 186.274 170.955 193.536C170.955 200.79 175.752 208.051 185.346 213.589C194.939 219.127 207.505 221.896 220.078 221.896V193.536L254.811 173.483H254.803Z" fill="#F7F7FC"/>
<path d="M254.803 173.484C245.209 167.946 232.644 165.177 220.07 165.177C215.734 165.177 211.405 165.512 207.193 166.167C207.162 167.345 207.115 168.554 207.06 169.802C207.06 171.292 206.834 174.716 206.358 176.003C205.033 179.552 202.131 182.742 196.039 182.898C193.192 182.968 186.11 180.683 180.51 176.72C180.073 177.064 179.66 177.407 179.254 177.758C176.79 179.872 174.871 182.149 173.498 184.505C173.475 184.544 173.467 184.583 173.443 184.614C171.79 187.5 170.948 190.51 170.948 193.529C170.948 200.783 175.744 208.044 185.338 213.582C194.932 219.12 207.497 221.889 220.07 221.889V193.529L254.803 173.476V173.484Z" fill="#EFEFF3"/>
<path d="M347.079 322.954C345.628 322.119 345.628 320.746 347.079 319.904L386.881 296.926C388.332 296.091 390.703 296.091 392.154 296.926L410.312 307.409C411.762 308.243 411.762 309.616 410.312 310.458L370.509 333.436C369.059 334.271 366.687 334.271 365.237 333.436L347.079 322.954Z" fill="#F7F7FC"/>
<path d="M387.903 303.407L389.604 302.424L387.903 301.441L386.203 302.424L387.903 303.407Z" fill="#D0D4F6"/>
<path d="M385.033 305.06L386.741 304.077L385.033 303.095L383.333 304.077L385.033 305.06Z" fill="#D0D4F6"/>
<path d="M382.171 306.715L383.871 305.732L382.171 304.749L380.463 305.732L382.171 306.715Z" fill="#D0D4F6"/>
<path d="M379.301 308.376L381.001 307.393L379.301 306.41L377.6 307.393L379.301 308.376Z" fill="#D0D4F6"/>
<path d="M376.438 310.029L378.139 309.046L376.438 308.063L374.73 309.046L376.438 310.029Z" fill="#D0D4F6"/>
<path d="M373.568 311.682L375.268 310.7L373.568 309.717L371.868 310.7L373.568 311.682Z" fill="#D0D4F6"/>
<path d="M370.698 313.336L372.406 312.353L370.698 311.37L368.998 312.353L370.698 313.336Z" fill="#D0D4F6"/>
<path d="M367.836 314.998L369.536 314.015L367.836 313.032L366.135 314.015L367.836 314.998Z" fill="#D0D4F6"/>
<path d="M364.964 316.65L366.664 315.667L364.964 314.685L363.264 315.667L364.964 316.65Z" fill="#D0D4F6"/>
<path d="M362.102 318.304L363.802 317.322L362.102 316.339L360.394 317.322L362.102 318.304Z" fill="#D0D4F6"/>
<path d="M359.231 319.958L360.932 318.975L359.231 317.992L357.531 318.975L359.231 319.958Z" fill="#D0D4F6"/>
<path d="M356.361 321.619L358.07 320.636L356.361 319.653L354.661 320.636L356.361 321.619Z" fill="#D0D4F6"/>
<path d="M389.408 305.849L392.473 304.078L390.773 303.096L387.708 304.866L389.408 305.849Z" fill="#D0D4F6"/>
<path d="M390.992 308.103L395.22 305.669L393.52 304.687L389.292 307.12L390.992 308.103Z" fill="#D0D4F6"/>
<path d="M392.7 310.435L398.09 307.323L396.382 306.34L390.992 309.452L392.7 310.435Z" fill="#D0D4F6"/>
<path d="M398.496 311.091L401.561 309.328L399.252 307.994L396.195 309.765L398.496 311.091Z" fill="#D0D4F6"/>
<path d="M394.268 313.532L397.333 311.761L395.025 310.436L391.967 312.198L394.268 313.532Z" fill="#D0D4F6"/>
<path d="M390.048 315.972L393.106 314.202L390.805 312.876L387.74 314.639L390.048 315.972Z" fill="#D0D4F6"/>
<path d="M375.479 324.382L378.536 322.619L376.235 321.285L373.17 323.056L375.479 324.382Z" fill="#D0D4F6"/>
<path d="M368.319 328.515L374.317 325.052L372.016 323.718L366.01 327.189L368.319 328.515Z" fill="#D0D4F6"/>
<path d="M379.698 321.947L388.879 316.643L386.578 315.31L377.39 320.613L379.698 321.947Z" fill="#D0D4F6"/>
<path d="M385.743 307.963L388.247 306.52L386.546 305.537L384.042 306.98L385.743 307.963Z" fill="#D0D4F6"/>
<path d="M387.326 310.225L389.829 308.782L388.129 307.799L385.625 309.242L387.326 310.225Z" fill="#D0D4F6"/>
<path d="M388.948 312.51L391.452 311.059L389.751 310.076L387.248 311.527L388.948 312.51Z" fill="#D0D4F6"/>
<path d="M385.283 314.623L387.787 313.18L386.086 312.197L383.575 313.64L385.283 314.623Z" fill="#D0D4F6"/>
<path d="M381.608 316.745L384.112 315.302L382.412 314.312L379.908 315.762L381.608 316.745Z" fill="#D0D4F6"/>
<path d="M377.943 318.866L380.447 317.415L378.746 316.433L376.243 317.883L377.943 318.866Z" fill="#D0D4F6"/>
<path d="M374.27 320.98L376.774 319.537L375.074 318.555L372.57 319.998L374.27 320.98Z" fill="#D0D4F6"/>
<path d="M370.603 323.102L373.107 321.652L371.407 320.669L368.903 322.12L370.603 323.102Z" fill="#D0D4F6"/>
<path d="M364.769 326.472L369.441 323.773L367.733 322.79L363.068 325.489L364.769 326.472Z" fill="#D0D4F6"/>
<path d="M383.653 312.346L386.164 310.895L384.456 309.912L381.952 311.363L383.653 312.346Z" fill="#D0D4F6"/>
<path d="M379.986 314.46L382.49 313.017L380.789 312.034L378.286 313.477L379.986 314.46Z" fill="#D0D4F6"/>
<path d="M376.321 316.581L378.825 315.13L377.116 314.147L374.613 315.598L376.321 316.581Z" fill="#D0D4F6"/>
<path d="M372.648 318.694L375.151 317.251L373.451 316.269L370.947 317.712L372.648 318.694Z" fill="#D0D4F6"/>
<path d="M368.981 320.816L371.485 319.373L369.777 318.391L367.273 319.834L368.981 320.816Z" fill="#D0D4F6"/>
<path d="M361.976 324.857L367.811 321.488L366.11 320.505L360.276 323.874L361.976 324.857Z" fill="#D0D4F6"/>
<path d="M382.07 310.084L384.581 308.641L382.873 307.658L380.37 309.101L382.07 310.084Z" fill="#D0D4F6"/>
<path d="M378.403 312.205L380.907 310.754L379.206 309.771L376.703 311.222L378.403 312.205Z" fill="#D0D4F6"/>
<path d="M374.738 314.319L377.242 312.876L375.534 311.894L373.03 313.337L374.738 314.319Z" fill="#D0D4F6"/>
<path d="M371.063 316.441L373.567 314.991L371.867 314.008L369.363 315.459L371.063 316.441Z" fill="#D0D4F6"/>
<path d="M367.398 318.555L369.902 317.112L368.202 316.129L365.69 317.572L367.398 318.555Z" fill="#D0D4F6"/>
<path d="M363.724 320.676L366.227 319.233L364.527 318.25L362.023 319.693L363.724 320.676Z" fill="#D0D4F6"/>
<path d="M359.231 323.274L362.562 321.347L360.861 320.364L357.531 322.291L359.231 323.274Z" fill="#D0D4F6"/>
<path d="M410.32 310.458L370.518 333.437C369.067 334.271 366.696 334.271 365.245 333.437L347.087 322.954C346.362 322.532 346.003 321.987 345.995 321.433V322.587C345.995 323.141 346.354 323.695 347.079 324.116L365.237 334.599C366.688 335.433 369.059 335.433 370.51 334.599L410.312 311.621C411.053 311.192 411.412 310.63 411.396 310.068V308.938C411.396 309.491 411.03 310.045 410.304 310.458H410.32Z" fill="#BDC1E4"/>
<path d="M344.443 283.736C344.443 282.059 345.628 280.007 347.079 279.165L386.881 256.187C388.332 255.352 389.518 256.031 389.518 257.708V292.354C389.518 294.031 388.332 296.083 386.881 296.925L347.079 319.903C345.628 320.738 344.443 320.059 344.443 318.382V283.736Z" fill="url(#paint8_linear_1597_2673)"/>
<path style="mix-blend-mode:screen" d="M347.08 319.904L386.882 296.926C388.333 296.091 389.518 294.032 389.518 292.355V260.384C385.954 262.443 387.49 271.654 384.784 273.222C382.881 274.322 382.436 269.346 379.651 270.952C376.719 272.645 375.549 286.568 372.25 288.471C369.613 289.992 369.247 285.632 366.618 287.145C363.1 289.173 363.163 298.727 359.715 300.716C356.127 302.791 353.343 289.259 349.958 291.208C348.062 292.308 345.863 299.328 344.428 303.181V318.391C344.428 320.068 345.613 320.754 347.064 319.912L347.08 319.904Z" fill="url(#paint9_linear_1597_2673)"/>
<g style="mix-blend-mode:screen">
<path d="M367.063 305.974L366.189 306.481V287.403L367.063 286.896V305.974Z" fill="#FFAD02"/>
</g>
<path d="M365.394 287.862C365.394 287.075 365.948 286.115 366.627 285.725C367.305 285.335 367.859 285.647 367.859 286.435C367.859 287.223 367.305 288.182 366.627 288.572C365.948 288.962 365.394 288.65 365.394 287.862Z" fill="white"/>
<path d="M353.57 279.89L348.625 282.745V280.826L353.57 277.972V279.89Z" fill="#4141AA"/>
<path d="M353.102 282.644L348.625 285.226V284.002L353.102 281.412V282.644Z" fill="#4141AA"/>
<path d="M344.443 318.383V283.736C344.443 282.059 345.629 280.008 347.08 279.166L386.882 256.187C387.6 255.774 388.255 255.735 388.731 256L387.35 255.205C386.866 254.9 386.188 254.924 385.439 255.353L345.637 278.331C344.186 279.166 343 281.225 343 282.902V317.548C343 318.422 343.328 319.03 343.843 319.288L345.161 320.044C344.724 319.756 344.451 319.186 344.451 318.383H344.443Z" fill="url(#paint10_linear_1597_2673)"/>
<path opacity="0.7" d="M371.604 194.676C371.604 196.415 370.372 198.544 368.866 199.418L324.353 225.118C322.848 225.992 321.615 225.274 321.615 223.535V183.147C321.615 181.408 322.848 179.279 324.353 178.405L368.866 152.705C370.372 151.839 371.604 152.549 371.604 154.288V194.676Z" fill="white"/>
<g style="mix-blend-mode:multiply">
<path d="M328.517 196.89L326.45 198.091V195.696L328.517 194.503V196.89Z" fill="#EAEEF9"/>
<path d="M332.846 194.395L330.779 195.588V193.201L332.846 192.008V194.395Z" fill="#EAEEF9"/>
<path d="M337.174 191.898L335.1 193.092V190.705L337.174 189.512V191.898Z" fill="#EAEEF9"/>
<path d="M341.496 189.402L339.429 190.596V188.201L341.496 187.008V189.402Z" fill="#EAEEF9"/>
<path d="M345.824 186.898L343.757 188.092V185.705L345.824 184.512V186.898Z" fill="#BDC1E4"/>
<path d="M350.154 184.402L348.087 185.596V183.209L350.154 182.016V184.402Z" fill="#FFAD02"/>
<path d="M354.482 181.906L352.415 183.1V180.705L354.482 179.512V181.906Z" fill="#FFAD02"/>
<path d="M328.517 201.889L326.45 203.082V200.695L328.517 199.502V201.889Z" fill="#BDC1E4"/>
<path d="M332.846 199.394L330.779 200.587V198.2L332.846 197.007V199.394Z" fill="#7F7FF4"/>
<path d="M337.174 196.89L335.1 198.091V195.696L337.174 194.503V196.89Z" fill="#BDC1E4"/>
<path d="M341.496 194.395L339.429 195.588V193.201L341.496 192.008V194.395Z" fill="#BDC1E4"/>
<path d="M345.824 191.898L343.757 193.092V190.705L345.824 189.512V191.898Z" fill="#BDC1E4"/>
<path d="M350.154 189.402L348.087 190.596V188.201L350.154 187.008V189.402Z" fill="#FFAD02"/>
<path d="M354.482 186.898L352.415 188.092V185.705L354.482 184.512V186.898Z" fill="#FFAD02"/>
<path d="M328.517 206.889L326.45 208.082V205.695L328.517 204.494V206.889Z" fill="#BDC1E4"/>
<path d="M332.846 204.385L330.779 205.586V203.191L332.846 201.998V204.385Z" fill="#BDC1E4"/>
<path d="M337.174 201.889L335.1 203.082V200.695L337.174 199.502V201.889Z" fill="#BDC1E4"/>
<path d="M341.496 199.394L339.429 200.587V198.2L341.496 197.007V199.394Z" fill="#BDC1E4"/>
<path d="M345.824 196.89L343.757 198.091V195.696L345.824 194.503V196.89Z" fill="#7F7FF4"/>
<path d="M350.154 194.395L348.087 195.588V193.201L350.154 192.008V194.395Z" fill="#FFAD02"/>
<path d="M354.482 191.898L352.415 193.092V190.705L354.482 189.512V191.898Z" fill="#FFAD02"/>
<path d="M328.517 211.881L326.45 213.074V210.688L328.517 209.494V211.881Z" fill="#BDC1E4"/>
<path d="M332.846 209.385L330.779 210.578V208.191L332.846 206.998V209.385Z" fill="#BDC1E4"/>
<path d="M337.174 206.889L335.1 208.082V205.695L337.174 204.494V206.889Z" fill="#BDC1E4"/>
<path d="M341.496 204.385L339.429 205.586V203.191L341.496 201.998V204.385Z" fill="#BDC1E4"/>
<path d="M345.824 201.889L343.757 203.082V200.695L345.824 199.502V201.889Z" fill="#BDC1E4"/>
<path d="M350.154 199.394L348.087 200.587V198.2L350.154 197.007V199.394Z" fill="#F48A71"/>
<path d="M354.482 196.89L352.415 198.091V195.696L354.482 194.503V196.89Z" fill="#FFAD02"/>
<path d="M328.517 216.88L326.45 218.073V215.687L328.517 214.493V216.88Z" fill="#7F7FF4"/>
<path d="M332.846 214.384L330.779 215.577V213.19L332.846 211.989V214.384Z" fill="#BDC1E4"/>
<path d="M337.174 211.881L335.1 213.074V210.688L337.174 209.494V211.881Z" fill="#BDC1E4"/>
<path d="M341.496 209.385L339.429 210.578V208.191L341.496 206.998V209.385Z" fill="#BDC1E4"/>
<path d="M345.824 206.889L343.757 208.082V205.695L345.824 204.494V206.889Z" fill="#EAEEF9"/>
<path d="M350.154 204.385L348.087 205.586V203.191L350.154 201.998V204.385Z" fill="#EAEEF9"/>
<path d="M354.482 201.889L352.415 203.082V200.695L354.482 199.502V201.889Z" fill="#EAEEF9"/>
</g>
<path d="M337.175 184.099L326.45 190.292V193.31L337.175 187.117V184.099Z" fill="#BDC1E4"/>
<path d="M335.1 178.857L326.45 183.857V189.122L335.1 184.122V178.857Z" fill="#BDC1E4"/>
<g style="mix-blend-mode:multiply">
<path d="M366.028 168.405C366.269 168.779 366.41 169.286 366.41 169.91C366.41 171.892 365.021 174.302 363.298 175.3C361.582 176.291 360.186 175.487 360.186 173.506C360.186 171.525 361.574 169.115 363.298 168.116V165.886C360.513 167.492 358.251 171.408 358.251 174.621C358.251 177.835 360.513 179.145 363.298 177.531C366.082 175.924 368.344 172.009 368.344 168.795C368.344 167.781 368.118 166.962 367.728 166.354L366.028 168.405Z" fill="#7F7FF4"/>
<path d="M366.028 168.406L367.728 166.354C366.87 165.044 365.209 164.779 363.306 165.879V168.109C364.484 167.431 365.505 167.594 366.036 168.398L366.028 168.406Z" fill="#4141AA"/>
</g>
<path d="M626.88 285H570.94H515V387.707H626.88V285Z" fill="url(#paint11_linear_1597_2673)"/>
<path d="M604.229 262.341C594.37 258.114 582.655 256 570.94 256C556.627 256 542.307 259.151 531.387 265.461C520.467 271.771 515 280.031 515 288.299C515 296.567 520.46 304.827 531.387 311.137C542.307 317.447 556.627 320.598 570.94 320.598C583.942 320.598 596.928 317.985 607.396 312.79L570.94 288.307L604.229 262.349V262.341Z" fill="white"/>
<path d="M626.881 288.298C626.881 280.031 621.421 271.771 610.494 265.461C608.513 264.314 606.415 263.277 604.231 262.341L570.941 288.298L607.397 312.782C608.458 312.259 609.495 311.713 610.502 311.136C621.421 304.826 626.889 296.566 626.889 288.298H626.881Z" fill="#EAEEF9"/>
<path style="mix-blend-mode:multiply" d="M469.975 251.56H439.502L458.845 262.721L439.502 273.89H469.975L489.311 262.721L469.975 251.56Z" fill="url(#paint12_linear_1597_2673)"/>
<path d="M439.499 273.89L458.843 262.72V240.397L439.499 251.559V273.89Z" fill="#BBC0E6"/>
<path d="M439.5 273.89L420.165 262.72V240.397L439.5 251.559V273.89Z" fill="#CED3F8"/>
<path d="M439.5 251.559L420.165 240.398L439.5 229.236L458.844 240.398L439.5 251.559Z" fill="#F1F1F6"/>
<path style="mix-blend-mode:multiply" d="M449.828 235.188H435.625L444.641 240.398L435.625 245.6H449.828L458.845 240.398L449.828 235.188Z" fill="url(#paint13_linear_1597_2673)"/>
<path d="M435.625 245.601L444.642 240.398V229.985L435.625 235.188V245.601Z" fill="#BDC1E4"/>
<path d="M435.625 245.601L426.608 240.398V229.985L435.625 235.188V245.601Z" fill="#D0D4F6"/>
<path d="M435.625 235.188L426.608 229.986L435.625 224.775L444.641 229.986L435.625 235.188Z" fill="#F2F2F7"/>
<path style="mix-blend-mode:multiply" d="M470.715 291.923H456.512L465.528 297.133L456.512 302.336H470.715L479.732 297.133L470.715 291.923Z" fill="url(#paint14_linear_1597_2673)"/>
<path d="M456.514 302.336L465.53 297.133V286.721L456.514 291.923V302.336Z" fill="#BDC1E4"/>
<path d="M456.513 302.336L447.497 297.133V286.721L456.513 291.923V302.336Z" fill="#D0D4F6"/>
<path d="M456.513 291.923L447.497 286.721L456.513 281.519L465.53 286.721L456.513 291.923Z" fill="#F2F2F7"/>
<path style="mix-blend-mode:multiply" d="M222.8 364.913H212.669L219.096 368.626L212.669 372.338H222.8L229.22 368.626L222.8 364.913Z" fill="url(#paint15_linear_1597_2673)"/>
<path d="M212.669 372.337L219.096 368.625V361.207L212.669 364.912V372.337Z" fill="#EF4E16"/>
<path d="M212.668 372.337L206.249 368.625V361.207L212.668 364.912V372.337Z" fill="#FC780B"/>
<path d="M212.668 364.912L206.249 361.207L212.668 357.494L219.095 361.207L212.668 364.912Z" fill="white"/>
<path style="mix-blend-mode:multiply" d="M514.371 164.584H499.801L509.051 169.927L499.801 175.262H514.371L523.621 169.927L514.371 164.584Z" fill="url(#paint16_linear_1597_2673)"/>
<path d="M499.8 175.262L509.051 169.927V159.249L499.8 164.584V175.262Z" fill="#5555C6"/>
<path d="M499.801 175.262L490.55 169.927V159.249L499.801 164.584V175.262Z" fill="#7F7FF4"/>
<path d="M499.801 164.584L490.55 159.249L499.801 153.906L509.051 159.249L499.801 164.584Z" fill="white"/>
<path d="M494.1 3.24546L489.568 5.85838C486.924 7.38713 483.281 -0.950822 480.325 0.757328L472.393 5.33579C466.473 8.75209 468.61 -1.19261 459.765 3.91624C449.368 9.92206 450.218 21.9727 444.298 25.389L436.366 29.9675C433.41 31.6756 432.599 38.75 429.954 40.2788L425.423 42.8917C424.44 43.4611 422.552 45.0366 422.552 47.0958C423.894 46.3158 459.765 25.6152 459.765 25.6152C459.765 25.6152 495.629 4.90681 496.978 4.13463C496.978 2.07549 495.098 2.67607 494.108 3.24546H494.1Z" fill="#EAEEF9"/>
<path style="mix-blend-mode:multiply" d="M143.451 310.261C143.225 309.871 142.96 309.497 142.64 309.123C141.54 308.031 144.075 306.198 145.222 305.542C145.245 305.542 141.883 303.6 141.883 303.6H132.009C131.346 302.766 131.174 301.619 131.182 301.034H126.448C126.448 301.806 126.128 303.53 124.825 304.287C124.552 304.443 124.232 304.56 123.866 304.614C123.195 304.747 122.532 304.903 121.892 305.09C121.853 305.09 121.83 305.09 121.807 305.074C121.167 304.887 120.512 304.731 119.841 304.599C117.727 304.279 117.291 301.955 117.298 301.019H112.564C112.564 301.791 112.252 303.514 110.942 304.271C110.669 304.427 110.349 304.544 109.982 304.599C109.311 304.731 108.648 304.887 108.009 305.074C105.825 305.542 102.97 304.255 101.831 303.592L98.4698 305.535C99.6085 306.198 102.12 308.023 101.012 309.115C100.693 309.489 100.42 309.863 100.194 310.253C100.1 310.464 99.8971 310.651 99.6241 310.807C98.3138 311.564 95.3342 311.735 94.0005 311.735V314.481C95.5994 314.481 99.6241 314.738 100.162 315.963C100.388 316.353 100.654 316.727 100.973 317.102C102.073 318.194 99.5383 320.019 98.3918 320.682L101.73 322.624C101.847 322.554 101.987 322.476 102.143 322.398L101.753 322.624H111.62C112.268 323.474 112.431 324.605 112.431 325.198L131.042 325.213L135.682 322.64H141.774L145.136 320.705C143.997 320.042 141.478 318.217 142.593 317.125C142.788 316.899 142.96 316.665 143.123 316.439H146.243L149.597 314.504L149.613 311.767C147.881 311.837 143.981 311.509 143.443 310.277L143.451 310.261Z" fill="url(#paint17_linear_1597_2673)"/>
<path d="M101.301 300.48C101.301 299.411 99.4213 298.077 98.4854 297.531L98.5087 305.534C99.4447 306.08 101.324 307.421 101.324 308.482L101.301 300.48Z" fill="#F7F7FC"/>
<path d="M131.369 305.526L131.346 297.523C130.394 298.069 128.491 299.419 128.491 300.487L128.514 308.49C128.514 307.421 130.417 306.072 131.369 305.526Z" fill="#BDC1E4"/>
<path d="M108.976 309.668C112.268 307.765 117.571 307.765 120.84 309.668C122.462 310.612 123.273 311.844 123.281 313.084L123.257 305.082C123.257 303.85 122.438 302.609 120.816 301.666C117.548 299.77 112.236 299.77 108.953 301.666C107.299 302.617 106.472 303.873 106.48 305.121L106.504 313.124C106.504 311.876 107.33 310.62 108.976 309.668Z" fill="url(#paint18_linear_1597_2673)"/>
<path d="M101.738 314.621L98.3993 312.687L98.4227 320.681L101.761 322.623L101.738 314.621Z" fill="#D0D4F6"/>
<path d="M131.283 320.681L131.26 312.687L127.898 314.621L127.922 322.623L131.283 320.681Z" fill="#BDC1E4"/>
<path d="M107.954 321.142C108.594 321.329 109.249 321.485 109.92 321.617C112.01 321.929 112.455 324.207 112.462 325.166L112.439 317.164C112.439 316.204 111.987 313.935 109.896 313.615C109.226 313.482 108.57 313.326 107.931 313.147C106.051 312.507 102.884 313.966 101.738 314.629L101.761 322.631C102.908 321.968 106.074 320.51 107.954 321.149V321.142Z" fill="url(#paint19_linear_1597_2673)"/>
<path d="M118.827 321.937C119.092 321.781 119.412 321.664 119.779 321.61C120.45 321.477 121.105 321.321 121.744 321.142C123.632 320.502 126.783 321.961 127.922 322.624L127.898 314.621C126.76 313.958 123.609 312.499 121.721 313.139C121.081 313.318 120.426 313.482 119.755 313.607C119.389 313.662 119.077 313.779 118.804 313.935C117.517 314.676 117.244 316.384 117.166 317.195L117.189 325.197C117.259 324.386 117.532 322.686 118.827 321.937Z" fill="url(#paint20_linear_1597_2673)"/>
<path d="M100.981 309.099C102.081 310.191 99.5459 312.016 98.3993 312.679L101.738 314.621C102.884 313.958 106.051 312.499 107.931 313.139C108.57 313.326 109.225 313.482 109.896 313.607C112.01 313.927 112.447 316.251 112.439 317.187H117.173C117.244 316.376 117.517 314.676 118.811 313.927C119.084 313.771 119.396 313.654 119.763 313.599C120.434 313.467 121.089 313.311 121.728 313.131C123.616 312.492 126.767 313.95 127.906 314.613L131.268 312.671C130.129 312.008 127.609 310.183 128.725 309.091C129.045 308.717 129.318 308.342 129.544 307.952C129.637 307.742 129.84 307.554 130.113 307.398C131.416 306.642 134.403 306.47 135.729 306.47L135.745 303.725C134.013 303.795 130.113 303.467 129.575 302.235C129.349 301.845 129.084 301.471 128.764 301.096C127.664 300.004 130.199 298.179 131.346 297.516L128.007 295.574C126.861 296.237 123.694 297.695 121.814 297.056C121.175 296.869 120.519 296.713 119.849 296.58C117.735 296.26 117.298 293.936 117.306 293H112.572C112.572 293.772 112.26 295.496 110.949 296.253C110.676 296.409 110.356 296.525 109.99 296.58C109.319 296.713 108.656 296.869 108.016 297.056C105.833 297.524 102.978 296.237 101.839 295.574L98.4773 297.516C99.6161 298.179 102.128 300.004 101.02 301.096C100.7 301.471 100.427 301.845 100.201 302.235C100.107 302.446 99.9047 302.633 99.6317 302.789C98.3213 303.545 95.3418 303.717 94.0081 303.717V306.462C95.607 306.462 99.6317 306.72 100.17 307.944C100.396 308.334 100.661 308.709 100.981 309.083V309.099ZM108.96 301.673C112.252 299.778 117.556 299.778 120.824 301.673C124.092 303.569 124.076 306.65 120.785 308.545C117.501 310.44 112.189 310.44 108.921 308.545C105.653 306.642 105.669 303.569 108.96 301.673Z" fill="white"/>
<path d="M98.3996 312.686C99.5461 312.023 102.081 310.198 100.981 309.106C100.661 308.732 100.396 308.357 100.17 307.967C99.6319 306.743 95.6072 306.485 94.0005 306.485L94.0239 314.488C95.0301 314.488 96.9566 314.589 98.4074 314.956V312.694L98.3996 312.686Z" fill="#D0D4F6"/>
<path d="M117.189 325.189L117.166 317.194H112.431L112.455 325.197L117.189 325.189Z" fill="#BDC1E4"/>
<path d="M135.753 314.481L135.729 306.479C134.396 306.479 131.416 306.658 130.114 307.407C129.841 307.563 129.638 307.75 129.544 307.96C129.318 308.35 129.037 308.725 128.725 309.099C127.61 310.191 130.129 312.016 131.268 312.679V314.98C132.734 314.582 134.731 314.473 135.761 314.473L135.753 314.481Z" fill="url(#paint21_linear_1597_2673)"/>
<path style="mix-blend-mode:multiply" d="M293.903 87.3117C293.903 89.8623 292.094 92.99 289.894 94.2613L219.712 134.781C217.505 136.052 215.703 135.015 215.703 132.465V73.2643C215.703 70.7138 217.505 67.5861 219.712 66.3148L289.894 25.7949C292.102 24.5236 293.903 25.561 293.903 28.1115V87.3117Z" fill="url(#paint22_linear_1597_2673)"/>
<path d="M224.126 121.045L222.995 121.693V99.7128L224.126 99.0654V121.045Z" fill="#FFAD02"/>
<path d="M228.557 108.582L227.426 109.237V90.6269L228.557 89.9795V108.582Z" fill="#FC780B"/>
<path d="M232.418 111.031L231.287 111.686V93.622L232.418 92.9668V111.031Z" fill="#FFAD02"/>
<path d="M237.417 116.529L236.278 117.177V104.611L237.409 103.956L237.417 116.529Z" fill="#EF4E16"/>
<path d="M241.839 109.4L240.708 110.048V89.0507L241.839 88.3955V109.4Z" fill="#FFAD02"/>
<path d="M246.27 100.751L245.139 101.399V79.9648L246.27 79.3096V100.751Z" fill="#FC780B"/>
<path d="M250.7 93.6222L249.569 94.2774V70.4413L250.7 69.7939V93.6222Z" fill="#FFAD02"/>
<path d="M255.13 106.296L253.999 106.951V73.9814L255.13 73.3262V106.296Z" fill="#EF4E16"/>
<path d="M275.519 66.1348C269.536 69.5901 264.685 77.9904 264.685 84.901C264.685 91.8116 269.536 94.6117 275.519 91.1564C281.501 87.7011 286.353 79.3008 286.353 72.3902L275.519 78.6456V66.1348Z" fill="#6A6AE2"/>
<path d="M275.519 66.1355V78.6463L286.353 72.3909C286.353 65.4803 281.502 62.6802 275.519 66.1355Z" fill="#7F7FF4"/>
<g style="mix-blend-mode:screen">
<path d="M223.556 93.3019C222.449 93.9415 221.552 93.4189 221.552 92.1475C221.552 90.8762 222.449 89.3162 223.556 88.6766C224.664 88.037 225.561 88.5596 225.561 89.831C225.561 91.1023 224.664 92.6623 223.556 93.3019ZM223.556 89.4488C222.823 89.87 222.23 90.9074 222.23 91.7497C222.23 92.5921 222.823 92.9431 223.556 92.5141C224.289 92.0929 224.882 91.0556 224.882 90.2132C224.882 89.3708 224.289 89.0198 223.556 89.4488Z" fill="#FFAD02"/>
<path d="M231.855 76.9611C230.747 77.6006 229.85 77.0781 229.85 75.8067C229.85 74.5353 230.747 72.9754 231.855 72.3358C232.963 71.6962 233.86 72.2188 233.86 73.4902C233.86 74.7615 232.963 76.3215 231.855 76.9611ZM231.855 73.108C231.122 73.5292 230.529 74.5665 230.529 75.4089C230.529 76.2513 231.122 76.6023 231.855 76.1733C232.588 75.7521 233.181 74.7147 233.181 73.8723C233.181 73.03 232.588 72.679 231.855 73.108Z" fill="#FFAD02"/>
<path d="M241.277 79.5509C240.17 80.1905 239.273 79.6679 239.273 78.3965C239.273 77.1252 240.17 75.5652 241.277 74.9256C242.385 74.2861 243.282 74.8086 243.282 76.08C243.282 77.3514 242.385 78.9113 241.277 79.5509ZM241.277 75.6978C240.544 76.119 239.951 77.1564 239.951 77.9988C239.951 78.8411 240.544 79.1921 241.277 78.7631C242.01 78.3419 242.603 77.3046 242.603 76.4622C242.603 75.6198 242.01 75.2688 241.277 75.6978Z" fill="#FFAD02"/>
<path d="M250.138 60.2853C249.03 60.9249 248.133 60.4023 248.133 59.1309C248.133 57.8596 249.03 56.2996 250.138 55.66C251.246 55.0204 252.142 55.543 252.142 56.8144C252.142 58.0857 251.246 59.6457 250.138 60.2853ZM250.138 56.44C249.405 56.8612 248.812 57.8986 248.812 58.7409C248.812 59.5833 249.405 59.9343 250.138 59.5053C250.871 59.0841 251.464 58.0467 251.464 57.2044C251.464 56.362 250.871 56.011 250.138 56.44Z" fill="#FFAD02"/>
<path d="M260.254 68.4513C259.146 69.0909 258.25 68.5683 258.25 67.2969C258.25 66.0256 259.146 64.4656 260.254 63.826C261.362 63.1865 262.259 63.709 262.259 64.9804C262.259 66.2518 261.362 67.8117 260.254 68.4513ZM260.254 64.5982C259.521 65.0194 258.928 66.0568 258.928 66.8991C258.928 67.7415 259.521 68.0925 260.254 67.6635C260.987 67.2423 261.58 66.205 261.58 65.3626C261.58 64.5202 260.987 64.1692 260.254 64.5982Z" fill="#FFAD02"/>
<path d="M267.375 55.1144C266.268 55.754 265.371 55.2314 265.371 53.96C265.371 52.6887 266.268 51.1287 267.375 50.4891C268.483 49.8495 269.38 50.3721 269.38 51.6435C269.38 52.9149 268.483 54.4748 267.375 55.1144ZM267.375 51.2613C266.642 51.6825 266.049 52.7199 266.049 53.5622C266.049 54.4046 266.642 54.7556 267.375 54.3266C268.108 53.9054 268.701 52.8681 268.701 52.0257C268.701 51.1833 268.108 50.8323 267.375 51.2613Z" fill="#FFAD02"/>
<path d="M265.935 54.6978L261.031 63.8926L261.719 64.2596L266.623 55.0648L265.935 54.6978Z" fill="#FFAD02"/>
<path d="M251.442 58.5355L250.953 59.1426L258.942 65.5869L259.432 64.9798L251.442 58.5355Z" fill="#FFAD02"/>
<path d="M248.79 59.9212L241.881 74.9355L242.59 75.2616L249.499 60.2473L248.79 59.9212Z" fill="#FFAD02"/>
<path d="M233.3 74.6502L233.093 75.4023L239.84 77.2556L240.046 76.5035L233.3 74.6502Z" fill="#FFAD02"/>
<path d="M230.45 76.5695L224.288 88.7314L224.983 89.084L231.146 76.922L230.45 76.5695Z" fill="#FFAD02"/>
</g>
<path d="M289.769 34.8653L281.884 39.4126V37.0727L289.769 32.5254V34.8653Z" fill="#34318F"/>
<path d="M289.769 39.2569L285.159 41.9166V39.5767L289.769 36.917V39.2569Z" fill="#34318F"/>
<path d="M147.055 76.7686H37.0078V196.69H147.055V76.7686Z" fill="url(#paint23_linear_1597_2673)"/>
<path d="M92.0274 108.537C122.418 108.537 147.055 94.3137 147.055 76.7685C147.055 59.2232 122.418 45 92.0274 45C61.6366 45 37 59.2232 37 76.7685C37 94.3137 61.6366 108.537 92.0274 108.537Z" fill="#F7F7FC"/>
<defs>
<linearGradient id="paint0_linear_1597_2673" x1="119.071" y1="242.902" x2="224.158" y2="242.902" gradientUnits="userSpaceOnUse">
<stop stop-color="#C6CBE7"/>
<stop offset="0.2" stop-color="#D6D9ED"/>
<stop offset="0.74" stop-color="white"/>
</linearGradient>
<linearGradient id="paint1_linear_1597_2673" x1="407.453" y1="175.511" x2="534.542" y2="175.511" gradientUnits="userSpaceOnUse">
<stop stop-color="#C6CBE7"/>
<stop offset="0.26" stop-color="#D6D9ED"/>
<stop offset="0.95" stop-color="white"/>
</linearGradient>
<linearGradient id="paint2_linear_1597_2673" x1="220.071" y1="283.717" x2="347.16" y2="283.717" gradientUnits="userSpaceOnUse">
<stop stop-color="#C6CBE7"/>
<stop offset="0.26" stop-color="#D6D9ED"/>
<stop offset="0.95" stop-color="white"/>
</linearGradient>
<linearGradient id="paint3_linear_1597_2673" x1="313.777" y1="229.618" x2="440.874" y2="229.618" gradientUnits="userSpaceOnUse">
<stop stop-color="#C6CBE7"/>
<stop offset="0.26" stop-color="#D6D9ED"/>
<stop offset="0.95" stop-color="white"/>
</linearGradient>
<linearGradient id="paint4_linear_1597_2673" x1="358.368" y1="144.602" x2="456.606" y2="144.602" gradientUnits="userSpaceOnUse">
<stop stop-color="#6A6AE2"/>
<stop offset="0.4" stop-color="#5B5BCE"/>
<stop offset="1" stop-color="#4141AA"/>
</linearGradient>
<linearGradient id="paint5_linear_1597_2673" x1="264.661" y1="198.7" x2="362.9" y2="198.7" gradientUnits="userSpaceOnUse">
<stop stop-color="#D0D4F6"/>
<stop offset="1" stop-color="#A7ADCE"/>
</linearGradient>
<linearGradient id="paint6_linear_1597_2673" x1="171.4" y1="252.807" x2="268.671" y2="252.807" gradientUnits="userSpaceOnUse">
<stop stop-color="#D0D4F6"/>
<stop offset="0.34" stop-color="#C1C5E7"/>
<stop offset="1" stop-color="#A7ADCE"/>
</linearGradient>
<linearGradient id="paint7_linear_1597_2673" x1="171.4" y1="252.807" x2="268.671" y2="252.807" gradientUnits="userSpaceOnUse">
<stop stop-color="#6A6AE2"/>
<stop offset="0.25" stop-color="#6464DA"/>
<stop offset="0.6" stop-color="#5656C7"/>
<stop offset="1" stop-color="#4141AA"/>
</linearGradient>
<linearGradient id="paint8_linear_1597_2673" x1="389.658" y1="295.014" x2="343.834" y2="280.928" gradientUnits="userSpaceOnUse">
<stop stop-color="#34318F"/>
<stop offset="1" stop-color="#6A6AE2"/>
</linearGradient>
<linearGradient id="paint9_linear_1597_2673" x1="509.857" y1="225.929" x2="494.694" y2="199.667" gradientUnits="userSpaceOnUse">
<stop/>
<stop offset="0.29" stop-color="#512603"/>
<stop offset="0.64" stop-color="#AC5207"/>
<stop offset="0.88" stop-color="#E56D0A"/>
<stop offset="1" stop-color="#FC780B"/>
</linearGradient>
<linearGradient id="paint10_linear_1597_2673" x1="338.508" y1="316.207" x2="377.132" y2="249.3" gradientUnits="userSpaceOnUse">
<stop offset="0.4" stop-color="#34318F"/>
<stop offset="0.48" stop-color="#4141AA"/>
</linearGradient>
<linearGradient id="paint11_linear_1597_2673" x1="570.94" y1="387.707" x2="570.94" y2="285" gradientUnits="userSpaceOnUse">
<stop stop-color="white"/>
<stop offset="0.86" stop-color="#E1E5F5"/>
<stop offset="1" stop-color="#DCE1F4"/>
</linearGradient>
<linearGradient id="paint12_linear_1597_2673" x1="439.502" y1="262.721" x2="489.311" y2="262.721" gradientUnits="userSpaceOnUse">
<stop stop-color="#C4C9E4"/>
<stop offset="0.19" stop-color="#D6DAEC"/>
<stop offset="0.48" stop-color="#ECEEF6"/>
<stop offset="0.75" stop-color="#FAFAFC"/>
<stop offset="1" stop-color="white"/>
</linearGradient>
<linearGradient id="paint13_linear_1597_2673" x1="435.625" y1="240.398" x2="458.845" y2="240.398" gradientUnits="userSpaceOnUse">
<stop stop-color="#C6CBE7"/>
<stop offset="0.17" stop-color="#D6DAED"/>
<stop offset="0.47" stop-color="#ECEEF7"/>
<stop offset="0.75" stop-color="#FAFAFD"/>
<stop offset="1" stop-color="white"/>
</linearGradient>
<linearGradient id="paint14_linear_1597_2673" x1="456.512" y1="297.133" x2="479.732" y2="297.133" gradientUnits="userSpaceOnUse">
<stop stop-color="#C6CBE7"/>
<stop offset="0.17" stop-color="#D6DAED"/>
<stop offset="0.47" stop-color="#ECEEF7"/>
<stop offset="0.75" stop-color="#FAFAFD"/>
<stop offset="1" stop-color="white"/>
</linearGradient>
<linearGradient id="paint15_linear_1597_2673" x1="212.669" y1="368.626" x2="229.22" y2="368.626" gradientUnits="userSpaceOnUse">
<stop stop-color="#C6CBE7"/>
<stop offset="0.17" stop-color="#D6DAED"/>
<stop offset="0.47" stop-color="#ECEEF7"/>
<stop offset="0.75" stop-color="#FAFAFD"/>
<stop offset="1" stop-color="white"/>
</linearGradient>
<linearGradient id="paint16_linear_1597_2673" x1="499.801" y1="169.927" x2="523.621" y2="169.927" gradientUnits="userSpaceOnUse">
<stop stop-color="#C6CBE7"/>
<stop offset="0.17" stop-color="#D6DAED"/>
<stop offset="0.47" stop-color="#ECEEF7"/>
<stop offset="0.75" stop-color="#FAFAFD"/>
<stop offset="1" stop-color="white"/>
</linearGradient>
<linearGradient id="paint17_linear_1597_2673" x1="94.0005" y1="313.116" x2="149.621" y2="313.116" gradientUnits="userSpaceOnUse">
<stop offset="0.33" stop-color="#C6CBE7"/>
<stop offset="0.59" stop-color="#D9DCEF"/>
<stop offset="1" stop-color="white"/>
</linearGradient>
<linearGradient id="paint18_linear_1597_2673" x1="106.48" y1="306.689" x2="123.289" y2="306.689" gradientUnits="userSpaceOnUse">
<stop stop-color="#BDC1E4"/>
<stop offset="1" stop-color="#DEE2F9"/>
</linearGradient>
<linearGradient id="paint19_linear_1597_2673" x1="101.738" y1="319.067" x2="112.455" y2="319.067" gradientUnits="userSpaceOnUse">
<stop stop-color="#BDC1E4"/>
<stop offset="1" stop-color="#D0D4F6"/>
</linearGradient>
<linearGradient id="paint20_linear_1597_2673" x1="127.39" y1="318.988" x2="117.085" y2="319.145" gradientUnits="userSpaceOnUse">
<stop stop-color="#D0D4F6"/>
<stop offset="1" stop-color="#BDC1E4"/>
</linearGradient>
<linearGradient id="paint21_linear_1597_2673" x1="128.437" y1="310.729" x2="135.753" y2="310.729" gradientUnits="userSpaceOnUse">
<stop offset="0.4" stop-color="#BDC1E4"/>
<stop offset="1" stop-color="#D0D4F6"/>
</linearGradient>
<linearGradient id="paint22_linear_1597_2673" x1="207.295" y1="66.7125" x2="295.806" y2="92.0072" gradientUnits="userSpaceOnUse">
<stop stop-color="#807DFB"/>
<stop offset="1" stop-color="#362E94"/>
</linearGradient>
<linearGradient id="paint23_linear_1597_2673" x1="92.0313" y1="76.7686" x2="92.0313" y2="196.69" gradientUnits="userSpaceOnUse">
<stop stop-color="#CDD6EE"/>
<stop offset="1" stop-color="white" stop-opacity="0"/>
</linearGradient>
</defs>
</svg>
