<svg width="996" height="445" viewBox="0 0 996 445" fill="none" xmlns="http://www.w3.org/2000/svg">
<g style="mix-blend-mode:luminosity" clip-path="url(#clip0_1590_646)">
<path d="M0 445.001C20.5943 443.35 50.8598 425.435 65.2467 400.172C79.6336 374.926 91.1911 344.545 117.667 333.482C142.445 323.113 171.219 362.856 197.266 356.466C250.544 343.422 256.7 170.382 324.107 170.382C391.514 170.382 499.527 324.401 588.283 267.981C673.473 213.824 723.698 27.6574 793.952 4.16156C929.418 -41.1293 957.712 298.544 1055.06 298.544C1082.6 298.544 1102.63 217.291 1123.55 207.17C1190.92 174.593 1159.2 383.908 1254.98 445.001H0Z" fill="url(#paint0_linear_1590_646)"/>
<path d="M220.604 303.383C220.57 304.01 217.723 304.423 217.123 304.192C215.854 303.201 216.454 302.491 215.134 301.748C216.386 302.243 217.826 302.508 219.181 302.607C219.935 302.607 220.758 302.425 220.604 303.383Z" fill="#FCD2C5"/>
<path d="M214.139 301.155C215.459 301.914 216.796 302.822 218.065 303.813C219.574 304.969 222.644 307.891 222.867 308.106C223.45 308.733 225.147 310.137 225.439 310.731C225.628 311.111 225.696 312.366 225.439 312.845C225.096 313.456 224.307 313.323 224.307 313.323C224.033 314.199 221.941 313.142 221.924 313.373C221.855 314.298 220.518 314.496 218.168 312.135C218.031 311.986 211.069 307.313 208.977 305.646C209.937 304.325 214.036 301.122 214.121 301.155H214.139Z" fill="#FCD2C5"/>
<path d="M183.051 265.572C183.565 265.82 184.011 266.133 184.319 266.431C190.064 272.061 207.606 296.448 214.568 301.402C212.459 303.201 210.83 304.836 209.852 306.273C198.569 297.918 172.916 274.059 174.974 268.957C176.86 264.284 180.753 264.449 183.051 265.572Z" fill="#FCD2C5"/>
<path d="M186.051 223.649C187.372 230.832 185.263 254.311 186.48 265.737C187.972 279.755 177.289 275.76 175.42 271.648C170.481 260.85 162.25 228.933 167.806 225.895C170.207 224.574 185.811 222.345 186.051 223.649Z" fill="#FCD2C5"/>
<path d="M215.596 300.064C211.567 297.191 190.595 270.954 188.349 268.329C188.349 267.454 187.817 251.388 188.04 243.116C188.246 234.893 188.452 226.307 187.766 222.543C187.663 221.965 187.251 222.262 186.668 221.981C184.096 220.727 169.503 223.071 166.983 224.458C159.438 228.603 169.829 263.376 173.825 272.209C177.529 280.713 198.894 300.229 208.84 307.577L215.613 300.064H215.596Z" fill="#CE61D4"/>
<path d="M339.367 280.927H200.935V444.984H339.367V280.927Z" fill="url(#paint1_linear_1590_646)"/>
<path d="M331.857 306.9V287.779H208.429V306.9H214.482V315.254H208.429V334.375H331.857V315.254H324.878V306.9H331.857ZM230.446 326.532H221.873V318.458H230.446V326.532ZM230.446 315.007H221.873V306.933H230.446V315.007ZM230.446 303.696H221.873V295.606H230.446V303.696ZM243.136 326.532H234.562V318.458H243.136V326.532ZM243.136 315.007H234.562V306.933H243.136V315.007ZM243.136 303.696H234.562V295.606H243.136V303.696ZM255.619 326.532H247.045V318.458H255.619V326.532ZM255.619 315.007H247.045V306.933H255.619V315.007ZM255.619 303.696H247.045V295.606H255.619V303.696ZM267.983 326.532H259.426V318.458H267.983V326.532ZM267.983 315.007H259.426V306.933H267.983V315.007ZM267.983 303.696H259.426V295.606H267.983V303.696ZM280.672 326.532H272.098V318.458H280.672V326.532ZM280.672 315.007H272.098V306.933H280.672V315.007ZM280.672 303.696H272.098V295.606H280.672V303.696ZM293.172 326.532H284.599V318.458H293.172V326.532ZM293.172 315.007H284.599V306.933H293.172V315.007ZM293.172 303.696H284.599V295.606H293.172V303.696ZM312.361 326.301H301.3V321.38H312.361V326.301ZM306.788 312.48C301.901 312.48 297.939 308.666 297.939 303.961C297.939 299.255 301.901 295.441 306.788 295.441C311.675 295.441 315.619 299.255 315.619 303.961C315.619 308.666 311.658 312.48 306.788 312.48Z" fill="#4D3782"/>
<path d="M312.362 321.38H301.301V326.3H312.362V321.38Z" fill="white"/>
<path d="M315.619 303.96C315.619 308.666 311.658 312.48 306.788 312.48C301.918 312.48 297.94 308.666 297.94 303.96C297.94 299.255 301.901 295.44 306.788 295.44C311.675 295.44 315.619 299.255 315.619 303.96Z" fill="white"/>
<path d="M230.446 295.606H221.873V303.697H230.446V295.606Z" fill="white"/>
<path d="M243.137 295.606H234.563V303.697H243.137V295.606Z" fill="white"/>
<path d="M255.62 295.606H247.046V303.697H255.62V295.606Z" fill="white"/>
<path d="M267.983 295.606H259.426V303.697H267.983V295.606Z" fill="white"/>
<path d="M280.672 295.606H272.098V303.697H280.672V295.606Z" fill="white"/>
<path d="M293.173 295.606H284.599V303.697H293.173V295.606Z" fill="white"/>
<path d="M293.173 306.933H284.599V315.007H293.173V306.933Z" fill="white"/>
<path d="M280.672 306.933H272.098V315.007H280.672V306.933Z" fill="white"/>
<path d="M267.983 306.933H259.426V315.007H267.983V306.933Z" fill="white"/>
<path d="M255.62 306.933H247.046V315.007H255.62V306.933Z" fill="white"/>
<path d="M243.137 306.933H234.563V315.007H243.137V306.933Z" fill="white"/>
<path d="M230.446 306.933H221.873V315.007H230.446V306.933Z" fill="white"/>
<path d="M230.446 318.458H221.873V326.532H230.446V318.458Z" fill="white"/>
<path d="M243.137 318.458H234.563V326.532H243.137V318.458Z" fill="white"/>
<path d="M255.62 318.458H247.046V326.532H255.62V318.458Z" fill="white"/>
<path d="M267.983 318.458H259.426V326.532H267.983V318.458Z" fill="white"/>
<path d="M280.672 318.458H272.098V326.532H280.672V318.458Z" fill="white"/>
<path d="M293.173 318.458H284.599V326.532H293.173V318.458Z" fill="white"/>
<path d="M331.857 410.343V391.223H208.429V410.343H214.482V418.698H208.429V437.818H331.857V418.698H324.878V410.343H331.857ZM230.446 429.975H221.873V421.901H230.446V429.975ZM230.446 418.45H221.873V410.376H230.446V418.45ZM230.446 407.14H221.873V399.049H230.446V407.14ZM243.136 429.975H234.562V421.901H243.136V429.975ZM243.136 418.45H234.562V410.376H243.136V418.45ZM243.136 407.14H234.562V399.049H243.136V407.14ZM255.619 429.975H247.045V421.901H255.619V429.975ZM255.619 418.45H247.045V410.376H255.619V418.45ZM255.619 407.14H247.045V399.049H255.619V407.14ZM267.983 429.975H259.426V421.901H267.983V429.975ZM267.983 418.45H259.426V410.376H267.983V418.45ZM267.983 407.14H259.426V399.049H267.983V407.14ZM280.672 429.975H272.098V421.901H280.672V429.975ZM280.672 418.45H272.098V410.376H280.672V418.45ZM280.672 407.14H272.098V399.049H280.672V407.14ZM293.172 429.975H284.599V421.901H293.172V429.975ZM293.172 418.45H284.599V410.376H293.172V418.45ZM293.172 407.14H284.599V399.049H293.172V407.14ZM312.361 429.744H301.3V424.823H312.361V429.744ZM306.788 415.924C301.901 415.924 297.939 412.11 297.939 407.404C297.939 402.698 301.901 398.884 306.788 398.884C311.675 398.884 315.619 402.698 315.619 407.404C315.619 412.11 311.658 415.924 306.788 415.924Z" fill="#4D3782"/>
<path d="M312.362 424.823H301.301V429.744H312.362V424.823Z" fill="white"/>
<path d="M315.619 407.404C315.619 412.109 311.658 415.924 306.788 415.924C301.918 415.924 297.94 412.109 297.94 407.404C297.94 402.698 301.901 398.884 306.788 398.884C311.675 398.884 315.619 402.698 315.619 407.404Z" fill="white"/>
<path d="M230.446 399.049H221.873V407.139H230.446V399.049Z" fill="white"/>
<path d="M243.137 399.049H234.563V407.139H243.137V399.049Z" fill="white"/>
<path d="M255.62 399.049H247.046V407.139H255.62V399.049Z" fill="white"/>
<path d="M267.983 399.049H259.426V407.139H267.983V399.049Z" fill="white"/>
<path d="M280.672 399.049H272.098V407.139H280.672V399.049Z" fill="white"/>
<path d="M293.173 399.049H284.599V407.139H293.173V399.049Z" fill="white"/>
<path d="M293.173 410.376H284.599V418.45H293.173V410.376Z" fill="white"/>
<path d="M280.672 410.376H272.098V418.45H280.672V410.376Z" fill="white"/>
<path d="M267.983 410.376H259.426V418.45H267.983V410.376Z" fill="white"/>
<path d="M255.62 410.376H247.046V418.45H255.62V410.376Z" fill="white"/>
<path d="M243.137 410.376H234.563V418.45H243.137V410.376Z" fill="white"/>
<path d="M230.446 410.376H221.873V418.45H230.446V410.376Z" fill="white"/>
<path d="M230.446 421.9H221.873V429.974H230.446V421.9Z" fill="white"/>
<path d="M243.137 421.9H234.563V429.974H243.137V421.9Z" fill="white"/>
<path d="M255.62 421.9H247.046V429.974H255.62V421.9Z" fill="white"/>
<path d="M267.983 421.9H259.426V429.974H267.983V421.9Z" fill="white"/>
<path d="M280.672 421.9H272.098V429.974H280.672V421.9Z" fill="white"/>
<path d="M293.173 421.9H284.599V429.974H293.173V421.9Z" fill="white"/>
<path d="M331.857 358.613V339.493H208.429V358.613H214.482V366.968H208.429V386.088H331.857V366.968H324.878V358.613H331.857ZM230.446 378.246H221.873V370.171H230.446V378.246ZM230.446 366.721H221.873V358.646H230.446V366.721ZM230.446 355.41H221.873V347.32H230.446V355.41ZM243.136 378.246H234.562V370.171H243.136V378.246ZM243.136 366.721H234.562V358.646H243.136V366.721ZM243.136 355.41H234.562V347.32H243.136V355.41ZM255.619 378.246H247.045V370.171H255.619V378.246ZM255.619 366.721H247.045V358.646H255.619V366.721ZM255.619 355.41H247.045V347.32H255.619V355.41ZM267.983 378.246H259.426V370.171H267.983V378.246ZM267.983 366.721H259.426V358.646H267.983V366.721ZM267.983 355.41H259.426V347.32H267.983V355.41ZM280.672 378.246H272.098V370.171H280.672V378.246ZM280.672 366.721H272.098V358.646H280.672V366.721ZM280.672 355.41H272.098V347.32H280.672V355.41ZM293.172 378.246H284.599V370.171H293.172V378.246ZM293.172 366.721H284.599V358.646H293.172V366.721ZM293.172 355.41H284.599V347.32H293.172V355.41ZM312.361 378.014H301.3V373.094H312.361V378.014ZM306.788 364.194C301.901 364.194 297.939 360.38 297.939 355.674C297.939 350.969 301.901 347.154 306.788 347.154C311.675 347.154 315.619 350.969 315.619 355.674C315.619 360.38 311.658 364.194 306.788 364.194Z" fill="#4D3782"/>
<path d="M312.362 373.094H301.301V378.014H312.362V373.094Z" fill="white"/>
<path d="M306.788 347.154C301.901 347.154 297.94 350.968 297.94 355.674C297.94 360.38 301.901 364.194 306.788 364.194C311.675 364.194 315.619 360.38 315.619 355.674C315.619 350.968 311.658 347.154 306.788 347.154Z" fill="white"/>
<path d="M230.446 347.319H221.873V355.41H230.446V347.319Z" fill="white"/>
<path d="M243.137 347.319H234.563V355.41H243.137V347.319Z" fill="white"/>
<path d="M255.62 347.319H247.046V355.41H255.62V347.319Z" fill="white"/>
<path d="M267.983 347.319H259.426V355.41H267.983V347.319Z" fill="white"/>
<path d="M280.672 347.319H272.098V355.41H280.672V347.319Z" fill="white"/>
<path d="M293.173 347.319H284.599V355.41H293.173V347.319Z" fill="white"/>
<path d="M293.173 358.646H284.599V366.721H293.173V358.646Z" fill="white"/>
<path d="M280.672 358.646H272.098V366.721H280.672V358.646Z" fill="white"/>
<path d="M267.983 358.646H259.426V366.721H267.983V358.646Z" fill="white"/>
<path d="M255.62 358.646H247.046V366.721H255.62V358.646Z" fill="white"/>
<path d="M243.137 358.646H234.563V366.721H243.137V358.646Z" fill="white"/>
<path d="M230.446 358.646H221.873V366.721H230.446V358.646Z" fill="white"/>
<path d="M230.446 370.172H221.873V378.246H230.446V370.172Z" fill="white"/>
<path d="M243.137 370.172H234.563V378.246H243.137V370.172Z" fill="white"/>
<path d="M255.62 370.172H247.046V378.246H255.62V370.172Z" fill="white"/>
<path d="M267.983 370.172H259.426V378.246H267.983V370.172Z" fill="white"/>
<path d="M280.672 370.172H272.098V378.246H280.672V370.172Z" fill="white"/>
<path d="M293.173 370.172H284.599V378.246H293.173V370.172Z" fill="white"/>
<path d="M131.589 434.386C130.646 433.312 129.515 431.661 129.515 431.661L124.165 434.518C124.165 434.518 123.736 435.079 124.01 436.714C124.01 436.714 123.239 438.546 124.216 440.132C124.782 441.04 128.314 442.427 129.858 442.922C131.401 443.417 133.561 443.863 136.202 443.764C138.826 443.665 142.05 442.344 142.05 440.858C142.05 437.935 133.407 436.449 131.589 434.386Z" fill="#4D3782"/>
<path d="M131.042 431.495L123.857 432.733C123.857 432.733 123.703 435.094 123.995 436.713C123.995 436.713 127.321 437.852 128.47 437.241C130.493 436.168 131.574 434.368 131.574 434.368C130.219 432.717 131.042 431.479 131.042 431.479V431.495Z" fill="#FCD2C5"/>
<path d="M108.749 271.086V303.465C111.253 305.364 125.931 342.069 132.258 363.237C132.464 363.93 123.084 426.178 123.084 432.832C125.708 435.606 130.904 432.882 130.972 432.618C130.972 432.618 151.241 401.097 154.499 363.022C158.288 318.788 145.119 271.796 144.605 268.263C140.335 270.062 121.627 271.895 108.749 271.086Z" fill="#5836E5"/>
<path d="M91.0879 435.31C90.2477 434.17 89.236 432.437 89.236 432.437L83.663 434.88C83.663 434.88 83.1829 435.409 83.32 437.06C83.32 437.06 82.3941 438.826 83.2514 440.478C83.7316 441.435 86.9896 442.558 88.6529 443.681C89.9905 444.589 92.2711 444.903 94.8947 445.002C97.5183 445.101 100.845 444.028 100.965 442.558C101.205 439.652 92.6998 437.506 91.0708 435.326L91.0879 435.31Z" fill="#4D3782"/>
<path d="M90.3851 432.205L83.286 432.948C83.286 432.948 83.2003 435.408 83.3546 437.059C83.3546 437.059 86.5784 438.446 87.7787 437.935C89.8878 437.01 91.1053 435.309 91.1053 435.309C89.8879 433.559 90.3851 432.222 90.3851 432.222V432.205Z" fill="#FCD2C5"/>
<path d="M89.9217 263.788C73.9229 293.129 95.1003 336.026 97.861 363.682C97.861 363.682 82.754 401.791 82.754 433.146C85.1375 436.118 90.539 433.79 90.6419 433.526C90.6419 420.796 117.084 388.598 119.999 365.515C125.589 321.347 121.662 274.289 121.439 270.706C117.084 265.274 101.085 259.248 89.9388 263.788H89.9217Z" fill="#5836E5"/>
<path d="M175.866 189.256C174.631 192.525 168.99 200.517 167.001 201.54C166.486 208.475 175.986 213.379 178.49 210.424C178.97 206.098 184.234 200.319 184.594 199.708C182.073 198.832 176.346 190.214 175.866 189.256Z" fill="#FCD2C5"/>
<path d="M190.578 182.783C185.794 180.686 180.838 183.113 178.694 187.687C178.677 187.737 176.448 192.426 176.448 192.426C174.819 195.877 177.786 203.703 181.198 204.43C189.275 206.147 196.974 193.846 197.42 192.261C198.654 187.852 195.036 184.731 190.578 182.783Z" fill="#FCD2C5"/>
<path d="M178.489 210.44C178.489 210.44 175.179 211.811 172.967 210.44C169.726 208.442 167 201.541 167 201.541C167 201.541 158.82 199.295 156.008 198.998C130.818 196.34 106.589 217.028 81.1932 280.564C82.2392 281.208 85.1543 282.579 86.4232 283.438L99.8841 265.44L91.4646 286.987C108.389 305.976 141.073 311.986 150.727 297.72C154.276 286.921 158.323 277.378 162.301 269.271C163.793 266.2 165.285 263.343 166.726 260.685C173.739 247.756 179.706 239.798 180.889 237.734C184.456 231.526 190.526 225.136 186.497 218.812C185.451 217.177 178.489 210.424 178.489 210.424V210.44Z" fill="#CE61D4"/>
<path d="M178.489 210.44C178.489 210.44 175.18 211.827 172.951 210.44C169.71 208.458 167.001 201.54 167.001 201.54C167.001 201.54 162.834 200.318 161.53 199.938C158.667 199.096 155.992 199.014 155.992 199.014C162.954 208.31 170.602 227.81 170.602 227.81C170.602 227.81 180.701 223.203 184.868 216.896C183.514 215.013 178.489 210.423 178.489 210.423V210.44Z" fill="#4D3782"/>
<path d="M184.233 171.159C174.664 173.999 170.412 185.508 173.841 193.07C173.841 193.07 178.231 186.267 182.158 184.071C199.768 196.835 204.09 192.839 204.964 190.808C208.977 181.578 196.733 167.444 184.216 171.159H184.233Z" fill="#4D3782"/>
<path d="M175.436 187.721C175.076 188.91 176.019 191.122 177.133 191.783C178.042 190.61 179.877 188.249 180.803 186.714C180.237 186.07 179.363 185.64 178.865 185.492C177.562 185.129 175.813 186.449 175.436 187.704V187.721Z" fill="#FCD2C5"/>
<path d="M149.252 223.285C149.904 217.936 132.396 217.539 134.643 226.059C137.678 237.65 150.864 262.219 152.185 263.92C153.642 265.802 157.792 267.685 162.302 269.286C163.794 266.215 165.285 263.359 166.726 260.7C158.341 249.423 148.018 233.258 149.252 223.285Z" fill="#CE61D4"/>
<path d="M210.314 277.756C208.977 278.004 207.519 278.136 206.182 277.987C207.674 278.367 207.296 279.209 208.788 279.82C209.44 279.886 212.046 278.747 211.909 278.136C211.772 277.162 211.034 277.575 210.314 277.756Z" fill="#FCD2C5"/>
<path d="M215.426 282.066C215.169 281.917 211.379 279.919 209.596 279.21C208.104 278.599 206.544 278.07 205.052 277.69C204.966 277.69 201.931 281.835 201.382 283.354C203.868 284.411 211.894 287.069 212.065 287.168C214.997 288.819 216.215 288.274 216.026 287.366C215.975 287.151 218.29 287.597 218.307 286.689C218.307 286.689 219.096 286.607 219.25 285.93C219.37 285.418 218.941 284.229 218.65 283.899C218.187 283.403 216.18 282.495 215.426 282.049V282.066Z" fill="#FCD2C5"/>
<path d="M170.928 252.89C170.688 252.048 170.379 251.173 170.002 250.265C167.841 245.014 165.612 236.725 163.468 228.717C161.342 220.742 159.319 213.213 157.587 209.779C157.312 209.25 156.798 208.871 156.146 208.755C153.317 208.227 139.942 214.319 137.901 216.317C131.814 222.294 151.671 253.006 158.015 260.436C164.017 267.668 190.099 280.811 201.742 285.269L206.132 276.254C201.433 274.553 190.476 266.727 181.679 260.419C177.649 257.53 173.826 254.805 170.91 252.874L170.928 252.89Z" fill="#CE61D4"/>
<path d="M196.013 82.4256H212.028L214.206 65.5674H188.228L196.013 82.4256Z" fill="#D5DBE0"/>
<path d="M154.207 21.8947L135.962 19.2363L147.966 40.2224L163.141 35.4341C163.159 35.2359 163.159 27.7397 163.159 27.7397C163.159 22.9679 159.146 21.8947 154.19 21.8947H154.207Z" fill="#D5DBE0"/>
<path d="M147.966 48.1152L135.962 69.1013L154.207 66.4429C159.163 66.4429 163.176 65.3697 163.176 60.5979C163.176 60.5979 163.176 53.0852 163.159 52.9036L147.983 48.1152H147.966Z" fill="#D5DBE0"/>
<path d="M132.481 45.0933C132.481 45.0933 256.733 44.8621 256.956 45.0933C242.363 -4.45756 139.392 23.1496 132.481 45.0933Z" fill="#F0F0F0"/>
<path d="M132.481 45.0938C139.392 67.054 242.363 94.6446 256.956 45.0938C256.733 45.3249 132.481 45.0938 132.481 45.0938Z" fill="#D5DBE0"/>
<path d="M206.44 28.7139C161.376 28.7139 132.945 44.9446 132.499 45.0932H256.974C256.751 44.8621 251.435 28.7139 206.457 28.7139H206.44Z" fill="#D5DBE0"/>
<path d="M206.439 61.4887C251.417 61.4887 256.75 45.3405 256.956 45.1094H132.481C132.927 45.2745 161.358 61.4887 206.422 61.4887H206.439Z" fill="#F0F0F0"/>
<path d="M409.657 34.7559C404.752 34.7559 400.397 37.15 397.602 40.4523H421.729C418.933 37.15 414.578 34.7559 409.674 34.7559H409.657Z" fill="#F0F0F0"/>
<path d="M649.723 35.6811C645.539 35.6811 649.192 29.0435 639.023 27.64C621.653 25.2294 624.928 18.4266 610.936 18.4266C603.528 18.4266 598.538 26.3191 591.713 25.5926C580.138 24.3542 573.965 10.3525 561.43 10.3525C547.867 10.3525 542.191 26.7154 529.604 27.8216C521.648 28.5151 516.658 18.2285 508.05 18.2285C496.887 18.2285 492.703 30.8432 482.534 33.1383C477.887 34.1786 473.96 28.284 468.816 28.284C459.453 28.284 451.411 33.8979 447.827 40.5024H661.795C659 37.2002 654.645 35.7141 649.741 35.7141L649.723 35.6811Z" fill="#F0F0F0"/>
<path d="M692.385 371.111H552.701V428.208H692.385V371.111Z" fill="#F0F0F0"/>
<path d="M397.755 91.3086H847.212C859.901 91.3086 870.206 101.232 870.206 113.45V348.97C870.206 361.188 859.901 371.112 847.212 371.112H397.755C385.066 371.112 374.76 361.188 374.76 348.97V113.45C374.76 101.232 385.066 91.3086 397.755 91.3086Z" fill="white"/>
<path d="M854.946 104.221H390.022V331.567H854.946V104.221Z" fill="url(#paint2_linear_1590_646)"/>
<path fill-rule="evenodd" clip-rule="evenodd" d="M735.906 427.878H509.06C504.173 427.878 500.177 431.725 500.177 436.431C500.177 441.137 504.173 444.984 509.06 444.984H735.906C740.793 444.984 744.788 441.137 744.788 436.431C744.788 431.725 740.793 427.878 735.906 427.878Z" fill="white"/>
<path d="M730.3 130.159H708.659V136.714H730.3V130.159Z" fill="#D5DBE0"/>
<path d="M788.413 130.159H741.051V136.714H788.413V130.159Z" fill="#D5DBE0"/>
<path d="M803.794 130.159H793.951V136.714H803.794V130.159Z" fill="#D5DBE0"/>
<path d="M803.794 140.545H771.197V147.1H803.794V140.545Z" fill="#D5DBE0"/>
<path d="M716.444 140.545H708.659V147.1H716.444V140.545Z" fill="#D5DBE0"/>
<path d="M763.515 140.545H720.457V147.1H763.515V140.545Z" fill="#D5DBE0"/>
<path d="M734.604 150.914H708.659V157.469H734.604V150.914Z" fill="#D5DBE0"/>
<path d="M803.812 150.914H739.834V157.469H803.812V150.914Z" fill="#D5DBE0"/>
<path d="M730.3 294.053H708.659V300.608H730.3V294.053Z" fill="#D5DBE0"/>
<path d="M788.413 294.053H741.051V300.608H788.413V294.053Z" fill="#D5DBE0"/>
<path d="M803.794 294.053H793.951V300.608H803.794V294.053Z" fill="#D5DBE0"/>
<path d="M803.794 304.438H771.197V310.994H803.794V304.438Z" fill="#D5DBE0"/>
<path d="M716.444 304.438H708.659V310.994H716.444V304.438Z" fill="#D5DBE0"/>
<path d="M763.515 304.438H720.457V310.994H763.515V304.438Z" fill="#D5DBE0"/>
<path d="M734.604 314.808H708.659V321.363H734.604V314.808Z" fill="#D5DBE0"/>
<path d="M803.812 314.808H739.834V321.363H803.812V314.808Z" fill="#D5DBE0"/>
<path d="M606.906 294.053H585.265V300.608H606.906V294.053Z" fill="#D5DBE0"/>
<path d="M665.019 294.053H617.657V300.608H665.019V294.053Z" fill="#D5DBE0"/>
<path d="M680.416 294.053H670.573V300.608H680.416V294.053Z" fill="#D5DBE0"/>
<path d="M680.4 304.438H647.803V310.994H680.4V304.438Z" fill="#D5DBE0"/>
<path d="M593.051 304.438H585.265V310.994H593.051V304.438Z" fill="#D5DBE0"/>
<path d="M640.119 304.438H597.062V310.994H640.119V304.438Z" fill="#D5DBE0"/>
<path d="M665.019 273.281H617.657V279.836H665.019V273.281Z" fill="#D5DBE0"/>
<path d="M680.416 273.281H670.573V279.836H680.416V273.281Z" fill="#D5DBE0"/>
<path d="M680.4 283.667H647.803V290.222H680.4V283.667Z" fill="#D5DBE0"/>
<path d="M640.119 283.667H597.062V290.222H640.119V283.667Z" fill="#D5DBE0"/>
<path d="M611.21 314.808H585.265V321.363H611.21V314.808Z" fill="#D5DBE0"/>
<path d="M680.416 314.808H616.439V321.363H680.416V314.808Z" fill="#D5DBE0"/>
<path d="M501.224 294.053H479.584V300.608H501.224V294.053Z" fill="#D5DBE0"/>
<path d="M559.337 294.053H511.975V300.608H559.337V294.053Z" fill="#D5DBE0"/>
<path d="M574.719 304.438H542.121V310.994H574.719V304.438Z" fill="#D5DBE0"/>
<path d="M487.369 304.438H479.584V310.994H487.369V304.438Z" fill="#D5DBE0"/>
<path d="M534.422 304.438H491.364V310.994H534.422V304.438Z" fill="#D5DBE0"/>
<path d="M505.528 314.808H479.584V321.363H505.528V314.808Z" fill="#D5DBE0"/>
<path d="M574.719 314.808H510.741V321.363H574.719V314.808Z" fill="#D5DBE0"/>
<path d="M809.968 201.375C810.036 200.648 810.345 199.889 809.333 199.922C808.682 199.889 807.927 202.547 808.099 203.158C808.973 204.479 809.762 203.984 810.397 205.354C810.036 204.099 809.934 202.696 809.985 201.391L809.968 201.375Z" fill="#FCD2C5"/>
<path d="M805.922 199.707C805.39 199.212 804.31 197.825 803.744 197.561C803.384 197.396 802.149 197.297 801.635 197.495C800.966 197.742 800.949 198.386 800.949 198.386C800.04 198.568 800.709 200.285 800.486 200.285C799.543 200.302 799.114 201.358 801.052 203.323C801.172 203.439 804.601 209.152 805.904 210.869C807.396 210.142 811.323 206.972 811.306 206.906C810.792 205.816 810.106 204.727 809.351 203.67C808.477 202.432 806.093 199.872 805.922 199.691V199.707Z" fill="#FCD2C5"/>
<path d="M854.123 197.511C849.957 203.62 842.257 225.977 836.444 236.015C829.311 248.316 840.783 248.713 844.178 245.658C853.146 237.617 873.792 211.446 869.951 206.526C868.287 204.396 854.861 196.405 854.106 197.511H854.123Z" fill="#FCD2C5"/>
<path d="M854.124 197.511C851.175 201.82 845.979 214.22 840.406 224.078C843.441 226.373 848.037 229.262 851.432 231.062C852.821 231.805 856.954 234.15 858.394 234.761C866.899 224.243 872.524 209.795 869.951 206.526C868.288 204.396 854.862 196.405 854.107 197.511H854.124Z" fill="#5836E5"/>
<path d="M843.218 238.922C838.073 232.764 814.975 213.165 810.671 205.933C808.579 207.732 806.693 209.103 805.098 209.879C812.403 221.635 834.026 248.945 839.531 247.574C844.572 246.32 844.864 242.572 843.972 240.243C843.766 239.715 843.509 239.269 843.235 238.922H843.218Z" fill="#FCD2C5"/>
<path d="M721.932 228.7H706.499V261.723H721.932V228.7Z" fill="#4D3782"/>
<path d="M739.081 215.491H725.363V261.723H739.081V215.491Z" fill="white"/>
<path d="M757.941 223.747H745.938V261.723H757.941V223.747Z" fill="url(#paint3_linear_1590_646)"/>
<path d="M778.52 208.887H763.087V261.723H778.52V208.887Z" fill="#4D3782"/>
<path d="M797.382 195.678H781.949V261.724H797.382V195.678Z" fill="white"/>
<path d="M814.529 180.817H802.526V261.723H814.529V180.817Z" fill="#F0F0F0"/>
<path d="M886.173 337.495C886.345 339.427 891.935 435.738 891.935 435.738C894.387 437.67 898.279 437.29 898.348 437.092C898.348 437.092 907.351 338.799 907.008 334.374C904.384 336.322 887.819 339.063 886.156 337.495H886.173Z" fill="#FCD2C5"/>
<path d="M897.987 435.738L892.637 432.882C892.637 432.882 891.488 434.533 890.562 435.606C888.762 437.67 880.102 439.156 880.102 442.079C880.102 443.548 883.326 444.886 885.949 444.985C888.573 445.084 890.888 444.952 892.294 444.143C894.043 443.152 897.387 442.26 897.936 441.352C898.913 439.767 898.141 437.934 898.141 437.934C898.416 436.3 897.987 435.738 897.987 435.738Z" fill="#4D3782"/>
<path d="M890.563 435.607C890.563 435.607 891.643 437.406 893.667 438.48C894.815 439.09 898.142 437.951 898.142 437.951C898.417 436.317 898.537 435.21 898.537 435.21L892.466 432.585C892.466 432.585 891.917 433.972 890.563 435.607Z" fill="#FCD2C5"/>
<path d="M877.531 264.531C876.57 271.136 891.163 433.856 891.163 433.856C891.231 434.137 896.427 436.845 899.051 434.071C899.051 434.071 901.777 396.557 907.024 361.173C911.551 330.627 913.386 267.355 913.386 267.355C900.508 268.164 881.8 266.331 877.531 264.531Z" fill="#53D6F2"/>
<path d="M858.24 337.495C858.411 339.427 864.001 435.738 864.001 435.738C866.453 437.67 870.346 437.29 870.415 437.092C870.415 437.092 879.417 338.799 879.091 334.374C876.451 336.322 859.886 339.063 858.24 337.495Z" fill="#FCD2C5"/>
<path d="M870.055 435.738L864.704 432.882C864.704 432.882 863.556 434.533 862.63 435.606C860.829 437.67 852.17 439.156 852.17 442.079C852.17 443.548 855.393 444.886 858.017 444.985C860.64 445.084 862.801 444.638 864.362 444.143C865.922 443.647 869.454 442.26 870.003 441.352C870.98 439.767 870.209 437.934 870.209 437.934C870.483 436.3 870.055 435.738 870.055 435.738Z" fill="#4D3782"/>
<path d="M862.612 435.607C862.612 435.607 863.693 437.406 865.716 438.48C866.865 439.09 870.192 437.951 870.192 437.951C870.466 436.317 870.586 435.21 870.586 435.21L864.516 432.585C864.516 432.585 863.967 433.972 862.612 435.607Z" fill="#FCD2C5"/>
<path d="M849.596 264.531C848.636 271.136 863.229 433.856 863.229 433.856C863.297 434.137 868.493 436.845 871.116 434.071C871.116 434.071 873.843 396.557 879.09 361.173C883.617 330.627 882.948 301.649 885.452 299.734V267.355C872.574 268.164 853.866 266.331 849.596 264.531Z" fill="#53D6F2"/>
<path d="M848.602 261.873C848.602 261.873 844.503 280.828 846.475 282.463C850.934 286.194 867.653 282.743 880.376 281.241C893.1 279.738 916.523 282.215 917.141 279.722C918.787 272.968 915.683 258.059 915.683 258.059L848.619 261.873H848.602Z" fill="#5836E5"/>
<path d="M881.679 173.553C880.788 174.18 871.494 179.15 868.836 178.77C868.853 179.48 870.636 186.96 868.921 190.989C869.659 194.737 880.445 194.77 883.411 188.413C882.177 186.597 881.148 177.004 881.679 173.553Z" fill="#FCD2C5"/>
<path d="M871.922 161.12C867.035 160.806 862.302 161.879 861.222 166.338C860.845 167.923 861.548 182.288 869.505 184.467C872.865 185.392 879.33 179.844 879.604 176.079C879.604 176.079 879.965 170.928 879.982 170.878C880.342 165.875 877.187 161.483 871.922 161.136V161.12Z" fill="#FCD2C5"/>
<path d="M909.047 205.222C906.063 197.313 902.616 193.119 894.351 191.22C891.59 190.576 883.411 188.413 883.411 188.413C883.411 188.413 877.615 193.251 873.774 193.532C871.15 193.713 868.921 190.989 868.921 190.989C868.921 190.989 859.456 193.763 857.741 194.72C851.071 198.452 850.968 204.743 850.573 209.961C846.681 261.988 844.246 269.6 845.943 272.473C850.093 279.523 918.924 274.867 917.655 266.149C913.402 237.105 909.973 207.682 909.047 205.238V205.222Z" fill="#CE61D4"/>
<path d="M882.914 158.775C875.781 152.55 864.738 159.138 864.738 159.138C856.318 160.69 858.153 172.546 862.011 174.263C860.194 165.545 866.332 162.721 866.332 162.721C877.736 162.556 881.697 175.65 880.925 179.035C880.925 179.035 893.649 168.137 882.914 158.775Z" fill="#F0F0F0"/>
<path d="M879.776 168.881C879.262 168.897 878.302 169.112 877.599 169.607C878.096 171.308 879.279 174.033 879.879 175.386C881.131 175.007 882.606 173.075 882.554 171.836C882.503 170.532 881.131 168.831 879.776 168.881Z" fill="#FCD2C5"/>
<path d="M910.076 166.536C907.676 134.652 880.771 148.076 881.405 156.464C881.56 158.528 882.726 159.733 884.475 157.553C887.424 153.888 898.021 150.619 891.865 170.036C890.236 175.171 883.309 181.776 898.364 191.039C911.997 199.41 900.748 202.63 901.502 206.493C903.44 216.433 930.208 194.886 916.044 180.009C913.18 177.004 910.796 176.145 910.076 166.519V166.536Z" fill="#F0F0F0"/>
<path d="M883.001 155.836C882.315 155.423 881.646 155.308 881.063 155.357C879.588 155.456 878.559 156.53 878.559 156.53C882.04 157.636 884.904 160.724 884.904 160.724C885.676 159.106 885.607 157.372 883.001 155.836Z" fill="#4D3782"/>
<path d="M812.85 210.852C812.49 210.225 812.284 209.432 811.461 210.01C810.895 210.34 811.855 212.949 812.353 213.345C813.845 213.973 814.222 213.114 815.542 213.89C814.496 213.065 813.587 211.958 812.85 210.852Z" fill="#FCD2C5"/>
<path d="M812.267 212.356C810.501 211.613 806.368 210.374 806.077 210.292C805.219 210.094 803.144 209.301 802.458 209.334C802.013 209.351 800.829 209.895 800.538 210.325C800.126 210.903 800.624 211.514 800.624 211.514C799.955 212.141 801.893 213.445 801.704 213.561C800.881 214.056 801.327 215.278 804.585 216.17C804.773 216.219 812.335 219.951 814.839 220.942C815.611 219.505 816.605 214.519 816.537 214.469C815.216 213.693 813.759 212.983 812.25 212.372L812.267 212.356Z" fill="#FCD2C5"/>
<path d="M893.409 194.21C886.893 197.941 869.797 214.799 860.006 221.371C848.003 229.428 858.12 234.613 862.578 233.309C874.307 229.858 904.778 215.047 903.544 209.004C903.012 206.378 894.593 193.549 893.409 194.226V194.21Z" fill="#FCD2C5"/>
<path d="M893.41 194.209C888.145 195.167 878.491 205.8 868.991 212.305C870.277 217.374 874.89 225.019 880.309 229.51C892.724 223.649 902.378 216.169 904.607 212.669C910.334 203.67 900.217 192.987 893.41 194.225V194.209Z" fill="#5836E5"/>
<path d="M863.761 224.177C863.281 223.847 862.801 223.616 862.372 223.5C854.519 221.254 823.927 217.804 816.125 214.204C815.474 216.846 814.736 218.992 813.862 220.495C826.825 226.158 860.726 236.775 864.447 232.631C867.86 228.833 865.87 225.597 863.761 224.177Z" fill="#FCD2C5"/>
<path d="M473.032 265.207C471.763 265.703 470.392 266.149 469.037 266.281C470.58 266.347 470.392 267.238 472.004 267.536C472.655 267.469 475.69 265.191 475.416 264.63C475.073 263.705 474.233 264.745 473.032 265.207Z" fill="#FCD2C5"/>
<path d="M466.432 266.511C466.432 266.511 465.78 271.597 466.072 273.182C468.781 272.951 470.873 273.463 471.079 273.463C474.474 273.529 474.114 267.073 473.908 266.412C473.754 265.917 470.942 268.542 466.432 266.511Z" fill="#FCD2C5"/>
<path d="M414.629 203.784C413.943 202.645 400.07 209.877 398.287 211.908C394.154 216.597 413.205 243.874 421.694 252.394C424.917 255.63 436.372 255.861 429.993 243.197C424.78 232.861 418.435 210.108 414.629 203.784Z" fill="#FCD2C5"/>
<path d="M426.699 244.171C424.144 243.874 420.423 244.997 420.32 250.016C420.2 255.498 461.543 273.859 466.053 273.182C466.447 271.498 467.682 269.846 469.037 267.452C460.737 265.091 435.599 247.952 428.208 244.551C427.797 244.369 427.282 244.221 426.699 244.155V244.171Z" fill="#FCD2C5"/>
<path d="M430.764 244.501C430.472 243.692 418.126 203.933 416.24 200.697C415.948 200.185 395.611 206.674 393.742 208.721C388.169 214.863 412.055 245.657 418.657 252.526C424.933 259.23 451.066 270.606 462.641 274.321L466.379 265.322C461.715 263.919 450.603 256.902 441.669 251.255C437.571 248.662 433.696 246.219 430.764 244.501Z" fill="#4D3782"/>
<path d="M371.776 333.334C371.159 337.743 373.663 436.382 373.663 436.382C373.714 436.58 377.572 437.191 380.162 435.408C380.162 435.408 392.079 339.625 392.371 337.71C390.622 339.179 374.263 335.431 371.776 333.334Z" fill="#FCD2C5"/>
<path d="M381.551 435.358C380.694 434.235 379.647 432.518 379.647 432.518L374.126 435.044C374.126 435.044 373.663 435.589 373.817 437.223C373.817 437.223 372.926 439.007 373.8 440.641C374.297 441.582 377.744 443.184 379.253 443.762C380.762 444.34 382.888 444.934 385.529 444.984C388.153 445.05 391.462 443.91 391.565 442.441C391.754 439.518 383.231 437.504 381.551 435.341V435.358Z" fill="#5836E5"/>
<path d="M402.934 428.126C401.905 426.805 401.185 426.706 401.185 426.706L395.32 428.407C395.32 428.407 395.749 430.355 395.903 431.742C396.177 434.417 391.256 441.434 393.434 443.465C394.531 444.489 397.772 443.184 399.676 441.451C401.579 439.701 403.088 438.016 403.465 436.497C403.945 434.599 405.609 431.676 405.334 430.652C404.837 428.869 402.934 428.126 402.934 428.126Z" fill="#5836E5"/>
<path d="M394.978 428.308C394.978 428.308 395.629 429.646 395.904 431.743C395.904 431.743 397.996 432.238 400.208 431.594C401.459 431.231 402.934 428.127 402.934 428.127C401.922 426.806 401.168 425.947 401.168 425.947L394.978 428.308Z" fill="#FCD2C5"/>
<path d="M377.212 272.836C364.386 274.256 347.599 273.529 343.226 271.928C342.9 275.395 347.393 320.009 352.709 363.12C355.246 383.76 395.475 429.744 395.475 429.744C395.56 430.008 400.07 430.537 402.539 427.631C402.539 427.631 375.309 375.273 375.978 362.064C377.453 332.228 380.916 294.466 377.212 272.819V272.836Z" fill="url(#paint4_linear_1590_646)"/>
<path d="M373.611 434.483C373.611 434.483 373.662 435.589 373.833 437.24C373.833 437.24 377.092 438.578 378.275 438.049C380.367 437.108 381.567 435.374 381.567 435.374C380.315 433.657 379.869 432.237 379.869 432.237L373.628 434.499L373.611 434.483Z" fill="#FCD2C5"/>
<path d="M371.554 266.066C371.554 266.066 367.507 329.305 370.01 360.082C372.908 395.73 373.165 433.327 373.165 433.327C375.6 436.266 380.968 433.855 381.053 433.591C381.053 433.591 408.027 272.093 407.512 265.438C403.122 266.974 384.346 267.668 371.536 266.066H371.554Z" fill="url(#paint5_linear_1590_646)"/>
<path d="M347.238 257.116C347.238 257.116 340.962 271.663 343.397 281.338C343.397 281.338 355.023 287.316 369.187 288.686L374.331 277.822C374.331 277.822 378.584 289.759 380.659 290.007C392.285 291.427 404.271 291.377 412.725 287.53L410.136 270.045L347.221 257.133L347.238 257.116Z" fill="#CE61D4"/>
<path d="M391.84 172.578C391.874 176.062 389.473 185.441 387.999 187.075C390.039 193.762 400.722 195.149 401.991 191.55C400.859 187.339 403.706 180.157 403.826 179.447C401.151 179.48 392.646 173.321 391.857 172.578H391.84Z" fill="#FCD2C5"/>
<path d="M412.52 196.701C410.959 195.529 401.974 191.533 401.974 191.533C401.974 191.533 399.385 193.944 396.795 193.399C393.04 192.623 387.981 187.059 387.981 187.059C387.981 187.059 379.579 188.115 376.75 188.396C368.296 189.189 363.46 195.826 360.597 202.2C354.149 216.565 347.016 250.099 345.164 259.148C344.855 260.634 345.387 262.169 346.604 263.127C361.197 274.586 402.18 276.617 409.793 274.289C415.641 272.505 411.765 230.153 417.424 212.75C419.053 207.764 418.573 201.275 412.503 196.718L412.52 196.701Z" fill="#4D3782"/>
<path d="M280.036 158.115C279.35 157.586 277.807 156.034 277.156 155.786C276.744 155.621 275.441 155.638 274.978 155.919C274.361 156.282 274.549 157.025 274.549 157.025C273.657 157.339 274.875 159.287 274.635 159.32C273.675 159.436 273.555 160.723 276.127 162.853C276.281 162.985 281.528 169.392 283.38 171.307C284.701 170.3 287.77 166.172 287.736 166.106C286.878 164.884 285.849 163.646 284.752 162.474C283.466 161.087 280.259 158.296 280.019 158.115H280.036Z" fill="#FCD2C5"/>
<path d="M369.736 188.562C362.209 187.703 337.996 191.121 326.079 190.609C311.469 189.982 316.236 200.037 320.591 201.589C332.08 205.701 365.638 211.744 368.467 206.229C369.702 203.835 371.108 188.711 369.736 188.562Z" fill="#FCD2C5"/>
<path d="M325.46 192.723C319.286 187.521 292.982 172.1 287.443 165.693C285.711 167.823 284.1 169.491 282.659 170.515C291.987 180.867 318.206 204.132 323.385 201.853C328.117 199.773 327.723 196.041 326.42 193.895C326.128 193.416 325.785 193.003 325.442 192.723H325.46Z" fill="#FCD2C5"/>
<path d="M381.67 187.852C357.218 185.673 325.409 190.395 324.517 190.461C321.705 188.546 317.83 186.085 313.748 183.493C304.832 177.83 293.72 170.796 290.548 167.213L283.449 174.082C291.577 182.849 312.771 201.441 321.653 204.331C330.827 207.451 365.586 214.072 369.238 206.708C370.456 204.248 384.482 188.083 381.687 187.836L381.67 187.852Z" fill="#4D3782"/>
<path d="M411.764 186.745C413.53 181.643 413.462 176.574 412.347 172.248C410.341 168.632 403.19 174.857 403.087 174.972C404.03 178.456 404.442 183.872 403.242 188.116C402.076 192.243 399.332 195.067 401.047 205.172C403.516 219.669 394.376 234.182 397.343 236.098C400.052 237.831 410.324 231.029 412.981 215.425C413.444 212.751 413.805 207.071 411.918 202.745C410.787 200.136 409.158 194.192 411.747 186.745H411.764Z" fill="#5836E5"/>
<path d="M404.168 160.855C398.92 160.509 394.273 165.132 393.913 170.135C393.913 170.184 393.536 175.336 393.536 175.336C393.262 179.117 398.869 185.457 402.333 184.978C410.529 183.872 413.273 169.755 413.119 168.12C412.69 163.58 409.055 161.169 404.168 160.839V160.855Z" fill="#FCD2C5"/>
<path d="M412.056 157.817C409.587 156.199 407.152 156.479 407.152 156.479C407.152 156.479 407.375 154.25 402.882 151.906C399.298 150.023 392.233 150.832 386.66 155.802C381.087 160.772 377.109 168.714 379.15 177.647C381.19 186.563 377.16 192.805 374.76 195.43C370.764 199.805 369.856 206.228 369.873 209.316C369.924 227.33 383.951 237.385 388.546 236.098C393.588 234.678 383.316 216.317 390.844 200.73C396.074 189.882 392.61 186.084 391.873 181.197C390.93 174.807 394.462 166.898 397.463 164.141C400.756 161.086 406.826 161.086 406.826 161.086C406.826 161.086 415.194 164.025 410.821 176.937C415.674 173.569 417.406 161.334 412.073 157.817H412.056Z" fill="#5836E5"/>
<path d="M391.205 170.762C390.982 171.984 392.165 174.081 393.349 174.625C394.12 173.371 395.698 170.828 396.435 169.21C395.801 168.632 394.892 168.285 394.377 168.202C393.04 167.971 391.445 169.474 391.205 170.762Z" fill="#FCD2C5"/>
<path d="M288.97 261.112H251.331V280.91H288.97V261.112Z" fill="url(#paint6_linear_1590_646)"/>
<path d="M251.331 261.111H288.953L333.211 205.303H207.073L251.331 261.111Z" fill="#F0F0F0"/>
<path d="M333.469 194.868H206.834C203.833 194.868 201.398 197.213 201.398 200.102C201.398 202.992 203.833 205.336 206.834 205.336H333.469C336.47 205.336 338.905 202.992 338.905 200.102C338.905 197.213 336.47 194.868 333.469 194.868Z" fill="url(#paint7_linear_1590_646)"/>
<path d="M476.238 240.053L460.338 255.682L471.571 266.277L487.471 250.649L476.238 240.053Z" fill="#D5DBE0"/>
<path d="M453.726 257.58L407.187 303.333C402.866 307.576 402.952 314.396 407.359 318.54C411.766 322.701 418.831 322.635 423.152 318.391L469.69 272.638C474.012 268.395 473.943 261.575 469.536 257.431C465.129 253.27 458.064 253.353 453.743 257.58H453.726Z" fill="white"/>
<path d="M459.521 200.45C459.521 207.517 460.722 214.303 462.848 220.677L483.151 214.997C481.522 210.374 480.716 205.437 480.939 200.368C482.071 176.145 500.573 155.506 526.003 153.789V134.239C489.05 135.395 459.453 164.604 459.504 200.45H459.521Z" fill="#CE61D4"/>
<path d="M529.655 153.657C541.846 153.706 553.764 158.709 562.732 166.684L576.793 153.508C564.653 141.867 548.054 134.553 529.655 134.206V153.657Z" fill="#F0F0F0"/>
<path d="M565.305 169.145C573.468 177.5 578.543 188.529 577.977 200.368C576.811 225.614 556.749 246.98 529.638 247.079V266.563C567.02 265.869 597.08 236.462 597.046 200.302C597.028 183.246 590.307 167.708 579.298 155.985L565.288 169.128L565.305 169.145Z" fill="#5836E5"/>
<path d="M484.454 218.266L464.032 223.979C473.651 248.25 497.658 265.67 526.02 266.562V246.929C508.221 245.576 491.519 233.968 484.454 218.266Z" fill="#4D3782"/>
<path d="M531.028 160.261V202.332H487.336C488.759 222.938 506.524 239.268 528.285 239.268C550.045 239.268 569.37 221.551 569.37 199.707C569.37 177.862 552.429 161.631 531.028 160.277V160.261Z" fill="white"/>
<path d="M494.933 181.512L525.558 195.53V162.87C512.423 163.778 501.123 171.06 494.933 181.528V181.512Z" fill="url(#paint8_linear_1590_646)"/>
<path d="M490.046 197.049H516.145L492.549 186.267C491.143 189.717 490.303 193.333 490.029 197.049H490.046Z" fill="#4D3782"/>
<path d="M633.123 161.746C639.125 167.525 647.853 168.846 655.415 165.131L646.704 148.669L633.123 161.746Z" fill="#F0F0F0"/>
<path d="M638.011 132.191L646.722 148.653L655.433 165.115C664.881 160.475 668.654 149.346 663.835 140.248C659.034 131.151 647.459 127.535 638.011 132.174V132.191Z" fill="#CE61D4"/>
<path d="M627.739 151.558L646.704 148.652L637.993 132.19C630.431 135.906 626.402 143.501 627.739 151.558Z" fill="#5836E5"/>
<path d="M633.124 161.746L646.705 148.669L627.74 151.575C628.408 155.604 630.123 158.873 633.124 161.763V161.746Z" fill="url(#paint9_linear_1590_646)"/>
<path d="M628.477 199.657L646.722 205.37V186.86C638.251 186.86 631.1 191.88 628.477 199.64V199.657Z" fill="#F0F0F0"/>
<path d="M628.476 199.656C625.201 209.365 630.723 219.817 640.788 222.97C650.871 226.124 661.691 220.807 664.967 211.099L646.721 205.386L628.476 199.673V199.656Z" fill="#CE61D4"/>
<path d="M658.005 190.411L646.722 205.387L664.967 211.1C667.59 203.323 664.864 195.216 658.005 190.411Z" fill="#5836E5"/>
<path d="M646.722 205.37L658.005 190.394C654.575 188 650.957 186.86 646.722 186.86V205.37Z" fill="url(#paint10_linear_1590_646)"/>
<path d="M264.349 147.497L285.063 163.761C292.539 154.944 293.242 143.105 286.846 133.545L264.349 147.497Z" fill="#F0F0F0"/>
<path d="M243.634 131.233C234.289 142.247 235.986 158.477 247.424 167.459C258.861 176.442 275.718 174.791 285.063 163.777L264.349 147.514L243.634 131.233Z" fill="#4D3782"/>
<path d="M243.634 131.233L264.349 147.513L274.037 123.505C263.028 119.394 251.111 122.432 243.634 131.249V131.233Z" fill="#5836E5"/>
<path d="M279.594 117.083L269.905 141.091L292.403 127.138C289.213 122.35 285.098 119.147 279.594 117.083Z" fill="#CE61D4"/>
<path d="M285.046 160.013C284.394 160.096 284.257 163.811 284.531 164.372C285.629 165.528 285.903 165.347 287.069 165.181C286.486 164.009 286.126 162.639 285.937 161.351C285.886 160.624 286.04 159.832 285.046 160.03V160.013Z" fill="#FCD2C5"/>
<path d="M464.17 266.214C463.724 266.758 464.65 267.7 464.65 267.7C463.93 268.278 465.764 269.714 465.559 269.83C464.701 270.259 465.044 271.514 468.216 272.653C468.405 272.719 470.291 273.957 472.898 273.247C474.51 272.818 475.59 267.617 474.938 267.171C470.874 264.43 464.513 265.801 464.17 266.214Z" fill="#FCD2C5"/>
</g>
<defs>
<linearGradient id="paint0_linear_1590_646" x1="0" y1="222.492" x2="1255" y2="222.492" gradientUnits="userSpaceOnUse">
<stop stop-color="#C66FD7"/>
<stop offset="1" stop-color="#5937E5" stop-opacity="0"/>
</linearGradient>
<linearGradient id="paint1_linear_1590_646" x1="200.935" y1="362.972" x2="339.35" y2="362.972" gradientUnits="userSpaceOnUse">
<stop stop-color="#A1D8F6"/>
<stop offset="1" stop-color="#9E90F2"/>
</linearGradient>
<linearGradient id="paint2_linear_1590_646" x1="390.022" y1="217.902" x2="854.929" y2="217.902" gradientUnits="userSpaceOnUse">
<stop stop-color="#63D4FF"/>
<stop offset="1" stop-color="#546BE5"/>
</linearGradient>
<linearGradient id="paint3_linear_1590_646" x1="745.938" y1="242.735" x2="757.941" y2="242.735" gradientUnits="userSpaceOnUse">
<stop stop-color="#A1D8F6"/>
<stop offset="1" stop-color="#9E90F2"/>
</linearGradient>
<linearGradient id="paint4_linear_1590_646" x1="372.891" y1="429.975" x2="372.891" y2="271.928" gradientUnits="userSpaceOnUse">
<stop stop-color="#A1D8F6"/>
<stop offset="0.21" stop-color="#A0CFF5"/>
<stop offset="0.56" stop-color="#9FB7F4"/>
<stop offset="0.99" stop-color="#9E91F2"/>
<stop offset="1" stop-color="#9E90F2"/>
</linearGradient>
<linearGradient id="paint5_linear_1590_646" x1="388.358" y1="434.763" x2="388.358" y2="265.438" gradientUnits="userSpaceOnUse">
<stop stop-color="#A1D8F6"/>
<stop offset="0.21" stop-color="#A0CFF5"/>
<stop offset="0.56" stop-color="#9FB7F4"/>
<stop offset="0.99" stop-color="#9E91F2"/>
<stop offset="1" stop-color="#9E90F2"/>
</linearGradient>
<linearGradient id="paint6_linear_1590_646" x1="251.331" y1="271.003" x2="288.97" y2="271.003" gradientUnits="userSpaceOnUse">
<stop stop-color="#A1D8F6"/>
<stop offset="1" stop-color="#9E90F2"/>
</linearGradient>
<linearGradient id="paint7_linear_1590_646" x1="201.381" y1="200.119" x2="338.905" y2="200.119" gradientUnits="userSpaceOnUse">
<stop stop-color="#A1D8F6"/>
<stop offset="1" stop-color="#9E90F2"/>
</linearGradient>
<linearGradient id="paint8_linear_1590_646" x1="494.933" y1="179.183" x2="525.558" y2="179.183" gradientUnits="userSpaceOnUse">
<stop stop-color="#A1D8F6"/>
<stop offset="1" stop-color="#9E90F2"/>
</linearGradient>
<linearGradient id="paint9_linear_1590_646" x1="627.74" y1="155.191" x2="646.722" y2="155.191" gradientUnits="userSpaceOnUse">
<stop stop-color="#A1D8F6"/>
<stop offset="1" stop-color="#9E90F2"/>
</linearGradient>
<linearGradient id="paint10_linear_1590_646" x1="646.722" y1="196.123" x2="658.005" y2="196.123" gradientUnits="userSpaceOnUse">
<stop stop-color="#A1D8F6"/>
<stop offset="1" stop-color="#9E90F2"/>
</linearGradient>
<clipPath id="clip0_1590_646">
<rect width="1255" height="445" fill="white"/>
</clipPath>
</defs>
</svg>
