<svg width="109" height="109" viewBox="0 0 109 109" fill="none" xmlns="http://www.w3.org/2000/svg">
<circle cx="54.6881" cy="54.1861" r="54.1861" fill="#473BF0"/>
<g clip-path="url(#clip0_259_12)">
<g clip-path="url(#clip1_259_12)">
<path d="M81.1873 80.6744H27.8945V27.3828H81.1849V80.6744H81.1873Z" fill="#473BF0"/>
<path d="M80.2988 79.7851H28.7852V28.2715H80.2988V79.7851Z" fill="white"/>
<path d="M42.8469 68.0274C42.8496 68.0717 42.8673 68.1137 42.897 68.1467L43.7794 69.0291C43.8123 69.0587 43.8544 69.0764 43.8986 69.0792H46.9131C46.9574 69.0764 46.9994 69.0587 47.0324 69.0291L47.9136 68.1467C47.9433 68.1138 47.961 68.0717 47.9637 68.0274V58.4533C47.9662 58.4087 47.9844 58.3665 48.0149 58.334L51.8486 54.672C51.8548 54.6658 51.8623 54.6611 51.8705 54.6582C51.8788 54.6552 51.8876 54.6542 51.8962 54.6551C51.9049 54.656 51.9133 54.6588 51.9208 54.6634C51.9282 54.668 51.9345 54.6742 51.9393 54.6816L61.6255 69.0219C61.6386 69.0389 61.6551 69.0529 61.674 69.063C61.6929 69.0731 61.7138 69.079 61.7352 69.0804H66.0101C66.0311 69.0791 66.0515 69.0726 66.0693 69.0616C66.0872 69.0506 66.1021 69.0353 66.1127 69.0172L66.889 67.5147C66.8972 67.4956 66.9008 67.4748 66.8993 67.454C66.8979 67.4333 66.8914 67.4132 66.8806 67.3954L55.5524 50.9731C55.5416 50.9565 55.5367 50.9368 55.5384 50.9172C55.5401 50.8975 55.5484 50.879 55.5619 50.8646L65.9827 40.4903C66.0125 40.4574 66.0302 40.4153 66.0328 40.371V40.1791C66.031 40.1325 66.0213 40.0865 66.0042 40.0431L65.4079 38.6611C65.3985 38.6427 65.3843 38.6271 65.367 38.6158C65.3496 38.6045 65.3296 38.5979 65.309 38.5967H61.0829C61.0387 38.5995 60.9967 38.6171 60.9637 38.6468L48.0197 51.6444C47.9923 51.6718 47.9696 51.6623 47.9696 51.6241V39.6997C47.9664 39.6558 47.9493 39.614 47.9207 39.5805L47.0562 38.6527C47.0239 38.6219 46.9816 38.6037 46.937 38.6015H43.8986C43.854 38.6037 43.8117 38.6219 43.7794 38.6527L42.8934 39.6067C42.8652 39.6403 42.8485 39.6821 42.8457 39.7259V68.025L42.8469 68.0274Z" fill="#473BF0"/>
</g>
</g>
<defs>
<clipPath id="clip0_259_12">
<rect width="53.3166" height="53.2928" fill="white" transform="translate(27.8848 27.3828)"/>
</clipPath>
<clipPath id="clip1_259_12">
<rect width="53.294" height="53.2928" fill="white" transform="translate(27.8965 27.3828)"/>
</clipPath>
</defs>
</svg>
