<svg width="375" height="335" viewBox="0 0 375 335" fill="none" xmlns="http://www.w3.org/2000/svg">
<rect width="375" height="335" fill="url(#paint0_linear_1815_787)"/>
<g style="mix-blend-mode:luminosity">
<mask id="mask0_1815_787" style="mask-type:alpha" maskUnits="userSpaceOnUse" x="84" y="74" width="292" height="261">
<rect x="84" y="74.1465" width="292" height="260.853" fill="url(#paint1_linear_1815_787)"/>
</mask>
<g mask="url(#mask0_1815_787)">
<path d="M57.5254 334.993C69.0567 334.068 86.0033 324.037 94.0589 309.892C102.115 295.756 108.586 278.745 123.411 272.55C137.285 266.744 153.396 288.998 167.98 285.42C197.812 278.116 201.259 181.226 239.002 181.226C276.746 181.226 337.225 267.466 386.922 235.875C434.622 205.55 462.745 101.31 502.082 88.1542C577.934 62.7945 593.776 252.988 648.283 252.988C663.703 252.988 674.918 207.492 686.632 201.824C724.356 183.584 706.593 300.785 760.227 334.993H57.5254Z" fill="url(#paint2_linear_1815_787)"/>
<path d="M181.048 255.698C181.029 256.05 179.435 256.281 179.099 256.151C178.389 255.597 178.725 255.199 177.985 254.783C178.686 255.061 179.493 255.208 180.251 255.264C180.674 255.264 181.135 255.162 181.048 255.698Z" fill="#FCD2C5"/>
<path d="M177.428 254.45C178.167 254.876 178.916 255.384 179.626 255.939C180.471 256.586 182.19 258.222 182.315 258.343C182.641 258.694 183.592 259.48 183.755 259.813C183.861 260.025 183.899 260.728 183.755 260.996C183.563 261.338 183.121 261.264 183.121 261.264C182.968 261.754 181.796 261.162 181.787 261.292C181.748 261.81 180.999 261.92 179.684 260.598C179.607 260.515 175.709 257.899 174.538 256.965C175.075 256.225 177.37 254.432 177.418 254.45H177.428Z" fill="#FCD2C5"/>
<path d="M160.021 234.526C160.309 234.665 160.558 234.841 160.731 235.007C163.948 238.16 173.77 251.815 177.668 254.588C176.487 255.596 175.575 256.511 175.028 257.316C168.71 252.638 154.346 239.278 155.499 236.422C156.555 233.805 158.734 233.898 160.021 234.526Z" fill="#FCD2C5"/>
<path d="M161.701 211.053C162.44 215.074 161.259 228.221 161.941 234.619C162.776 242.468 156.795 240.23 155.748 237.928C152.983 231.882 148.374 214.011 151.485 212.31C152.829 211.57 161.567 210.322 161.701 211.053Z" fill="#FCD2C5"/>
<path d="M178.244 253.84C175.988 252.231 164.245 237.54 162.987 236.07C162.987 235.58 162.69 226.585 162.815 221.953C162.93 217.349 163.045 212.541 162.661 210.433C162.603 210.11 162.373 210.276 162.046 210.119C160.606 209.416 152.435 210.729 151.024 211.506C146.799 213.826 152.618 233.297 154.855 238.243C156.929 243.004 168.892 253.932 174.461 258.046L178.254 253.84H178.244Z" fill="#CE61D4"/>
<path d="M247.547 243.123H170.035V334.984H247.547V243.123Z" fill="url(#paint3_linear_1815_787)"/>
<path d="M243.342 257.666V246.96H174.231V257.666H177.62V262.344H174.231V273.05H243.342V262.344H239.434V257.666H243.342ZM186.559 268.659H181.758V264.138H186.559V268.659ZM186.559 262.205H181.758V257.684H186.559V262.205ZM186.559 255.872H181.758V251.342H186.559V255.872ZM193.664 268.659H188.864V264.138H193.664V268.659ZM193.664 262.205H188.864V257.684H193.664V262.205ZM193.664 255.872H188.864V251.342H193.664V255.872ZM200.654 268.659H195.853V264.138H200.654V268.659ZM200.654 262.205H195.853V257.684H200.654V262.205ZM200.654 255.872H195.853V251.342H200.654V255.872ZM207.577 268.659H202.786V264.138H207.577V268.659ZM207.577 262.205H202.786V257.684H207.577V262.205ZM207.577 255.872H202.786V251.342H207.577V255.872ZM214.682 268.659H209.881V264.138H214.682V268.659ZM214.682 262.205H209.881V257.684H214.682V262.205ZM214.682 255.872H209.881V251.342H214.682V255.872ZM221.681 268.659H216.881V264.138H221.681V268.659ZM221.681 262.205H216.881V257.684H221.681V262.205ZM221.681 255.872H216.881V251.342H221.681V255.872ZM232.425 268.529H226.232V265.774H232.425V268.529ZM229.305 260.791C226.568 260.791 224.351 258.655 224.351 256.02C224.351 253.385 226.568 251.25 229.305 251.25C232.041 251.25 234.25 253.385 234.25 256.02C234.25 258.655 232.032 260.791 229.305 260.791Z" fill="#4D3782"/>
<path d="M232.426 265.774H226.233V268.529H232.426V265.774Z" fill="white"/>
<path d="M234.25 256.02C234.25 258.654 232.032 260.79 229.305 260.79C226.578 260.79 224.351 258.654 224.351 256.02C224.351 253.385 226.569 251.249 229.305 251.249C232.041 251.249 234.25 253.385 234.25 256.02Z" fill="white"/>
<path d="M186.559 251.342H181.758V255.872H186.559V251.342Z" fill="white"/>
<path d="M193.665 251.342H188.864V255.872H193.665V251.342Z" fill="white"/>
<path d="M200.654 251.342H195.854V255.872H200.654V251.342Z" fill="white"/>
<path d="M207.576 251.342H202.785V255.872H207.576V251.342Z" fill="white"/>
<path d="M214.682 251.342H209.881V255.872H214.682V251.342Z" fill="white"/>
<path d="M221.682 251.342H216.881V255.872H221.682V251.342Z" fill="white"/>
<path d="M221.682 257.685H216.881V262.205H221.682V257.685Z" fill="white"/>
<path d="M214.682 257.685H209.881V262.205H214.682V257.685Z" fill="white"/>
<path d="M207.576 257.685H202.785V262.205H207.576V257.685Z" fill="white"/>
<path d="M200.654 257.685H195.854V262.205H200.654V257.685Z" fill="white"/>
<path d="M193.665 257.685H188.864V262.205H193.665V257.685Z" fill="white"/>
<path d="M186.559 257.685H181.758V262.205H186.559V257.685Z" fill="white"/>
<path d="M186.559 264.138H181.758V268.659H186.559V264.138Z" fill="white"/>
<path d="M193.665 264.138H188.864V268.659H193.665V264.138Z" fill="white"/>
<path d="M200.654 264.138H195.854V268.659H200.654V264.138Z" fill="white"/>
<path d="M207.576 264.138H202.785V268.659H207.576V264.138Z" fill="white"/>
<path d="M214.682 264.138H209.881V268.659H214.682V264.138Z" fill="white"/>
<path d="M221.682 264.138H216.881V268.659H221.682V264.138Z" fill="white"/>
<path d="M243.342 315.587V304.881H174.231V315.587H177.62V320.265H174.231V330.971H243.342V320.265H239.434V315.587H243.342ZM186.559 326.579H181.758V322.059H186.559V326.579ZM186.559 320.126H181.758V315.605H186.559V320.126ZM186.559 313.793H181.758V309.263H186.559V313.793ZM193.664 326.579H188.864V322.059H193.664V326.579ZM193.664 320.126H188.864V315.605H193.664V320.126ZM193.664 313.793H188.864V309.263H193.664V313.793ZM200.654 326.579H195.853V322.059H200.654V326.579ZM200.654 320.126H195.853V315.605H200.654V320.126ZM200.654 313.793H195.853V309.263H200.654V313.793ZM207.577 326.579H202.786V322.059H207.577V326.579ZM207.577 320.126H202.786V315.605H207.577V320.126ZM207.577 313.793H202.786V309.263H207.577V313.793ZM214.682 326.579H209.881V322.059H214.682V326.579ZM214.682 320.126H209.881V315.605H214.682V320.126ZM214.682 313.793H209.881V309.263H214.682V313.793ZM221.681 326.579H216.881V322.059H221.681V326.579ZM221.681 320.126H216.881V315.605H221.681V320.126ZM221.681 313.793H216.881V309.263H221.681V313.793ZM232.425 326.45H226.232V323.695H232.425V326.45ZM229.305 318.712C226.568 318.712 224.351 316.576 224.351 313.941C224.351 311.306 226.568 309.171 229.305 309.171C232.041 309.171 234.25 311.306 234.25 313.941C234.25 316.576 232.032 318.712 229.305 318.712Z" fill="#4D3782"/>
<path d="M232.426 323.695H226.233V326.45H232.426V323.695Z" fill="white"/>
<path d="M234.25 313.94C234.25 316.575 232.032 318.711 229.305 318.711C226.578 318.711 224.351 316.575 224.351 313.94C224.351 311.306 226.569 309.17 229.305 309.17C232.041 309.17 234.25 311.306 234.25 313.94Z" fill="white"/>
<path d="M186.559 309.263H181.758V313.793H186.559V309.263Z" fill="white"/>
<path d="M193.665 309.263H188.864V313.793H193.665V309.263Z" fill="white"/>
<path d="M200.654 309.263H195.854V313.793H200.654V309.263Z" fill="white"/>
<path d="M207.576 309.263H202.785V313.793H207.576V309.263Z" fill="white"/>
<path d="M214.682 309.263H209.881V313.793H214.682V309.263Z" fill="white"/>
<path d="M221.682 309.263H216.881V313.793H221.682V309.263Z" fill="white"/>
<path d="M221.682 315.605H216.881V320.126H221.682V315.605Z" fill="white"/>
<path d="M214.682 315.605H209.881V320.126H214.682V315.605Z" fill="white"/>
<path d="M207.576 315.605H202.785V320.126H207.576V315.605Z" fill="white"/>
<path d="M200.654 315.605H195.854V320.126H200.654V315.605Z" fill="white"/>
<path d="M193.665 315.605H188.864V320.126H193.665V315.605Z" fill="white"/>
<path d="M186.559 315.605H181.758V320.126H186.559V315.605Z" fill="white"/>
<path d="M186.559 322.058H181.758V326.579H186.559V322.058Z" fill="white"/>
<path d="M193.665 322.058H188.864V326.579H193.665V322.058Z" fill="white"/>
<path d="M200.654 322.058H195.854V326.579H200.654V322.058Z" fill="white"/>
<path d="M207.576 322.058H202.785V326.579H207.576V322.058Z" fill="white"/>
<path d="M214.682 322.058H209.881V326.579H214.682V322.058Z" fill="white"/>
<path d="M221.682 322.058H216.881V326.579H221.682V322.058Z" fill="white"/>
<path d="M243.342 286.623V275.917H174.231V286.623H177.62V291.301H174.231V302.007H243.342V291.301H239.434V286.623H243.342ZM186.559 297.616H181.758V293.095H186.559V297.616ZM186.559 291.162H181.758V286.641H186.559V291.162ZM186.559 284.829H181.758V280.299H186.559V284.829ZM193.664 297.616H188.864V293.095H193.664V297.616ZM193.664 291.162H188.864V286.641H193.664V291.162ZM193.664 284.829H188.864V280.299H193.664V284.829ZM200.654 297.616H195.853V293.095H200.654V297.616ZM200.654 291.162H195.853V286.641H200.654V291.162ZM200.654 284.829H195.853V280.299H200.654V284.829ZM207.577 297.616H202.786V293.095H207.577V297.616ZM207.577 291.162H202.786V286.641H207.577V291.162ZM207.577 284.829H202.786V280.299H207.577V284.829ZM214.682 297.616H209.881V293.095H214.682V297.616ZM214.682 291.162H209.881V286.641H214.682V291.162ZM214.682 284.829H209.881V280.299H214.682V284.829ZM221.681 297.616H216.881V293.095H221.681V297.616ZM221.681 291.162H216.881V286.641H221.681V291.162ZM221.681 284.829H216.881V280.299H221.681V284.829ZM232.425 297.486H226.232V294.731H232.425V297.486ZM229.305 289.748C226.568 289.748 224.351 287.612 224.351 284.977C224.351 282.342 226.568 280.207 229.305 280.207C232.041 280.207 234.25 282.342 234.25 284.977C234.25 287.612 232.032 289.748 229.305 289.748Z" fill="#4D3782"/>
<path d="M232.426 294.731H226.233V297.487H232.426V294.731Z" fill="white"/>
<path d="M229.305 280.206C226.569 280.206 224.351 282.342 224.351 284.977C224.351 287.611 226.569 289.747 229.305 289.747C232.041 289.747 234.25 287.611 234.25 284.977C234.25 282.342 232.032 280.206 229.305 280.206Z" fill="white"/>
<path d="M186.559 280.299H181.758V284.829H186.559V280.299Z" fill="white"/>
<path d="M193.665 280.299H188.864V284.829H193.665V280.299Z" fill="white"/>
<path d="M200.654 280.299H195.854V284.829H200.654V280.299Z" fill="white"/>
<path d="M207.576 280.299H202.785V284.829H207.576V280.299Z" fill="white"/>
<path d="M214.682 280.299H209.881V284.829H214.682V280.299Z" fill="white"/>
<path d="M221.682 280.299H216.881V284.829H221.682V280.299Z" fill="white"/>
<path d="M221.682 286.642H216.881V291.163H221.682V286.642Z" fill="white"/>
<path d="M214.682 286.642H209.881V291.163H214.682V286.642Z" fill="white"/>
<path d="M207.576 286.642H202.785V291.163H207.576V286.642Z" fill="white"/>
<path d="M200.654 286.642H195.854V291.163H200.654V286.642Z" fill="white"/>
<path d="M193.665 286.642H188.864V291.163H193.665V286.642Z" fill="white"/>
<path d="M186.559 286.642H181.758V291.163H186.559V286.642Z" fill="white"/>
<path d="M186.559 293.095H181.758V297.616H186.559V293.095Z" fill="white"/>
<path d="M193.665 293.095H188.864V297.616H193.665V293.095Z" fill="white"/>
<path d="M200.654 293.095H195.854V297.616H200.654V293.095Z" fill="white"/>
<path d="M207.576 293.095H202.785V297.616H207.576V293.095Z" fill="white"/>
<path d="M214.682 293.095H209.881V297.616H214.682V293.095Z" fill="white"/>
<path d="M221.682 293.095H216.881V297.616H221.682V293.095Z" fill="white"/>
<path d="M131.206 329.05C130.678 328.449 130.044 327.524 130.044 327.524L127.049 329.124C127.049 329.124 126.809 329.438 126.962 330.353C126.962 330.353 126.53 331.38 127.077 332.267C127.394 332.776 129.372 333.552 130.236 333.83C131.1 334.107 132.31 334.357 133.789 334.301C135.258 334.246 137.063 333.506 137.063 332.674C137.063 331.038 132.224 330.206 131.206 329.05Z" fill="#4D3782"/>
<path d="M130.899 327.432L126.876 328.125C126.876 328.125 126.79 329.448 126.953 330.354C126.953 330.354 128.816 330.992 129.459 330.649C130.592 330.048 131.197 329.041 131.197 329.041C130.439 328.116 130.899 327.423 130.899 327.423V327.432Z" fill="#FCD2C5"/>
<path d="M118.417 237.614V255.744C119.819 256.807 128.038 277.359 131.581 289.212C131.696 289.6 126.444 324.455 126.444 328.18C127.913 329.734 130.822 328.208 130.86 328.06C130.86 328.06 142.209 310.411 144.034 289.092C146.156 264.324 138.782 238.012 138.494 236.033C136.103 237.041 125.628 238.067 118.417 237.614Z" fill="#5836E5"/>
<path d="M108.528 329.568C108.057 328.93 107.491 327.959 107.491 327.959L104.37 329.327C104.37 329.327 104.101 329.623 104.178 330.548C104.178 330.548 103.66 331.537 104.14 332.461C104.409 332.998 106.233 333.626 107.164 334.255C107.913 334.763 109.19 334.939 110.659 334.995C112.128 335.05 113.991 334.449 114.058 333.626C114.193 331.999 109.43 330.797 108.518 329.577L108.528 329.568Z" fill="#4D3782"/>
<path d="M108.134 327.829L104.159 328.245C104.159 328.245 104.111 329.623 104.198 330.547C104.198 330.547 106.003 331.324 106.675 331.037C107.856 330.519 108.538 329.567 108.538 329.567C107.856 328.587 108.134 327.838 108.134 327.838V327.829Z" fill="#FCD2C5"/>
<path d="M107.875 233.528C98.9171 249.957 110.775 273.976 112.321 289.462C112.321 289.462 103.862 310.8 103.862 328.356C105.196 330.021 108.221 328.717 108.278 328.569C108.278 321.441 123.084 303.413 124.716 290.488C127.846 265.757 125.648 239.408 125.523 237.402C123.084 234.36 114.126 230.986 107.885 233.528H107.875Z" fill="#5836E5"/>
<path d="M155.998 191.795C155.307 193.625 152.148 198.1 151.034 198.673C150.746 202.556 156.065 205.302 157.467 203.647C157.736 201.225 160.684 197.989 160.885 197.647C159.474 197.157 156.267 192.331 155.998 191.795Z" fill="#FCD2C5"/>
<path d="M164.235 188.171C161.556 186.996 158.782 188.356 157.581 190.916C157.572 190.944 156.324 193.57 156.324 193.57C155.412 195.502 157.073 199.884 158.983 200.291C163.506 201.253 167.817 194.365 168.066 193.477C168.758 191.009 166.732 189.262 164.235 188.171Z" fill="#FCD2C5"/>
<path d="M157.466 203.656C157.466 203.656 155.613 204.423 154.375 203.656C152.56 202.537 151.033 198.673 151.033 198.673C151.033 198.673 146.454 197.416 144.879 197.249C130.774 195.761 117.208 207.345 102.988 242.921C103.573 243.281 105.206 244.049 105.916 244.529L113.453 234.452L108.739 246.517C118.216 257.149 136.516 260.514 141.922 252.526C143.909 246.48 146.175 241.136 148.403 236.597C149.238 234.877 150.073 233.278 150.88 231.789C154.807 224.55 158.148 220.094 158.811 218.939C160.808 215.462 164.207 211.884 161.95 208.343C161.365 207.428 157.466 203.647 157.466 203.647V203.656Z" fill="#CE61D4"/>
<path d="M157.467 203.656C157.467 203.656 155.614 204.433 154.365 203.656C152.551 202.547 151.034 198.673 151.034 198.673C151.034 198.673 148.701 197.989 147.971 197.777C146.367 197.305 144.87 197.259 144.87 197.259C148.768 202.464 153.05 213.382 153.05 213.382C153.05 213.382 158.705 210.803 161.038 207.271C160.28 206.217 157.467 203.647 157.467 203.647V203.656Z" fill="#4D3782"/>
<path d="M160.683 181.662C155.325 183.252 152.944 189.696 154.864 193.93C154.864 193.93 157.322 190.121 159.521 188.892C169.381 196.038 171.801 193.801 172.291 192.664C174.537 187.496 167.682 179.582 160.673 181.662H160.683Z" fill="#4D3782"/>
<path d="M155.757 190.936C155.555 191.601 156.083 192.84 156.707 193.21C157.216 192.554 158.243 191.232 158.762 190.372C158.445 190.011 157.955 189.771 157.677 189.688C156.947 189.484 155.968 190.224 155.757 190.926V190.936Z" fill="#FCD2C5"/>
<path d="M141.096 210.849C141.461 207.853 131.658 207.631 132.916 212.402C134.615 218.892 141.999 232.649 142.738 233.601C143.554 234.655 145.878 235.709 148.403 236.606C149.238 234.886 150.074 233.287 150.88 231.798C146.185 225.484 140.405 216.433 141.096 210.849Z" fill="#CE61D4"/>
<path d="M175.287 241.348C174.538 241.487 173.722 241.561 172.973 241.478C173.808 241.69 173.597 242.162 174.432 242.504C174.797 242.541 176.256 241.903 176.18 241.561C176.103 241.016 175.69 241.247 175.287 241.348Z" fill="#FCD2C5"/>
<path d="M178.149 243.762C178.005 243.678 175.883 242.56 174.884 242.162C174.049 241.82 173.175 241.524 172.34 241.312C172.292 241.312 170.592 243.632 170.285 244.483C171.677 245.074 176.171 246.563 176.267 246.618C177.909 247.543 178.59 247.238 178.485 246.729C178.456 246.609 179.752 246.859 179.762 246.35C179.762 246.35 180.203 246.304 180.29 245.925C180.357 245.638 180.117 244.973 179.954 244.788C179.695 244.51 178.571 244.002 178.149 243.752V243.762Z" fill="#FCD2C5"/>
<path d="M153.233 227.425C153.098 226.953 152.926 226.463 152.714 225.955C151.505 223.015 150.256 218.374 149.056 213.89C147.866 209.424 146.733 205.209 145.763 203.286C145.609 202.99 145.321 202.777 144.956 202.712C143.372 202.417 135.883 205.828 134.74 206.947C131.332 210.294 142.45 227.49 146.003 231.65C149.363 235.699 163.967 243.059 170.487 245.555L172.945 240.507C170.314 239.555 164.179 235.172 159.253 231.641C156.997 230.023 154.855 228.497 153.223 227.416L153.233 227.425Z" fill="#CE61D4"/>
<path d="M445.212 293.619H366.999V325.589H445.212V293.619Z" fill="#F0F0F0"/>
<path d="M280.24 136.95H531.904C539.009 136.95 544.779 142.507 544.779 149.348V281.222C544.779 288.064 539.009 293.62 531.904 293.62H280.24C273.135 293.62 267.365 288.064 267.365 281.222V149.348C267.365 142.507 273.135 136.95 280.24 136.95Z" fill="white"/>
<path d="M536.234 144.18H275.91V271.477H536.234V144.18Z" fill="url(#paint4_linear_1815_787)"/>
<path fill-rule="evenodd" clip-rule="evenodd" d="M469.58 325.405H342.562C339.826 325.405 337.589 327.559 337.589 330.194C337.589 332.829 339.826 334.983 342.562 334.983H469.58C472.316 334.983 474.554 332.829 474.554 330.194C474.554 327.559 472.316 325.405 469.58 325.405Z" fill="white"/>
<path d="M338.175 250.474H326.058V254.144H338.175V250.474Z" fill="#D5DBE0"/>
<path d="M370.715 250.474H344.195V254.144H370.715V250.474Z" fill="#D5DBE0"/>
<path d="M379.327 256.288H361.075V259.958H379.327V256.288Z" fill="#D5DBE0"/>
<path d="M330.417 256.288H326.058V259.958H330.417V256.288Z" fill="#D5DBE0"/>
<path d="M356.764 256.288H332.654V259.958H356.764V256.288Z" fill="#D5DBE0"/>
<path d="M340.585 262.095H326.058V265.765H340.585V262.095Z" fill="#D5DBE0"/>
<path d="M379.326 262.095H343.503V265.765H379.326V262.095Z" fill="#D5DBE0"/>
<path d="M322.39 234.321C321.679 234.599 320.911 234.848 320.153 234.922C321.017 234.959 320.911 235.458 321.814 235.625C322.179 235.588 323.878 234.312 323.725 233.998C323.533 233.48 323.062 234.062 322.39 234.321Z" fill="#FCD2C5"/>
<path d="M318.694 235.051C318.694 235.051 318.329 237.899 318.493 238.786C320.01 238.657 321.181 238.943 321.296 238.943C323.197 238.98 322.996 235.365 322.881 234.996C322.794 234.718 321.22 236.188 318.694 235.051Z" fill="#FCD2C5"/>
<path d="M289.688 199.928C289.304 199.29 281.537 203.34 280.538 204.477C278.224 207.102 288.891 222.376 293.644 227.146C295.449 228.958 301.863 229.088 298.291 221.996C295.372 216.209 291.82 203.469 289.688 199.928Z" fill="#FCD2C5"/>
<path d="M296.446 222.542C295.016 222.376 292.932 223.005 292.875 225.815C292.807 228.885 315.957 239.165 318.482 238.786C318.703 237.843 319.394 236.919 320.152 235.578C315.505 234.256 301.43 224.659 297.291 222.755C297.061 222.653 296.773 222.57 296.446 222.533V222.542Z" fill="#FCD2C5"/>
<path d="M298.722 222.727C298.559 222.274 291.646 200.012 290.59 198.2C290.427 197.913 279.039 201.546 277.993 202.693C274.872 206.132 288.247 223.374 291.944 227.22C295.458 230.974 310.09 237.344 316.571 239.424L318.664 234.385C316.053 233.6 309.831 229.67 304.829 226.509C302.534 225.057 300.364 223.689 298.722 222.727Z" fill="#4D3782"/>
<path d="M265.694 272.467C265.348 274.935 266.75 330.166 266.75 330.166C266.779 330.277 268.939 330.619 270.389 329.621C270.389 329.621 277.062 275.989 277.225 274.917C276.246 275.74 267.086 273.641 265.694 272.467Z" fill="#FCD2C5"/>
<path d="M271.167 329.593C270.687 328.964 270.101 328.003 270.101 328.003L267.009 329.417C267.009 329.417 266.75 329.723 266.837 330.638C266.837 330.638 266.337 331.636 266.827 332.552C267.105 333.079 269.035 333.975 269.88 334.299C270.725 334.623 271.916 334.955 273.394 334.983C274.863 335.02 276.716 334.382 276.774 333.559C276.88 331.923 272.108 330.795 271.167 329.584V329.593Z" fill="#5836E5"/>
<path d="M283.14 325.544C282.564 324.805 282.16 324.749 282.16 324.749L278.877 325.701C278.877 325.701 279.117 326.792 279.203 327.569C279.357 329.067 276.601 332.996 277.821 334.133C278.435 334.706 280.25 333.976 281.316 333.005C282.381 332.025 283.226 331.082 283.437 330.231C283.706 329.168 284.638 327.532 284.484 326.959C284.206 325.96 283.14 325.544 283.14 325.544Z" fill="#5836E5"/>
<path d="M278.685 325.645C278.685 325.645 279.049 326.394 279.203 327.568C279.203 327.568 280.374 327.846 281.613 327.485C282.314 327.282 283.14 325.544 283.14 325.544C282.573 324.804 282.151 324.323 282.151 324.323L278.685 325.645Z" fill="#FCD2C5"/>
<path d="M268.737 238.592C261.555 239.388 252.155 238.981 249.707 238.084C249.525 240.025 252.04 265.006 255.017 289.145C256.438 300.702 278.963 326.45 278.963 326.45C279.011 326.598 281.536 326.894 282.919 325.267C282.919 325.267 267.671 295.95 268.046 288.554C268.872 271.848 270.811 250.704 268.737 238.583V238.592Z" fill="url(#paint5_linear_1815_787)"/>
<path d="M266.72 329.103C266.72 329.103 266.749 329.722 266.845 330.647C266.845 330.647 268.669 331.396 269.332 331.1C270.503 330.573 271.175 329.602 271.175 329.602C270.474 328.641 270.225 327.846 270.225 327.846L266.73 329.112L266.72 329.103Z" fill="#FCD2C5"/>
<path d="M265.569 234.802C265.569 234.802 263.303 270.211 264.705 287.444C266.327 307.404 266.471 328.456 266.471 328.456C267.835 330.101 270.84 328.752 270.888 328.604C270.888 328.604 285.991 238.176 285.703 234.45C283.245 235.31 272.732 235.698 265.559 234.802H265.569Z" fill="url(#paint6_linear_1815_787)"/>
<path d="M251.954 229.79C251.954 229.79 248.44 237.935 249.804 243.353C249.804 243.353 256.313 246.7 264.244 247.467L267.125 241.384C267.125 241.384 269.506 248.068 270.667 248.207C277.177 249.002 283.889 248.974 288.622 246.82L287.172 237.029L251.945 229.799L251.954 229.79Z" fill="#CE61D4"/>
<path d="M276.928 182.455C276.947 184.406 275.603 189.657 274.777 190.572C275.919 194.317 281.901 195.093 282.612 193.078C281.978 190.72 283.572 186.699 283.639 186.301C282.141 186.32 277.379 182.871 276.937 182.455H276.928Z" fill="#FCD2C5"/>
<path d="M288.507 195.963C287.633 195.306 282.602 193.069 282.602 193.069C282.602 193.069 281.152 194.419 279.702 194.114C277.6 193.679 274.767 190.563 274.767 190.563C274.767 190.563 270.062 191.155 268.478 191.312C263.745 191.756 261.037 195.473 259.434 199.041C255.823 207.085 251.829 225.862 250.792 230.928C250.619 231.76 250.917 232.62 251.599 233.156C259.77 239.572 282.717 240.71 286.98 239.406C290.254 238.408 288.084 214.694 291.253 204.949C292.165 202.157 291.896 198.524 288.497 195.972L288.507 195.963Z" fill="#4D3782"/>
<path d="M214.326 174.356C213.942 174.06 213.078 173.191 212.713 173.052C212.482 172.96 211.753 172.969 211.493 173.126C211.148 173.33 211.253 173.746 211.253 173.746C210.754 173.921 211.436 175.012 211.301 175.031C210.764 175.096 210.696 175.817 212.137 177.009C212.223 177.083 215.161 180.67 216.198 181.743C216.937 181.179 218.656 178.868 218.637 178.831C218.157 178.147 217.581 177.453 216.966 176.797C216.246 176.02 214.451 174.458 214.316 174.356H214.326Z" fill="#FCD2C5"/>
<path d="M264.551 191.404C260.336 190.923 246.779 192.837 240.106 192.55C231.925 192.199 234.595 197.829 237.033 198.699C243.466 201.001 262.256 204.384 263.841 201.296C264.532 199.956 265.319 191.487 264.551 191.404Z" fill="#FCD2C5"/>
<path d="M239.759 193.734C236.303 190.822 221.574 182.187 218.473 178.6C217.503 179.792 216.6 180.726 215.794 181.299C221.017 187.096 235.698 200.123 238.597 198.847C241.247 197.682 241.027 195.592 240.297 194.39C240.134 194.122 239.942 193.891 239.75 193.734H239.759Z" fill="#FCD2C5"/>
<path d="M271.233 191.007C257.542 189.786 239.731 192.431 239.232 192.467C237.657 191.395 235.487 190.018 233.202 188.566C228.209 185.395 221.988 181.456 220.211 179.45L216.236 183.296C220.787 188.205 232.655 198.616 237.628 200.233C242.765 201.981 262.227 205.688 264.272 201.565C264.954 200.187 272.808 191.136 271.243 190.998L271.233 191.007Z" fill="#4D3782"/>
<path d="M288.084 190.389C289.073 187.532 289.034 184.693 288.41 182.271C287.287 180.246 283.283 183.732 283.225 183.797C283.753 185.747 283.984 188.78 283.312 191.156C282.659 193.467 281.123 195.048 282.083 200.706C283.465 208.824 278.348 216.95 280.009 218.023C281.526 218.993 287.277 215.184 288.765 206.447C289.025 204.95 289.226 201.769 288.17 199.347C287.536 197.886 286.624 194.558 288.074 190.389H288.084Z" fill="#5836E5"/>
<path d="M283.83 175.891C280.892 175.697 278.29 178.286 278.089 181.087C278.089 181.115 277.878 183.999 277.878 183.999C277.724 186.116 280.864 189.667 282.803 189.398C287.393 188.779 288.929 180.874 288.842 179.959C288.602 177.417 286.567 176.067 283.83 175.882V175.891Z" fill="#FCD2C5"/>
<path d="M288.248 174.19C286.865 173.284 285.502 173.441 285.502 173.441C285.502 173.441 285.626 172.193 283.111 170.88C281.104 169.826 277.148 170.279 274.028 173.062C270.907 175.845 268.68 180.292 269.822 185.294C270.965 190.286 268.709 193.781 267.364 195.251C265.127 197.701 264.618 201.297 264.628 203.026C264.657 213.113 272.511 218.743 275.084 218.022C277.907 217.227 272.156 206.946 276.371 198.218C279.299 192.144 277.36 190.018 276.947 187.281C276.419 183.703 278.397 179.275 280.077 177.731C281.92 176.021 285.319 176.021 285.319 176.021C285.319 176.021 290.005 177.666 287.556 184.896C290.274 183.01 291.243 176.159 288.257 174.19H288.248Z" fill="#5836E5"/>
<path d="M276.572 181.438C276.448 182.123 277.11 183.297 277.773 183.602C278.205 182.899 279.088 181.475 279.501 180.569C279.146 180.246 278.637 180.052 278.349 180.005C277.6 179.876 276.707 180.717 276.572 181.438Z" fill="#FCD2C5"/>
<path d="M219.328 232.028H198.253V243.113H219.328V232.028Z" fill="url(#paint7_linear_1815_787)"/>
<path d="M198.253 232.027H219.319L244.1 200.778H173.472L198.253 232.027Z" fill="#F0F0F0"/>
<path d="M244.244 194.937H173.337C171.657 194.937 170.293 196.249 170.293 197.867C170.293 199.485 171.657 200.798 173.337 200.798H244.244C245.924 200.798 247.287 199.485 247.287 197.867C247.287 196.249 245.924 194.937 244.244 194.937Z" fill="url(#paint8_linear_1815_787)"/>
<path d="M324.185 220.237L315.282 228.987L321.572 234.92L330.474 226.169L324.185 220.237Z" fill="#D5DBE0"/>
<path d="M311.58 230.049L285.521 255.668C283.102 258.044 283.15 261.862 285.617 264.183C288.085 266.512 292.041 266.475 294.46 264.099L320.519 238.481C322.938 236.105 322.9 232.287 320.432 229.966C317.965 227.636 314.009 227.682 311.589 230.049H311.58Z" fill="white"/>
<path d="M314.825 198.061C314.825 202.018 315.497 205.817 316.688 209.386L328.056 206.206C327.144 203.617 326.692 200.853 326.817 198.014C327.451 184.452 337.811 172.895 352.05 171.934V160.987C331.359 161.634 314.787 177.989 314.815 198.061H314.825Z" fill="#CE61D4"/>
<path d="M354.094 171.86C360.921 171.887 367.594 174.689 372.615 179.154L380.489 171.776C373.691 165.259 364.397 161.163 354.094 160.969V171.86Z" fill="#F0F0F0"/>
<path d="M374.056 180.532C378.627 185.21 381.469 191.385 381.152 198.014C380.499 212.15 369.265 224.114 354.085 224.169V235.078C375.017 234.69 391.848 218.224 391.829 197.977C391.819 188.427 388.055 179.727 381.891 173.163L374.047 180.522L374.056 180.532Z" fill="#5836E5"/>
<path d="M328.785 208.036L317.35 211.235C322.737 224.825 336.179 234.579 352.059 235.078V224.086C342.093 223.328 332.741 216.828 328.785 208.036Z" fill="#4D3782"/>
<path d="M354.863 175.56V199.116H330.399C331.196 210.654 341.143 219.798 353.327 219.798C365.511 219.798 376.332 209.878 376.332 197.646C376.332 185.415 366.846 176.327 354.863 175.569V175.56Z" fill="white"/>
<path d="M334.653 187.458L351.801 195.308V177.021C344.446 177.529 338.119 181.606 334.653 187.468V187.458Z" fill="url(#paint9_linear_1815_787)"/>
<path d="M331.916 196.158H346.529L333.318 190.121C332.53 192.053 332.06 194.078 331.906 196.158H331.916Z" fill="#4D3782"/>
<path d="M205.542 168.412L217.14 177.518C221.326 172.581 221.72 165.953 218.139 160.6L205.542 168.412Z" fill="#F0F0F0"/>
<path d="M193.943 159.306C188.71 165.472 189.661 174.56 196.065 179.59C202.469 184.619 211.908 183.695 217.14 177.528L205.542 168.421L193.943 159.306Z" fill="#4D3782"/>
<path d="M193.943 159.304L205.541 168.42L210.966 154.978C204.802 152.676 198.129 154.377 193.943 159.314V159.304Z" fill="#5836E5"/>
<path d="M214.078 151.382L208.653 164.824L221.25 157.012C219.465 154.331 217.16 152.537 214.078 151.382Z" fill="#CE61D4"/>
<path d="M217.13 175.42C216.766 175.466 216.689 177.547 216.842 177.861C217.457 178.508 217.611 178.406 218.263 178.314C217.937 177.658 217.735 176.89 217.63 176.169C217.601 175.762 217.687 175.318 217.13 175.429V175.42Z" fill="#FCD2C5"/>
<path d="M317.427 234.884C317.178 235.189 317.696 235.716 317.696 235.716C317.293 236.04 318.32 236.844 318.205 236.909C317.725 237.149 317.917 237.852 319.693 238.49C319.799 238.527 320.855 239.22 322.314 238.823C323.217 238.582 323.822 235.67 323.457 235.42C321.181 233.886 317.619 234.653 317.427 234.884Z" fill="#FCD2C5"/>
</g>
</g>
<defs>
<linearGradient id="paint0_linear_1815_787" x1="182.812" y1="335" x2="20.1246" y2="6.686" gradientUnits="userSpaceOnUse">
<stop stop-color="#3E0DA5"/>
<stop offset="1" stop-color="#04F0BF"/>
</linearGradient>
<linearGradient id="paint1_linear_1815_787" x1="226.35" y1="335" x2="99.6704" y2="79.3527" gradientUnits="userSpaceOnUse">
<stop stop-color="#3E0DA5"/>
<stop offset="1" stop-color="#04F0BF"/>
</linearGradient>
<linearGradient id="paint2_linear_1815_787" x1="57.5254" y1="210.404" x2="760.236" y2="210.404" gradientUnits="userSpaceOnUse">
<stop stop-color="#C66FD7"/>
<stop offset="1" stop-color="#5937E5" stop-opacity="0"/>
</linearGradient>
<linearGradient id="paint3_linear_1815_787" x1="170.035" y1="289.063" x2="247.538" y2="289.063" gradientUnits="userSpaceOnUse">
<stop stop-color="#A1D8F6"/>
<stop offset="1" stop-color="#9E90F2"/>
</linearGradient>
<linearGradient id="paint4_linear_1815_787" x1="275.91" y1="207.833" x2="536.225" y2="207.833" gradientUnits="userSpaceOnUse">
<stop stop-color="#63D4FF"/>
<stop offset="1" stop-color="#546BE5"/>
</linearGradient>
<linearGradient id="paint5_linear_1815_787" x1="266.318" y1="326.579" x2="266.318" y2="238.084" gradientUnits="userSpaceOnUse">
<stop stop-color="#A1D8F6"/>
<stop offset="0.21" stop-color="#A0CFF5"/>
<stop offset="0.56" stop-color="#9FB7F4"/>
<stop offset="0.99" stop-color="#9E91F2"/>
<stop offset="1" stop-color="#9E90F2"/>
</linearGradient>
<linearGradient id="paint6_linear_1815_787" x1="274.978" y1="329.26" x2="274.978" y2="234.45" gradientUnits="userSpaceOnUse">
<stop stop-color="#A1D8F6"/>
<stop offset="0.21" stop-color="#A0CFF5"/>
<stop offset="0.56" stop-color="#9FB7F4"/>
<stop offset="0.99" stop-color="#9E91F2"/>
<stop offset="1" stop-color="#9E90F2"/>
</linearGradient>
<linearGradient id="paint7_linear_1815_787" x1="198.253" y1="237.566" x2="219.328" y2="237.566" gradientUnits="userSpaceOnUse">
<stop stop-color="#A1D8F6"/>
<stop offset="1" stop-color="#9E90F2"/>
</linearGradient>
<linearGradient id="paint8_linear_1815_787" x1="170.284" y1="197.877" x2="247.287" y2="197.877" gradientUnits="userSpaceOnUse">
<stop stop-color="#A1D8F6"/>
<stop offset="1" stop-color="#9E90F2"/>
</linearGradient>
<linearGradient id="paint9_linear_1815_787" x1="334.653" y1="186.155" x2="351.801" y2="186.155" gradientUnits="userSpaceOnUse">
<stop stop-color="#A1D8F6"/>
<stop offset="1" stop-color="#9E90F2"/>
</linearGradient>
</defs>
</svg>
