<svg width="110" height="109" viewBox="0 0 110 109" fill="none" xmlns="http://www.w3.org/2000/svg">
<circle cx="54.8404" cy="54.1861" r="54.1861" fill="#68D585"/>
<g clip-path="url(#clip0_259_11)">
<g clip-path="url(#clip1_259_11)">
<g clip-path="url(#clip2_259_11)">
<path d="M74.9191 39.6465L69.6799 44.8856C73.7642 48.9699 76.0586 54.5095 76.0585 60.2855C76.0584 66.0616 73.7637 71.6011 69.6793 75.6853C67.657 77.7076 65.2561 79.3117 62.6138 80.4062C59.9714 81.5006 57.1394 82.0638 54.2794 82.0638C48.5033 82.0637 42.9639 79.769 38.8797 75.6847C36.8426 73.6707 35.2254 71.2725 34.1216 68.6292C33.0179 65.9858 32.4496 63.1497 32.4496 60.2851C32.4496 57.4206 33.0179 54.5845 34.1216 51.9411C35.2254 49.2977 36.8426 46.8996 38.8797 44.8856L52.4539 31.3113L54.3621 29.4031V19.167L33.8791 39.6465C29.7933 43.7097 27.0058 48.8944 25.8698 54.5436C24.7339 60.1927 25.3008 66.052 27.4985 71.3786C29.6962 76.7053 33.4259 81.2596 38.2148 84.4642C43.0037 87.6689 48.6362 89.3796 54.3985 89.3796C60.1607 89.3796 65.7932 87.6689 70.5821 84.4642C75.371 81.2596 79.1007 76.7053 81.2984 71.3786C83.4962 66.052 84.063 60.1927 82.9271 54.5436C81.7912 48.8944 79.0049 43.7097 74.9191 39.6465Z" fill="white"/>
<path d="M68.488 34.5673C68.488 35.321 68.2645 36.0577 67.8458 36.6843C67.4271 37.3109 66.832 37.7993 66.1357 38.0877C65.4395 38.3761 64.6733 38.4515 63.9342 38.3045C63.1951 38.1575 62.5161 37.7946 61.9832 37.2617C61.4503 36.7288 61.0874 36.0498 60.9404 35.3107C60.7934 34.5716 60.8688 33.8054 61.1572 33.1092C61.4456 32.4129 61.934 31.8178 62.5606 31.3991C63.1873 30.9804 63.9239 30.757 64.6776 30.757C65.6881 30.757 66.6573 31.1584 67.3719 31.873C68.0865 32.5876 68.488 33.5568 68.488 34.5673Z" fill="white"/>
</g>
</g>
</g>
<defs>
<clipPath id="clip0_259_11">
<rect width="58.1961" height="70.3293" fill="white" transform="translate(25.2988 19.168)"/>
</clipPath>
<clipPath id="clip1_259_11">
<rect width="58.1961" height="70.3293" fill="white" transform="translate(25.2988 19.168)"/>
</clipPath>
<clipPath id="clip2_259_11">
<rect width="58.1837" height="70.3293" fill="white" transform="translate(25.3047 19.168)"/>
</clipPath>
</defs>
</svg>
