<svg width="109" height="109" viewBox="0 0 109 109" fill="none" xmlns="http://www.w3.org/2000/svg">
<circle cx="54.1861" cy="54.1861" r="54.1861" fill="#473BF0"/>
<path d="M65.9766 68C64.6023 68 63.4234 68.8528 62.9356 70.0588H60.0703V72.5294H62.9356C63.4234 73.7354 64.6023 74.5882 65.9766 74.5882C67.7858 74.5882 69.2578 73.1105 69.2578 71.2941C69.2578 69.4777 67.7858 68 65.9766 68Z" fill="white"/>
<path d="M71.7188 60.9999C71.1794 60.9999 70.6706 61.132 70.2212 61.3645L67.1745 58.8156C66.9533 58.6306 66.6746 58.5293 66.3867 58.5293H60.0703V60.9999H65.9412L68.6126 63.2348C68.4997 63.5674 68.4375 63.9234 68.4375 64.294C68.4375 66.1104 69.9095 67.5881 71.7188 67.5881C73.528 67.5881 75 66.1104 75 64.294C75 62.4776 73.528 60.9999 71.7188 60.9999Z" fill="white"/>
<path d="M71.7188 50.7061C70.3445 50.7061 69.1656 51.5589 68.6778 52.7649H60.0703V55.2355H68.6778C69.1656 56.4414 70.3445 57.2943 71.7188 57.2943C73.528 57.2943 75 55.8165 75 54.0002C75 52.1838 73.528 50.7061 71.7188 50.7061Z" fill="white"/>
<path d="M67.1745 49.1836L70.2212 46.6347C70.6706 46.8673 71.1794 46.9994 71.7188 46.9994C73.528 46.9994 75 45.5216 75 43.7053C75 41.8889 73.528 40.4111 71.7188 40.4111C69.9095 40.4111 68.4375 41.8889 68.4375 43.7053C68.4375 44.0758 68.4997 44.4319 68.6126 44.7645L65.9412 46.9994H60.0703V49.47H66.3867C66.6746 49.47 66.9533 49.3687 67.1745 49.1836Z" fill="white"/>
<path d="M65.9766 40.0003C67.7858 40.0003 69.2578 38.5226 69.2578 36.7062C69.2578 34.8899 67.7858 33.4121 65.9766 33.4121C64.6023 33.4121 63.4234 34.265 62.9356 35.4709H60.0703V37.9415H62.9356C63.4234 39.1475 64.6023 40.0003 65.9766 40.0003Z" fill="white"/>
<path d="M45.3047 53.9996C45.3047 58.7676 49.1686 62.6467 53.918 62.6467C55.2383 62.6467 56.4899 62.3465 57.6094 61.8112V46.188C56.4899 45.6527 55.2383 45.3525 53.918 45.3525C49.1686 45.3525 45.3047 49.2316 45.3047 53.9996Z" fill="white"/>
<path d="M56.3789 33H51.457C50.7775 33 50.2266 33.5531 50.2266 34.2353V35.8432C47.9176 36.3154 45.708 37.2344 43.7399 38.541L42.607 37.4038C42.1265 36.9214 41.3474 36.9214 40.8669 37.4038L37.3866 40.8977C36.9061 41.3801 36.9061 42.1623 37.3866 42.6447L38.5194 43.782C37.2179 45.7579 36.3025 47.9761 35.8321 50.2941H34.2305C33.5509 50.2941 33 50.8472 33 51.5294V56.4706C33 57.1528 33.5509 57.7059 34.2305 57.7059H35.8321C36.3025 60.0239 37.2179 62.2421 38.5194 64.2181L37.3865 65.3554C37.1558 65.5871 37.0262 65.9012 37.0262 66.2288C37.0262 66.5564 37.1558 66.8705 37.3865 67.1022L40.8669 70.5962C41.3474 71.0786 42.1265 71.0786 42.607 70.5962L43.7399 69.459C45.708 70.7656 47.9176 71.6845 50.2266 72.1568V73.7647C50.2266 74.4469 50.7775 75 51.457 75H56.3789C57.0585 75 57.6094 74.4469 57.6094 73.7647V64.4817C56.4542 64.893 55.2118 65.1176 53.918 65.1176C47.8116 65.1176 42.8438 60.1303 42.8438 54C42.8438 47.8697 47.8116 42.8824 53.918 42.8824C55.2118 42.8824 56.4542 43.107 57.6094 43.5183V34.2353C57.6094 33.5531 57.0585 33 56.3789 33Z" fill="white"/>
</svg>
