<svg width="109" height="109" viewBox="0 0 109 109" fill="none" xmlns="http://www.w3.org/2000/svg">
<circle cx="54.1861" cy="54.1861" r="54.1861" fill="#68D585"/>
<g clip-path="url(#clip0_1607_3010)">
<g clip-path="url(#clip1_1607_3010)">
<g clip-path="url(#clip2_1607_3010)">
<path d="M63.3096 43.397L59.4157 44.9776C59.0874 44.7628 58.748 44.5672 58.3984 44.3899L57.8199 40.2275H49.3451L48.7666 44.3899C48.417 44.5672 48.0776 44.7628 47.7493 44.9776L43.8554 43.397L39.618 50.7369L42.9344 53.3196C42.9131 53.7117 42.9131 54.1008 42.9344 54.4929L39.618 57.0757L43.8554 64.4156L47.7493 62.8349C48.0776 63.0498 48.417 63.2453 48.7666 63.4226L49.3451 67.585H57.8199L58.3984 63.4226C58.748 63.2453 59.0874 63.0498 59.4157 62.8349L63.3096 64.4156L67.547 57.0757L64.2306 54.4929C64.2519 54.1008 64.2519 53.7117 64.2306 53.3196L67.547 50.7369L63.3096 43.397ZM53.5825 58.4659C51.0687 58.4659 49.0229 56.4201 49.0229 53.9063C49.2738 47.8574 57.8921 47.8593 58.1421 53.9063C58.1421 56.4201 56.0964 58.4659 53.5825 58.4659Z" fill="white"/>
<path d="M76.5858 53.9064C76.7468 43.2538 68.6692 33.3644 58.2274 31.373L57.6167 34.3509C79.4884 39.4058 78.4152 70.0222 56.4194 73.667L57.1018 72.5521L54.5092 70.9652L51.7337 75.4993L55.027 79.6726L57.4133 77.7895L56.5673 76.7175C67.7085 75.4756 76.8056 65.1626 76.5858 53.9064Z" fill="white"/>
<path d="M38.1749 66.6001C28.2276 54.7024 35.5867 36.1824 50.7512 34.1445L50.0675 35.2644L52.6619 36.8482L55.4317 32.3107L52.1334 28.1416L49.7496 30.0275L50.5944 31.0954C39.4548 32.3399 30.3602 42.6504 30.5801 53.906C30.419 64.5579 38.4966 74.4482 48.9384 76.4392L49.549 73.4614C45.1137 72.5517 41.0743 70.1151 38.1749 66.6001Z" fill="white"/>
</g>
</g>
</g>
<defs>
<clipPath id="clip0_1607_3010">
<rect width="47.7012" height="57.6463" fill="white" transform="translate(30 25)"/>
</clipPath>
<clipPath id="clip1_1607_3010">
<rect width="47.7012" height="57.6463" fill="white" transform="translate(30 25)"/>
</clipPath>
<clipPath id="clip2_1607_3010">
<rect width="47.691" height="57.6463" fill="white" transform="translate(30.0048 25)"/>
</clipPath>
</defs>
</svg>
