<svg width="652" height="500" viewBox="0 0 652 500" fill="none" xmlns="http://www.w3.org/2000/svg">
<g style="mix-blend-mode:darken">
<path opacity="0.8" d="M78.6378 280.788L44.3653 261L14 278.53L48.2725 298.318L78.6378 280.788Z" fill="url(#paint0_linear_1796_945)"/>
<path opacity="0.8" d="M287.022 332.873L142.339 249.339L57.7471 298.176L202.436 381.709L287.022 332.873Z" fill="url(#paint1_linear_1796_945)"/>
<path opacity="0.8" d="M281.767 178.918C285.692 176.647 290.535 176.647 294.461 178.918C323.601 195.74 444.657 265.633 480.203 286.159C482.233 287.334 483.488 289.5 483.488 291.851C483.488 294.195 482.239 296.367 480.203 297.542C479.458 297.973 478.714 298.404 478 298.816C474.074 301.087 469.232 301.087 465.306 298.816C436.165 281.994 315.11 212.101 279.564 191.575C277.534 190.399 276.278 188.233 276.278 185.883C276.278 183.539 277.534 181.367 279.564 180.191L281.767 178.918Z" fill="url(#paint2_linear_1796_945)"/>
<path d="M155.887 63.2334L148.898 59.2031L91.625 92.2696L98.6149 96.2999L155.887 63.2334Z" fill="#ECECEC"/>
<path d="M155.642 63.375L98.6152 96.3V289.955L155.642 257.03V63.375Z" fill="#8EABF8"/>
<path d="M91.6309 92.2637L98.9714 96.5031V290.158L91.6309 285.919V92.2637Z" fill="url(#paint3_linear_1796_945)"/>
<path d="M442.59 102.564C442.59 101.235 440.664 99.0507 438.289 97.6786C414.101 83.7112 295.119 15.0185 270.926 1.05106C268.557 -0.32107 266.631 -0.351836 266.631 0.971071V135.095C266.631 136.424 268.557 138.609 270.926 139.981C295.119 153.948 414.101 222.641 438.289 236.608C440.664 237.98 442.59 238.017 442.59 236.688V102.564Z" fill="#5981ED"/>
<path d="M431.194 123.454C431.194 122.549 430.849 121.479 430.24 120.482C429.631 119.485 428.8 118.648 427.932 118.15C407.867 106.564 301.346 45.064 281.281 33.4778C280.419 32.9794 279.589 32.8625 278.979 33.1517C278.37 33.4409 278.02 34.1116 278.02 35.0161V98.4479C278.02 99.3524 278.364 100.423 278.979 101.42C279.589 102.417 280.419 103.253 281.281 103.752C301.352 115.338 407.867 176.838 427.932 188.424C428.8 188.922 429.625 189.039 430.24 188.756C430.849 188.467 431.194 187.796 431.194 186.886V123.454Z" fill="#2E59CF"/>
<path d="M387.939 110.065C396.811 115.252 404.976 125.324 411.093 134.898C412.895 137.698 415.234 140.276 417.738 141.297C421.516 142.836 424.377 141.285 426.654 139.544C428.02 138.498 429.256 137.261 430.284 135.784C430.284 135.784 430.819 135.101 432.013 136.153L432.394 136.695C432.634 137.28 432.634 137.292 432.69 137.827L432.554 138.246C430.278 141.562 427.238 144.152 423.239 144.768C420.205 145.235 416.101 143.826 412.631 140.085C409.991 137.236 408.084 133.668 405.715 130.363C404.878 129.194 404.023 128.044 403.137 126.918C401.937 125.392 400.7 123.909 399.42 122.488C393.839 116.298 387.169 111.147 381.121 110.009C376.851 109.209 373.38 110.686 370.575 112.766C364.145 117.497 357.444 122.038 348.239 121.891C343.181 121.811 337.114 119.706 331.527 114.698C326.537 110.225 322.39 103.862 319.049 97.9246C315.419 91.5316 310.453 85.5693 304.743 82.6466C297.852 79.1209 291.834 80.0254 286.887 81.8097C283.934 82.8681 281.195 84.2894 278.808 86.2584C278.808 86.2584 278.753 86.8122 277.473 86.0061L277.03 85.5323C276.802 85.1447 276.513 84.7263 276.556 83.8772L276.771 83.5326C281.669 79.4101 288.118 76.9242 295.218 77.3303C300.018 77.6072 305.635 79.6254 310.872 84.2771C315.24 88.1597 318.883 93.5928 321.824 98.8537C326.347 106.877 332.684 114.513 339.699 117.368C346.11 119.977 351.593 118.894 356.275 117.128C361.161 115.282 365.4 112.329 369.529 109.295C373.922 106.114 380.284 105.751 387.52 109.812C387.662 109.892 387.809 109.978 387.951 110.058L387.939 110.065Z" fill="#133695"/>
<path d="M432.001 130.616C432.388 131.151 432.388 131.163 432.628 131.748L432.684 132.296C432.425 133.108 431.933 133.581 431.484 134.123C429.275 136.763 426.635 138.959 423.14 139.587C420.131 140.122 416.034 138.855 412.502 135.107C409.979 132.431 408.133 129.071 405.875 125.976C405.136 124.967 404.38 123.97 403.604 122.998C403.001 122.241 402.386 121.491 401.765 120.752C395.63 113.529 388.093 107.474 381.367 106.36C376.076 105.481 372.224 108.262 368.901 110.735C362.834 115.245 356.429 119.466 347.612 119.393C342.628 119.349 336.653 117.337 331.078 112.384C326.304 108.139 322.378 102.244 319.049 96.4478C315.554 90.4117 310.792 84.8063 305.408 82.0312C298.276 78.3517 292.111 79.4839 287.047 81.459C284.032 82.6342 281.214 84.1909 278.808 86.2645L278.433 86.4245L277.971 86.3384L277.479 86.0369L277.03 85.5631C276.698 84.997 276.698 84.9908 276.525 84.4125L276.544 83.9079C277.067 83.0157 278.021 82.5358 278.87 81.9512C283.552 78.7578 288.887 76.475 295.495 76.7088C300.288 76.8811 305.974 78.7824 311.309 83.5141C315.468 87.1998 318.969 92.3561 321.793 97.297C325.977 104.57 331.657 111.474 338.019 114.452C344.984 117.719 350.916 116.433 355.875 114.446C360.939 112.415 365.246 109.222 369.572 105.93C374.187 102.447 381.281 102.139 388.929 106.674C397.156 111.554 404.958 120.765 411.074 130.111C411.13 130.197 411.191 130.283 411.246 130.376C412.846 132.751 414.864 134.923 416.993 135.944C420.371 137.569 423.073 136.498 425.183 135.206C427.189 133.969 428.906 132.296 430.278 130.277L430.309 130.234C430.61 130.007 430.616 130 431.041 129.994L431.533 130.216C431.693 130.351 431.847 130.493 432.007 130.628L432.001 130.616Z" fill="#09E39E"/>
<path d="M283.052 24.4473C284.079 23.8543 284.078 21.9302 283.05 20.1497C282.022 18.3692 280.357 17.4065 279.329 17.9995C278.302 18.5925 278.303 20.5166 279.331 22.2971C280.359 24.0776 282.025 25.0403 283.052 24.4473Z" fill="#09E39E"/>
<path d="M295.23 31.4795C296.257 30.8865 296.256 28.9624 295.228 27.1819C294.2 25.4014 292.534 24.4388 291.507 25.0318C290.48 25.6247 290.481 27.5488 291.509 29.3293C292.537 31.1098 294.203 32.0725 295.23 31.4795Z" fill="#09E39E"/>
<path d="M307.409 38.5146C308.437 37.9216 308.436 35.9975 307.408 34.2171C306.38 32.4366 304.714 31.4739 303.687 32.0669C302.66 32.6599 302.66 34.584 303.688 36.3645C304.716 38.145 306.382 39.1076 307.409 38.5146Z" fill="#09E39E"/>
<path d="M418.057 177.945C418.057 175.896 416.617 173.404 414.845 172.383C404.68 166.513 373.281 148.386 363.11 142.516C361.338 141.488 359.898 142.319 359.898 144.368V172.512C359.898 174.561 361.338 177.053 363.11 178.074C373.275 183.944 404.674 202.071 414.845 207.941C416.617 208.969 418.057 208.138 418.057 206.089V177.945Z" fill="#7DA0FF"/>
<path d="M383.471 163.64C383.471 162.92 383.225 162.083 382.782 161.314C382.339 160.545 381.736 159.911 381.115 159.554C377.971 157.739 372.445 154.545 369.301 152.736C368.673 152.373 368.076 152.318 367.633 152.57C367.19 152.829 366.944 153.376 366.944 154.096V169.916C366.944 170.636 367.197 171.479 367.633 172.241C368.076 173.011 368.68 173.644 369.301 174.001C372.445 175.816 377.971 179.01 381.115 180.819C381.736 181.182 382.339 181.237 382.782 180.985C383.225 180.733 383.471 180.179 383.471 179.459V163.64Z" fill="#9FB9FF"/>
<path d="M414.119 184.707C414.119 183.495 413.27 182.018 412.218 181.415C407.547 178.72 395.549 171.792 390.879 169.097C389.827 168.494 388.978 168.98 388.978 170.192C388.978 171.404 389.827 172.881 390.879 173.484C395.549 176.179 407.547 183.107 412.218 185.802C413.27 186.405 414.119 185.919 414.119 184.707Z" fill="#9FB9FF"/>
<path d="M409.135 190.903C409.135 189.691 408.286 188.215 407.234 187.612C403.388 185.39 394.719 180.388 390.873 178.167C389.821 177.558 388.972 178.05 388.972 179.262C388.972 180.474 389.821 181.951 390.873 182.554C394.719 184.775 403.388 189.777 407.234 191.999C408.286 192.608 409.135 192.116 409.135 190.903Z" fill="#9FB9FF"/>
<path d="M409.548 195.044C409.548 192.448 407.726 189.291 405.474 187.993L339.907 150.139C337.655 148.841 335.834 149.893 335.834 152.49V188.165C335.834 190.762 337.655 193.918 339.907 195.216C352.792 202.655 392.59 225.631 405.474 233.07C407.726 234.368 409.548 233.316 409.548 230.72V195.044Z" fill="#D4E0FF"/>
<path d="M365.72 176.917C365.72 176 365.406 174.942 364.846 173.97C364.286 172.998 363.523 172.198 362.729 171.736C358.748 169.435 351.74 165.392 347.759 163.091C346.965 162.63 346.202 162.556 345.642 162.882C345.082 163.208 344.769 163.903 344.769 164.82V184.873C344.769 185.79 345.082 186.848 345.642 187.82C346.202 188.792 346.965 189.598 347.759 190.054C351.74 192.355 358.748 196.398 362.729 198.699C363.523 199.154 364.28 199.228 364.846 198.908C365.406 198.582 365.72 197.887 365.72 196.97V176.917Z" fill="white"/>
<path d="M404.557 203.622C404.557 202.084 403.474 200.219 402.145 199.45C396.226 196.029 381.022 187.255 375.097 183.834C373.767 183.065 372.685 183.686 372.685 185.224C372.685 186.763 373.767 188.633 375.097 189.396C381.016 192.817 396.22 201.591 402.145 205.013C403.474 205.782 404.557 205.16 404.557 203.622Z" fill="white"/>
<path d="M398.244 211.474C398.244 209.935 397.168 208.071 395.832 207.302C390.959 204.49 379.976 198.146 375.097 195.328C373.767 194.559 372.685 195.18 372.685 196.718C372.685 198.257 373.761 200.121 375.097 200.89C379.97 203.702 390.953 210.046 395.832 212.864C397.161 213.633 398.244 213.012 398.244 211.474Z" fill="white"/>
<path d="M229.663 140.675C229.663 138.866 228.389 138.128 226.827 139.039C217.843 144.226 190.105 160.242 181.122 165.429C179.553 166.334 178.285 168.536 178.285 170.345V195.216C178.285 197.025 179.559 197.757 181.122 196.853C190.105 191.666 217.843 175.649 226.827 170.462C228.396 169.558 229.663 167.355 229.663 165.546V140.675Z" fill="#648DFF"/>
<path d="M199.106 163.318C199.106 162.678 198.885 162.192 198.497 161.971C198.103 161.743 197.574 161.798 197.02 162.118C194.245 163.724 189.36 166.542 186.585 168.142C186.031 168.462 185.502 169.022 185.108 169.699C184.721 170.376 184.499 171.114 184.499 171.754V185.734C184.499 186.374 184.721 186.86 185.108 187.081C185.502 187.309 186.031 187.253 186.585 186.934C189.36 185.328 194.245 182.509 197.02 180.91C197.574 180.59 198.103 180.03 198.497 179.353C198.891 178.676 199.106 177.938 199.106 177.298V163.318Z" fill="#A8BFFF"/>
<path d="M226.18 150.669C226.18 149.598 225.43 149.161 224.501 149.696C220.372 152.078 209.776 158.2 205.648 160.581C204.718 161.117 203.968 162.421 203.968 163.492C203.968 164.562 204.718 164.999 205.648 164.464C209.776 162.083 220.372 155.96 224.501 153.579C225.43 153.044 226.18 151.739 226.18 150.669Z" fill="#A8BFFF"/>
<path d="M221.781 161.227C221.781 160.157 221.03 159.72 220.101 160.255C216.705 162.218 209.044 166.636 205.648 168.599C204.718 169.134 203.968 170.438 203.968 171.509C203.968 172.58 204.718 173.016 205.648 172.481C209.044 170.518 216.705 166.1 220.101 164.138C221.03 163.602 221.781 162.298 221.781 161.227Z" fill="#A8BFFF"/>
<path opacity="0.8" d="M142.284 408.321C162.816 408.321 179.461 398.712 179.461 386.859C179.461 375.006 162.816 365.397 142.284 365.397C121.752 365.397 105.107 375.006 105.107 386.859C105.107 398.712 121.752 408.321 142.284 408.321Z" fill="url(#paint4_linear_1796_945)"/>
<path d="M260.411 301.923L259.1 303.547C259.1 303.547 252.972 309.657 250.745 313.109C248.517 316.555 251.335 319.33 256.461 317.102C261.592 314.875 261.955 314.629 261.955 314.629L267.382 308.353L268.108 300.698L260.417 301.917L260.411 301.923Z" fill="#010324"/>
<path d="M270.335 302.993L264.409 307.916C264.409 307.916 260.515 314.493 259.038 318.37C257.561 322.246 258.016 326.037 264.133 324.394C270.249 322.751 271.75 316.229 274.125 314.081V307.307L270.335 302.987V302.993Z" fill="#010324"/>
<path d="M249.636 226.4L244.88 231.064C244.88 231.064 254.122 290.238 259.093 303.547C259.093 303.547 262.65 306.169 265.591 303.541C268.532 300.914 265.043 227.028 265.043 227.028L249.63 226.4H249.636Z" fill="#212121"/>
<path d="M245.151 232.72C246.542 234.27 248.659 236.578 249.982 237.796C252.086 239.74 253.403 255.781 250.984 259.855C250.671 260.378 250.24 260.372 249.717 259.947C247.557 247.709 245.791 236.756 245.158 232.72H245.151Z" fill="#403B3C"/>
<path d="M254.079 230.529C254.079 230.529 263.253 299.247 264.41 307.916C264.41 307.916 268.73 312.26 274.218 307.221C274.218 307.221 276.735 261.399 277.012 233.926C277.295 206.446 254.079 230.523 254.079 230.523V230.529Z" fill="#212121"/>
<path d="M254.897 236.658C260.78 239.636 267.099 238.959 267.474 242.663C267.843 246.367 268.865 257.584 269.763 274.893C270.243 284.098 265.665 285.279 261.272 284.362L258.817 265.971L254.904 236.651L254.897 236.658Z" fill="url(#paint5_linear_1796_945)"/>
<path d="M275.147 236.049L273.904 239.501C273.904 239.501 271.972 242.848 273.517 244.478C275.061 246.109 278.199 242.768 277.424 246.189C276.648 249.61 276.759 252.57 280.986 248.792C285.207 245.008 282.395 237.679 282.395 237.679L275.141 236.049H275.147Z" fill="#FFB56D"/>
<path d="M225.27 219.639C225.27 219.639 222.175 223.509 218.225 221.306C214.275 219.103 213.377 221.183 214.804 222.974C214.804 222.974 209.998 222.364 209.389 225.706C208.78 229.047 217.579 232.548 224.784 225.989C231.996 219.429 225.27 219.633 225.27 219.633V219.639Z" fill="#FFB56D"/>
<path d="M261.026 187.243L264.515 190.147C264.515 190.147 273.738 191.926 277.184 203.093C280.636 214.261 282.605 237.834 282.605 237.834C282.605 237.834 279.873 242.547 273.898 239.507L271.357 232.148C271.357 232.148 266.293 236.326 259.002 236.978C251.711 237.637 244.874 231.065 244.874 231.065C244.874 231.065 247.176 215.695 247.502 208.859C247.502 208.859 236.592 223.971 224.373 229.029C224.373 229.029 220.17 227.847 220.625 220.685C220.625 220.685 228.84 214.901 234.95 205.641C241.06 196.38 246.185 188.431 254.726 188.886C263.266 189.348 261.014 187.243 261.014 187.243H261.026Z" fill="#5D025D"/>
<path d="M251.679 235.557C254.86 228.284 266.274 228.333 265.991 221.011C265.695 213.184 264.883 203.518 266.772 209.929C268.55 215.935 271.03 230.204 271.332 231.963L271.362 232.142C271.362 232.142 266.292 236.32 259.007 236.972C256.404 237.212 253.863 236.523 251.679 235.551V235.557Z" fill="#200141"/>
<path d="M232.34 224.358C229.202 223.497 229.534 221.263 233.657 216.304C238.111 210.969 248.03 194.86 248.055 198.731C248.079 202.355 247.575 208.083 247.513 208.791V208.865C247.513 208.865 240.966 217.928 232.334 224.358H232.34Z" fill="#200141"/>
<path d="M248.036 171.43C247.273 175.164 245.311 178.549 246.781 183.933C248.252 189.316 253.248 188.892 253.248 188.892V190.522C253.248 190.522 254.171 192.122 257.328 192.331C260.478 192.541 264.514 190.147 264.514 190.147C264.514 190.147 262.804 186.738 264.736 179.908C266.662 173.109 266.766 169.51 262.182 166.458C258.404 163.941 249.249 165.473 248.036 171.436V171.43Z" fill="#FFB56D"/>
<path d="M248.036 171.43C247.273 175.164 245.311 178.549 246.781 183.933C248.252 189.316 253.248 188.892 253.248 188.892V190.522C253.248 190.522 254.171 192.122 257.328 192.331C260.478 192.541 264.514 190.147 264.514 190.147C264.514 190.147 262.804 186.738 264.736 179.908C266.662 173.109 266.766 169.51 262.182 166.458C258.404 163.941 249.249 165.473 248.036 171.436V171.43Z" fill="#FFB56D"/>
<path d="M264.681 180.117C262.841 186.812 264.521 190.147 264.521 190.147C264.521 190.147 260.484 192.546 257.328 192.337C254.171 192.128 253.255 190.522 253.255 190.522V188.891C253.255 188.891 253.168 188.898 253.015 188.898C253.095 188.898 253.175 188.891 253.255 188.891C254.645 188.879 257.894 188.116 259.457 184.111C260.934 180.32 263.407 180.16 264.687 180.117H264.681Z" fill="#FF886D"/>
<path d="M248.979 169.196C251.71 165.122 258.94 164.292 262.189 166.458C266.773 169.51 266.669 173.109 264.743 179.908C264.533 180.647 264.367 181.354 264.238 182.013C262.989 181.256 262.208 180.677 262.208 180.677C262.208 180.677 264.921 178.487 263.1 177.238C261.285 175.989 259.457 177.982 259.457 177.982C258.522 175.275 259.894 171.571 252.88 170.469C251.021 170.18 249.748 169.737 248.979 169.196Z" fill="#212121"/>
<path d="M286.69 279.421L167.247 210.458L110.227 243.383L229.663 312.34L286.69 279.421Z" fill="#F9FAFF"/>
<path d="M110.227 243.383L229.663 312.346V365.613L110.227 296.656V243.383Z" fill="url(#paint6_linear_1796_945)"/>
<path d="M286.69 279.421L229.663 312.34V365.613L286.69 332.688V279.421Z" fill="url(#paint7_linear_1796_945)"/>
<path d="M115.715 374.837C115.715 374.837 116.349 379.6 119.13 376.806C121.905 374.013 119.727 369.816 119.727 369.816L115.715 374.831V374.837Z" fill="black"/>
<path d="M132.439 258.496C132.439 258.496 135.177 257.167 131.553 251.174C127.928 245.18 129.504 239.987 135.638 238.498C143.772 236.523 145.385 238.154 147.44 246.743C149.458 255.185 148.88 256.484 146.258 257.093C141.644 258.176 145.557 263.092 146.818 264.507C148.08 265.929 144.48 266.322 137.89 264.507C131.3 262.692 132.439 258.49 132.439 258.49V258.496Z" fill="#FFA594"/>
<path d="M132.278 252.515C133.343 251.899 134.66 251.702 136.29 252.145C136.29 252.145 137.779 254.262 139.453 253.807C141.126 253.364 139.847 253.093 141.354 252.865C142.855 252.638 144.209 253.967 145.058 255.13C145.803 256.145 147.538 256.09 148.449 255.388C148.129 256.428 147.372 256.822 146.246 257.092C141.631 258.175 145.544 263.092 146.806 264.513C146.867 264.581 146.923 264.648 146.96 264.716C146.381 264.802 145.754 264.864 145.058 264.901C143.458 264.987 142.012 265.091 140.72 265.202C139.847 265.024 138.893 264.796 137.878 264.513C131.288 262.698 132.426 258.495 132.426 258.495C132.426 258.495 134.74 257.363 132.284 252.515H132.278Z" fill="#FF7A60"/>
<path d="M133.337 255.48C133.165 254.416 132.648 253.019 131.534 251.173C127.91 245.18 129.485 239.981 135.62 238.498C140.351 237.347 142.868 237.415 144.56 239.366C144.597 239.858 144.56 240.172 144.56 240.172C144.56 240.172 145.292 242.374 142.702 244.017C140.105 245.666 141.723 247.5 141.176 248.731C140.628 249.961 137.576 248.226 137.705 250.736C137.829 253.247 141.176 252.939 141.176 252.939C141.176 252.939 140.745 255.96 139.459 256.533C139.459 256.533 136.198 254.354 133.337 255.487V255.48Z" fill="#373737"/>
<path d="M113.302 366.235L110.287 366.537C110.287 366.537 108.097 369.853 106.073 371.551C104.042 373.25 103.55 374.234 104.922 383.439C106.294 392.644 109.469 395.388 113.302 392.699C117.136 390.011 116.865 386.233 117.413 379.655C117.413 379.655 117.136 376.64 119.714 374.228C122.292 371.816 117.523 364.691 113.302 366.229V366.235Z" fill="#EE9F2A"/>
<path d="M104.344 373.939C105.513 373.225 106.91 372.905 108.516 373.434C113.666 375.126 114.958 385.106 114.146 392.022C113.887 392.256 113.604 392.478 113.29 392.705C109.451 395.388 106.27 392.644 104.904 383.439C104.098 378.055 103.938 375.483 104.344 373.939Z" fill="#212121"/>
<path d="M159.136 380.079L157.813 384.356C157.813 384.356 159.124 390.127 159.136 391.739C159.149 393.352 161.641 395.105 165.954 394.127C170.267 393.142 178.506 388.263 180.334 386.577C182.155 384.891 180.906 380.547 175.122 381.815C171.104 382.694 169.843 381.082 169.843 381.082L159.136 380.073V380.079Z" fill="#EE9F2A"/>
<path d="M150.854 280.407C150.854 280.407 159.789 281.521 161.185 288.283C162.582 295.045 152.091 291.28 152.091 291.28L150.854 280.407Z" fill="#FFA594"/>
<path d="M127.517 300.324L120.607 301.616C120.607 301.616 121.764 337.777 123.105 342.195C123.105 342.195 111.919 364.051 110.288 366.537C110.288 366.537 115.937 366.795 117.739 369.792C119.536 372.788 119.112 377.157 119.112 377.157C119.112 377.157 137.306 359.787 140.967 347.579C144.628 335.371 142.469 325.945 142.469 325.945L129.787 299.025L127.529 300.33L127.517 300.324Z" fill="#212121"/>
<path d="M143.022 330.947C143.213 334.867 142.973 340.792 140.949 347.573C139.995 350.729 138.081 354.23 135.756 357.688C135.516 356.144 135.485 353.443 136.629 349.216C138.654 341.734 137.54 336.491 139.183 333.802C139.995 332.473 141.49 331.15 143.029 330.947H143.022Z" fill="#564D4E"/>
<path d="M151.303 299.752L156.361 301.967C156.361 301.967 167.757 366.371 169.633 379.483L169.842 381.089C169.842 381.089 168.298 383.507 163.142 384.313C157.985 385.119 157.37 384.079 157.37 384.079C157.37 384.079 140.658 332.732 135.225 310.778C129.792 288.824 151.303 299.752 151.303 299.752Z" fill="#212121"/>
<path d="M150.468 299.364C150.984 299.598 151.286 299.746 151.286 299.746L156.344 301.967C156.344 301.967 162.128 334.646 166.133 358.194C163.364 354.342 152.757 311.19 150.301 311.19C147.846 311.19 143.515 307.979 143.515 307.979C143.515 307.979 146.474 303.481 150.474 299.37L150.468 299.364Z" fill="#564D4E"/>
<path d="M136.334 309.431C136.334 309.431 133.565 311.996 132.814 316.919C132.064 321.841 134.986 326.105 139.047 323.693C143.108 321.281 140.106 318.451 141.835 317.423C143.564 316.396 144.8 315.061 144.339 313.264C143.877 311.467 136.334 309.431 136.334 309.431Z" fill="#FFA594"/>
<path d="M133.99 309.67C133.737 309.621 133.485 309.566 133.227 309.516C118.047 306.126 120.435 298.73 120.435 298.73C120.435 298.73 124.846 293.728 123.683 280.129C122.52 266.531 125.357 258.12 133.971 258.483C143.97 258.908 150.585 261.744 152.08 270.192C153.003 275.435 152.929 280.874 152.929 280.874C152.929 280.874 156.116 300.354 156.344 301.973C156.344 301.973 152.498 307.277 145.028 309.35C144.468 311.602 144.118 313.067 144.118 313.067C135.848 317.891 133.996 311.375 133.996 311.375C133.959 310.925 133.959 310.353 133.99 309.683V309.67Z" fill="#650261"/>
<path d="M136.899 292.934C135.152 301.53 133.983 309.658 133.983 309.67C133.731 309.621 133.478 309.566 133.22 309.517C131.915 309.221 130.734 308.901 129.676 308.557C131.805 303.973 134.672 297.795 136.899 292.934ZM149.827 290.448C151.753 298.256 153.556 300.644 154.331 304.133C152.479 305.843 149.359 308.144 145.028 309.344L145.009 309.43C145.009 309.43 146.08 304.182 149.661 291.107C149.722 290.891 149.778 290.664 149.833 290.448H149.827Z" fill="#200141"/>
<path d="M145.453 260.907C148.972 262.698 151.274 265.627 152.074 270.186C152.996 275.428 152.923 280.868 152.923 280.868C152.923 280.868 153.378 283.674 153.963 287.236C153.335 287.298 152.837 286.922 152.64 286.258C152.074 284.313 152.455 282.867 149.102 292.743C145.742 302.613 146.117 285.882 148.191 280.486C150.258 275.09 150.197 271.011 147.354 267.749C145.373 265.467 145.305 262.495 145.447 260.907H145.453Z" fill="#200141"/>
<path d="M240.578 100.213L148.461 47.0264L91.4346 79.9513L183.558 133.138L240.578 100.213Z" fill="#F9FAFF"/>
<path d="M91.582 79.8652L183.552 132.966V145.34L91.582 92.239V79.8652Z" fill="url(#paint8_linear_1796_945)"/>
<path d="M240.578 100.041L183.552 132.966V145.34L240.578 112.415V100.041Z" fill="#8EABF8"/>
<path opacity="0.8" d="M651.671 317.372L602.533 289L559 314.135L608.138 342.507L651.671 317.372Z" fill="url(#paint9_linear_1796_945)"/>
<path d="M624 264.161L588.903 243.899L556.372 262.679L591.469 282.941L624 264.161Z" fill="#F9FAFF"/>
<path d="M555.861 262.383L591.469 282.94V313.324L555.861 292.773V262.383Z" fill="#6F8FE6"/>
<path d="M624 264.161L591.469 282.94V313.33L624 294.545V264.161Z" fill="#8EABF8"/>
<path opacity="0.8" d="M446.89 357.819C450.816 355.549 455.388 355.395 458.877 357.407C484.756 372.346 493.992 377.681 525.551 395.9C527.354 396.94 528.326 398.946 528.098 401.161C527.871 403.376 526.48 405.462 524.443 406.637L522.241 407.911C518.315 410.182 513.743 410.335 510.255 408.323C484.375 393.384 475.139 388.049 443.58 369.83C441.777 368.79 440.805 366.784 441.033 364.569C441.26 362.354 442.651 360.268 444.688 359.093L446.89 357.819Z" fill="url(#paint10_linear_1796_945)"/>
<path d="M524.327 251.141C524.327 244.034 519.343 235.395 513.183 231.845C499.044 223.68 474.795 209.682 460.655 201.517C454.502 197.966 449.512 200.84 449.512 207.947V316.948C449.512 324.055 454.502 332.693 460.655 336.244C474.795 344.409 499.044 358.407 513.183 366.572C519.337 370.123 524.327 367.243 524.327 360.142V251.141Z" fill="#A6BCF2"/>
<path d="M509.696 259.589C509.696 252.482 504.712 243.844 498.553 240.293C484.413 232.128 460.164 218.13 446.024 209.965C439.871 206.415 434.881 209.288 434.881 216.395V325.396C434.881 332.503 439.871 341.142 446.024 344.692C460.164 352.857 484.413 366.855 498.553 375.02C504.706 378.571 509.696 375.691 509.696 368.59V259.589Z" fill="white"/>
<path d="M434.899 253.94V216.401C434.899 209.3 439.889 206.42 446.042 209.971L488.449 234.454C488.787 237.087 488.972 239.696 488.972 242.243C488.972 267.612 471.128 277.913 449.162 265.231C444.141 262.327 439.323 258.469 434.893 253.946L434.899 253.94Z" fill="#E2E9FA"/>
<path d="M464.219 336.441C464.686 341.695 468.354 347.695 472.796 350.26C477.159 352.777 480.764 351.11 481.337 346.587L509.708 367.477V368.59C509.708 375.697 504.718 378.577 498.565 375.02C484.425 366.861 460.182 352.857 446.043 344.692C439.89 341.142 434.899 332.503 434.899 325.396V323.279L464.219 336.435V336.441Z" fill="#E2E9FA"/>
<path d="M502.879 307.737C502.879 306.562 502.159 305.19 501.279 304.685L446.726 273.187C445.846 272.677 445.126 273.218 445.126 274.394V278.658C445.126 279.833 445.84 281.205 446.726 281.709L501.279 313.207C502.159 313.718 502.879 313.176 502.879 312.001V307.737Z" fill="#E2E9FA"/>
<path d="M484.345 310.462C484.345 309.829 483.964 309.096 483.49 308.819L445.993 287.167C445.519 286.896 445.132 287.185 445.132 287.819V290.108C445.132 290.736 445.519 291.474 445.993 291.745L483.49 313.397C483.964 313.668 484.345 313.379 484.345 312.751V310.462Z" fill="#E2E9FA"/>
<path d="M477.249 348.033C479.715 346.609 479.715 341.991 477.248 337.718C474.78 333.445 470.781 331.135 468.315 332.559C465.849 333.982 465.85 338.601 468.317 342.874C470.784 347.147 474.783 349.457 477.249 348.033Z" fill="#A6BCF2"/>
<path opacity="0.8" d="M440 448.364C455.085 448.364 467.313 441.303 467.313 432.594C467.313 423.884 455.085 416.823 440 416.823C424.915 416.823 412.687 423.884 412.687 432.594C412.687 441.303 424.915 448.364 440 448.364Z" fill="url(#paint11_linear_1796_945)"/>
<path d="M448.245 432.064L448.731 437.35C448.731 437.35 449.248 440.365 452.509 439.079C455.764 437.793 459.93 438.033 461.48 440.98C463.025 443.928 456.367 446.278 449.79 447.613C443.212 448.948 441.04 448.019 439.877 445.349C439.619 442.925 440.326 442.968 439.742 438.334C439.206 434.113 448.245 432.064 448.245 432.064Z" fill="#080343"/>
<path d="M420.267 420.404L418.735 423.911C421.024 425.308 418.348 430.323 421.154 430.963C424.279 431.67 425.559 431.818 427.091 430.397C428.186 429.388 432.832 423.942 432.555 420.109C432.284 416.282 427.737 419.875 425.535 419.986C423.326 420.096 420.261 420.404 420.261 420.404H420.267Z" fill="#080343"/>
<path d="M418.224 347.645L414.465 349.811C414.465 349.811 415.689 383.683 416.52 403.478C417.344 423.272 418.741 423.912 418.741 423.912C418.741 423.912 420.587 428.391 428.537 423.789C428.537 423.789 433.484 390.402 433.798 381.185C434.118 371.968 424.057 348.229 424.057 348.229L418.231 347.639L418.224 347.645Z" fill="url(#paint12_linear_1796_945)"/>
<path d="M439.458 344.199L447.359 354.013C447.359 354.013 449.765 422.86 448.614 437.572C448.614 437.572 443.956 442.925 439.741 438.335C439.741 438.335 427.078 368.018 423.713 354.469C420.353 340.926 439.458 344.199 439.458 344.199Z" fill="url(#paint13_linear_1796_945)"/>
<path d="M425.091 346.765C425.965 347.423 426.876 348.475 427.823 349.952C427.823 349.952 433.589 345.583 434.499 348.881C435.41 352.192 447.181 407.957 448.867 417.734L448.885 417.832C448.953 426.564 448.891 433.824 448.602 437.565C448.602 437.565 443.944 442.918 439.723 438.328C439.723 438.328 427.06 368.011 423.701 354.468C422.796 350.807 423.528 348.371 425.091 346.771V346.765Z" fill="#22197E"/>
<path d="M441.458 274.029C441.458 274.029 443.864 270.313 442.006 268.159C440.147 266.006 441.507 261.133 444.873 262.942C448.239 264.751 447.174 269.815 448.232 270.799C449.297 271.784 451.5 273.605 449.869 274.583C448.239 275.562 445.937 279.524 445.937 279.524L441.452 274.023L441.458 274.029Z" fill="url(#paint14_linear_1796_945)"/>
<path d="M480.229 316.24C480.229 316.24 479.245 314.646 480.869 312.486C482.494 310.326 484.899 302.426 486.598 302.814C488.296 303.201 486.487 308.708 486.487 308.708C486.487 308.708 489.496 310.726 488.874 313.661C488.253 316.596 484.758 319.347 484.758 319.347L480.229 316.246V316.24Z" fill="url(#paint15_linear_1796_945)"/>
<path d="M419.72 314.627C419.529 316.098 418.987 307.576 423.202 296.562C427.417 285.548 441.464 274.029 441.464 274.029C441.464 274.029 447.679 275.346 447.839 280.779C447.839 280.779 435.976 301.324 434.229 307.256C432.481 313.187 419.91 313.157 419.72 314.621" fill="#200141"/>
<path d="M441.76 297.977C440.597 298.881 439.237 299.257 438.48 299.81C436.886 300.998 436.862 303.564 436.862 303.564L426.438 302.536C426.438 302.536 428.586 299.01 428.924 297.706C429.072 297.128 429.367 295.3 429.681 293.43V293.417C430.056 290.999 430.407 288.52 430.407 288.52L441.23 282.483C441.23 282.483 443.015 286.317 443.716 291.971C444.122 295.294 443.07 296.968 441.76 297.977Z" fill="url(#paint16_linear_1796_945)"/>
<path d="M441.76 297.977C440.597 298.882 439.237 299.257 438.48 299.811C436.886 300.998 436.862 303.564 436.862 303.564L426.438 302.537C426.438 302.537 428.586 299.011 428.924 297.707C429.072 297.128 429.367 295.301 429.681 293.43V293.418C431.816 292.23 433.65 291.947 433.65 291.947C433.65 291.947 434.474 294.568 437.237 294.888C439.489 295.147 440.449 296.402 441.76 297.977Z" fill="#E76258"/>
<path d="M428.894 297.743C428.894 297.743 430.481 297.571 432.216 298.352C433.945 299.133 435.034 299.982 435.41 299.22C435.785 298.457 436.585 294.931 436.64 294.531C436.696 294.137 434.757 293.485 434.321 291.799C433.884 290.119 435.483 289.861 436.708 290.168C437.932 290.476 438.111 290.439 438.234 288.667C438.363 286.889 438.369 286.249 438.369 286.249C438.369 286.249 442.289 285.271 442.781 282.034C443.273 278.804 440.006 277.265 438.019 277.481C436.031 277.702 434.481 281.302 433.01 281.893C431.539 282.483 427.306 283.886 426.863 287.43C426.42 290.974 429.287 295.232 428.906 297.73" fill="#373737"/>
<path d="M485.594 322.005C483.895 323.937 475.201 333.978 472.039 337.8C469.99 340.298 463.873 344.562 457.259 342.796C454.656 342.094 451.955 340.458 449.414 337.412C448.497 336.329 447.605 335.061 446.743 333.591C446.743 333.591 446.553 341.424 446.663 345.362C446.688 346.358 446.756 347.429 446.823 348.469C447.051 351.521 447.389 354.314 447.389 354.314C447.389 354.314 443.907 356.825 439.046 358.394C435.336 359.581 430.807 360.215 426.395 358.769C416.206 355.41 414.637 349.521 414.637 349.521C414.637 349.521 414.784 345.7 415.123 340.587C415.566 333.985 416.323 325.223 417.498 319.623C419.602 309.674 421.91 305.127 422.802 303.016C423.528 301.318 428.863 299.995 434.253 301.736C435.508 302.13 436.763 302.696 437.963 303.465C444.337 307.545 454.539 320.448 458.336 324.878C460.428 327.333 461.505 328.508 462.667 328.441C463.326 328.416 464.015 327.979 464.932 327.13C464.944 327.118 464.956 327.106 464.975 327.106C465.301 326.81 465.664 326.453 466.058 326.053L466.218 325.893C469.836 322.208 480.69 312.351 480.69 312.351C480.69 312.351 482.646 311.92 484.498 313.04C485.04 313.366 485.563 313.821 486.037 314.473C488.104 317.31 487.28 320.091 485.594 322.017" fill="#60025E"/>
<path d="M446.823 348.463C447.051 351.515 447.389 354.309 447.389 354.309C447.389 354.309 443.907 356.819 439.046 358.388C435.336 359.576 430.813 360.21 426.395 358.764C416.2 355.404 414.637 349.516 414.637 349.516C414.637 349.516 414.784 345.695 415.123 340.581C417.836 340.163 421.294 340.12 425.614 340.889C439.575 343.375 438.197 331.561 437.145 324.891C436.105 318.209 437.145 318.006 437.145 318.006L446.743 333.585C446.743 333.585 446.559 341.418 446.663 345.356C446.688 346.353 446.756 347.424 446.823 348.463Z" fill="#200141"/>
<path d="M447.39 354.309C447.39 354.309 443.907 356.819 439.046 358.382C438.37 354.709 437.951 352.333 437.951 352.333L446.824 348.457C447.052 351.509 447.39 354.302 447.39 354.302" fill="#200141"/>
<path d="M462.674 328.429C460.877 329.346 458.748 330.127 457.204 329.696C454.035 328.804 444.233 321.082 437.145 311.674C432.973 306.124 433.293 303.195 434.253 301.725C435.508 302.118 436.763 302.684 437.963 303.454C444.338 307.533 454.539 320.436 458.336 324.866C460.428 327.321 461.511 328.497 462.667 328.429" fill="#200141"/>
<path d="M485.595 322.005C483.896 323.937 475.202 333.978 472.039 337.8C469.99 340.298 463.874 344.562 457.26 342.796C458.743 340.015 464.28 337.855 468.341 332.576C472.796 326.81 481.466 316.59 484.499 313.027C485.041 313.353 485.564 313.809 486.038 314.461C488.105 317.298 487.28 320.079 485.595 322.005Z" fill="#200141"/>
<path opacity="0.8" d="M571.505 217.893L533.589 196L500 215.394L537.915 237.281L571.505 217.893Z" fill="url(#paint17_linear_1796_945)"/>
<path d="M544.12 174.094L517.041 158.459L491.942 172.949L519.022 188.584L544.12 174.094Z" fill="#C1D2FF"/>
<path d="M491.549 172.729L519.022 188.585V212.034L491.549 196.172V172.729Z" fill="#6F8FE6"/>
<path d="M544.121 174.094L519.022 188.584V212.033L544.121 197.543V174.094Z" fill="#8EABF8"/>
<path d="M53.0578 245.037L25.9782 229.402L0.879883 243.899L27.9595 259.534L53.0578 245.037Z" fill="#C1D2FF"/>
<path d="M0.486328 243.672L27.9597 259.534V282.978L0.486328 267.115V243.672Z" fill="#6F8FE6"/>
<path d="M53.0583 245.043L27.96 259.533V282.977L53.0583 268.486V245.043Z" fill="#8EABF8"/>
<path opacity="0.8" d="M259.561 490.736C274.646 490.736 286.875 483.675 286.875 474.966C286.875 466.256 274.646 459.195 259.561 459.195C244.477 459.195 232.248 466.256 232.248 474.966C232.248 483.675 244.477 490.736 259.561 490.736Z" fill="url(#paint18_linear_1796_945)"/>
<path opacity="0.8" d="M355.868 499.669C370.953 499.669 383.181 492.609 383.181 483.899C383.181 475.189 370.953 468.129 355.868 468.129C340.783 468.129 328.555 475.189 328.555 483.899C328.555 492.609 340.783 499.669 355.868 499.669Z" fill="url(#paint19_linear_1796_945)"/>
<path opacity="0.8" d="M555.5 439.363C565.717 439.363 574 434.581 574 428.682C574 422.782 565.717 418 555.5 418C545.283 418 537 422.782 537 428.682C537 434.581 545.283 439.363 555.5 439.363Z" fill="url(#paint20_linear_1796_945)"/>
<path d="M237.718 399.486C237.718 399.486 240.148 400.722 241.668 399.246C243.188 397.769 241.588 391.868 237.718 399.486Z" fill="#212121"/>
<path d="M232.949 392.951L230.986 395.948C230.986 395.948 230.641 399.018 229.946 400.519C229.251 402.021 225.94 404.002 226.599 407.005C227.263 410.001 230.051 410.106 232.77 407.596C235.49 405.085 236.499 405.817 237.717 407.214C238.936 408.611 241.692 407.909 241.865 405.608C242.037 403.307 240.259 403.171 240.049 400.833C239.84 398.501 241.372 396.126 241.372 396.126V392.397L232.943 392.951H232.949Z" fill="#FB876D"/>
<path d="M274.912 385.733L277.072 386.982C277.072 386.982 279.238 389.942 279.558 391.265C279.878 392.588 277.773 392.729 277.773 392.729C277.773 392.729 280.112 398.938 273.565 397.283C267.018 395.621 270.051 389.45 270.051 389.45L274.918 385.746L274.912 385.733Z" fill="#FB876D"/>
<path d="M270.045 386.871L273.916 392.674C273.916 392.674 275.891 399.59 274.47 425.593C273.042 451.595 272.156 459.262 272.064 461.089C271.971 462.917 272.513 466.086 278.444 469.39C284.376 472.694 283.422 476.86 279.595 476.774C275.768 476.681 265.911 474.232 262.834 472.22C259.758 470.214 261.05 464.904 261.007 462.092C260.964 459.28 256.693 406.346 256.693 397.202C256.693 388.059 270.058 386.865 270.058 386.865L270.045 386.871Z" fill="#4945AF"/>
<path d="M258.41 426.362C262.225 410.856 266.76 395.479 266.76 395.479C266.76 395.479 268.261 396.747 268.495 400.691C268.729 404.635 267.314 428.608 266.803 440.274C266.532 446.488 269.326 455.638 272.63 454.026C271.885 465.144 272.113 459.822 272.058 461.096C271.965 462.923 272.501 466.092 278.438 469.396C278.488 469.421 278.549 469.458 278.611 469.488C277.011 471.87 274.673 473.728 271.319 474.682C270.907 474.798 270.501 474.909 270.113 475.002C267.086 474.165 264.243 473.156 262.828 472.226C259.752 470.221 261.044 464.911 261.001 462.099C260.976 460.517 259.61 442.993 258.422 426.368L258.41 426.362Z" fill="#353288"/>
<path d="M267.997 391.794C267.997 391.794 266.483 413.453 262.828 438.631C259.167 463.809 257.247 472.602 259.228 476.005C261.21 479.407 267.96 483.388 268.464 485.979C268.975 488.569 264.508 489.326 257.549 487.96C250.596 486.588 246.282 484.354 245.772 482.429C245.261 480.503 246.282 476.54 246.43 473.039C246.584 469.538 246.375 402.217 246.43 396.581C246.485 390.945 267.99 391.8 267.99 391.8L267.997 391.794Z" fill="#4945AF"/>
<path d="M246.953 395.185C248.596 395.978 262.717 394.477 264.803 396.144C265.849 394.815 254.454 403.399 254.841 408.604C255.684 420.037 254.884 439.714 253.426 453.817C252.749 460.308 255.893 469.698 258.564 468.849C258.268 472.51 258.447 474.676 259.222 476.005C259.567 476.602 260.053 477.205 260.625 477.82C259.936 482.73 257.247 487.302 249.144 485.358C247.187 484.404 246.018 483.376 245.765 482.435C245.255 480.503 246.27 476.546 246.424 473.045C246.572 469.538 246.362 402.217 246.424 396.587C246.43 396.071 246.615 395.609 246.947 395.197L246.953 395.185Z" fill="#353288"/>
<path d="M252.682 346.157L250.251 346.471C250.251 346.471 241.052 351.301 238.204 361.005C234.512 373.569 230.992 395.05 230.992 395.948C230.992 396.846 232.93 394.422 236.364 394.096C239.797 393.77 242.492 397.406 241.674 399.24C241.674 399.24 243.84 396.828 245.556 389.235C245.556 389.235 245.803 395.443 246.621 396.834C247.439 398.225 251.377 402.396 259.955 399.843C268.532 397.289 273.331 395.69 273.713 392.373V388.835C273.713 388.835 275.62 388.669 277.091 386.22C277.091 386.22 276.217 373.883 275.405 368.001C274.587 362.119 274.937 344.65 266.538 343.062C258.139 341.475 252.7 346.164 252.7 346.164L252.682 346.157Z" fill="white"/>
<path d="M245.538 389.228C246.627 382.897 248.356 371.507 249.187 367.311C250.018 363.115 251.076 379.476 252.688 388.773C254.294 398.07 264.157 394.871 266.496 397.763C264.644 398.415 262.447 399.079 259.924 399.83C251.353 402.383 247.409 398.212 246.591 396.827C245.828 395.523 245.563 389.985 245.532 389.296V389.222L245.538 389.228Z" fill="#E6E6FF"/>
<path d="M273.756 388.81C273.337 384.774 272.667 377.944 271.941 370.431C271.264 363.38 273.054 362.346 275.072 364.875C275.171 366.093 275.263 367.158 275.38 367.988C276.198 373.871 277.066 386.208 277.066 386.208C275.762 388.386 274.106 388.761 273.756 388.81Z" fill="#E6E6FF"/>
<path d="M242.08 353.546C244.295 353.195 245.944 354.327 244.645 358.604C242.769 364.788 237.317 386.348 235.336 394.248C232.542 394.882 230.979 396.747 230.979 395.941C230.979 395.042 234.505 373.562 238.197 361.004C239.052 358.075 240.498 355.583 242.08 353.546Z" fill="#E6E6FF"/>
<path d="M250.245 346.477C250.245 346.477 254.27 343.247 250.953 338.619C248.338 334.971 247.926 328.522 254.768 326.763C261.61 325.003 265.185 329.175 266.397 335.961C267.48 342.016 266.619 347.289 261.61 346.803C261.61 346.803 261.499 347.4 261.346 348.335C261.198 349.27 259.137 352.119 250.239 346.465L250.245 346.477Z" fill="#FB876D"/>
<path d="M250.971 338.644C252.38 337.961 253.358 337.512 253.358 337.512C253.358 337.512 253.334 339.862 255.13 340.779C256.927 341.696 257.352 341.917 258.588 344.052C259.831 346.187 260.73 346.446 261.714 346.815C261.677 346.815 261.634 346.809 261.603 346.809C261.603 346.809 261.486 347.406 261.333 348.335C261.191 349.27 259.13 352.113 250.232 346.471C250.232 346.471 254.232 343.259 250.965 338.65L250.971 338.644Z" fill="#D56147"/>
<path d="M252.19 341.413C252.048 340.558 251.667 339.616 250.947 338.613C248.338 334.965 247.926 328.516 254.762 326.763C259.696 325.495 262.933 327.304 264.803 330.953C262.754 332.405 259.019 331.58 258.78 334.798C258.533 338.146 256.521 336.103 255.34 337.401C254.165 338.706 255.137 340.779 255.137 340.779C254.171 341.518 252.94 341.511 252.19 341.413Z" fill="#212121"/>
<path d="M272.094 462.203C272.328 464.062 273.565 466.683 278.432 469.39C284.364 472.688 283.41 476.86 279.583 476.768C275.755 476.682 265.898 474.226 262.816 472.214C259.954 470.35 260.877 465.625 260.982 462.714C265.929 465.741 270.31 463.44 272.094 462.197V462.203Z" fill="#212121"/>
<path d="M258.428 471.365C258.397 473.55 258.637 475.008 259.216 475.998C261.197 479.401 267.947 483.388 268.458 485.973C268.962 488.557 264.495 489.32 257.542 487.954C250.589 486.582 246.27 484.348 245.771 482.422C245.261 480.49 246.276 476.534 246.43 473.033C246.436 472.787 246.448 472.227 246.454 471.402C248.399 473.051 252.46 475.125 258.428 471.365Z" fill="#212121"/>
<path d="M352.83 468.087L354.14 473.249C354.14 473.249 353.937 475.403 354.534 476.923C355.131 478.442 356.484 480.258 350.873 483.26C345.261 486.263 343.538 486.921 341.397 486.626C339.256 486.331 337.638 483.593 340.837 481.15C344.037 478.707 345.292 477.686 345.391 476.461C345.489 475.243 346.67 470.788 346.67 470.788L352.836 468.087H352.83Z" fill="#200141"/>
<path d="M366.686 473.145L364.736 474.892C364.736 474.892 365.056 478.639 364.736 480.288C364.416 481.937 358.33 486.164 359.721 488.896C361.111 491.628 365.105 491.296 369.234 488.023C373.448 484.675 372.747 484.22 372.648 481.937C372.55 479.661 373.147 474.947 373.147 474.947L366.674 473.145H366.686Z" fill="#200141"/>
<path d="M346.664 388.017L343.071 393.265C343.071 393.265 340.173 402.101 341.982 428.929C343.791 455.756 345.194 472.874 345.194 472.874C345.194 472.874 349.316 475.901 354.343 473.132C354.343 473.132 358.847 447.062 361.672 427.679C364.496 408.297 359.617 390.472 359.617 390.472L346.652 388.011L346.664 388.017Z" fill="#1E1672"/>
<path d="M344.566 391.105C347.729 391.278 350.719 391.641 351.137 392.416C352.085 394.145 354.602 400.913 354.54 405.984C354.479 411.054 352.713 419.951 352.485 441.511C352.343 454.808 347.913 461.281 344.541 464.29C343.957 456.703 343.046 444.446 342 428.947C340.185 402.113 343.089 393.284 343.089 393.284L344.566 391.112V391.105Z" fill="#3C32A7"/>
<path d="M320.212 384.073C320.212 384.073 314.644 382.049 312.632 383.163C310.62 384.276 312.392 385.599 312.392 385.599C312.392 385.599 308.232 386.614 308.737 389.506C309.247 392.398 317.283 390.675 319.732 389.839C322.181 389.002 320.206 384.073 320.206 384.073H320.212Z" fill="#FF9B75"/>
<path d="M382.038 387.235L382.487 391.869C382.487 391.869 381.238 396.096 382.826 395.807C384.413 395.517 384.296 394.521 385.527 396.631C386.758 398.742 389.939 397.419 389.84 394.01C389.748 390.601 387.625 388.675 387.625 388.675L382.038 387.241V387.235Z" fill="#FF9B75"/>
<path d="M369.787 387.537L377.811 391.481C377.811 391.481 381.927 397.61 380.487 415.06C379.054 432.504 373.614 471.114 373.141 475.083C373.141 475.083 368.323 477.729 364.735 474.892C364.735 474.892 357.198 434.048 355.494 416.26C353.783 398.471 353.746 396.804 353.746 396.804L369.781 387.543L369.787 387.537Z" fill="#1E1672"/>
<path d="M361.394 392.392L369.793 394.311C369.793 394.311 371.928 434.423 369.793 448.587C368.803 455.159 365.449 458.518 362.133 460.217C359.782 446.711 356.546 427.163 355.506 416.265C353.802 398.477 353.765 396.803 353.765 396.803L361.394 392.392Z" fill="#3C32A7"/>
<path d="M318.748 383.335C318.748 383.335 333.318 377.268 334.869 375.065C336.413 372.862 338.259 359.301 341.41 353.892C344.56 348.478 358.478 349.253 364.311 351.813C370.138 354.372 385.367 382.147 387.625 388.509C387.625 388.509 386.382 391.494 382.155 391.666C382.155 391.666 368.594 374.887 367.64 373.459C366.686 372.032 367.997 377.323 371.923 382.916C375.848 388.509 376.802 388.866 377.811 391.481C377.811 391.481 374.359 396.896 361.456 399.093C348.553 401.289 343.077 393.266 343.077 393.266C343.077 393.266 346.049 382.799 346.289 379.286C346.289 379.286 341.053 384.996 330.346 388.86C319.64 392.724 318.748 392.134 318.748 392.134C318.748 392.134 315.536 388.208 318.748 383.329V383.335Z" fill="#61025F"/>
<path d="M339.256 359.282C341.834 358.193 342.314 361.454 342.314 361.454C341.6 364.728 341.539 367.287 344.689 371.028C347.747 374.665 346.387 379.015 346.301 379.286V379.298C346.301 379.298 341.059 385.002 330.352 388.872C319.646 392.736 318.76 392.146 318.76 392.146C318.76 392.146 317.769 390.946 317.443 389.038C319.806 388.134 322.993 386.977 325.836 385.303C330.592 382.51 333.687 380.787 334.998 375.852C335.121 375.379 335.183 374.911 335.195 374.474C336.278 371.982 337.521 364.906 339.25 359.288L339.256 359.282Z" fill="#200141"/>
<path d="M370.624 396.514C366.348 392.293 361.733 380.892 363.419 378.363C365.419 375.36 364.361 371.705 363.019 369.09C361.69 366.475 361.413 365.22 363.296 367.546C364.656 369.232 367.179 372.801 367.591 373.391C366.754 372.265 368.089 377.452 371.929 382.928C375.854 388.522 376.808 388.872 377.817 391.494C377.817 391.494 376.113 394.17 370.618 396.514H370.624ZM367.695 373.533L367.683 373.502L367.652 373.465L367.695 373.527V373.533Z" fill="#200141"/>
<path d="M345.058 337.026C345.058 337.026 343.157 340.195 343.28 345.044C343.403 349.892 346.08 349.646 347.544 349.868C349.009 350.089 348.35 350.403 348.178 352.354C348.178 352.354 348.689 354.538 351.482 354.987C354.276 355.436 356.38 352.827 357.038 351.781C357.697 350.735 352.473 338.355 352.473 338.355L345.058 337.033V337.026Z" fill="url(#paint21_linear_1796_945)"/>
<path d="M344.32 338.651C344.32 338.651 345.12 340.657 348.043 340.331C350.966 340.005 350.578 343.155 351.292 345.044C352.005 346.927 351.452 352.028 359.248 353.357C367.044 354.686 368.09 355.197 368.09 355.197C368.09 355.197 375.559 366.057 379.719 372.874C379.719 372.874 385.121 368.389 380.814 362.543C376.507 356.698 374.827 354.612 376.71 351.443C378.593 348.268 376.439 342.447 366.988 344.416C357.537 346.385 360.404 343.13 360.398 339.371C360.392 335.501 357.402 331.71 350.996 333.23C344.591 334.75 344.32 338.645 344.32 338.645V338.651Z" fill="#310203"/>
<path d="M79.6025 291.08L81.067 305.331C81.1654 306.383 81.8976 307.411 83.2882 308.21C86.2663 309.933 91.0903 309.927 94.0622 308.21C95.4405 307.411 96.185 306.377 96.2712 305.325L97.7417 291.074H79.6025V291.08Z" fill="#9D5F3A"/>
<path d="M82.2671 287.364C78.7291 289.407 78.723 292.73 82.2671 294.766C85.799 296.815 91.5521 296.809 95.0901 294.766C98.6281 292.723 98.6343 289.401 95.0901 287.364C93.318 286.337 90.9983 285.832 88.6725 285.832C86.3466 285.832 84.0269 286.343 82.261 287.364H82.2671Z" fill="#8A4C27"/>
<path d="M89.6567 247.8C91.7857 254.858 86.0818 255.042 83.9529 252.821C81.8239 250.606 78.8397 246.348 75.3571 248.84C70.2008 252.507 71.7391 258.254 78.1198 263.183C85.0912 268.523 83.1899 272.732 79.7934 270.695C76.4461 268.616 71.1484 266.308 70.2008 270.382C70.1085 270.788 70.0654 271.243 70.0654 271.649V271.742C70.0654 275.181 73.505 278.03 80.4272 281.377C88.3031 285.087 87.2571 288.164 87.2571 288.164C87.2571 288.164 86.9863 290.065 87.6201 291.197C88.2538 292.237 90.0629 291.696 89.9706 290.742C89.8783 289.795 89.6075 286.398 91.9641 285.586C94.3146 284.724 97.9388 284.183 96.8066 281.15C95.6744 278.116 92.2841 279.433 91.9641 276.079C91.6503 272.683 94.9484 271.6 97.7542 271.643C100.517 271.735 107.753 271.102 106.036 264.629C104.363 258.156 96.942 263.133 96.8066 258.519C96.6712 253.947 101.606 253.719 103.052 249.061C104.547 244.354 101.058 238.158 95.0899 237.026C94.4992 236.934 93.9577 236.891 93.4593 236.891C88.8445 236.891 87.7124 241.413 89.6567 247.794V247.8Z" fill="#5C025C"/>
<path d="M90.2287 262.857C90.5117 262.106 90.8255 261.368 91.1639 260.636C92.9852 256.722 94.9173 252.772 95.6741 248.539C95.8895 247.345 96.1479 245.961 95.5633 245.075C95.2988 244.675 95.5326 244.736 95.6433 244.761C96.2156 245.118 96.1848 246.108 96.1417 246.982C96.0433 249.21 95.3172 251.388 94.5419 253.517C93.3606 256.747 91.6992 259.787 90.5055 262.931C93.4221 263.675 96.4555 264.131 99.3598 264.912C100.141 265.121 101.052 265.294 101.372 265.897C101.372 265.897 101.396 266.327 101.064 265.94C100.535 265.361 99.5444 265.238 98.6337 265.023C95.9141 264.371 93.1021 263.909 90.3948 263.208C90.2963 263.472 90.204 263.737 90.1117 264.008C88.2843 269.379 87.6075 275.132 87.7982 280.849C87.8905 280.892 87.9766 280.935 88.0689 280.978C90.0256 281.938 92.3207 282.387 94.4312 281.858C94.4312 281.858 94.905 282.042 94.3512 282.165C92.1669 282.608 89.9764 282.128 87.8105 281.156C87.952 284.7 88.4258 288.232 89.1703 291.647C89.1703 291.647 89.0288 292.047 88.9119 291.758C88.1182 288.281 87.7797 284.719 87.6505 281.15V281.082C85.1216 279.913 82.6419 278.073 80.2607 276.24C78.9563 275.243 77.6887 274.203 76.4643 273.114C76.4643 273.114 76.1136 272.69 76.452 272.745C76.6796 272.837 76.7473 272.991 76.895 273.12C80.2238 276.025 83.7372 278.787 87.6382 280.769C87.4598 274.788 88.0443 268.721 90.1179 263.134C87.8105 262.512 85.5831 261.706 83.5834 260.427C81.0421 258.808 78.704 256.575 77.7318 253.781C77.7318 253.781 77.6887 253.554 77.8979 253.591C77.9902 253.634 78.0148 253.757 78.0579 253.861C79.3931 257.184 82.445 259.768 85.7861 261.319C87.2075 261.977 88.6904 262.457 90.2163 262.857" fill="white"/>
<path d="M545.118 410.462L546.583 424.713C546.681 425.765 547.413 426.792 548.804 427.592C551.782 429.315 556.606 429.309 559.578 427.592C560.956 426.792 561.701 425.759 561.787 424.707L563.257 410.456H545.118V410.462Z" fill="#9D5F3A"/>
<path d="M547.783 406.752C544.245 408.795 544.239 412.117 547.783 414.154C551.315 416.203 557.068 416.197 560.606 414.154C564.144 412.111 564.15 408.788 560.606 406.752C558.834 405.724 556.514 405.22 554.188 405.22C551.862 405.22 549.543 405.73 547.777 406.752H547.783Z" fill="#8A4C27"/>
<path d="M555.172 367.182C557.301 374.239 551.597 374.424 549.468 372.203C547.34 369.988 544.355 365.73 540.873 368.222C535.716 371.889 537.255 377.636 543.635 382.564C550.607 387.905 548.706 392.114 545.309 390.077C541.962 387.998 536.664 385.69 535.716 389.764C535.624 390.17 535.581 390.625 535.581 391.031V391.123C535.581 394.563 539.021 397.412 545.943 400.759C553.819 404.469 552.773 407.546 552.773 407.546C552.773 407.546 552.502 409.447 553.136 410.579C553.769 411.619 555.578 411.078 555.486 410.124C555.394 409.176 555.123 405.78 557.48 404.968C559.83 404.106 563.454 403.565 562.322 400.531C561.19 397.498 557.8 398.815 557.48 395.461C557.166 392.065 560.464 390.982 563.27 391.025C566.033 391.117 573.269 390.483 571.552 384.01C569.878 377.537 562.458 382.515 562.322 377.9C562.187 373.329 567.122 373.101 568.568 368.443C570.063 363.736 566.574 357.54 560.606 356.408C560.015 356.316 559.473 356.272 558.975 356.272C554.36 356.272 553.228 360.795 555.172 367.176V367.182Z" fill="#5C025C"/>
<path d="M555.744 382.239C556.027 381.488 556.341 380.75 556.68 380.018C558.501 376.104 560.433 372.154 561.19 367.921C561.405 366.727 561.664 365.343 561.079 364.457C560.814 364.057 561.048 364.118 561.159 364.143C561.731 364.5 561.7 365.49 561.657 366.364C561.559 368.591 560.833 370.77 560.058 372.898C558.876 376.129 557.215 379.168 556.021 382.313C558.938 383.057 561.971 383.513 564.875 384.294C565.657 384.503 566.567 384.675 566.887 385.278C566.887 385.278 566.912 385.709 566.58 385.321C566.051 384.743 565.06 384.62 564.149 384.405C561.43 383.752 558.618 383.291 555.91 382.59C555.812 382.854 555.72 383.119 555.627 383.389C553.8 388.761 553.123 394.514 553.314 400.23C553.406 400.273 553.492 400.316 553.585 400.36C555.541 401.319 557.836 401.769 559.947 401.239C559.947 401.239 560.421 401.424 559.867 401.547C557.683 401.99 555.492 401.51 553.326 400.538C553.468 404.082 553.941 407.614 554.686 411.029C554.686 411.029 554.544 411.429 554.428 411.14C553.634 407.663 553.295 404.101 553.166 400.532V400.464C550.637 399.295 548.158 397.455 545.776 395.622C544.472 394.625 543.204 393.585 541.98 392.496C541.98 392.496 541.629 392.071 541.968 392.127C542.195 392.219 542.263 392.373 542.411 392.502C545.739 395.406 549.253 398.169 553.154 400.15C552.975 394.17 553.56 388.103 555.634 382.516C553.326 381.894 551.099 381.088 549.099 379.808C546.558 378.19 544.22 375.957 543.247 373.163C543.247 373.163 543.204 372.935 543.414 372.972C543.506 373.015 543.53 373.138 543.574 373.243C544.909 376.566 547.961 379.15 551.302 380.701C552.723 381.359 554.206 381.839 555.732 382.239" fill="white"/>
</g>
<defs>
<linearGradient id="paint0_linear_1796_945" x1="52.2765" y1="288.254" x2="42.7931" y2="271.66" gradientUnits="userSpaceOnUse">
<stop stop-color="white" stop-opacity="0"/>
<stop offset="1" stop-color="#CAD5ED"/>
</linearGradient>
<linearGradient id="paint1_linear_1796_945" x1="193.517" y1="346.009" x2="159.878" y2="287.149" gradientUnits="userSpaceOnUse">
<stop stop-color="white" stop-opacity="0"/>
<stop offset="1" stop-color="#CAD5ED"/>
</linearGradient>
<linearGradient id="paint2_linear_1796_945" x1="398.982" y1="267.264" x2="367.174" y2="213.264" gradientUnits="userSpaceOnUse">
<stop stop-color="white" stop-opacity="0"/>
<stop offset="1" stop-color="#CAD5ED"/>
</linearGradient>
<linearGradient id="paint3_linear_1796_945" x1="123.115" y1="59.8397" x2="76.1861" y2="266.899" gradientUnits="userSpaceOnUse">
<stop stop-color="#6F8FE6"/>
<stop offset="1" stop-color="#053ED9"/>
</linearGradient>
<linearGradient id="paint4_linear_1796_945" x1="149.137" y1="396.745" x2="138.23" y2="377.657" gradientUnits="userSpaceOnUse">
<stop stop-color="white" stop-opacity="0"/>
<stop offset="1" stop-color="#CAD5ED"/>
</linearGradient>
<linearGradient id="paint5_linear_1796_945" x1="267.532" y1="232.528" x2="274.1" y2="289.553" gradientUnits="userSpaceOnUse">
<stop stop-color="#564D4E"/>
<stop offset="1" stop-color="#212121"/>
</linearGradient>
<linearGradient id="paint6_linear_1796_945" x1="226.148" y1="332.08" x2="97.3469" y2="322.983" gradientUnits="userSpaceOnUse">
<stop stop-color="#D9E3FF"/>
<stop offset="1" stop-color="#5178E0"/>
</linearGradient>
<linearGradient id="paint7_linear_1796_945" x1="312.733" y1="290.388" x2="127.125" y2="295.346" gradientUnits="userSpaceOnUse">
<stop stop-color="#D9E3FF"/>
<stop offset="1" stop-color="#5178E0"/>
</linearGradient>
<linearGradient id="paint8_linear_1796_945" x1="147.381" y1="63.6912" x2="100.452" y2="270.751" gradientUnits="userSpaceOnUse">
<stop stop-color="#6F8FE6"/>
<stop offset="1" stop-color="#053ED9"/>
</linearGradient>
<linearGradient id="paint9_linear_1796_945" x1="613.877" y1="328.076" x2="600.279" y2="304.284" gradientUnits="userSpaceOnUse">
<stop stop-color="white" stop-opacity="0"/>
<stop offset="1" stop-color="#CAD5ED"/>
</linearGradient>
<linearGradient id="paint10_linear_1796_945" x1="492.596" y1="395.239" x2="478.501" y2="372.148" gradientUnits="userSpaceOnUse">
<stop stop-color="white" stop-opacity="0"/>
<stop offset="1" stop-color="#CAD5ED"/>
</linearGradient>
<linearGradient id="paint11_linear_1796_945" x1="445.035" y1="439.857" x2="437.019" y2="425.833" gradientUnits="userSpaceOnUse">
<stop stop-color="white" stop-opacity="0"/>
<stop offset="1" stop-color="#CAD5ED"/>
</linearGradient>
<linearGradient id="paint12_linear_1796_945" x1="425.716" y1="418.664" x2="433.085" y2="360.329" gradientUnits="userSpaceOnUse">
<stop stop-color="#22197E"/>
<stop offset="1" stop-color="#080343"/>
</linearGradient>
<linearGradient id="paint13_linear_1796_945" x1="445.737" y1="401.194" x2="438.509" y2="350.215" gradientUnits="userSpaceOnUse">
<stop stop-color="#1C127F"/>
<stop offset="1" stop-color="#544BAE"/>
</linearGradient>
<linearGradient id="paint14_linear_1796_945" x1="445.899" y1="270.349" x2="448.546" y2="258.507" gradientUnits="userSpaceOnUse">
<stop stop-color="#F87065"/>
<stop offset="1" stop-color="#FFABA4"/>
</linearGradient>
<linearGradient id="paint15_linear_1796_945" x1="483.094" y1="318.063" x2="487.73" y2="307.937" gradientUnits="userSpaceOnUse">
<stop stop-color="#F87065"/>
<stop offset="1" stop-color="#FFABA4"/>
</linearGradient>
<linearGradient id="paint16_linear_1796_945" x1="432.638" y1="300.807" x2="439.079" y2="285.647" gradientUnits="userSpaceOnUse">
<stop stop-color="#F87065"/>
<stop offset="1" stop-color="#FFABA4"/>
</linearGradient>
<linearGradient id="paint17_linear_1796_945" x1="542.343" y1="226.147" x2="531.853" y2="207.791" gradientUnits="userSpaceOnUse">
<stop stop-color="white" stop-opacity="0"/>
<stop offset="1" stop-color="#CAD5ED"/>
</linearGradient>
<linearGradient id="paint18_linear_1796_945" x1="264.596" y1="482.229" x2="256.581" y2="468.205" gradientUnits="userSpaceOnUse">
<stop stop-color="white" stop-opacity="0"/>
<stop offset="1" stop-color="#CAD5ED"/>
</linearGradient>
<linearGradient id="paint19_linear_1796_945" x1="360.903" y1="491.163" x2="352.888" y2="477.139" gradientUnits="userSpaceOnUse">
<stop stop-color="white" stop-opacity="0"/>
<stop offset="1" stop-color="#CAD5ED"/>
</linearGradient>
<linearGradient id="paint20_linear_1796_945" x1="558.91" y1="433.602" x2="553.481" y2="424.102" gradientUnits="userSpaceOnUse">
<stop stop-color="white" stop-opacity="0"/>
<stop offset="1" stop-color="#CAD5ED"/>
</linearGradient>
<linearGradient id="paint21_linear_1796_945" x1="355.914" y1="351.101" x2="342.946" y2="338.339" gradientUnits="userSpaceOnUse">
<stop stop-color="#F9926B"/>
<stop offset="1" stop-color="#FFC4AE"/>
</linearGradient>
</defs>
</svg>
