<svg width="60" height="60" viewBox="0 0 60 60" fill="none" xmlns="http://www.w3.org/2000/svg">
<rect opacity="0.15" width="60" height="60" rx="6.74708" fill="#5800FF"/>
<path d="M25.5188 34.4625C24.0625 35.6062 23.125 37.3812 23.125 39.375V41.25H19.375C18.3375 41.25 17.5 40.4125 17.5 39.375V38.125C17.5 35.7063 19.4563 33.75 21.875 33.75H23.125C24.0125 33.75 24.8312 34.0125 25.5188 34.4625Z" fill="#8B40E5"/>
<path d="M37.5 33.75C39.0533 33.75 40.3125 32.4908 40.3125 30.9375C40.3125 29.3842 39.0533 28.125 37.5 28.125C35.9467 28.125 34.6875 29.3842 34.6875 30.9375C34.6875 32.4908 35.9467 33.75 37.5 33.75Z" fill="#8B40E5"/>
<path d="M22.5 33.75C24.0533 33.75 25.3125 32.4908 25.3125 30.9375C25.3125 29.3842 24.0533 28.125 22.5 28.125C20.9467 28.125 19.6875 29.3842 19.6875 30.9375C19.6875 32.4908 20.9467 33.75 22.5 33.75Z" fill="#8B40E5"/>
<path d="M42.5002 38.125V39.375C42.5002 40.4125 41.6627 41.25 40.6252 41.25H36.8752V39.375C36.8752 37.3812 35.9377 35.6062 34.4814 34.4625C35.1689 34.0125 35.9877 33.75 36.8752 33.75H38.1252C40.5439 33.75 42.5002 35.7063 42.5002 38.125Z" fill="#8B40E5"/>
<path d="M30 34.375C31.8985 34.375 33.4375 32.836 33.4375 30.9375C33.4375 29.039 31.8985 27.5 30 27.5C28.1015 27.5 26.5625 29.039 26.5625 30.9375C26.5625 32.836 28.1015 34.375 30 34.375Z" fill="#8B40E5"/>
<path d="M30.625 34.375H29.375C26.6181 34.375 24.375 36.6181 24.375 39.375V41.25C24.375 42.2838 25.2162 43.125 26.25 43.125H33.75C34.7837 43.125 35.625 42.2838 35.625 41.25V39.375C35.625 36.6181 33.3819 34.375 30.625 34.375Z" fill="#8B40E5"/>
<path d="M39.0626 25.4271L37.5545 25.9633C37.1263 26.1152 36.6795 25.7908 36.692 25.3364L36.7357 23.7364L35.7595 22.4677C35.4826 22.1077 35.6532 21.5821 36.0888 21.4533L37.6245 21.0008L38.5295 19.6802C38.7863 19.3058 39.3388 19.3058 39.5957 19.6802L40.5007 21.0008L42.0363 21.4533C42.472 21.5814 42.6426 22.1077 42.3657 22.4677L41.3895 23.7364L41.4332 25.3364C41.4457 25.7902 40.9982 26.1152 40.5707 25.9633L39.0626 25.4271Z" fill="#8B40E5"/>
<path d="M20.9376 25.4271L19.4295 25.9633C19.0013 26.1152 18.5545 25.7908 18.567 25.3364L18.6107 23.7364L17.6345 22.4677C17.3576 22.1077 17.5282 21.5821 17.9638 21.4533L19.4995 21.0008L20.4045 19.6802C20.6613 19.3058 21.2138 19.3058 21.4707 19.6802L22.3757 21.0008L23.9113 21.4533C24.347 21.5814 24.5176 22.1077 24.2407 22.4677L23.2645 23.7364L23.3082 25.3364C23.3207 25.7902 22.8732 26.1152 22.4457 25.9633L20.9376 25.4271Z" fill="#8B40E5"/>
<path d="M30.0003 24.0211L28.2122 24.6567C27.7047 24.8373 27.1747 24.4517 27.1897 23.9136L27.2416 22.0167L26.0841 20.5123C25.756 20.0854 25.9585 19.4623 26.4747 19.3098L28.2953 18.7729L29.3685 17.2073C29.6728 16.7629 30.3285 16.7629 30.6328 17.2073L31.706 18.7729L33.5266 19.3098C34.0428 19.4623 34.2453 20.0854 33.9172 20.5123L32.7597 22.0167L32.8116 23.9136C32.8266 24.4517 32.296 24.8373 31.7891 24.6567L30.0003 24.0211Z" fill="#8B40E5"/>
</svg>
