<svg width="61" height="61" viewBox="0 0 61 61" fill="none" xmlns="http://www.w3.org/2000/svg">
<rect opacity="0.15" x="0.529297" y="0.381836" width="60" height="60" rx="6.74708" fill="#5800FF"/>
<path d="M36.8292 28.764C36.6882 28.764 36.5472 28.719 36.4292 28.631C36.2022 28.461 36.1082 28.167 36.1932 27.897L36.8202 25.886L35.2352 24.596C35.0222 24.415 34.9442 24.12 35.0412 23.858C35.1372 23.596 35.3872 23.421 35.6672 23.421H37.6682L38.3762 21.434C38.4732 21.173 38.7222 21 39.0012 21C39.2802 21 39.5292 21.173 39.6262 21.434L40.3342 23.421H42.3352C42.6152 23.421 42.8652 23.596 42.9612 23.859C43.0572 24.122 42.9782 24.417 42.7642 24.598L41.1872 25.883L41.8392 27.87C41.9282 28.139 41.8382 28.435 41.6132 28.608C41.3882 28.781 41.0792 28.793 40.8422 28.639L39.0062 27.443L37.2012 28.651C37.0892 28.726 36.9582 28.764 36.8292 28.764ZM28.8292 25.764C28.6882 25.764 28.5472 25.719 28.4292 25.631C28.2022 25.461 28.1082 25.167 28.1932 24.897L28.8202 22.886L27.2352 21.596C27.0222 21.415 26.9442 21.12 27.0412 20.858C27.1372 20.596 27.3872 20.421 27.6672 20.421H29.6682L30.3762 18.434C30.4732 18.173 30.7222 18 31.0012 18C31.2802 18 31.5292 18.173 31.6262 18.434L32.3342 20.421H34.3352C34.6152 20.421 34.8652 20.596 34.9612 20.859C35.0572 21.122 34.9782 21.417 34.7642 21.598L33.1872 22.883L33.8392 24.87C33.9282 25.139 33.8382 25.435 33.6132 25.608C33.3882 25.781 33.0792 25.793 32.8422 25.639L31.0062 24.443L29.2012 25.651C29.0892 25.726 28.9582 25.764 28.8292 25.764ZM20.8292 28.764C20.6882 28.764 20.5472 28.719 20.4292 28.631C20.2022 28.461 20.1082 28.167 20.1932 27.897L20.8202 25.886L19.2352 24.597C19.0222 24.416 18.9442 24.121 19.0412 23.859C19.1372 23.597 19.3872 23.422 19.6672 23.422H21.6682L22.3762 21.435C22.4732 21.174 22.7222 21.001 23.0012 21.001C23.2802 21.001 23.5292 21.174 23.6262 21.435L24.3342 23.422H26.3352C26.6152 23.422 26.8652 23.597 26.9612 23.86C27.0572 24.123 26.9782 24.418 26.7642 24.599L25.1872 25.884L25.8392 27.871C25.9282 28.14 25.8382 28.436 25.6132 28.609C25.3882 28.782 25.0792 28.794 24.8422 28.64L23.0062 27.444L21.2012 28.652C21.0892 28.727 20.9592 28.765 20.8302 28.765L20.8292 28.764ZM35.9992 32.002H31.8162L32.3962 28.737C32.4532 28.403 32.4252 28.218 32.4032 28.138C32.2152 27.448 31.6532 27.002 30.9712 27.002C30.7582 27.002 30.5432 27.046 30.3312 27.134C30.0772 27.239 29.8282 27.501 29.6492 27.853L27.4562 32.002H26.0002C24.3432 32.002 23.0002 33.345 23.0002 35.002V39.002C23.0002 40.659 24.3432 42.002 26.0002 42.002V35.002C26.0002 34.45 26.4482 34.002 27.0002 34.002C27.5522 34.002 28.0002 34.45 28.0002 35.002V42.002H34.3792C36.2862 42.002 37.9272 40.656 38.3012 38.786L38.9402 35.59C39.3112 33.734 37.8912 32.002 35.9982 32.002H35.9992Z" fill="#8B40E5"/>
</svg>
