<svg width="86" height="87" viewBox="0 0 86 87" fill="none" xmlns="http://www.w3.org/2000/svg">
<rect width="85.3267" height="86.3726" rx="16.2013" fill="white"/>
<path d="M35.6458 40.8767L37.7035 39.6766C38.5858 40.6391 39.735 41.3373 41.0417 41.6399V44.0329H43.9583V41.6399C45.265 41.3373 46.4156 40.6391 47.2965 39.6766L49.3542 40.8767L50.8096 38.3185L48.7446 37.1139C48.9327 36.4968 49.0625 35.8547 49.0625 35.1756C49.0625 34.4966 48.9327 33.8544 48.7446 33.2373L50.8096 32.0328L49.3542 29.4745L47.2965 30.6747C46.4142 29.7122 45.265 29.0139 43.9583 28.7113V26.3184H41.0417V28.7113C39.735 29.0139 38.5844 29.7122 37.7035 30.6747L35.6458 29.4745L34.1904 32.0328L36.2554 33.2373C36.0673 33.8544 35.9375 34.4966 35.9375 35.1756C35.9375 35.8547 36.0673 36.4968 36.2554 37.1139L34.1904 38.3185L35.6458 40.8767ZM42.5 32.9613C43.706 32.9613 44.6875 33.9548 44.6875 35.1756C44.6875 36.3964 43.706 37.3899 42.5 37.3899C41.294 37.3899 40.3125 36.3964 40.3125 35.1756C40.3125 33.9548 41.294 32.9613 42.5 32.9613ZM43.9583 57.3187V58.795H49.7917V61.7474H35.2083V58.795H41.0417V57.3187H25V38.128C25 35.6864 26.9629 33.6994 29.375 33.6994H30.934C30.8742 34.1836 30.8333 34.6752 30.8333 35.1756C30.8333 41.6975 36.0571 46.9853 42.5 46.9853C48.9429 46.9853 54.1667 41.6975 54.1667 35.1756C54.1667 34.6752 54.1258 34.1836 54.066 33.6994H55.625C58.0371 33.6994 60 35.6864 60 38.128V57.3187H43.9583Z" fill="#909090"/>
</svg>
