<svg width="86" height="87" viewBox="0 0 86 87" fill="none" xmlns="http://www.w3.org/2000/svg">
<rect width="85.3267" height="86.3726" rx="16.2013" fill="white"/>
<path d="M49.4614 28.978L51.2624 26.0108C51.6824 25.314 52.5807 25.0985 53.2676 25.5266C53.9545 25.9532 54.1689 26.8611 53.7459 27.5564L51.9449 30.5236C51.6707 30.9782 51.1909 31.2277 50.7009 31.2277C50.4399 31.2277 50.1774 31.1568 49.9397 31.0092C49.2528 30.5826 49.0384 29.6733 49.4614 28.978ZM32.8976 30.5221C33.1718 30.9767 33.653 31.2277 34.143 31.2277C34.4026 31.2277 34.6651 31.1568 34.9028 31.0107C35.5897 30.5841 35.8055 29.6762 35.3841 28.9809L33.5859 26.0123C33.1645 25.317 32.2661 25.1 31.5807 25.5251C30.8939 25.9517 30.678 26.8596 31.0995 27.5549L32.8976 30.5221ZM29.7097 33.7815L27.0876 32.5105C26.3643 32.1548 25.4878 32.4677 25.1436 33.2043C24.7951 33.9395 25.1028 34.8208 25.8291 35.1721L28.4511 36.4431C28.6539 36.5421 28.8682 36.5893 29.0797 36.5893C29.6236 36.5893 30.1457 36.2808 30.3951 35.7508C30.7436 35.0157 30.4359 34.1329 29.7097 33.7815ZM42.2849 31.2321C34.2436 31.3665 27.8707 40.1883 32.237 48.6853C32.9005 49.9756 33.8849 51.0561 34.9422 52.0408C35.3432 52.4142 35.6539 52.8763 35.9193 53.3723H41.0249V45.7196C39.3318 45.1085 38.1082 43.4847 38.1082 41.5626C38.1082 40.7463 38.7601 40.0864 39.5666 40.0864C40.373 40.0864 41.0249 40.7463 41.0249 41.5626C41.0249 42.379 41.6782 43.0388 42.4832 43.0388C43.2882 43.0388 43.9416 42.3775 43.9416 41.5626C43.9416 40.7478 44.5934 40.0864 45.3999 40.0864C46.2064 40.0864 46.8582 40.7463 46.8582 41.5626C46.8582 43.4847 45.6347 45.1085 43.9416 45.7196V53.3723H48.9991C49.3316 52.7951 49.7603 52.2504 50.3218 51.7765C51.2828 50.9646 52.187 50.0597 52.7426 48.9245C55.2757 43.7386 54.2709 38.2087 50.663 34.6186C48.4157 32.3806 45.4393 31.1834 42.2849 31.2321ZM36.6382 56.7366C36.5216 58.9007 38.1228 60.7548 40.2636 60.7548H44.6693C46.6832 60.7548 48.3151 59.103 48.3151 57.0643V56.3262H36.6222C36.6222 56.465 36.647 56.5949 36.6382 56.7366ZM59.8564 33.1497C59.5239 32.4072 58.662 32.0721 57.9284 32.4116L55.1109 33.6989C54.3759 34.034 54.0493 34.9079 54.3818 35.6504C54.6253 36.1966 55.1547 36.5199 55.7118 36.5199C55.9116 36.5199 56.1157 36.4786 56.3097 36.3885L59.1272 35.1013C59.8622 34.7662 60.1889 33.8923 59.8564 33.1497Z" fill="#909090"/>
</svg>
