<svg width="89" height="90" viewBox="0 0 89 90" fill="none" xmlns="http://www.w3.org/2000/svg">
<rect opacity="0.1" y="0.709473" width="88.3424" height="88.3424" rx="16.7739" fill="#473BF0"/>
<path fill-rule="evenodd" clip-rule="evenodd" d="M33.5547 36.1346C33.5547 30.3917 37.8302 24.1932 44.7373 24.1932C51.6444 24.1932 55.9198 30.3917 55.9198 36.1346C55.9198 44.6452 50.1152 49.9132 44.7373 49.9132C39.3594 49.9132 33.5547 44.6452 33.5547 36.1346ZM35.4609 37.1022C35.8654 43.9033 40.4596 48.0754 44.7397 48.0754C49.0198 48.0754 53.6131 43.9042 54.0194 37.105C51.247 36.7339 48.6564 35.5645 46.5774 33.7311C44.0091 36.0036 40.7335 37.2464 37.2576 37.2464C36.664 37.2464 36.0657 37.1886 35.4609 37.1022Z" fill="#473BF0"/>
<path opacity="0.5" d="M61.4845 54.5897L51.7948 48.7941C49.5238 50.7485 46.8093 51.8233 44.1767 51.8233C41.5441 51.8233 38.8296 50.7485 36.5586 48.7941L26.8689 54.5897C25.4738 55.4239 24.6072 56.9501 24.6072 58.572V65.7573C24.6072 66.271 25.0247 66.6862 25.5391 66.6862H43.2448V57.3969C43.2448 56.8832 43.6614 56.468 44.1767 56.468C44.692 56.468 45.1086 56.8832 45.1086 57.3969V66.6862H62.8143C63.3287 66.6862 63.7462 66.271 63.7462 65.7573V58.572C63.7462 56.9501 62.8796 55.4239 61.4845 54.5897Z" fill="#473BF0"/>
</svg>
