<svg width="85" height="85" viewBox="0 0 85 85" fill="none" xmlns="http://www.w3.org/2000/svg">
<rect width="84.996" height="84.996" rx="16.1975" fill="white"/>
<path d="M34.0791 47.473C33.5442 46.9318 33.3428 47.2037 33.2239 47.3243C30.1442 50.4417 27.4102 57.9635 28.8555 57.2288C34.1173 54.5545 34.9941 55.3507 38.0736 52.2335C38.1927 52.113 38.4664 51.9144 37.9161 51.3571L34.0791 47.473Z" fill="#909090"/>
<path d="M50.6806 47.4306C50.5411 46.981 50.8334 46.7643 50.9565 46.6299C57.7536 39.2016 62.0735 29.3048 58.8722 26.0641C55.6878 22.8409 46.2124 27.3414 38.876 34.1723C38.7309 34.3076 38.4448 34.5638 37.9331 34.4557L35.6474 33.9047C35.0127 33.7519 34.116 34.0087 33.6547 34.4757L25.2678 42.9654C24.8065 43.4324 24.9563 43.8984 25.6008 44.0008L31.6669 44.9658C32.3114 45.0684 33.2161 44.7702 33.6773 44.3032C33.6773 44.3032 33.9903 43.9855 34.3047 44.3037C36.0396 46.0597 39.2636 49.3232 40.9165 50.9964C41.2451 51.3289 40.9304 51.6452 40.9304 51.6452C40.469 52.1122 40.1745 53.0278 40.2759 53.6803L41.2291 59.8206C41.3304 60.4732 41.7907 60.6249 42.252 60.1579L50.6391 51.668C51.1003 51.201 51.3541 50.2936 51.2029 49.6512L50.6806 47.4306ZM48.8029 36.4624C47.3823 35.0244 47.3823 32.6932 48.8029 31.2554C50.2233 29.8174 52.5263 29.8174 53.947 31.2554C55.3673 32.6931 55.3673 35.0244 53.947 36.4622C52.5263 37.9002 50.2232 37.9002 48.8029 36.4624Z" fill="#909090"/>
</svg>
