<svg width="86" height="86" viewBox="0 0 86 86" fill="none" xmlns="http://www.w3.org/2000/svg">
<rect y="0.568359" width="85.3267" height="85.3267" rx="16.2013" fill="white"/>
<path d="M37.6667 39.7145C32.841 39.7145 28.9167 35.742 28.9167 30.8573C28.9167 25.9725 32.841 22 37.6667 22C42.4923 22 46.4167 25.9725 46.4167 30.8573C46.4167 35.742 42.4923 39.7145 37.6667 39.7145ZM47.5017 57.429C47.194 57.429 46.8862 57.3301 46.6267 57.1338C46.1308 56.7588 45.9252 56.1063 46.1104 55.5085L47.4827 51.0562L44.0163 48.2012C43.5496 47.8012 43.379 47.1487 43.5904 46.5671C43.8019 45.9854 44.3473 45.6002 44.9583 45.6002H49.3348L50.8835 41.201C51.0965 40.6238 51.6419 40.24 52.25 40.24C52.8581 40.24 53.4035 40.6238 53.6165 41.201L55.1652 45.6002H59.5417C60.1542 45.6002 60.701 45.9884 60.911 46.57C61.121 47.1516 60.949 47.8056 60.4808 48.2057L57.0304 51.0503L58.4581 55.4494C58.6535 56.0443 58.4552 56.6998 57.9637 57.0821C57.4723 57.4644 56.7956 57.491 56.2779 57.15L52.2617 54.5032L48.3125 57.1781C48.0675 57.3449 47.7846 57.429 47.5017 57.429ZM40.4915 57.429H27.4583C26.6533 57.429 26 56.7677 26 55.9528C26 48.6279 31.8888 42.6669 39.125 42.6669H40.4915C40.996 42.6669 41.4642 42.9326 41.731 43.3666C41.9965 43.8007 42.0212 44.3439 41.7967 44.8C40.9917 46.4386 40.5833 48.2057 40.5833 50.048C40.5833 51.8903 40.9917 53.6558 41.7967 55.2959C42.0212 55.7535 41.9965 56.2968 41.731 56.7308C41.4656 57.1648 40.996 57.429 40.4915 57.429Z" fill="#909090"/>
</svg>
