<svg width="86" height="87" viewBox="0 0 86 87" fill="none" xmlns="http://www.w3.org/2000/svg">
<rect width="85.3267" height="86.3726" rx="16.2013" fill="white"/>
<path d="M60 56.307C60 56.6985 59.8464 57.074 59.5729 57.3509C59.2994 57.6277 58.9284 57.7832 58.5417 57.7832H46.6067C46.3097 58.6461 45.7548 59.3941 45.0189 59.9234C44.2831 60.4527 43.4027 60.7371 42.5 60.7371C41.5973 60.7371 40.7169 60.4527 39.9811 59.9234C39.2452 59.3941 38.6903 58.6461 38.3933 57.7832H26.4583C26.0716 57.7832 25.7006 57.6277 25.4271 57.3509C25.1536 57.074 25 56.6985 25 56.307C25 55.9155 25.1536 55.54 25.4271 55.2632C25.7006 54.9863 26.0716 54.8308 26.4583 54.8308H38.3933C38.6112 54.2134 38.9618 53.6527 39.4198 53.1891C39.8778 52.7255 40.4317 52.3706 41.0417 52.15V45.9736H32.2917C31.1313 45.9736 30.0185 45.507 29.1981 44.6765C28.3776 43.8459 27.9167 42.7195 27.9167 41.5449C27.9167 41.1534 28.0703 40.7779 28.3438 40.5011C28.6173 40.2243 28.9882 40.0687 29.375 40.0687H37.5213L38.125 40.6799C38.3951 40.955 38.7164 41.1731 39.0704 41.3216C39.4244 41.4701 39.8039 41.546 40.1871 41.5449H44.8129C45.1961 41.546 45.5756 41.4701 45.9296 41.3216C46.2836 41.1731 46.6049 40.955 46.875 40.6799L47.4788 40.0687H55.625C56.0118 40.0687 56.3827 40.2243 56.6562 40.5011C56.9297 40.7779 57.0833 41.1534 57.0833 41.5449C57.0833 42.7195 56.6224 43.8459 55.8019 44.6765C54.9815 45.507 53.8687 45.9736 52.7083 45.9736H43.9583V52.15C44.5683 52.3706 45.1222 52.7255 45.5802 53.1891C46.0382 53.6527 46.3888 54.2134 46.6067 54.8308H58.5417C58.9284 54.8308 59.2994 54.9863 59.5729 55.2632C59.8464 55.54 60 55.9155 60 56.307ZM39.5833 37.9814L40.1871 38.5925H44.8129L45.4167 37.9814C45.6868 37.7063 46.0081 37.4882 46.3621 37.3397C46.716 37.1912 47.0956 37.1153 47.4788 37.1163H55.625V31.2115C55.625 29.6454 55.0104 28.1435 53.9165 27.0361C52.8225 25.9288 51.3388 25.3066 49.7917 25.3066H35.2083C33.6612 25.3066 32.1775 25.9288 31.0835 27.0361C29.9896 28.1435 29.375 29.6454 29.375 31.2115V37.1163H37.5213C37.9044 37.1153 38.284 37.1912 38.6379 37.3397C38.9919 37.4882 39.3132 37.7063 39.5833 37.9814Z" fill="#909090"/>
</svg>
