<svg width="822" height="562" viewBox="0 0 822 562" fill="none" xmlns="http://www.w3.org/2000/svg">
<g style="mix-blend-mode:luminosity">
<path opacity="0.2" d="M649.815 510.567C649.815 522.1 525.558 531.43 372.272 531.43C218.986 531.43 94.7295 522.1 94.7295 510.567C94.7295 499.035 218.986 489.705 372.272 489.705C525.558 489.705 649.815 499.035 649.815 510.567Z" fill="url(#paint0_linear_1796_1051)"/>
<path d="M33 453.608C33 453.608 36.6708 446.725 45.083 446.144C53.4953 445.562 59.0321 449.876 59.0321 449.876C59.0321 449.876 43.9206 422.62 60.1945 407.325C76.4377 392.03 105.498 411.149 105.498 411.149C105.498 411.149 70.9621 378.785 90.0503 356.087C109.138 333.389 145.479 364.254 149.854 386.677C154.259 409.099 610.814 386.677 610.814 386.677C610.814 386.677 605.98 350.061 614.393 332.043C622.805 314.026 639.385 310.171 651.101 311.701C662.817 313.261 663.337 328.036 663.337 328.036C663.337 328.036 692.642 307.969 711.271 332.043C729.87 356.087 709.711 382.486 709.711 382.486C709.711 382.486 738.037 376.184 748.224 393.009C758.41 409.864 743.39 423.354 735.468 432.042C727.575 440.699 725.771 451.925 732.929 453.577C740.056 455.229 754.342 448.866 764.528 456.758C774.715 464.651 774.715 481.475 774.715 481.475H33V453.577V453.608Z" fill="url(#paint1_linear_1796_1051)"/>
<path d="M0.960318 39.9876H113.378C113.378 39.9876 110.319 27.1704 102.855 25.855C95.3915 24.5397 93.862 28.7305 93.862 28.7305C93.862 28.7305 90.2218 6.73632 74.1621 3.89145C58.1024 1.04659 58.2859 12.1202 58.2859 12.1202C58.2859 12.1202 44.3369 -3.75604 29.8066 0.832457C15.2764 5.42095 24.6369 22.0619 24.6369 22.0619C24.6369 22.0619 10.1067 16.311 3.80518 23.7749C-2.49635 31.2389 0.929727 40.0182 0.929727 40.0182L0.960318 39.9876Z" fill="url(#paint2_linear_1796_1051)"/>
<path d="M436.96 136.988H549.378C549.378 136.988 546.319 124.17 538.855 122.855C531.392 121.54 529.862 125.73 529.862 125.73C529.862 125.73 526.222 103.736 510.162 100.891C494.102 98.0466 494.286 109.12 494.286 109.12C494.286 109.12 480.337 93.244 465.807 97.8325C451.276 102.421 460.637 119.062 460.637 119.062C460.637 119.062 446.107 113.311 439.805 120.775C433.504 128.239 436.93 137.018 436.93 137.018L436.96 136.988Z" fill="url(#paint3_linear_1796_1051)"/>
<path d="M82.6777 312.282L90.7841 298.211L98.921 312.282H82.6777Z" fill="white"/>
<path d="M65.4545 321.611H96.8092C97.9716 321.611 98.9199 320.663 98.9199 319.5C98.9199 318.338 97.9716 317.39 96.8092 317.39H65.4545C64.292 317.39 63.3438 318.338 63.3438 319.5C63.3438 320.663 64.292 321.611 65.4545 321.611Z" fill="white"/>
<path d="M83.2582 331.553H96.8401C98.0025 331.553 98.9508 330.605 98.9508 329.443C98.9508 328.28 98.0025 327.332 96.8401 327.332H83.2582C82.0958 327.332 81.1475 328.28 81.1475 329.443C81.1475 330.605 82.0958 331.553 83.2582 331.553Z" fill="white"/>
<path d="M42.9458 463.932H31.4746V493.237H42.9458V463.932Z" fill="url(#paint4_linear_1796_1051)"/>
<path d="M62.4634 476.995H50.9922V493.238H62.4634V476.995Z" fill="url(#paint5_linear_1796_1051)"/>
<path d="M81.9497 455H70.4785V493.237H81.9497V455Z" fill="url(#paint6_linear_1796_1051)"/>
<path d="M85.8034 496.51H27.6213C26.7342 496.51 26 495.776 26 494.889C26 494.002 26.7342 493.268 27.6213 493.268H85.8034C86.6905 493.268 87.4246 494.002 87.4246 494.889C87.4246 495.776 86.6905 496.51 85.8034 496.51Z" fill="#020741"/>
<path d="M648.365 127.514H617.01C615.848 127.514 614.899 126.566 614.899 125.404C614.899 124.241 615.848 123.293 617.01 123.293H648.365C649.527 123.293 650.476 124.241 650.476 125.404C650.476 126.566 649.527 127.514 648.365 127.514Z" fill="white"/>
<path d="M630.592 137.457H617.01C615.848 137.457 614.899 136.508 614.899 135.346C614.899 134.184 615.848 133.235 617.01 133.235H630.592C631.754 133.235 632.703 134.184 632.703 135.346C632.703 136.508 631.754 137.457 630.592 137.457Z" fill="white"/>
<path d="M606.182 141.585H591.529C590.673 141.585 590 140.912 590 140.055V125.403C590 124.546 590.673 123.873 591.529 123.873H606.182C607.039 123.873 607.712 124.546 607.712 125.403V140.055C607.712 140.912 607.039 141.585 606.182 141.585ZM593.028 138.526H604.622V126.932H593.028V138.526Z" fill="white"/>
<path d="M593.549 128.309L598.841 135.956L611.903 118" stroke="#5163ED" stroke-width="3.059" stroke-linecap="round" stroke-linejoin="round"/>
<path d="M648.365 159.694H617.01C615.848 159.694 614.899 158.746 614.899 157.583C614.899 156.421 615.848 155.473 617.01 155.473H648.365C649.527 155.473 650.476 156.421 650.476 157.583C650.476 158.746 649.527 159.694 648.365 159.694Z" fill="white"/>
<path d="M630.592 169.635H617.01C615.848 169.635 614.899 168.687 614.899 167.525C614.899 166.362 615.848 165.414 617.01 165.414H630.592C631.754 165.414 632.703 166.362 632.703 167.525C632.703 168.687 631.754 169.635 630.592 169.635Z" fill="white"/>
<path d="M606.182 173.797H591.529C590.673 173.797 590 173.124 590 172.267V157.614C590 156.758 590.673 156.085 591.529 156.085H606.182C607.039 156.085 607.712 156.758 607.712 157.614V172.267C607.712 173.124 607.039 173.797 606.182 173.797ZM593.028 170.738H604.622V159.144H593.028V170.738Z" fill="white"/>
<path d="M593.549 160.518L598.841 168.166L611.903 150.179" stroke="#5163ED" stroke-width="3.059" stroke-linecap="round" stroke-linejoin="round"/>
<path d="M438.807 223.816C438.807 225.132 437.736 226.172 436.451 226.172C435.166 226.172 434.096 225.101 434.096 223.816C434.096 222.532 435.166 221.461 436.451 221.461C437.736 221.461 438.807 222.532 438.807 223.816Z" fill="white"/>
<path d="M657.525 293.074C657.525 294.39 656.455 295.43 655.17 295.43C653.885 295.43 652.814 294.359 652.814 293.074C652.814 291.789 653.885 290.719 655.17 290.719C656.455 290.719 657.525 291.789 657.525 293.074Z" fill="white"/>
<path d="M90.2343 255.171C90.2343 256.486 89.1636 257.526 87.8789 257.526C86.5941 257.526 85.5234 256.456 85.5234 255.171C85.5234 253.886 86.5941 252.815 87.8789 252.815C89.1636 252.815 90.2343 253.886 90.2343 255.171Z" fill="white"/>
<path d="M222.046 160.008C222.046 161.323 220.975 162.363 219.69 162.363C218.406 162.363 217.335 161.293 217.335 160.008C217.335 158.723 218.406 157.652 219.69 157.652C220.975 157.652 222.046 158.723 222.046 160.008Z" fill="white"/>
<path d="M89.4091 437.244C89.4091 438.559 88.3384 439.6 87.0537 439.6C85.7689 439.6 84.6982 438.529 84.6982 437.244C84.6982 435.959 85.7689 434.889 87.0537 434.889C88.3384 434.889 89.4091 435.959 89.4091 437.244Z" fill="white"/>
<path d="M678.57 426.292C678.57 427.607 677.5 428.647 676.215 428.647C674.93 428.647 673.859 427.577 673.859 426.292C673.859 425.007 674.93 423.937 676.215 423.937C677.5 423.937 678.57 425.007 678.57 426.292Z" fill="white"/>
<path d="M232.353 555.074C232.353 556.39 231.283 557.43 229.998 557.43C228.713 557.43 227.643 556.359 227.643 555.074C227.643 553.789 228.713 552.719 229.998 552.719C231.283 552.719 232.353 553.789 232.353 555.074Z" fill="white"/>
<path d="M438.807 559.266C438.807 560.581 437.736 561.621 436.451 561.621C435.166 561.621 434.096 560.55 434.096 559.266C434.096 557.981 435.166 556.91 436.451 556.91C437.736 556.91 438.807 557.981 438.807 559.266Z" fill="white"/>
<path d="M87.0527 531.43C87.0527 532.745 85.982 533.785 84.6972 533.785C83.4124 533.785 82.3418 532.714 82.3418 531.43C82.3418 530.145 83.4124 529.074 84.6972 529.074C85.982 529.074 87.0527 530.145 87.0527 531.43Z" fill="white"/>
<path d="M640.363 547.917C640.363 549.232 639.293 550.272 638.008 550.272C636.723 550.272 635.652 549.202 635.652 547.917C635.652 546.632 636.723 545.562 638.008 545.562C639.293 545.562 640.363 546.632 640.363 547.917Z" fill="white"/>
<path d="M607.508 242.538H143.428C134.981 242.538 128.133 249.386 128.133 257.833V490.745C128.133 499.192 134.981 506.04 143.428 506.04H607.508C615.955 506.04 622.803 499.192 622.803 490.745V257.833C622.803 249.386 615.955 242.538 607.508 242.538Z" fill="url(#paint7_linear_1796_1051)"/>
<path d="M600.595 255.171H150.311C145.661 255.171 141.898 258.933 141.898 263.583V292.98C141.898 300.719 148.169 306.99 155.909 306.99C163.648 306.99 169.919 313.261 169.919 321V427.545C169.919 435.284 163.648 441.555 155.909 441.555C148.169 441.555 141.898 447.826 141.898 455.565V484.962C141.898 489.612 145.661 493.375 150.311 493.375H600.625C605.275 493.375 609.038 489.612 609.038 484.962V263.522C609.038 258.872 605.275 255.109 600.625 255.109L600.595 255.171Z" fill="#020741"/>
<path d="M149.854 424.548C154.601 424.548 158.449 420.7 158.449 415.952C158.449 411.205 154.601 407.356 149.854 407.356C145.106 407.356 141.258 411.205 141.258 415.952C141.258 420.7 145.106 424.548 149.854 424.548Z" fill="#020741"/>
<path d="M149.852 401.24C147.221 401.24 145.08 399.099 145.08 396.468V326.478C145.08 323.847 147.221 321.706 149.852 321.706C152.483 321.706 154.624 323.847 154.624 326.478V396.468C154.624 399.099 152.483 401.24 149.852 401.24Z" fill="#020741"/>
<path d="M362.21 295.426H202.622V332.042H362.21V295.426Z" fill="url(#paint8_linear_1796_1051)"/>
<path d="M362.21 361.473H202.622V459.605H362.21V361.473Z" fill="url(#paint9_linear_1796_1051)"/>
<path d="M558.29 295.426H398.702V459.602H558.29V295.426Z" fill="url(#paint10_linear_1796_1051)"/>
<path opacity="0.2" d="M236.729 242.539L128.135 351.133V490.746C128.135 499.189 134.987 506.041 143.43 506.041H202.499L466.001 242.539H236.76H236.729Z" fill="url(#paint11_linear_1796_1051)"/>
<path opacity="0.2" d="M622.773 399.374V257.834C622.773 249.391 615.92 242.539 607.478 242.539H550.366L286.864 506.041H516.105L622.773 399.374Z" fill="url(#paint12_linear_1796_1051)"/>
<path d="M622.773 356.179H650.151C652.905 356.179 655.168 358.412 655.168 361.195V387.38C655.168 390.134 652.935 392.397 650.151 392.397H622.773V356.209V356.179Z" fill="#020741"/>
<path d="M655.168 362.939H672.665C675.449 362.939 677.743 365.203 677.743 368.017V380.559C677.743 383.343 675.48 385.637 672.665 385.637H655.168V362.939Z" fill="#020741"/>
<path d="M666.427 374.287H703.257C715.982 374.287 726.291 384.596 726.291 397.321V512.104C726.291 524.829 736.6 535.138 749.326 535.138H818" stroke="#020741" stroke-width="6.11799" stroke-linecap="round" stroke-linejoin="round"/>
<path d="M550.036 324.168C550.036 324.168 555.236 320.13 556.857 318.05C558.479 315.94 561.538 310.892 561.17 309.546C560.803 308.2 560.069 307.436 558.815 307.527C557.561 307.619 554.685 311.443 554.685 311.443C554.685 311.443 554.41 308.996 554.624 308.2C554.869 307.374 556.062 307.283 556.062 307.283L554.012 303C554.012 303 550.678 303.184 550.066 304.254C549.454 305.294 543 318.05 543 318.05L550.066 324.199L550.036 324.168Z" fill="url(#paint13_linear_1796_1051)"/>
<path d="M578.564 386.483C578.564 386.483 577.554 410.435 577.157 420.958C576.759 431.481 573.088 465.895 573.211 475.439C573.333 484.983 572.385 534.508 572.385 534.508H551.736C551.736 534.508 549.259 489.204 549.84 467.577C550.421 445.981 549.748 385.565 549.748 385.565L578.564 386.453V386.483Z" fill="url(#paint14_linear_1796_1051)"/>
<path d="M552.229 526.884C552.229 526.884 534.181 533.461 532.284 535.602C530.388 537.774 531.152 544.412 531.152 544.412H573.734C573.734 544.412 574.498 528.872 572.908 526.884C571.317 524.895 552.26 526.884 552.26 526.884H552.229Z" fill="#3D4AB2"/>
<path d="M566.85 280.734L563.974 285.996C563.974 285.996 557.673 288.749 557.764 289.575C557.856 290.401 559.386 294.225 559.386 294.225C559.386 294.225 556.143 300.618 557.183 302.453C558.223 304.258 566.085 312.487 566.085 312.487L563.515 321.174H583.491L585.387 314.965L582.236 288.688L566.85 280.765V280.734Z" fill="url(#paint15_linear_1796_1051)"/>
<path d="M571.194 300.65L577.954 290.953L566.881 280.736C566.881 280.736 572.938 272.049 582.053 276.056C591.169 280.063 597.532 287.833 596.523 297.408C595.513 306.983 585.449 314.967 585.449 314.967C585.449 314.967 582.084 315.64 578.26 313.927C574.437 312.213 572.02 309.093 572.02 309.093C572.02 309.093 575.721 308.634 575.783 305.392C575.844 302.149 573.182 300.559 571.255 300.681L571.194 300.65Z" fill="#020741"/>
<path d="M531.149 385.718C531.149 385.718 520.688 418.358 518.913 447.908C517.139 477.488 515.854 531.021 515.854 531.021H540.571C540.571 531.021 540.326 478.253 544.15 460.144C547.974 442.034 553.572 425.393 553.572 425.393C553.572 425.393 570.152 400.738 569.876 388.257C569.632 375.777 531.119 385.718 531.119 385.718H531.149Z" fill="url(#paint16_linear_1796_1051)"/>
<path d="M563.485 321.175H583.461C583.461 321.175 588.814 327.66 587.866 338.366C586.917 349.073 580.402 370.669 580.585 376.023C580.769 381.376 583.063 391.318 572.754 392.48C562.445 393.642 530.693 392.847 529.347 387.31C528.001 381.774 534.7 379.082 535.465 372.199C536.23 365.316 543.48 335.154 548.282 329.985C553.054 324.784 563.485 321.175 563.485 321.175Z" fill="white"/>
<path d="M562.167 321.664C562.167 321.664 562.871 317.687 563.483 316.647C564.92 314.231 572.446 315.209 576.545 315.271C581.898 315.362 584.559 315.24 584.834 316.617C585.11 317.932 583.427 321.144 583.427 321.144L562.137 321.633L562.167 321.664Z" fill="#E4EDFC"/>
<path d="M538.83 341.151C538.83 341.151 552.718 327.569 553.575 324.999C554.431 322.43 552.626 320.594 551.189 319.371C549.751 318.116 544.398 314.079 542.685 315.088C540.972 316.098 529.776 331.393 524.147 337.143C518.519 342.894 509.525 357.027 514.97 364.093C520.415 371.159 543.664 362.166 551.495 357.057C562.232 350.052 567.371 342.313 564.862 335.522C562.385 328.731 552.902 331.79 538.861 341.151H538.83Z" fill="#E4EDFC"/>
<path d="M515.367 524.58C515.367 524.58 495.788 532.17 494.759 535.861C493.73 539.552 494.637 544.433 494.637 544.433L538.29 544.394C538.29 544.394 540.654 532.013 539.581 529.691C538.508 527.37 515.397 524.586 515.397 524.586L515.367 524.58Z" fill="#5163ED"/>
<path d="M253.859 206.503C253.859 206.503 247.252 200.294 246.303 192.646C245.355 184.999 248.108 181.45 250.066 179.248C252.024 177.045 256.704 176.77 256.704 176.77C256.704 176.77 256.245 169.795 267.502 169.306C278.79 168.817 285.458 177.045 286.804 182.582C288.15 188.119 287.294 194.329 287.294 194.329L253.828 206.473L253.859 206.503Z" fill="#020741"/>
<path d="M255.052 207.113C255.052 207.113 240.399 219.93 236.851 226.079C233.272 232.197 224.095 265.081 228.683 281.141C233.272 297.201 243.214 314.79 243.214 314.79L260.436 304.848C260.436 304.848 247.986 284.2 246.12 273.249C244.254 262.297 250.616 242.414 250.616 242.414H311.032L315.1 211.488C315.1 211.488 326.51 209.499 335.106 211.488C343.702 213.476 340.857 212.925 340.857 212.925L343.335 237.764H365.512C365.512 237.764 363.218 200.475 355.571 194.938C347.923 189.402 311.032 189.402 303.965 189.769C296.899 190.136 270.408 200.567 255.052 207.113Z" fill="url(#paint17_linear_1796_1051)"/>
<path d="M257.593 204.207C257.593 204.207 253.188 200.964 252.331 204.207C251.475 207.449 255.88 212.221 259.887 211.365C263.894 210.508 257.593 204.207 257.593 204.207Z" fill="url(#paint18_linear_1796_1051)"/>
<path d="M283.591 194.847C283.591 194.847 284.937 190.259 287.415 191.88C289.893 193.501 289.526 200.874 285.518 201.822C281.511 202.77 283.622 194.847 283.622 194.847H283.591Z" fill="url(#paint19_linear_1796_1051)"/>
<path d="M261.232 188.334C261.232 188.334 257.53 186.529 255.94 191.393C254.349 196.256 255.236 202.466 256.154 204.791C257.071 207.116 260.1 214.824 263.465 217.516C266.799 220.208 276.19 222.013 278.76 220.575C281.329 219.138 285.734 213.693 286.315 208.064C286.897 202.436 283.838 190.658 283.838 190.658C283.838 190.658 277.903 190.475 273.896 188.028C269.889 185.581 264.535 181.94 261.293 188.364L261.232 188.334Z" fill="url(#paint20_linear_1796_1051)"/>
<path d="M260.434 304.878C260.434 304.878 270.193 306.775 271.936 308.794C273.649 310.813 271.753 311.363 270.131 311.486C268.51 311.577 264.381 310.996 264.381 310.996C264.381 310.996 273.802 322.926 274.445 324.456C275.087 325.985 273.374 327.576 271.783 326.872C270.193 326.169 263.371 317.39 263.371 317.39C263.371 317.39 269.734 329.258 269.734 330.696C269.734 332.134 268.143 332.929 266.369 331.522C264.595 330.115 259.303 320.754 259.303 320.754C259.303 320.754 265.604 331.461 265.421 332.532C265.237 333.602 263.371 333.633 261.842 332.226C260.343 330.819 255.846 323.997 255.846 323.997C255.846 323.997 258.783 331.124 258.324 332.654C257.865 334.183 256.152 333.725 254.378 330.543C252.603 327.362 244.497 314.055 244.497 314.055L260.434 304.848V304.878Z" fill="url(#paint21_linear_1796_1051)"/>
<path d="M334.862 242.538L343.335 237.766H344.865C344.865 237.766 349.055 232.657 350.921 232.718C352.757 232.779 355.877 235.9 357.345 236.083C358.814 236.267 364.87 235.9 366.522 237.154C368.174 238.439 371.172 242.691 371.814 244.159C372.457 245.627 370.927 247.86 369.765 248.503C368.633 249.145 366.951 248.503 366.951 248.503C366.951 248.503 366.125 250.155 364.779 250.981C363.433 251.806 362.178 250.981 362.178 250.981C362.178 250.981 360.007 251.99 358.722 252.174C357.437 252.388 355.908 251.225 355.908 251.225C355.908 251.225 355.143 253.061 353.001 252.908C350.86 252.755 349.606 251.99 349.27 249.573C348.964 247.157 348.964 242.507 348.964 242.507H334.831L334.862 242.538Z" fill="url(#paint22_linear_1796_1051)"/>
<path d="M719.654 249.308C742.107 249.308 760.308 231.107 760.308 208.654C760.308 186.201 742.107 168 719.654 168C697.201 168 679 186.201 679 208.654C679 231.107 697.201 249.308 719.654 249.308Z" fill="url(#paint23_linear_1796_1051)"/>
<path d="M719.654 168V208.654H760.308C760.308 186.201 742.107 168 719.654 168Z" fill="url(#paint24_linear_1796_1051)"/>
<path d="M719.655 208.654V168C714.087 168 708.795 169.132 703.962 171.151L719.655 208.654Z" fill="url(#paint25_linear_1796_1051)"/>
<path d="M719.654 208.656L703.962 171.152C696.926 174.089 690.9 178.983 686.525 185.132L719.654 208.656Z" fill="url(#paint26_linear_1796_1051)"/>
<path d="M127.528 181.985L147.385 177.43L155.395 212.344C156.352 216.518 153.733 220.697 149.559 221.655L144.848 222.735C140.674 223.693 136.495 221.073 135.538 216.899L127.528 181.985Z" fill="#020741"/>
<path d="M122.14 112.96C120.855 113.266 119.571 112.44 119.295 111.155L117.674 104.12C117.368 102.835 118.194 101.55 119.479 101.275C120.764 100.969 122.048 101.795 122.324 103.08L123.945 110.115C124.251 111.4 123.425 112.685 122.14 112.96Z" fill="#5163ED"/>
<path d="M92.959 133.731C92.2554 134.832 90.7871 135.199 89.6858 134.496L83.5678 130.672C82.4666 129.968 82.0995 128.5 82.8031 127.399C83.5067 126.298 84.975 125.931 86.0762 126.634L92.1942 130.458C93.2954 131.161 93.6625 132.63 92.959 133.731Z" fill="#5163ED"/>
<path d="M86.9933 169.064C87.2992 170.349 86.4732 171.633 85.1885 171.909L78.1528 173.53C76.868 173.836 75.5832 173.01 75.3079 171.725C75.002 170.44 75.8279 169.156 77.1127 168.88L84.1484 167.259C85.4332 166.953 86.718 167.779 86.9933 169.064Z" fill="#5163ED"/>
<path d="M107.764 198.245C108.865 198.949 109.233 200.417 108.529 201.519L104.705 207.637C104.002 208.738 102.533 209.105 101.432 208.401C100.331 207.698 99.9638 206.229 100.667 205.128L104.491 199.01C105.195 197.909 106.663 197.542 107.764 198.245Z" fill="#5163ED"/>
<path d="M172.279 183.441C172.982 182.34 174.451 181.973 175.552 182.676L181.67 186.5C182.771 187.203 183.138 188.672 182.435 189.773C181.731 190.874 180.263 191.241 179.161 190.538L173.043 186.714C171.942 186.01 171.575 184.542 172.279 183.441Z" fill="#5163ED"/>
<path d="M178.243 148.107C177.938 146.822 178.763 145.538 180.048 145.262L187.084 143.641C188.369 143.335 189.654 144.161 189.929 145.446C190.235 146.731 189.409 148.015 188.124 148.291L181.088 149.912C179.804 150.218 178.519 149.392 178.243 148.107Z" fill="#5163ED"/>
<path d="M157.473 118.927C156.372 118.223 156.005 116.755 156.708 115.654L160.532 109.536C161.236 108.434 162.704 108.067 163.805 108.771C164.906 109.474 165.274 110.943 164.57 112.044L160.746 118.162C160.043 119.263 158.574 119.63 157.473 118.927Z" fill="#5163ED"/>
<path d="M117.732 178.128L154.495 169.695L161.068 198.347C162.819 205.98 158.04 213.604 150.407 215.355L141.313 217.441C133.681 219.192 126.056 214.413 124.305 206.781L117.732 178.128Z" fill="#5163ED"/>
<path d="M160.685 196.47C159.982 202.159 155.515 207.207 149.244 208.645L139.517 210.878C133.246 212.315 127.036 209.746 123.916 204.913L124.344 206.779C124.405 207.023 124.467 207.237 124.528 207.482C128.168 211.367 133.919 213.264 139.762 211.918L149.489 209.685C155.301 208.339 159.676 204.117 161.266 199.039C161.236 198.795 161.205 198.55 161.144 198.336L160.716 196.47H160.685Z" fill="#B8CAFF"/>
<path d="M122.601 199.225C126.21 203.14 132.022 205.067 137.865 203.721L147.593 201.488C153.435 200.142 157.84 195.89 159.37 190.782L158.789 188.273C158.085 193.963 153.619 199.011 147.348 200.448L137.62 202.681C131.349 204.119 125.14 201.549 122.02 196.716L122.601 199.225Z" fill="#B8CAFF"/>
<path d="M169.189 150.189C173.808 170.378 161.205 190.506 141.016 195.156C120.826 199.775 100.698 187.172 96.0485 166.983C91.4294 146.793 104.033 126.665 124.222 122.015C144.411 117.396 164.539 129.999 169.189 150.189Z" fill="url(#paint27_linear_1796_1051)"/>
<path d="M116.879 135.197C120.734 137.613 120.917 144.252 117.307 150.033C113.667 155.815 107.61 158.537 103.756 156.12C99.9018 153.704 99.7182 147.066 103.328 141.284C106.968 135.503 113.025 132.78 116.879 135.197Z" fill="url(#paint28_linear_1796_1051)"/>
<path d="M161.112 168.541C163.498 170.04 163.589 174.109 161.356 177.688C159.123 181.236 155.391 182.919 153.005 181.45C150.619 179.952 150.527 175.883 152.761 172.304C154.994 168.756 158.726 167.073 161.112 168.541Z" fill="url(#paint29_linear_1796_1051)"/>
<path d="M146.367 159.703C144.929 160.621 144.256 162.64 144.532 165.271C144.623 166.189 144.776 167.443 144.96 168.972C139.637 171.481 130.888 173.102 125.688 173.316C124.25 169.37 122.966 166.403 122.17 165.668C121.406 164.965 120.427 164.781 119.57 165.21C117.98 165.974 117.337 168.483 117.521 170.532C117.735 173.071 119.173 174.998 121.375 175.61C121.987 175.794 122.843 175.886 123.853 175.916C125.749 181.361 128.074 188.764 130.246 196.044C131.164 196.105 132.051 196.136 132.969 196.105C131.592 191.395 128.992 182.768 126.575 175.855C132.051 175.518 139.913 173.958 145.266 171.664C146.122 178.608 147.438 188.305 148.049 192.802C148.906 192.435 149.701 191.976 150.497 191.548C149.824 186.531 148.539 176.987 147.713 170.441C148.111 170.226 148.478 169.982 148.784 169.737C150.619 168.452 151.598 167.014 151.69 165.516C151.843 162.793 151.017 160.621 149.426 159.673C148.447 159.092 147.285 159.122 146.336 159.703H146.367ZM122.079 173.071C120.763 172.704 120.304 171.542 120.151 170.655C119.937 169.37 120.243 168.207 120.549 167.718C121.039 168.452 121.864 170.41 122.874 173.224C122.568 173.194 122.293 173.132 122.079 173.071ZM149.12 165.332C149.089 166.005 148.478 166.77 147.407 167.534C147.285 166.525 147.193 165.668 147.132 164.996C146.948 162.977 147.468 162.089 147.774 161.875C147.774 161.875 147.835 161.845 147.866 161.814C147.927 161.814 148.019 161.814 148.111 161.875C148.539 162.12 149.242 163.13 149.089 165.301L149.12 165.332Z" fill="#020741"/>
<path d="M507.421 256.302C514.854 263.736 526.907 263.736 534.309 256.302C541.743 248.869 541.743 236.817 534.309 229.414C526.876 221.981 514.823 221.981 507.421 229.414C499.987 236.847 499.987 248.9 507.421 256.302ZM530.18 233.544C535.319 238.683 535.319 247.003 530.18 252.142C525.041 257.281 516.72 257.281 511.581 252.142C506.442 247.003 506.442 238.683 511.581 233.544C516.72 228.404 525.041 228.404 530.18 233.544Z" fill="url(#paint30_linear_1796_1051)"/>
<path d="M507.421 256.302L511.581 252.142C506.442 247.003 506.442 238.682 511.581 233.543L507.421 229.383C499.987 236.816 499.987 248.869 507.421 256.271V256.302Z" fill="url(#paint31_linear_1796_1051)"/>
<path d="M384.541 121.064C384.541 110.572 376.037 102.037 365.514 102.037C354.991 102.037 346.487 110.541 346.487 121.064C346.487 131.587 354.991 140.091 365.514 140.091C376.037 140.091 384.541 131.587 384.541 121.064ZM352.361 121.064C352.361 113.784 358.264 107.91 365.514 107.91C372.764 107.91 378.668 113.814 378.668 121.064C378.668 128.314 372.764 134.218 365.514 134.218C358.264 134.218 352.361 128.314 352.361 121.064Z" fill="url(#paint32_linear_1796_1051)"/>
<path d="M384.541 121.063H378.667C378.667 128.344 372.763 134.217 365.514 134.217V140.09C376.006 140.09 384.541 131.586 384.541 121.063Z" fill="url(#paint33_linear_1796_1051)"/>
</g>
<defs>
<linearGradient id="paint0_linear_1796_1051" x1="372.272" y1="491.969" x2="372.272" y2="544.247" gradientUnits="userSpaceOnUse">
<stop stop-color="#020741"/>
<stop offset="0.34" stop-color="#020741" stop-opacity="0.71"/>
<stop offset="1" stop-color="#020741" stop-opacity="0"/>
</linearGradient>
<linearGradient id="paint1_linear_1796_1051" x1="404" y1="481" x2="403.873" y2="325.466" gradientUnits="userSpaceOnUse">
<stop stop-color="#5163ED" stop-opacity="0"/>
<stop offset="1" stop-color="#B8CAFF"/>
</linearGradient>
<linearGradient id="paint2_linear_1796_1051" x1="56.6892" y1="5.24846e-08" x2="57" y2="40" gradientUnits="userSpaceOnUse">
<stop stop-color="#AC4646"/>
<stop offset="1" stop-color="#999999" stop-opacity="0"/>
</linearGradient>
<linearGradient id="paint3_linear_1796_1051" x1="492.689" y1="97" x2="493" y2="137" gradientUnits="userSpaceOnUse">
<stop stop-color="#AC4646"/>
<stop offset="1" stop-color="#999999" stop-opacity="0"/>
</linearGradient>
<linearGradient id="paint4_linear_1796_1051" x1="37.2255" y1="493.634" x2="37.2255" y2="464.176" gradientUnits="userSpaceOnUse">
<stop stop-color="#CCDAFF"/>
<stop offset="1" stop-color="white"/>
</linearGradient>
<linearGradient id="paint5_linear_1796_1051" x1="56.7125" y1="491.709" x2="56.7125" y2="478.219" gradientUnits="userSpaceOnUse">
<stop stop-color="#5163ED"/>
<stop offset="1" stop-color="#B8CAFF"/>
</linearGradient>
<linearGradient id="paint6_linear_1796_1051" x1="76.2294" y1="495.532" x2="76.2294" y2="458.059" gradientUnits="userSpaceOnUse">
<stop stop-color="#020741"/>
<stop offset="0.15" stop-color="#0A1154"/>
<stop offset="0.45" stop-color="#212B85"/>
<stop offset="0.87" stop-color="#4555D4"/>
<stop offset="1" stop-color="#5163ED"/>
</linearGradient>
<linearGradient id="paint7_linear_1796_1051" x1="375.453" y1="878.809" x2="375.453" y2="363.644" gradientUnits="userSpaceOnUse">
<stop stop-color="#020741"/>
<stop offset="0.15" stop-color="#0A1154"/>
<stop offset="0.45" stop-color="#212B85"/>
<stop offset="0.87" stop-color="#4555D4"/>
<stop offset="1" stop-color="#5163ED"/>
</linearGradient>
<linearGradient id="paint8_linear_1796_1051" x1="219.202" y1="344.247" x2="348.383" y2="281.905" gradientUnits="userSpaceOnUse">
<stop stop-color="#B8CAFF"/>
<stop offset="0.48" stop-color="#CAD9FD"/>
<stop offset="1" stop-color="#E4EDFC"/>
</linearGradient>
<linearGradient id="paint9_linear_1796_1051" x1="260.927" y1="478.54" x2="311.951" y2="317.056" gradientUnits="userSpaceOnUse">
<stop stop-color="#5163ED"/>
<stop offset="0.23" stop-color="#6375F0"/>
<stop offset="0.7" stop-color="#94A6F8"/>
<stop offset="1" stop-color="#B8CAFF"/>
</linearGradient>
<linearGradient id="paint10_linear_1796_1051" x1="401.272" y1="454.769" x2="561.135" y2="294.906" gradientUnits="userSpaceOnUse">
<stop stop-color="#B8CAFF"/>
<stop offset="0.48" stop-color="#CAD9FD"/>
<stop offset="1" stop-color="#E4EDFC"/>
</linearGradient>
<linearGradient id="paint11_linear_1796_1051" x1="145.326" y1="471.535" x2="489.463" y2="75.3038" gradientUnits="userSpaceOnUse">
<stop stop-color="white"/>
<stop offset="0.11" stop-color="white" stop-opacity="0.93"/>
<stop offset="0.32" stop-color="white" stop-opacity="0.73"/>
<stop offset="0.63" stop-color="white" stop-opacity="0.42"/>
<stop offset="1" stop-color="white" stop-opacity="0"/>
</linearGradient>
<linearGradient id="paint12_linear_1796_1051" x1="435.378" y1="475.084" x2="703.652" y2="166.217" gradientUnits="userSpaceOnUse">
<stop stop-color="white"/>
<stop offset="0.11" stop-color="white" stop-opacity="0.93"/>
<stop offset="0.32" stop-color="white" stop-opacity="0.73"/>
<stop offset="0.63" stop-color="white" stop-opacity="0.42"/>
<stop offset="1" stop-color="white" stop-opacity="0"/>
</linearGradient>
<linearGradient id="paint13_linear_1796_1051" x1="548.414" y1="295.842" x2="553.798" y2="322.241" gradientUnits="userSpaceOnUse">
<stop stop-color="#FFA163"/>
<stop offset="0.11" stop-color="#FFAC74"/>
<stop offset="0.29" stop-color="#FFBA8B"/>
<stop offset="0.49" stop-color="#FFC59B"/>
<stop offset="0.7" stop-color="#FFCBA5"/>
<stop offset="1" stop-color="#FFCDA8"/>
</linearGradient>
<linearGradient id="paint14_linear_1796_1051" x1="564.278" y1="375.073" x2="562.321" y2="527.442" gradientUnits="userSpaceOnUse">
<stop stop-color="#020741"/>
<stop offset="0.15" stop-color="#0A1154"/>
<stop offset="0.45" stop-color="#212B85"/>
<stop offset="0.87" stop-color="#4555D4"/>
<stop offset="1" stop-color="#5163ED"/>
</linearGradient>
<linearGradient id="paint15_linear_1796_1051" x1="563.271" y1="264.002" x2="574.742" y2="320.44" gradientUnits="userSpaceOnUse">
<stop stop-color="#FFA163"/>
<stop offset="0.11" stop-color="#FFAC74"/>
<stop offset="0.29" stop-color="#FFBA8B"/>
<stop offset="0.49" stop-color="#FFC59B"/>
<stop offset="0.7" stop-color="#FFCBA5"/>
<stop offset="1" stop-color="#FFCDA8"/>
</linearGradient>
<linearGradient id="paint16_linear_1796_1051" x1="528.427" y1="572.348" x2="549.626" y2="367.426" gradientUnits="userSpaceOnUse">
<stop stop-color="#020741"/>
<stop offset="0.34" stop-color="#212C86"/>
<stop offset="0.65" stop-color="#3B49BD"/>
<stop offset="0.88" stop-color="#4B5CE0"/>
<stop offset="1" stop-color="#5163ED"/>
</linearGradient>
<linearGradient id="paint17_linear_1796_1051" x1="296.471" y1="390.745" x2="296.471" y2="221.49" gradientUnits="userSpaceOnUse">
<stop stop-color="#CCDAFF"/>
<stop offset="0.26" stop-color="#D2DEFF"/>
<stop offset="0.63" stop-color="#E5ECFF"/>
<stop offset="1" stop-color="white"/>
</linearGradient>
<linearGradient id="paint18_linear_1796_1051" x1="260.438" y1="207.113" x2="249.089" y2="207.113" gradientUnits="userSpaceOnUse">
<stop stop-color="#FFA163"/>
<stop offset="0.11" stop-color="#FFAC74"/>
<stop offset="0.29" stop-color="#FFBA8B"/>
<stop offset="0.49" stop-color="#FFC59B"/>
<stop offset="0.7" stop-color="#FFCBA5"/>
<stop offset="1" stop-color="#FFCDA8"/>
</linearGradient>
<linearGradient id="paint19_linear_1796_1051" x1="282.643" y1="203.045" x2="289.526" y2="190.167" gradientUnits="userSpaceOnUse">
<stop stop-color="#FFA163"/>
<stop offset="0.11" stop-color="#FFAC74"/>
<stop offset="0.29" stop-color="#FFBA8B"/>
<stop offset="0.49" stop-color="#FFC59B"/>
<stop offset="0.7" stop-color="#FFCBA5"/>
<stop offset="1" stop-color="#FFCDA8"/>
</linearGradient>
<linearGradient id="paint20_linear_1796_1051" x1="263.587" y1="183.286" x2="278.27" y2="216.813" gradientUnits="userSpaceOnUse">
<stop stop-color="#FFA163"/>
<stop offset="0.2" stop-color="#FFAE78"/>
<stop offset="0.51" stop-color="#FFBF92"/>
<stop offset="0.79" stop-color="#FFC9A2"/>
<stop offset="1" stop-color="#FFCDA8"/>
</linearGradient>
<linearGradient id="paint21_linear_1796_1051" x1="253.674" y1="304.083" x2="277.504" y2="343.177" gradientUnits="userSpaceOnUse">
<stop stop-color="#FFA163"/>
<stop offset="0.11" stop-color="#FFAC74"/>
<stop offset="0.29" stop-color="#FFBA8B"/>
<stop offset="0.49" stop-color="#FFC59B"/>
<stop offset="0.7" stop-color="#FFCBA5"/>
<stop offset="1" stop-color="#FFCDA8"/>
</linearGradient>
<linearGradient id="paint22_linear_1796_1051" x1="356.03" y1="254.407" x2="349.698" y2="228.222" gradientUnits="userSpaceOnUse">
<stop stop-color="#FFA163"/>
<stop offset="0.11" stop-color="#FFAC74"/>
<stop offset="0.29" stop-color="#FFBA8B"/>
<stop offset="0.49" stop-color="#FFC59B"/>
<stop offset="0.7" stop-color="#FFCBA5"/>
<stop offset="1" stop-color="#FFCDA8"/>
</linearGradient>
<linearGradient id="paint23_linear_1796_1051" x1="648.257" y1="280.051" x2="741.709" y2="186.599" gradientUnits="userSpaceOnUse">
<stop stop-color="#CCDAFF"/>
<stop offset="0.26" stop-color="#D2DEFF"/>
<stop offset="0.63" stop-color="#E5ECFF"/>
<stop offset="1" stop-color="white"/>
</linearGradient>
<linearGradient id="paint24_linear_1796_1051" x1="709.682" y1="218.626" x2="745.013" y2="183.295" gradientUnits="userSpaceOnUse">
<stop stop-color="#5163ED"/>
<stop offset="1" stop-color="#B8CAFF"/>
</linearGradient>
<linearGradient id="paint25_linear_1796_1051" x1="699.312" y1="202.383" x2="724.274" y2="177.422" gradientUnits="userSpaceOnUse">
<stop stop-color="#B8CAFF"/>
<stop offset="0.01" stop-color="#B8CAFE"/>
<stop offset="0.65" stop-color="#D8E3FC"/>
<stop offset="1" stop-color="#E4EDFC"/>
</linearGradient>
<linearGradient id="paint26_linear_1796_1051" x1="695.06" y1="204.526" x2="714.362" y2="185.224" gradientUnits="userSpaceOnUse">
<stop stop-color="#020741"/>
<stop offset="0.15" stop-color="#0A1154"/>
<stop offset="0.45" stop-color="#212B85"/>
<stop offset="0.87" stop-color="#4555D4"/>
<stop offset="1" stop-color="#5163ED"/>
</linearGradient>
<linearGradient id="paint27_linear_1796_1051" x1="145.52" y1="214.767" x2="120.303" y2="104.837" gradientUnits="userSpaceOnUse">
<stop stop-color="#B8CAFF"/>
<stop offset="0.42" stop-color="#DCE5FF"/>
<stop offset="0.78" stop-color="#F5F8FF"/>
<stop offset="1" stop-color="white"/>
</linearGradient>
<linearGradient id="paint28_linear_1796_1051" x1="118.491" y1="125.398" x2="106.764" y2="154.451" gradientUnits="userSpaceOnUse">
<stop stop-color="white"/>
<stop offset="0.11" stop-color="white" stop-opacity="0.93"/>
<stop offset="0.32" stop-color="white" stop-opacity="0.73"/>
<stop offset="0.63" stop-color="white" stop-opacity="0.42"/>
<stop offset="1" stop-color="white" stop-opacity="0"/>
</linearGradient>
<linearGradient id="paint29_linear_1796_1051" x1="147.068" y1="191.97" x2="161.973" y2="166.645" gradientUnits="userSpaceOnUse">
<stop stop-color="white"/>
<stop offset="0.46" stop-color="white" stop-opacity="0.51"/>
<stop offset="0.83" stop-color="white" stop-opacity="0.15"/>
<stop offset="1" stop-color="white" stop-opacity="0"/>
</linearGradient>
<linearGradient id="paint30_linear_1796_1051" x1="553.036" y1="242.832" x2="506.293" y2="242.854" gradientUnits="userSpaceOnUse">
<stop stop-color="#CCDAFF"/>
<stop offset="1" stop-color="white"/>
</linearGradient>
<linearGradient id="paint31_linear_1796_1051" x1="514.123" y1="249.559" x2="500.669" y2="236.105" gradientUnits="userSpaceOnUse">
<stop stop-color="#020741"/>
<stop offset="0.15" stop-color="#0A1154"/>
<stop offset="0.45" stop-color="#212B85"/>
<stop offset="0.87" stop-color="#4555D4"/>
<stop offset="1" stop-color="#5163ED"/>
</linearGradient>
<linearGradient id="paint32_linear_1796_1051" x1="342.755" y1="98.3051" x2="375.792" y2="131.342" gradientUnits="userSpaceOnUse">
<stop stop-color="#020741"/>
<stop offset="0.15" stop-color="#0A1154"/>
<stop offset="0.45" stop-color="#212B85"/>
<stop offset="0.87" stop-color="#4555D4"/>
<stop offset="1" stop-color="#5163ED"/>
</linearGradient>
<linearGradient id="paint33_linear_1796_1051" x1="375.027" y1="110.357" x2="375.027" y2="138.928" gradientUnits="userSpaceOnUse">
<stop stop-color="#5163ED"/>
<stop offset="1" stop-color="#B8CAFF"/>
</linearGradient>
</defs>
</svg>
