<svg width="65" height="52" viewBox="0 0 65 52" fill="none" xmlns="http://www.w3.org/2000/svg">
<path d="M22.0921 51.5286C17.5014 51.5286 13.5733 50.4638 10.3077 48.3341C7.0422 46.1571 4.51022 43.1518 2.7118 39.3184C0.960718 35.4376 0.085175 30.9415 0.085175 25.8303C0.085175 20.7663 0.960718 16.2939 2.7118 12.4131C4.51022 8.53236 7.0422 5.52712 10.3077 3.39742C13.5733 1.22039 17.5014 0.131878 22.0921 0.131878C26.6828 0.131878 30.6109 1.22039 33.8764 3.39742C37.142 5.52712 39.6503 8.53236 41.4014 12.4131C43.1998 16.2939 44.099 20.7663 44.099 25.8303C44.099 30.9415 43.1998 35.4376 41.4014 39.3184C39.6503 43.1518 37.142 46.1571 33.8764 48.3341C30.6109 50.4638 26.6828 51.5286 22.0921 51.5286ZM22.0921 43.3648C25.8309 43.3648 28.8835 41.803 31.2498 38.6794C33.6161 35.5559 34.7993 31.2728 34.7993 25.8303C34.7993 20.3877 33.6161 16.1046 31.2498 12.9811C28.8835 9.85751 25.8309 8.29573 22.0921 8.29573C18.3059 8.29573 15.2297 9.85751 12.8634 12.9811C10.5444 16.1046 9.38487 20.3877 9.38487 25.8303C9.38487 31.2728 10.5444 35.5559 12.8634 38.6794C15.2297 41.803 18.3059 43.3648 22.0921 43.3648ZM55.3836 50.6768V11.3483L47.2198 13.265V6.30801L59.2171 0.983756H64.8253V50.6768H55.3836Z" fill="#8B40E5"/>
</svg>
