<svg width="83" height="52" viewBox="0 0 83 52" fill="none" xmlns="http://www.w3.org/2000/svg">
<path d="M22.2015 51.8519C17.6108 51.8519 13.6827 50.787 10.4171 48.6573C7.15157 46.4803 4.61959 43.4751 2.82118 39.6416C1.07009 35.7608 0.19455 31.2648 0.19455 26.1535C0.19455 21.0895 1.07009 16.6172 2.82118 12.7364C4.61959 8.8556 7.15157 5.85036 10.4171 3.72066C13.6827 1.54363 17.6108 0.455121 22.2015 0.455121C26.7921 0.455121 30.7203 1.54363 33.9858 3.72066C37.2513 5.85036 39.7596 8.8556 41.5107 12.7364C43.3091 16.6172 44.2084 21.0895 44.2084 26.1535C44.2084 31.2648 43.3091 35.7608 41.5107 39.6416C39.7596 43.4751 37.2513 46.4803 33.9858 48.6573C30.7203 50.787 26.7921 51.8519 22.2015 51.8519ZM22.2015 43.688C25.9403 43.688 28.9928 42.1262 31.3592 39.0027C33.7255 35.8791 34.9087 31.5961 34.9087 26.1535C34.9087 20.7109 33.7255 16.4279 31.3592 13.3043C28.9928 10.1808 25.9403 8.61897 22.2015 8.61897C18.4153 8.61897 15.3391 10.1808 12.9728 13.3043C10.6537 16.4279 9.49424 20.7109 9.49424 26.1535C9.49424 31.5961 10.6537 35.8791 12.9728 39.0027C15.3391 42.1262 18.4153 43.688 22.2015 43.688ZM48.5443 51V44.3979C51.5732 41.8896 54.5074 39.405 57.347 36.944C60.234 34.483 62.7896 32.0457 65.014 29.632C67.2856 27.2183 69.0841 24.8757 70.4092 22.604C71.7817 20.285 72.4679 18.037 72.4679 15.8599C72.4679 13.8249 71.9 12.0265 70.7642 10.4647C69.6756 8.90293 67.8536 8.12204 65.2979 8.12204C62.695 8.12204 60.7309 8.97392 59.4058 10.6777C58.0806 12.3814 57.418 14.4402 57.418 16.8538H48.6153C48.7099 13.2097 49.5145 10.1807 51.0289 7.76709C52.5434 5.3061 54.5548 3.48403 57.0631 2.30086C59.5714 1.07037 62.3873 0.455121 65.5109 0.455121C70.5748 0.455121 74.503 1.85126 77.2952 4.64353C80.1348 7.38848 81.5546 10.9616 81.5546 15.363C81.5546 18.108 80.9157 20.7819 79.6379 23.3849C78.4074 25.9879 76.7746 28.4962 74.7396 30.9098C72.7045 33.3235 70.5039 35.5952 68.1375 37.7249C65.7712 39.8072 63.4758 41.7476 61.2515 43.546H82.7615V51H48.5443Z" fill="#FD346E"/>
</svg>
