<svg width="89" height="52" viewBox="0 0 89 52" fill="none" xmlns="http://www.w3.org/2000/svg">
<path d="M22.2015 51.8519C17.6108 51.8519 13.6827 50.787 10.4171 48.6573C7.15157 46.4803 4.61959 43.4751 2.82118 39.6416C1.07009 35.7608 0.19455 31.2648 0.19455 26.1535C0.19455 21.0895 1.07009 16.6172 2.82118 12.7364C4.61959 8.8556 7.15157 5.85036 10.4171 3.72066C13.6827 1.54363 17.6108 0.455121 22.2015 0.455121C26.7921 0.455121 30.7203 1.54363 33.9858 3.72066C37.2513 5.85036 39.7596 8.8556 41.5107 12.7364C43.3091 16.6172 44.2084 21.0895 44.2084 26.1535C44.2084 31.2648 43.3091 35.7608 41.5107 39.6416C39.7596 43.4751 37.2513 46.4803 33.9858 48.6573C30.7203 50.787 26.7921 51.8519 22.2015 51.8519ZM22.2015 43.688C25.9403 43.688 28.9928 42.1262 31.3592 39.0027C33.7255 35.8791 34.9087 31.5961 34.9087 26.1535C34.9087 20.7109 33.7255 16.4279 31.3592 13.3043C28.9928 10.1808 25.9403 8.61897 22.2015 8.61897C18.4153 8.61897 15.3391 10.1808 12.9728 13.3043C10.6537 16.4279 9.49424 20.7109 9.49424 26.1535C9.49424 31.5961 10.6537 35.8791 12.9728 39.0027C15.3391 42.1262 18.4153 43.688 22.2015 43.688ZM72.8145 51V41.7713H48.323V34.5303L71.6077 1.307H81.9013V33.8914H88.4323V41.7713H81.9013V51H72.8145ZM58.0486 33.8914H73.3825V11.3166L58.0486 33.8914Z" fill="#5800FF"/>
</svg>
