<svg width="87" height="52" viewBox="0 0 87 52" fill="none" xmlns="http://www.w3.org/2000/svg">
<path d="M22.803 51.762C18.2123 51.762 14.2842 50.6972 11.0187 48.5675C7.75313 46.3905 5.22116 43.3852 3.42274 39.5518C1.67166 35.671 0.796113 31.1749 0.796113 26.0637C0.796113 20.9997 1.67166 16.5273 3.42274 12.6465C5.22116 8.76576 7.75313 5.76051 11.0187 3.63082C14.2842 1.45379 18.2123 0.365277 22.803 0.365277C27.3937 0.365277 31.3218 1.45379 34.5874 3.63082C37.8529 5.76051 40.3612 8.76576 42.1123 12.6465C43.9107 16.5273 44.8099 20.9997 44.8099 26.0637C44.8099 31.1749 43.9107 35.671 42.1123 39.5518C40.3612 43.3852 37.8529 46.3905 34.5874 48.5675C31.3218 50.6972 27.3937 51.762 22.803 51.762ZM22.803 43.5982C26.5418 43.5982 29.5944 42.0364 31.9607 38.9128C34.3271 35.7893 35.5102 31.5062 35.5102 26.0637C35.5102 20.6211 34.3271 16.338 31.9607 13.2145C29.5944 10.0909 26.5418 8.52913 22.803 8.52913C19.0169 8.52913 15.9406 10.0909 13.5743 13.2145C11.2553 16.338 10.0958 20.6211 10.0958 26.0637C10.0958 31.5062 11.2553 35.7893 13.5743 38.9128C15.9406 42.0364 19.0169 43.5982 22.803 43.5982ZM68.5178 51.762C64.8736 51.762 61.7264 51.1231 59.0761 49.8453C56.4732 48.5675 54.4145 46.8164 52.9 44.592C51.4329 42.3204 50.581 39.7647 50.3444 36.9251H59.2181C59.644 38.9602 60.6852 40.6639 62.3417 42.0364C63.9981 43.3616 66.0568 44.0241 68.5178 44.0241C71.1681 44.0241 73.3215 43.0539 74.9779 41.1135C76.6816 39.1731 77.5335 36.7595 77.5335 33.8726C77.5335 30.891 76.6816 28.5246 74.9779 26.7736C73.3215 25.0225 71.2154 24.1469 68.6598 24.1469C66.5301 24.1469 64.6843 24.6675 63.1226 25.7087C61.5608 26.7499 60.4486 28.0514 59.786 29.6132H51.0543L55.3137 1.21715H82.8578V9.16804H62.1287L59.857 20.6684C60.8982 19.5326 62.318 18.6097 64.1164 17.8998C65.9148 17.1426 67.9262 16.764 70.1506 16.764C73.7001 16.764 76.658 17.5685 79.0243 19.1776C81.3906 20.7394 83.1891 22.8218 84.4196 25.4247C85.65 27.9804 86.2653 30.7727 86.2653 33.8016C86.2653 37.2564 85.5081 40.3326 83.9936 43.0303C82.5265 45.7279 80.4441 47.8576 77.7465 49.4194C75.0962 50.9811 72.02 51.762 68.5178 51.762Z" fill="#8B40E5"/>
</svg>
