<svg width="61" height="61" viewBox="0 0 61 61" fill="none" xmlns="http://www.w3.org/2000/svg">
<rect opacity="0.15" x="0.927734" y="0.47168" width="60" height="60" rx="6.74708" fill="#8B40E5"/>
<g clip-path="url(#clip0_1609_365)">
<path d="M43.2058 19.6233L41.5533 21.2758L37.7233 17.4458L39.2658 15.9033C40.267 14.9021 41.9008 14.7096 42.997 15.6071C44.2583 16.6383 44.327 18.5021 43.2045 19.6246L43.2058 19.6233ZM35.9558 19.2133L29.3358 25.8333C28.3195 26.8496 27.7495 28.2271 27.7495 29.6633V30.6246C27.7495 30.9696 28.0295 31.2496 28.3745 31.2496H29.3358C30.772 31.2496 32.1495 30.6783 33.1658 29.6633L39.7858 23.0433L35.9558 19.2133ZM40.5895 32.3558L40.0258 32.0308C40.1533 31.3508 40.217 30.6708 40.217 29.9996C40.217 29.3283 40.1533 28.6483 40.0258 27.9683L39.6633 26.6996L34.9333 31.4296C33.4383 32.9246 31.4508 33.7483 29.3358 33.7483H28.3733C26.6495 33.7483 25.2483 32.3471 25.2483 30.6233V29.6608C25.2483 27.5471 26.072 25.5596 27.567 24.0633L32.7158 18.9146V18.7471C32.7158 16.6796 31.0333 14.9971 28.9658 14.9971C26.8983 14.9971 25.2158 16.6796 25.2158 18.7471V19.3996C23.907 19.8621 22.6958 20.5608 21.6445 21.4608L21.082 21.1371C20.2158 20.6396 19.2058 20.5071 18.2358 20.7683C17.2695 21.0283 16.462 21.6508 15.9633 22.5183C15.4633 23.3858 15.332 24.3971 15.5933 25.3646C15.8533 26.3308 16.4758 27.1383 17.3445 27.6383L17.9083 27.9621C17.7808 28.6421 17.717 29.3221 17.717 29.9946C17.717 30.6671 17.7808 31.3471 17.9083 32.0271L17.3445 32.3508C16.4758 32.8508 15.8545 33.6583 15.5933 34.6246C15.332 35.5921 15.4633 36.6033 15.962 37.4696C16.4608 38.3383 17.2683 38.9608 18.2358 39.2208C19.2058 39.4833 20.2158 39.3508 21.082 38.8521L21.6445 38.5283C22.6958 39.4296 23.907 40.1271 25.2158 40.5896V41.2421C25.2158 43.3096 26.8983 44.9921 28.9658 44.9921C31.0333 44.9921 32.7158 43.3096 32.7158 41.2421V40.5896C34.0245 40.1271 35.2358 39.4283 36.287 38.5283L36.8495 38.8521C37.7183 39.3508 38.7283 39.4833 39.6958 39.2208C40.662 38.9608 41.4695 38.3383 41.9695 37.4696C43.0008 35.6771 42.3808 33.3808 40.5883 32.3496L40.5895 32.3558Z" fill="#FD346E"/>
</g>
<defs>
<clipPath id="clip0_1609_365">
<rect width="30" height="30" fill="white" transform="translate(14 15)"/>
</clipPath>
</defs>
</svg>
