<svg width="61" height="61" viewBox="0 0 61 61" fill="none" xmlns="http://www.w3.org/2000/svg">
<rect opacity="0.15" x="0.927734" y="0.47168" width="60" height="60" rx="6.74708" fill="#FF885A"/>
<g clip-path="url(#clip0_1609_366)">
<path d="M26.0003 39.997H36.0003V40.3846C36.0003 42.9283 33.9315 44.997 31.3878 44.997H30.614C28.0703 44.997 26.0015 42.9283 26.0015 40.3846V39.997H26.0003ZM42.2503 26.2471C42.2503 29.4846 40.8528 32.5658 38.4153 34.7008C37.4915 35.5108 36.8215 36.467 36.4228 37.497H25.454C25.0065 36.4008 24.2965 35.3696 23.3353 34.4758C20.649 31.9746 19.3765 28.4383 19.844 24.7746C20.4878 19.7246 24.6303 15.6433 29.6953 15.0708C32.904 14.7096 36.1078 15.7233 38.4928 17.8546C40.8803 19.9883 42.2503 23.0471 42.2503 26.2471ZM29.7503 27.4995C29.7503 28.1896 30.309 28.7495 31.0003 28.7495C31.6915 28.7495 32.2503 28.1896 32.2503 27.4995V21.2496C32.2503 20.5596 31.6915 19.9996 31.0003 19.9996C30.309 19.9996 29.7503 20.5596 29.7503 21.2496V27.4995ZM32.8753 31.8745C32.8753 30.8396 32.0353 29.9995 31.0003 29.9995C29.9653 29.9995 29.1253 30.8396 29.1253 31.8745C29.1253 32.9095 29.9653 33.7495 31.0003 33.7495C32.0353 33.7495 32.8753 32.9095 32.8753 31.8745Z" fill="#FF885A"/>
</g>
<defs>
<clipPath id="clip0_1609_366">
<rect width="30" height="30" fill="white" transform="translate(16 15)"/>
</clipPath>
</defs>
</svg>
