<svg width="61" height="61" viewBox="0 0 61 61" fill="none" xmlns="http://www.w3.org/2000/svg">
<rect opacity="0.15" x="0.927734" y="0.47168" width="60" height="60" rx="6.74708" fill="#892DF5"/>
<g clip-path="url(#clip0_1609_367)">
<path d="M30.5 17C28.0277 17 25.611 17.7331 23.5554 19.1066C21.4998 20.4801 19.8976 22.4324 18.9515 24.7165C18.0054 27.0005 17.7579 29.5139 18.2402 31.9386C18.7225 34.3634 19.913 36.5907 21.6612 38.3388C23.4093 40.087 25.6366 41.2775 28.0614 41.7598C30.4861 42.2421 32.9995 41.9946 35.2835 41.0485C37.5676 40.1024 39.5199 38.5002 40.8934 36.4446C42.2669 34.389 43 31.9723 43 29.5C42.9964 26.1859 41.6783 23.0086 39.3349 20.6651C36.9915 18.3217 33.8141 17.0036 30.5 17ZM31.5417 29.374C31.5418 29.5505 31.497 29.7242 31.4115 29.8788C31.3261 30.0333 31.2028 30.1635 31.0531 30.2573L27.0531 32.7573C26.9369 32.8299 26.8074 32.879 26.6722 32.9016C26.537 32.9242 26.3986 32.9199 26.265 32.8891C26.1315 32.8582 26.0053 32.8014 25.8937 32.7217C25.7821 32.6421 25.6872 32.5413 25.6146 32.425C25.542 32.3087 25.4929 32.1793 25.4703 32.0441C25.4477 31.9088 25.4519 31.7705 25.4828 31.6369C25.5137 31.5033 25.5705 31.3771 25.6502 31.2655C25.7298 31.1539 25.8306 31.0591 25.9469 30.9865L29.4583 28.7969V24.2917C29.4583 24.0154 29.5681 23.7504 29.7634 23.5551C29.9588 23.3597 30.2237 23.25 30.5 23.25C30.7763 23.25 31.0412 23.3597 31.2366 23.5551C31.4319 23.7504 31.5417 24.0154 31.5417 24.2917V29.374Z" fill="#5800FF"/>
</g>
<defs>
<clipPath id="clip0_1609_367">
<rect width="25" height="25" fill="white" transform="translate(18 17)"/>
</clipPath>
</defs>
</svg>
