<svg width="1916" height="589" viewBox="0 0 1916 589" fill="none" xmlns="http://www.w3.org/2000/svg">
<rect width="1920" height="570" fill="url(#paint0_linear_324_13)"/>
<g filter="url(#filter0_f_324_13)">
<ellipse cx="962.251" cy="280.784" rx="391.251" ry="226.95" fill="url(#paint1_linear_324_13)"/>
</g>
<g opacity="0.3" filter="url(#filter1_f_324_13)">
<ellipse cx="962.251" cy="300.205" rx="391.251" ry="226.95" fill="url(#paint2_linear_324_13)"/>
<path d="M1348.99 300.205C1348.99 360.594 1306.76 416.112 1236.65 456.784C1166.65 497.389 1069.64 522.648 962.251 522.648C854.861 522.648 757.857 497.389 687.857 456.784C617.741 416.112 575.508 360.594 575.508 300.205C575.508 239.816 617.741 184.297 687.857 143.626C757.857 103.021 854.861 77.7621 962.251 77.7621C1069.64 77.7621 1166.65 103.021 1236.65 143.626C1306.76 184.297 1348.99 239.816 1348.99 300.205Z" stroke="url(#paint3_linear_324_13)" stroke-width="9.01533"/>
</g>
<g opacity="0.3" filter="url(#filter2_f_324_13)">
<ellipse cx="962.251" cy="342.687" rx="391.251" ry="226.95" fill="url(#paint4_linear_324_13)"/>
<path d="M1348.99 342.687C1348.99 403.076 1306.76 458.595 1236.65 499.266C1166.65 539.871 1069.64 565.13 962.251 565.13C854.861 565.13 757.857 539.871 687.857 499.266C617.741 458.595 575.508 403.076 575.508 342.687C575.508 282.298 617.741 226.78 687.857 186.108C757.857 145.503 854.861 120.244 962.251 120.244C1069.64 120.244 1166.65 145.503 1236.65 186.108C1306.76 226.78 1348.99 282.298 1348.99 342.687Z" stroke="url(#paint5_linear_324_13)" stroke-width="9.01533"/>
</g>
<g opacity="0.3" filter="url(#filter3_f_324_13)">
<mask id="path-7-inside-1_324_13" fill="white">
<path fill-rule="evenodd" clip-rule="evenodd" d="M1214.58 125.774C1147.91 101.945 1060.06 87.468 963.794 87.468C867.879 87.468 780.322 101.838 713.741 125.511C774.498 93.5547 864.047 73.3523 963.913 73.3523C1064.05 73.3523 1153.82 93.6658 1214.58 125.774Z"/>
</mask>
<path fill-rule="evenodd" clip-rule="evenodd" d="M1214.58 125.774C1147.91 101.945 1060.06 87.468 963.794 87.468C867.879 87.468 780.322 101.838 713.741 125.511C774.498 93.5547 864.047 73.3523 963.913 73.3523C1064.05 73.3523 1153.82 93.6658 1214.58 125.774Z" fill="url(#paint6_linear_324_13)"/>
<path d="M1214.58 125.774L1211.55 134.264L1218.8 117.803L1214.58 125.774ZM713.741 125.511L709.545 117.532L716.761 134.005L713.741 125.511ZM963.794 96.4833C1059.25 96.4833 1146.04 110.849 1211.55 134.264L1217.62 117.285C1149.79 93.0412 1060.88 78.4527 963.794 78.4527V96.4833ZM716.761 134.005C782.189 110.743 868.694 96.4833 963.794 96.4833V78.4527C867.065 78.4527 778.455 92.934 710.721 117.016L716.761 134.005ZM717.938 133.49C777.071 102.388 865.084 82.3676 963.913 82.3676V64.337C863.01 64.337 771.926 84.7214 709.545 117.532L717.938 133.49ZM963.913 82.3676C1063.02 82.3676 1151.24 102.499 1210.37 133.745L1218.8 117.803C1156.4 84.8329 1065.09 64.337 963.913 64.337V82.3676Z" fill="url(#paint7_linear_324_13)" mask="url(#path-7-inside-1_324_13)"/>
</g>
<g opacity="0.3" filter="url(#filter4_f_324_13)">
<mask id="path-9-inside-2_324_13" fill="white">
<path fill-rule="evenodd" clip-rule="evenodd" d="M1214.58 125.774C1147.91 101.945 1060.06 87.468 963.794 87.468C867.879 87.468 780.322 101.838 713.741 125.511C774.498 93.5547 864.047 73.3523 963.913 73.3523C1064.05 73.3523 1153.82 93.6658 1214.58 125.774Z"/>
</mask>
<path fill-rule="evenodd" clip-rule="evenodd" d="M1214.58 125.774C1147.91 101.945 1060.06 87.468 963.794 87.468C867.879 87.468 780.322 101.838 713.741 125.511C774.498 93.5547 864.047 73.3523 963.913 73.3523C1064.05 73.3523 1153.82 93.6658 1214.58 125.774Z" fill="url(#paint8_linear_324_13)"/>
<path d="M1214.58 125.774L1211.55 134.264L1218.8 117.803L1214.58 125.774ZM713.741 125.511L709.545 117.532L716.761 134.005L713.741 125.511ZM963.794 96.4833C1059.25 96.4833 1146.04 110.849 1211.55 134.264L1217.62 117.285C1149.79 93.0412 1060.88 78.4527 963.794 78.4527V96.4833ZM716.761 134.005C782.189 110.743 868.694 96.4833 963.794 96.4833V78.4527C867.065 78.4527 778.455 92.934 710.721 117.016L716.761 134.005ZM717.938 133.49C777.071 102.388 865.084 82.3676 963.913 82.3676V64.337C863.01 64.337 771.926 84.7214 709.545 117.532L717.938 133.49ZM963.913 82.3676C1063.02 82.3676 1151.24 102.499 1210.37 133.745L1218.8 117.803C1156.4 84.8329 1065.09 64.337 963.913 64.337V82.3676Z" fill="url(#paint9_linear_324_13)" mask="url(#path-9-inside-2_324_13)"/>
</g>
<path d="M1429.43 300.914C1421.81 300.914 1415.45 306.41 1414.1 313.652H1323.84V274.935H1372.14C1373.49 282.177 1379.85 287.673 1387.48 287.673C1396.08 287.673 1403.07 280.672 1403.07 272.077C1403.07 263.482 1396.07 256.481 1387.48 256.481C1379.85 256.481 1373.5 261.977 1372.14 269.219H1323.84V235.852H1377.26L1395.14 217.971C1397.65 219.697 1400.68 220.712 1403.96 220.712C1412.56 220.712 1419.55 213.711 1419.55 205.116C1419.55 196.521 1412.55 189.52 1403.96 189.52C1395.36 189.52 1388.36 196.521 1388.36 205.116C1388.36 208.382 1389.38 211.419 1391.1 213.932L1374.89 230.143H1323.85V218.869C1323.85 211.861 1321.12 205.268 1316.17 200.311L1288.73 172.875C1283.77 167.918 1277.19 165.191 1270.17 165.191H1258.9V107.412L1275.11 91.2019C1277.62 92.9279 1280.65 93.9427 1283.93 93.9427C1292.53 93.9427 1299.52 86.9422 1299.52 78.3469C1299.52 69.7515 1292.52 62.751 1283.93 62.751C1275.33 62.751 1268.33 69.7515 1268.33 78.3469C1268.33 81.6124 1269.34 84.6501 1271.07 87.1631L1253.19 105.044V165.191H1219.82V126.902C1227.06 125.556 1232.56 119.197 1232.56 111.568C1232.56 102.966 1225.56 95.9725 1216.96 95.9725C1208.37 95.9725 1201.37 102.973 1201.37 111.568C1201.37 119.19 1206.86 125.549 1214.11 126.902V165.191H1175.39V74.9294C1182.62 73.5832 1188.13 67.2247 1188.13 59.5959C1188.13 50.9936 1181.13 44 1172.53 44C1163.94 44 1156.94 51.0005 1156.94 59.5959C1156.94 67.2178 1162.43 73.5763 1169.67 74.9294V165.184H1130.96V116.884C1138.2 115.538 1143.69 109.18 1143.69 101.551C1143.69 92.9486 1136.69 85.9549 1128.1 85.9549C1119.5 85.9549 1112.5 92.9555 1112.5 101.551C1112.5 109.173 1118 115.531 1125.24 116.884V165.184H1091.87V111.769L1073.99 93.8875C1075.72 91.3814 1076.73 88.3437 1076.73 85.0712C1076.73 76.469 1069.73 69.4754 1061.14 69.4754C1052.54 69.4754 1045.54 76.4759 1045.54 85.0712C1045.54 93.6666 1052.54 100.667 1061.14 100.667C1064.4 100.667 1067.44 99.6523 1069.95 97.9263L1086.16 114.137V165.177H1074.89C1067.88 165.177 1061.29 167.904 1056.33 172.861L1028.9 200.297C1023.94 205.254 1021.21 211.84 1021.21 218.855V230.129H963.433L947.223 213.919C948.949 211.412 949.963 208.375 949.963 205.102C949.963 196.5 942.963 189.506 934.368 189.506C925.772 189.506 918.772 196.507 918.772 205.102C918.772 213.698 925.772 220.698 934.368 220.698C937.633 220.698 940.671 219.683 943.184 217.957L961.065 235.838H1021.21V269.205H982.923C981.576 261.97 975.218 256.467 967.589 256.467C958.987 256.467 951.993 263.468 951.993 272.063C951.993 280.658 958.994 287.659 967.589 287.659C975.211 287.659 981.569 282.164 982.923 274.921H1021.21V313.638H930.929C929.583 306.403 923.225 300.901 915.596 300.901C906.994 300.901 900 307.901 900 316.497C900 325.092 907.001 332.092 915.596 332.092C923.218 332.092 929.576 326.597 930.929 319.355H1021.18V358.072H972.884C971.538 350.83 965.18 345.334 957.551 345.334C948.949 345.334 941.955 352.335 941.955 360.93C941.955 369.525 948.955 376.526 957.551 376.526C965.173 376.526 971.531 371.03 972.884 363.788H1021.18V397.155H967.769L949.888 415.036C947.381 413.31 944.344 412.295 941.071 412.295C932.469 412.295 925.475 419.295 925.475 427.891C925.475 436.486 932.476 443.487 941.071 443.487C949.667 443.487 956.667 436.486 956.667 427.891C956.667 424.625 955.652 421.588 953.926 419.075L970.137 402.864H1021.18V414.138C1021.18 421.146 1023.9 427.739 1028.86 432.696L1056.3 460.132C1061.25 465.089 1067.84 467.816 1074.85 467.816H1086.13V525.595L1069.92 541.805C1067.41 540.079 1064.37 539.064 1061.1 539.064C1052.5 539.064 1045.51 546.065 1045.51 554.66C1045.51 563.255 1052.51 570.256 1061.1 570.256C1069.7 570.256 1076.7 563.255 1076.7 554.66C1076.7 551.395 1075.68 548.357 1073.96 545.844L1091.84 527.963V467.816H1125.2V506.105C1117.97 507.451 1112.47 513.81 1112.47 521.439C1112.47 530.041 1119.47 537.034 1128.06 537.034C1136.66 537.034 1143.66 530.034 1143.66 521.439C1143.66 513.817 1138.16 507.458 1130.92 506.105V467.816H1169.64V558.071C1162.4 559.417 1156.9 565.775 1156.9 573.404C1156.9 582.006 1163.9 589 1172.5 589C1181.09 589 1188.09 581.999 1188.09 573.404C1188.09 565.782 1182.6 559.424 1175.35 558.071V467.816H1214.07V516.116C1206.83 517.462 1201.33 523.82 1201.33 531.449C1201.33 540.051 1208.33 547.045 1216.93 547.045C1225.53 547.045 1232.53 540.045 1232.53 531.449C1232.53 523.827 1227.03 517.469 1219.79 516.116V467.816H1253.15V521.231L1271.04 539.113C1269.31 541.626 1268.29 544.656 1268.29 547.929C1268.29 556.531 1275.3 563.525 1283.89 563.525C1292.49 563.525 1299.49 556.524 1299.49 547.929C1299.49 539.333 1292.49 532.333 1283.89 532.333C1280.63 532.333 1277.59 533.348 1275.07 535.074L1258.86 518.863V467.823H1270.14C1277.15 467.823 1283.74 465.096 1288.7 460.139L1316.13 432.703C1321.09 427.746 1323.82 421.16 1323.82 414.145V402.871H1381.59L1397.8 419.081C1396.08 421.588 1395.06 424.625 1395.06 427.898C1395.06 436.5 1402.06 443.494 1410.66 443.494C1419.26 443.494 1426.26 436.493 1426.26 427.898C1426.26 419.302 1419.26 412.302 1410.66 412.302C1407.39 412.302 1404.36 413.317 1401.84 415.043L1383.96 397.162H1323.82V363.795H1362.11C1363.45 371.03 1369.81 376.533 1377.44 376.533C1386.04 376.533 1393.03 369.532 1393.03 360.937C1393.03 352.342 1386.03 345.341 1377.44 345.341C1369.82 345.341 1363.46 350.836 1362.11 358.079H1323.82V319.362H1414.07C1415.42 326.597 1421.78 332.099 1429.4 332.099C1438.01 332.099 1445 325.099 1445 316.503C1445 307.908 1438 300.908 1429.4 300.908L1429.43 300.914ZM1387.48 262.204C1392.93 262.204 1397.36 266.637 1397.36 272.084C1397.36 277.531 1392.93 281.963 1387.48 281.963C1382.04 281.963 1377.6 277.531 1377.6 272.084C1377.6 266.637 1382.04 262.204 1387.48 262.204ZM1403.96 195.23C1409.4 195.23 1413.84 199.662 1413.84 205.109C1413.84 210.556 1409.4 214.989 1403.96 214.989C1398.51 214.989 1394.08 210.556 1394.08 205.109C1394.08 199.662 1398.51 195.23 1403.96 195.23ZM1283.93 68.4605C1289.37 68.4605 1293.8 72.8928 1293.8 78.34C1293.8 83.7871 1289.37 88.2194 1283.93 88.2194C1278.48 88.2194 1274.05 83.7871 1274.05 78.34C1274.05 72.8928 1278.48 68.4605 1283.93 68.4605ZM1207.08 111.561C1207.08 106.114 1211.51 101.682 1216.96 101.682C1222.4 101.682 1226.84 106.114 1226.84 111.561C1226.84 117.009 1222.4 121.441 1216.96 121.441C1211.51 121.441 1207.08 117.009 1207.08 111.561ZM1162.64 59.5959C1162.64 54.1487 1167.07 49.7164 1172.52 49.7164C1177.96 49.7164 1182.4 54.1487 1182.4 59.5959C1182.4 65.0431 1177.96 69.4754 1172.52 69.4754C1167.07 69.4754 1162.64 65.0431 1162.64 59.5959ZM1118.2 101.551C1118.2 96.1037 1122.64 91.6714 1128.08 91.6714C1133.53 91.6714 1137.96 96.1037 1137.96 101.551C1137.96 106.998 1133.53 111.43 1128.08 111.43C1122.64 111.43 1118.2 106.998 1118.2 101.551ZM1061.11 94.9507C1055.66 94.9507 1051.23 90.5184 1051.23 85.0712C1051.23 79.6241 1055.66 75.1918 1061.11 75.1918C1066.56 75.1918 1070.99 79.6241 1070.99 85.0712C1070.99 90.5184 1066.56 94.9507 1061.11 94.9507ZM934.34 214.989C928.893 214.989 924.46 210.556 924.46 205.109C924.46 199.662 928.893 195.23 934.34 195.23C939.787 195.23 944.219 199.662 944.219 205.109C944.219 210.556 939.787 214.989 934.34 214.989ZM967.561 281.956C962.114 281.956 957.682 277.524 957.682 272.077C957.682 266.63 962.114 262.197 967.561 262.197C973.009 262.197 977.441 266.63 977.441 272.077C977.441 277.524 973.009 281.956 967.561 281.956ZM915.596 326.39C910.149 326.39 905.716 321.958 905.716 316.51C905.716 311.063 910.149 306.631 915.596 306.631C921.043 306.631 925.475 311.063 925.475 316.51C925.475 321.958 921.043 326.39 915.596 326.39ZM957.551 370.83C952.104 370.83 947.671 366.398 947.671 360.951C947.671 355.504 952.104 351.071 957.551 351.071C962.998 351.071 967.43 355.504 967.43 360.951C967.43 366.398 962.998 370.83 957.551 370.83ZM941.071 437.798C935.624 437.798 931.192 433.366 931.192 427.918C931.192 422.471 935.624 418.039 941.071 418.039C946.518 418.039 950.951 422.471 950.951 427.918C950.951 433.366 946.518 437.798 941.071 437.798ZM1061.11 564.567C1055.66 564.567 1051.23 560.135 1051.23 554.688C1051.23 549.241 1055.66 544.808 1061.11 544.808C1066.56 544.808 1070.99 549.241 1070.99 554.688C1070.99 560.135 1066.56 564.567 1061.11 564.567ZM1137.96 521.473C1137.96 526.92 1133.52 531.353 1128.08 531.353C1122.63 531.353 1118.2 526.92 1118.2 521.473C1118.2 516.026 1122.63 511.594 1128.08 511.594C1133.52 511.594 1137.96 516.026 1137.96 521.473ZM1182.39 573.432C1182.39 578.879 1177.96 583.311 1172.51 583.311C1167.06 583.311 1162.63 578.879 1162.63 573.432C1162.63 567.985 1167.06 563.552 1172.51 563.552C1177.96 563.552 1182.39 567.985 1182.39 573.432ZM1226.83 531.484C1226.83 536.931 1222.4 541.363 1216.95 541.363C1211.5 541.363 1207.07 536.931 1207.07 531.484C1207.07 526.036 1211.5 521.604 1216.95 521.604C1222.4 521.604 1226.83 526.036 1226.83 531.484ZM1283.93 538.084C1289.37 538.084 1293.8 542.516 1293.8 547.963C1293.8 553.41 1289.37 557.843 1283.93 557.843C1278.48 557.843 1274.05 553.41 1274.05 547.963C1274.05 542.516 1278.48 538.084 1283.93 538.084ZM1410.69 418.046C1416.14 418.046 1420.57 422.478 1420.57 427.925C1420.57 433.372 1416.14 437.805 1410.69 437.805C1405.25 437.805 1400.82 433.372 1400.82 427.925C1400.82 422.478 1405.25 418.046 1410.69 418.046ZM1377.47 351.078C1382.92 351.078 1387.35 355.51 1387.35 360.958C1387.35 366.405 1382.92 370.837 1377.47 370.837C1372.03 370.837 1367.59 366.405 1367.59 360.958C1367.59 355.51 1372.03 351.078 1377.47 351.078ZM1318.13 414.173C1318.13 419.654 1315.99 424.805 1312.11 428.685L1284.68 456.121C1280.8 459.994 1275.65 462.127 1270.17 462.127H1074.86C1069.38 462.127 1064.23 459.994 1060.35 456.121L1032.91 428.685C1029.04 424.812 1026.91 419.654 1026.91 414.173V218.862C1026.91 213.38 1029.04 208.23 1032.91 204.35L1060.35 176.914C1064.22 173.041 1069.38 170.9 1074.86 170.9H1270.17C1275.65 170.9 1280.8 173.034 1284.68 176.914L1312.12 204.35C1315.99 208.223 1318.13 213.38 1318.13 218.862V414.173H1318.13ZM1429.43 326.39C1423.98 326.39 1419.55 321.958 1419.55 316.51C1419.55 311.063 1423.98 306.631 1429.43 306.631C1434.88 306.631 1439.31 311.063 1439.31 316.51C1439.31 321.958 1434.88 326.39 1429.43 326.39Z" fill="url(#paint10_linear_324_13)" fill-opacity="0.07"/>
<path d="M1230.58 246.007C1227.89 243.316 1224.32 241.836 1220.52 241.836H1125.43C1121.63 241.836 1118.05 243.316 1115.37 246.007L1102.01 259.366C1099.32 262.058 1097.84 265.63 1097.84 269.429V364.522C1097.84 368.321 1099.32 371.9 1102.01 374.585L1115.37 387.944C1118.06 390.635 1121.63 392.115 1125.43 392.115H1220.52C1224.32 392.115 1227.9 390.635 1230.58 387.944L1243.94 374.585C1246.64 371.893 1248.12 368.321 1248.12 364.522V269.429C1248.12 265.63 1246.64 262.051 1243.94 259.366L1230.58 246.007ZM1242.41 364.522C1242.41 366.8 1241.52 368.941 1239.91 370.551L1226.55 383.911C1224.94 385.521 1222.8 386.409 1220.52 386.409H1125.43C1123.15 386.409 1121.01 385.521 1119.4 383.911L1106.04 370.551C1104.43 368.941 1103.54 366.8 1103.54 364.522V269.429C1103.54 267.151 1104.43 265.01 1106.04 263.4L1119.4 250.04C1121.01 248.43 1123.15 247.542 1125.43 247.542H1220.52C1222.8 247.542 1224.94 248.43 1226.55 250.04L1239.91 263.4C1241.52 265.01 1242.41 267.151 1242.41 269.429V364.522Z" fill="url(#paint11_linear_324_13)" fill-opacity="0.07"/>
<path d="M1277 185.523C1275.29 183.811 1273.01 182.866 1270.58 182.866H1075.36C1072.94 182.866 1070.66 183.811 1068.95 185.523L1041.52 212.946C1039.81 214.658 1038.87 216.942 1038.87 219.364V414.587C1038.87 417.01 1039.81 419.287 1041.52 421.005L1068.95 448.429C1070.66 450.14 1072.93 451.086 1075.36 451.086H1270.59C1273.01 451.086 1275.29 450.14 1277 448.429L1304.43 421.005C1306.14 419.294 1307.09 417.016 1307.09 414.587V219.364C1307.09 216.942 1306.14 214.665 1304.43 212.946L1277 185.523H1277ZM1301.36 414.587C1301.36 415.484 1301.02 416.326 1300.38 416.961L1272.96 444.385C1272.33 445.02 1271.48 445.365 1270.59 445.365H1075.36C1074.47 445.365 1073.62 445.013 1072.99 444.385L1045.57 416.961C1044.93 416.326 1044.59 415.484 1044.59 414.587V219.364C1044.59 218.467 1044.94 217.625 1045.57 216.99L1072.99 189.566C1073.62 188.932 1074.47 188.586 1075.36 188.586H1270.59C1271.48 188.586 1272.33 188.938 1272.96 189.566L1300.38 216.99C1301.02 217.625 1301.36 218.467 1301.36 219.364V414.587Z" fill="url(#paint12_linear_324_13)" fill-opacity="0.07"/>
<path d="M1150.89 286.539L1130.17 346.461H1143.24L1147.71 331.928H1168.73L1173.19 346.461H1186.29L1165.57 286.539H1150.91H1150.89ZM1150.6 322.543L1158.11 298.17H1158.35L1165.84 322.543H1150.6Z" fill="url(#paint13_linear_324_13)" fill-opacity="0.07"/>
<path d="M1205.31 286.539H1192.95V346.461H1205.31V286.539Z" fill="url(#paint14_linear_324_13)" fill-opacity="0.07"/>
<defs>
<filter id="filter0_f_324_13" x="539.747" y="22.5804" width="845.008" height="516.407" filterUnits="userSpaceOnUse" color-interpolation-filters="sRGB">
<feFlood flood-opacity="0" result="BackgroundImageFix"/>
<feBlend mode="normal" in="SourceGraphic" in2="BackgroundImageFix" result="shape"/>
<feGaussianBlur stdDeviation="15.6266" result="effect1_foregroundBlur_324_13"/>
</filter>
<filter id="filter1_f_324_13" x="564.99" y="67.2442" width="794.522" height="465.921" filterUnits="userSpaceOnUse" color-interpolation-filters="sRGB">
<feFlood flood-opacity="0" result="BackgroundImageFix"/>
<feBlend mode="normal" in="SourceGraphic" in2="BackgroundImageFix" result="shape"/>
<feGaussianBlur stdDeviation="3.00511" result="effect1_foregroundBlur_324_13"/>
</filter>
<filter id="filter2_f_324_13" x="564.99" y="109.727" width="794.522" height="465.921" filterUnits="userSpaceOnUse" color-interpolation-filters="sRGB">
<feFlood flood-opacity="0" result="BackgroundImageFix"/>
<feBlend mode="normal" in="SourceGraphic" in2="BackgroundImageFix" result="shape"/>
<feGaussianBlur stdDeviation="3.00511" result="effect1_foregroundBlur_324_13"/>
</filter>
<filter id="filter3_f_324_13" x="692.961" y="52.5725" width="542.403" height="93.9816" filterUnits="userSpaceOnUse" color-interpolation-filters="sRGB">
<feFlood flood-opacity="0" result="BackgroundImageFix"/>
<feBlend mode="normal" in="SourceGraphic" in2="BackgroundImageFix" result="shape"/>
<feGaussianBlur stdDeviation="10.3899" result="effect1_foregroundBlur_324_13"/>
</filter>
<filter id="filter4_f_324_13" x="692.961" y="52.5725" width="542.403" height="93.9816" filterUnits="userSpaceOnUse" color-interpolation-filters="sRGB">
<feFlood flood-opacity="0" result="BackgroundImageFix"/>
<feBlend mode="normal" in="SourceGraphic" in2="BackgroundImageFix" result="shape"/>
<feGaussianBlur stdDeviation="10.3899" result="effect1_foregroundBlur_324_13"/>
</filter>
<linearGradient id="paint0_linear_324_13" x1="936" y1="570" x2="935.783" y2="6.73707e-05" gradientUnits="userSpaceOnUse">
<stop stop-color="#440386"/>
<stop offset="0.793247" stop-color="#0F0039"/>
</linearGradient>
<linearGradient id="paint1_linear_324_13" x1="962.251" y1="53.8335" x2="962.251" y2="157.034" gradientUnits="userSpaceOnUse">
<stop stop-color="#F89941"/>
<stop offset="1" stop-color="#E569FA" stop-opacity="0"/>
</linearGradient>
<linearGradient id="paint2_linear_324_13" x1="962.251" y1="73.2544" x2="962.251" y2="157.034" gradientUnits="userSpaceOnUse">
<stop stop-color="white"/>
<stop offset="1" stop-color="#E569FA" stop-opacity="0"/>
</linearGradient>
<linearGradient id="paint3_linear_324_13" x1="962.251" y1="73.2544" x2="962.251" y2="117.064" gradientUnits="userSpaceOnUse">
<stop stop-color="white"/>
<stop offset="1" stop-color="white" stop-opacity="0"/>
</linearGradient>
<linearGradient id="paint4_linear_324_13" x1="962.251" y1="115.737" x2="962.251" y2="199.517" gradientUnits="userSpaceOnUse">
<stop stop-color="white"/>
<stop offset="1" stop-color="#E569FA" stop-opacity="0"/>
</linearGradient>
<linearGradient id="paint5_linear_324_13" x1="962.251" y1="115.737" x2="962.251" y2="159.546" gradientUnits="userSpaceOnUse">
<stop stop-color="white"/>
<stop offset="1" stop-color="white" stop-opacity="0"/>
</linearGradient>
<linearGradient id="paint6_linear_324_13" x1="670.996" y1="73.3523" x2="1238.51" y2="73.3523" gradientUnits="userSpaceOnUse">
<stop stop-color="#131418" stop-opacity="0"/>
<stop offset="0.5" stop-color="white"/>
<stop offset="1" stop-color="#131418" stop-opacity="0"/>
</linearGradient>
<linearGradient id="paint7_linear_324_13" x1="963.911" y1="73.3523" x2="963.911" y2="102.608" gradientUnits="userSpaceOnUse">
<stop stop-color="white"/>
<stop offset="1" stop-color="white" stop-opacity="0"/>
</linearGradient>
<linearGradient id="paint8_linear_324_13" x1="670.996" y1="73.3523" x2="1238.51" y2="73.3523" gradientUnits="userSpaceOnUse">
<stop stop-color="#131418" stop-opacity="0"/>
<stop offset="0.5" stop-color="white"/>
<stop offset="1" stop-color="#131418" stop-opacity="0"/>
</linearGradient>
<linearGradient id="paint9_linear_324_13" x1="963.911" y1="73.3523" x2="963.911" y2="102.608" gradientUnits="userSpaceOnUse">
<stop stop-color="white"/>
<stop offset="1" stop-color="white" stop-opacity="0"/>
</linearGradient>
<linearGradient id="paint10_linear_324_13" x1="1172.5" y1="44" x2="1172.5" y2="563" gradientUnits="userSpaceOnUse">
<stop stop-color="white"/>
<stop offset="1" stop-color="white" stop-opacity="0"/>
</linearGradient>
<linearGradient id="paint11_linear_324_13" x1="1172.98" y1="241.836" x2="1172.98" y2="384.946" gradientUnits="userSpaceOnUse">
<stop stop-color="white"/>
<stop offset="1" stop-color="white" stop-opacity="0"/>
</linearGradient>
<linearGradient id="paint12_linear_324_13" x1="1172.98" y1="182.866" x2="1172.98" y2="438.29" gradientUnits="userSpaceOnUse">
<stop stop-color="white"/>
<stop offset="1" stop-color="white" stop-opacity="0"/>
</linearGradient>
<linearGradient id="paint13_linear_324_13" x1="1158.23" y1="286.539" x2="1158.23" y2="343.602" gradientUnits="userSpaceOnUse">
<stop stop-color="white"/>
<stop offset="1" stop-color="white" stop-opacity="0"/>
</linearGradient>
<linearGradient id="paint14_linear_324_13" x1="1199.13" y1="286.539" x2="1199.13" y2="343.602" gradientUnits="userSpaceOnUse">
<stop stop-color="white"/>
<stop offset="1" stop-color="white" stop-opacity="0"/>
</linearGradient>
</defs>
</svg>
