<svg width="67" height="67" viewBox="0 0 67 67" fill="none" xmlns="http://www.w3.org/2000/svg">
<path d="M31.4012 30.6332C37.9331 34.8554 46.3139 28.5691 43.4066 21.6763C41.7276 17.3832 35.5875 15.6757 31.6918 18.1292C26.8939 20.8944 26.7468 27.6941 31.4012 30.6332ZM36.4608 25.0289H35.494C34.9659 25.0238 34.4606 24.827 34.0843 24.4798C33.708 24.1326 33.49 23.6621 33.4761 23.1673C33.4623 22.6726 33.6538 22.1921 34.0102 21.8269C34.3666 21.4617 34.8603 21.2403 35.3873 21.2093L35.3872 20.7479C35.3877 20.6007 35.4504 20.4597 35.5616 20.3558C35.6728 20.252 35.8234 20.1936 35.9804 20.1936C36.1373 20.1936 36.2879 20.252 36.3991 20.3558C36.5103 20.4597 36.573 20.6007 36.5735 20.7479V21.1982H37.914C38.0692 21.2012 38.2169 21.2611 38.3256 21.3651C38.4342 21.469 38.495 21.6087 38.495 21.7542C38.495 21.8997 38.4342 22.0394 38.3256 22.1433C38.2169 22.2472 38.0692 22.3071 37.914 22.3101H35.494C35.2694 22.3141 35.0554 22.4004 34.8981 22.5507C34.7408 22.7009 34.6526 22.903 34.6526 23.1136C34.6527 23.3241 34.7408 23.5262 34.8981 23.6764C35.0555 23.8267 35.2694 23.913 35.494 23.9169H36.4608C36.9893 23.9206 37.4956 24.1165 37.8731 24.4633C38.2506 24.81 38.4697 25.2806 38.4843 25.7758C38.4989 26.271 38.3079 26.7522 37.9514 27.1179C37.5949 27.4837 37.1009 27.7055 36.5734 27.7365L36.5735 28.198C36.5738 28.2712 36.5586 28.3437 36.5289 28.4113C36.4992 28.479 36.4555 28.5405 36.4004 28.5923C36.3453 28.6441 36.2799 28.6852 36.2078 28.7133C36.1357 28.7413 36.0584 28.7558 35.9804 28.7558C35.9023 28.7558 35.825 28.7413 35.7529 28.7133C35.6808 28.6852 35.6154 28.6441 35.5603 28.5923C35.5052 28.5405 35.4615 28.479 35.4318 28.4113C35.4021 28.3437 35.3869 28.2712 35.3872 28.198V27.7477H34.0467C33.8914 27.7448 33.7435 27.685 33.6347 27.581C33.526 27.477 33.4651 27.3373 33.4651 27.1917C33.4651 27.0461 33.526 26.9063 33.6348 26.8024C33.7435 26.6984 33.8914 26.6386 34.0467 26.6357H36.4608C36.6863 26.6332 36.9017 26.5474 37.0602 26.397C37.2187 26.2466 37.3076 26.0437 37.3076 25.8323C37.3076 25.6209 37.2187 25.418 37.0602 25.2676C36.9017 25.1172 36.6864 25.0315 36.4608 25.0289Z" fill="#FABA38"/>
<path d="M47.2731 31.8076C47.0392 31.5608 46.7557 31.362 46.4398 31.2234C46.1238 31.0847 45.7819 31.009 45.4347 31.0007C45.0875 30.9925 44.7421 31.052 44.4194 31.1756C44.0967 31.2991 43.8034 31.4842 43.5572 31.7197L39.7899 35.3516C40.0484 35.8943 40.161 36.4908 40.1173 37.0862C40.0737 37.6816 39.8752 38.257 39.5401 38.7595C39.205 39.2621 38.7439 39.6757 38.1993 39.9625C37.6547 40.2493 37.0438 40.4001 36.4228 40.4011L32.0102 40.4059C31.8605 40.4033 31.7179 40.3443 31.6129 40.2417C31.508 40.1391 31.4491 40.001 31.4489 39.8571C31.4487 39.7132 31.5073 39.575 31.612 39.4721C31.7167 39.3693 31.8592 39.31 32.0089 39.307L36.4228 39.3022C36.7598 39.3027 37.0936 39.2393 37.4051 39.1156C37.7166 38.992 37.9997 38.8106 38.2382 38.5817C38.4767 38.3528 38.6659 38.081 38.795 37.7818C38.9241 37.4825 38.9905 37.1618 38.9905 36.8379C38.9905 36.5139 38.9241 36.1932 38.795 35.894C38.6659 35.5947 38.4767 35.3229 38.2382 35.094C37.9997 34.8652 37.7166 34.6837 37.4051 34.5601C37.0936 34.4365 36.7598 34.3731 36.4228 34.3736L28.145 34.3791C27.3558 34.3867 26.601 34.6904 26.0413 35.2252L23 38.1538L30.1116 45C31.9352 44.7582 37.1545 44.0659 37.1545 44.0659C37.8766 43.9712 38.5468 43.6529 39.0639 43.1593L47.2559 35.2692C47.7296 34.8092 47.9968 34.189 48 33.5418C48.0032 32.8945 47.7422 32.2719 47.2731 31.8076Z" fill="#FABA38"/>
<path d="M23.2106 39.5667C23.113 39.4128 22.9868 39.2835 22.8404 39.1873C22.694 39.0911 22.5308 39.0302 22.3614 39.0087C22.1921 38.9872 22.0205 39.0056 21.8581 39.0626C21.6957 39.1196 21.5461 39.2139 21.4192 39.3393L19.3265 41.6502C19.223 41.7639 19.1409 41.899 19.0849 42.0477C19.0288 42.1964 19 42.3558 19 42.5168C19 42.6778 19.0288 42.8372 19.0849 42.9859C19.1409 43.1347 19.223 43.2697 19.3265 43.3834L25.0021 49.6464C25.2144 49.8742 25.4993 50.0011 25.7957 50C26.0921 49.9988 26.3762 49.8697 26.587 49.6402L28.6798 47.3293C28.885 47.0987 29 46.7886 29 46.4657C29 46.1428 28.885 45.8328 28.6798 45.6022C28.0853 44.9435 23.8209 40.2549 23.2106 39.5667Z" fill="#FABA38"/>
<rect opacity="0.15" width="66.4236" height="66.4236" rx="33.2118" fill="#FFC85E"/>
</svg>
