<svg width="17" height="14" viewBox="0 0 17 14" fill="none" xmlns="http://www.w3.org/2000/svg">
<path d="M11.0233 7.00043C11.0233 8.48543 9.82332 9.68543 8.33832 9.68543C6.85332 9.68543 5.65332 8.48543 5.65332 7.00043C5.65332 5.51543 6.85332 4.31543 8.33832 4.31543C9.82332 4.31543 11.0233 5.51543 11.0233 7.00043Z" stroke="#0E63FF" stroke-width="1.3" stroke-linecap="round" stroke-linejoin="round"/>
<path d="M8.33875 13.2025C10.9863 13.2025 13.4538 11.6425 15.1713 8.94254C15.8463 7.88504 15.8463 6.10754 15.1713 5.05004C13.4538 2.35004 10.9863 0.790039 8.33875 0.790039C5.69125 0.790039 3.22375 2.35004 1.50625 5.05004C0.83125 6.10754 0.83125 7.88504 1.50625 8.94254C3.22375 11.6425 5.69125 13.2025 8.33875 13.2025Z" stroke="#0E63FF" stroke-width="1.3" stroke-linecap="round" stroke-linejoin="round"/>
</svg>
