<svg width="174" height="53" viewBox="0 0 174 53" fill="none" xmlns="http://www.w3.org/2000/svg">
<mask id="mask0_247_2608" style="mask-type:luminance" maskUnits="userSpaceOnUse" x="0" y="0" width="174" height="53">
<path d="M173.2 0H0V52.65H173.2V0Z" fill="white"/>
</mask>
<g mask="url(#mask0_247_2608)">
<path d="M24.9991 29.44C24.2491 29.44 23.6491 30.04 23.6491 30.78V47.19C23.6491 47.88 23.3691 48.53 22.8791 49.01C22.3891 49.49 21.7491 49.75 21.0591 49.75H21.0291C19.6191 49.75 18.4691 48.58 18.4691 47.19V37.17C18.4691 34.55 17.9691 32.68 16.9391 31.45C15.8591 30.16 14.1891 29.5 11.9691 29.5C9.74906 29.5 7.89906 31.31 7.89906 33.54V47.18C7.89906 48.59 6.73906 49.74 5.31906 49.74C3.89906 49.74 2.73906 48.59 2.73906 47.18V11.5C2.73906 10.56 3.50906 9.78997 4.45906 9.78997H13.0491C14.4691 9.78997 14.8891 10.32 15.0291 10.49C15.3391 10.88 15.7091 11.72 15.7091 13.57V18.48C15.7091 19.98 15.4291 21.06 14.9091 21.6C14.3891 22.13 13.5191 22.4 12.3391 22.4C11.3891 22.4 10.6091 21.63 10.6091 20.68V14.82C10.6091 14.08 9.99906 13.48 9.25906 13.48C8.51906 13.48 7.90906 14.08 7.90906 14.82V20.68C7.90906 23.1 9.88906 25.07 12.3291 25.07C14.2791 25.07 15.7891 24.53 16.8391 23.45C17.8891 22.37 18.3991 20.74 18.3991 18.46V13.55C18.3991 11.42 17.9891 9.86997 17.1491 8.80997C16.2391 7.66997 14.8591 7.08997 13.0591 7.08997H4.46906C2.02906 7.11997 0.0390625 9.07997 0.0390625 11.5V47.19C0.0390625 50.08 2.40906 52.44 5.32906 52.44C8.24906 52.44 10.6191 50.09 10.6191 47.19V33.55C10.6191 32.8 11.2291 32.19 11.9891 32.19C13.3691 32.19 14.3491 32.52 14.8791 33.16C15.2891 33.66 15.7891 34.75 15.7891 37.17V47.19C15.7891 50.05 18.1391 52.42 21.0191 52.44C22.4391 52.44 23.7791 51.91 24.7791 50.92C25.7891 49.93 26.3491 48.6 26.3491 47.19V30.78C26.3491 30.04 25.7391 29.44 24.9991 29.44Z" fill="#72C69B"/>
<path d="M1.34 2.68H13.27C16.93 2.68 19.59 3.5 21.18 5.09C22.77 6.69 23.58 9.28 23.58 12.78V16.69C23.58 21.29 22.15 24.19 19.2 25.57C18.52 25.89 18.24 26.68 18.56 27.36C18.79 27.85 19.27 28.13 19.78 28.13C19.98 28.13 20.17 28.09 20.36 28C24.29 26.16 26.29 22.35 26.29 16.7V12.79C26.29 8.55 25.22 5.34 23.11 3.21C20.99 1.08 17.69 0 13.28 0H1.35C0.61 0 0 0.61 0 1.34C0 2.07 0.61 2.68 1.34 2.68Z" fill="#72C69B"/>
<path d="M49.0704 35.94C49.0704 31.63 46.1304 28.9 41.4704 28.9H35.7504C33.7004 28.9 32.9004 29.64 32.9004 31.53V50.95C32.9004 51.97 33.4504 52.6 34.4104 52.6C35.3704 52.6 35.9204 51.96 35.9204 50.95V43.07H41.6804L45.7604 51.11C46.2904 52.13 46.7304 52.49 47.5004 52.49C48.3204 52.49 48.9804 51.92 48.9804 51.16C48.9804 50.78 48.8604 50.31 48.7004 49.98L44.7004 42.41C47.4104 41.45 49.0904 38.98 49.0904 35.93L49.0704 35.94ZM40.9704 40.46H35.9204V31.58H41.0904C44.1604 31.58 45.9704 33.23 45.9704 36.1C45.9704 38.97 44.2204 40.46 40.9704 40.46Z" fill="#1E1E1E"/>
<path d="M66.8092 31.59C67.7392 31.59 68.3592 31.08 68.3592 30.25C68.3592 29.42 67.7492 28.91 66.8092 28.91H56.7392C54.7492 28.91 53.9492 29.64 53.9492 31.47V49.9C53.9492 51.73 54.7492 52.46 56.7392 52.46H66.7892C67.7392 52.46 68.3492 51.96 68.3492 51.13C68.3492 50.3 67.7392 49.77 66.7992 49.77H56.9592V41.77H66.1892C67.1192 41.77 67.7192 41.28 67.7192 40.46C67.7192 39.64 67.1292 39.13 66.1892 39.13H56.9592V31.61H66.8092V31.59Z" fill="#1E1E1E"/>
<path d="M89.48 28.73C88.55 28.73 87.97 29.37 87.97 30.38V38.91H76.04V30.38C76.04 29.36 75.45 28.73 74.51 28.73C73.57 28.73 73 29.37 73 30.38V50.95C73 51.97 73.57 52.6 74.51 52.6C75.45 52.6 76.04 51.96 76.04 50.95V41.6H87.97V50.95C87.97 51.97 88.54 52.6 89.48 52.6C90.42 52.6 91.01 51.96 91.01 50.95V30.38C91.01 29.36 90.42 28.73 89.48 28.73Z" fill="#1E1E1E"/>
<path d="M106.4 30.48C105.96 29.28 105.36 28.72 104.25 28.72C103.14 28.72 102.53 29.27 102.1 30.48L94.97 50.29C94.83 50.71 94.75 51.03 94.75 51.38C94.75 52.18 95.32 52.67 96.19 52.67C97.06 52.67 97.49 52.29 97.82 51.26L99.81 45.38H108.67L110.66 51.26C110.99 52.28 111.46 52.67 112.29 52.67C113.17 52.67 113.75 52.17 113.75 51.36C113.75 51.03 113.66 50.67 113.53 50.29L106.4 30.48ZM100.62 42.94L104.18 32.45H104.3L107.86 42.94H100.62Z" fill="#1E1E1E"/>
<path d="M129.18 40.03V39.91C131.63 39.15 132.96 37.32 132.96 34.7C132.96 31.15 130.42 28.91 126.38 28.91H120.29C118.3 28.91 117.5 29.64 117.5 31.47V49.9C117.5 51.73 118.3 52.46 120.29 52.46H126.03C131.17 52.46 134.31 49.96 134.31 45.87C134.31 42.63 132.39 40.48 129.17 40.04L129.18 40.03ZM120.52 31.55H125.9C128.44 31.55 129.9 32.89 129.9 35.22C129.9 37.84 128.11 39.05 124.14 39.05H120.51V31.55H120.52ZM124.63 49.8H120.52V41.63H126.22C129.38 41.63 131.2 43.19 131.2 45.87C131.2 48.55 129.3 49.8 124.62 49.8H124.63Z" fill="#1E1E1E"/>
<path d="M147.309 28.9H141.529C139.479 28.9 138.699 29.63 138.699 31.5V50.94C138.699 51.96 139.269 52.59 140.209 52.59C141.149 52.59 141.719 51.95 141.719 50.94V43.5H147.269C151.839 43.5 154.849 40.62 154.849 36.21C154.849 31.8 151.829 28.9 147.299 28.9H147.309ZM145.349 40.87H141.739V31.56H147.129C150.069 31.56 151.749 33.27 151.749 36.21C151.749 39.64 150.049 40.87 145.339 40.87H145.349Z" fill="#1E1E1E"/>
<path d="M171.69 28.89C170.86 28.89 170.19 29.56 170.19 30.38V40.59H163.28C161.57 40.59 160.18 39.21 160.18 37.5L160.15 30.37C160.15 26.29 156.81 22.98 152.71 22.98H139.52C138.69 22.98 138.02 23.65 138.02 24.47C138.02 25.29 138.7 25.96 139.52 25.96H152.71C155.16 25.96 157.15 27.94 157.15 30.38L157.19 37.51C157.19 40.85 159.93 43.58 163.29 43.58H170.2V46.4C170.2 48.18 168.75 49.62 166.96 49.62H158.66C157.83 49.62 157.16 50.29 157.16 51.11C157.16 51.93 157.84 52.6 158.66 52.6H166.96C170.4 52.6 173.2 49.81 173.2 46.4V30.38C173.2 29.56 172.52 28.89 171.7 28.89V28.87L171.69 28.89Z" fill="#1E1E1E"/>
</g>
</svg>
