<svg width="89" height="89" viewBox="0 0 89 89" fill="none" xmlns="http://www.w3.org/2000/svg">
<path fill-rule="evenodd" clip-rule="evenodd" d="M36.7203 52.1954H29.5149C29.0467 52.1954 28.6699 51.8185 28.6699 51.3504C28.6699 50.8936 29.0467 50.5168 29.5149 50.5168H35.8753V44.6246C35.8753 44.1678 36.2521 43.791 36.7203 43.791C37.1885 43.791 37.5653 44.1678 37.5653 44.6246V51.3504C37.5653 51.8185 37.1885 52.1954 36.7203 52.1954Z" fill="#979797" fill-opacity="0.5"/>
<path fill-rule="evenodd" clip-rule="evenodd" d="M27.2664 54.4443C25.565 54.4443 24.1719 53.0626 24.1719 51.3497C24.1719 49.6483 25.565 48.2666 27.2664 48.2666C28.9678 48.2666 30.3609 49.6483 30.3609 51.3497C30.3609 53.0626 28.9678 54.4443 27.2664 54.4443Z" fill="#979797" fill-opacity="0.5"/>
<path fill-rule="evenodd" clip-rule="evenodd" d="M58.4859 52.1954H51.2805C50.8124 52.1954 50.4355 51.8185 50.4355 51.3504V44.6246C50.4355 44.1678 50.8124 43.791 51.2805 43.791C51.7487 43.791 52.1256 44.1678 52.1256 44.6246V50.5168H58.4859C58.9427 50.5168 59.3195 50.8936 59.3195 51.3504C59.3195 51.8185 58.9427 52.1954 58.4859 52.1954Z" fill="#979797" fill-opacity="0.5"/>
<path fill-rule="evenodd" clip-rule="evenodd" d="M60.7352 54.4443C59.0337 54.4443 57.6406 53.0626 57.6406 51.3497C57.6406 49.6483 59.0337 48.2666 60.7352 48.2666C62.4366 48.2666 63.8183 49.6483 63.8183 51.3497C63.8183 53.0626 62.4366 54.4443 60.7352 54.4443Z" fill="#979797" fill-opacity="0.5"/>
<path fill-rule="evenodd" clip-rule="evenodd" d="M40.3629 60.28H33.1575C32.6893 60.28 32.3125 59.9032 32.3125 59.4464C32.3125 58.9782 32.6893 58.6014 33.1575 58.6014H39.5179V44.6246C39.5179 44.1678 39.8947 43.791 40.3629 43.791C40.8196 43.791 41.1964 44.1678 41.1964 44.6246V59.4464C41.1964 59.9032 40.8196 60.28 40.3629 60.28Z" fill="#979797" fill-opacity="0.5"/>
<path fill-rule="evenodd" clip-rule="evenodd" d="M30.909 62.5292C29.2076 62.5292 27.8145 61.1475 27.8145 59.4461C27.8145 57.7447 29.2076 56.3516 30.909 56.3516C32.6104 56.3516 33.9921 57.7447 33.9921 59.4461C33.9921 61.1475 32.6104 62.5292 30.909 62.5292Z" fill="#979797" fill-opacity="0.5"/>
<path fill-rule="evenodd" clip-rule="evenodd" d="M54.8436 60.28H47.6383C47.1815 60.28 46.8047 59.9032 46.8047 59.4464V44.6246C46.8047 44.1678 47.1815 43.791 47.6383 43.791C48.1064 43.791 48.4833 44.1678 48.4833 44.6246V58.6014H54.8436C55.3118 58.6014 55.6886 58.9782 55.6886 59.4464C55.6886 59.9032 55.3118 60.28 54.8436 60.28Z" fill="#979797" fill-opacity="0.5"/>
<path fill-rule="evenodd" clip-rule="evenodd" d="M57.0926 62.5292C55.3912 62.5292 53.998 61.1475 53.998 59.4461C53.998 57.7447 55.3912 56.3516 57.0926 56.3516C58.794 56.3516 60.1871 57.7447 60.1871 59.4461C60.1871 61.1475 58.794 62.5292 57.0926 62.5292Z" fill="#979797" fill-opacity="0.5"/>
<path fill-rule="evenodd" clip-rule="evenodd" d="M43.9937 64.0026C43.537 64.0026 43.1602 63.6257 43.1602 63.1576V44.6246C43.1602 44.1678 43.537 43.791 43.9937 43.791C44.4619 43.791 44.8387 44.1678 44.8387 44.6246V63.1576C44.8387 63.6257 44.4619 64.0026 43.9937 64.0026Z" fill="#979797" fill-opacity="0.5"/>
<rect opacity="0.1" width="88.3424" height="88.3424" rx="16.7739" fill="#161C2D"/>
<path fill-rule="evenodd" clip-rule="evenodd" d="M57.96 45.4691H30.0406C26.7063 45.4691 24 42.7514 24 39.4171C24 37.5786 24.8107 35.8658 26.2153 34.7239C25.9526 34.0273 25.8042 33.2851 25.8042 32.5315C25.8042 29.9964 27.3686 27.7698 29.6752 26.8791C29.6638 26.7078 29.6524 26.5365 29.6524 26.3652C29.6524 22.3115 32.9639 19 37.0176 19C40.5346 19 43.5036 21.4437 44.223 24.8008C45.7645 24.8465 47.169 25.623 48.0369 26.8562C49.0418 26.2853 50.1608 25.977 51.337 25.977C55.0024 25.977 57.9828 28.9573 57.9828 32.6228C57.9828 32.874 57.96 33.1138 57.9371 33.365H57.96C61.2943 33.365 64.0006 36.0827 64.0006 39.4171C64.0006 42.7514 61.2943 45.4691 57.96 45.4691Z" fill="#979797" fill-opacity="0.5"/>
<path fill-rule="evenodd" clip-rule="evenodd" d="M43.9952 68.5016C42.2938 68.5016 40.9121 67.1085 40.9121 65.407C40.9121 63.7056 42.2938 62.3125 43.9952 62.3125C45.7081 62.3125 47.0898 63.7056 47.0898 65.407C47.0898 67.1085 45.7081 68.5016 43.9952 68.5016Z" fill="#979797" fill-opacity="0.5"/>
</svg>
