<svg width="67" height="67" viewBox="0 0 67 67" fill="none" xmlns="http://www.w3.org/2000/svg">
<rect opacity="0.15" width="66.4236" height="66.4236" rx="33.2118" fill="#FD346E"/>
<g clip-path="url(#clip0_1452_8543)">
<g clip-path="url(#clip1_1452_8543)">
<path d="M42.6602 31.8965H40.6055C40.8149 32.4699 40.9293 33.0887 40.9293 33.7337V41.4996C40.9293 41.7685 40.8825 42.0266 40.7974 42.2667H44.1944C45.4633 42.2667 46.4956 41.2343 46.4956 39.9654V35.7319C46.4957 33.6171 44.7751 31.8965 42.6602 31.8965Z" fill="#FD346E"/>
<path d="M25.4941 33.7337C25.4941 33.0887 25.6085 32.4699 25.818 31.8965H23.7632C21.6483 31.8965 19.9277 33.6171 19.9277 35.7319V39.9655C19.9277 41.2344 20.9601 42.2667 22.229 42.2667H25.6261C25.5409 42.0266 25.4941 41.7685 25.4941 41.4996V33.7337Z" fill="#FD346E"/>
<path d="M35.5603 29.8984H30.8628C28.7479 29.8984 27.0273 31.619 27.0273 33.7339V41.4998C27.0273 41.9234 27.3708 42.2669 27.7944 42.2669H38.6287C39.0523 42.2669 39.3958 41.9234 39.3958 41.4998V33.7339C39.3958 31.619 37.6752 29.8984 35.5603 29.8984Z" fill="#FD346E"/>
<path d="M33.2083 19.7285C30.6649 19.7285 28.5957 21.7977 28.5957 24.3412C28.5957 26.0664 29.5479 27.5731 30.9541 28.3642C31.6211 28.7394 32.3901 28.9538 33.2083 28.9538C34.0266 28.9538 34.7955 28.7394 35.4625 28.3642C36.8688 27.5731 37.8209 26.0663 37.8209 24.3412C37.8209 21.7978 35.7517 19.7285 33.2083 19.7285Z" fill="#FD346E"/>
<path d="M25.1117 24.0273C23.2096 24.0273 21.6621 25.5748 21.6621 27.477C21.6621 29.3791 23.2096 30.9266 25.1117 30.9266C25.5942 30.9266 26.0537 30.8266 26.4711 30.647C27.1927 30.3363 27.7877 29.7863 28.1559 29.0974C28.4143 28.614 28.5614 28.0624 28.5614 27.477C28.5614 25.5749 27.0139 24.0273 25.1117 24.0273Z" fill="#FD346E"/>
<path d="M41.311 24.0273C39.4088 24.0273 37.8613 25.5748 37.8613 27.477C37.8613 28.0624 38.0083 28.614 38.2668 29.0974C38.635 29.7864 39.23 30.3364 39.9516 30.647C40.369 30.8266 40.8284 30.9266 41.311 30.9266C43.2131 30.9266 44.7606 29.3791 44.7606 27.477C44.7606 25.5748 43.2131 24.0273 41.311 24.0273Z" fill="#FD346E"/>
</g>
</g>
<defs>
<clipPath id="clip0_1452_8543">
<rect width="30.9977" height="30.9977" fill="white" transform="translate(17.7129 17.7129)"/>
</clipPath>
<clipPath id="clip1_1452_8543">
<rect width="26.5694" height="26.5694" fill="white" transform="translate(19.9258 17.7129)"/>
</clipPath>
</defs>
</svg>
