<svg width="89" height="89" viewBox="0 0 89 89" fill="none" xmlns="http://www.w3.org/2000/svg">
<path d="M61.9993 31.4636C61.9993 30.7721 61.7246 30.109 61.2357 29.6201C60.7467 29.1311 60.0836 28.8564 59.3922 28.8564H40.373L42.9802 31.4636H61.9993Z" fill="#473BF0" fill-opacity="0.5"/>
<rect opacity="0.1" width="88.3424" height="88.3424" rx="16.7739" fill="#473BF0"/>
<path d="M41.5209 33.6927L36.6977 28.8564H28.1071C27.4157 28.8564 26.7525 29.1311 26.2636 29.6201C25.7747 30.109 25.5 30.7721 25.5 31.4636V57.535C25.5 58.2265 25.7747 58.8896 26.2636 59.3785C26.7525 59.8675 27.4157 60.1422 28.1071 60.1422H59.3929C60.0843 60.1422 60.7475 59.8675 61.2364 59.3785C61.7253 58.8896 62 58.2265 62 57.535V34.0707H42.4464C42.2749 34.0717 42.1048 34.0388 41.946 33.974C41.7872 33.9091 41.6427 33.8135 41.5209 33.6927ZM29.4107 34.0707C29.065 34.0707 28.7334 33.9334 28.489 33.6889C28.2445 33.4445 28.1071 33.1129 28.1071 32.7672C28.1071 32.4214 28.2445 32.0899 28.489 31.8454C28.7334 31.6009 29.065 31.4636 29.4107 31.4636C29.7564 31.4636 30.088 31.6009 30.3325 31.8454C30.5769 32.0899 30.7143 32.4214 30.7143 32.7672C30.7143 33.1129 30.5769 33.4445 30.3325 33.6889C30.088 33.9334 29.7564 34.0707 29.4107 34.0707ZM33.3214 32.7672C33.3214 32.4214 33.4588 32.0899 33.7032 31.8454C33.9477 31.6009 34.2793 31.4636 34.625 31.4636C34.8828 31.4636 35.1349 31.54 35.3492 31.6833C35.5636 31.8265 35.7307 32.0301 35.8293 32.2683C35.928 32.5065 35.9538 32.7686 35.9035 33.0215C35.8532 33.2743 35.7291 33.5066 35.5468 33.6889C35.3645 33.8712 35.1322 33.9954 34.8793 34.0457C34.6264 34.096 34.3643 34.0702 34.1261 33.9715C33.8879 33.8728 33.6844 33.7058 33.5411 33.4914C33.3979 33.277 33.3214 33.025 33.3214 32.7672ZM39.4352 48.7881C39.5574 48.9092 39.6543 49.0534 39.7205 49.2123C39.7867 49.3711 39.8208 49.5415 39.8208 49.7136C39.8208 49.8857 39.7867 50.0561 39.7205 50.2149C39.6543 50.3738 39.5574 50.5179 39.4352 50.6391C39.314 50.7613 39.1698 50.8583 39.011 50.9245C38.8521 50.9906 38.6817 51.0247 38.5096 51.0247C38.3376 51.0247 38.1672 50.9906 38.0083 50.9245C37.8495 50.8583 37.7053 50.7613 37.5841 50.6391L34.977 48.032C34.8548 47.9108 34.7578 47.7666 34.6916 47.6078C34.6254 47.4489 34.5914 47.2785 34.5914 47.1064C34.5914 46.9344 34.6254 46.764 34.6916 46.6051C34.7578 46.4463 34.8548 46.3021 34.977 46.1809L37.5841 43.5738C37.7057 43.4522 37.8499 43.3558 38.0087 43.29C38.1676 43.2243 38.3378 43.1904 38.5096 43.1904C38.6815 43.1904 38.8517 43.2243 39.0105 43.29C39.1693 43.3558 39.3136 43.4522 39.4352 43.5738C39.5567 43.6953 39.6531 43.8396 39.7189 43.9984C39.7847 44.1572 39.8185 44.3274 39.8185 44.4993C39.8185 44.6712 39.7847 44.8414 39.7189 45.0002C39.6531 45.159 39.5567 45.3033 39.4352 45.4248L37.7666 47.1064L39.4352 48.7881ZM48.0127 45.4248C47.7672 45.1794 47.6293 44.8464 47.6293 44.4993C47.6293 44.1522 47.7672 43.8192 48.0127 43.5738C48.2581 43.3283 48.5911 43.1904 48.9382 43.1904C49.2854 43.1904 49.6183 43.3283 49.8638 43.5738L52.4709 46.1809C52.5931 46.3021 52.6901 46.4463 52.7562 46.6051C52.8224 46.764 52.8565 46.9344 52.8565 47.1064C52.8565 47.2785 52.8224 47.4489 52.7562 47.6078C52.6901 47.7666 52.5931 47.9108 52.4709 48.032L49.8638 50.6391C49.7426 50.7613 49.5984 50.8583 49.4395 50.9245C49.2807 50.9906 49.1103 51.0247 48.9382 51.0247C48.7661 51.0247 48.5957 50.9906 48.4369 50.9245C48.278 50.8583 48.1339 50.7613 48.0127 50.6391C47.8905 50.5179 47.7935 50.3738 47.7273 50.2149C47.6612 50.0561 47.6271 49.8857 47.6271 49.7136C47.6271 49.5415 47.6612 49.3711 47.7273 49.2123C47.7935 49.0534 47.8905 48.9092 48.0127 48.7881L49.7334 47.1064L48.0127 45.4248ZM45.4055 41.9573C45.5801 41.9977 45.7445 42.0736 45.8884 42.1804C46.0324 42.2871 46.1527 42.4224 46.242 42.5778C46.3313 42.7331 46.3876 42.9052 46.4075 43.0833C46.4273 43.2614 46.4101 43.4417 46.3571 43.6129L43.75 51.4343C43.6593 51.7041 43.4828 51.9368 43.2474 52.0969C43.012 52.257 42.7307 52.3356 42.4464 52.3207C42.3051 52.3172 42.1649 52.2953 42.0293 52.2556C41.8664 52.2011 41.7159 52.1151 41.5864 52.0023C41.4569 51.8895 41.3509 51.7523 41.2746 51.5985C41.1983 51.4446 41.1531 51.2772 41.1417 51.1059C41.1303 50.9345 41.1528 50.7626 41.208 50.6L43.8152 42.7786C43.8696 42.6157 43.9557 42.4652 44.0684 42.3357C44.1812 42.2062 44.3184 42.1002 44.4723 42.0239C44.6261 41.9476 44.7935 41.9024 44.9649 41.891C45.1362 41.8796 45.3081 41.9021 45.4707 41.9573H45.4055Z" fill="#473BF0" fill-opacity="0.5"/>
</svg>
