<svg width="88" height="88" viewBox="0 0 88 88" fill="none" xmlns="http://www.w3.org/2000/svg">
<rect width="88" height="88" rx="16.77" fill="#E1E1F6"/>
<path d="M27.0469 36.0469V58.7562C27.0469 60.545 28.4993 62.0004 30.2845 62.0004H60.6464C62.4317 62.0004 63.8841 60.545 63.8841 58.7562V36.0469H27.0469ZM39.6643 51.4234C40.1298 51.7965 40.2052 52.4769 39.8329 52.9433C39.4607 53.4096 38.7814 53.4853 38.316 53.1122L32.92 48.7866C32.3804 48.3542 32.3801 47.5304 32.92 47.0977L38.316 42.7721C38.7813 42.3991 39.4605 42.4746 39.8329 42.941C40.2052 43.4074 40.1298 44.0879 39.6643 44.4609L35.3217 47.9422L39.6643 51.4234ZM49.6951 40.7985L43.2198 55.938C42.985 56.4868 42.3507 56.7413 41.8027 56.5059C41.2549 56.2707 41.0011 55.6349 41.2359 55.086L47.7112 39.9465C47.946 39.3975 48.5805 39.1433 49.1283 39.3785C49.6761 39.6137 49.9299 40.2495 49.6951 40.7985ZM58.011 48.7867L52.6149 53.1122C52.1503 53.4848 51.471 53.4104 51.098 52.9434C50.7257 52.477 50.8011 51.7965 51.2666 51.4235L55.6092 47.9422L51.2666 44.4611C50.8011 44.088 50.7257 43.4075 51.098 42.9411C51.4703 42.4748 52.1495 42.3991 52.6149 42.7723L58.011 47.0979C58.5505 47.5302 58.5509 48.3539 58.011 48.7867Z" fill="#5F5FEB" fill-opacity="0.5"/>
<path d="M63.8841 34.3721V29.1395C63.8841 27.4084 62.4317 26 60.6464 26H30.2845C28.4993 26 27.0469 27.4084 27.0469 29.1395V34.3721H63.8841ZM51.9408 30.186H58.4161C59.0121 30.186 59.4953 30.6546 59.4953 31.2326C59.4953 31.8105 59.0121 32.2791 58.4161 32.2791H51.9408C51.3448 32.2791 50.8616 31.8105 50.8616 31.2326C50.8616 30.6546 51.3448 30.186 51.9408 30.186ZM41.1486 30.186C41.7446 30.186 42.2278 30.6546 42.2278 31.2326C42.2278 31.8105 41.7446 32.2791 41.1486 32.2791C40.5526 32.2791 40.0694 31.8105 40.0694 31.2326C40.0694 30.6546 40.5526 30.186 41.1486 30.186ZM36.8318 30.186C37.4278 30.186 37.911 30.6546 37.911 31.2326C37.911 31.8105 37.4278 32.2791 36.8318 32.2791C36.2357 32.2791 35.7525 31.8105 35.7525 31.2326C35.7525 30.6546 36.2357 30.186 36.8318 30.186ZM32.5149 30.186C33.1109 30.186 33.5941 30.6546 33.5941 31.2326C33.5941 31.8105 33.1109 32.2791 32.5149 32.2791C31.9189 32.2791 31.4357 31.8105 31.4357 31.2326C31.4357 30.6546 31.9189 30.186 32.5149 30.186Z" fill="#5F5FEB" fill-opacity="0.5"/>
</svg>
