<svg width="67" height="67" viewBox="0 0 67 67" fill="none" xmlns="http://www.w3.org/2000/svg">
<rect opacity="0.15" width="66.4236" height="66.4236" rx="33.2118" fill="#FCDC02"/>
<path fill-rule="evenodd" clip-rule="evenodd" d="M33.68 17.5391C41.6865 17.8854 48.1146 24.3136 48.4609 32.32H49.32C49.6956 32.32 50 32.6245 50 33C50 33.3756 49.6956 33.68 49.32 33.68H48.4609C48.1146 41.6866 41.6864 48.1147 33.68 48.4609V49.32C33.68 49.6956 33.3755 50 33 50C32.6244 50 32.32 49.6956 32.32 49.32V48.4609C24.3135 48.1147 17.8853 41.6865 17.5391 33.68H16.68C16.3044 33.68 16 33.3756 16 33C16 32.6245 16.3044 32.32 16.68 32.32H17.5391C17.8853 24.3136 24.3135 17.8854 32.32 17.5391V16.68C32.32 16.3044 32.6244 16 33 16C33.3755 16 33.68 16.3044 33.68 16.68V17.5391ZM33 31.8716C30.2015 31.9137 27.8781 34.0117 27.4819 36.7141C27.4025 37.2557 27.6244 37.7621 28.0765 38.0708C29.5727 39.0926 31.7786 39.4885 33 39.4885C34.2213 39.4885 36.4273 39.0926 37.9235 38.0708C38.3754 37.7621 38.5974 37.2557 38.518 36.7141C38.1218 34.0117 35.7985 31.9137 33 31.8716ZM33 25.0948C31.5604 25.0948 30.3934 26.2618 30.3934 27.7013C30.3934 29.1409 31.5604 30.3079 33 30.3079C34.4395 30.3079 35.6065 29.1409 35.6065 27.7013C35.6065 26.2618 34.4395 25.0948 33 25.0948ZM39.8617 32.9534C39.1269 32.9644 38.4337 33.1549 37.8238 33.4826C38.5476 34.3565 39.0454 35.4281 39.2189 36.6114C39.3542 37.5345 38.9298 38.2723 38.1667 38.7587C38.8094 38.9087 39.4179 38.9749 39.8617 38.9749C40.8273 38.9749 42.5712 38.6619 43.754 37.8541C44.1113 37.61 44.2868 37.2097 44.224 36.7816C43.9107 34.6452 42.074 32.9866 39.8617 32.9534ZM26.1382 32.9534C23.9259 32.9866 22.0892 34.6452 21.7759 36.7816C21.7131 37.2097 21.8886 37.61 22.246 37.8541C23.4287 38.6619 25.1726 38.9749 26.1382 38.9749C26.5821 38.9749 27.1905 38.9087 27.8332 38.7587C27.0701 38.2722 26.6457 37.5347 26.7811 36.6114C26.9545 35.4281 27.4524 34.3565 28.1761 33.4826C27.5663 33.1549 26.8729 32.9644 26.1381 32.9534H26.1382ZM39.8617 27.5961C38.7237 27.5961 37.8012 28.5186 37.8012 29.6566C37.8012 30.7946 38.7237 31.7172 39.8617 31.7172C40.9998 31.7172 41.9223 30.7946 41.9223 29.6566C41.9223 28.5186 40.9998 27.5961 39.8617 27.5961ZM26.1381 27.5961C25.0001 27.5961 24.0776 28.5186 24.0776 29.6566C24.0776 30.7946 25.0001 31.7172 26.1381 31.7172C27.2761 31.7172 28.1987 30.7946 28.1987 29.6566C28.1987 28.5186 27.2761 27.5961 26.1381 27.5961ZM47.0995 33.68H46.2716C45.8961 33.68 45.5916 33.3756 45.5916 33C45.5916 32.6245 45.8961 32.32 46.2716 32.32H47.0995C46.7554 25.0648 40.9352 19.2446 33.68 18.9005V19.7284C33.68 20.104 33.3755 20.4084 33 20.4084C32.6244 20.4084 32.32 20.104 32.32 19.7284V18.9005C25.0647 19.2446 19.2445 25.0648 18.9004 32.32H19.7283C20.1039 32.32 20.4083 32.6245 20.4083 33C20.4083 33.3756 20.1039 33.68 19.7283 33.68H18.9004C19.2445 40.9353 25.0647 46.7555 32.32 47.0996V46.2717C32.32 45.8961 32.6244 45.5917 33 45.5917C33.3755 45.5917 33.68 45.8961 33.68 46.2717V47.0996C40.9352 46.7555 46.7554 40.9353 47.0995 33.68Z" fill="#F59C15"/>
</svg>
