<svg width="67" height="67" viewBox="0 0 67 67" fill="none" xmlns="http://www.w3.org/2000/svg">
<rect opacity="0.15" width="66.4236" height="66.4236" rx="33.2118" fill="#33D2F6"/>
<path fill-rule="evenodd" clip-rule="evenodd" d="M23.0126 51L41.9874 50.9999C42.4801 50.9999 42.8456 50.5699 42.7495 50.1034C41.7954 45.4802 37.5693 41.9957 32.5 41.9957C27.4306 41.9957 23.2046 45.4802 22.2505 50.1034C22.1543 50.57 22.5198 51 23.0126 51ZM41.4565 24.6676C41.1602 24.832 40.7819 24.7334 40.6116 24.4473C40.4413 24.1613 40.5436 23.7961 40.8399 23.6317L45.0769 21.2701C45.3732 21.1057 45.7515 21.2044 45.9218 21.4904C46.0921 21.7765 45.9898 22.1417 45.6935 22.3061L41.4565 24.6676ZM42.486 29.57C42.1428 29.57 41.8645 29.3013 41.8645 28.97C41.8645 28.6386 42.1428 28.37 42.486 28.37H47.3785C47.7217 28.37 48 28.6386 48 28.97C48 29.3013 47.7217 29.57 47.3785 29.57H42.486ZM40.8398 34.3081C40.5435 34.1437 40.4413 33.7786 40.6116 33.4925C40.7819 33.2065 41.1601 33.1079 41.4564 33.2722L45.6934 35.6338C45.9897 35.7982 46.0919 36.1634 45.9217 36.4494C45.7514 36.7355 45.3731 36.8341 45.0768 36.6698L40.8398 34.3081ZM23.5435 33.2722C23.8398 33.1078 24.2181 33.2064 24.3884 33.4925C24.5587 33.7786 24.4565 34.1437 24.1601 34.3081L19.9232 36.6698C19.6269 36.8342 19.2486 36.7355 19.0783 36.4494C18.908 36.1634 19.0103 35.7982 19.3066 35.6338L23.5435 33.2722ZM24.1602 23.6317C24.4565 23.7961 24.5587 24.1613 24.3884 24.4473C24.2181 24.7334 23.8399 24.832 23.5436 24.6676L19.3066 22.3061C19.0103 22.1417 18.9081 21.7765 19.0783 21.4904C19.2486 21.2044 19.6269 21.1058 19.9232 21.2701L24.1602 23.6317ZM22.514 28.37C22.8572 28.37 23.1355 28.6386 23.1355 28.97C23.1355 29.3013 22.8572 29.57 22.514 29.57H17.6215C17.2783 29.57 17 29.3013 17 28.97C17 28.6386 17.2783 28.37 17.6215 28.37H22.514ZM32.7913 15.1929L34.2871 18.9961C34.332 19.1104 34.4367 19.1839 34.5632 19.1898L38.7721 19.3879C39.0584 19.4013 39.1756 19.7495 38.9522 19.9228L35.6677 22.4714C35.569 22.5479 35.529 22.6667 35.5622 22.7847L36.6677 26.7103C36.7429 26.9773 36.4362 27.1924 36.1964 27.0409L32.6707 24.8128C32.5647 24.7458 32.4354 24.7458 32.3294 24.8128L28.8038 27.0409C28.564 27.1924 28.2572 26.9773 28.3324 26.7103L29.4379 22.7846C29.4712 22.6667 29.4312 22.5479 29.3325 22.4712L26.048 19.9226C25.8247 19.7493 25.9418 19.4012 26.2281 19.3877L30.4371 19.1897C30.5636 19.1837 30.6683 19.1103 30.7132 18.996L32.2089 15.1927C32.3098 14.9357 32.6902 14.9357 32.7913 15.1929ZM32.5001 31.0427C35.4185 31.0427 37.7844 33.3268 37.7844 36.1442C37.7844 38.9617 35.4185 41.2457 32.5001 41.2457C29.5817 41.2457 27.2157 38.9617 27.2157 36.1442C27.2157 33.3268 29.5817 31.0427 32.5001 31.0427Z" fill="#35D9FD"/>
</svg>
