<svg width="156" height="107" viewBox="0 0 156 107" fill="none" xmlns="http://www.w3.org/2000/svg">
<g style="mix-blend-mode:luminosity">
<g clip-path="url(#clip0_247_2622)">
<path d="M49.9132 29.4512L49.8083 28.5767C49.6684 27.1776 48.4092 26.1633 47.0101 26.3032H46.9751C42.7778 26.7929 38.5105 27.3175 34.4181 27.9821C33.054 28.192 32.1096 29.4512 32.2845 30.8153L36.7267 66.4225C36.9016 67.7866 38.1258 68.8009 39.5249 68.626L40.5042 68.5211C41.9033 68.3812 42.9177 67.122 42.7778 65.7229C42.3581 61.5256 41.9733 57.5032 41.3787 52.9911C41.2038 51.6269 42.1482 50.3678 43.5123 50.1579L46.5903 49.6682C47.9195 49.4583 48.8639 48.2691 48.7589 46.94L48.724 46.3803C48.619 44.9812 47.3598 43.9319 45.9607 44.0718H45.9258L42.8827 44.3866C40.4343 44.6664 40.2244 43.5471 40.0845 42.183V42.148C39.9796 40.2592 39.5598 38.5104 39.315 35.957C39.1751 34.5929 40.1195 33.3687 41.4486 33.1938L47.8146 32.2144C49.1087 32.0045 50.0531 30.7803 49.9132 29.4512Z" fill="#A2ED67"/>
<path d="M67.0169 56.8036C67.6465 56.8036 68.1362 56.3489 68.1712 55.7193C68.1712 55.5794 68.1712 55.4395 68.1712 55.2996C68.1712 54.0054 68.0313 52.5713 68.0313 51.3821C68.0313 50.7875 67.5766 50.2978 67.0169 50.2628C64.6734 50.0879 62.4699 50.1229 60.3362 50.1229C59.7416 50.1229 59.2169 49.6332 59.2169 49.0386C59.147 46.5902 59.2169 42.4278 59.147 39.1749C59.147 38.5453 59.6017 38.0556 60.2313 38.0207L65.7228 37.8458C66.2824 37.8458 66.7721 37.3911 66.8071 36.8314C66.8071 36.6215 66.8421 36.4467 66.8421 36.2368C66.8071 35.2224 66.7021 34.1731 66.5622 33.1588C66.4923 32.5991 66.0026 32.1444 65.443 32.1444C63.0995 32.1444 61.5604 32.0745 60.3012 32.1094C59.6717 32.1094 59.182 31.6198 59.147 30.9902C59.147 30.9902 59.147 30.9552 59.147 30.9202L59.4268 22.2108V22.0359L66.8071 21.7561C67.4367 21.7211 67.9264 21.1964 67.8914 20.5668C67.8214 18.9579 67.7515 17.7337 67.7165 16.7893C67.6815 16.1946 67.1918 15.705 66.5972 15.705C65.7927 15.705 64.9183 15.705 64.0089 15.705C60.8959 15.705 57.4331 15.7749 54.1102 15.9498C53.5156 15.9848 53.0609 16.4745 53.0609 17.0691C53.0259 25.4987 52.7461 34.6628 52.7461 43.722C52.7461 47.1848 52.7811 50.5776 52.886 53.9005L52.956 55.7893C52.9909 56.4189 53.4806 56.9085 54.1102 56.8736C56.6636 56.8036 59.5667 56.7686 62.225 56.7686C63.9389 56.7686 65.5829 56.7686 67.0169 56.8036Z" fill="#FFA640"/>
<path d="M82.3374 32.844L81.6728 28.7866C81.463 27.5624 80.3437 26.7229 79.0845 26.8978C76.5661 27.2825 74.3275 28.0171 73.0684 28.9265C69.8854 31.3399 69.1509 35.4673 69.1509 39.07C69.1509 39.7346 69.1509 40.3642 69.1858 40.9938C69.5356 46.5902 76.9159 50.5426 76.9159 57.6081C76.9159 58.1677 76.8809 58.7274 76.811 59.252C76.741 59.6718 76.5661 60.0565 76.2863 60.3713C74.5374 62.435 71.7742 62.6799 69.6056 62.6799C68.3464 62.6799 67.332 63.6942 67.332 64.9534V64.9884L67.367 67.087C67.402 68.3462 68.4163 69.3256 69.6755 69.3256C69.7105 69.3256 69.7105 69.3256 69.7455 69.3256C74.4325 69.1157 78.3849 68.2063 80.7634 66.0377C80.8684 65.9328 81.0083 65.7929 81.0782 65.6529C82.7222 63.4843 83.5966 60.861 83.5966 58.1677C83.5966 51.8368 78.8746 46.1005 76.6011 42.6377C75.9015 41.5884 75.5168 40.3642 75.5518 39.07C75.5518 37.1462 76.3213 35.1875 77.7554 34.2081C78.9446 33.3686 80.5536 33.0888 82.3374 32.844Z" fill="#FFCD5C"/>
<path d="M99.4064 21.2314C99.4064 20.0072 99.4064 19.0977 99.4064 18.4332C99.4064 17.5937 98.7068 16.8941 97.8673 16.8941C94.8243 16.8592 91.6064 16.7542 88.2835 16.7542C85.3454 16.7193 82.3723 16.8592 79.4342 17.2089C78.5947 17.3139 78.0001 18.0484 78.07 18.8879C78.14 19.5874 78.175 20.3919 78.175 21.4762C78.175 22.3506 78.8745 23.0152 79.714 23.0152C79.749 23.0152 79.7839 23.0152 79.8189 23.0152C81.1131 22.9453 82.3723 22.8054 83.5965 22.7704C84.4709 22.7354 85.2055 23.435 85.2055 24.3094V24.3444L85.2404 47.6744L84.9606 56.5237C84.9256 57.3982 85.6252 58.0977 86.4647 58.1327H86.4996H90.2073C91.0467 58.1327 91.7463 57.4681 91.7812 56.6287C92.0261 51.417 91.9561 45.4359 92.0261 40.7139C92.0611 34.9426 92.0611 29.1713 92.131 24.3094C92.131 23.4699 92.8306 22.7704 93.705 22.7704C95.0691 22.7704 96.5382 22.8054 97.7974 22.8054C98.7068 22.8054 99.4064 22.1058 99.4064 21.2314Z" fill="#5497EA"/>
<path d="M102.834 61.3507C103.324 61.3157 103.674 60.861 103.639 60.3713L102.345 48.0242C101.785 42.6377 101.156 37.1812 100.526 32.1444C100.456 31.6547 100.001 31.3049 99.5116 31.3749C98.1824 31.5148 96.5385 31.5847 95.664 31.6547C95.3842 31.6897 95.1394 31.8296 95.2093 32.5291L98.2524 59.7767L98.3573 60.9309C98.3923 61.4206 98.847 61.7704 99.3367 61.7354L102.834 61.3507Z" fill="#BE4CE8"/>
<path d="M129.347 24.3794L124.625 23.2252C124.205 23.1203 123.785 23.3651 123.645 23.7499C121.022 31.27 117.979 38.8252 115.495 48.409C115.251 49.3185 114.061 49.1785 113.851 48.2342C113.257 45.5409 113.117 42.8826 112.732 40.679C111.613 34.0333 111.403 28.0521 110.389 22.2458C110.319 21.8611 109.969 21.5463 109.584 21.5463H105.737C105.702 21.5463 105.632 21.5463 105.597 21.5463L104.373 21.7911C103.918 21.8611 103.638 22.2808 103.708 22.7355L110.004 62.575C110.074 62.9247 110.319 63.2046 110.703 63.2745L115.705 64.079C116.09 64.149 116.51 63.9041 116.615 63.5194C120.847 50.7176 125.989 36.7265 129.941 25.3938C130.081 24.9741 129.871 24.4844 129.451 24.3445C129.416 24.3794 129.381 24.3794 129.347 24.3794Z" fill="#5ED8E8"/>
<path d="M33.0063 75.0116V73.5829H42.9816V75.0116H38.7992V86.8833H37.1886V75.0116H33.0063ZM47.0779 73.5829V86.8833H45.4673V73.5829H47.0779ZM61.0099 77.7393H59.3993C59.304 77.276 59.1373 76.869 58.8992 76.5183C58.6654 76.1676 58.3797 75.8732 58.042 75.6351C57.7086 75.3926 57.3384 75.2108 56.9314 75.0896C56.5244 74.9684 56.1001 74.9077 55.6585 74.9077C54.8532 74.9077 54.1237 75.1112 53.4699 75.5182C52.8205 75.9252 52.3031 76.5248 51.9178 77.3171C51.5368 78.1094 51.3463 79.0814 51.3463 80.2331C51.3463 81.3848 51.5368 82.3567 51.9178 83.1491C52.3031 83.9414 52.8205 84.541 53.4699 84.948C54.1237 85.355 54.8532 85.5585 55.6585 85.5585C56.1001 85.5585 56.5244 85.4978 56.9314 85.3766C57.3384 85.2554 57.7086 85.0757 58.042 84.8376C58.3797 84.5951 58.6654 84.2986 58.8992 83.9479C59.1373 83.5928 59.304 83.1859 59.3993 82.7269H61.0099C60.8886 83.4067 60.6678 84.015 60.3474 84.5518C60.0271 85.0887 59.6287 85.5455 59.1525 85.9221C58.6762 86.2945 58.1415 86.5781 57.5484 86.7729C56.9596 86.9677 56.3296 87.0651 55.6585 87.0651C54.5242 87.0651 53.5154 86.7881 52.6322 86.2339C51.7489 85.6797 51.054 84.8917 50.5475 83.8699C50.0409 82.8482 49.7877 81.6359 49.7877 80.2331C49.7877 78.8303 50.0409 77.618 50.5475 76.5963C51.054 75.5745 51.7489 74.7865 52.6322 74.2323C53.5154 73.6781 54.5242 73.4011 55.6585 73.4011C56.3296 73.4011 56.9596 73.4985 57.5484 73.6933C58.1415 73.8881 58.6762 74.1739 59.1525 74.5505C59.6287 74.9229 60.0271 75.3775 60.3474 75.9144C60.6678 76.4469 60.8886 77.0552 61.0099 77.7393Z" fill="#454545"/>
<path d="M71.6262 86.8833V73.5829H73.2368V80.1811H73.3927L79.3675 73.5829H81.4716L75.8865 79.5837L81.4716 86.8833H79.5233L74.8994 80.7007L73.2368 82.5711V86.8833H71.6262Z" fill="#454545"/>
<path d="M87.7922 86.8833V73.5829H95.8192V75.0116H89.4028V79.5057H95.4036V80.9345H89.4028V85.4545H95.9232V86.8833H87.7922ZM97.9948 75.0116V73.5829H107.97V75.0116H103.788V86.8833H102.177V75.0116H97.9948ZM117.73 76.908C117.652 76.2499 117.336 75.739 116.781 75.3753C116.227 75.0116 115.547 74.8298 114.742 74.8298C114.153 74.8298 113.638 74.9251 113.196 75.1156C112.759 75.3061 112.417 75.568 112.17 75.9014C111.928 76.2347 111.807 76.6136 111.807 77.0379C111.807 77.3929 111.891 77.6981 112.06 77.9536C112.233 78.2047 112.454 78.4147 112.722 78.5835C112.991 78.7481 113.272 78.8844 113.567 78.9927C113.861 79.0966 114.132 79.181 114.378 79.246L115.729 79.6096C116.076 79.7006 116.461 79.8261 116.885 79.9863C117.314 80.1465 117.723 80.3651 118.113 80.6422C118.507 80.915 118.831 81.2657 119.087 81.6943C119.342 82.1229 119.47 82.649 119.47 83.2724C119.47 83.9912 119.282 84.6406 118.905 85.2207C118.533 85.8009 117.987 86.262 117.268 86.604C116.554 86.9461 115.686 87.1171 114.664 87.1171C113.712 87.1171 112.887 86.9634 112.19 86.656C111.497 86.3486 110.952 85.92 110.553 85.3701C110.159 84.8203 109.936 84.1817 109.884 83.4543H111.547C111.59 83.9565 111.759 84.3722 112.053 84.7012C112.352 85.0259 112.729 85.2684 113.183 85.4286C113.642 85.5844 114.136 85.6624 114.664 85.6624C115.279 85.6624 115.831 85.5628 116.32 85.3636C116.809 85.1601 117.197 84.8787 117.483 84.5194C117.768 84.1557 117.911 83.7314 117.911 83.2465C117.911 82.8049 117.788 82.4455 117.541 82.1684C117.294 81.8913 116.97 81.6662 116.567 81.493C116.164 81.3198 115.729 81.1683 115.262 81.0384L113.625 80.5708C112.586 80.2721 111.763 79.8456 111.157 79.2914C110.551 78.7372 110.248 78.012 110.248 77.1158C110.248 76.3711 110.449 75.7217 110.852 75.1675C111.259 74.609 111.805 74.176 112.489 73.8686C113.177 73.5569 113.945 73.4011 114.794 73.4011C115.651 73.4011 116.413 73.5548 117.08 73.8621C117.747 74.1652 118.275 74.5809 118.665 75.1091C119.059 75.6373 119.267 76.2369 119.288 76.908H117.73Z" fill="#454545"/>
<path d="M130.326 70.6198H32.1094V71.0395H130.326V70.6198Z" fill="url(#paint0_linear_247_2622)"/>
<g opacity="0.6">
<path d="M25.2532 29.3813C27.4361 29.3813 29.2057 27.6117 29.2057 25.4288C29.2057 23.2459 27.4361 21.4763 25.2532 21.4763C23.0704 21.4763 21.3008 23.2459 21.3008 25.4288C21.3008 27.6117 23.0704 29.3813 25.2532 29.3813Z" fill="#EBE2D6"/>
<path d="M81.9167 7.3453C82.9019 7.3453 83.7005 6.54664 83.7005 5.56144C83.7005 4.57625 82.9019 3.77759 81.9167 3.77759C80.9315 3.77759 80.1328 4.57625 80.1328 5.56144C80.1328 6.54664 80.9315 7.3453 81.9167 7.3453Z" fill="#ED2C66"/>
<path d="M62.4694 98.7417C63.4546 98.7417 64.2533 97.9431 64.2533 96.9579C64.2533 95.9727 63.4546 95.174 62.4694 95.174C61.4842 95.174 60.6855 95.9727 60.6855 96.9579C60.6855 97.9431 61.4842 98.7417 62.4694 98.7417Z" fill="#ED2C66"/>
<path d="M154.496 11.1929C155.327 11.1929 156 10.5195 156 9.68885C156 8.85819 155.327 8.18481 154.496 8.18481C153.666 8.18481 152.992 8.85819 152.992 9.68885C152.992 10.5195 153.666 11.1929 154.496 11.1929Z" fill="#D8DF21"/>
<path d="M90.2072 66.1776C91.0378 66.1776 91.7112 65.5042 91.7112 64.6736C91.7112 63.8429 91.0378 63.1696 90.2072 63.1696C89.3765 63.1696 88.7031 63.8429 88.7031 64.6736C88.7031 65.5042 89.3765 66.1776 90.2072 66.1776Z" fill="#D8DF21"/>
<path opacity="0.16" d="M134.804 54.9847C135.557 54.9847 136.168 54.374 136.168 53.6206C136.168 52.8672 135.557 52.2565 134.804 52.2565C134.05 52.2565 133.439 52.8672 133.439 53.6206C133.439 54.374 134.05 54.9847 134.804 54.9847Z" fill="#29AAE1"/>
<path d="M10.5642 92.2709C11.646 92.2709 12.523 91.3939 12.523 90.3121C12.523 89.2304 11.646 88.3534 10.5642 88.3534C9.48243 88.3534 8.60547 89.2304 8.60547 90.3121C8.60547 91.3939 9.48243 92.2709 10.5642 92.2709Z" fill="#29AAE1"/>
<path d="M27.493 57.3283C28.4589 57.3283 29.2419 56.5453 29.2419 55.5794C29.2419 54.6136 28.4589 53.8306 27.493 53.8306C26.5271 53.8306 25.7441 54.6136 25.7441 55.5794C25.7441 56.5453 26.5271 57.3283 27.493 57.3283Z" fill="#FEA424"/>
<path opacity="0.26" d="M2.79821 11.9273C4.34361 11.9273 5.59641 10.6745 5.59641 9.12914C5.59641 7.58373 4.34361 6.33093 2.79821 6.33093C1.2528 6.33093 0 7.58373 0 9.12914C0 10.6745 1.2528 11.9273 2.79821 11.9273Z" fill="#F75128"/>
<path d="M149.878 102.554C151.424 102.554 152.676 101.301 152.676 99.7561C152.676 98.2107 151.424 96.9579 149.878 96.9579C148.333 96.9579 147.08 98.2107 147.08 99.7561C147.08 101.301 148.333 102.554 149.878 102.554Z" fill="#F75128"/>
<path d="M119.064 16.7893C120.609 16.7893 121.862 15.5365 121.862 13.9911C121.862 12.4457 120.609 11.1929 119.064 11.1929C117.518 11.1929 116.266 12.4457 116.266 13.9911C116.266 15.5365 117.518 16.7893 119.064 16.7893Z" fill="#662D90"/>
</g>
</g>
</g>
<defs>
<linearGradient id="paint0_linear_247_2622" x1="32.9663" y1="70.8271" x2="130.459" y2="70.8271" gradientUnits="userSpaceOnUse">
<stop stop-color="#909090" stop-opacity="0"/>
<stop offset="0.52" stop-color="#464646" stop-opacity="0.48"/>
<stop offset="1" stop-color="#9D9D9D" stop-opacity="0"/>
</linearGradient>
<clipPath id="clip0_247_2622">
<rect width="156" height="106.332" fill="white"/>
</clipPath>
</defs>
</svg>
