<svg width="263" height="128" viewBox="0 0 263 128" fill="none" xmlns="http://www.w3.org/2000/svg">
<rect width="263" height="128" rx="13" fill="white"/>
<g style="mix-blend-mode:luminosity">
<g clip-path="url(#clip0_1549_365)">
<path d="M102.194 39.2058L102.086 38.3089C101.943 36.874 100.651 35.8336 99.2163 35.9771H99.1804C94.8755 36.4793 90.4988 37.0175 86.3015 37.6991C84.9024 37.9143 83.9338 39.2058 84.1132 40.6049L88.6692 77.1251C88.8486 78.5242 90.1042 79.5645 91.5392 79.3852L92.5437 79.2775C93.9786 79.134 95.019 77.8426 94.8755 76.4076C94.445 72.1027 94.0504 67.9771 93.4405 63.3493C93.2612 61.9502 94.2298 60.6587 95.6289 60.4435L98.7858 59.9412C100.149 59.726 101.118 58.5062 101.01 57.143L100.974 56.569C100.867 55.134 99.5751 54.0578 98.1401 54.2013H98.1042L94.9831 54.5242C92.4719 54.8112 92.2567 53.6632 92.1132 52.2641V52.2282C92.0055 50.291 91.5751 48.4973 91.3239 45.8784C91.1804 44.4793 92.149 43.2237 93.5123 43.0444L100.041 42.0399C101.369 41.8246 102.337 40.569 102.194 39.2058Z" fill="#A2ED67"/>
<path d="M119.734 67.2599C120.38 67.2599 120.882 66.7935 120.918 66.1478C120.918 66.0043 120.918 65.8608 120.918 65.7173C120.918 64.3899 120.775 62.9191 120.775 61.6993C120.775 61.0895 120.308 60.5872 119.734 60.5514C117.331 60.372 115.071 60.4079 112.882 60.4079C112.273 60.4079 111.734 59.9056 111.734 59.2958C111.663 56.7845 111.734 52.5155 111.663 49.1792C111.663 48.5334 112.129 48.0312 112.775 47.9953L118.407 47.8159C118.981 47.8159 119.483 47.3496 119.519 46.7756C119.519 46.5603 119.555 46.381 119.555 46.1657C119.519 45.1254 119.412 44.0491 119.268 43.0088C119.196 42.4348 118.694 41.9684 118.12 41.9684C115.716 41.9684 114.138 41.8967 112.847 41.9325C112.201 41.9325 111.699 41.4303 111.663 40.7846C111.663 40.7846 111.663 40.7487 111.663 40.7128L111.95 31.7801V31.6007L119.519 31.3137C120.165 31.2778 120.667 30.7397 120.631 30.094C120.56 28.4437 120.488 27.1881 120.452 26.2195C120.416 25.6097 119.914 25.1074 119.304 25.1074C118.479 25.1074 117.582 25.1074 116.649 25.1074C113.456 25.1074 109.905 25.1792 106.497 25.3585C105.887 25.3944 105.421 25.8967 105.421 26.5065C105.385 35.1523 105.098 44.5514 105.098 53.8428C105.098 57.3944 105.134 60.8742 105.241 64.2823L105.313 66.2195C105.349 66.8653 105.851 67.3675 106.497 67.3316C109.116 67.2599 112.093 67.224 114.82 67.224C116.577 67.224 118.264 67.224 119.734 67.2599Z" fill="#FFA640"/>
<path d="M135.449 42.6858L134.767 38.5243C134.552 37.2687 133.404 36.4077 132.112 36.5871C129.529 36.9817 127.233 37.7351 125.942 38.6678C122.677 41.1432 121.924 45.3763 121.924 49.0714C121.924 49.753 121.924 50.3988 121.96 51.0445C122.319 56.7844 129.888 60.8382 129.888 68.0849C129.888 68.6588 129.852 69.2328 129.781 69.771C129.709 70.2014 129.529 70.5961 129.242 70.9189C127.449 73.0355 124.615 73.2867 122.39 73.2867C121.099 73.2867 120.059 74.327 120.059 75.6185V75.6544L120.094 77.8068C120.13 79.0983 121.171 80.1028 122.462 80.1028C122.498 80.1028 122.498 80.1028 122.534 80.1028C127.341 79.8875 131.395 78.9548 133.834 76.7306C133.942 76.623 134.085 76.4795 134.157 76.336C135.843 74.1118 136.74 71.4212 136.74 68.6589C136.74 62.1656 131.897 56.2822 129.565 52.7306C128.848 51.6544 128.453 50.3988 128.489 49.0714C128.489 47.0983 129.278 45.0893 130.749 44.0849C131.969 43.2239 133.619 42.9369 135.449 42.6858Z" fill="#FFCD5C"/>
<path d="M152.956 30.776C152.956 29.5204 152.956 28.5876 152.956 27.906C152.956 27.045 152.238 26.3276 151.377 26.3276C148.256 26.2917 144.956 26.1841 141.547 26.1841C138.534 26.1482 135.485 26.2917 132.471 26.6504C131.61 26.758 131 27.5114 131.072 28.3724C131.144 29.0899 131.18 29.915 131.18 31.0271C131.18 31.924 131.897 32.6056 132.758 32.6056C132.794 32.6056 132.83 32.6056 132.866 32.6056C134.193 32.5338 135.485 32.3903 136.74 32.3545C137.637 32.3186 138.391 33.0361 138.391 33.9329V33.9688L138.426 57.8971L138.139 66.9733C138.104 67.8702 138.821 68.5876 139.682 68.6235H139.718H143.521C144.382 68.6235 145.099 67.9419 145.135 67.0809C145.386 61.7356 145.314 55.6011 145.386 50.758C145.422 44.8388 145.422 38.9195 145.494 33.9329C145.494 33.0719 146.211 32.3545 147.108 32.3545C148.507 32.3545 150.014 32.3903 151.305 32.3903C152.238 32.3903 152.956 31.6728 152.956 30.776Z" fill="#5497EA"/>
<path d="M156.472 71.9244C156.974 71.8886 157.333 71.4222 157.297 70.92L155.969 58.2563C155.395 52.7316 154.75 47.1352 154.104 41.9693C154.032 41.467 153.566 41.1083 153.064 41.18C151.7 41.3235 150.014 41.3953 149.117 41.467C148.83 41.5029 148.579 41.6464 148.651 42.3639L151.772 70.3101L151.88 71.4939C151.916 71.9962 152.382 72.3549 152.884 72.3191L156.472 71.9244Z" fill="#BE4CE8"/>
<path d="M183.662 34.0045L178.819 32.8206C178.389 32.713 177.958 32.9641 177.815 33.3587C175.124 41.0717 172.003 48.8206 169.456 58.6502C169.205 59.5829 167.985 59.4394 167.77 58.4708C167.16 55.7085 167.017 52.982 166.622 50.722C165.474 43.9058 165.259 37.7713 164.218 31.8161C164.147 31.4215 163.788 31.0986 163.393 31.0986H159.447C159.411 31.0986 159.34 31.0986 159.304 31.0986L158.048 31.3498C157.582 31.4215 157.295 31.852 157.366 32.3184L163.824 73.1793C163.896 73.5381 164.147 73.8251 164.541 73.8968L169.671 74.722C170.066 74.7937 170.496 74.5426 170.604 74.148C174.945 61.0179 180.218 46.6681 184.272 35.0448C184.416 34.6143 184.201 34.1121 183.77 33.9686C183.734 34.0045 183.698 34.0045 183.662 34.0045Z" fill="#5ED8E8"/>
<path d="M84.8512 85.4724V84.007H95.0823V85.4724H90.7927V97.6484H89.1408V85.4724H84.8512ZM99.2836 84.007V97.6484H97.6317V84.007H99.2836ZM113.573 88.2699H111.921C111.823 87.7948 111.652 87.3774 111.408 87.0177C111.168 86.658 110.875 86.3561 110.529 86.1118C110.187 85.8632 109.807 85.6766 109.39 85.5523C108.972 85.428 108.537 85.3658 108.084 85.3658C107.258 85.3658 106.51 85.5745 105.84 85.9919C105.173 86.4093 104.643 87.0244 104.248 87.837C103.857 88.6496 103.661 89.6465 103.661 90.8277C103.661 92.0089 103.857 93.0058 104.248 93.8184C104.643 94.6311 105.173 95.2461 105.84 95.6635C106.51 96.0809 107.258 96.2896 108.084 96.2896C108.537 96.2896 108.972 96.2275 109.39 96.1031C109.807 95.9788 110.187 95.7945 110.529 95.5503C110.875 95.3016 111.168 94.9974 111.408 94.6377C111.652 94.2736 111.823 93.8562 111.921 93.3855H113.573C113.448 94.0827 113.222 94.7066 112.893 95.2572C112.565 95.8078 112.156 96.2763 111.668 96.6626C111.179 97.0445 110.631 97.3354 110.023 97.5352C109.419 97.735 108.773 97.8349 108.084 97.8349C106.921 97.8349 105.886 97.5507 104.98 96.9824C104.074 96.414 103.362 95.6058 102.842 94.5578C102.323 93.5098 102.063 92.2665 102.063 90.8277C102.063 89.389 102.323 88.1456 102.842 87.0976C103.362 86.0497 104.074 85.2415 104.98 84.6731C105.886 84.1047 106.921 83.8205 108.084 83.8205C108.773 83.8205 109.419 83.9204 110.023 84.1202C110.631 84.3201 111.179 84.6131 111.668 84.9995C112.156 85.3814 112.565 85.8476 112.893 86.3982C113.222 86.9444 113.448 87.5683 113.573 88.2699Z" fill="#454545"/>
<path d="M124.46 97.6484V84.007H126.112V90.7744H126.272L132.4 84.007H134.558L128.83 90.1616L134.558 97.6484H132.56L127.818 91.3073L126.112 93.2256V97.6484H124.46Z" fill="#454545"/>
<path d="M141.043 97.6484V84.007H149.275V85.4724H142.694V90.0817H148.849V91.5471H142.694V96.183H149.382V97.6484H141.043ZM151.507 85.4724V84.007H161.738V85.4724H157.448V97.6484H155.796V85.4724H151.507ZM171.747 87.4174C171.667 86.7424 171.343 86.2184 170.775 85.8454C170.207 85.4724 169.509 85.2859 168.683 85.2859C168.08 85.2859 167.551 85.3836 167.098 85.579C166.65 85.7743 166.299 86.043 166.046 86.3849C165.797 86.7268 165.673 87.1154 165.673 87.5506C165.673 87.9147 165.759 88.2278 165.932 88.4898C166.11 88.7473 166.337 88.9627 166.612 89.1359C166.887 89.3046 167.176 89.4445 167.478 89.5555C167.78 89.6621 168.057 89.7487 168.31 89.8153L169.696 90.1883C170.051 90.2815 170.446 90.4103 170.882 90.5746C171.321 90.7389 171.741 90.9632 172.14 91.2473C172.545 91.5271 172.878 91.8868 173.14 92.3264C173.402 92.766 173.533 93.3056 173.533 93.945C173.533 94.6821 173.339 95.3482 172.953 95.9433C172.571 96.5383 172.012 97.0112 171.275 97.362C170.542 97.7128 169.651 97.8882 168.603 97.8882C167.627 97.8882 166.781 97.7306 166.066 97.4153C165.355 97.1 164.796 96.6604 164.387 96.0965C163.983 95.5325 163.754 94.8775 163.701 94.1315H165.406C165.451 94.6466 165.624 95.0729 165.926 95.4104C166.232 95.7434 166.619 95.9921 167.085 96.1564C167.556 96.3163 168.062 96.3962 168.603 96.3962C169.234 96.3962 169.8 96.2941 170.302 96.0898C170.804 95.8811 171.201 95.5925 171.494 95.2239C171.787 94.8509 171.934 94.4157 171.934 93.9184C171.934 93.4654 171.807 93.0968 171.554 92.8127C171.301 92.5285 170.968 92.2975 170.555 92.1199C170.142 91.9423 169.696 91.7869 169.216 91.6537L167.538 91.1741C166.472 90.8677 165.628 90.4303 165.007 89.8619C164.385 89.2935 164.074 88.5497 164.074 87.6305C164.074 86.8667 164.281 86.2006 164.694 85.6322C165.111 85.0594 165.67 84.6154 166.372 84.3001C167.078 83.9804 167.866 83.8205 168.737 83.8205C169.616 83.8205 170.397 83.9781 171.081 84.2934C171.765 84.6043 172.307 85.0305 172.707 85.5723C173.111 86.114 173.324 86.7291 173.346 87.4174H171.747Z" fill="#454545"/>
<path d="M184.669 81.4297H83.9336V81.8602H184.669V81.4297Z" fill="url(#paint0_linear_1549_365)"/>
<g opacity="0.6">
<path d="M76.9015 39.134C79.1403 39.134 80.9553 37.319 80.9553 35.0802C80.9553 32.8413 79.1403 31.0264 76.9015 31.0264C74.6626 31.0264 72.8477 32.8413 72.8477 35.0802C72.8477 37.319 74.6626 39.134 76.9015 39.134Z" fill="#EBE2D6"/>
<path d="M135.017 16.5332C136.028 16.5332 136.847 15.7141 136.847 14.7036C136.847 13.6932 136.028 12.874 135.017 12.874C134.007 12.874 133.188 13.6932 133.188 14.7036C133.188 15.7141 134.007 16.5332 135.017 16.5332Z" fill="#ED2C66"/>
<path d="M115.072 110.273C116.082 110.273 116.901 109.454 116.901 108.444C116.901 107.433 116.082 106.614 115.072 106.614C114.061 106.614 113.242 107.433 113.242 108.444C113.242 109.454 114.061 110.273 115.072 110.273Z" fill="#ED2C66"/>
<path d="M209.459 20.4797C210.311 20.4797 211.001 19.7891 211.001 18.9371C211.001 18.0852 210.311 17.3945 209.459 17.3945C208.607 17.3945 207.916 18.0852 207.916 18.9371C207.916 19.7891 208.607 20.4797 209.459 20.4797Z" fill="#D8DF21"/>
<path d="M143.521 76.8743C144.373 76.8743 145.064 76.1836 145.064 75.3317C145.064 74.4797 144.373 73.7891 143.521 73.7891C142.669 73.7891 141.979 74.4797 141.979 75.3317C141.979 76.1836 142.669 76.8743 143.521 76.8743Z" fill="#D8DF21"/>
<path opacity="0.16" d="M189.26 65.3939C190.033 65.3939 190.66 64.7675 190.66 63.9948C190.66 63.2221 190.033 62.5957 189.26 62.5957C188.488 62.5957 187.861 63.2221 187.861 63.9948C187.861 64.7675 188.488 65.3939 189.26 65.3939Z" fill="#29AAE1"/>
<path d="M61.8351 103.637C62.9447 103.637 63.8441 102.738 63.8441 101.628C63.8441 100.519 62.9447 99.6191 61.8351 99.6191C60.7256 99.6191 59.8262 100.519 59.8262 101.628C59.8262 102.738 60.7256 103.637 61.8351 103.637Z" fill="#29AAE1"/>
<path d="M79.198 67.7974C80.1887 67.7974 80.9917 66.9943 80.9917 66.0037C80.9917 65.013 80.1887 64.21 79.198 64.21C78.2074 64.21 77.4043 65.013 77.4043 66.0037C77.4043 66.9943 78.2074 67.7974 79.198 67.7974Z" fill="#FEA424"/>
<path opacity="0.26" d="M53.87 21.2331C55.455 21.2331 56.7399 19.9482 56.7399 18.3631C56.7399 16.7781 55.455 15.4932 53.87 15.4932C52.2849 15.4932 51 16.7781 51 18.3631C51 19.9482 52.2849 21.2331 53.87 21.2331Z" fill="#F75128"/>
<path d="M204.722 114.184C206.307 114.184 207.591 112.899 207.591 111.314C207.591 109.729 206.307 108.444 204.722 108.444C203.136 108.444 201.852 109.729 201.852 111.314C201.852 112.899 203.136 114.184 204.722 114.184Z" fill="#F75128"/>
<path d="M173.116 26.2194C174.701 26.2194 175.986 24.9345 175.986 23.3494C175.986 21.7644 174.701 20.4795 173.116 20.4795C171.531 20.4795 170.246 21.7644 170.246 23.3494C170.246 24.9345 171.531 26.2194 173.116 26.2194Z" fill="#662D90"/>
</g>
</g>
</g>
<defs>
<linearGradient id="paint0_linear_1549_365" x1="84.8125" y1="81.6423" x2="184.805" y2="81.6423" gradientUnits="userSpaceOnUse">
<stop stop-color="#909090" stop-opacity="0"/>
<stop offset="0.52" stop-color="#464646" stop-opacity="0.48"/>
<stop offset="1" stop-color="#9D9D9D" stop-opacity="0"/>
</linearGradient>
<clipPath id="clip0_1549_365">
<rect width="160" height="109.058" fill="white" transform="translate(51 9)"/>
</clipPath>
</defs>
</svg>
