<svg width="88" height="88" viewBox="0 0 88 88" fill="none" xmlns="http://www.w3.org/2000/svg">
<rect width="88" height="88" rx="16.77" fill="#F6F1D0"/>
<path d="M50.625 19L49.6447 21.1618H37.3554L36.3751 19H50.625ZM57 21.1618V65.8382C57 67.0304 56.0523 68 54.887 68H32.113C30.9489 68 30 67.0304 30 65.8382V21.1618C30 19.9696 30.9489 19 32.113 19H33.2692L35.1793 23.2094C35.4104 23.719 35.9085 24.0441 36.4573 24.0441H50.5438C51.0915 24.0441 51.5908 23.719 51.8207 23.2094L53.7319 19H54.887C56.0523 19 57 19.9696 57 21.1618ZM40.3824 49.9046C40.5863 50.0107 40.8027 50.0614 41.0168 50.0614C41.5318 50.0614 42.0265 49.772 42.2745 49.2705L47.1608 39.4048C47.5124 38.6945 47.2351 37.8275 46.541 37.4678C45.8479 37.1081 44.9993 37.3917 44.6477 38.1019L39.7614 47.9676C39.4098 48.6779 39.6882 49.5449 40.3824 49.9046ZM37.884 46.1472C38.2435 46.1472 38.6041 46.0065 38.879 45.7252C39.4301 45.1625 39.4301 44.2494 38.879 43.6868L36.7841 41.5435L38.879 39.4001C39.4301 38.8364 39.4301 37.9244 38.879 37.3617C38.3291 36.7991 37.4377 36.7991 36.8878 37.3617L33.7955 40.5243C33.2455 41.0869 33.2455 42 33.7955 42.5627L36.8878 45.7252C37.1627 46.0065 37.5234 46.1472 37.884 46.1472ZM48.7825 64.8778C48.7825 64.0812 48.1525 63.4367 47.3738 63.4367H39.6262C38.8486 63.4367 38.2175 64.0812 38.2175 64.8778C38.2175 65.6734 38.8486 66.319 39.6262 66.319H47.3738C48.1525 66.319 48.7825 65.6734 48.7825 64.8778ZM53.2045 44.0649L50.1132 40.9024C49.5633 40.3398 48.6708 40.3398 48.1208 40.9024C47.5709 41.4651 47.5709 42.3782 48.1208 42.9408L50.2158 45.0841L48.1208 47.2275C47.5709 47.7901 47.5709 48.7032 48.1208 49.2659C48.3958 49.5472 48.7564 49.6878 49.117 49.6878C49.4777 49.6878 49.8383 49.5472 50.1132 49.2659L53.2045 46.1033C53.7545 45.5407 53.7545 44.6276 53.2045 44.0649Z" fill="#E9CE19"/>
</svg>
