<svg width="89" height="89" viewBox="0 0 89 89" fill="none" xmlns="http://www.w3.org/2000/svg">
<path d="M26 45.5H23V63.5H26C26.8285 63.5 27.5 62.8284 27.5 62V47C27.5 46.1715 26.8285 45.5 26 45.5Z" fill="#F64B4B" fill-opacity="0.5"/>
<rect opacity="0.1" width="88.3424" height="88.3424" rx="16.7739" fill="#F64B4B"/>
<path d="M63.281 47.5063C62.1977 46.8589 60.8852 46.8311 59.7764 47.4301L49.9536 52.7105C49.7242 54.5603 48.1605 56.0012 46.25 56.0012H40.22C39.8054 56.0012 39.47 55.6658 39.47 55.2513C39.47 54.8368 39.8054 54.5014 40.22 54.5014H46.25C47.4907 54.5014 48.5 53.4923 48.5 52.2518C48.5 51.0347 47.5271 50.0462 46.3188 50.009C45.8699 50.0038 38.6211 50.002 38.6211 50.002L36.0605 47.4418C35.7793 47.1606 35.3977 47.0025 35 47.0025H29V62.0033H31.6484L36.5 63.5002C38.5156 64.1483 40.6715 65 43.0603 65C45.2202 65 47.3486 64.2838 49.1855 62.8763L63.4707 53.422C64.428 52.7658 65 51.682 65 50.5249C65 49.2756 64.3577 48.1478 63.281 47.5063Z" fill="#F64B4B" fill-opacity="0.5"/>
<path d="M44.75 46.9999L55.0903 42.3783C55.6426 42.1425 56 41.5998 56 40.9999V28.9999C56 28.9959 55.9983 28.9923 55.9983 28.9883L44.75 33.9875V46.9999Z" fill="#F64B4B" fill-opacity="0.5"/>
<path d="M55.2122 27.6965C55.1701 27.6735 44.5909 23.1219 44.5909 23.1219C44.2159 22.9594 43.7853 22.9594 43.4103 23.1219C43.4103 23.1219 32.8311 27.6735 32.7891 27.6965L44.0006 32.6793L55.2122 27.6965Z" fill="#F64B4B" fill-opacity="0.5"/>
<path d="M32.9097 42.3783L43.25 46.9999V33.9875L32.0017 28.9883C32.0017 28.9923 32 28.9959 32 28.9999V40.9999C32 41.5998 32.3574 42.1425 32.9097 42.3783Z" fill="#F64B4B" fill-opacity="0.5"/>
</svg>
