<svg width="50" height="50" viewBox="0 0 50 50" fill="none" xmlns="http://www.w3.org/2000/svg">
<circle cx="25" cy="25" r="24.5" transform="rotate(-180 25 25)" stroke="#ECEEF3"/>
<path opacity="0.3" d="M24.7383 30.9824L25.3242 30.4258C25.4707 30.2793 25.4707 30.0449 25.3242 29.9277L20.7832 25.3867L30.7734 25.3867C30.9785 25.3867 31.125 25.2109 31.125 25.0352L31.125 24.2148C31.125 24.0098 30.9785 23.8633 30.7734 23.8633L20.7832 23.8633L25.3242 19.293C25.4707 19.1758 25.4707 18.9414 25.3242 18.7949L24.7383 18.2383C24.6211 18.0918 24.3867 18.0918 24.2402 18.2383L18.1172 24.3613C17.9707 24.5078 17.9707 24.7129 18.1172 24.8594L24.2402 30.9824C24.3867 31.1289 24.6211 31.1289 24.7383 30.9824Z" fill="black"/>
</svg>
