<svg width="67" height="67" viewBox="0 0 67 67" fill="none" xmlns="http://www.w3.org/2000/svg">
<path d="M20.0293 35.4648H17.9668C17.4324 35.4648 17 35.8973 17 36.4316V48.0332C17 48.5676 17.4324 49 17.9668 49H20.0293C21.6286 49 22.9297 47.6989 22.9297 46.0996V38.3652C22.9297 36.7659 21.6287 35.4648 20.0293 35.4648Z" fill="#726FFC"/>
<path d="M49.7098 37.3401C49.5938 37.1468 49.4392 36.9921 49.2652 36.8567C48.5533 36.234 47.3539 36.2928 46.6549 37.0501L42.2656 42.1162L42.1302 42.2708C41.5889 42.8702 40.8154 43.199 40.0033 43.199H32.501C31.9595 43.199 31.5342 42.7735 31.5342 42.2322C31.5342 41.6907 31.9595 41.2654 32.501 41.2654H38.3984C39.4619 41.2654 40.332 40.3953 40.332 39.3318V39.3124C40.3127 38.249 39.4619 37.3982 38.3984 37.3982H34.8986C34.3188 37.3982 33.6975 37.1853 33.1971 36.76C30.8382 34.6911 27.3963 34.5557 24.8633 36.3154V48.2069C26.7775 48.729 28.7498 48.9998 30.7413 48.9998H39.3652C41.4921 48.9998 43.5031 47.9942 44.7793 46.2927L49.42 40.1052C50.0969 39.2164 50.148 37.9976 49.7098 37.3401Z" fill="#726FFC"/>
<path d="M42.9237 17.8688C41.8514 16.6637 40.3649 16 38.7381 16C36.9223 16 35.3483 16.8586 34.1863 18.4829C34.0992 18.6046 34.0176 18.7264 33.9412 18.847C33.8649 18.7264 33.7834 18.6046 33.6963 18.4829C32.5342 16.8586 30.9602 16 29.1445 16C27.5177 16 26.0312 16.6637 24.9589 17.8688C23.9413 19.0124 23.3809 20.5413 23.3809 22.1738C23.3809 23.9479 24.0693 25.585 25.5472 27.3258C26.8368 28.8447 28.6866 30.4059 30.8284 32.2137C31.6198 32.8818 32.4383 33.5726 33.3081 34.3263C33.4898 34.4838 33.7155 34.5626 33.9412 34.5626C34.167 34.5626 34.3927 34.4838 34.5744 34.3263C35.444 33.5727 36.2624 32.882 37.0539 32.214C38.4294 31.053 39.6174 30.0503 40.6482 29.0777C42.6497 27.1894 44.5017 25.046 44.5017 22.1739C44.5017 20.5414 43.9413 19.0125 42.9237 17.8688Z" fill="#726FFC"/>
<rect opacity="0.15" width="66.4236" height="66.4236" rx="33.2118" fill="#726FFC"/>
</svg>
