<svg width="383" height="273" viewBox="0 0 383 273" fill="none" xmlns="http://www.w3.org/2000/svg">
<g filter="url(#filter0_d_1501_884)">
<rect x="4" width="375" height="265" fill="url(#paint0_linear_1501_884)"/>
</g>
<mask id="mask0_1501_884" style="mask-type:alpha" maskUnits="userSpaceOnUse" x="4" y="0" width="375" height="265">
<rect x="4" width="375" height="265" fill="url(#paint1_linear_1501_884)"/>
</mask>
<g mask="url(#mask0_1501_884)">
<g style="mix-blend-mode:luminosity" clip-path="url(#clip0_1501_884)">
<path style="mix-blend-mode:screen" opacity="0.44" d="M468.971 257.268C483.718 222.611 467.537 182.58 432.83 167.855C398.123 153.13 358.033 169.288 343.287 203.944C328.54 238.6 344.721 278.631 379.428 293.356C414.135 308.081 454.225 291.924 468.971 257.268Z" fill="url(#paint2_linear_1501_884)"/>
<path style="mix-blend-mode:screen" opacity="0.44" d="M310.58 329.599C322.433 293.853 303.022 255.28 267.223 243.444C231.425 231.608 192.795 250.992 180.942 286.738C169.089 322.484 188.501 361.057 224.299 372.892C260.098 384.728 298.727 365.345 310.58 329.599Z" fill="url(#paint3_linear_1501_884)"/>
<path style="mix-blend-mode:screen" opacity="0.44" d="M525.122 355.356C533.919 318.74 511.323 281.937 474.654 273.153C437.985 264.369 401.127 286.931 392.33 323.547C383.534 360.163 406.129 396.966 442.798 405.75C479.467 414.534 516.325 391.972 525.122 355.356Z" fill="url(#paint4_linear_1501_884)"/>
<path d="M295.435 158.577H294.835C294.757 149.431 287.302 142.045 278.143 142.045C272.062 142.045 266.737 145.293 263.813 150.147C263.038 149.992 262.244 149.915 261.431 149.915C255.893 149.915 251.206 153.55 249.657 158.577H248.67C242.26 158.577 237.07 163.76 237.07 170.16C237.07 176.56 242.26 181.742 248.67 181.742H295.435C301.845 181.742 307.035 176.56 307.035 170.16C307.035 163.76 301.845 158.577 295.435 158.577Z" fill="url(#paint5_linear_1501_884)"/>
<path d="M257.906 150.437C256.376 150.901 254.982 151.636 253.762 152.603C252.038 153.976 253.065 156.741 255.253 156.741C255.795 156.741 256.298 156.547 256.724 156.219C257.46 155.639 258.293 155.213 259.203 154.923C260.21 154.614 260.907 153.724 260.907 152.68C260.907 151.114 259.397 149.992 257.886 150.437H257.906Z" fill="#F9FBFC"/>
<path d="M270.145 149.837C270.688 149.837 271.21 149.663 271.656 149.373C273.495 148.097 275.722 147.343 278.124 147.343C280.525 147.343 282.771 148.097 284.591 149.373C285.037 149.683 285.56 149.837 286.102 149.837C288.697 149.837 289.762 146.492 287.632 145.023C284.94 143.147 281.648 142.045 278.104 142.045C274.561 142.045 271.288 143.147 268.577 145.023C266.447 146.492 267.531 149.837 270.107 149.837H270.145Z" fill="#F9FBFC"/>
<path d="M360.732 166.544H358.467V168.806H360.732V166.544Z" fill="url(#paint6_linear_1501_884)"/>
<path d="M309.049 188.588H306.783V190.85H309.049V188.588Z" fill="url(#paint7_linear_1501_884)"/>
<path d="M180.064 248.355H177.799V250.618H180.064V248.355Z" fill="url(#paint8_linear_1501_884)"/>
<path d="M200.996 258.952H198.73V261.214H200.996V258.952Z" fill="url(#paint9_linear_1501_884)"/>
<path d="M373.42 157.068H368.172V162.308H373.42V157.068Z" fill="url(#paint10_linear_1501_884)"/>
<path d="M244.703 209.605H239.455V214.846H244.703V209.605Z" fill="url(#paint11_linear_1501_884)"/>
<path d="M197.334 238.225H192.086V243.465H197.334V238.225Z" fill="url(#paint12_linear_1501_884)"/>
<path d="M291.915 127.931C290.927 128.917 290.927 130.522 291.915 131.527C292.902 132.513 294.509 132.513 295.516 131.527C299.873 127.176 306.98 127.176 311.337 131.527C312.325 132.513 313.932 132.513 314.939 131.527C315.927 130.541 315.927 128.936 314.939 127.931C308.587 121.588 298.266 121.588 291.915 127.931Z" fill="url(#paint13_linear_1501_884)"/>
<path d="M322.161 120.737C311.839 110.43 295.05 110.43 284.729 120.737C283.741 121.723 283.741 123.328 284.729 124.333C285.717 125.319 287.324 125.319 288.331 124.333C296.677 115.999 310.232 115.999 318.578 124.333C319.566 125.319 321.173 125.319 322.18 124.333C323.168 123.347 323.168 121.723 322.18 120.737H322.161Z" fill="url(#paint14_linear_1501_884)"/>
<path d="M300.01 133.439C298.054 135.392 298.054 138.563 300.01 140.536C301.966 142.508 305.141 142.489 307.117 140.536C309.072 138.583 309.072 135.392 307.117 133.439C305.161 131.486 301.966 131.486 300.01 133.439Z" fill="url(#paint15_linear_1501_884)"/>
<path style="mix-blend-mode:screen" d="M236.858 255.124H208.373C206.223 255.124 204.48 253.384 204.48 251.237C204.48 249.091 206.223 247.351 208.373 247.351H236.858C239.008 247.351 240.75 249.091 240.75 251.237C240.75 253.384 239.008 255.124 236.858 255.124Z" fill="url(#paint16_linear_1501_884)"/>
<path d="M315.925 205.391H257.037V415.46H315.925V205.391Z" fill="url(#paint17_linear_1501_884)"/>
<path d="M315.925 415.46H379.848V205.39H315.925V415.46Z" fill="url(#paint18_linear_1501_884)"/>
<path d="M212.788 272.275C212.788 272.275 214.357 282.6 218.636 286.487C222.916 289.6 226.053 282.407 227.408 278.307C228.764 274.208 228.764 267.402 223.323 264.675C217.862 261.949 212.014 266.435 212.788 272.275Z" fill="#F9FBFC"/>
<path d="M225.571 264.559C225.571 264.559 223.712 262.219 220.265 262.103C216.818 261.987 212.112 264.81 210.641 268.136C209.169 271.462 212.112 273.434 212.868 273.434C213.623 273.434 215.947 274.42 218.909 272.815C221.872 271.21 222.492 271.21 222.492 271.21C222.492 271.21 224.583 275.774 224.467 277.746L225.706 277.495C225.706 277.495 225.338 274.42 225.958 273.666C226.578 272.931 227.681 274.652 227.314 276.509C226.946 278.365 226.946 278.732 226.946 278.732L227.468 279.061C227.468 279.061 229.792 274.285 229.792 271.578C229.792 268.871 229.908 263.94 225.59 264.559H225.571Z" fill="url(#paint19_linear_1501_884)"/>
<path d="M349.597 152.08C349.597 152.08 349.113 166.505 352.56 172.654C356.006 178.822 374.887 186.324 374.887 186.324C374.887 186.324 374.403 188.78 371.924 189.766C371.924 189.766 367.49 190.501 365.999 189.031L363.539 186.576C363.539 186.576 350.468 182.38 346.75 178.435C343.051 174.491 342.161 156.102 342.064 152.815C341.948 148.754 349.093 148.135 349.597 152.08Z" fill="#F9FBFC"/>
<path d="M345.144 148.753C345.144 148.753 351.07 148.385 351.07 154.476C351.07 160.567 351.631 170.932 355.504 173.89C359.396 176.848 366.987 182.398 366.987 182.398L363.095 187.387C363.095 187.387 347.913 181.102 344.95 178.337C341.988 175.572 340.148 155.985 340.69 153.026C341.252 150.068 342.549 148.037 345.125 148.772L345.144 148.753Z" fill="url(#paint20_linear_1501_884)"/>
<path style="mix-blend-mode:multiply" opacity="0.27" d="M372.083 205.313L372.297 228.652C372.297 228.652 378.474 253.538 380.449 254.524C382.424 255.51 384.651 257.483 382.676 258.952C380.701 260.422 353.803 261.176 350.841 252.049C348.033 243.425 344.353 211.308 339.803 205.294H372.103L372.083 205.313Z" fill="url(#paint21_linear_1501_884)"/>
<path d="M342.221 188.083C342.221 188.083 365.672 183.211 371.656 189.708C377.62 196.205 385.772 231.803 385.772 231.803C385.772 231.803 383.758 235.631 377.93 233.195L364.936 204.287C364.22 202.547 362.341 201.58 360.521 202.044C353.646 203.765 337.613 207.188 334.379 202.914C331.881 199.608 331.222 196.92 330.758 193.594C330.486 191.544 331.919 189.669 333.972 189.359L342.241 188.083H342.221Z" fill="#1A2361"/>
<path d="M386.684 230.236C386.684 230.236 380.661 230.468 376.924 233.214L378.279 237.449C378.279 237.449 382.385 236.327 387.323 234.625L386.684 230.217V230.236Z" fill="#1A53A6"/>
<path d="M365.383 241.53C365.383 241.53 366.119 244.489 366.487 245.784C366.855 247.08 372.413 250.212 372.219 252.436C371.483 254.466 362.033 250.212 360.929 248.375C359.826 246.519 360.194 241.898 360.194 241.898L365.383 241.53Z" fill="#F9FBFC"/>
<path d="M331.766 188.221C331.766 188.221 355.72 187.737 360.387 195.22C365.054 202.703 366.506 239.191 366.506 239.191C366.506 239.191 363.814 242.594 358.547 239.114L351.111 208.311C350.724 206.455 349.059 205.178 347.18 205.294C340.093 205.72 323.71 206.145 321.329 201.35C319.489 197.637 319.334 194.872 319.489 191.527C319.586 189.458 321.348 187.892 323.42 187.95L331.766 188.201V188.221Z" fill="#1A237F"/>
<path d="M367.688 237.818C367.688 237.818 361.724 236.948 357.541 238.959L358.083 243.368C358.083 243.368 362.324 243.02 367.494 242.246L367.688 237.799V237.818Z" fill="#1A53A6"/>
<path d="M325.781 149.682C325.781 149.682 318.5 163.121 319.74 189.476C320.979 192.686 332.811 191.932 338.252 189.959C343.674 187.987 350.103 188.973 351.827 188.49C353.55 188.006 345.785 169.888 349.968 153.878C349.968 153.878 350.452 150.668 347.993 148.696C345.533 146.723 329.732 143.281 325.781 149.682Z" fill="url(#paint22_linear_1501_884)"/>
<path d="M344.292 147.459L343.556 151.152C343.556 151.152 341.697 153.376 337.457 151.152C333.564 148.754 334.126 145.97 334.126 145.97L338.192 139.492L344.292 147.439V147.459Z" fill="#F9FBFC"/>
<path d="M336.859 141.523L338.176 139.531L344.276 147.478L343.54 151.172C343.54 151.172 343.482 151.23 343.385 151.326C338.215 149.547 337.305 144.404 336.84 141.542L336.859 141.523Z" fill="url(#paint23_linear_1501_884)"/>
<path d="M351.517 134.735C351.517 134.735 349.949 145.061 345.669 148.948C341.389 152.061 338.252 144.868 336.897 140.768C335.541 136.688 335.541 129.863 340.983 127.136C346.444 124.41 352.292 128.896 351.517 134.735Z" fill="#F9FBFC"/>
<path d="M332.19 152.08C332.19 152.08 331.706 166.505 335.153 172.654C338.6 178.822 357.481 186.324 357.481 186.324C357.481 186.324 356.996 188.78 354.518 189.766C354.518 189.766 350.083 190.501 348.592 189.031C347.121 187.562 346.133 186.576 346.133 186.576C346.133 186.576 333.062 182.38 329.344 178.435C325.645 174.491 324.754 156.102 324.658 152.815C324.541 148.754 331.687 148.135 332.19 152.08Z" fill="#F9FBFC"/>
<path d="M327.757 148.753C327.757 148.753 333.682 148.385 333.682 154.476C333.682 160.567 334.244 170.932 338.117 173.89C342.009 176.848 349.6 182.398 349.6 182.398L345.708 187.387C345.708 187.387 330.526 181.102 327.563 178.337C324.6 175.572 322.741 155.985 323.303 153.026C323.865 150.068 325.162 148.037 327.737 148.772L327.757 148.753Z" fill="url(#paint24_linear_1501_884)"/>
<path style="mix-blend-mode:screen" d="M381.612 176.908L367.553 153.26C367.553 153.26 339.92 153.511 331.767 173.215L331.031 192.184L350.764 192.919L381.612 176.908Z" fill="url(#paint25_linear_1501_884)"/>
<path d="M337.986 193.479L365.871 192.995C366.278 192.995 366.587 192.666 366.587 192.26C366.587 191.854 366.258 191.545 365.851 191.545L337.966 192.028C337.56 192.028 337.25 192.357 337.25 192.763C337.25 193.169 337.579 193.479 337.986 193.479Z" fill="url(#paint26_linear_1501_884)"/>
<path d="M346.681 192.416L354.272 176.56C354.369 176.347 354.601 176.212 354.834 176.193L380.24 175.748C380.705 175.748 381.034 176.231 380.821 176.657L373.211 192.513C373.114 192.725 372.882 192.88 372.649 192.88L347.243 193.325C346.778 193.325 346.449 192.841 346.662 192.416H346.681Z" fill="url(#paint27_linear_1501_884)"/>
<path d="M347.978 192.396L355.589 176.541C355.685 176.328 355.918 176.173 356.15 176.173L381.557 175.729C382.021 175.729 382.35 176.212 382.137 176.637L374.527 192.493C374.43 192.706 374.198 192.841 373.966 192.86L348.559 193.305C348.095 193.305 347.765 192.822 347.978 192.396Z" fill="url(#paint28_linear_1501_884)"/>
<path d="M336.861 141.522C336.861 141.522 334.789 136.882 335.525 131.7C336.261 126.517 341.935 124.429 344.53 124.313C347.125 124.197 354.154 130.713 354.406 132.821C354.657 134.909 351.559 136.514 351.559 136.514C351.559 136.514 347.977 138.119 345.517 137.384C343.058 136.65 341.935 135.779 341.935 135.779L340.579 138.119C340.579 138.119 340.579 136.263 339.34 136.398C338.101 136.534 337.733 140.091 338.72 140.459C339.708 140.826 339.592 141.194 339.592 141.194L337.868 143.901C337.868 143.901 336.958 142.238 336.861 141.522Z" fill="url(#paint29_linear_1501_884)"/>
<path d="M339.318 146.627C339.318 146.627 339.957 146.066 340.887 146.82C341.816 147.574 343.114 146.085 343.656 145.989C344.218 145.892 346.251 145.35 347.18 146.453C348.11 147.555 344.682 150.513 343.753 150.417C342.823 150.32 339.686 149.392 339.318 146.627Z" fill="url(#paint30_linear_1501_884)"/>
<path d="M285.93 161.71H258.355C257.339 161.71 256.516 162.532 256.516 163.547V184.101C256.516 185.116 257.339 185.938 258.355 185.938H285.93C286.946 185.938 287.77 185.116 287.77 184.101V163.547C287.77 162.532 286.946 161.71 285.93 161.71Z" fill="url(#paint31_linear_1501_884)"/>
<path d="M286.338 162.852V158.424C286.338 158.308 286.241 158.211 286.125 158.211H272.143C272.143 158.211 271.969 158.269 271.95 158.346L270.943 161.537C270.943 161.537 270.827 161.672 270.749 161.672H257.271C256.148 161.672 255.219 162.581 255.219 163.722V183.87C255.219 184.992 256.129 185.92 257.271 185.92H284.44C285.563 185.92 286.493 185.011 286.493 183.87V163.509C286.493 163.258 286.434 163.026 286.357 162.813L286.338 162.852Z" fill="url(#paint32_linear_1501_884)"/>
<path d="M280.391 170.895H259.807V173.64H280.391V170.895Z" fill="url(#paint33_linear_1501_884)"/>
<path style="mix-blend-mode:screen" d="M220.264 165.017H261.898C263.621 165.017 265.016 166.409 265.016 168.13V194.737C265.016 196.457 263.621 197.85 261.898 197.85H220.264C218.541 197.85 217.146 196.457 217.146 194.737V168.13C217.146 166.409 218.541 165.017 220.264 165.017Z" fill="url(#paint34_linear_1501_884)"/>
<path style="mix-blend-mode:screen" d="M255.237 178.65H225.261C223.712 178.65 222.453 177.393 222.453 175.846C222.453 174.299 223.712 173.042 225.261 173.042H255.237C256.787 173.042 258.045 174.299 258.045 175.846C258.045 177.393 256.787 178.65 255.237 178.65Z" fill="url(#paint35_linear_1501_884)"/>
<g opacity="0.69">
<path style="mix-blend-mode:screen" d="M232.927 183.715H205.39C204.246 183.715 203.318 184.641 203.318 185.784V203.38C203.318 204.523 204.246 205.449 205.39 205.449H232.927C234.071 205.449 234.999 204.523 234.999 203.38V185.784C234.999 184.641 234.071 183.715 232.927 183.715Z" fill="url(#paint36_linear_1501_884)"/>
<path style="mix-blend-mode:screen" d="M228.513 192.726H208.683C207.657 192.726 206.824 191.895 206.824 190.87C206.824 189.845 207.657 189.014 208.683 189.014H228.513C229.539 189.014 230.372 189.845 230.372 190.87C230.372 191.895 229.539 192.726 228.513 192.726Z" fill="url(#paint37_linear_1501_884)"/>
</g>
<path d="M297.761 330.053V301.725L275.453 279.45V232.288L257.037 213.899" stroke="#EAEEEE" stroke-width="0.875182" stroke-miterlimit="10"/>
<path d="M275.471 258.179H286.47L301.264 243.406H308.565V223.78L316.291 216.084" stroke="#EAEEEE" stroke-width="0.875182" stroke-miterlimit="10"/>
</g>
</g>
<defs>
<filter id="filter0_d_1501_884" x="0" y="0" width="383" height="273" filterUnits="userSpaceOnUse" color-interpolation-filters="sRGB">
<feFlood flood-opacity="0" result="BackgroundImageFix"/>
<feColorMatrix in="SourceAlpha" type="matrix" values="0 0 0 0 0 0 0 0 0 0 0 0 0 0 0 0 0 0 127 0" result="hardAlpha"/>
<feOffset dy="4"/>
<feGaussianBlur stdDeviation="2"/>
<feComposite in2="hardAlpha" operator="out"/>
<feColorMatrix type="matrix" values="0 0 0 0 0 0 0 0 0 0 0 0 0 0 0 0 0 0 0.25 0"/>
<feBlend mode="normal" in2="BackgroundImageFix" result="effect1_dropShadow_1501_884"/>
<feBlend mode="normal" in="SourceGraphic" in2="effect1_dropShadow_1501_884" result="shape"/>
</filter>
<linearGradient id="paint0_linear_1501_884" x1="27.5" y1="265" x2="303.306" y2="-54.6355" gradientUnits="userSpaceOnUse">
<stop stop-color="#0194FE"/>
<stop offset="1" stop-color="#4104A4"/>
</linearGradient>
<linearGradient id="paint1_linear_1501_884" x1="27.5" y1="265" x2="303.306" y2="-54.6355" gradientUnits="userSpaceOnUse">
<stop stop-color="#0194FE"/>
<stop offset="1" stop-color="#4104A4"/>
</linearGradient>
<linearGradient id="paint2_linear_1501_884" x1="406.133" y1="259.184" x2="406.133" y2="141.677" gradientUnits="userSpaceOnUse">
<stop stop-color="#129FB2" stop-opacity="0"/>
<stop offset="0.94" stop-color="#1AE5FF"/>
</linearGradient>
<linearGradient id="paint3_linear_1501_884" x1="245.759" y1="336.749" x2="245.759" y2="219.242" gradientUnits="userSpaceOnUse">
<stop/>
<stop offset="0.08" stop-color="#000707"/>
<stop offset="0.21" stop-color="#031A1D"/>
<stop offset="0.36" stop-color="#063A41"/>
<stop offset="0.53" stop-color="#0B6672"/>
<stop offset="0.73" stop-color="#129FB2"/>
<stop offset="0.94" stop-color="#1AE5FF"/>
</linearGradient>
<linearGradient id="paint4_linear_1501_884" x1="458.736" y1="368.043" x2="458.962" y2="295.828" gradientUnits="userSpaceOnUse">
<stop stop-opacity="0"/>
<stop offset="1" stop-color="#1AE5FF"/>
</linearGradient>
<linearGradient id="paint5_linear_1501_884" x1="272.043" y1="205.159" x2="272.043" y2="122.245" gradientUnits="userSpaceOnUse">
<stop stop-color="#1AE5FF"/>
<stop offset="0.26" stop-color="#63E8F8"/>
<stop offset="0.7" stop-color="#EAEEEE"/>
</linearGradient>
<linearGradient id="paint6_linear_1501_884" x1="363.85" y1="155.561" x2="355.294" y2="179.971" gradientUnits="userSpaceOnUse">
<stop stop-color="#1AE5FF"/>
<stop offset="0.26" stop-color="#63E8F8"/>
<stop offset="0.7" stop-color="#EAEEEE"/>
</linearGradient>
<linearGradient id="paint7_linear_1501_884" x1="312.186" y1="177.605" x2="303.63" y2="202.015" gradientUnits="userSpaceOnUse">
<stop stop-color="#1AE5FF"/>
<stop offset="0.26" stop-color="#63E8F8"/>
<stop offset="0.7" stop-color="#EAEEEE"/>
</linearGradient>
<linearGradient id="paint8_linear_1501_884" x1="183.182" y1="237.372" x2="174.626" y2="261.783" gradientUnits="userSpaceOnUse">
<stop stop-color="#1AE5FF"/>
<stop offset="0.26" stop-color="#63E8F8"/>
<stop offset="0.7" stop-color="#EAEEEE"/>
</linearGradient>
<linearGradient id="paint9_linear_1501_884" x1="204.133" y1="247.969" x2="195.577" y2="272.379" gradientUnits="userSpaceOnUse">
<stop stop-color="#1AE5FF"/>
<stop offset="0.26" stop-color="#63E8F8"/>
<stop offset="0.7" stop-color="#EAEEEE"/>
</linearGradient>
<linearGradient id="paint10_linear_1501_884" x1="380.662" y1="131.622" x2="360.846" y2="188.199" gradientUnits="userSpaceOnUse">
<stop stop-color="#1AE5FF"/>
<stop offset="0.26" stop-color="#63E8F8"/>
<stop offset="0.7" stop-color="#EAEEEE"/>
</linearGradient>
<linearGradient id="paint11_linear_1501_884" x1="251.945" y1="184.159" x2="232.109" y2="240.736" gradientUnits="userSpaceOnUse">
<stop stop-color="#1AE5FF"/>
<stop offset="0.26" stop-color="#63E8F8"/>
<stop offset="0.7" stop-color="#EAEEEE"/>
</linearGradient>
<linearGradient id="paint12_linear_1501_884" x1="204.576" y1="212.778" x2="184.74" y2="269.355" gradientUnits="userSpaceOnUse">
<stop stop-color="#1AE5FF"/>
<stop offset="0.26" stop-color="#63E8F8"/>
<stop offset="0.7" stop-color="#EAEEEE"/>
</linearGradient>
<linearGradient id="paint13_linear_1501_884" x1="292.011" y1="171.495" x2="315.475" y2="85.4699" gradientUnits="userSpaceOnUse">
<stop stop-color="#1AE5FF"/>
<stop offset="0.26" stop-color="#63E8F8"/>
<stop offset="0.7" stop-color="#EAEEEE"/>
</linearGradient>
<linearGradient id="paint14_linear_1501_884" x1="290.17" y1="171.011" x2="313.634" y2="84.9663" gradientUnits="userSpaceOnUse">
<stop stop-color="#1AE5FF"/>
<stop offset="0.26" stop-color="#63E8F8"/>
<stop offset="0.7" stop-color="#EAEEEE"/>
</linearGradient>
<linearGradient id="paint15_linear_1501_884" x1="293.968" y1="172.035" x2="317.432" y2="86.0093" gradientUnits="userSpaceOnUse">
<stop stop-color="#1AE5FF"/>
<stop offset="0.26" stop-color="#63E8F8"/>
<stop offset="0.7" stop-color="#EAEEEE"/>
</linearGradient>
<linearGradient id="paint16_linear_1501_884" x1="199.775" y1="334.712" x2="231.871" y2="217.085" gradientUnits="userSpaceOnUse">
<stop/>
<stop offset="0.08" stop-color="#000707"/>
<stop offset="0.21" stop-color="#031A1D"/>
<stop offset="0.36" stop-color="#063A41"/>
<stop offset="0.53" stop-color="#0B6672"/>
<stop offset="0.73" stop-color="#129FB2"/>
<stop offset="0.94" stop-color="#1AE5FF"/>
</linearGradient>
<linearGradient id="paint17_linear_1501_884" x1="286.491" y1="66.7493" x2="286.491" y2="495.474" gradientUnits="userSpaceOnUse">
<stop stop-color="#2CE7C7"/>
<stop offset="1" stop-color="#0079FF"/>
</linearGradient>
<linearGradient id="paint18_linear_1501_884" x1="347.896" y1="60.4453" x2="347.896" y2="369.498" gradientUnits="userSpaceOnUse">
<stop stop-color="#2CE7C7"/>
<stop offset="1" stop-color="#0079FF"/>
</linearGradient>
<linearGradient id="paint19_linear_1501_884" x1="207.736" y1="239.383" x2="229.505" y2="292.638" gradientUnits="userSpaceOnUse">
<stop stop-color="#2CE7C7"/>
<stop offset="1" stop-color="#0079FF"/>
</linearGradient>
<linearGradient id="paint20_linear_1501_884" x1="343.382" y1="115.63" x2="355.721" y2="182.462" gradientUnits="userSpaceOnUse">
<stop stop-color="#2CE7C7"/>
<stop offset="1" stop-color="#0079FF"/>
</linearGradient>
<linearGradient id="paint21_linear_1501_884" x1="399.175" y1="140.092" x2="337.826" y2="290.011" gradientUnits="userSpaceOnUse">
<stop stop-color="#2CE7C7"/>
<stop offset="1" stop-color="#0079FF"/>
</linearGradient>
<linearGradient id="paint22_linear_1501_884" x1="343.19" y1="147.013" x2="326.93" y2="219.844" gradientUnits="userSpaceOnUse">
<stop stop-color="#FBC93B"/>
<stop offset="1" stop-color="#FB8E31"/>
</linearGradient>
<linearGradient id="paint23_linear_1501_884" x1="345.225" y1="135.645" x2="339.816" y2="147.195" gradientUnits="userSpaceOnUse">
<stop stop-color="white"/>
<stop offset="1" stop-color="#E6E8EC"/>
</linearGradient>
<linearGradient id="paint24_linear_1501_884" x1="325.995" y1="115.63" x2="338.314" y2="182.462" gradientUnits="userSpaceOnUse">
<stop stop-color="#2CE7C7"/>
<stop offset="1" stop-color="#0079FF"/>
</linearGradient>
<linearGradient id="paint25_linear_1501_884" x1="343.521" y1="165.596" x2="364.224" y2="191.247" gradientUnits="userSpaceOnUse">
<stop/>
<stop offset="0.08" stop-color="#000707"/>
<stop offset="0.21" stop-color="#031A1D"/>
<stop offset="0.36" stop-color="#063A41"/>
<stop offset="0.53" stop-color="#0B6672"/>
<stop offset="0.73" stop-color="#129FB2"/>
<stop offset="0.94" stop-color="#1AE5FF"/>
</linearGradient>
<linearGradient id="paint26_linear_1501_884" x1="353.573" y1="189.426" x2="347.585" y2="200.6" gradientUnits="userSpaceOnUse">
<stop stop-color="#2CE7C7"/>
<stop offset="1" stop-color="#005BFF"/>
</linearGradient>
<linearGradient id="paint27_linear_1501_884" x1="367.224" y1="178.107" x2="354.797" y2="201.276" gradientUnits="userSpaceOnUse">
<stop stop-color="#2CE7C7"/>
<stop offset="1" stop-color="#005BFF"/>
</linearGradient>
<linearGradient id="paint28_linear_1501_884" x1="372.513" y1="166.044" x2="361.199" y2="194.159" gradientUnits="userSpaceOnUse">
<stop stop-color="white"/>
<stop offset="1" stop-color="#E6E8EC"/>
</linearGradient>
<linearGradient id="paint29_linear_1501_884" x1="335.37" y1="134.097" x2="354.425" y2="134.097" gradientUnits="userSpaceOnUse">
<stop stop-color="#FBC93B"/>
<stop offset="1" stop-color="#FB8E31"/>
</linearGradient>
<linearGradient id="paint30_linear_1501_884" x1="340.035" y1="138.795" x2="346.061" y2="153.555" gradientUnits="userSpaceOnUse">
<stop stop-color="#FBC93B"/>
<stop offset="1" stop-color="#FB8E31"/>
</linearGradient>
<linearGradient id="paint31_linear_1501_884" x1="263.487" y1="153.666" x2="286.88" y2="208.355" gradientUnits="userSpaceOnUse">
<stop stop-color="#FBB03B"/>
<stop offset="0.7" stop-color="#FB8E31"/>
</linearGradient>
<linearGradient id="paint32_linear_1501_884" x1="266.121" y1="164.476" x2="288.79" y2="198.519" gradientUnits="userSpaceOnUse">
<stop stop-color="#FBC93B"/>
<stop offset="1" stop-color="#FB8E31"/>
</linearGradient>
<linearGradient id="paint33_linear_1501_884" x1="267.785" y1="158.79" x2="270.913" y2="176.968" gradientUnits="userSpaceOnUse">
<stop stop-color="#FBC93B"/>
<stop offset="1" stop-color="#FB8E31"/>
</linearGradient>
<linearGradient id="paint34_linear_1501_884" x1="216.081" y1="272.797" x2="249.665" y2="149.677" gradientUnits="userSpaceOnUse">
<stop/>
<stop offset="0.08" stop-color="#000707"/>
<stop offset="0.21" stop-color="#031A1D"/>
<stop offset="0.36" stop-color="#063A41"/>
<stop offset="0.53" stop-color="#0B6672"/>
<stop offset="0.73" stop-color="#129FB2"/>
<stop offset="0.94" stop-color="#1AE5FF"/>
</linearGradient>
<linearGradient id="paint35_linear_1501_884" x1="232.368" y1="204.618" x2="242.951" y2="165.822" gradientUnits="userSpaceOnUse">
<stop/>
<stop offset="0.08" stop-color="#000707"/>
<stop offset="0.21" stop-color="#031A1D"/>
<stop offset="0.36" stop-color="#063A41"/>
<stop offset="0.53" stop-color="#0B6672"/>
<stop offset="0.73" stop-color="#129FB2"/>
<stop offset="0.94" stop-color="#1AE5FF"/>
</linearGradient>
<linearGradient id="paint36_linear_1501_884" x1="202.621" y1="255.027" x2="224.83" y2="173.566" gradientUnits="userSpaceOnUse">
<stop/>
<stop offset="0.08" stop-color="#000707"/>
<stop offset="0.21" stop-color="#031A1D"/>
<stop offset="0.36" stop-color="#063A41"/>
<stop offset="0.53" stop-color="#0B6672"/>
<stop offset="0.73" stop-color="#129FB2"/>
<stop offset="0.94" stop-color="#1AE5FF"/>
</linearGradient>
<linearGradient id="paint37_linear_1501_884" x1="213.389" y1="209.916" x2="220.399" y2="184.252" gradientUnits="userSpaceOnUse">
<stop/>
<stop offset="0.08" stop-color="#000707"/>
<stop offset="0.21" stop-color="#031A1D"/>
<stop offset="0.36" stop-color="#063A41"/>
<stop offset="0.53" stop-color="#0B6672"/>
<stop offset="0.73" stop-color="#129FB2"/>
<stop offset="0.94" stop-color="#1AE5FF"/>
</linearGradient>
<clipPath id="clip0_1501_884">
<rect width="359" height="303" fill="white" transform="translate(168 113)"/>
</clipPath>
</defs>
</svg>
