<svg width="89" height="89" viewBox="0 0 89 89" fill="none" xmlns="http://www.w3.org/2000/svg">
<path fill-rule="evenodd" clip-rule="evenodd" d="M50.9844 25.9482V31.1901H56.316L50.9844 25.9482Z" fill="#68D585"/>
<rect opacity="0.1" width="88.3424" height="88.3424" rx="16.7739" fill="#68D585"/>
<path fill-rule="evenodd" clip-rule="evenodd" d="M30.8145 25V47.5101H57.3065V32.564H50.2981C49.9186 32.564 49.6107 32.2561 49.6107 31.8766V25H30.8145ZM39.0771 36.7129C39.3509 36.9742 39.3622 37.407 39.1009 37.682L36.8538 40.037L39.1009 42.3932C39.3622 42.667 39.3509 43.101 39.0771 43.3623C38.8033 43.6236 38.3693 43.6122 38.108 43.3384C38.1035 43.3339 38.2364 43.4725 35.4326 40.5358C35.1576 40.2745 35.1474 39.8394 35.4099 39.5644L35.411 39.5656L38.108 36.7379C38.3693 36.4629 38.8022 36.4527 39.0771 36.7129ZM44.6041 36.3732C44.7268 36.0165 45.1164 35.8267 45.4732 35.9494C45.8299 36.0721 46.0196 36.4618 45.8969 36.8185L43.5157 43.702C43.393 44.0587 43.0034 44.2484 42.6466 44.1257C42.2899 44.003 42.1002 43.6134 42.2229 43.2566L44.6041 36.3732ZM49.0438 36.7129C49.3176 36.4516 49.7516 36.4629 50.0129 36.7367L52.7099 39.5644L52.7111 39.5633C52.9724 39.8382 52.9621 40.2722 52.6883 40.5346L52.6759 40.546L50.0129 43.3384C49.7516 43.6122 49.3188 43.6236 49.0438 43.3623C48.77 43.101 48.7587 42.6682 49.02 42.3932L51.2671 40.037L49.02 37.6808C48.7587 37.407 48.77 36.9742 49.0438 36.7129Z" fill="#68D585"/>
<path fill-rule="evenodd" clip-rule="evenodd" d="M49.7889 54.1801V55.9456C49.7889 56.325 49.4811 56.6329 49.1016 56.6329C48.7222 56.6329 48.4143 56.325 48.4143 55.9456C48.4143 55.7934 48.4143 51.0082 48.4143 50.8742C48.4143 50.4947 48.7222 50.1868 49.1016 50.1868H50.9727C51.5237 50.1868 52.0224 50.4107 52.3837 50.7719C53.1631 51.5513 53.1642 52.8146 52.3837 53.5951C52.0224 53.9563 51.5237 54.1801 50.9727 54.1801H49.7889ZM47.4736 51.3241L45.1947 56.3955L45.1958 56.3977C44.9436 56.9601 44.129 56.9272 43.9223 56.3466L41.6649 51.3241C41.5104 50.9787 41.666 50.5742 42.0114 50.4197C42.3568 50.2652 42.7612 50.4209 42.9157 50.7662L44.5698 54.446L46.2239 50.7662C46.3785 50.4209 46.7829 50.2664 47.1283 50.4197C47.4736 50.5731 47.627 50.9787 47.4736 51.3241ZM40.8287 51.0503V56.116C40.8287 56.4954 40.5209 56.8033 40.1414 56.8033C39.762 56.8033 39.4541 56.4954 39.4541 56.116V53.5201L38.6043 54.9356C38.3669 55.4162 37.6818 55.4537 37.4001 54.9845L37.4012 54.9822L36.5242 53.5201V56.116C36.5242 56.4954 36.2163 56.8033 35.8369 56.8033C35.4574 56.8033 35.1495 56.4954 35.1495 56.116V51.0457C35.1495 50.6663 35.4574 50.3584 35.8369 50.3584C36.1072 50.3584 36.3401 50.514 36.4526 50.7412L37.9886 53.3008L39.5529 50.6935L39.5518 50.6913C39.7472 50.3663 40.1687 50.2607 40.4936 50.4561C40.7117 50.5856 40.8299 50.8151 40.8287 51.0503ZM28.0014 58.0485C28.0014 58.0644 28.0082 58.0791 28.0184 58.0894C28.0434 58.1143 26.5075 58.1064 60.0613 58.1064C60.0931 58.1064 60.1192 58.0803 60.1192 58.0485C60.1124 48.3544 60.1351 48.9338 60.1022 48.902C60.0806 48.8804 28.0548 48.8656 28.0184 48.902C27.9855 48.9338 28.0082 48.3532 28.0014 58.0485Z" fill="#68D585"/>
<path fill-rule="evenodd" clip-rule="evenodd" d="M49.7891 51.5615V52.8067H50.9728C51.1444 52.8067 51.3 52.7374 51.4125 52.6249C51.8033 52.2341 51.525 51.5627 50.9728 51.5627H49.7891V51.5615Z" fill="#68D585"/>
<path fill-rule="evenodd" clip-rule="evenodd" d="M30.8145 59.4795H57.3065V62.2606H30.8145V59.4795Z" fill="#68D585"/>
</svg>
