<svg width="50" height="50" viewBox="0 0 50 50" fill="none" xmlns="http://www.w3.org/2000/svg">
<circle cx="25" cy="25" r="24.5" transform="rotate(-180 25 25)" stroke="#ECEEF3"/>
<path opacity="0.3" d="M25.2617 19.0176L24.6758 19.5742C24.5293 19.7207 24.5293 19.9551 24.6758 20.0723L29.2168 24.6133H19.2266C19.0215 24.6133 18.875 24.7891 18.875 24.9648V25.7852C18.875 25.9902 19.0215 26.1367 19.2266 26.1367H29.2168L24.6758 30.707C24.5293 30.8242 24.5293 31.0586 24.6758 31.2051L25.2617 31.7617C25.3789 31.9082 25.6133 31.9082 25.7598 31.7617L31.8828 25.6387C32.0293 25.4922 32.0293 25.2871 31.8828 25.1406L25.7598 19.0176C25.6133 18.8711 25.3789 18.8711 25.2617 19.0176Z" fill="black"/>
</svg>
