<svg width="430" height="527" viewBox="0 0 430 527" fill="none" xmlns="http://www.w3.org/2000/svg">
<g clip-path="url(#clip0_1452_7805)">
<g opacity="0.15">
<path d="M427.128 412.891L356.35 452.534C353.22 454.344 347.683 454.11 344.062 452.023L320.52 437.978C316.899 435.891 316.505 432.696 319.636 430.886L390.147 390.445C393.278 388.635 398.815 388.869 402.425 390.956L426.234 405.799C429.854 407.886 430.248 411.081 427.117 412.891H427.128Z" fill="#BDCEFA"/>
<path d="M397.663 378.251L326.885 417.894C323.755 419.704 318.218 419.47 314.598 417.383L291.055 403.338C287.434 401.251 287.04 398.057 290.171 396.247L360.682 355.805C363.813 353.995 369.35 354.229 372.97 356.316L396.779 371.16C400.4 373.247 400.794 376.441 397.663 378.251Z" fill="#BDCEFA"/>
<path d="M414.605 319.752L201.026 438.893C191.57 444.355 174.885 443.663 163.96 437.36L39.5263 365.517C28.6014 359.213 27.4088 349.577 36.8643 344.114L250.443 224.973C259.899 219.511 276.584 220.203 287.509 226.506L411.943 298.349C422.867 304.653 424.06 314.289 414.605 319.752Z" fill="#BDCEFA"/>
</g>
<path d="M2.52359 159.711C1.30971 159.711 0 158.742 0 157.187V103.787C0 102.892 0.479163 102.051 1.25647 101.604L65.443 64.5487C65.837 64.3251 66.2629 64.208 66.6995 64.208C67.9134 64.208 69.2231 65.177 69.2231 66.7316V120.132C69.2231 121.026 68.7439 121.867 67.9666 122.315L3.78007 159.37C3.38609 159.593 2.96016 159.711 2.52359 159.711Z" fill="url(#paint0_linear_1452_7805)"/>
<path d="M50.4826 237.238C47.8844 237.238 45.084 235.173 45.084 231.84V117.629C45.084 115.712 46.1168 113.923 47.7779 112.965L185.053 33.7005C185.894 33.2107 186.799 32.9658 187.736 32.9658C190.334 32.9658 193.135 35.0315 193.135 38.3644V152.576C193.135 154.492 192.102 156.281 190.441 157.239L53.1659 236.504C52.3247 236.994 51.4196 237.238 50.4826 237.238Z" fill="url(#paint1_linear_1452_7805)"/>
<path d="M158.613 84.6309C157.538 84.6309 156.377 83.779 156.377 82.3948V35.0747C156.377 34.2761 156.803 33.5414 157.495 33.1368L214.366 0.308794C214.718 0.106481 215.09 0 215.474 0C216.549 0 217.71 0.851846 217.71 2.23609V49.5561C217.71 50.3547 217.284 51.0895 216.592 51.4941L159.71 84.3327C159.358 84.535 158.986 84.6415 158.602 84.6415L158.613 84.6309Z" fill="url(#paint2_linear_1452_7805)"/>
<path d="M25.9373 272.708C24.8618 272.708 23.7012 271.856 23.7012 270.472V223.152C23.7012 222.353 24.1271 221.618 24.8192 221.214L81.7012 188.375C82.0526 188.173 82.4253 188.066 82.8086 188.066C83.8841 188.066 85.0447 188.918 85.0447 190.303V237.623C85.0447 238.421 84.6188 239.156 83.9267 239.56L27.0447 272.399C26.6933 272.601 26.3206 272.708 25.9373 272.708Z" fill="url(#paint3_linear_1452_7805)"/>
<path d="M182.853 95.6837C184.305 93.2705 184.352 90.633 182.956 89.7928C181.561 88.9526 179.252 90.2278 177.799 92.6411C176.346 95.0544 176.299 97.6919 177.695 98.5321C179.09 99.3723 181.4 98.097 182.853 95.6837Z" fill="#BDCEFA"/>
<path d="M196.789 84.6424C196.789 86.9211 195.16 89.7109 193.147 90.8715C191.135 92.0322 189.506 91.1271 189.506 88.859C189.506 86.591 191.135 83.7906 193.147 82.6299C195.16 81.4693 196.789 82.3744 196.789 84.6424Z" fill="#BDCEFA"/>
<path d="M209.598 77.2518C209.598 79.5305 207.969 82.3203 205.956 83.4809C203.944 84.6415 202.314 83.7365 202.314 81.4684C202.314 79.2004 203.944 76.3999 205.956 75.2393C207.969 74.0787 209.598 74.9837 209.598 77.2518Z" fill="#BDCEFA"/>
<path d="M90.51 153.374C87.8053 156.334 85.4628 158.166 82.2684 160.008C74.7934 164.331 68.2129 161.935 68.2129 151.734C68.2129 141.533 74.8786 128.063 85.0688 122.186C93.0016 117.607 98.677 120.62 98.677 129.363C98.677 136.955 94.9821 143.876 90.116 146.687C87.997 147.911 86.4637 147.549 86.2401 144.919L86.1549 144.973C84.76 148.433 82.7262 150.957 80.341 152.33C77.4128 154.023 75.2939 152.746 75.2939 148.476C75.2939 142.13 79.3508 134.016 85.8355 130.268C87.816 129.128 90.0734 128.394 91.2021 128.468L89.8498 138.871C89.4026 142.204 89.7114 143.429 90.9785 142.747C92.9164 141.682 95.3442 137.412 95.3442 131.428C95.3442 124.667 91.5641 121.6 84.579 125.625C77.6897 129.607 71.6522 139.329 71.6522 149.274C71.6522 157.963 76.4758 160.125 83.1841 156.249C85.4841 154.918 87.9118 152.948 89.722 150.808L90.5312 153.353L90.51 153.374ZM86.4956 134.197C86.1336 134.303 85.6864 134.452 85.1007 134.793C82.1299 136.507 79.7873 141.246 79.7873 145.249C79.7873 147.23 80.554 148.029 82.0447 147.177C83.7165 146.218 85.4734 142.758 85.878 139.499L86.5063 134.197H86.4956Z" fill="#BDCEFA"/>
<path d="M110.025 87.8661L125.763 92.2318C126.253 92.3703 126.998 91.9337 127.488 91.2416L143.237 68.7422L110.025 87.8661Z" fill="#BDCEFA"/>
<path d="M121.206 92.5097L110.249 110.633C110.068 110.388 109.951 110.068 109.951 109.642V89.4111L121.206 92.4991V92.5097Z" fill="#BDCEFA"/>
<path d="M131.033 87.6746L142.064 93.201C141.755 93.5524 141.404 93.8505 141.031 94.0635L112.239 110.685C111.898 110.877 111.579 110.994 111.291 111.005L122.312 92.7537L126.646 93.957L131.043 87.6533L131.033 87.6746Z" fill="#BDCEFA"/>
<path d="M143.31 70.1474V90.3787C143.31 90.762 143.193 91.1986 143.034 91.6032L132.141 86.1195L143.31 70.1367V70.1474Z" fill="#BDCEFA"/>
<path d="M253.545 97.3975C253.396 97.3975 253.278 97.2804 253.278 97.1313V18.8893L146.744 80.4884C146.617 80.5629 146.457 80.5203 146.382 80.3925C146.308 80.2647 146.35 80.105 146.478 80.0305L253.811 17.9629V97.1313C253.811 97.2804 253.694 97.3975 253.545 97.3975Z" fill="#BDCEFA"/>
<path d="M260.671 97.7286C260.373 97.7286 260.139 97.5156 260.139 97.2175V97.1642C260.139 96.8661 260.373 96.6318 260.671 96.6318C260.969 96.6318 261.203 96.8661 261.203 97.1642C261.203 97.4624 260.969 97.7286 260.671 97.7286Z" fill="#BDCEFA"/>
<path d="M260.671 93.6278C260.373 93.6278 260.139 93.4362 260.139 93.1487V93.0528C260.139 92.7547 260.373 92.5204 260.671 92.5204C260.969 92.5204 261.203 92.7547 261.203 93.0528C261.203 93.351 260.969 93.6385 260.671 93.6385V93.6278ZM260.671 89.4964C260.373 89.4964 260.139 89.3047 260.139 89.0172V88.9214C260.139 88.6232 260.373 88.389 260.671 88.389C260.969 88.389 261.203 88.6232 261.203 88.9214C261.203 89.2195 260.969 89.507 260.671 89.507V89.4964ZM260.671 85.3756C260.373 85.3756 260.139 85.1839 260.139 84.8964V84.8006C260.139 84.5024 260.373 84.2682 260.671 84.2682C260.969 84.2682 261.203 84.5024 261.203 84.8006C261.203 85.0987 260.969 85.3862 260.671 85.3862V85.3756ZM260.671 81.2441C260.373 81.2441 260.139 81.0525 260.139 80.765V80.6691C260.139 80.371 260.373 80.1367 260.671 80.1367C260.969 80.1367 261.203 80.371 261.203 80.6691C261.203 80.9673 260.969 81.2548 260.671 81.2548V81.2441ZM260.671 77.1233C260.373 77.1233 260.139 76.9317 260.139 76.6442V76.5483C260.139 76.2502 260.373 76.0159 260.671 76.0159C260.969 76.0159 261.203 76.2502 261.203 76.5483C261.203 76.8465 260.969 77.134 260.671 77.134V77.1233ZM260.671 73.0025C260.373 73.0025 260.139 72.8109 260.139 72.5234V72.4275C260.139 72.1294 260.373 71.8951 260.671 71.8951C260.969 71.8951 261.203 72.1294 261.203 72.4275C261.203 72.7257 260.969 73.0132 260.671 73.0132V73.0025ZM260.671 68.8711C260.373 68.8711 260.139 68.6794 260.139 68.3919V68.2961C260.139 67.9979 260.373 67.7637 260.671 67.7637C260.969 67.7637 261.203 67.9979 261.203 68.2961C261.203 68.5942 260.969 68.8817 260.671 68.8817V68.8711Z" fill="#BDCEFA"/>
<path d="M260.669 64.772C260.488 64.772 260.317 64.6868 260.221 64.5484C260.2 64.5271 260.19 64.5058 260.179 64.4845C260.04 64.229 260.104 63.9202 260.36 63.7711C260.53 63.6753 260.754 63.6753 260.914 63.7711C261.073 63.8669 261.201 64.0266 261.201 64.2183C261.201 64.5165 260.967 64.772 260.669 64.772Z" fill="#BDCEFA"/>
<path d="M108.339 149.786C108.147 149.786 107.966 149.69 107.871 149.509C107.732 149.254 107.817 148.923 108.073 148.785L108.169 148.732C108.424 148.593 108.744 148.679 108.893 148.934C109.031 149.19 108.946 149.52 108.691 149.658L108.595 149.711C108.51 149.754 108.424 149.775 108.339 149.775V149.786ZM112.141 147.656C111.949 147.656 111.768 147.56 111.672 147.379C111.534 147.124 111.619 146.794 111.874 146.655L111.97 146.602C112.226 146.464 112.556 146.549 112.694 146.804C112.833 147.06 112.747 147.39 112.492 147.529L112.396 147.582C112.311 147.624 112.226 147.646 112.141 147.646V147.656ZM115.953 145.537C115.771 145.537 115.59 145.441 115.484 145.271C115.335 145.016 115.431 144.685 115.686 144.547C115.942 144.398 116.315 144.473 116.453 144.728C116.602 144.984 116.549 145.282 116.293 145.431L116.197 145.484C116.112 145.527 116.027 145.548 115.942 145.548L115.953 145.537ZM119.754 143.408C119.562 143.408 119.381 143.312 119.285 143.131C119.147 142.875 119.232 142.545 119.488 142.407L119.584 142.354C119.839 142.215 120.169 142.3 120.308 142.556C120.446 142.811 120.361 143.142 120.105 143.28L120.009 143.333C119.924 143.376 119.839 143.397 119.754 143.397V143.408ZM123.566 141.289C123.374 141.289 123.193 141.193 123.097 141.012C122.959 140.756 123.044 140.426 123.3 140.288L123.396 140.235C123.651 140.096 123.981 140.181 124.12 140.437C124.258 140.692 124.173 141.023 123.917 141.161L123.821 141.214C123.736 141.257 123.651 141.278 123.566 141.278V141.289ZM127.367 139.159C127.186 139.159 127.005 139.063 126.899 138.893C126.75 138.637 126.845 138.307 127.101 138.169C127.357 138.02 127.729 138.094 127.868 138.35C128.017 138.605 127.964 138.904 127.708 139.053L127.612 139.106C127.527 139.148 127.442 139.17 127.357 139.17L127.367 139.159ZM131.179 137.03C130.998 137.03 130.817 136.934 130.711 136.763C130.562 136.508 130.658 136.178 130.913 136.039C131.169 135.89 131.541 135.965 131.68 136.22C131.829 136.476 131.776 136.774 131.52 136.923L131.424 136.976C131.339 137.019 131.254 137.04 131.169 137.04L131.179 137.03ZM134.991 134.911C134.8 134.911 134.619 134.815 134.523 134.634C134.384 134.378 134.47 134.048 134.725 133.91L134.821 133.856C135.076 133.718 135.407 133.803 135.545 134.059C135.683 134.314 135.598 134.644 135.343 134.783L135.247 134.836C135.162 134.879 135.076 134.9 134.991 134.9V134.911ZM138.793 132.781C138.601 132.781 138.42 132.685 138.324 132.504C138.186 132.249 138.271 131.918 138.526 131.78L138.622 131.727C138.878 131.588 139.197 131.674 139.346 131.929C139.485 132.185 139.4 132.515 139.144 132.653L139.048 132.706C138.963 132.749 138.878 132.77 138.793 132.77V132.781ZM142.605 130.662C142.413 130.662 142.232 130.566 142.136 130.385C141.998 130.13 142.083 129.799 142.338 129.661C142.594 129.512 142.967 129.587 143.105 129.842C143.244 130.098 143.201 130.396 142.945 130.545L142.85 130.598C142.764 130.641 142.679 130.662 142.594 130.662H142.605ZM146.406 128.532C146.214 128.532 146.033 128.437 145.937 128.256C145.799 128 145.884 127.67 146.15 127.531C146.406 127.393 146.779 127.457 146.917 127.712C147.056 127.968 147.013 128.266 146.757 128.415L146.662 128.468C146.576 128.511 146.491 128.532 146.406 128.532ZM150.218 126.403C150.026 126.403 149.845 126.307 149.749 126.126C149.611 125.87 149.696 125.54 149.962 125.402C150.218 125.263 150.591 125.327 150.729 125.583C150.868 125.838 150.825 126.137 150.569 126.286L150.474 126.339C150.388 126.381 150.303 126.403 150.218 126.403ZM154.019 124.284C153.828 124.284 153.647 124.188 153.551 124.007C153.412 123.751 153.498 123.421 153.753 123.283C154.009 123.144 154.381 123.208 154.52 123.464C154.658 123.719 154.616 124.018 154.36 124.167L154.264 124.22C154.179 124.262 154.094 124.284 154.009 124.284H154.019ZM157.831 122.154C157.64 122.154 157.459 122.058 157.363 121.877C157.224 121.622 157.31 121.292 157.565 121.153C157.821 121.015 158.193 121.079 158.332 121.334C158.47 121.59 158.428 121.888 158.172 122.037L158.076 122.09C157.991 122.133 157.906 122.154 157.821 122.154H157.831ZM161.633 120.035C161.441 120.035 161.26 119.939 161.164 119.758C161.026 119.503 161.111 119.173 161.377 119.034C161.633 118.896 162.005 118.96 162.144 119.215C162.282 119.471 162.24 119.769 161.984 119.918L161.888 119.971C161.803 120.014 161.718 120.035 161.633 120.035ZM165.445 117.906C165.253 117.906 165.072 117.81 164.976 117.629C164.838 117.373 164.923 117.043 165.179 116.905L165.274 116.851C165.53 116.713 165.86 116.798 165.998 117.054C166.137 117.309 166.052 117.639 165.796 117.778L165.7 117.831C165.615 117.874 165.53 117.895 165.445 117.895V117.906ZM169.257 115.776C169.076 115.776 168.895 115.68 168.788 115.51C168.639 115.254 168.735 114.924 168.991 114.786C169.246 114.637 169.619 114.711 169.757 114.967C169.906 115.222 169.853 115.52 169.597 115.669L169.502 115.723C169.416 115.765 169.331 115.787 169.246 115.787L169.257 115.776ZM173.058 113.657C172.866 113.657 172.685 113.561 172.59 113.38C172.451 113.125 172.536 112.795 172.792 112.656L172.888 112.603C173.143 112.464 173.463 112.55 173.612 112.805C173.75 113.061 173.665 113.391 173.41 113.529L173.314 113.582C173.228 113.625 173.143 113.646 173.058 113.646V113.657ZM176.87 111.527C176.678 111.527 176.497 111.432 176.402 111.251C176.263 110.995 176.348 110.665 176.604 110.526L176.7 110.473C176.955 110.335 177.285 110.42 177.424 110.676C177.562 110.931 177.477 111.261 177.222 111.4L177.126 111.453C177.04 111.495 176.955 111.517 176.87 111.517V111.527ZM180.671 109.408C180.49 109.408 180.309 109.313 180.203 109.142C180.054 108.887 180.15 108.557 180.405 108.418C180.661 108.269 181.034 108.344 181.172 108.599C181.321 108.855 181.268 109.153 181.012 109.302L180.916 109.355C180.831 109.398 180.746 109.419 180.661 109.419L180.671 109.408ZM184.483 107.279C184.302 107.279 184.121 107.183 184.015 107.013C183.866 106.757 183.962 106.427 184.217 106.289C184.473 106.139 184.846 106.214 184.984 106.47C185.133 106.725 185.08 107.023 184.824 107.172L184.728 107.226C184.643 107.268 184.558 107.289 184.473 107.289L184.483 107.279ZM188.285 105.149C188.093 105.149 187.912 105.053 187.816 104.872C187.678 104.617 187.763 104.287 188.019 104.148L188.114 104.095C188.37 103.957 188.7 104.042 188.839 104.297C188.977 104.553 188.892 104.883 188.636 105.021L188.54 105.075C188.455 105.117 188.37 105.139 188.285 105.139V105.149ZM192.097 103.03C191.905 103.03 191.724 102.934 191.628 102.753C191.49 102.498 191.575 102.168 191.831 102.029L191.926 101.976C192.182 101.838 192.501 101.923 192.651 102.178C192.789 102.434 192.704 102.764 192.448 102.902L192.352 102.956C192.267 102.998 192.182 103.02 192.097 103.02V103.03ZM195.898 100.901C195.717 100.901 195.536 100.805 195.43 100.634C195.281 100.379 195.376 100.049 195.632 99.9104C195.888 99.7613 196.26 99.8358 196.399 100.091C196.548 100.347 196.495 100.645 196.239 100.794L196.143 100.847C196.058 100.89 195.973 100.911 195.888 100.911L195.898 100.901ZM199.71 98.771C199.529 98.771 199.348 98.6752 199.242 98.5048C199.093 98.2493 199.188 97.9192 199.444 97.7807C199.7 97.6317 200.072 97.7062 200.211 97.9618C200.36 98.2173 200.307 98.5155 200.051 98.6645L199.955 98.7178C199.87 98.7604 199.785 98.7817 199.7 98.7817L199.71 98.771ZM203.522 96.652C203.331 96.652 203.15 96.5562 203.054 96.3752C202.915 96.1196 203 95.7896 203.256 95.6511L203.352 95.5979C203.607 95.4595 203.938 95.5446 204.076 95.8002C204.214 96.0558 204.129 96.3858 203.874 96.5243L203.778 96.5775C203.693 96.6201 203.607 96.6414 203.522 96.6414V96.652ZM207.324 94.5224C207.132 94.5224 206.951 94.4266 206.855 94.2456C206.717 93.99 206.802 93.6599 207.057 93.5215L207.153 93.4683C207.409 93.3298 207.728 93.415 207.877 93.6706C208.016 93.9261 207.931 94.2562 207.675 94.3947L207.579 94.4479C207.494 94.4905 207.409 94.5118 207.324 94.5118V94.5224ZM211.136 92.4035C210.955 92.4035 210.774 92.3076 210.667 92.1373C210.518 91.8817 210.614 91.5516 210.869 91.4132C211.125 91.2641 211.498 91.3387 211.636 91.5942C211.785 91.8498 211.732 92.1479 211.476 92.297L211.381 92.3502C211.295 92.3928 211.21 92.4141 211.125 92.4141L211.136 92.4035ZM214.937 90.2738C214.756 90.2738 214.575 90.178 214.468 90.0076C214.319 89.7521 214.415 89.422 214.671 89.2836C214.926 89.1452 215.299 89.209 215.437 89.4646C215.576 89.7201 215.533 90.0183 215.278 90.1674L215.182 90.2206C215.097 90.2632 215.012 90.2845 214.916 90.2845L214.937 90.2738ZM218.749 88.1442C218.568 88.1442 218.376 88.0484 218.28 87.8674C218.142 87.6118 218.227 87.2817 218.483 87.1433C218.738 87.0049 219.111 87.0688 219.249 87.3243C219.388 87.5799 219.345 87.878 219.09 88.0271L218.994 88.0803C218.909 88.1229 218.824 88.1442 218.738 88.1442H218.749ZM222.55 86.0253C222.359 86.0253 222.178 85.9294 222.082 85.7484C221.943 85.4929 222.039 85.1628 222.295 85.0243L222.391 84.9711C222.646 84.8327 222.966 84.9179 223.115 85.1841C223.253 85.4396 223.157 85.7697 222.902 85.9081L222.806 85.9614C222.721 86.004 222.636 86.0253 222.55 86.0253ZM226.362 83.8957C226.181 83.8957 225.99 83.7998 225.894 83.6188C225.755 83.3632 225.841 83.0332 226.096 82.8947C226.352 82.7563 226.724 82.8202 226.863 83.0757C227.001 83.3313 226.959 83.6295 226.703 83.7785L226.607 83.8318C226.522 83.8744 226.437 83.8957 226.352 83.8957H226.362ZM230.164 81.7767C229.983 81.7767 229.791 81.6809 229.695 81.4998C229.557 81.2443 229.642 80.9142 229.898 80.7758C230.153 80.6373 230.526 80.7012 230.664 80.9568C230.803 81.2123 230.76 81.5105 230.504 81.6596L230.409 81.7128C230.323 81.7554 230.238 81.7767 230.153 81.7767H230.164ZM233.976 79.6471C233.795 79.6471 233.603 79.5512 233.507 79.3702C233.369 79.1147 233.454 78.7846 233.71 78.6462C233.965 78.5077 234.338 78.5716 234.476 78.8272C234.615 79.0827 234.572 79.3809 234.316 79.5299L234.221 79.5832C234.135 79.6258 234.05 79.6471 233.965 79.6471H233.976ZM237.777 77.5175C237.596 77.5175 237.404 77.4216 237.309 77.2406C237.17 76.9851 237.255 76.655 237.511 76.5165C237.766 76.3781 238.139 76.442 238.278 76.6976C238.416 76.9531 238.373 77.2513 238.118 77.4003L238.022 77.4536C237.937 77.4962 237.852 77.5175 237.766 77.5175H237.777ZM241.589 75.3985C241.408 75.3985 241.216 75.3027 241.121 75.1216C240.982 74.8661 241.067 74.536 241.323 74.3976L241.419 74.3443C241.674 74.2059 241.994 74.2911 242.143 74.5466C242.281 74.8022 242.196 75.1323 241.94 75.2707L241.845 75.324C241.759 75.3665 241.674 75.3878 241.589 75.3878V75.3985ZM245.401 73.2689C245.22 73.2689 245.039 73.173 244.933 73.0027C244.784 72.7471 244.879 72.417 245.135 72.2786C245.39 72.1402 245.763 72.2041 245.902 72.4596C246.04 72.7152 245.997 73.0133 245.742 73.1624L245.646 73.2156C245.561 73.2582 245.476 73.2795 245.38 73.2795L245.401 73.2689ZM249.202 71.1499C249.021 71.1499 248.84 71.0541 248.734 70.8837C248.585 70.6282 248.681 70.2981 248.936 70.1596C249.192 70.0106 249.565 70.0851 249.703 70.3407C249.841 70.5962 249.799 70.8944 249.543 71.0434L249.447 71.0967C249.362 71.1393 249.277 71.1606 249.181 71.1606L249.202 71.1499ZM253.014 69.0203C252.833 69.0203 252.642 68.9245 252.546 68.7434C252.408 68.4879 252.493 68.1578 252.748 68.0194L252.844 67.9661C253.1 67.8277 253.419 67.9129 253.568 68.1684C253.707 68.424 253.621 68.7541 253.366 68.8925L253.27 68.9458C253.185 68.9884 253.1 69.0096 253.014 69.0096V69.0203ZM256.816 66.8907C256.635 66.8907 256.454 66.7949 256.347 66.6245C256.198 66.3689 256.294 66.0388 256.55 65.9004C256.805 65.7513 257.178 65.8259 257.316 66.0814C257.455 66.337 257.412 66.6351 257.157 66.7842L257.061 66.8374C256.976 66.88 256.89 66.9013 256.795 66.9013L256.816 66.8907Z" fill="#BDCEFA"/>
<path d="M104.57 151.916C104.271 151.916 104.037 151.703 104.037 151.405C104.037 151.213 104.144 150.979 104.303 150.883C104.559 150.734 104.91 150.819 105.049 151.075C105.176 151.309 105.134 151.586 104.932 151.745C104.836 151.841 104.708 151.905 104.559 151.905L104.57 151.916Z" fill="#BDCEFA"/>
<path d="M104.57 183.604C104.271 183.604 104.037 183.37 104.037 183.072V182.965C104.037 182.667 104.271 182.433 104.57 182.433C104.868 182.433 105.102 182.667 105.102 182.965V183.072C105.102 183.37 104.868 183.604 104.57 183.604ZM104.57 179.079C104.271 179.079 104.037 178.845 104.037 178.546V178.44C104.037 178.142 104.271 177.908 104.57 177.908C104.868 177.908 105.102 178.142 105.102 178.44V178.546C105.102 178.845 104.868 179.079 104.57 179.079ZM104.57 174.553C104.271 174.553 104.037 174.319 104.037 174.021V173.914C104.037 173.616 104.271 173.382 104.57 173.382C104.868 173.382 105.102 173.616 105.102 173.914V174.021C105.102 174.319 104.868 174.553 104.57 174.553ZM104.57 170.039C104.271 170.039 104.037 169.804 104.037 169.506V169.4C104.037 169.102 104.271 168.867 104.57 168.867C104.868 168.867 105.102 169.102 105.102 169.4V169.506C105.102 169.804 104.868 170.039 104.57 170.039ZM104.57 165.513C104.271 165.513 104.037 165.279 104.037 164.981V164.874C104.037 164.576 104.271 164.342 104.57 164.342C104.868 164.342 105.102 164.576 105.102 164.874V164.981C105.102 165.279 104.868 165.513 104.57 165.513ZM104.57 160.988C104.271 160.988 104.037 160.753 104.037 160.455V160.349C104.037 160.051 104.271 159.816 104.57 159.816C104.868 159.816 105.102 160.051 105.102 160.349V160.455C105.102 160.753 104.868 160.988 104.57 160.988ZM104.57 156.462C104.271 156.462 104.037 156.228 104.037 155.93V155.823C104.037 155.525 104.271 155.291 104.57 155.291C104.868 155.291 105.102 155.525 105.102 155.823V155.93C105.102 156.228 104.868 156.462 104.57 156.462Z" fill="#BDCEFA"/>
<path d="M104.57 188.076C104.271 188.076 104.037 187.842 104.037 187.544C104.037 187.246 104.271 186.99 104.57 186.99C104.868 186.99 105.102 187.203 105.102 187.501V187.555C105.102 187.853 104.868 188.087 104.57 188.087V188.076Z" fill="#BDCEFA"/>
<path d="M37.8678 209.096C37.7187 209.096 37.6016 208.979 37.6016 208.83V166.269L37.74 166.195L62.731 152.97C62.8588 152.906 63.0185 152.948 63.093 153.076C63.1569 153.204 63.1143 153.364 62.9866 153.438L38.134 166.589V208.83C38.134 208.979 38.0168 209.096 37.8678 209.096Z" fill="#BDCEFA"/>
<path d="M55.843 277.552C55.5448 277.552 55.3105 277.371 55.3105 277.073V276.966C55.3105 276.668 55.5448 276.434 55.843 276.434C56.1411 276.434 56.3754 276.668 56.3754 276.966C56.3754 277.264 56.1411 277.552 55.843 277.552ZM55.843 273.239C55.5448 273.239 55.3105 273.005 55.3105 272.707V272.601C55.3105 272.302 55.5448 272.068 55.843 272.068C56.1411 272.068 56.3754 272.302 56.3754 272.601V272.707C56.3754 273.005 56.1411 273.239 55.843 273.239ZM55.843 268.821C55.5448 268.821 55.3105 268.64 55.3105 268.341V268.235C55.3105 267.937 55.5448 267.703 55.843 267.703C56.1411 267.703 56.3754 267.937 56.3754 268.235C56.3754 268.533 56.1411 268.821 55.843 268.821ZM55.843 264.508C55.5448 264.508 55.3105 264.274 55.3105 263.976V263.869C55.3105 263.571 55.5448 263.337 55.843 263.337C56.1411 263.337 56.3754 263.571 56.3754 263.869V263.976C56.3754 264.274 56.1411 264.508 55.843 264.508ZM55.843 260.089C55.5448 260.089 55.3105 259.908 55.3105 259.61V259.503C55.3105 259.205 55.5448 258.971 55.843 258.971C56.1411 258.971 56.3754 259.205 56.3754 259.503C56.3754 259.802 56.1411 260.089 55.843 260.089ZM55.843 255.723C55.5448 255.723 55.3105 255.542 55.3105 255.244V255.138C55.3105 254.84 55.5448 254.605 55.843 254.605C56.1411 254.605 56.3754 254.84 56.3754 255.138C56.3754 255.436 56.1411 255.723 55.843 255.723ZM55.843 251.411C55.5448 251.411 55.3105 251.177 55.3105 250.879V250.772C55.3105 250.474 55.5448 250.24 55.843 250.24C56.1411 250.24 56.3754 250.474 56.3754 250.772V250.879C56.3754 251.177 56.1411 251.411 55.843 251.411ZM55.843 246.992C55.5448 246.992 55.3105 246.811 55.3105 246.513V246.406C55.3105 246.108 55.5448 245.874 55.843 245.874C56.1411 245.874 56.3754 246.108 56.3754 246.406C56.3754 246.705 56.1411 246.992 55.843 246.992ZM55.843 242.68C55.5448 242.68 55.3105 242.445 55.3105 242.147V242.041C55.3105 241.743 55.5448 241.508 55.843 241.508C56.1411 241.508 56.3754 241.743 56.3754 242.041V242.147C56.3754 242.445 56.1411 242.68 55.843 242.68ZM55.843 238.261C55.5448 238.261 55.3105 238.08 55.3105 237.781V237.675C55.3105 237.377 55.5448 237.143 55.843 237.143C56.1411 237.143 56.3754 237.377 56.3754 237.675C56.3754 237.973 56.1411 238.261 55.843 238.261ZM55.843 233.948C55.5448 233.948 55.3105 233.714 55.3105 233.416V233.309C55.3105 233.011 55.5448 232.777 55.843 232.777C56.1411 232.777 56.3754 233.011 56.3754 233.309V233.416C56.3754 233.714 56.1411 233.948 55.843 233.948ZM55.843 229.582C55.5448 229.582 55.3105 229.348 55.3105 229.05V228.944C55.3105 228.645 55.5448 228.411 55.843 228.411C56.1411 228.411 56.3754 228.645 56.3754 228.944V229.05C56.3754 229.348 56.1411 229.582 55.843 229.582ZM55.843 225.163C55.5448 225.163 55.3105 224.982 55.3105 224.684V224.578C55.3105 224.28 55.5448 224.045 55.843 224.045C56.1411 224.045 56.3754 224.28 56.3754 224.578C56.3754 224.876 56.1411 225.163 55.843 225.163ZM55.843 220.851C55.5448 220.851 55.3105 220.617 55.3105 220.319V220.212C55.3105 219.914 55.5448 219.68 55.843 219.68C56.1411 219.68 56.3754 219.914 56.3754 220.212V220.319C56.3754 220.617 56.1411 220.851 55.843 220.851ZM55.843 216.485C55.5448 216.485 55.3105 216.251 55.3105 215.953V215.846C55.3105 215.548 55.5448 215.314 55.843 215.314C56.1411 215.314 56.3754 215.548 56.3754 215.846V215.953C56.3754 216.251 56.1411 216.485 55.843 216.485ZM55.843 212.12C55.5448 212.12 55.3105 211.885 55.3105 211.587V211.481C55.3105 211.183 55.5448 210.948 55.843 210.948C56.1411 210.948 56.3754 211.183 56.3754 211.481V211.587C56.3754 211.885 56.1411 212.12 55.843 212.12ZM55.843 207.754C55.5448 207.754 55.3105 207.52 55.3105 207.221V207.115C55.3105 206.817 55.5448 206.583 55.843 206.583C56.1411 206.583 56.3754 206.817 56.3754 207.115V207.221C56.3754 207.52 56.1411 207.754 55.843 207.754ZM55.843 203.335C55.5448 203.335 55.3105 203.154 55.3105 202.856V202.749C55.3105 202.451 55.5448 202.217 55.843 202.217C56.1411 202.217 56.3754 202.451 56.3754 202.749C56.3754 203.047 56.1411 203.335 55.843 203.335ZM55.843 199.022C55.5448 199.022 55.3105 198.788 55.3105 198.49V198.384C55.3105 198.085 55.5448 197.851 55.843 197.851C56.1411 197.851 56.3754 198.085 56.3754 198.384V198.49C56.3754 198.788 56.1411 199.022 55.843 199.022ZM55.843 194.657C55.5448 194.657 55.3105 194.422 55.3105 194.124V194.018C55.3105 193.72 55.5448 193.485 55.843 193.485C56.1411 193.485 56.3754 193.72 56.3754 194.018V194.124C56.3754 194.422 56.1411 194.657 55.843 194.657ZM55.843 190.291C55.5448 190.291 55.3105 190.057 55.3105 189.759V189.652C55.3105 189.354 55.5448 189.12 55.843 189.12C56.1411 189.12 56.3754 189.354 56.3754 189.652V189.759C56.3754 190.057 56.1411 190.291 55.843 190.291ZM55.843 185.925C55.5448 185.925 55.3105 185.691 55.3105 185.393V185.286C55.3105 184.988 55.5448 184.754 55.843 184.754C56.1411 184.754 56.3754 184.988 56.3754 185.286V185.393C56.3754 185.691 56.1411 185.925 55.843 185.925ZM55.843 181.506C55.5448 181.506 55.3105 181.325 55.3105 181.027V180.921C55.3105 180.623 55.5448 180.388 55.843 180.388C56.1411 180.388 56.3754 180.623 56.3754 180.921C56.3754 181.219 56.1411 181.506 55.843 181.506ZM55.843 177.194C55.5448 177.194 55.3105 176.96 55.3105 176.662V176.555C55.3105 176.257 55.5448 176.023 55.843 176.023C56.1411 176.023 56.3754 176.257 56.3754 176.555V176.662C56.3754 176.96 56.1411 177.194 55.843 177.194ZM55.843 172.828C55.5448 172.828 55.3105 172.594 55.3105 172.296V172.189C55.3105 171.891 55.5448 171.657 55.843 171.657C56.1411 171.657 56.3754 171.891 56.3754 172.189V172.296C56.3754 172.594 56.1411 172.828 55.843 172.828ZM55.843 168.462C55.5448 168.462 55.3105 168.228 55.3105 167.93V167.824C55.3105 167.525 55.5448 167.291 55.843 167.291C56.1411 167.291 56.3754 167.525 56.3754 167.824V167.93C56.3754 168.228 56.1411 168.462 55.843 168.462ZM55.843 164.097C55.5448 164.097 55.3105 163.863 55.3105 163.564V163.458C55.3105 163.16 55.5448 162.925 55.843 162.925C56.1411 162.925 56.3754 163.16 56.3754 163.458V163.564C56.3754 163.863 56.1411 164.097 55.843 164.097ZM55.843 159.678C55.5448 159.678 55.3105 159.497 55.3105 159.199V159.092C55.3105 158.794 55.5448 158.56 55.843 158.56C56.1411 158.56 56.3754 158.794 56.3754 159.092C56.3754 159.39 56.1411 159.678 55.843 159.678ZM55.843 155.365C55.5448 155.365 55.3105 155.131 55.3105 154.833V154.726C55.3105 154.428 55.5448 154.194 55.843 154.194C56.1411 154.194 56.3754 154.428 56.3754 154.726V154.833C56.3754 155.131 56.1411 155.365 55.843 155.365ZM55.843 151C55.5448 151 55.3105 150.765 55.3105 150.467V150.361C55.3105 150.063 55.5448 149.828 55.843 149.828C56.1411 149.828 56.3754 150.063 56.3754 150.361V150.467C56.3754 150.765 56.1411 151 55.843 151ZM55.843 146.634C55.5448 146.634 55.3105 146.4 55.3105 146.102V145.995C55.3105 145.697 55.5448 145.463 55.843 145.463C56.1411 145.463 56.3754 145.697 56.3754 145.995V146.102C56.3754 146.4 56.1411 146.634 55.843 146.634ZM55.843 142.268C55.5448 142.268 55.3105 142.034 55.3105 141.736V141.629C55.3105 141.331 55.5448 141.097 55.843 141.097C56.1411 141.097 56.3754 141.331 56.3754 141.629V141.736C56.3754 142.034 56.1411 142.268 55.843 142.268ZM55.843 137.849C55.5448 137.849 55.3105 137.668 55.3105 137.37V137.264C55.3105 136.965 55.5448 136.731 55.843 136.731C56.1411 136.731 56.3754 136.965 56.3754 137.264C56.3754 137.562 56.1411 137.849 55.843 137.849ZM55.843 133.537C55.5448 133.537 55.3105 133.303 55.3105 133.004V132.898C55.3105 132.6 55.5448 132.366 55.843 132.366C56.1411 132.366 56.3754 132.6 56.3754 132.898V133.004C56.3754 133.303 56.1411 133.537 55.843 133.537ZM55.843 129.171C55.5448 129.171 55.3105 128.937 55.3105 128.639V128.532C55.3105 128.234 55.5448 128 55.843 128C56.1411 128 56.3754 128.234 56.3754 128.532V128.639C56.3754 128.937 56.1411 129.171 55.843 129.171ZM55.843 124.805C55.5448 124.805 55.3105 124.571 55.3105 124.273V124.167C55.3105 123.868 55.5448 123.634 55.843 123.634C56.1411 123.634 56.3754 123.868 56.3754 124.167V124.273C56.3754 124.571 56.1411 124.805 55.843 124.805ZM55.843 120.44C55.5448 120.44 55.3105 120.205 55.3105 119.907V119.801C55.3105 119.503 55.5448 119.268 55.843 119.268C56.1411 119.268 56.3754 119.503 56.3754 119.801V119.907C56.3754 120.205 56.1411 120.44 55.843 120.44ZM57.898 117.267C57.717 117.267 57.536 117.171 57.4402 117C57.2911 116.745 57.3869 116.425 57.6425 116.276L57.7383 116.223C57.9939 116.074 58.3133 116.17 58.4624 116.415C58.6115 116.67 58.5156 117 58.2601 117.139L58.1642 117.192C58.079 117.235 57.9939 117.267 57.898 117.267ZM61.7526 115.062C61.561 115.062 61.3693 114.977 61.2841 114.818C61.135 114.562 61.1776 114.264 61.4332 114.115L61.529 114.061C61.7846 113.912 62.104 114.008 62.2531 114.264C62.4022 114.519 62.3063 114.839 62.0508 114.988C61.9549 115.041 61.8591 115.062 61.7526 115.062ZM65.5433 112.89C65.3517 112.89 65.16 112.805 65.0748 112.635C64.9258 112.379 64.9683 112.081 65.2239 111.932L65.3197 111.879C65.5753 111.73 65.9054 111.825 66.0438 112.081C66.1929 112.337 66.097 112.667 65.8415 112.805C65.7563 112.858 65.6498 112.88 65.5433 112.88V112.89ZM69.2808 110.782C69.0998 110.782 68.9188 110.686 68.8229 110.516C68.6739 110.26 68.7697 109.93 69.0253 109.792L69.1211 109.738C69.3767 109.589 69.6961 109.674 69.8452 109.941C69.9942 110.196 69.8984 110.516 69.6535 110.665L69.5577 110.718C69.4725 110.761 69.3873 110.793 69.2915 110.793L69.2808 110.782ZM73.1248 108.567C72.9331 108.567 72.7414 108.482 72.6563 108.312C72.5072 108.056 72.5498 107.758 72.816 107.609L72.9118 107.556C73.1674 107.406 73.4975 107.502 73.6359 107.758C73.785 108.013 73.6891 108.343 73.4336 108.482C73.3484 108.535 73.2419 108.556 73.1354 108.556L73.1248 108.567ZM76.9155 106.406C76.7238 106.406 76.5322 106.32 76.447 106.15C76.2979 105.894 76.3405 105.596 76.596 105.447L76.6919 105.394C76.9474 105.245 77.2669 105.341 77.4159 105.596C77.565 105.852 77.4692 106.182 77.2136 106.32C77.1285 106.374 77.022 106.395 76.9155 106.395V106.406ZM80.653 104.287C80.4719 104.287 80.2909 104.191 80.1951 104.02C80.046 103.765 80.1419 103.445 80.3974 103.296L80.4932 103.243C80.7488 103.094 81.0682 103.19 81.2173 103.445C81.3664 103.701 81.2705 104.02 81.015 104.169L80.9192 104.223C80.834 104.265 80.7488 104.297 80.653 104.297V104.287ZM84.4969 102.082C84.3052 102.082 84.1136 101.997 84.0284 101.827C83.8793 101.571 83.9219 101.273 84.1775 101.124L84.2733 101.071C84.5289 100.922 84.8589 101.018 84.9974 101.273C85.1464 101.529 85.0506 101.859 84.7951 101.997C84.7099 102.05 84.6034 102.072 84.4969 102.072V102.082ZM88.2983 99.9209C88.1066 99.9209 87.9149 99.8357 87.8298 99.6653C87.6807 99.4097 87.7233 99.1116 87.9788 98.9625L88.0747 98.9093C88.3302 98.7602 88.6603 98.8561 88.7987 99.1116C88.9478 99.3672 88.852 99.6972 88.5964 99.8357C88.5112 99.8889 88.4048 99.9102 88.2983 99.9102V99.9209ZM92.0251 97.8019C91.8441 97.8019 91.6631 97.7061 91.5672 97.5357C91.4182 97.2801 91.514 96.9607 91.7695 96.8116L91.8654 96.7584C92.1209 96.6093 92.4404 96.7051 92.5894 96.95C92.7385 97.2056 92.6427 97.525 92.3871 97.6741L92.2913 97.7274C92.2061 97.7699 92.1209 97.8019 92.0251 97.8019ZM95.8797 95.5871C95.688 95.5871 95.4964 95.5019 95.4112 95.3315C95.2621 95.076 95.3047 94.7778 95.5603 94.6288L95.6561 94.5755C95.9116 94.4265 96.2311 94.5223 96.3802 94.7778C96.5292 95.0334 96.4334 95.3635 96.1778 95.5019C96.0927 95.5552 95.9862 95.5764 95.8797 95.5764V95.5871ZM99.6704 93.4255C99.4787 93.4255 99.2871 93.3403 99.2019 93.17C99.0528 92.9144 99.0954 92.6163 99.3616 92.4672L99.4575 92.414C99.713 92.2649 100.043 92.3607 100.182 92.6163C100.331 92.8718 100.235 93.2019 99.9792 93.3404C99.894 93.3936 99.7875 93.4149 99.6811 93.4149L99.6704 93.4255ZM103.408 91.3066C103.227 91.3066 103.046 91.2107 102.95 91.0404C102.801 90.7848 102.897 90.4547 103.142 90.3163L103.238 90.2631C103.493 90.114 103.823 90.2098 103.962 90.4654C104.111 90.7209 104.015 91.0404 103.759 91.1894L103.663 91.2427C103.578 91.2853 103.493 91.3172 103.397 91.3172L103.408 91.3066Z" fill="#BDCEFA"/>
<path d="M131.804 122.41C131.612 122.41 131.431 122.324 131.336 122.165C131.186 121.909 131.229 121.611 131.485 121.462L131.58 121.409C131.836 121.26 132.166 121.345 132.305 121.6C132.454 121.856 132.368 122.175 132.113 122.324C132.017 122.378 131.911 122.399 131.815 122.399L131.804 122.41ZM130.058 121.121C129.76 121.121 129.525 120.887 129.525 120.589V120.482C129.525 120.184 129.76 119.95 130.058 119.95C130.356 119.95 130.59 120.184 130.59 120.482V120.589C130.59 120.887 130.356 121.121 130.058 121.121ZM135.573 120.216C135.382 120.216 135.201 120.131 135.105 119.971C134.956 119.716 134.998 119.417 135.254 119.268L135.35 119.215C135.605 119.066 135.936 119.151 136.074 119.407C136.223 119.662 136.138 119.982 135.882 120.131C135.786 120.184 135.68 120.205 135.584 120.205L135.573 120.216ZM139.354 118.033C139.162 118.033 138.981 117.948 138.885 117.788C138.736 117.533 138.779 117.235 139.034 117.086L139.13 117.032C139.386 116.883 139.705 116.968 139.854 117.224C140.003 117.48 139.918 117.799 139.662 117.948C139.567 118.001 139.46 118.023 139.364 118.023L139.354 118.033ZM130.058 116.755C129.76 116.755 129.525 116.521 129.525 116.223V116.117C129.525 115.818 129.76 115.584 130.058 115.584C130.356 115.584 130.59 115.818 130.59 116.117V116.223C130.59 116.521 130.356 116.755 130.058 116.755ZM143.134 115.85C142.942 115.85 142.761 115.765 142.665 115.605C142.516 115.35 142.559 115.052 142.814 114.903L142.91 114.849C143.166 114.7 143.496 114.786 143.634 115.041C143.783 115.297 143.698 115.616 143.442 115.765C143.347 115.818 143.251 115.84 143.144 115.84L143.134 115.85ZM146.86 113.71C146.679 113.71 146.498 113.614 146.403 113.444C146.254 113.188 146.339 112.858 146.594 112.72L146.69 112.667C146.946 112.518 147.265 112.603 147.414 112.858C147.563 113.114 147.478 113.433 147.222 113.582L147.127 113.636C147.041 113.689 146.956 113.71 146.86 113.71ZM130.058 112.39C129.76 112.39 129.525 112.156 129.525 111.857C129.525 111.559 129.76 111.272 130.058 111.272C130.356 111.272 130.59 111.453 130.59 111.751V111.857C130.59 112.156 130.356 112.39 130.058 112.39ZM150.694 111.474C150.502 111.474 150.321 111.389 150.225 111.229C150.076 110.974 150.119 110.675 150.374 110.526L150.47 110.473C150.726 110.324 151.045 110.409 151.194 110.665C151.343 110.92 151.258 111.24 151.003 111.389C150.907 111.442 150.8 111.463 150.694 111.463V111.474ZM154.474 109.291C154.282 109.291 154.101 109.206 154.005 109.046C153.856 108.791 153.899 108.493 154.154 108.344L154.25 108.29C154.506 108.141 154.825 108.226 154.974 108.482C155.123 108.737 155.038 109.068 154.783 109.206C154.687 109.259 154.58 109.281 154.474 109.281V109.291ZM130.058 108.024C129.76 108.024 129.525 107.79 129.525 107.492V107.385C129.525 107.087 129.76 106.853 130.058 106.853C130.356 106.853 130.59 107.087 130.59 107.385V107.492C130.59 107.79 130.356 108.024 130.058 108.024ZM158.201 107.151C158.02 107.151 157.839 107.055 157.743 106.885C157.594 106.629 157.679 106.31 157.934 106.161L158.03 106.107C158.286 105.958 158.605 106.044 158.754 106.299C158.903 106.555 158.818 106.874 158.563 107.023L158.467 107.076C158.382 107.13 158.286 107.151 158.201 107.151ZM162.034 104.915C161.842 104.915 161.661 104.83 161.565 104.67C161.416 104.414 161.459 104.116 161.715 103.967L161.81 103.914C162.066 103.765 162.385 103.85 162.534 104.106C162.683 104.361 162.598 104.681 162.343 104.83C162.247 104.883 162.14 104.904 162.034 104.904V104.915ZM130.058 103.658C129.76 103.658 129.525 103.424 129.525 103.126V103.019C129.525 102.721 129.76 102.487 130.058 102.487C130.356 102.487 130.59 102.721 130.59 103.019V103.126C130.59 103.424 130.356 103.658 130.058 103.658ZM165.814 102.732C165.622 102.732 165.441 102.647 165.346 102.487C165.196 102.232 165.239 101.933 165.495 101.784L165.59 101.731C165.846 101.582 166.165 101.667 166.314 101.923C166.464 102.178 166.378 102.498 166.123 102.647C166.027 102.7 165.931 102.721 165.825 102.721L165.814 102.732ZM169.53 100.592C169.349 100.592 169.168 100.496 169.072 100.326C168.923 100.07 169.019 99.7505 169.275 99.6014L169.37 99.5482C169.626 99.3991 169.956 99.495 170.095 99.7399C170.244 99.9954 170.148 100.315 169.903 100.464L169.807 100.517C169.722 100.56 169.637 100.592 169.541 100.592H169.53ZM173.374 98.3663C173.182 98.3663 173.001 98.2811 172.906 98.1214C172.757 97.8658 172.799 97.5677 173.055 97.4186L173.151 97.3653C173.406 97.2163 173.736 97.3015 173.875 97.557C174.024 97.8126 173.938 98.132 173.683 98.2811C173.587 98.3343 173.481 98.3556 173.385 98.3556L173.374 98.3663Z" fill="#BDCEFA"/>
<path d="M397.205 97.8561L358.563 120.164C355.741 121.793 350.779 121.58 347.521 119.706L310.465 98.314C307.207 96.4399 306.856 93.5649 309.678 91.9358L348.319 69.628C351.141 67.9989 356.103 68.2119 359.361 70.0859L396.417 91.4779C399.675 93.352 400.026 96.2269 397.205 97.8561Z" fill="#E8F2FE"/>
<path d="M399.06 234.993V95.5986C398.889 96.4505 398.272 97.2384 397.207 97.856L358.565 120.164C357.213 120.941 355.36 121.292 353.443 121.25V261.645C355.36 261.687 357.213 261.347 358.565 260.559L397.207 238.251C398.676 237.399 399.273 236.206 399.06 235.003V234.993Z" fill="url(#paint4_linear_1452_7805)"/>
<g style="mix-blend-mode:color-dodge">
<path d="M347.524 119.717L310.468 98.325C308.914 97.4305 308.03 96.3125 307.828 95.2051V234.599C307.54 235.994 308.445 237.549 310.468 238.72L347.524 260.112C349.217 261.091 351.367 261.602 353.433 261.656V121.25C351.357 121.197 349.206 120.686 347.524 119.706V119.717Z" fill="#DDDDDD"/>
</g>
<path d="M347.524 119.717L310.468 98.325C308.914 97.4305 308.03 96.3125 307.828 95.2051V234.599C307.54 235.994 308.445 237.549 310.468 238.72L347.524 260.112C349.217 261.091 351.367 261.602 353.433 261.656V121.25C351.357 121.197 349.206 120.686 347.524 119.706V119.717Z" fill="url(#paint5_linear_1452_7805)"/>
<path d="M370.241 98.0177C370.241 102.447 367.898 104.886 364.576 104.566C363.831 104.651 362.958 104.449 362.021 103.906L334.41 87.966C334.176 87.8382 333.952 87.6891 333.739 87.5187C329.086 84.2924 325.455 77.6586 325.455 72.1536C325.455 66.6485 328.894 64.3379 333.367 66.1907C334.037 62.3786 337.221 61.037 341.054 63.2411C342.332 63.9759 343.536 65.03 344.6 66.2652C346.634 64.5402 349.743 64.4763 353.225 66.4888C358.453 69.5129 362.84 76.2211 364.001 82.5248C365.588 83.6641 366.823 85.9109 366.865 87.8169C368.931 90.9581 370.252 94.6955 370.252 98.0177H370.241Z" fill="#0084E9"/>
<path d="M372.816 84.3979C372.774 82.4919 371.539 80.2451 369.952 79.1058C368.791 72.8021 364.404 66.0939 359.176 63.0698C356.11 61.3022 353.341 61.1425 351.339 62.3031L350.498 62.7823C349.444 61.5684 348.273 60.5462 347.016 59.8221C344.844 58.5657 342.885 58.4592 341.469 59.2897L336.443 62.1647C335.623 62.1754 334.867 62.3564 334.207 62.7184L328.297 66.1045C329.66 65.3911 331.406 65.3804 333.355 66.1897C334.026 62.3777 337.209 61.036 341.043 63.2402C342.32 63.9749 343.524 65.0291 344.588 66.2749C346.622 64.5499 349.731 64.486 353.213 66.4985C358.442 69.5225 362.829 76.2308 363.989 82.5345C365.576 83.6738 366.811 85.9206 366.854 87.8266C368.919 90.9678 370.24 94.7052 370.24 98.0274C370.24 101.041 369.154 103.128 367.407 104.065L373.317 100.679C375.095 99.7631 376.203 97.6547 376.203 94.6094C376.203 91.2872 374.882 87.5497 372.816 84.4085V84.3979Z" fill="#52A3F6"/>
<path d="M338.011 84.035C338.011 85.1212 337.244 85.5684 336.307 85.0253C335.37 84.4823 334.604 83.1619 334.604 82.0652C334.604 80.9684 335.37 80.5318 336.307 81.0749C337.244 81.6179 338.011 82.9383 338.011 84.035Z" fill="white"/>
<path d="M343.335 87.1122C343.335 88.1983 342.568 88.6455 341.631 88.1025C340.684 87.5594 339.928 86.2391 339.928 85.1423C339.928 84.0456 340.694 83.609 341.631 84.152C342.568 84.6951 343.335 86.0154 343.335 87.1122Z" fill="white"/>
<path d="M348.669 90.1893C348.669 91.2754 347.902 91.7227 346.965 91.1796C346.018 90.6366 345.262 89.3162 345.262 88.2195C345.262 87.1227 346.028 86.6861 346.965 87.2292C347.913 87.7722 348.669 89.0926 348.669 90.1893Z" fill="white"/>
<path d="M353.993 93.2675C353.993 94.3536 353.227 94.8008 352.29 94.2577C351.342 93.7147 350.586 92.3943 350.586 91.2976C350.586 90.2008 351.353 89.7643 352.29 90.3073C353.237 90.8504 353.993 92.1707 353.993 93.2675Z" fill="white"/>
<path d="M359.327 96.3437C359.327 97.4298 358.561 97.877 357.624 97.3339C356.687 96.7909 355.92 95.4705 355.92 94.3738C355.92 93.277 356.687 92.8404 357.624 93.3835C358.571 93.9265 359.327 95.2469 359.327 96.3437Z" fill="white"/>
<path d="M269.652 485.435C269.652 485.435 269.577 485.435 269.545 485.435L269.652 485.478C269.652 485.478 269.652 485.445 269.652 485.424V485.435Z" fill="url(#paint6_linear_1452_7805)"/>
<path d="M397.663 338.577L326.885 378.22C323.755 380.03 318.218 379.796 314.598 377.709L291.055 363.664C287.434 361.577 287.04 358.383 290.171 356.573L360.682 316.131C363.813 314.321 369.35 314.555 372.97 316.642L396.779 331.486C400.4 333.573 400.794 336.767 397.663 338.577Z" fill="#E8F2FE"/>
<path d="M399.72 343.006V336.074C399.528 337.022 398.847 337.895 397.665 338.587L326.887 378.23C325.375 379.103 323.32 379.486 321.18 379.433V387.483C323.309 387.536 325.375 387.153 326.887 386.28L397.665 346.637C399.305 345.689 399.965 344.369 399.72 343.017V343.006Z" fill="url(#paint7_linear_1452_7805)"/>
<path d="M314.598 377.719L291.056 363.674C289.331 362.673 288.34 361.428 288.117 360.203V367.135C287.797 368.69 288.798 370.415 291.056 371.714L314.598 385.758C316.483 386.845 318.868 387.42 321.179 387.473V379.423C318.868 379.37 316.483 378.795 314.598 377.709V377.719Z" fill="url(#paint8_linear_1452_7805)"/>
<path d="M427.124 382.192L356.346 421.835C353.216 423.645 347.679 423.41 344.059 421.323L320.516 407.279C316.895 405.192 316.501 401.997 319.632 400.187L390.143 359.746C393.274 357.935 398.811 358.17 402.421 360.257L426.23 375.1C429.85 377.187 430.244 380.382 427.113 382.192H427.124Z" fill="#E8F2FE"/>
<path d="M429.181 386.622V379.69C428.989 380.638 428.308 381.511 427.126 382.203L356.348 421.846C354.836 422.719 352.781 423.103 350.641 423.049V431.099C352.77 431.153 354.836 430.769 356.348 429.896L427.126 390.253C428.766 389.306 429.426 387.985 429.181 386.633V386.622Z" fill="url(#paint9_linear_1452_7805)"/>
<path d="M344.059 421.325L320.516 407.28C318.791 406.279 317.801 405.033 317.578 403.809V410.74C317.258 412.295 318.259 414.02 320.516 415.319L344.059 429.364C345.944 430.45 348.329 431.025 350.64 431.078V423.028C348.329 422.975 345.944 422.4 344.059 421.314V421.325Z" fill="url(#paint10_linear_1452_7805)"/>
<path d="M414.603 269.983L204.644 390.935C195.188 396.397 178.503 395.705 167.578 389.401L39.5243 315.748C28.5994 309.445 27.4068 299.808 36.8623 294.346L250.441 175.205C259.897 169.742 276.582 170.434 287.507 176.738L411.941 248.58C422.866 254.884 424.058 264.521 414.603 269.983Z" fill="#E8F2FE"/>
<path d="M420.801 268.194V262.412C420.216 265.255 418.171 267.917 414.594 269.983L204.635 390.934C200.088 393.564 193.87 394.725 187.428 394.565V403.701C193.87 403.861 200.088 402.69 204.635 400.07L414.594 279.119C419.545 276.265 421.547 272.262 420.801 268.205V268.194Z" fill="url(#paint11_linear_1452_7805)"/>
<g style="mix-blend-mode:color-dodge">
<path d="M167.579 389.39L39.5256 315.737C34.3187 312.724 31.3479 308.965 30.6557 305.26V311.042C29.6974 315.737 32.7215 320.944 39.5256 324.874L167.579 398.526C173.255 401.806 180.474 403.531 187.427 403.701V394.565C180.463 394.395 173.244 392.67 167.579 389.39Z" fill="#C9C9C9"/>
</g>
<path d="M167.579 389.39L39.5256 315.737C34.3187 312.724 31.3479 308.965 30.6557 305.26V311.042C29.6974 315.737 32.7215 320.944 39.5256 324.874L167.579 398.526C173.255 401.806 180.474 403.531 187.427 403.701V394.565C180.463 394.395 173.244 392.67 167.579 389.39Z" fill="url(#paint12_linear_1452_7805)"/>
<path d="M217.391 336.606L173.543 361.916L62.0254 297.464L105.863 272.143L217.391 336.606Z" fill="white"/>
<path d="M217.394 336.605V354.803L173.545 380.114V361.916L217.394 336.605Z" fill="url(#paint13_linear_1452_7805)"/>
<path d="M62.0254 297.463V315.66L173.543 380.113V361.916L62.0254 297.463Z" fill="url(#paint14_linear_1452_7805)"/>
<path d="M126.364 291.671L107.123 302.777C105.717 303.586 103.247 303.48 101.628 302.553L83.1752 291.905C81.5567 290.968 81.3757 289.541 82.7812 288.732L102.022 277.626C103.428 276.817 105.898 276.923 107.517 277.85L125.959 288.498C127.578 289.435 127.759 290.862 126.353 291.671H126.364Z" fill="#9CE3F0"/>
<path d="M127.277 299.019V290.543C127.192 290.969 126.883 291.363 126.361 291.661L107.12 302.767C106.449 303.161 105.523 303.331 104.564 303.31V312.276C105.523 312.297 106.439 312.127 107.12 311.733L126.361 300.627C127.096 300.201 127.394 299.615 127.277 299.008V299.019Z" fill="#39C2D1"/>
<path d="M101.626 302.543L83.1839 291.894C82.4066 291.447 81.97 290.894 81.8742 290.34V298.816C81.7358 299.508 82.183 300.285 83.1839 300.871L101.626 311.519C102.468 312.009 103.532 312.264 104.565 312.286V303.32C103.532 303.299 102.468 303.043 101.626 302.553V302.543Z" fill="#20A8AF"/>
<path d="M160.286 311.327L141.045 322.433C139.639 323.242 137.169 323.136 135.55 322.209L117.097 311.561C115.479 310.624 115.298 309.197 116.703 308.388L135.944 297.282C137.35 296.473 139.82 296.579 141.439 297.506L159.881 308.154C161.5 309.091 161.681 310.518 160.275 311.327H160.286Z" fill="#FF9100"/>
<path d="M161.201 318.675V310.199C161.115 310.625 160.807 311.019 160.285 311.317L141.044 322.423C140.373 322.817 139.447 322.988 138.488 322.966V331.932C139.447 331.953 140.362 331.783 141.044 331.389L160.285 320.283C161.02 319.857 161.318 319.271 161.201 318.664V318.675Z" fill="#D87600"/>
<path d="M135.548 322.199L117.106 311.551C116.328 311.103 115.892 310.55 115.796 309.996V318.472C115.658 319.164 116.105 319.941 117.106 320.527L135.548 331.175C136.389 331.665 137.454 331.92 138.487 331.942V322.976C137.454 322.955 136.389 322.699 135.548 322.209V322.199Z" fill="#BC6200"/>
<path d="M194.927 331.26L175.686 342.366C174.281 343.175 171.81 343.068 170.192 342.142L151.749 331.494C150.131 330.557 149.95 329.13 151.355 328.321L170.597 317.215C172.002 316.406 174.472 316.512 176.091 317.438L194.533 328.087C196.152 329.024 196.333 330.45 194.927 331.26Z" fill="#FFEC00"/>
<path d="M195.845 338.608V330.132C195.76 330.558 195.451 330.952 194.929 331.25L175.688 342.356C175.018 342.75 174.091 342.92 173.133 342.899V351.865C174.091 351.886 175.007 351.715 175.688 351.321L194.929 340.216C195.664 339.79 195.962 339.204 195.845 338.597V338.608Z" fill="#D6C100"/>
<path d="M170.193 342.131L151.75 331.483C150.973 331.036 150.536 330.482 150.441 329.929V338.405C150.302 339.097 150.749 339.874 151.75 340.46L170.193 351.108C171.034 351.598 172.099 351.853 173.132 351.874V342.909C172.099 342.887 171.034 342.632 170.193 342.142V342.131Z" fill="#938100"/>
<path d="M376.664 255.513C393.047 255.513 406.329 247.847 406.329 238.391C406.329 228.934 393.047 221.269 376.664 221.269C360.28 221.269 346.998 228.934 346.998 238.391C346.998 247.847 360.28 255.513 376.664 255.513Z" fill="white"/>
<path d="M397.642 250.498C386.057 257.185 367.274 257.185 355.688 250.498C349.938 247.176 347.053 242.832 347.01 238.477V256.887C346.968 261.306 349.853 265.725 355.688 269.09C367.274 275.777 386.057 275.777 397.642 269.09C403.477 265.725 406.363 261.306 406.32 256.887V238.477C406.277 242.832 403.392 247.176 397.642 250.498Z" fill="url(#paint15_linear_1452_7805)"/>
<path d="M376.663 225.346L394.775 235.802C384.841 241.542 368.485 241.542 358.551 235.802C348.616 230.063 348.616 220.629 358.551 214.89C364.098 211.685 371.903 210.13 379.698 210.662L376.663 225.346Z" fill="#76B5CE"/>
<path d="M358.551 235.804C353.611 232.95 351.119 229.18 351.098 225.4V235.931C351.076 239.743 353.557 243.555 358.551 246.441C368.486 252.18 384.842 252.18 394.776 246.441V235.814C384.842 241.554 368.486 241.554 358.551 235.814V235.804Z" fill="#20A8AF"/>
<path d="M376.663 225.346L394.775 235.802C384.841 241.542 368.485 241.542 358.551 235.802C348.616 230.063 348.616 220.629 358.551 214.89C364.098 211.685 371.903 210.13 379.698 210.662L376.663 225.346Z" fill="#9CE3F0"/>
<path d="M376.664 214.528L379.699 199.845C385.406 200.239 390.72 201.729 394.776 204.072C404.711 209.811 404.711 219.246 394.776 224.985L376.664 214.528Z" fill="#FF9100"/>
<path d="M376.664 214.528V225.347L394.787 235.803V224.985L376.664 214.528Z" fill="#BC6200"/>
<path d="M402.23 235.878V214.635C402.188 218.394 399.707 222.142 394.787 224.985V246.441C399.802 243.544 402.283 239.711 402.23 235.878Z" fill="#D87600"/>
<path d="M315.666 208.969L273.5 184.628C268.517 181.753 269.145 176.727 274.895 173.405C280.645 170.082 289.355 169.72 294.338 172.595L336.505 196.937C341.488 199.812 340.86 204.838 335.11 208.16C329.36 211.482 320.65 211.844 315.666 208.969Z" fill="white"/>
<path d="M335.11 208.171C329.36 211.493 320.65 211.855 315.667 208.98L273.501 184.638C271.328 183.382 270.232 181.732 270.146 179.975V192.401C270.146 192.401 270.146 192.475 270.146 192.507C270.189 194.296 271.286 196 273.501 197.278L315.667 221.619C320.65 224.494 329.35 224.132 335.11 220.81C338.358 218.936 339.966 216.519 339.859 214.251V201.718C339.913 203.954 338.305 206.329 335.11 208.171Z" fill="url(#paint16_linear_1452_7805)"/>
<path d="M291.471 180.964C289.309 182.21 285.806 182.21 283.645 180.964C281.483 179.718 281.483 177.695 283.645 176.449C285.806 175.203 289.309 175.203 291.471 176.449C293.633 177.695 293.633 179.718 291.471 180.964Z" fill="#BDCEFA"/>
<path d="M303.696 188.013C301.534 189.258 298.031 189.258 295.869 188.013C293.708 186.767 293.708 184.744 295.869 183.498C298.031 182.252 301.534 182.252 303.696 183.498C305.857 184.744 305.857 186.767 303.696 188.013Z" fill="#BDCEFA"/>
<path d="M315.908 195.072C313.747 196.318 310.244 196.318 308.082 195.072C305.921 193.826 305.921 191.803 308.082 190.557C310.244 189.312 313.747 189.312 315.908 190.557C318.07 191.803 318.07 193.826 315.908 195.072Z" fill="#BDCEFA"/>
<path d="M328.131 202.122C325.97 203.368 322.466 203.368 320.305 202.122C318.143 200.876 318.143 198.853 320.305 197.607C322.466 196.361 325.97 196.361 328.131 197.607C330.293 198.853 330.293 200.876 328.131 202.122Z" fill="#BDCEFA"/>
<path d="M126.637 257.194V163.959C126.637 161.595 127.893 159.413 129.948 158.231L242.019 93.533C246.428 90.9881 251.943 94.1719 251.943 99.2617V192.496C251.943 194.86 250.687 197.043 248.632 198.225L136.561 262.923C132.152 265.467 126.637 262.284 126.637 257.194Z" fill="white"/>
<path d="M133.262 261.602C131.143 261.602 128.854 259.92 128.854 257.194V163.959C128.854 162.394 129.695 160.935 131.047 160.147L243.118 95.4498C243.81 95.0558 244.545 94.8535 245.311 94.8535C247.43 94.8535 249.72 96.5359 249.72 99.2618V192.496C249.72 194.062 248.879 195.52 247.516 196.308L135.445 261.006C134.753 261.4 134.018 261.602 133.251 261.602H133.262Z" fill="url(#paint17_linear_1452_7805)"/>
<path d="M126.639 257.194V163.96C126.639 161.596 127.895 159.413 129.951 158.231L242.022 93.5335C243.874 92.4581 245.929 92.4155 247.676 93.0863L245.024 91.6701C243.022 90.1794 240.211 89.8067 237.752 91.2335L125.681 155.931C123.636 157.113 122.369 159.296 122.369 161.66V254.894C122.369 257.173 123.477 259.068 125.095 260.24L125.159 260.282C125.596 260.591 126.075 260.857 126.575 261.049L129.535 262.657C127.821 261.496 126.628 259.558 126.628 257.194H126.639Z" fill="url(#paint18_linear_1452_7805)"/>
<path d="M136.564 274.391L217.308 321.008C219.353 322.19 221.876 322.19 223.921 321.008L335.992 256.311C340.4 253.766 340.4 247.398 335.992 244.853L255.247 198.236C253.203 197.054 250.679 197.054 248.635 198.236L136.564 262.934C132.156 265.479 132.156 271.846 136.564 274.391Z" fill="white"/>
<path d="M335.991 256.3L223.92 320.998C221.876 322.18 219.352 322.18 217.308 320.998L136.564 274.381C134.359 273.103 133.252 270.877 133.252 268.652V274.711C133.252 276.936 134.359 279.172 136.564 280.439L217.308 327.057C219.352 328.239 221.876 328.239 223.92 327.057L335.991 262.359C338.1 261.145 339.186 259.047 339.281 256.928V256.865C339.281 256.705 339.281 256.556 339.281 256.396V250.806C339.207 252.957 338.121 255.076 335.991 256.3ZM339.281 250.273C339.281 250.273 339.281 250.316 339.281 250.348V250.273Z" fill="url(#paint19_linear_1452_7805)"/>
<path d="M294.208 238.017L197.981 293.579C194.222 295.751 187.674 295.474 183.33 292.972L154.356 276.244C150.022 273.742 149.554 269.951 153.302 267.789L249.529 212.228C253.287 210.056 259.836 210.332 264.18 212.835L293.154 229.563C297.488 232.065 297.956 235.856 294.208 238.017Z" fill="#B8D0F6"/>
<path d="M153.314 269.121L249.54 213.56C253.299 211.387 259.848 211.664 264.192 214.167L293.166 230.895C295.231 232.087 296.403 233.567 296.679 235.026C297.063 233.173 295.86 231.118 293.166 229.553L264.192 212.825C259.858 210.323 253.299 210.046 249.54 212.218L153.314 267.78C151.344 268.919 150.556 270.495 150.854 272.103C151.088 270.985 151.898 269.931 153.314 269.111V269.121Z" fill="#99B6E0"/>
<path d="M230.978 237.633L225.878 234.683L220.777 237.633L225.878 240.583L230.978 237.633ZM220.948 243.426L215.847 240.476L210.747 243.426L215.847 246.375L220.948 243.426ZM241.009 231.84L235.908 228.891L230.808 231.84L235.908 234.79L241.009 231.84ZM270.152 234.928L280.779 228.795L275.679 225.846L265.052 231.979L270.152 234.928ZM272.154 223.812L267.054 220.862L261.953 223.812L267.054 226.761L272.154 223.812ZM251.039 226.048L245.939 223.098L240.838 226.048L245.939 228.997L251.039 226.048ZM210.917 249.218L205.817 246.269L200.716 249.218L205.817 252.168L210.917 249.218ZM263.306 232.99L175.363 283.76L180.464 286.71L268.406 235.94L263.306 232.99ZM200.887 255.011L195.786 252.061L190.686 255.011L195.786 257.96L200.887 255.011ZM259.281 225.356L166.738 278.788L171.839 281.737L264.381 228.305L259.281 225.356ZM284.293 230.818L183.978 288.733L189.078 291.683L289.393 233.768L284.293 230.818ZM180.826 266.596L175.725 263.646L170.625 266.596L175.725 269.545L180.826 266.596ZM190.856 260.803L185.756 257.854L180.655 260.803L185.756 263.753L190.856 260.803Z" fill="#99B6E0"/>
<path d="M230.978 236.75L225.878 233.801L220.777 236.75L225.878 239.7L230.978 236.75ZM220.948 242.543L215.847 239.593L210.747 242.543L215.847 245.492L220.948 242.543ZM241.009 230.958L235.908 228.008L230.808 230.958L235.908 233.907L241.009 230.958ZM270.152 234.046L280.779 227.912L275.679 224.963L265.052 231.096L270.152 234.046ZM272.154 222.929L267.054 219.979L261.953 222.929L267.054 225.879L272.154 222.929ZM251.039 225.165L245.939 222.216L240.838 225.165L245.939 228.115L251.039 225.165ZM210.917 248.335L205.817 245.386L200.716 248.335L205.817 251.285L210.917 248.335ZM263.306 232.097L175.363 282.867L180.464 285.817L268.406 235.036L263.306 232.086V232.097ZM200.887 254.128L195.786 251.178L190.686 254.128L195.786 257.077L200.887 254.128ZM259.281 224.473L166.738 277.905L171.839 280.855L264.381 227.422L259.281 224.473ZM284.293 229.935L183.978 287.85L189.078 290.8L289.393 232.885L284.293 229.935ZM180.826 265.702L175.725 262.753L170.625 265.702L175.725 268.652L180.826 265.702ZM190.856 259.92L185.756 256.971L180.655 259.92L185.756 262.87L190.856 259.92Z" fill="#E4F2FF"/>
<path d="M235.908 228.455L240.625 231.181L241.009 230.958L235.908 228.008L230.808 230.958L231.191 231.181L235.908 228.455ZM245.939 222.663L250.656 225.389L251.039 225.165L245.939 222.216L240.838 225.165L241.222 225.389L245.939 222.663ZM225.878 234.248L230.595 236.974L230.978 236.75L225.878 233.801L220.777 236.75L221.161 236.974L225.878 234.248ZM265.435 231.32L275.679 225.41L280.396 228.136L280.779 227.912L275.679 224.963L265.052 231.096L265.435 231.32ZM215.847 240.04L220.564 242.766L220.948 242.543L215.847 239.593L210.747 242.543L211.13 242.766L215.847 240.04ZM267.054 220.427L271.771 223.153L272.154 222.929L267.054 219.979L261.953 222.929L262.337 223.153L267.054 220.427ZM284.293 229.935L183.978 287.85L184.361 288.074L284.293 230.383L289.01 233.109L289.393 232.885L284.293 229.935ZM263.998 227.635L264.381 227.412L259.281 224.462L166.738 277.894L167.122 278.118L259.281 224.91L263.998 227.635ZM175.715 263.2L180.432 265.926L180.815 265.702L175.715 262.753L170.614 265.702L170.998 265.926L175.715 263.2ZM268.023 235.27L268.406 235.047L263.306 232.097L175.363 282.867L175.747 283.091L263.306 232.534L268.023 235.259V235.27ZM185.745 257.418L190.462 260.144L190.846 259.92L185.745 256.971L180.645 259.92L181.028 260.144L185.745 257.418ZM205.817 245.833L210.534 248.559L210.917 248.335L205.817 245.386L200.716 248.335L201.1 248.559L205.817 245.833ZM195.776 251.626L200.493 254.351L200.876 254.128L195.776 251.178L190.675 254.128L191.058 254.351L195.776 251.626Z" fill="white"/>
<path d="M286.339 270.643L256.354 287.957C254.491 289.032 251.211 288.894 249.06 287.659L242.469 283.857C240.318 282.611 240.084 280.727 241.947 279.651L271.932 262.337C273.796 261.262 277.075 261.4 279.226 262.636L285.817 266.437C287.968 267.683 288.202 269.567 286.339 270.643Z" fill="#B8D0F6"/>
<path d="M241.949 280.535L271.934 263.221C273.797 262.145 277.077 262.284 279.228 263.519L285.819 267.32C286.788 267.885 287.352 268.577 287.522 269.269C287.789 268.321 287.214 267.235 285.819 266.437L279.228 262.635C277.077 261.389 273.797 261.262 271.934 262.337L241.949 279.651C240.926 280.237 240.564 281.078 240.767 281.919C240.916 281.408 241.289 280.918 241.949 280.545V280.535Z" fill="#99B6E0"/>
<g style="mix-blend-mode:overlay">
<path d="M233.841 127.477V124.028C233.841 121.067 231.754 119.864 229.188 121.344L149.37 167.429C146.804 168.909 144.717 172.519 144.717 175.479V178.929L233.831 127.477H233.841Z" fill="white"/>
</g>
<g style="mix-blend-mode:overlay">
<path d="M152.947 169.771C152.947 170.964 152.106 172.412 151.073 173.008C150.04 173.604 149.199 173.125 149.199 171.933C149.199 170.74 150.04 169.292 151.073 168.696C152.106 168.099 152.947 168.579 152.947 169.771Z" fill="white"/>
<path d="M159.516 165.969C159.516 167.162 158.675 168.61 157.642 169.206C156.609 169.803 155.768 169.324 155.768 168.131C155.768 166.938 156.609 165.49 157.642 164.894C158.675 164.298 159.516 164.777 159.516 165.969Z" fill="white"/>
<path d="M166.1 162.179C166.1 163.372 165.258 164.82 164.226 165.416C163.193 166.013 162.352 165.534 162.352 164.341C162.352 163.148 163.193 161.7 164.226 161.104C165.258 160.508 166.1 160.987 166.1 162.179Z" fill="white"/>
</g>
<path d="M158.837 187.436L144.729 195.593V182.751L158.837 174.605V187.436Z" fill="#FFEC00"/>
<path d="M176.47 177.258L162.361 185.414V172.573L176.47 164.427V177.258Z" fill="#FF9100"/>
<path d="M194.104 167.09L179.984 175.235V162.394L194.104 154.248V167.09Z" fill="#9CE3F0"/>
<path d="M198.957 164.278L233.84 144.142V141.438L198.957 161.584V164.278Z" fill="url(#paint20_linear_1452_7805)"/>
<path d="M198.957 159.209L233.84 139.074V136.369L198.957 156.515V159.209Z" fill="url(#paint21_linear_1452_7805)"/>
<path d="M198.957 154.14L233.84 134.004V131.3L198.957 151.446V154.14Z" fill="url(#paint22_linear_1452_7805)"/>
<g style="mix-blend-mode:overlay">
<path d="M230.774 173.477L147.783 221.394C146.101 222.363 144.717 221.319 144.717 219.083V203.675C144.717 201.428 146.09 198.798 147.783 197.829L230.774 149.913C232.457 148.944 233.841 149.988 233.841 152.224V167.631C233.841 169.878 232.468 172.508 230.774 173.477Z" fill="white"/>
</g>
<path d="M181.152 198.67L170.312 204.931V191.546L181.152 185.285V198.67Z" fill="#FFEC00"/>
<path d="M194.71 190.843L183.859 197.104V185.827L194.71 179.566V190.843Z" fill="#9CE3F0"/>
<path d="M208.25 183.017L197.41 189.278V172.837L208.25 166.576V183.017Z" fill="#FF9100"/>
<path d="M227.803 170.155L230.71 168.472V165.778L227.803 167.461V170.155Z" fill="url(#paint23_linear_1452_7805)"/>
<path d="M227.803 165.085L230.71 163.403V160.709L227.803 162.391V165.085Z" fill="url(#paint24_linear_1452_7805)"/>
<path d="M227.803 160.018L230.71 158.336V155.642L227.803 157.324V160.018Z" fill="url(#paint25_linear_1452_7805)"/>
<path d="M211.322 179.675L226.4 170.964V168.271L211.322 176.97V179.675Z" fill="url(#paint26_linear_1452_7805)"/>
<path d="M211.322 174.605L226.4 165.895V163.201L211.322 171.901V174.605Z" fill="url(#paint27_linear_1452_7805)"/>
<path d="M211.322 169.537L226.4 160.827V158.133L211.322 166.832V169.537Z" fill="url(#paint28_linear_1452_7805)"/>
<path d="M150.871 201.738L147.953 203.421V206.125L150.871 204.443V201.738Z" fill="url(#paint29_linear_1452_7805)"/>
<path d="M150.871 206.806L147.953 208.488V211.193L150.871 209.51V206.806Z" fill="url(#paint30_linear_1452_7805)"/>
<path d="M150.871 211.874L147.953 213.556V216.25L150.871 214.568V211.874Z" fill="url(#paint31_linear_1452_7805)"/>
<path d="M167.344 192.229L152.277 200.928V203.622L167.344 194.922V192.229Z" fill="url(#paint32_linear_1452_7805)"/>
<path d="M167.344 197.287L152.277 205.997V208.691L167.344 199.992V197.287Z" fill="url(#paint33_linear_1452_7805)"/>
<path d="M167.344 202.355L152.277 211.066V213.76L167.344 205.06V202.355Z" fill="url(#paint34_linear_1452_7805)"/>
<g style="mix-blend-mode:overlay">
<path d="M227.899 188.236L151.999 232.052C150.423 232.957 149.135 231.988 149.135 229.891C149.135 227.793 150.423 225.333 151.999 224.418L227.899 180.601C229.474 179.696 230.763 180.665 230.763 182.762C230.763 184.86 229.474 187.32 227.899 188.236Z" fill="white"/>
</g>
<path d="M148.821 244.703L76.8186 286.273C74.5932 287.562 72.7617 286.177 72.7617 283.206V215.133C72.7617 212.163 74.5825 208.681 76.8186 207.392L148.821 165.822C151.046 164.534 152.878 165.918 152.878 168.889V236.962C152.878 239.933 151.057 243.415 148.821 244.703Z" fill="url(#paint35_linear_1452_7805)"/>
<g style="mix-blend-mode:overlay">
<path d="M146.608 237.719L79.0352 276.733V271.665L146.608 232.65V237.719Z" fill="url(#paint36_linear_1452_7805)"/>
<path d="M127.595 227.529C135.755 213.396 135.755 198.121 127.597 193.41C119.438 188.7 106.209 196.338 98.0496 210.471C89.89 224.604 89.8894 239.879 98.0482 244.59C106.207 249.3 119.436 241.662 127.595 227.529Z" fill="url(#paint37_linear_1452_7805)"/>
</g>
<path d="M296.665 140.341L224.662 181.911C222.437 183.2 220.605 181.815 220.605 178.845V125.743C220.605 122.772 222.426 119.29 224.662 118.002L296.665 76.4315C298.89 75.1431 300.722 76.5273 300.722 79.4982V132.6C300.722 135.571 298.901 139.053 296.665 140.341Z" fill="url(#paint38_linear_1452_7805)"/>
<g style="mix-blend-mode:overlay">
<path d="M294.45 131.375L226.877 170.39V165.321L294.45 126.307V131.375Z" fill="url(#paint39_linear_1452_7805)"/>
<path d="M294.45 120.993L226.877 160.008V154.939L294.45 115.925V120.993Z" fill="url(#paint40_linear_1452_7805)"/>
<path d="M246.394 136.624L228.25 147.102V126.147L246.394 115.669V136.624Z" fill="url(#paint41_linear_1452_7805)"/>
<path d="M269.734 123.144L251.59 133.622V112.666L269.734 102.188V123.144Z" fill="url(#paint42_linear_1452_7805)"/>
<path d="M293.087 109.663L274.932 120.141V99.1857L293.087 88.708V109.663Z" fill="url(#paint43_linear_1452_7805)"/>
</g>
<path d="M94.1304 372.681L55.4886 394.989C52.6669 396.618 47.7049 396.405 44.4465 394.531L7.39125 373.139C4.13294 371.265 3.78155 368.39 6.60329 366.761L45.2451 344.453C48.0669 342.824 53.0289 343.037 56.2872 344.911L93.3425 366.303C96.6008 368.177 96.9522 371.052 94.1304 372.681Z" fill="#E8F2FE"/>
<path d="M95.9835 440.766V370.436C95.8132 371.287 95.1956 372.075 94.1308 372.693L55.4889 395.001C54.1366 395.778 52.2838 396.129 50.3672 396.087V467.418C52.2838 467.461 54.1366 467.12 55.4889 466.332L94.1308 444.024C95.6002 443.173 96.1965 441.98 95.9835 440.777V440.766Z" fill="url(#paint44_linear_1452_7805)"/>
<path d="M44.4473 394.542L7.39205 373.15C5.83743 372.256 4.95364 371.138 4.75133 370.03V440.361C4.46383 441.756 5.36892 443.31 7.39205 444.482L44.4473 465.874C46.1404 466.853 48.2913 467.364 50.357 467.418V396.086C48.2806 396.033 46.1297 395.522 44.4473 394.542Z" fill="url(#paint45_linear_1452_7805)"/>
<path d="M56.696 376.995C64.2589 372.629 64.2592 358.47 56.6965 345.371C49.1338 332.272 36.8721 325.193 29.3092 329.56C21.7462 333.926 21.746 348.085 29.3087 361.184C36.8713 374.282 49.1331 381.362 56.696 376.995Z" fill="#007DC9"/>
<path d="M55.3338 374.634C62.143 370.703 62.1424 357.954 55.3325 346.159C48.5226 334.363 37.4821 327.989 30.6729 331.92C23.8637 335.851 23.8643 348.6 30.6742 360.395C37.4841 372.19 48.5246 378.565 55.3338 374.634Z" fill="#0084E9"/>
<path d="M53.0804 325.096C47.7032 321.998 42.8476 321.71 39.3338 323.765L29.3672 329.526C32.8704 327.535 37.6833 327.833 43.0074 330.91C53.7087 337.086 62.3762 352.1 62.3762 364.451C62.3762 370.595 60.2253 374.919 56.754 376.963L66.7206 371.202C70.2558 369.19 72.4493 364.845 72.4493 358.638C72.4493 346.286 63.7818 331.272 53.0804 325.096Z" fill="#52A3F6"/>
<path d="M38.1104 357.062C38.9303 357.094 39.7928 357.286 40.6872 357.584C40.7831 357.616 40.8683 357.648 40.9428 357.669C41.4752 357.861 41.965 358.063 42.572 358.382V353.516L37.3438 350.503C37.3757 352.718 37.6419 354.954 38.1104 357.073V357.062Z" fill="white"/>
<path d="M48.3655 348.704C48.472 348.704 48.5785 348.704 48.6849 348.704C48.7488 348.704 48.8234 348.704 48.8979 348.693C49.5261 348.64 50.1224 348.502 50.6761 348.289C49.3558 346.095 47.7905 344.168 46.0762 342.613C46.6192 343.582 47.1197 344.711 47.5563 345.978C47.865 346.851 48.1312 347.778 48.3655 348.715V348.704Z" fill="white"/>
<path d="M41.6255 339.643C40.6672 339.653 39.7727 340.313 39.0487 341.559C38.7931 341.996 38.5695 342.496 38.3672 343.039C39.1551 343.923 39.9857 344.732 40.8375 345.435C40.9121 345.499 40.9973 345.563 41.0824 345.637C41.5723 346.031 42.0514 346.383 42.5838 346.724V340.1C42.5093 340.058 42.5306 340.068 42.4986 340.058C42.2111 339.909 41.9236 339.77 41.6361 339.643H41.6255Z" fill="white"/>
<path d="M40.8258 358.585C39.974 358.308 39.1434 358.159 38.3555 358.127C38.5578 358.904 38.7814 359.66 39.0369 360.395C39.7717 362.493 40.6555 364.175 41.6244 365.304C41.9119 365.506 42.1994 365.708 42.4869 365.889C42.5189 365.911 42.4976 365.889 42.5721 365.943V359.32C42.0397 359.053 41.5712 358.851 41.0707 358.67C40.9855 358.638 40.911 358.617 40.8258 358.585Z" fill="white"/>
<path d="M40.6872 346.276C39.7928 345.541 38.9303 344.711 38.1104 343.795C37.6419 345.392 37.3757 347.351 37.3438 349.513L42.572 352.526V347.639C41.965 347.256 41.4752 346.894 40.9428 346.468C40.8683 346.404 40.7831 346.34 40.6872 346.265V346.276Z" fill="white"/>
<path d="M37.4823 343.07C37.3438 342.9 37.2054 342.729 37.067 342.559C36.9924 342.474 36.9179 342.378 36.8434 342.271C36.1938 341.43 35.5762 340.546 35.0119 339.609C33.0527 340.791 31.9346 343.145 31.8281 346.328L36.673 349.118C36.7049 346.776 36.9924 344.752 37.4929 343.059L37.4823 343.07Z" fill="white"/>
<path d="M37.7368 358.138C37.641 358.138 37.5452 358.148 37.4494 358.159C37.3748 358.159 37.3109 358.18 37.2364 358.18C36.6507 358.265 36.097 358.425 35.5859 358.659C36.8211 360.629 38.3012 362.439 39.9516 363.93C39.4086 362.961 38.9081 361.832 38.4716 360.565C38.1947 359.777 37.9498 358.968 37.7368 358.127V358.138Z" fill="white"/>
<path d="M37.067 357.093C37.2054 357.082 37.3438 357.061 37.4823 357.051C36.9818 354.804 36.7049 352.472 36.6624 350.087L31.8281 347.297C31.9453 350.694 33.1165 354.346 35.0012 357.657C35.5762 357.381 36.1938 357.21 36.8434 357.125C36.9179 357.114 36.9924 357.104 37.067 357.093Z" fill="white"/>
<path d="M37.4504 341.953C37.5463 342.07 37.6421 342.187 37.7379 342.304C37.9509 341.718 38.1958 341.186 38.4726 340.717C38.9199 339.961 39.4097 339.408 39.9527 339.067C38.3449 338.662 36.8648 338.747 35.5977 339.312C36.1088 340.132 36.6518 340.93 37.2375 341.676C37.312 341.771 37.3759 341.857 37.4504 341.953Z" fill="white"/>
<path d="M48.6094 363.228C48.7584 363.398 48.8969 363.579 49.0459 363.75C49.1311 363.846 49.2057 363.941 49.2802 364.027C49.983 364.889 50.6538 365.805 51.2714 366.774C53.0177 365.592 54.1038 363.398 54.2103 360.215L49.376 357.425C49.3441 359.682 49.0779 361.599 48.62 363.228H48.6094Z" fill="white"/>
<path d="M45.2125 348.075C46.0857 348.405 46.9269 348.608 47.7255 348.672C47.5125 347.799 47.2569 346.957 46.9801 346.148C46.2454 344.05 45.3509 342.368 44.3926 341.239C44.1051 341.037 43.807 340.835 43.5195 340.654C43.4875 340.632 43.4023 340.579 43.4023 340.579V347.223C43.9347 347.522 44.4459 347.767 44.9463 347.969C45.0315 348.001 45.1273 348.043 45.2019 348.075H45.2125Z" fill="white"/>
<path d="M48.685 364.388C48.5785 364.261 48.472 364.143 48.3655 364.016C48.1312 364.686 47.865 365.293 47.5563 365.815C47.109 366.571 46.6086 367.125 46.0762 367.466C47.8331 367.913 49.409 367.774 50.6868 367.125C50.1331 366.262 49.5368 365.432 48.8979 364.644C48.8234 364.548 48.7488 364.463 48.685 364.378V364.388Z" fill="white"/>
<path d="M49.2704 349.736C49.1959 349.736 49.1214 349.736 49.0362 349.747C48.8978 349.747 48.7487 349.747 48.5996 349.747C49.0575 351.919 49.3237 354.24 49.3556 356.455L54.2005 359.245C54.1047 356.125 53.0612 352.59 51.251 349.268C50.6334 349.523 49.9732 349.683 49.2704 349.725V349.736Z" fill="white"/>
<path d="M47.9597 349.715C47.1185 349.629 46.2241 349.417 45.319 349.065C45.2445 349.033 45.1593 349.001 45.0528 348.959C44.5097 348.735 43.9241 348.448 43.4023 348.149V353.016L48.6731 356.061C48.6412 353.942 48.3963 351.77 47.9597 349.715Z" fill="white"/>
<path d="M45.3296 360.139C46.2347 360.842 47.1185 361.63 47.9597 362.524C48.3856 360.98 48.6305 359.106 48.6731 357.03L43.4023 353.984V358.84C43.9347 359.159 44.5204 359.532 45.0528 359.937C45.1486 360.011 45.2551 360.075 45.3296 360.139Z" fill="white"/>
<path d="M47.7285 363.313C46.9192 362.451 46.078 361.674 45.2049 361.003C45.1304 360.939 45.0452 360.875 44.96 360.811C44.4595 360.428 43.9378 360.087 43.416 359.778V366.423C43.416 366.423 43.5012 366.465 43.5331 366.487C43.8206 366.636 44.1188 366.774 44.4063 366.902C45.3646 366.891 46.2591 366.242 46.9938 364.985C47.2706 364.495 47.5262 363.942 47.7391 363.313H47.7285Z" fill="white"/>
</g>
<defs>
<linearGradient id="paint0_linear_1452_7805" x1="63.8565" y1="49.503" x2="13.8851" y2="156.239" gradientUnits="userSpaceOnUse">
<stop stop-color="#E4F2FF"/>
<stop offset="0.2" stop-color="#DBEAFD" stop-opacity="0.78"/>
<stop offset="0.6" stop-color="#CBDBFB" stop-opacity="0.37"/>
<stop offset="0.87" stop-color="#C0D1FA" stop-opacity="0.1"/>
<stop offset="1" stop-color="#BDCEFA" stop-opacity="0"/>
</linearGradient>
<linearGradient id="paint1_linear_1452_7805" x1="97.8239" y1="48.6611" x2="135.795" y2="202.845" gradientUnits="userSpaceOnUse">
<stop stop-color="#E4F2FF"/>
<stop offset="0.2" stop-color="#DBEAFD" stop-opacity="0.78"/>
<stop offset="0.6" stop-color="#CBDBFB" stop-opacity="0.37"/>
<stop offset="0.87" stop-color="#C0D1FA" stop-opacity="0.1"/>
<stop offset="1" stop-color="#BDCEFA" stop-opacity="0"/>
</linearGradient>
<linearGradient id="paint2_linear_1452_7805" x1="188.385" y1="-26.7693" x2="186.692" y2="60.481" gradientUnits="userSpaceOnUse">
<stop stop-color="#E4F2FF"/>
<stop offset="0.2" stop-color="#DBEAFD" stop-opacity="0.78"/>
<stop offset="0.6" stop-color="#CBDBFB" stop-opacity="0.37"/>
<stop offset="0.87" stop-color="#C0D1FA" stop-opacity="0.1"/>
<stop offset="1" stop-color="#BDCEFA" stop-opacity="0"/>
</linearGradient>
<linearGradient id="paint3_linear_1452_7805" x1="64.9624" y1="152.161" x2="49.7144" y2="264.828" gradientUnits="userSpaceOnUse">
<stop stop-color="#E4F2FF"/>
<stop offset="0.2" stop-color="#DBEAFD" stop-opacity="0.78"/>
<stop offset="0.6" stop-color="#CBDBFB" stop-opacity="0.37"/>
<stop offset="0.87" stop-color="#C0D1FA" stop-opacity="0.1"/>
<stop offset="1" stop-color="#BDCEFA" stop-opacity="0"/>
</linearGradient>
<linearGradient id="paint4_linear_1452_7805" x1="411.262" y1="109.186" x2="335.661" y2="259.323" gradientUnits="userSpaceOnUse">
<stop stop-color="#E4F2FF"/>
<stop offset="0.06" stop-color="#E1EFFE"/>
<stop offset="0.65" stop-color="#C6D7FB"/>
<stop offset="1" stop-color="#BDCEFA"/>
</linearGradient>
<linearGradient id="paint5_linear_1452_7805" x1="427.203" y1="34.6814" x2="305.102" y2="216.412" gradientUnits="userSpaceOnUse">
<stop stop-color="#E4F2FF"/>
<stop offset="0.06" stop-color="#E1EFFE"/>
<stop offset="0.65" stop-color="#C6D7FB"/>
<stop offset="1" stop-color="#BDCEFA"/>
</linearGradient>
<linearGradient id="paint6_linear_1452_7805" x1="269.588" y1="585.456" x2="269.588" y2="402.799" gradientUnits="userSpaceOnUse">
<stop stop-color="#DEEBFE"/>
<stop offset="0.6" stop-color="#C6D6FB"/>
<stop offset="1" stop-color="#BDCEFA"/>
</linearGradient>
<linearGradient id="paint7_linear_1452_7805" x1="399.656" y1="332.028" x2="238.455" y2="456.355" gradientUnits="userSpaceOnUse">
<stop stop-color="#E4F2FF"/>
<stop offset="0.06" stop-color="#E1EFFE"/>
<stop offset="0.65" stop-color="#C6D7FB"/>
<stop offset="1" stop-color="#BDCEFA"/>
</linearGradient>
<linearGradient id="paint8_linear_1452_7805" x1="351.92" y1="330.995" x2="294.814" y2="382.745" gradientUnits="userSpaceOnUse">
<stop stop-color="#E4F2FF"/>
<stop offset="0.06" stop-color="#E1EFFE"/>
<stop offset="0.65" stop-color="#C6D7FB"/>
<stop offset="1" stop-color="#BDCEFA"/>
</linearGradient>
<linearGradient id="paint9_linear_1452_7805" x1="425.23" y1="381" x2="274.006" y2="487.747" gradientUnits="userSpaceOnUse">
<stop stop-color="#E4F2FF"/>
<stop offset="0.06" stop-color="#E1EFFE"/>
<stop offset="0.65" stop-color="#C6D7FB"/>
<stop offset="1" stop-color="#BDCEFA"/>
</linearGradient>
<linearGradient id="paint10_linear_1452_7805" x1="401.08" y1="375.101" x2="329.919" y2="420.1" gradientUnits="userSpaceOnUse">
<stop stop-color="#E4F2FF"/>
<stop offset="0.06" stop-color="#E1EFFE"/>
<stop offset="0.65" stop-color="#C6D7FB"/>
<stop offset="1" stop-color="#BDCEFA"/>
</linearGradient>
<linearGradient id="paint11_linear_1452_7805" x1="440.99" y1="229.169" x2="171.424" y2="436.721" gradientUnits="userSpaceOnUse">
<stop stop-color="#E4F2FF"/>
<stop offset="0.06" stop-color="#E1EFFE"/>
<stop offset="0.65" stop-color="#C6D7FB"/>
<stop offset="1" stop-color="#BDCEFA"/>
</linearGradient>
<linearGradient id="paint12_linear_1452_7805" x1="285.943" y1="379.637" x2="179.111" y2="364.538" gradientUnits="userSpaceOnUse">
<stop stop-color="#E4F2FF"/>
<stop offset="0.06" stop-color="#E1EFFE"/>
<stop offset="0.65" stop-color="#C6D7FB"/>
<stop offset="1" stop-color="#BDCEFA"/>
</linearGradient>
<linearGradient id="paint13_linear_1452_7805" x1="215.765" y1="338.309" x2="84.2608" y2="468.216" gradientUnits="userSpaceOnUse">
<stop stop-color="#E4F2FF"/>
<stop offset="0.06" stop-color="#E1EFFE"/>
<stop offset="0.65" stop-color="#C6D7FB"/>
<stop offset="1" stop-color="#BDCEFA"/>
</linearGradient>
<linearGradient id="paint14_linear_1452_7805" x1="282.057" y1="386.481" x2="84.003" y2="328.981" gradientUnits="userSpaceOnUse">
<stop stop-color="#E4F2FF"/>
<stop offset="0.06" stop-color="#E1EFFE"/>
<stop offset="0.65" stop-color="#C6D7FB"/>
<stop offset="1" stop-color="#BDCEFA"/>
</linearGradient>
<linearGradient id="paint15_linear_1452_7805" x1="428.106" y1="254.119" x2="347.713" y2="256.781" gradientUnits="userSpaceOnUse">
<stop stop-color="#E4F2FF"/>
<stop offset="0.06" stop-color="#E1EFFE"/>
<stop offset="0.65" stop-color="#C6D7FB"/>
<stop offset="1" stop-color="#BDCEFA"/>
</linearGradient>
<linearGradient id="paint16_linear_1452_7805" x1="340.402" y1="218.84" x2="278.111" y2="183.435" gradientUnits="userSpaceOnUse">
<stop stop-color="#E4F2FF"/>
<stop offset="0.06" stop-color="#E1EFFE"/>
<stop offset="0.65" stop-color="#C6D7FB"/>
<stop offset="1" stop-color="#BDCEFA"/>
</linearGradient>
<linearGradient id="paint17_linear_1452_7805" x1="92.0857" y1="337.097" x2="274.008" y2="39.7604" gradientUnits="userSpaceOnUse">
<stop stop-color="#0F123B"/>
<stop offset="0.07" stop-color="#131653"/>
<stop offset="0.21" stop-color="#1B1E79"/>
<stop offset="0.35" stop-color="#212499"/>
<stop offset="0.49" stop-color="#2629B1"/>
<stop offset="0.64" stop-color="#292DC3"/>
<stop offset="0.81" stop-color="#2B2FCD"/>
<stop offset="1" stop-color="#2C30D1"/>
</linearGradient>
<linearGradient id="paint18_linear_1452_7805" x1="236.165" y1="79.6378" x2="111.05" y2="228.711" gradientUnits="userSpaceOnUse">
<stop stop-color="#E4F2FF"/>
<stop offset="0.06" stop-color="#E1EFFE"/>
<stop offset="0.65" stop-color="#C6D7FB"/>
<stop offset="1" stop-color="#BDCEFA"/>
</linearGradient>
<linearGradient id="paint19_linear_1452_7805" x1="370.896" y1="272.89" x2="178.208" y2="298.168" gradientUnits="userSpaceOnUse">
<stop stop-color="#E4F2FF"/>
<stop offset="0.06" stop-color="#E1EFFE"/>
<stop offset="0.65" stop-color="#C6D7FB"/>
<stop offset="1" stop-color="#BDCEFA"/>
</linearGradient>
<linearGradient id="paint20_linear_1452_7805" x1="198.957" y1="152.863" x2="233.84" y2="152.863" gradientUnits="userSpaceOnUse">
<stop stop-color="#FCFDFF" stop-opacity="0"/>
<stop offset="0.12" stop-color="#FCFAD7" stop-opacity="0.16"/>
<stop offset="0.37" stop-color="#FDF58B" stop-opacity="0.45"/>
<stop offset="0.59" stop-color="#FEF14F" stop-opacity="0.69"/>
<stop offset="0.77" stop-color="#FEEE24" stop-opacity="0.86"/>
<stop offset="0.91" stop-color="#FEEC09" stop-opacity="0.96"/>
<stop offset="1" stop-color="#FFEC00"/>
</linearGradient>
<linearGradient id="paint21_linear_1452_7805" x1="-0.00216423" y1="147.795" x2="1.06264" y2="147.795" gradientUnits="userSpaceOnUse">
<stop stop-color="#FCFDFF" stop-opacity="0"/>
<stop offset="0.12" stop-color="#FCFAD7" stop-opacity="0.16"/>
<stop offset="0.37" stop-color="#FDF58B" stop-opacity="0.45"/>
<stop offset="0.59" stop-color="#FEF14F" stop-opacity="0.69"/>
<stop offset="0.77" stop-color="#FEEE24" stop-opacity="0.86"/>
<stop offset="0.91" stop-color="#FEEC09" stop-opacity="0.96"/>
<stop offset="1" stop-color="#FFEC00"/>
</linearGradient>
<linearGradient id="paint22_linear_1452_7805" x1="-0.00216423" y1="142.725" x2="1.06264" y2="142.725" gradientUnits="userSpaceOnUse">
<stop stop-color="#FCFDFF" stop-opacity="0"/>
<stop offset="0.12" stop-color="#FCFAD7" stop-opacity="0.16"/>
<stop offset="0.37" stop-color="#FDF58B" stop-opacity="0.45"/>
<stop offset="0.59" stop-color="#FEF14F" stop-opacity="0.69"/>
<stop offset="0.77" stop-color="#FEEE24" stop-opacity="0.86"/>
<stop offset="0.91" stop-color="#FEEC09" stop-opacity="0.96"/>
<stop offset="1" stop-color="#FFEC00"/>
</linearGradient>
<linearGradient id="paint23_linear_1452_7805" x1="210.095" y1="179.749" x2="236.641" y2="163.425" gradientUnits="userSpaceOnUse">
<stop stop-color="#FCFDFF" stop-opacity="0"/>
<stop offset="0.12" stop-color="#FCDBE6" stop-opacity="0.16"/>
<stop offset="0.37" stop-color="#FD9CB8" stop-opacity="0.45"/>
<stop offset="0.59" stop-color="#FE6993" stop-opacity="0.69"/>
<stop offset="0.77" stop-color="#FE4579" stop-opacity="0.86"/>
<stop offset="0.91" stop-color="#FE2F69" stop-opacity="0.96"/>
<stop offset="1" stop-color="#FF2763"/>
</linearGradient>
<linearGradient id="paint24_linear_1452_7805" x1="207.827" y1="176.064" x2="234.383" y2="159.751" gradientUnits="userSpaceOnUse">
<stop stop-color="#FCFDFF" stop-opacity="0"/>
<stop offset="0.12" stop-color="#FCDBE6" stop-opacity="0.16"/>
<stop offset="0.37" stop-color="#FD9CB8" stop-opacity="0.45"/>
<stop offset="0.59" stop-color="#FE6993" stop-opacity="0.69"/>
<stop offset="0.77" stop-color="#FE4579" stop-opacity="0.86"/>
<stop offset="0.91" stop-color="#FE2F69" stop-opacity="0.96"/>
<stop offset="1" stop-color="#FF2763"/>
</linearGradient>
<linearGradient id="paint25_linear_1452_7805" x1="205.57" y1="172.391" x2="232.115" y2="156.068" gradientUnits="userSpaceOnUse">
<stop stop-color="#FCFDFF" stop-opacity="0"/>
<stop offset="0.12" stop-color="#FCDBE6" stop-opacity="0.16"/>
<stop offset="0.37" stop-color="#FD9CB8" stop-opacity="0.45"/>
<stop offset="0.59" stop-color="#FE6993" stop-opacity="0.69"/>
<stop offset="0.77" stop-color="#FE4579" stop-opacity="0.86"/>
<stop offset="0.91" stop-color="#FE2F69" stop-opacity="0.96"/>
<stop offset="1" stop-color="#FF2763"/>
</linearGradient>
<linearGradient id="paint26_linear_1452_7805" x1="209.917" y1="179.462" x2="236.473" y2="163.149" gradientUnits="userSpaceOnUse">
<stop stop-color="#FCFDFF" stop-opacity="0"/>
<stop offset="0.12" stop-color="#FCDBE6" stop-opacity="0.16"/>
<stop offset="0.37" stop-color="#FD9CB8" stop-opacity="0.45"/>
<stop offset="0.59" stop-color="#FE6993" stop-opacity="0.69"/>
<stop offset="0.77" stop-color="#FE4579" stop-opacity="0.86"/>
<stop offset="0.91" stop-color="#FE2F69" stop-opacity="0.96"/>
<stop offset="1" stop-color="#FF2763"/>
</linearGradient>
<linearGradient id="paint27_linear_1452_7805" x1="207.659" y1="175.787" x2="234.205" y2="159.464" gradientUnits="userSpaceOnUse">
<stop stop-color="#FCFDFF" stop-opacity="0"/>
<stop offset="0.12" stop-color="#FCDBE6" stop-opacity="0.16"/>
<stop offset="0.37" stop-color="#FD9CB8" stop-opacity="0.45"/>
<stop offset="0.59" stop-color="#FE6993" stop-opacity="0.69"/>
<stop offset="0.77" stop-color="#FE4579" stop-opacity="0.86"/>
<stop offset="0.91" stop-color="#FE2F69" stop-opacity="0.96"/>
<stop offset="1" stop-color="#FF2763"/>
</linearGradient>
<linearGradient id="paint28_linear_1452_7805" x1="205.402" y1="172.103" x2="231.948" y2="155.79" gradientUnits="userSpaceOnUse">
<stop stop-color="#FCFDFF" stop-opacity="0"/>
<stop offset="0.12" stop-color="#FCDBE6" stop-opacity="0.16"/>
<stop offset="0.37" stop-color="#FD9CB8" stop-opacity="0.45"/>
<stop offset="0.59" stop-color="#FE6993" stop-opacity="0.69"/>
<stop offset="0.77" stop-color="#FE4579" stop-opacity="0.86"/>
<stop offset="0.91" stop-color="#FE2F69" stop-opacity="0.96"/>
<stop offset="1" stop-color="#FF2763"/>
</linearGradient>
<linearGradient id="paint29_linear_1452_7805" x1="170.293" y1="189.77" x2="140.265" y2="210.129" gradientUnits="userSpaceOnUse">
<stop stop-color="#FCFDFF" stop-opacity="0"/>
<stop offset="0.12" stop-color="#FCFAD7" stop-opacity="0.16"/>
<stop offset="0.37" stop-color="#FDF58B" stop-opacity="0.45"/>
<stop offset="0.59" stop-color="#FEF14F" stop-opacity="0.69"/>
<stop offset="0.77" stop-color="#FEEE24" stop-opacity="0.86"/>
<stop offset="0.91" stop-color="#FEEC09" stop-opacity="0.96"/>
<stop offset="1" stop-color="#FFEC00"/>
</linearGradient>
<linearGradient id="paint30_linear_1452_7805" x1="172.646" y1="193.251" x2="142.618" y2="213.599" gradientUnits="userSpaceOnUse">
<stop stop-color="#FCFDFF" stop-opacity="0"/>
<stop offset="0.12" stop-color="#FCFAD7" stop-opacity="0.16"/>
<stop offset="0.37" stop-color="#FDF58B" stop-opacity="0.45"/>
<stop offset="0.59" stop-color="#FEF14F" stop-opacity="0.69"/>
<stop offset="0.77" stop-color="#FEEE24" stop-opacity="0.86"/>
<stop offset="0.91" stop-color="#FEEC09" stop-opacity="0.96"/>
<stop offset="1" stop-color="#FFEC00"/>
</linearGradient>
<linearGradient id="paint31_linear_1452_7805" x1="174.999" y1="196.722" x2="144.972" y2="217.081" gradientUnits="userSpaceOnUse">
<stop stop-color="#FCFDFF" stop-opacity="0"/>
<stop offset="0.12" stop-color="#FCFAD7" stop-opacity="0.16"/>
<stop offset="0.37" stop-color="#FDF58B" stop-opacity="0.45"/>
<stop offset="0.59" stop-color="#FEF14F" stop-opacity="0.69"/>
<stop offset="0.77" stop-color="#FEEE24" stop-opacity="0.86"/>
<stop offset="0.91" stop-color="#FEEC09" stop-opacity="0.96"/>
<stop offset="1" stop-color="#FFEC00"/>
</linearGradient>
<linearGradient id="paint32_linear_1452_7805" x1="170.773" y1="190.493" x2="140.745" y2="210.852" gradientUnits="userSpaceOnUse">
<stop stop-color="#FCFDFF" stop-opacity="0"/>
<stop offset="0.12" stop-color="#FCFAD7" stop-opacity="0.16"/>
<stop offset="0.37" stop-color="#FDF58B" stop-opacity="0.45"/>
<stop offset="0.59" stop-color="#FEF14F" stop-opacity="0.69"/>
<stop offset="0.77" stop-color="#FEEE24" stop-opacity="0.86"/>
<stop offset="0.91" stop-color="#FEEC09" stop-opacity="0.96"/>
<stop offset="1" stop-color="#FFEC00"/>
</linearGradient>
<linearGradient id="paint33_linear_1452_7805" x1="173.126" y1="193.965" x2="143.099" y2="214.324" gradientUnits="userSpaceOnUse">
<stop stop-color="#FCFDFF" stop-opacity="0"/>
<stop offset="0.12" stop-color="#FCFAD7" stop-opacity="0.16"/>
<stop offset="0.37" stop-color="#FDF58B" stop-opacity="0.45"/>
<stop offset="0.59" stop-color="#FEF14F" stop-opacity="0.69"/>
<stop offset="0.77" stop-color="#FEEE24" stop-opacity="0.86"/>
<stop offset="0.91" stop-color="#FEEC09" stop-opacity="0.96"/>
<stop offset="1" stop-color="#FFEC00"/>
</linearGradient>
<linearGradient id="paint34_linear_1452_7805" x1="175.49" y1="197.436" x2="145.452" y2="217.795" gradientUnits="userSpaceOnUse">
<stop stop-color="#FCFDFF" stop-opacity="0"/>
<stop offset="0.12" stop-color="#FCFAD7" stop-opacity="0.16"/>
<stop offset="0.37" stop-color="#FDF58B" stop-opacity="0.45"/>
<stop offset="0.59" stop-color="#FEF14F" stop-opacity="0.69"/>
<stop offset="0.77" stop-color="#FEEE24" stop-opacity="0.86"/>
<stop offset="0.91" stop-color="#FEEC09" stop-opacity="0.96"/>
<stop offset="1" stop-color="#FFEC00"/>
</linearGradient>
<linearGradient id="paint35_linear_1452_7805" x1="155.976" y1="150.148" x2="74.9552" y2="292.651" gradientUnits="userSpaceOnUse">
<stop stop-color="#E4F2FF"/>
<stop offset="0.2" stop-color="#DBEAFD" stop-opacity="0.78"/>
<stop offset="0.6" stop-color="#CBDBFB" stop-opacity="0.37"/>
<stop offset="0.87" stop-color="#C0D1FA" stop-opacity="0.1"/>
<stop offset="1" stop-color="#BDCEFA" stop-opacity="0"/>
</linearGradient>
<linearGradient id="paint36_linear_1452_7805" x1="162.229" y1="169.901" x2="104.878" y2="268.321" gradientUnits="userSpaceOnUse">
<stop stop-color="#E4F2FF"/>
<stop offset="0.06" stop-color="#E1EFFE"/>
<stop offset="0.65" stop-color="#C6D7FB"/>
<stop offset="1" stop-color="#BDCEFA"/>
</linearGradient>
<linearGradient id="paint37_linear_1452_7805" x1="146.705" y1="160.862" x2="89.3542" y2="259.272" gradientUnits="userSpaceOnUse">
<stop stop-color="#E4F2FF"/>
<stop offset="0.06" stop-color="#E1EFFE"/>
<stop offset="0.65" stop-color="#C6D7FB"/>
<stop offset="1" stop-color="#BDCEFA"/>
</linearGradient>
<linearGradient id="paint38_linear_1452_7805" x1="298.198" y1="51.0784" x2="232.404" y2="187.981" gradientUnits="userSpaceOnUse">
<stop stop-color="#E4F2FF"/>
<stop offset="0.2" stop-color="#DBEAFD" stop-opacity="0.78"/>
<stop offset="0.6" stop-color="#CBDBFB" stop-opacity="0.37"/>
<stop offset="0.87" stop-color="#C0D1FA" stop-opacity="0.1"/>
<stop offset="1" stop-color="#BDCEFA" stop-opacity="0"/>
</linearGradient>
<linearGradient id="paint39_linear_1452_7805" x1="311.359" y1="103.584" x2="223.619" y2="181.07" gradientUnits="userSpaceOnUse">
<stop stop-color="#E4F2FF"/>
<stop offset="0.06" stop-color="#E1EFFE"/>
<stop offset="0.65" stop-color="#C6D7FB"/>
<stop offset="1" stop-color="#BDCEFA"/>
</linearGradient>
<linearGradient id="paint40_linear_1452_7805" x1="306.205" y1="97.7592" x2="218.465" y2="175.235" gradientUnits="userSpaceOnUse">
<stop stop-color="#E4F2FF"/>
<stop offset="0.06" stop-color="#E1EFFE"/>
<stop offset="0.65" stop-color="#C6D7FB"/>
<stop offset="1" stop-color="#BDCEFA"/>
</linearGradient>
<linearGradient id="paint41_linear_1452_7805" x1="292.713" y1="82.4683" x2="204.973" y2="159.954" gradientUnits="userSpaceOnUse">
<stop stop-color="#E4F2FF"/>
<stop offset="0.06" stop-color="#E1EFFE"/>
<stop offset="0.65" stop-color="#C6D7FB"/>
<stop offset="1" stop-color="#BDCEFA"/>
</linearGradient>
<linearGradient id="paint42_linear_1452_7805" x1="296.259" y1="86.4826" x2="208.508" y2="163.958" gradientUnits="userSpaceOnUse">
<stop stop-color="#E4F2FF"/>
<stop offset="0.06" stop-color="#E1EFFE"/>
<stop offset="0.65" stop-color="#C6D7FB"/>
<stop offset="1" stop-color="#BDCEFA"/>
</linearGradient>
<linearGradient id="paint43_linear_1452_7805" x1="299.795" y1="90.4862" x2="212.044" y2="167.972" gradientUnits="userSpaceOnUse">
<stop stop-color="#E4F2FF"/>
<stop offset="0.06" stop-color="#E1EFFE"/>
<stop offset="0.65" stop-color="#C6D7FB"/>
<stop offset="1" stop-color="#BDCEFA"/>
</linearGradient>
<linearGradient id="paint44_linear_1452_7805" x1="98.1664" y1="368.625" x2="9.36147" y2="547.651" gradientUnits="userSpaceOnUse">
<stop stop-color="#E4F2FF"/>
<stop offset="0.06" stop-color="#E1EFFE"/>
<stop offset="0.65" stop-color="#C6D7FB"/>
<stop offset="1" stop-color="#BDCEFA"/>
</linearGradient>
<linearGradient id="paint45_linear_1452_7805" x1="87.3697" y1="333.976" x2="6.9129" y2="447.953" gradientUnits="userSpaceOnUse">
<stop stop-color="#E4F2FF"/>
<stop offset="0.06" stop-color="#E1EFFE"/>
<stop offset="0.65" stop-color="#C6D7FB"/>
<stop offset="1" stop-color="#BDCEFA"/>
</linearGradient>
<clipPath id="clip0_1452_7805">
<rect width="429.234" height="526.089" fill="white"/>
</clipPath>
</defs>
</svg>
