<svg width="649" height="549" viewBox="0 0 649 549" fill="none" xmlns="http://www.w3.org/2000/svg">
<g style="mix-blend-mode:luminosity" clip-path="url(#clip0_1452_8346)">
<path style="mix-blend-mode:screen" opacity="0.44" d="M544.096 261.188C570.754 198.445 541.502 125.971 478.759 99.3121C416.016 72.6534 343.542 101.906 316.883 164.649C290.224 227.392 319.477 299.866 382.22 326.525C444.963 353.183 517.437 323.931 544.096 261.188Z" fill="url(#paint0_linear_1452_8346)"/>
<path style="mix-blend-mode:screen" opacity="0.44" d="M257.755 392.141C279.183 327.424 244.091 257.591 179.375 236.163C114.658 214.735 44.8244 249.827 23.3964 314.543C1.96846 379.26 37.0607 449.093 101.777 470.521C166.494 491.949 236.327 456.857 257.755 392.141Z" fill="url(#paint1_linear_1452_8346)"/>
<path style="mix-blend-mode:screen" opacity="0.44" d="M645.603 438.773C661.506 372.482 620.658 305.851 554.367 289.948C488.076 274.045 421.445 314.893 405.543 381.184C389.64 447.475 430.487 514.106 496.778 530.008C563.069 545.911 629.7 505.064 645.603 438.773Z" fill="url(#paint2_linear_1452_8346)"/>
<path d="M502.037 214.425C502.037 214.425 495.946 201.157 481.033 200.597C466.085 200.037 468.85 216.63 458.908 224.367C448.966 232.103 435.664 224.367 428.487 238.195C421.311 252.023 426.842 260.319 415.219 273.062C403.597 285.77 413.014 310.695 430.692 316.226C448.406 321.757 470.531 319.552 477.707 297.427C484.884 275.302 481.033 258.149 488.77 250.412C496.506 242.676 510.894 231.613 502.037 214.46V214.425Z" fill="#6B40EA"/>
<path d="M424.637 350.92H318.18V547.591H424.637V350.92Z" fill="url(#paint3_linear_1452_8346)"/>
<path d="M424.636 547.59H540.195V350.919H424.636V547.59Z" fill="url(#paint4_linear_1452_8346)"/>
<path d="M493.497 255.278C493.497 255.278 492.622 281.394 498.853 292.526C505.085 303.693 539.217 317.276 539.217 317.276C539.217 317.276 538.342 321.722 533.861 323.507C533.861 323.507 525.844 324.838 523.148 322.177L518.703 317.731C518.703 317.731 495.073 310.135 488.351 302.993C481.665 295.852 480.055 262.56 479.879 256.608C479.669 249.257 492.587 248.137 493.497 255.278Z" fill="#F9FBFC"/>
<path d="M485.48 249.256C485.48 249.256 496.193 248.591 496.193 259.618C496.193 270.646 497.208 289.409 504.209 294.766C511.246 300.122 524.969 310.169 524.969 310.169L517.932 319.201C517.932 319.201 490.486 307.823 485.13 302.817C479.774 297.811 476.448 262.349 477.429 256.993C478.444 251.637 480.789 247.961 485.445 249.291L485.48 249.256Z" fill="url(#paint5_linear_1452_8346)"/>
<path style="mix-blend-mode:multiply" opacity="0.27" d="M534.174 351.652L534.559 393.906C534.559 393.906 545.726 438.96 549.297 440.746C552.867 442.531 556.893 446.102 553.323 448.762C549.752 451.423 501.127 452.788 495.771 436.265C490.694 420.652 484.043 362.504 475.816 351.617H534.209L534.174 351.652Z" fill="url(#paint6_linear_1452_8346)"/>
<path d="M557.692 404.166C557.692 404.166 560.002 409.172 561.088 411.378C562.173 413.548 573.095 417.294 573.515 421.32C572.885 425.17 554.681 420.759 552.091 417.854C549.5 414.948 548.625 406.582 548.625 406.582L557.727 404.201L557.692 404.166Z" fill="#F9FBFC"/>
<path d="M480.188 320.463C480.188 320.463 522.582 311.641 533.399 323.404C544.182 335.166 558.92 399.614 558.92 399.614C558.92 399.614 555.279 406.546 544.742 402.135L521.252 349.799C519.957 346.648 516.561 344.898 513.27 345.738C500.843 348.854 471.857 355.05 466.01 347.314C461.494 341.327 460.304 336.461 459.499 330.44C459.009 326.729 461.599 323.334 465.31 322.773L480.258 320.463H480.188Z" fill="url(#paint7_linear_1452_8346)"/>
<path d="M560.532 396.779C560.532 396.779 549.645 397.199 542.889 402.17L545.339 409.837C545.339 409.837 552.761 407.806 561.688 404.726L560.532 396.744V396.779Z" fill="#FBB03B"/>
<path d="M522.063 417.222C522.063 417.222 523.393 422.578 524.058 424.923C524.723 427.269 534.77 432.94 534.42 436.966C533.09 440.642 516.006 432.94 514.011 429.614C512.016 426.254 512.681 417.887 512.681 417.887L522.063 417.222Z" fill="#F9FBFC"/>
<path d="M461.253 320.706C461.253 320.706 504.557 319.831 512.994 333.378C521.431 346.926 524.057 412.985 524.057 412.985C524.057 412.985 519.191 419.146 509.669 412.845L496.226 357.078C495.526 353.718 492.515 351.407 489.119 351.617C476.307 352.387 446.69 353.158 442.385 344.476C439.059 337.754 438.779 332.748 439.059 326.692C439.234 322.946 442.42 320.111 446.165 320.216L461.253 320.671V320.706Z" fill="url(#paint8_linear_1452_8346)"/>
<path d="M526.229 410.501C526.229 410.501 515.446 408.926 507.885 412.567L508.865 420.548C508.865 420.548 516.532 419.918 525.879 418.518L526.229 410.466V410.501Z" fill="#FBB03B"/>
<path d="M450.435 250.938C450.435 250.938 437.272 275.268 439.513 322.983C441.753 328.794 463.142 327.429 472.98 323.858C482.782 320.288 494.404 322.073 497.52 321.198C500.635 320.323 486.597 287.521 494.159 258.535C494.159 258.535 495.034 252.724 490.588 249.153C486.142 245.582 457.576 239.351 450.435 250.938Z" fill="url(#paint9_linear_1452_8346)"/>
<path d="M483.9 246.913L482.57 253.6C482.57 253.6 479.209 257.625 471.543 253.6C464.506 249.259 465.522 244.218 465.522 244.218L472.873 232.49L483.9 246.878V246.913Z" fill="#F9FBFC"/>
<path d="M470.463 236.129L472.843 232.523L483.871 246.911L482.54 253.598C482.54 253.598 482.435 253.703 482.26 253.878C472.913 250.657 471.268 241.345 470.428 236.164L470.463 236.129Z" fill="url(#paint10_linear_1452_8346)"/>
<path d="M496.994 223.842C496.994 223.842 494.158 242.536 486.422 249.573C478.685 255.209 473.014 242.186 470.563 234.764C468.113 227.378 468.113 215.02 477.95 210.084C487.822 205.148 498.394 213.27 496.994 223.842Z" fill="#F9FBFC"/>
<path d="M462.06 255.278C462.06 255.278 461.185 281.394 467.416 292.526C473.647 303.693 507.779 317.276 507.779 317.276C507.779 317.276 506.904 321.722 502.423 323.507C502.423 323.507 494.407 324.838 491.711 322.177C489.05 319.517 487.265 317.731 487.265 317.731C487.265 317.731 463.635 310.135 456.914 302.993C450.227 295.852 448.617 262.56 448.442 256.608C448.232 249.257 461.15 248.137 462.06 255.278Z" fill="#F9FBFC"/>
<path d="M454.004 249.256C454.004 249.256 464.716 248.591 464.716 259.618C464.716 270.646 465.731 289.409 472.733 294.766C479.769 300.122 493.492 310.169 493.492 310.169L486.455 319.201C486.455 319.201 459.01 307.823 453.654 302.817C448.298 297.811 444.937 262.349 445.952 256.993C446.967 251.637 449.313 247.961 453.969 249.291L454.004 249.256Z" fill="url(#paint11_linear_1452_8346)"/>
<path style="mix-blend-mode:screen" d="M551.398 300.229L525.983 257.415C525.983 257.415 476.027 257.87 461.289 293.543L459.959 327.885L495.631 329.215L551.398 300.229Z" fill="url(#paint12_linear_1452_8346)"/>
<path d="M472.488 330.228L522.899 329.353C523.634 329.353 524.194 328.758 524.194 328.023C524.194 327.288 523.599 326.728 522.864 326.728L472.454 327.603C471.718 327.603 471.158 328.198 471.158 328.933C471.158 329.668 471.753 330.228 472.488 330.228Z" fill="url(#paint13_linear_1452_8346)"/>
<path d="M488.206 328.304L501.964 299.598C502.139 299.213 502.559 298.968 502.979 298.933L548.908 298.128C549.749 298.128 550.344 299.003 549.959 299.773L536.236 328.479C536.061 328.864 535.641 329.144 535.221 329.144L489.291 329.95C488.451 329.95 487.856 329.074 488.241 328.304H488.206Z" fill="url(#paint14_linear_1452_8346)"/>
<path d="M490.551 328.27L504.309 299.564C504.484 299.179 504.904 298.899 505.324 298.899L551.254 298.094C552.094 298.094 552.689 298.969 552.304 299.739L538.546 328.445C538.371 328.83 537.951 329.075 537.531 329.11L491.602 329.915C490.761 329.915 490.166 329.04 490.551 328.27Z" fill="url(#paint15_linear_1452_8346)"/>
<path d="M498.885 217.19C498.885 217.19 498.15 227.867 487.823 229.722C477.496 231.578 476.025 242.255 464.228 241.17C452.431 240.05 473.085 209.103 473.085 209.103L487.088 203.957L498.885 217.225V217.19Z" fill="#6B40EA"/>
<path d="M230.377 82.5162H229.292C229.152 65.9577 215.674 52.585 199.116 52.585C188.123 52.585 178.496 58.4662 173.21 67.253C171.81 66.9729 170.375 66.8329 168.904 66.8329C158.892 66.8329 150.421 73.4143 147.62 82.5162H145.835C134.247 82.5162 124.865 91.8981 124.865 103.486C124.865 115.073 134.247 124.455 145.835 124.455H230.377C241.965 124.455 251.347 115.073 251.347 103.486C251.347 91.8981 241.965 82.5162 230.377 82.5162Z" fill="url(#paint16_linear_1452_8346)"/>
<path d="M162.532 67.7774C159.766 68.6176 157.246 69.9478 155.04 71.6982C151.925 74.1837 153.78 79.1898 157.736 79.1898C158.716 79.1898 159.626 78.8397 160.396 78.2446C161.727 77.1943 163.232 76.4242 164.877 75.8991C166.698 75.339 167.958 73.7286 167.958 71.8382C167.958 69.0026 165.227 66.9722 162.497 67.7774H162.532Z" fill="#F9FBFC"/>
<path d="M184.657 66.6929C185.637 66.6929 186.582 66.3778 187.387 65.8527C190.713 63.5422 194.739 62.177 199.08 62.177C203.421 62.177 207.481 63.5422 210.772 65.8527C211.577 66.4128 212.522 66.6929 213.503 66.6929C218.194 66.6929 220.119 60.6366 216.268 57.9761C211.402 54.5804 205.451 52.585 199.045 52.585C192.638 52.585 186.722 54.5804 181.821 57.9761C177.97 60.6366 179.931 66.6929 184.587 66.6929H184.657Z" fill="#F9FBFC"/>
<path d="M541.313 131.139H540.893C540.823 124.523 535.467 119.167 528.815 119.167C524.404 119.167 520.554 121.512 518.453 125.048C517.893 124.943 517.333 124.873 516.738 124.873C512.747 124.873 509.351 127.499 508.231 131.139H507.531C502.91 131.139 499.164 134.885 499.164 139.506C499.164 144.127 502.91 147.873 507.531 147.873H541.348C545.969 147.873 549.715 144.127 549.715 139.506C549.715 134.885 545.969 131.139 541.348 131.139H541.313Z" fill="url(#paint17_linear_1452_8346)"/>
<path d="M514.179 125.223C513.059 125.538 512.044 126.098 511.169 126.798C509.944 127.779 510.679 129.809 512.254 129.809C512.639 129.809 513.024 129.669 513.339 129.424C513.864 129.004 514.459 128.689 515.125 128.479C515.86 128.269 516.35 127.603 516.35 126.833C516.35 125.713 515.265 124.873 514.179 125.223Z" fill="#F9FBFC"/>
<path d="M523.039 124.804C523.424 124.804 523.809 124.699 524.124 124.454C525.455 123.544 527.065 122.984 528.815 122.984C530.566 122.984 532.176 123.509 533.506 124.454C533.821 124.664 534.206 124.804 534.591 124.804C536.447 124.804 537.252 122.388 535.712 121.303C533.751 119.938 531.371 119.133 528.815 119.133C526.26 119.133 523.879 119.938 521.919 121.303C520.378 122.388 521.149 124.804 523.039 124.804Z" fill="#F9FBFC"/>
<path d="M518.35 208.996H514.254V213.092H518.35V208.996Z" fill="url(#paint18_linear_1452_8346)"/>
<path d="M565.049 215.789H560.953V219.885H565.049V215.789Z" fill="url(#paint19_linear_1452_8346)"/>
<path d="M348.42 96.9385H344.324V101.034H348.42V96.9385Z" fill="url(#paint20_linear_1452_8346)"/>
<path d="M627.68 248.1H623.584V252.195H627.68V248.1Z" fill="url(#paint21_linear_1452_8346)"/>
<path d="M4.82827 396.217H0.732422V400.313H4.82827V396.217Z" fill="url(#paint22_linear_1452_8346)"/>
<path d="M254.988 136.848H250.893V140.944H254.988V136.848Z" fill="url(#paint23_linear_1452_8346)"/>
<path d="M21.8087 245.053H17.7129V249.149H21.8087V245.053Z" fill="url(#paint24_linear_1452_8346)"/>
<path d="M402.86 146.998H398.764V151.094H402.86V146.998Z" fill="url(#paint25_linear_1452_8346)"/>
<path d="M59.6505 264.238H55.5547V268.334H59.6505V264.238Z" fill="url(#paint26_linear_1452_8346)"/>
<path d="M531.022 187.643H521.535V197.13H531.022V187.643Z" fill="url(#paint27_linear_1452_8346)"/>
<path d="M371.356 79.7842H361.869V89.2711H371.356V79.7842Z" fill="url(#paint28_linear_1452_8346)"/>
<path d="M138.661 174.898H129.174V184.385H138.661V174.898Z" fill="url(#paint29_linear_1452_8346)"/>
<path d="M589.276 362.96H579.789V372.447H589.276V362.96Z" fill="url(#paint30_linear_1452_8346)"/>
<path d="M53.0299 226.712H43.543V236.199H53.0299V226.712Z" fill="url(#paint31_linear_1452_8346)"/>
<path d="M224.013 27.0307C222.227 28.8161 222.227 31.7217 224.013 33.5421C225.798 35.3275 228.704 35.3275 230.524 33.5421C238.401 25.6655 251.249 25.6655 259.125 33.5421C260.911 35.3275 263.816 35.3275 265.636 33.5421C267.422 31.7567 267.422 28.8511 265.636 27.0307C254.154 15.5483 235.495 15.5483 224.013 27.0307Z" fill="url(#paint32_linear_1452_8346)"/>
<path d="M278.692 14.0069C260.033 -4.65202 229.682 -4.65202 211.023 14.0069C209.237 15.7922 209.237 18.6978 211.023 20.5182C212.808 22.3036 215.714 22.3036 217.534 20.5182C232.622 5.43007 257.127 5.43007 272.215 20.5182C274.001 22.3036 276.906 22.3036 278.727 20.5182C280.512 18.7328 280.512 15.7922 278.727 14.0069H278.692Z" fill="url(#paint33_linear_1452_8346)"/>
<path d="M238.646 37.0053C235.11 40.5411 235.11 46.2822 238.646 49.853C242.182 53.4237 247.923 53.3887 251.494 49.853C255.029 46.3173 255.029 40.5411 251.494 37.0053C247.958 33.4696 242.182 33.4696 238.646 37.0053Z" fill="url(#paint34_linear_1452_8346)"/>
<path style="mix-blend-mode:screen" d="M508.372 184.841H456.876C452.99 184.841 449.84 181.691 449.84 177.805C449.84 173.919 452.99 170.769 456.876 170.769H508.372C512.258 170.769 515.408 173.919 515.408 177.805C515.408 181.691 512.258 184.841 508.372 184.841Z" fill="url(#paint35_linear_1452_8346)"/>
<path style="mix-blend-mode:screen" d="M124.481 257.307H72.9857C69.0999 257.307 65.9492 254.157 65.9492 250.271C65.9492 246.385 69.0999 243.234 72.9857 243.234H124.481C128.367 243.234 131.518 246.385 131.518 250.271C131.518 254.157 128.367 257.307 124.481 257.307Z" fill="url(#paint36_linear_1452_8346)"/>
<path style="mix-blend-mode:screen" d="M58.5263 338.491H7.0306C3.1448 338.491 -0.00585938 335.34 -0.00585938 331.454C-0.00585938 327.569 3.1448 324.418 7.0306 324.418H58.5263C62.4121 324.418 65.5628 327.569 65.5628 331.454C65.5628 335.34 62.4121 338.491 58.5263 338.491Z" fill="url(#paint37_linear_1452_8346)"/>
<path d="M110.447 417.782H3.99023V547.589H110.447V417.782Z" fill="url(#paint38_linear_1452_8346)"/>
<path d="M110.414 547.589H225.973L225.973 417.782H110.414L110.414 547.589Z" fill="url(#paint39_linear_1452_8346)"/>
<path d="M267.418 167.269H160.961V547.588H267.418V167.269Z" fill="url(#paint40_linear_1452_8346)"/>
<path d="M267.418 547.587H382.977L382.977 167.268H267.418L267.418 547.587Z" fill="url(#paint41_linear_1452_8346)"/>
<path style="mix-blend-mode:multiply" opacity="0.27" d="M43.7888 416.169L43.4037 458.423C43.4037 458.423 32.2364 503.477 28.6657 505.262C25.0949 507.048 21.0691 510.618 24.6398 513.279C28.2106 515.94 76.8357 517.305 82.1918 500.781C87.2679 485.168 93.9193 427.021 102.146 416.134H43.7888V416.169Z" fill="url(#paint42_linear_1452_8346)"/>
<path d="M82.4402 322.139C82.4402 322.139 83.3154 348.255 77.0841 359.387C70.8528 370.555 36.7207 384.137 36.7207 384.137C36.7207 384.137 37.5959 388.583 42.0768 390.369C42.0768 390.369 50.0935 391.699 52.789 389.038C55.4496 386.378 57.235 384.592 57.235 384.592C57.235 384.592 80.8649 376.996 87.5863 369.854C94.2727 362.713 95.883 329.421 96.058 323.47C96.2681 316.118 83.3504 314.998 82.4402 322.139Z" fill="#F9FBFC"/>
<path d="M82.2301 319.9L80.7598 338.979C80.7598 338.979 89.7566 341.919 97.1082 340.869C97.1082 340.869 98.1584 323.576 98.1584 319.06C98.1584 313.599 86.641 307.752 82.2301 319.9Z" fill="url(#paint43_linear_1452_8346)"/>
<path d="M34.8314 481.738C34.8314 481.738 33.5011 487.094 32.8359 489.44C32.1708 491.785 22.1237 497.457 22.4738 501.482C23.8041 505.158 40.8876 497.457 42.883 494.131C44.8784 490.77 44.2133 482.403 44.2133 482.403L34.8314 481.738Z" fill="#F9FBFC"/>
<path d="M95.598 385.222C95.598 385.222 52.294 384.347 43.8572 397.895C35.4205 411.443 32.7949 477.502 32.7949 477.502C32.7949 477.502 37.6609 483.663 47.1829 477.362L60.6257 421.595C61.3259 418.234 64.3365 415.924 67.7322 416.134C80.5449 416.904 110.161 417.674 114.467 408.992C117.793 402.271 118.073 397.265 117.793 391.209C117.618 387.463 114.432 384.627 110.686 384.732L95.598 385.187V385.222Z" fill="#1A2361"/>
<path d="M30.6621 475.018C30.6621 475.018 41.4444 473.442 49.0059 477.083L48.0257 485.065C48.0257 485.065 40.3591 484.435 31.0122 483.034L30.6621 474.983V475.018Z" fill="#1A53A6"/>
<path d="M55.9017 481.738C55.9017 481.738 54.5714 487.094 53.9062 489.44C53.2411 491.785 43.194 497.457 43.5441 501.482C44.8744 505.158 61.9579 497.457 63.9533 494.131C65.9488 490.77 65.2836 482.403 65.2836 482.403L55.9017 481.738Z" fill="#F9FBFC"/>
<path d="M116.67 385.222C116.67 385.222 73.3662 384.347 64.9295 397.895C56.4927 411.443 53.8672 477.502 53.8672 477.502C53.8672 477.502 58.7332 483.663 68.2552 477.362L81.698 421.595C82.3981 418.234 85.4088 415.924 88.8045 416.134C101.617 416.904 131.233 417.674 135.539 408.992C138.865 402.271 139.145 397.265 138.865 391.209C138.69 387.463 135.504 384.627 131.758 384.732L116.67 385.187V385.222Z" fill="#1A237F"/>
<path d="M51.7344 475.018C51.7344 475.018 62.5166 473.442 70.0782 477.083L69.098 485.065C69.098 485.065 61.4314 484.435 52.0844 483.034L51.7344 474.983V475.018Z" fill="#1A53A6"/>
<path d="M127.495 315.452C127.495 315.452 140.658 339.782 138.417 387.497C136.177 393.308 114.787 391.943 104.95 388.372C95.1134 384.801 83.526 386.587 80.4103 385.712C77.2947 384.836 91.3326 352.035 83.771 323.049C83.771 323.049 82.8958 317.237 87.3418 313.667C91.7877 310.096 120.354 303.865 127.495 315.452Z" fill="url(#paint44_linear_1452_8346)"/>
<path d="M115.909 319.794C115.909 319.794 116.784 345.909 110.553 357.042C104.322 368.209 70.1895 381.792 70.1895 381.792C70.1895 381.792 71.0646 386.238 75.5456 388.023C75.5456 388.023 83.5622 389.353 86.2578 386.693L90.7037 382.247C90.7037 382.247 114.334 374.65 121.055 367.509C127.741 360.367 129.352 327.075 129.527 321.124C129.737 313.773 116.819 312.652 115.909 319.794Z" fill="#F9FBFC"/>
<path d="M94.0312 311.427L95.3615 318.113C95.3615 318.113 98.7222 322.139 106.389 318.113C113.425 313.772 112.41 308.731 112.41 308.731L105.059 297.004L94.0312 311.392V311.427Z" fill="#F9FBFC"/>
<path d="M107.472 300.647L105.092 297.041L94.0645 311.429L95.3947 318.115C95.3947 318.115 95.4997 318.22 95.6748 318.395C105.022 315.175 106.667 305.863 107.507 300.682L107.472 300.647Z" fill="url(#paint45_linear_1452_8346)"/>
<path d="M80.9673 288.359C80.9673 288.359 83.8029 307.053 91.5395 314.089C99.2761 319.725 104.947 306.703 107.398 299.281C109.848 291.86 109.848 279.537 100.011 274.601C90.1392 269.665 79.567 277.787 80.9673 288.359Z" fill="#F9FBFC"/>
<path d="M104.075 274.39C104.075 274.39 100.714 270.154 94.4827 269.944C88.2514 269.734 79.7446 274.845 77.084 280.866C74.4235 286.887 79.7446 290.458 81.1099 290.458C82.4752 290.458 86.676 292.243 92.0322 289.338C97.3883 286.432 98.5085 286.432 98.5085 286.432C98.5085 286.432 102.289 294.694 102.079 298.265L104.32 297.81C104.32 297.81 103.655 292.243 104.775 290.878C105.895 289.548 107.89 292.663 107.225 296.024C106.56 299.385 106.56 300.05 106.56 300.05L107.505 300.645C107.505 300.645 111.706 291.998 111.706 287.097C111.706 282.196 111.916 273.269 104.11 274.39H104.075Z" fill="url(#paint46_linear_1452_8346)"/>
<path d="M114.786 320.11L113.211 340.414C113.211 340.414 122.803 343.53 130.61 342.409C130.61 342.409 131.73 324.03 131.73 319.199C131.73 313.388 119.477 307.157 114.786 320.075V320.11Z" fill="url(#paint47_linear_1452_8346)"/>
<path style="mix-blend-mode:screen" d="M27.7969 364.743L53.2122 321.929C53.2122 321.929 103.168 322.384 117.906 358.056L119.236 392.398L83.5635 393.729L27.7969 364.743Z" fill="url(#paint48_linear_1452_8346)"/>
<path d="M106.669 394.743L56.2582 393.868C55.523 393.868 54.9629 393.273 54.9629 392.537C54.9629 391.802 55.558 391.242 56.2932 391.242L106.704 392.117C107.439 392.117 107.999 392.712 107.999 393.448C107.999 394.183 107.404 394.743 106.669 394.743Z" fill="url(#paint49_linear_1452_8346)"/>
<path d="M90.9488 392.817L77.1909 364.111C77.0159 363.726 76.5958 363.446 76.1757 363.446L30.2461 362.641C29.406 362.641 28.8109 363.516 29.1959 364.286L42.9538 392.992C43.1288 393.377 43.5489 393.622 43.969 393.657L89.8986 394.462C90.7387 394.462 91.3339 393.587 90.9488 392.817Z" fill="url(#paint50_linear_1452_8346)"/>
<path d="M88.6031 392.783L74.8452 364.077C74.6702 363.692 74.2501 363.412 73.83 363.412L27.9004 362.606C27.0603 362.606 26.4651 363.482 26.8502 364.252L40.5731 392.958C40.7481 393.343 41.1682 393.623 41.5883 393.623L87.5178 394.428C88.358 394.428 88.9531 393.553 88.5681 392.783H88.6031Z" fill="url(#paint51_linear_1452_8346)"/>
<path d="M328.29 70.7518C328.29 70.7518 327.415 96.8672 333.646 108C339.878 119.167 374.01 132.75 374.01 132.75C374.01 132.75 373.135 137.196 368.654 138.981C368.654 138.981 360.637 140.311 357.941 137.651L353.496 133.205C353.496 133.205 329.866 125.608 323.144 118.467C316.458 111.325 314.847 78.0333 314.672 72.0821C314.462 64.7305 327.38 63.6103 328.29 70.7518Z" fill="#F9FBFC"/>
<path d="M320.24 64.7297C320.24 64.7297 330.952 64.0646 330.952 75.0919C330.952 86.1191 331.968 104.883 338.969 110.239C346.005 115.595 359.728 125.642 359.728 125.642L352.692 134.674C352.692 134.674 325.246 123.297 319.89 118.291C314.534 113.285 311.208 77.8224 312.188 72.4663C313.204 67.1102 315.549 63.4344 320.205 64.7647L320.24 64.7297Z" fill="url(#paint52_linear_1452_8346)"/>
<path style="mix-blend-mode:multiply" opacity="0.27" d="M368.939 167.128L369.324 209.382C369.324 209.382 380.492 254.436 384.062 256.221C387.633 258.007 391.659 261.577 388.088 264.238C384.517 266.899 335.892 268.264 330.536 251.74C325.46 236.127 318.809 177.98 310.582 167.093H368.974L368.939 167.128Z" fill="url(#paint53_linear_1452_8346)"/>
<path d="M392.459 219.638C392.459 219.638 394.77 224.644 395.855 226.849C396.94 229.055 407.863 232.765 408.283 236.791C407.653 240.642 389.449 236.231 386.858 233.326C384.268 230.42 383.393 222.053 383.393 222.053L392.494 219.673L392.459 219.638Z" fill="#F9FBFC"/>
<path d="M314.956 135.935C314.956 135.935 357.349 127.113 368.167 138.875C378.949 150.638 393.687 215.086 393.687 215.086C393.687 215.086 390.046 222.018 379.509 217.607L356.019 165.271C354.724 162.12 351.328 160.37 348.038 161.21C335.61 164.326 306.624 170.522 300.778 162.785C296.262 156.799 295.072 151.933 294.231 145.912C293.741 142.201 296.332 138.805 300.043 138.245L314.991 135.935H314.956Z" fill="#1A2361"/>
<path d="M395.333 212.25C395.333 212.25 384.446 212.67 377.689 217.641L380.14 225.308C380.14 225.308 387.562 223.277 396.488 220.197L395.333 212.215V212.25Z" fill="#1A53A6"/>
<path d="M356.828 232.697C356.828 232.697 358.158 238.053 358.824 240.399C359.489 242.744 369.536 248.416 369.186 252.441C367.856 256.117 350.772 248.416 348.777 245.09C346.781 241.729 347.446 233.362 347.446 233.362L356.828 232.697Z" fill="#F9FBFC"/>
<path d="M296.054 136.182C296.054 136.182 339.358 135.307 347.795 148.855C356.232 162.403 358.857 228.462 358.857 228.462C358.857 228.462 353.991 234.623 344.469 228.322L331.027 172.555C330.326 169.194 327.316 166.884 323.92 167.094C311.107 167.864 281.491 168.634 277.185 159.952C273.86 153.231 273.58 148.225 273.86 142.169C274.035 138.423 277.22 135.587 280.966 135.692L296.054 136.147V136.182Z" fill="#1A237F"/>
<path d="M360.994 225.977C360.994 225.977 350.212 224.401 342.65 228.042L343.631 236.024C343.631 236.024 351.297 235.394 360.644 233.993L360.994 225.942V225.977Z" fill="#1A53A6"/>
<path d="M285.236 66.4109C285.236 66.4109 272.073 90.741 274.313 138.456C276.554 144.267 297.943 142.902 307.78 139.331C317.582 135.76 329.205 137.546 332.32 136.671C335.436 135.795 321.398 102.994 328.96 74.0075C328.96 74.0075 329.835 68.1963 325.389 64.6256C320.943 61.0548 292.377 54.8235 285.236 66.4109Z" fill="url(#paint54_linear_1452_8346)"/>
<path d="M318.701 62.3859L317.371 69.0723C317.371 69.0723 314.01 73.0981 306.344 69.0723C299.307 64.7314 300.322 59.6903 300.322 59.6903L307.674 47.9629L318.701 62.3509V62.3859Z" fill="#F9FBFC"/>
<path d="M305.264 51.639L307.644 48.0332L318.671 62.4212L317.341 69.1076C317.341 69.1076 317.236 69.2126 317.061 69.3876C307.714 66.167 306.069 56.855 305.229 51.674L305.264 51.639Z" fill="url(#paint55_linear_1452_8346)"/>
<path d="M331.761 39.352C331.761 39.352 328.926 58.0459 321.189 65.0823C313.452 70.7185 307.781 57.6958 305.331 50.2743C302.88 42.8877 302.88 30.5301 312.717 25.5941C322.589 20.6581 333.162 28.7798 331.761 39.352Z" fill="#F9FBFC"/>
<path d="M296.818 70.7518C296.818 70.7518 295.942 96.8672 302.174 108C308.405 119.167 342.537 132.75 342.537 132.75C342.537 132.75 341.662 137.196 337.181 138.981C337.181 138.981 329.164 140.311 326.469 137.651C323.808 134.99 322.023 133.205 322.023 133.205C322.023 133.205 298.393 125.608 291.672 118.467C284.985 111.325 283.375 78.0333 283.2 72.0821C282.99 64.7305 295.907 63.6103 296.818 70.7518Z" fill="#F9FBFC"/>
<path d="M288.805 64.7297C288.805 64.7297 299.517 64.0646 299.517 75.0919C299.517 86.1191 300.532 104.883 307.533 110.239C314.57 115.595 328.293 125.642 328.293 125.642L321.256 134.674C321.256 134.674 293.811 123.297 288.454 118.291C283.098 113.285 279.738 77.8224 280.753 72.4663C281.768 67.1102 284.114 63.4344 288.769 64.7647L288.805 64.7297Z" fill="url(#paint56_linear_1452_8346)"/>
<path style="mix-blend-mode:screen" d="M386.164 115.703L360.748 72.8887C360.748 72.8887 310.793 73.3438 296.055 109.016L294.725 143.358L330.397 144.689L386.164 115.703Z" fill="url(#paint57_linear_1452_8346)"/>
<path d="M307.297 145.704L357.708 144.829C358.443 144.829 359.003 144.234 359.003 143.498C359.003 142.763 358.408 142.203 357.673 142.203L307.262 143.078C306.527 143.078 305.967 143.673 305.967 144.409C305.967 145.144 306.562 145.704 307.297 145.704Z" fill="url(#paint58_linear_1452_8346)"/>
<path d="M323.018 143.778L336.741 115.072C336.916 114.687 337.336 114.442 337.756 114.407L383.686 113.602C384.526 113.602 385.121 114.477 384.736 115.247L370.978 143.953C370.803 144.338 370.383 144.618 369.963 144.618L324.033 145.423C323.193 145.423 322.598 144.548 322.983 143.778H323.018Z" fill="url(#paint59_linear_1452_8346)"/>
<path d="M325.362 143.744L339.12 115.038C339.295 114.653 339.715 114.373 340.135 114.373L386.065 113.567C386.905 113.567 387.5 114.443 387.115 115.213L373.357 143.919C373.182 144.304 372.762 144.549 372.342 144.584L326.412 145.389C325.572 145.389 324.977 144.514 325.362 143.744Z" fill="url(#paint60_linear_1452_8346)"/>
<path d="M305.264 51.6387C305.264 51.6387 301.518 43.237 302.848 33.855C304.179 24.4731 314.436 20.6923 319.127 20.4823C323.818 20.2722 336.525 32.0697 336.98 35.8855C337.435 39.6663 331.834 42.5719 331.834 42.5719C331.834 42.5719 325.358 45.4775 320.912 44.1472C316.466 42.8169 314.436 41.2416 314.436 41.2416L311.985 45.4775C311.985 45.4775 311.985 42.1168 309.745 42.3618C307.504 42.6069 306.839 49.0482 308.624 49.7133C310.41 50.3785 310.2 51.0436 310.2 51.0436L307.084 55.9446C307.084 55.9446 305.439 52.934 305.264 51.6387Z" fill="url(#paint61_linear_1452_8346)"/>
<path d="M309.705 60.879C309.705 60.879 310.86 59.8638 312.541 61.2291C314.221 62.5944 316.566 59.8988 317.547 59.7238C318.562 59.5487 322.238 58.5685 323.918 60.5639C325.598 62.5594 319.402 67.9155 317.722 67.7404C316.041 67.5654 310.37 65.885 309.705 60.879Z" fill="url(#paint62_linear_1452_8346)"/>
<path d="M213.194 88.1865H163.343C161.507 88.1865 160.018 89.6755 160.018 91.5122V128.725C160.018 130.562 161.507 132.051 163.343 132.051H213.194C215.03 132.051 216.519 130.562 216.519 128.725V91.5122C216.519 89.6755 215.03 88.1865 213.194 88.1865Z" fill="url(#paint63_linear_1452_8346)"/>
<path d="M213.929 90.2533V82.2366C213.929 82.0266 213.754 81.8516 213.543 81.8516H188.268C188.268 81.8516 187.953 81.9566 187.918 82.0966L186.098 87.8728C186.098 87.8728 185.888 88.1179 185.748 88.1179H161.383C159.352 88.1179 157.672 89.7632 157.672 91.8286V128.306C157.672 130.337 159.317 132.017 161.383 132.017H210.498C212.528 132.017 214.209 130.372 214.209 128.306V91.4436C214.209 90.9885 214.104 90.5684 213.964 90.1833L213.929 90.2533Z" fill="url(#paint64_linear_1452_8346)"/>
<path d="M203.178 104.814H165.965V109.785H203.178V104.814Z" fill="url(#paint65_linear_1452_8346)"/>
<path style="mix-blend-mode:screen" d="M94.4838 94.1729H169.749C172.865 94.1729 175.386 96.6934 175.386 99.809V147.979C175.386 151.095 172.865 153.615 169.749 153.615H94.4838C91.3682 153.615 88.8477 151.095 88.8477 147.979V99.809C88.8477 96.6934 91.3682 94.1729 94.4838 94.1729Z" fill="url(#paint66_linear_1452_8346)"/>
<path style="mix-blend-mode:screen" d="M157.707 118.854H103.516C100.715 118.854 98.4395 116.579 98.4395 113.778C98.4395 110.978 100.715 108.702 103.516 108.702H157.707C160.507 108.702 162.783 110.978 162.783 113.778C162.783 116.579 160.507 118.854 157.707 118.854Z" fill="url(#paint67_linear_1452_8346)"/>
<path style="mix-blend-mode:screen" d="M639.902 188H564.636C561.523 188 559 190.523 559 193.636V241.806C559 244.919 561.523 247.442 564.636 247.442H639.902C643.015 247.442 645.538 244.919 645.538 241.806V193.636C645.538 190.523 643.015 188 639.902 188Z" fill="url(#paint68_linear_1452_8346)"/>
<path style="mix-blend-mode:screen" d="M627.859 212.644H573.668C570.867 212.644 568.592 210.369 568.592 207.568C568.592 204.768 570.867 202.492 573.668 202.492H627.859C630.66 202.492 632.935 204.768 632.935 207.568C632.935 210.369 630.66 212.644 627.859 212.644Z" fill="url(#paint69_linear_1452_8346)"/>
<g opacity="0.69">
<path style="mix-blend-mode:screen" d="M117.374 128.025H67.5934C65.5247 128.025 63.8477 129.702 63.8477 131.771V163.628C63.8477 165.697 65.5247 167.374 67.5934 167.374H117.374C119.443 167.374 121.12 165.697 121.12 163.628V131.771C121.12 129.702 119.443 128.025 117.374 128.025Z" fill="url(#paint70_linear_1452_8346)"/>
<path style="mix-blend-mode:screen" d="M109.394 144.34H73.5462C71.6909 144.34 70.1855 142.834 70.1855 140.979C70.1855 139.123 71.6909 137.618 73.5462 137.618H109.394C111.249 137.618 112.754 139.123 112.754 140.979C112.754 142.834 111.249 144.34 109.394 144.34Z" fill="url(#paint71_linear_1452_8346)"/>
</g>
<g opacity="0.69">
<path style="mix-blend-mode:screen" d="M55.1004 277.506H5.32C3.25126 277.506 1.57422 279.183 1.57422 281.252V313.108C1.57422 315.177 3.25126 316.854 5.32 316.854H55.1004C57.1691 316.854 58.8461 315.177 58.8461 313.108V281.252C58.8461 279.183 57.1691 277.506 55.1004 277.506Z" fill="url(#paint72_linear_1452_8346)"/>
<path style="mix-blend-mode:screen" d="M47.1203 293.821H11.2728C9.41742 293.821 7.91211 292.316 7.91211 290.46C7.91211 288.605 9.41742 287.1 11.2728 287.1H47.1203C48.9757 287.1 50.481 288.605 50.481 290.46C50.481 292.316 48.9757 293.821 47.1203 293.821Z" fill="url(#paint73_linear_1452_8346)"/>
</g>
<g opacity="0.69">
<path style="mix-blend-mode:screen" d="M638.526 258H588.746C586.677 258 585 259.677 585 261.746V293.602C585 295.671 586.677 297.348 588.746 297.348H638.526C640.595 297.348 642.272 295.671 642.272 293.602V261.746C642.272 259.677 640.595 258 638.526 258Z" fill="url(#paint74_linear_1452_8346)"/>
<path style="mix-blend-mode:screen" d="M630.546 274.314H594.699C592.843 274.314 591.338 272.809 591.338 270.953C591.338 269.098 592.843 267.593 594.699 267.593H630.546C632.401 267.593 633.907 269.098 633.907 270.953C633.907 272.809 632.401 274.314 630.546 274.314Z" fill="url(#paint75_linear_1452_8346)"/>
</g>
<path style="mix-blend-mode:multiply" opacity="0.27" d="M382.979 538.975L280.758 388.094L267.42 424.641V547.587H382.979V538.975Z" fill="url(#paint76_linear_1452_8346)"/>
<path d="M234.579 392.962V341.676L194.251 301.348V215.965L160.959 182.673" stroke="#EAEEEE" stroke-width="0.875182" stroke-miterlimit="10"/>
<path d="M194.285 262.839H214.169L240.915 236.093H254.113V200.561L268.081 186.628" stroke="#EAEEEE" stroke-width="0.875182" stroke-miterlimit="10"/>
<path d="M160.959 319.901H173.177L207.659 354.384V365.446H223.027V384.735" stroke="#EAEEEE" stroke-width="0.875182" stroke-miterlimit="10"/>
<path d="M283.311 378.398H216.727C208.123 378.398 201.148 385.373 201.148 393.977V532.956C201.148 541.559 208.123 548.534 216.727 548.534H283.311C291.914 548.534 298.889 541.559 298.889 532.956V393.977C298.889 385.373 291.914 378.398 283.311 378.398Z" fill="url(#paint77_linear_1452_8346)"/>
<path d="M276.445 378.398H209.861C201.258 378.398 194.283 385.373 194.283 393.977V532.956C194.283 541.559 201.258 548.534 209.861 548.534H276.445C285.049 548.534 292.024 541.559 292.024 532.956V393.977C292.024 385.373 285.049 378.398 276.445 378.398Z" fill="url(#paint78_linear_1452_8346)"/>
<path d="M284.991 405.181H201.288C200.418 405.181 199.713 405.886 199.713 406.756V522.84C199.713 523.71 200.418 524.415 201.288 524.415H284.991C285.861 524.415 286.566 523.71 286.566 522.84V406.756C286.566 405.886 285.861 405.181 284.991 405.181Z" fill="#F9FBFC"/>
<path d="M251.731 396.743H234.578C233.528 396.743 232.688 395.903 232.688 394.852C232.688 393.802 233.528 392.962 234.578 392.962H251.731C252.782 392.962 253.622 393.802 253.622 394.852C253.622 395.903 252.782 396.743 251.731 396.743Z" fill="#3BC9FF"/>
<path d="M248.228 534.741C248.228 537.542 245.953 539.817 243.152 539.817C240.352 539.817 238.076 537.542 238.076 534.741C238.076 531.941 240.352 529.665 243.152 529.665C245.953 529.665 248.228 531.941 248.228 534.741Z" fill="#3BC9FF"/>
<path d="M263.139 460.244H262.579C262.509 451.702 255.543 444.806 247.001 444.806C241.33 444.806 236.359 447.851 233.628 452.367C232.893 452.227 232.158 452.157 231.423 452.157C226.242 452.157 221.866 455.553 220.431 460.244H219.52C213.534 460.244 208.703 465.075 208.703 471.061C208.703 477.047 213.534 481.878 219.52 481.878H263.174C269.161 481.878 273.992 477.047 273.992 471.061C273.992 465.075 269.161 460.244 263.174 460.244H263.139Z" fill="#5BEAFF"/>
<path d="M231.459 477.815L241.051 489.543C241.261 489.823 241.681 489.823 241.891 489.543L251.483 477.815C251.763 477.465 251.518 476.94 251.063 476.94H248.507V466.753H234.575V476.94H231.914C231.459 476.94 231.214 477.465 231.494 477.815H231.459Z" fill="#00B7F9"/>
</g>
<defs>
<linearGradient id="paint0_linear_1452_8346" x1="430.496" y1="264.658" x2="430.496" y2="51.9191" gradientUnits="userSpaceOnUse">
<stop stop-color="#129FB2" stop-opacity="0"/>
<stop offset="0.94" stop-color="#1AE5FF"/>
</linearGradient>
<linearGradient id="paint1_linear_1452_8346" x1="140.572" y1="405.086" x2="140.572" y2="192.347" gradientUnits="userSpaceOnUse">
<stop/>
<stop offset="0.08" stop-color="#000707"/>
<stop offset="0.21" stop-color="#031A1D"/>
<stop offset="0.36" stop-color="#063A41"/>
<stop offset="0.53" stop-color="#0B6672"/>
<stop offset="0.73" stop-color="#129FB2"/>
<stop offset="0.94" stop-color="#1AE5FF"/>
</linearGradient>
<linearGradient id="paint2_linear_1452_8346" x1="525.591" y1="461.741" x2="526" y2="331" gradientUnits="userSpaceOnUse">
<stop stop-opacity="0"/>
<stop offset="1" stop-color="#1AE5FF"/>
</linearGradient>
<linearGradient id="paint3_linear_1452_8346" x1="371.426" y1="221.113" x2="371.426" y2="622.506" gradientUnits="userSpaceOnUse">
<stop stop-color="#2CE7C7"/>
<stop offset="1" stop-color="#0079FF"/>
</linearGradient>
<linearGradient id="paint4_linear_1452_8346" x1="482.433" y1="215.231" x2="482.433" y2="504.566" gradientUnits="userSpaceOnUse">
<stop stop-color="#2CE7C7"/>
<stop offset="1" stop-color="#0079FF"/>
</linearGradient>
<linearGradient id="paint5_linear_1452_8346" x1="462.831" y1="228.987" x2="505.61" y2="307.158" gradientUnits="userSpaceOnUse">
<stop stop-color="#6B40EA"/>
<stop offset="1" stop-color="#FB8E31"/>
</linearGradient>
<linearGradient id="paint6_linear_1452_8346" x1="583.114" y1="233.538" x2="471.966" y2="504.879" gradientUnits="userSpaceOnUse">
<stop stop-color="#2CE7C7"/>
<stop offset="1" stop-color="#0079FF"/>
</linearGradient>
<linearGradient id="paint7_linear_1452_8346" x1="459.394" y1="360.441" x2="558.885" y2="360.441" gradientUnits="userSpaceOnUse">
<stop stop-color="#FBC93B"/>
<stop offset="1" stop-color="#FB8E31"/>
</linearGradient>
<linearGradient id="paint8_linear_1452_8346" x1="438.954" y1="367.966" x2="524.092" y2="367.966" gradientUnits="userSpaceOnUse">
<stop stop-color="#FBC93B"/>
<stop offset="1" stop-color="#FB8E31"/>
</linearGradient>
<linearGradient id="paint9_linear_1452_8346" x1="481.906" y1="246.107" x2="452.465" y2="377.91" gradientUnits="userSpaceOnUse">
<stop stop-color="#6B40EA"/>
<stop offset="1" stop-color="#FB8E31"/>
</linearGradient>
<linearGradient id="paint10_linear_1452_8346" x1="485.586" y1="225.522" x2="475.819" y2="246.421" gradientUnits="userSpaceOnUse">
<stop stop-color="white"/>
<stop offset="1" stop-color="#E6E8EC"/>
</linearGradient>
<linearGradient id="paint11_linear_1452_8346" x1="445.812" y1="284.088" x2="493.492" y2="284.088" gradientUnits="userSpaceOnUse">
<stop stop-color="#6B40EA"/>
<stop offset="1" stop-color="#FB8E31"/>
</linearGradient>
<linearGradient id="paint12_linear_1452_8346" x1="482.539" y1="279.715" x2="519.996" y2="326.134" gradientUnits="userSpaceOnUse">
<stop/>
<stop offset="0.08" stop-color="#000707"/>
<stop offset="0.21" stop-color="#031A1D"/>
<stop offset="0.36" stop-color="#063A41"/>
<stop offset="0.53" stop-color="#0B6672"/>
<stop offset="0.73" stop-color="#129FB2"/>
<stop offset="0.94" stop-color="#1AE5FF"/>
</linearGradient>
<linearGradient id="paint13_linear_1452_8346" x1="500.728" y1="322.905" x2="489.841" y2="343.087" gradientUnits="userSpaceOnUse">
<stop stop-color="#2CE7C7"/>
<stop offset="1" stop-color="#005BFF"/>
</linearGradient>
<linearGradient id="paint14_linear_1452_8346" x1="525.368" y1="302.414" x2="502.851" y2="344.297" gradientUnits="userSpaceOnUse">
<stop stop-color="#2CE7C7"/>
<stop offset="1" stop-color="#005BFF"/>
</linearGradient>
<linearGradient id="paint15_linear_1452_8346" x1="534.965" y1="280.54" x2="514.426" y2="331.456" gradientUnits="userSpaceOnUse">
<stop stop-color="white"/>
<stop offset="1" stop-color="#E6E8EC"/>
</linearGradient>
<linearGradient id="paint16_linear_1452_8346" x1="188.088" y1="166.849" x2="188.088" y2="16.7375" gradientUnits="userSpaceOnUse">
<stop stop-color="#1AE5FF"/>
<stop offset="0.26" stop-color="#63E8F8"/>
<stop offset="0.7" stop-color="#EAEEEE"/>
</linearGradient>
<linearGradient id="paint17_linear_1452_8346" x1="524.404" y1="164.851" x2="524.404" y2="104.814" gradientUnits="userSpaceOnUse">
<stop stop-color="#1AE5FF"/>
<stop offset="0.26" stop-color="#63E8F8"/>
<stop offset="0.7" stop-color="#EAEEEE"/>
</linearGradient>
<linearGradient id="paint18_linear_1452_8346" x1="523.986" y1="189.112" x2="508.478" y2="233.291" gradientUnits="userSpaceOnUse">
<stop stop-color="#1AE5FF"/>
<stop offset="0.26" stop-color="#63E8F8"/>
<stop offset="0.7" stop-color="#EAEEEE"/>
</linearGradient>
<linearGradient id="paint19_linear_1452_8346" x1="570.72" y1="195.905" x2="555.212" y2="240.084" gradientUnits="userSpaceOnUse">
<stop stop-color="#1AE5FF"/>
<stop offset="0.26" stop-color="#63E8F8"/>
<stop offset="0.7" stop-color="#EAEEEE"/>
</linearGradient>
<linearGradient id="paint20_linear_1452_8346" x1="354.056" y1="77.0543" x2="338.548" y2="121.234" gradientUnits="userSpaceOnUse">
<stop stop-color="#1AE5FF"/>
<stop offset="0.26" stop-color="#63E8F8"/>
<stop offset="0.7" stop-color="#EAEEEE"/>
</linearGradient>
<linearGradient id="paint21_linear_1452_8346" x1="633.351" y1="228.216" x2="617.843" y2="272.395" gradientUnits="userSpaceOnUse">
<stop stop-color="#1AE5FF"/>
<stop offset="0.26" stop-color="#63E8F8"/>
<stop offset="0.7" stop-color="#EAEEEE"/>
</linearGradient>
<linearGradient id="paint22_linear_1452_8346" x1="10.4644" y1="376.333" x2="-5.04374" y2="420.547" gradientUnits="userSpaceOnUse">
<stop stop-color="#1AE5FF"/>
<stop offset="0.26" stop-color="#63E8F8"/>
<stop offset="0.7" stop-color="#EAEEEE"/>
</linearGradient>
<linearGradient id="paint23_linear_1452_8346" x1="260.66" y1="116.964" x2="245.151" y2="161.143" gradientUnits="userSpaceOnUse">
<stop stop-color="#1AE5FF"/>
<stop offset="0.26" stop-color="#63E8F8"/>
<stop offset="0.7" stop-color="#EAEEEE"/>
</linearGradient>
<linearGradient id="paint24_linear_1452_8346" x1="27.4449" y1="225.169" x2="11.9367" y2="269.348" gradientUnits="userSpaceOnUse">
<stop stop-color="#1AE5FF"/>
<stop offset="0.26" stop-color="#63E8F8"/>
<stop offset="0.7" stop-color="#EAEEEE"/>
</linearGradient>
<linearGradient id="paint25_linear_1452_8346" x1="408.496" y1="127.114" x2="392.987" y2="171.293" gradientUnits="userSpaceOnUse">
<stop stop-color="#1AE5FF"/>
<stop offset="0.26" stop-color="#63E8F8"/>
<stop offset="0.7" stop-color="#EAEEEE"/>
</linearGradient>
<linearGradient id="paint26_linear_1452_8346" x1="65.3217" y1="244.354" x2="49.8136" y2="288.533" gradientUnits="userSpaceOnUse">
<stop stop-color="#1AE5FF"/>
<stop offset="0.26" stop-color="#63E8F8"/>
<stop offset="0.7" stop-color="#EAEEEE"/>
</linearGradient>
<linearGradient id="paint27_linear_1452_8346" x1="544.115" y1="141.573" x2="508.162" y2="243.969" gradientUnits="userSpaceOnUse">
<stop stop-color="#1AE5FF"/>
<stop offset="0.26" stop-color="#63E8F8"/>
<stop offset="0.7" stop-color="#EAEEEE"/>
</linearGradient>
<linearGradient id="paint28_linear_1452_8346" x1="384.449" y1="33.7146" x2="348.531" y2="136.111" gradientUnits="userSpaceOnUse">
<stop stop-color="#1AE5FF"/>
<stop offset="0.26" stop-color="#63E8F8"/>
<stop offset="0.7" stop-color="#EAEEEE"/>
</linearGradient>
<linearGradient id="paint29_linear_1452_8346" x1="151.754" y1="128.829" x2="115.801" y2="231.225" gradientUnits="userSpaceOnUse">
<stop stop-color="#1AE5FF"/>
<stop offset="0.26" stop-color="#63E8F8"/>
<stop offset="0.7" stop-color="#EAEEEE"/>
</linearGradient>
<linearGradient id="paint30_linear_1452_8346" x1="602.369" y1="316.89" x2="566.416" y2="419.252" gradientUnits="userSpaceOnUse">
<stop stop-color="#1AE5FF"/>
<stop offset="0.26" stop-color="#63E8F8"/>
<stop offset="0.7" stop-color="#EAEEEE"/>
</linearGradient>
<linearGradient id="paint31_linear_1452_8346" x1="66.1227" y1="180.642" x2="30.1702" y2="283.039" gradientUnits="userSpaceOnUse">
<stop stop-color="#1AE5FF"/>
<stop offset="0.26" stop-color="#63E8F8"/>
<stop offset="0.7" stop-color="#EAEEEE"/>
</linearGradient>
<linearGradient id="paint32_linear_1452_8346" x1="224.188" y1="105.902" x2="266.722" y2="-49.8102" gradientUnits="userSpaceOnUse">
<stop stop-color="#1AE5FF"/>
<stop offset="0.26" stop-color="#63E8F8"/>
<stop offset="0.7" stop-color="#EAEEEE"/>
</linearGradient>
<linearGradient id="paint33_linear_1452_8346" x1="220.86" y1="105.026" x2="263.394" y2="-50.7216" gradientUnits="userSpaceOnUse">
<stop stop-color="#1AE5FF"/>
<stop offset="0.26" stop-color="#63E8F8"/>
<stop offset="0.7" stop-color="#EAEEEE"/>
</linearGradient>
<linearGradient id="paint34_linear_1452_8346" x1="227.724" y1="106.88" x2="270.258" y2="-48.8325" gradientUnits="userSpaceOnUse">
<stop stop-color="#1AE5FF"/>
<stop offset="0.26" stop-color="#63E8F8"/>
<stop offset="0.7" stop-color="#EAEEEE"/>
</linearGradient>
<linearGradient id="paint35_linear_1452_8346" x1="441.333" y1="328.931" x2="499.515" y2="115.982" gradientUnits="userSpaceOnUse">
<stop/>
<stop offset="0.08" stop-color="#000707"/>
<stop offset="0.21" stop-color="#031A1D"/>
<stop offset="0.36" stop-color="#063A41"/>
<stop offset="0.53" stop-color="#0B6672"/>
<stop offset="0.73" stop-color="#129FB2"/>
<stop offset="0.94" stop-color="#1AE5FF"/>
</linearGradient>
<linearGradient id="paint36_linear_1452_8346" x1="57.4424" y1="401.397" x2="115.624" y2="188.483" gradientUnits="userSpaceOnUse">
<stop/>
<stop offset="0.08" stop-color="#000707"/>
<stop offset="0.21" stop-color="#031A1D"/>
<stop offset="0.36" stop-color="#063A41"/>
<stop offset="0.53" stop-color="#0B6672"/>
<stop offset="0.73" stop-color="#129FB2"/>
<stop offset="0.94" stop-color="#1AE5FF"/>
</linearGradient>
<linearGradient id="paint37_linear_1452_8346" x1="-8.51263" y1="482.616" x2="49.6696" y2="269.667" gradientUnits="userSpaceOnUse">
<stop/>
<stop offset="0.08" stop-color="#000707"/>
<stop offset="0.21" stop-color="#031A1D"/>
<stop offset="0.36" stop-color="#063A41"/>
<stop offset="0.53" stop-color="#0B6672"/>
<stop offset="0.73" stop-color="#129FB2"/>
<stop offset="0.94" stop-color="#1AE5FF"/>
</linearGradient>
<linearGradient id="paint38_linear_1452_8346" x1="57.2013" y1="332.084" x2="57.2013" y2="597.055" gradientUnits="userSpaceOnUse">
<stop stop-color="#2CE7C7"/>
<stop offset="1" stop-color="#0079FF"/>
</linearGradient>
<linearGradient id="paint39_linear_1452_8346" x1="168.211" y1="328.198" x2="168.211" y2="519.198" gradientUnits="userSpaceOnUse">
<stop stop-color="#2CE7C7"/>
<stop offset="1" stop-color="#005BFF"/>
</linearGradient>
<linearGradient id="paint40_linear_1452_8346" x1="214.207" y1="-83.7336" x2="214.207" y2="692.448" gradientUnits="userSpaceOnUse">
<stop stop-color="#2CE7C7"/>
<stop offset="1" stop-color="#0079FF"/>
</linearGradient>
<linearGradient id="paint41_linear_1452_8346" x1="325.215" y1="-95.1468" x2="325.215" y2="464.375" gradientUnits="userSpaceOnUse">
<stop stop-color="#2CE7C7"/>
<stop offset="1" stop-color="#0079FF"/>
</linearGradient>
<linearGradient id="paint42_linear_1452_8346" x1="-5.15136" y1="298.054" x2="105.997" y2="569.396" gradientUnits="userSpaceOnUse">
<stop stop-color="#2CE7C7"/>
<stop offset="1" stop-color="#0079FF"/>
</linearGradient>
<linearGradient id="paint43_linear_1452_8346" x1="82.5101" y1="291.089" x2="91.0869" y2="337.614" gradientUnits="userSpaceOnUse">
<stop stop-color="#2CE7C7"/>
<stop offset="1" stop-color="#0079FF"/>
</linearGradient>
<linearGradient id="paint44_linear_1452_8346" x1="96.0586" y1="310.621" x2="125.5" y2="442.458" gradientUnits="userSpaceOnUse">
<stop stop-color="#2CE7C7"/>
<stop offset="1" stop-color="#0079FF"/>
</linearGradient>
<linearGradient id="paint45_linear_1452_8346" x1="92.3841" y1="290.04" x2="102.151" y2="310.939" gradientUnits="userSpaceOnUse">
<stop stop-color="white"/>
<stop offset="1" stop-color="#E6E8EC"/>
</linearGradient>
<linearGradient id="paint46_linear_1452_8346" x1="71.8329" y1="228.81" x2="111.286" y2="325.185" gradientUnits="userSpaceOnUse">
<stop stop-color="#2CE7C7"/>
<stop offset="1" stop-color="#0079FF"/>
</linearGradient>
<linearGradient id="paint47_linear_1452_8346" x1="115.066" y1="289.443" x2="124.203" y2="338.979" gradientUnits="userSpaceOnUse">
<stop stop-color="#2CE7C7"/>
<stop offset="1" stop-color="#0079FF"/>
</linearGradient>
<linearGradient id="paint48_linear_1452_8346" x1="96.6562" y1="344.228" x2="59.1984" y2="390.648" gradientUnits="userSpaceOnUse">
<stop/>
<stop offset="0.08" stop-color="#000707"/>
<stop offset="0.21" stop-color="#031A1D"/>
<stop offset="0.36" stop-color="#063A41"/>
<stop offset="0.53" stop-color="#0B6672"/>
<stop offset="0.73" stop-color="#129FB2"/>
<stop offset="0.94" stop-color="#1AE5FF"/>
</linearGradient>
<linearGradient id="paint49_linear_1452_8346" x1="78.4831" y1="387.443" x2="89.3349" y2="407.624" gradientUnits="userSpaceOnUse">
<stop stop-color="#2CE7C7"/>
<stop offset="1" stop-color="#005BFF"/>
</linearGradient>
<linearGradient id="paint50_linear_1452_8346" x1="53.8052" y1="366.949" x2="76.3575" y2="408.833" gradientUnits="userSpaceOnUse">
<stop stop-color="#2CE7C7"/>
<stop offset="1" stop-color="#005BFF"/>
</linearGradient>
<linearGradient id="paint51_linear_1452_8346" x1="44.2432" y1="345.075" x2="64.7828" y2="395.957" gradientUnits="userSpaceOnUse">
<stop stop-color="white"/>
<stop offset="1" stop-color="#E6E8EC"/>
</linearGradient>
<linearGradient id="paint52_linear_1452_8346" x1="317.054" y1="4.76222" x2="339.424" y2="125.747" gradientUnits="userSpaceOnUse">
<stop stop-color="#2CE7C7"/>
<stop offset="1" stop-color="#0079FF"/>
</linearGradient>
<linearGradient id="paint53_linear_1452_8346" x1="417.914" y1="49.0482" x2="306.731" y2="320.355" gradientUnits="userSpaceOnUse">
<stop stop-color="#2CE7C7"/>
<stop offset="1" stop-color="#0079FF"/>
</linearGradient>
<linearGradient id="paint54_linear_1452_8346" x1="316.707" y1="61.5799" x2="287.231" y2="193.417" gradientUnits="userSpaceOnUse">
<stop stop-color="#FBC93B"/>
<stop offset="1" stop-color="#FB8E31"/>
</linearGradient>
<linearGradient id="paint55_linear_1452_8346" x1="320.387" y1="40.9967" x2="310.585" y2="61.8961" gradientUnits="userSpaceOnUse">
<stop stop-color="white"/>
<stop offset="1" stop-color="#E6E8EC"/>
</linearGradient>
<linearGradient id="paint56_linear_1452_8346" x1="285.619" y1="4.76222" x2="307.953" y2="125.747" gradientUnits="userSpaceOnUse">
<stop stop-color="#2CE7C7"/>
<stop offset="1" stop-color="#0079FF"/>
</linearGradient>
<linearGradient id="paint57_linear_1452_8346" x1="317.304" y1="95.2233" x2="354.797" y2="141.608" gradientUnits="userSpaceOnUse">
<stop/>
<stop offset="0.08" stop-color="#000707"/>
<stop offset="0.21" stop-color="#031A1D"/>
<stop offset="0.36" stop-color="#063A41"/>
<stop offset="0.53" stop-color="#0B6672"/>
<stop offset="0.73" stop-color="#129FB2"/>
<stop offset="0.94" stop-color="#1AE5FF"/>
</linearGradient>
<linearGradient id="paint58_linear_1452_8346" x1="335.476" y1="138.366" x2="324.625" y2="158.583" gradientUnits="userSpaceOnUse">
<stop stop-color="#2CE7C7"/>
<stop offset="1" stop-color="#005BFF"/>
</linearGradient>
<linearGradient id="paint59_linear_1452_8346" x1="360.155" y1="117.873" x2="337.638" y2="159.791" gradientUnits="userSpaceOnUse">
<stop stop-color="#2CE7C7"/>
<stop offset="1" stop-color="#005BFF"/>
</linearGradient>
<linearGradient id="paint60_linear_1452_8346" x1="369.716" y1="96.0336" x2="349.211" y2="146.915" gradientUnits="userSpaceOnUse">
<stop stop-color="white"/>
<stop offset="1" stop-color="#E6E8EC"/>
</linearGradient>
<linearGradient id="paint61_linear_1452_8346" x1="302.568" y1="38.1959" x2="337.015" y2="38.1959" gradientUnits="userSpaceOnUse">
<stop stop-color="#FBC93B"/>
<stop offset="1" stop-color="#FB8E31"/>
</linearGradient>
<linearGradient id="paint62_linear_1452_8346" x1="311" y1="46.7011" x2="321.923" y2="73.4116" gradientUnits="userSpaceOnUse">
<stop stop-color="#FBC93B"/>
<stop offset="1" stop-color="#FB8E31"/>
</linearGradient>
<linearGradient id="paint63_linear_1452_8346" x1="172.62" y1="73.6235" x2="215.014" y2="172.589" gradientUnits="userSpaceOnUse">
<stop stop-color="#FBB03B"/>
<stop offset="0.7" stop-color="#FB8E31"/>
</linearGradient>
<linearGradient id="paint64_linear_1452_8346" x1="177.381" y1="93.1939" x2="218.445" y2="154.772" gradientUnits="userSpaceOnUse">
<stop stop-color="#FBC93B"/>
<stop offset="1" stop-color="#FB8E31"/>
</linearGradient>
<linearGradient id="paint65_linear_1452_8346" x1="180.388" y1="82.8999" x2="186.059" y2="115.807" gradientUnits="userSpaceOnUse">
<stop stop-color="#FBC93B"/>
<stop offset="1" stop-color="#FB8E31"/>
</linearGradient>
<linearGradient id="paint66_linear_1452_8346" x1="86.9223" y1="289.303" x2="147.8" y2="66.4471" gradientUnits="userSpaceOnUse">
<stop/>
<stop offset="0.08" stop-color="#000707"/>
<stop offset="0.21" stop-color="#031A1D"/>
<stop offset="0.36" stop-color="#063A41"/>
<stop offset="0.53" stop-color="#0B6672"/>
<stop offset="0.73" stop-color="#129FB2"/>
<stop offset="0.94" stop-color="#1AE5FF"/>
</linearGradient>
<linearGradient id="paint67_linear_1452_8346" x1="116.363" y1="165.869" x2="135.547" y2="95.6444" gradientUnits="userSpaceOnUse">
<stop/>
<stop offset="0.08" stop-color="#000707"/>
<stop offset="0.21" stop-color="#031A1D"/>
<stop offset="0.36" stop-color="#063A41"/>
<stop offset="0.53" stop-color="#0B6672"/>
<stop offset="0.73" stop-color="#129FB2"/>
<stop offset="0.94" stop-color="#1AE5FF"/>
</linearGradient>
<linearGradient id="paint68_linear_1452_8346" x1="557.075" y1="383.131" x2="617.987" y2="160.274" gradientUnits="userSpaceOnUse">
<stop/>
<stop offset="0.08" stop-color="#000707"/>
<stop offset="0.21" stop-color="#031A1D"/>
<stop offset="0.36" stop-color="#063A41"/>
<stop offset="0.53" stop-color="#0B6672"/>
<stop offset="0.73" stop-color="#129FB2"/>
<stop offset="0.94" stop-color="#1AE5FF"/>
</linearGradient>
<linearGradient id="paint69_linear_1452_8346" x1="586.516" y1="259.659" x2="605.7" y2="189.469" gradientUnits="userSpaceOnUse">
<stop/>
<stop offset="0.08" stop-color="#000707"/>
<stop offset="0.21" stop-color="#031A1D"/>
<stop offset="0.36" stop-color="#063A41"/>
<stop offset="0.53" stop-color="#0B6672"/>
<stop offset="0.73" stop-color="#129FB2"/>
<stop offset="0.94" stop-color="#1AE5FF"/>
</linearGradient>
<linearGradient id="paint70_linear_1452_8346" x1="62.5874" y1="257.132" x2="102.846" y2="109.682" gradientUnits="userSpaceOnUse">
<stop/>
<stop offset="0.08" stop-color="#000707"/>
<stop offset="0.21" stop-color="#031A1D"/>
<stop offset="0.36" stop-color="#063A41"/>
<stop offset="0.53" stop-color="#0B6672"/>
<stop offset="0.73" stop-color="#129FB2"/>
<stop offset="0.94" stop-color="#1AE5FF"/>
</linearGradient>
<linearGradient id="paint71_linear_1452_8346" x1="82.053" y1="175.461" x2="94.7606" y2="129.006" gradientUnits="userSpaceOnUse">
<stop/>
<stop offset="0.08" stop-color="#000707"/>
<stop offset="0.21" stop-color="#031A1D"/>
<stop offset="0.36" stop-color="#063A41"/>
<stop offset="0.53" stop-color="#0B6672"/>
<stop offset="0.73" stop-color="#129FB2"/>
<stop offset="0.94" stop-color="#1AE5FF"/>
</linearGradient>
<linearGradient id="paint72_linear_1452_8346" x1="0.278948" y1="406.578" x2="40.5724" y2="259.162" gradientUnits="userSpaceOnUse">
<stop/>
<stop offset="0.08" stop-color="#000707"/>
<stop offset="0.21" stop-color="#031A1D"/>
<stop offset="0.36" stop-color="#063A41"/>
<stop offset="0.53" stop-color="#0B6672"/>
<stop offset="0.73" stop-color="#129FB2"/>
<stop offset="0.94" stop-color="#1AE5FF"/>
</linearGradient>
<linearGradient id="paint73_linear_1452_8346" x1="19.7796" y1="324.907" x2="32.4522" y2="278.488" gradientUnits="userSpaceOnUse">
<stop/>
<stop offset="0.08" stop-color="#000707"/>
<stop offset="0.21" stop-color="#031A1D"/>
<stop offset="0.36" stop-color="#063A41"/>
<stop offset="0.53" stop-color="#0B6672"/>
<stop offset="0.73" stop-color="#129FB2"/>
<stop offset="0.94" stop-color="#1AE5FF"/>
</linearGradient>
<linearGradient id="paint74_linear_1452_8346" x1="583.74" y1="387.107" x2="623.998" y2="239.656" gradientUnits="userSpaceOnUse">
<stop/>
<stop offset="0.08" stop-color="#000707"/>
<stop offset="0.21" stop-color="#031A1D"/>
<stop offset="0.36" stop-color="#063A41"/>
<stop offset="0.53" stop-color="#0B6672"/>
<stop offset="0.73" stop-color="#129FB2"/>
<stop offset="0.94" stop-color="#1AE5FF"/>
</linearGradient>
<linearGradient id="paint75_linear_1452_8346" x1="603.205" y1="305.436" x2="615.913" y2="258.981" gradientUnits="userSpaceOnUse">
<stop/>
<stop offset="0.08" stop-color="#000707"/>
<stop offset="0.21" stop-color="#031A1D"/>
<stop offset="0.36" stop-color="#063A41"/>
<stop offset="0.53" stop-color="#0B6672"/>
<stop offset="0.73" stop-color="#129FB2"/>
<stop offset="0.94" stop-color="#1AE5FF"/>
</linearGradient>
<linearGradient id="paint76_linear_1452_8346" x1="317.83" y1="408.153" x2="329.803" y2="627.684" gradientUnits="userSpaceOnUse">
<stop stop-color="#2CE7C7"/>
<stop offset="1" stop-color="#0079FF"/>
</linearGradient>
<linearGradient id="paint77_linear_1452_8346" x1="246.553" y1="400.033" x2="259.155" y2="631.186" gradientUnits="userSpaceOnUse">
<stop stop-color="#00CCFF"/>
<stop offset="1" stop-color="#6B40EA"/>
</linearGradient>
<linearGradient id="paint78_linear_1452_8346" x1="330.952" y1="469.557" x2="55.8644" y2="450.583" gradientUnits="userSpaceOnUse">
<stop stop-color="#1AE5FF"/>
<stop offset="0.26" stop-color="#63E8F8"/>
<stop offset="0.7" stop-color="#EAEEEE"/>
</linearGradient>
<clipPath id="clip0_1452_8346">
<rect width="649" height="548.564" fill="white"/>
</clipPath>
</defs>
</svg>
