<svg width="67" height="67" viewBox="0 0 67 67" fill="none" xmlns="http://www.w3.org/2000/svg">
<rect opacity="0.15" width="66.4236" height="66.4236" rx="33.2118" fill="#1EE2CF"/>
<path fill-rule="evenodd" clip-rule="evenodd" d="M32.5648 15.0001C32.5251 15.0003 32.4854 15.0026 32.4459 15.0069C32.1568 15.0399 31.8902 15.1794 31.6984 15.3983C31.5065 15.6172 31.4031 15.8998 31.4084 16.1908V18.531C31.4049 18.6869 31.4326 18.8419 31.4899 18.9868C31.5471 19.1318 31.6328 19.2639 31.7418 19.3754C31.8508 19.4868 31.9809 19.5754 32.1246 19.6358C32.2683 19.6963 32.4226 19.7274 32.5785 19.7274C32.7344 19.7274 32.8887 19.6963 33.0324 19.6358C33.1761 19.5754 33.3062 19.4868 33.4152 19.3754C33.5242 19.2639 33.6099 19.1318 33.6671 18.9868C33.7244 18.8419 33.7521 18.6869 33.7486 18.531V16.1908C33.7514 16.0342 33.7227 15.8787 33.6643 15.7335C33.6058 15.5882 33.5188 15.4562 33.4084 15.3451C33.2981 15.2341 33.1665 15.1464 33.0216 15.0871C32.8767 15.0278 32.7213 14.9982 32.5648 15.0001ZM20.9823 19.804C20.9419 19.8042 20.9014 19.8065 20.8612 19.8109C20.6405 19.8348 20.4311 19.921 20.2575 20.0595C20.0839 20.198 19.9533 20.383 19.8809 20.5929C19.8085 20.8028 19.7974 21.029 19.8488 21.245C19.9001 21.4611 20.0119 21.658 20.171 21.8129L21.8211 23.4721C21.9292 23.5848 22.0586 23.6747 22.2019 23.7367C22.3452 23.7987 22.4995 23.8314 22.6556 23.833C22.8117 23.8346 22.9666 23.805 23.1111 23.7459C23.2557 23.6868 23.3869 23.5995 23.4973 23.489C23.6076 23.3786 23.6947 23.2472 23.7536 23.1025C23.8125 22.9579 23.8419 22.803 23.8401 22.6469C23.8383 22.4908 23.8053 22.3366 23.7432 22.1934C23.681 22.0502 23.5908 21.9208 23.478 21.8129L21.8211 20.1651C21.7126 20.0518 21.5825 19.9614 21.4384 19.8994C21.2943 19.8373 21.1392 19.8049 20.9823 19.804ZM44.1404 19.8109C43.8372 19.8205 43.5496 19.9475 43.3382 20.1651L41.679 21.8152C41.5663 21.9232 41.4763 22.0527 41.4144 22.196C41.3524 22.3393 41.3196 22.4936 41.3181 22.6497C41.3165 22.8058 41.3461 22.9607 41.4052 23.1052C41.4642 23.2497 41.5516 23.381 41.6621 23.4913C41.7725 23.6017 41.9039 23.6888 42.0485 23.7477C42.1931 23.8066 42.3481 23.836 42.5042 23.8342C42.6603 23.8324 42.8145 23.7994 42.9577 23.7373C43.1009 23.6751 43.2303 23.5849 43.3382 23.4721L44.986 21.8152C45.1531 21.6508 45.267 21.44 45.313 21.2102C45.3589 20.9803 45.3347 20.7419 45.2436 20.526C45.1525 20.31 44.9986 20.1263 44.8019 19.9988C44.6052 19.8713 44.3747 19.8059 44.1404 19.8109ZM32.5785 22.0414C26.7762 22.0414 22.0474 26.7703 22.0473 32.5726C22.0473 36.1964 23.9323 39.344 26.7279 41.2366V44.2739C26.7279 44.9201 27.2518 45.444 27.898 45.444H37.259C37.9052 45.444 38.4291 44.9201 38.4291 44.2739V41.2366C41.2247 39.344 43.1097 36.1964 43.1097 32.5726C43.1097 26.7703 38.3808 22.0414 32.5785 22.0414ZM32.5739 26.7197C32.8846 26.7197 33.1825 26.8431 33.4021 27.0627C33.6218 27.2824 33.7452 27.5803 33.7452 27.8909C33.7452 28.2016 33.6218 28.4995 33.4021 28.7191C33.1825 28.9388 32.8846 29.0622 32.5739 29.0622C30.6213 29.0622 29.0681 30.6246 29.0681 32.5772C29.0681 32.8878 28.9447 33.1857 28.7251 33.4054C28.5054 33.625 28.2075 33.7484 27.8968 33.7484C27.5862 33.7484 27.2883 33.625 27.0686 33.4054C26.849 33.1857 26.7256 32.8878 26.7256 32.5772C26.7256 29.3598 29.3566 26.7197 32.5739 26.7197ZM16.1967 31.4025C16.0408 31.399 15.8858 31.4266 15.7408 31.4839C15.5958 31.5411 15.4636 31.6267 15.3522 31.7357C15.2407 31.8447 15.1521 31.9749 15.0916 32.1186C15.0312 32.2623 15 32.4167 15 32.5726C15 32.7285 15.0312 32.8828 15.0916 33.0265C15.1521 33.1703 15.2407 33.3004 15.3522 33.4094C15.4636 33.5184 15.5958 33.6041 15.7408 33.6613C15.8858 33.7185 16.0408 33.7462 16.1967 33.7427H18.5392C18.6951 33.7462 18.8501 33.7185 18.9951 33.6613C19.1402 33.6041 19.2723 33.5184 19.3838 33.4094C19.4953 33.3004 19.5838 33.1703 19.6443 33.0265C19.7048 32.8828 19.7359 32.7285 19.7359 32.5726C19.7359 32.4167 19.7048 32.2623 19.6443 32.1186C19.5838 31.9749 19.4953 31.8447 19.3838 31.7357C19.2723 31.6267 19.1402 31.5411 18.9951 31.4839C18.8501 31.4266 18.6951 31.399 18.5392 31.4025H16.1967ZM46.6201 31.4025C46.4642 31.399 46.3092 31.4266 46.1641 31.4839C46.0191 31.5411 45.887 31.6267 45.7755 31.7357C45.664 31.8447 45.5755 31.9749 45.515 32.1186C45.4545 32.2623 45.4234 32.4167 45.4234 32.5726C45.4234 32.7285 45.4545 32.8828 45.515 33.0265C45.5755 33.1703 45.664 33.3004 45.7755 33.4094C45.887 33.5184 46.0191 33.6041 46.1641 33.6613C46.3092 33.7185 46.4642 33.7462 46.6201 33.7427H48.9603C49.1162 33.7462 49.2712 33.7185 49.4162 33.6613C49.5612 33.6041 49.6934 33.5184 49.8049 33.4094C49.9163 33.3004 50.0049 33.1703 50.0654 33.0265C50.1259 32.8828 50.157 32.7285 50.157 32.5726C50.157 32.4167 50.1259 32.2623 50.0654 32.1186C50.0049 31.9749 49.9163 31.8447 49.8049 31.7357C49.6934 31.6267 49.5612 31.5411 49.4162 31.4839C49.2712 31.4266 49.1162 31.399 48.9603 31.4025H46.6201ZM22.6393 41.3166C22.6339 41.3173 22.6286 41.318 22.6233 41.3188C22.3201 41.3285 22.0325 41.4555 21.8211 41.6731L20.171 43.33C20.0485 43.4349 19.9491 43.564 19.8789 43.7092C19.8086 43.8544 19.7692 44.0125 19.763 44.1737C19.7567 44.3348 19.7839 44.4955 19.8427 44.6457C19.9016 44.7958 19.9908 44.9322 20.1049 45.0462C20.2189 45.1603 20.3553 45.2495 20.5054 45.3083C20.6556 45.3672 20.8163 45.3943 20.9774 45.3881C21.1386 45.3819 21.2967 45.3425 21.4419 45.2722C21.5871 45.202 21.7162 45.1025 21.8211 44.9801L23.478 43.33C23.6479 43.1666 23.7646 42.9557 23.8126 42.7248C23.8606 42.494 23.8378 42.2541 23.7471 42.0365C23.6565 41.8188 23.5022 41.6337 23.3045 41.5052C23.1068 41.3767 22.875 41.311 22.6393 41.3166ZM42.4995 41.3188C42.2658 41.3175 42.0371 41.3862 41.8428 41.5159C41.6485 41.6457 41.4975 41.8307 41.4093 42.047C41.321 42.2634 41.2995 42.5012 41.3476 42.7298C41.3957 42.9585 41.5111 43.1675 41.679 43.33L43.3382 44.9801C43.4427 45.104 43.5718 45.2049 43.7173 45.2763C43.8629 45.3477 44.0217 45.3881 44.1836 45.3949C44.3456 45.4017 44.5072 45.3748 44.6582 45.3159C44.8092 45.257 44.9464 45.1673 45.0609 45.0526C45.1755 44.9379 45.2649 44.8007 45.3237 44.6495C45.3824 44.4984 45.409 44.3368 45.402 44.1748C45.395 44.0129 45.3543 43.8542 45.2827 43.7087C45.2111 43.5633 45.1101 43.4343 44.986 43.33L43.3382 41.6731C43.2292 41.561 43.0988 41.4719 42.9547 41.411C42.8106 41.3502 42.6558 41.3188 42.4995 41.3188ZM30.1263 47.7865C30.1247 47.7873 30.1232 47.7881 30.1217 47.7888C29.8162 47.8115 29.5317 47.9528 29.3291 48.1826C29.1266 48.4123 29.022 48.7123 29.0378 49.0182C29.0537 49.3241 29.1886 49.6117 29.4139 49.8193C29.6391 50.0269 29.9366 50.1381 30.2428 50.1291H34.9142C35.0701 50.1326 35.2251 50.1049 35.3701 50.0477C35.5151 49.9904 35.6473 49.9048 35.7587 49.7958C35.8702 49.6868 35.9588 49.5566 36.0193 49.4129C36.0797 49.2692 36.1109 49.1149 36.1109 48.959C36.1109 48.803 36.0797 48.6487 36.0193 48.505C35.9588 48.3613 35.8702 48.2311 35.7587 48.1221C35.6473 48.0131 35.5151 47.9275 35.3701 47.8702C35.2251 47.813 35.0701 47.7853 34.9142 47.7888H30.2428C30.204 47.7861 30.1651 47.7854 30.1263 47.7865Z" fill="#1EE2CF"/>
</svg>
