<svg width="29" height="26" viewBox="0 0 29 26" fill="none" xmlns="http://www.w3.org/2000/svg">
<path d="M4.22605 17.4964C3.2808 17.4964 2.37427 17.1209 1.70588 16.4525C1.03749 15.7841 0.661987 14.8776 0.661987 13.9323V11.3403C0.661987 10.395 1.03749 9.48849 1.70588 8.8201C2.37427 8.15171 3.2808 7.77621 4.22605 7.77621H5.52207C5.77882 7.77957 6.02411 7.88306 6.20568 8.06462C6.38724 8.24619 6.49073 8.49148 6.49408 8.74823V15.2283C6.49068 15.8288 6.25064 16.4037 5.82603 16.8283C5.40143 17.2529 4.82652 17.493 4.22605 17.4964ZM4.22605 9.72025C3.79639 9.72025 3.38433 9.89093 3.08051 10.1947C2.7767 10.4986 2.60602 10.9106 2.60602 11.3403V13.9323C2.60602 14.362 2.7767 14.774 3.08051 15.0778C3.38433 15.3817 3.79639 15.5523 4.22605 15.5523C4.31198 15.5523 4.39439 15.5182 4.45515 15.4574C4.51592 15.3967 4.55005 15.3143 4.55005 15.2283V9.72025H4.22605Z" fill="black"/>
<path d="M24.9631 17.4964H23.6671C23.4104 17.493 23.1651 17.3895 22.9835 17.208C22.8019 17.0264 22.6985 16.7811 22.6951 16.5244V8.74823C22.6985 8.49148 22.8019 8.24619 22.9835 8.06462C23.1651 7.88306 23.4104 7.77957 23.6671 7.77621H24.9631C25.9084 7.77621 26.8149 8.15171 27.4833 8.8201C28.1517 9.48849 28.5272 10.395 28.5272 11.3403V13.9323C28.5272 14.8776 28.1517 15.7841 27.4833 16.4525C26.8149 17.1209 25.9084 17.4964 24.9631 17.4964ZM24.6391 15.5523H24.9631C25.3928 15.5523 25.8049 15.3817 26.1087 15.0778C26.4125 14.774 26.5832 14.362 26.5832 13.9323V11.3403C26.5832 10.9106 26.4125 10.4986 26.1087 10.1947C25.8049 9.89093 25.3928 9.72025 24.9631 9.72025H24.6391V15.5523Z" fill="black"/>
<path d="M23.6662 11.0163C23.4094 11.0129 23.1641 10.9095 22.9825 10.7279C22.801 10.5463 22.6975 10.301 22.6941 10.0443C22.6941 7.896 21.8407 5.8357 20.3217 4.31663C18.8026 2.79756 16.7423 1.94415 14.594 1.94415C12.4457 1.94415 10.3854 2.79756 8.86634 4.31663C7.34727 5.8357 6.49387 7.896 6.49387 10.0443C6.49387 10.3021 6.39146 10.5493 6.20917 10.7316C6.02688 10.9139 5.77965 11.0163 5.52185 11.0163C5.26406 11.0163 5.01682 10.9139 4.83453 10.7316C4.65224 10.5493 4.54984 10.3021 4.54984 10.0443C4.54984 7.38041 5.60806 4.82564 7.4917 2.94199C9.37535 1.05834 11.9301 0.00012207 14.594 0.00012207C17.2579 0.00012207 19.8127 1.05834 21.6963 2.94199C23.5799 4.82564 24.6382 7.38041 24.6382 10.0443C24.6348 10.301 24.5313 10.5463 24.3498 10.7279C24.1682 10.9095 23.9229 11.0129 23.6662 11.0163Z" fill="black"/>
<path d="M18.482 23.9764H15.89C15.6322 23.9764 15.385 23.874 15.2027 23.6917C15.0204 23.5094 14.918 23.2622 14.918 23.0044C14.918 22.7466 15.0204 22.4993 15.2027 22.317C15.385 22.1348 15.6322 22.0324 15.89 22.0324H18.482C19.5981 22.0289 20.6675 21.5841 21.4566 20.7949C22.2458 20.0057 22.6907 18.9363 22.6941 17.8203V16.5243C22.6941 16.2665 22.7965 16.0192 22.9788 15.8369C23.1611 15.6547 23.4083 15.5522 23.6661 15.5522C23.9239 15.5522 24.1711 15.6547 24.3534 15.8369C24.5357 16.0192 24.6381 16.2665 24.6381 16.5243V17.8203C24.6381 19.453 23.9895 21.0188 22.835 22.1733C21.6806 23.3278 20.1147 23.9764 18.482 23.9764Z" fill="black"/>
<path d="M14.5935 17.8204C13.5974 17.8758 12.618 17.5461 11.8581 16.8996C11.0982 16.2531 10.616 15.3392 10.5111 14.347C10.4992 14.2194 10.5125 14.0906 10.5503 13.9681C10.5882 13.8457 10.6498 13.7318 10.7316 13.6331C10.8135 13.5344 10.9139 13.4528 11.0273 13.393C11.1407 13.3331 11.2647 13.2962 11.3924 13.2843C11.52 13.2724 11.6488 13.2857 11.7713 13.3236C11.8937 13.3614 12.0076 13.423 12.1063 13.5048C12.2049 13.5867 12.2865 13.6871 12.3464 13.8005C12.4063 13.9139 12.4432 14.0379 12.4551 14.1656C12.5201 14.6724 12.7795 15.1341 13.1784 15.4533C13.5774 15.7725 14.0848 15.9242 14.5935 15.8763C15.1023 15.9242 15.6097 15.7725 16.0086 15.4533C16.4076 15.1341 16.667 14.6724 16.732 14.1656C16.7439 14.0379 16.7808 13.9139 16.8407 13.8005C16.9005 13.6871 16.9821 13.5867 17.0808 13.5048C17.1795 13.423 17.2933 13.3614 17.4158 13.3236C17.5383 13.2857 17.6671 13.2724 17.7947 13.2843C17.9224 13.2962 18.0464 13.3331 18.1598 13.393C18.2732 13.4528 18.3736 13.5344 18.4555 13.6331C18.5373 13.7318 18.5989 13.8457 18.6367 13.9681C18.6746 14.0906 18.6879 14.2194 18.676 14.347C18.5711 15.3392 18.0888 16.2531 17.329 16.8996C16.5691 17.5461 15.5897 17.8758 14.5935 17.8204Z" fill="black"/>
<path d="M14.5943 25.2726H13.2983C12.6968 25.2726 12.1199 25.0337 11.6946 24.6084C11.2692 24.183 11.0303 23.6061 11.0303 23.0046C11.0303 22.4031 11.2692 21.8262 11.6946 21.4009C12.1199 20.9755 12.6968 20.7366 13.2983 20.7366H14.5943C15.1959 20.7366 15.7727 20.9755 16.1981 21.4009C16.6234 21.8262 16.8624 22.4031 16.8624 23.0046C16.8624 23.6061 16.6234 24.183 16.1981 24.6084C15.7727 25.0337 15.1959 25.2726 14.5943 25.2726ZM13.2983 22.6806C13.2124 22.6806 13.13 22.7147 13.0692 22.7755C13.0084 22.8363 12.9743 22.9187 12.9743 23.0046C12.9743 23.0905 13.0084 23.173 13.0692 23.2337C13.13 23.2945 13.2124 23.3286 13.2983 23.3286H14.5943C14.6803 23.3286 14.7627 23.2945 14.8234 23.2337C14.8842 23.173 14.9183 23.0905 14.9183 23.0046C14.9183 22.9187 14.8842 22.8363 14.8234 22.7755C14.7627 22.7147 14.6803 22.6806 14.5943 22.6806H13.2983Z" fill="black"/>
<path d="M12.0031 10.0444C12.7188 10.0444 13.2991 9.46419 13.2991 8.74841C13.2991 8.03264 12.7188 7.45239 12.0031 7.45239C11.2873 7.45239 10.707 8.03264 10.707 8.74841C10.707 9.46419 11.2873 10.0444 12.0031 10.0444Z" fill="black"/>
<path d="M17.1857 10.0444C17.9014 10.0444 18.4817 9.46419 18.4817 8.74841C18.4817 8.03264 17.9014 7.45239 17.1857 7.45239C16.4699 7.45239 15.8896 8.03264 15.8896 8.74841C15.8896 9.46419 16.4699 10.0444 17.1857 10.0444Z" fill="black"/>
</svg>
