<svg width="26" height="26" viewBox="0 0 26 26" fill="none" xmlns="http://www.w3.org/2000/svg">
<path d="M22.7926 15.1757C22.0803 14.4647 21.1149 14.0653 20.1084 14.0653C19.1019 14.0653 18.1365 14.4647 17.4242 15.1757L16.2832 16.3168C16.005 16.5976 15.6413 16.778 15.2494 16.8297C14.8575 16.8813 14.4595 16.8012 14.1181 16.602C12.0352 15.3619 10.2918 13.6253 9.04343 11.5473C8.84515 11.2066 8.76558 10.8097 8.81721 10.4189C8.86884 10.0281 9.04873 9.66549 9.32868 9.38796L10.4697 8.24694C11.1807 7.53459 11.5801 6.56921 11.5801 5.56271C11.5801 4.55621 11.1807 3.59083 10.4697 2.87848L8.72965 1.11276C8.3773 0.76 7.95887 0.48015 7.49829 0.289214C7.03771 0.0982779 6.54401 0 6.04542 0C5.54683 0 5.05313 0.0982779 4.59255 0.289214C4.13197 0.48015 3.71354 0.76 3.36119 1.11276L2.32572 2.14823C0.306126 4.16782 -0.435532 7.1858 0.24337 10.6488C0.890895 13.972 2.77927 17.3237 5.55764 20.1049C9.16324 23.7077 13.6075 25.6388 17.4356 25.6388C19.8174 25.6388 21.9597 24.8915 23.5143 23.3368L24.5498 22.3014C24.9025 21.949 25.1824 21.5306 25.3733 21.07C25.5643 20.6094 25.6625 20.1157 25.6625 19.6171C25.6625 19.1185 25.5643 18.6248 25.3733 18.1643C25.1824 17.7037 24.9025 17.2853 24.5498 16.9329L22.7926 15.1757ZM23.1378 20.8808L22.1023 21.9248C20.5677 23.4595 18.1858 24.0043 15.3989 23.4595C12.4665 22.889 9.47416 21.1946 6.96964 18.6929C4.46512 16.1912 2.77357 13.1961 2.20306 10.2637C1.65823 7.47676 2.20306 5.0949 3.73772 3.56023L4.77319 2.52476C4.94012 2.35744 5.13842 2.22469 5.35673 2.13411C5.57503 2.04354 5.80907 1.99692 6.04542 1.99692C6.28177 1.99692 6.5158 2.04354 6.73411 2.13411C6.95242 2.22469 7.15072 2.35744 7.31765 2.52476L9.07481 4.27337C9.41204 4.61088 9.60147 5.06848 9.60147 5.5456C9.60147 6.02271 9.41204 6.48031 9.07481 6.81782L7.93379 7.95884C7.34269 8.54568 6.96251 9.31171 6.85259 10.1374C6.74268 10.963 6.90921 11.8018 7.32621 12.5229C8.7362 14.9188 10.7279 16.9203 13.1168 18.3421C13.8377 18.7589 14.6762 18.9257 15.5018 18.8163C16.3273 18.7069 17.0935 18.3275 17.6809 17.7373L18.8219 16.5963C19.1594 16.2591 19.617 16.0696 20.0941 16.0696C20.5713 16.0696 21.0289 16.2591 21.3664 16.5963L23.1235 18.3535C23.4601 18.6887 23.6504 19.1434 23.6531 19.6185C23.6557 20.0935 23.4705 20.5503 23.1378 20.8894V20.8808Z" fill="black"/>
</svg>
