<svg width="12" height="11" viewBox="0 0 12 11" fill="none" xmlns="http://www.w3.org/2000/svg">
<path d="M6.859 3.15568C7.28335 2.89957 7.64708 2.82424 7.95019 2.9297C8.2533 3.03516 8.42001 3.2536 8.45032 3.58504C8.49578 3.91648 8.41243 4.30065 8.20025 4.73754C7.45764 6.12355 6.91962 6.81656 6.58621 6.81656C6.43465 6.81656 6.29068 6.64331 6.15428 6.2968C6.01788 5.93524 5.84359 5.34016 5.63142 4.51156C5.58595 4.28558 5.52533 3.94661 5.44955 3.49465C5.37377 3.04269 5.298 2.65852 5.22222 2.34215C5.1616 2.02578 5.07067 1.70187 4.94942 1.37043C4.82818 1.039 4.65389 0.805483 4.42656 0.669894C4.21439 0.519241 3.95675 0.474045 3.65364 0.534306C3.21413 0.624698 2.70643 0.895875 2.13052 1.34784C1.55462 1.78473 1.07722 2.19903 0.698338 2.59073C0.334609 2.96736 0.160322 3.16321 0.175477 3.17828L0.652872 3.78842C0.683183 3.77336 0.713494 3.75076 0.743804 3.72063C0.789271 3.6905 0.872625 3.63777 0.993868 3.56244C1.13027 3.48712 1.25151 3.42685 1.3576 3.38166C1.46369 3.33646 1.56977 3.31386 1.67586 3.31386C1.7971 3.31386 1.88804 3.35153 1.94866 3.42685C2.0699 3.56244 2.39574 4.50403 2.92618 6.25161C3.47177 7.99919 3.80519 9.00104 3.92644 9.25715C4.06283 9.54339 4.2447 9.7995 4.47203 10.0255C4.71452 10.2364 5.00247 10.3946 5.33589 10.5C5.6693 10.6055 6.01788 10.5377 6.38161 10.2967C6.71503 10.0707 7.12422 9.74677 7.60919 9.32494C8.09417 8.88805 8.63218 8.34569 9.22324 7.69788C9.8143 7.05007 10.3447 6.2968 10.8146 5.43808C11.2844 4.56429 11.5951 3.70556 11.7466 2.8619C11.9588 1.67174 11.6481 0.91094 10.8146 0.579502C10.0871 0.278195 9.29144 0.383653 8.42758 0.895875C7.53342 1.42316 7.01056 2.17643 6.859 3.15568Z" fill="#82868C"/>
</svg>
