<svg width="10" height="10" viewBox="0 0 10 10" fill="none" xmlns="http://www.w3.org/2000/svg">
<path d="M9.28201 8.97984L5.93126 4.22285L5.55244 3.68485L3.15555 0.282001L2.95697 0H0.0117188L0.730037 1.02007L3.91697 5.54508L4.29578 6.08251L6.85641 9.71825L7.05508 10H10.0003L9.28201 8.97993V8.97984ZM7.4051 9.34888L4.74481 5.57173L4.36599 5.03406L1.27898 0.651036H2.60686L5.10334 4.19562L5.48215 4.7333L8.73298 9.3488H7.4051V9.34888Z" fill="#9497A3"/>
<path d="M4.36581 5.03418L4.74462 5.57186L4.29551 6.08263L0.849725 10.0001H0L3.9167 5.5452L4.36581 5.03418Z" fill="#9497A3"/>
<path d="M9.64585 0L5.93144 4.22285L5.48233 4.7333L5.10352 4.19562L5.55262 3.68485L8.06871 0.822968L8.79612 0H9.64585Z" fill="#9497A3"/>
</svg>
