<svg width="12" height="12" viewBox="0 0 12 12" fill="none" xmlns="http://www.w3.org/2000/svg">
<path d="M0.607875 3.53294H3.05866V11.4976H0.607875V3.53294ZM8.08922 3.53294C7.96883 3.53294 7.84844 3.54049 7.72805 3.55557C7.62486 3.57066 7.52167 3.59328 7.41848 3.62345C7.31529 3.65362 7.22929 3.68379 7.1605 3.71396C7.09171 3.72904 7.00571 3.76675 6.90252 3.82709C6.79933 3.87235 6.73054 3.90252 6.69614 3.9176C6.67894 3.93268 6.61875 3.97794 6.51556 4.05336C6.41237 4.12878 6.36077 4.16649 6.36077 4.16649V3.53294H3.90999V11.4976H6.36077V6.47442C6.36077 6.45934 6.36077 6.42917 6.36077 6.38392C6.36077 6.33866 6.37797 6.2557 6.41237 6.13502C6.46396 6.01435 6.52416 5.9163 6.59295 5.84087C6.67894 5.75037 6.80793 5.6674 6.97992 5.59198C7.1691 5.51656 7.38408 5.47885 7.62486 5.47885C8.03762 5.47885 8.3386 5.56935 8.52778 5.75037C8.73416 5.93138 8.83735 6.17273 8.83735 6.47442V11.4976H11.4429V6.56493C11.4429 6.03697 11.3483 5.58444 11.1591 5.20732C10.97 4.81513 10.7464 4.52098 10.4884 4.32488C10.2476 4.1137 9.95525 3.94777 9.61128 3.82709C9.28451 3.69133 9.00074 3.60837 8.75996 3.5782C8.53638 3.54803 8.3128 3.53294 8.08922 3.53294ZM0.943245 0.953493C0.702466 1.16468 0.582077 1.42111 0.582077 1.7228C0.582077 2.02449 0.702466 2.28093 0.943245 2.49211C1.18402 2.7033 1.4764 2.80889 1.82037 2.80889C2.16434 2.80889 2.45671 2.7033 2.69749 2.49211C2.93827 2.28093 3.05866 2.02449 3.05866 1.7228C3.05866 1.42111 2.93827 1.16468 2.69749 0.953493C2.45671 0.74231 2.16434 0.636719 1.82037 0.636719C1.4764 0.636719 1.18402 0.74231 0.943245 0.953493Z" fill="#9497A3"/>
</svg>
