<svg width="26" height="26" viewBox="0 0 26 26" fill="none" xmlns="http://www.w3.org/2000/svg">
<path d="M22.5314 0.000213623H17.3318C15.4166 0.000213623 13.8654 1.55143 13.8654 3.46661V8.6662C13.8654 10.5814 15.4166 12.1326 17.3318 12.1326H22.5314C24.4466 12.1326 25.9978 10.5814 25.9978 8.6662V3.46661C25.9978 1.55143 24.4466 0.000213623 22.5314 0.000213623ZM24.2646 8.6662C24.2646 9.61946 23.4846 10.3994 22.5314 10.3994H17.3318C16.3785 10.3994 15.5986 9.61946 15.5986 8.6662V3.46661C15.5986 2.51335 16.3785 1.73341 17.3318 1.73341H22.5314C23.4846 1.73341 24.2646 2.51335 24.2646 3.46661V8.6662Z" fill="#011839"/>
<path d="M8.6658 13.8658H3.46621C1.55103 13.8658 -0.00018692 15.417 -0.00018692 17.3322V22.5318C-0.00018692 24.447 1.55103 25.9982 3.46621 25.9982H8.6658C10.581 25.9982 12.1322 24.447 12.1322 22.5318V17.3322C12.1322 15.417 10.581 13.8658 8.6658 13.8658ZM10.399 22.5318C10.399 23.485 9.61906 24.265 8.6658 24.265H3.46621C2.51295 24.265 1.73301 23.485 1.73301 22.5318V17.3322C1.73301 16.3789 2.51295 15.599 3.46621 15.599H8.6658C9.61906 15.599 10.399 16.3789 10.399 17.3322V22.5318Z" fill="#011839"/>
<path d="M22.5314 13.8658H17.3318C15.4166 13.8658 13.8654 15.417 13.8654 17.3322V22.5318C13.8654 24.447 15.4166 25.9982 17.3318 25.9982H22.5314C24.4466 25.9982 25.9978 24.447 25.9978 22.5318V17.3322C25.9978 15.417 24.4466 13.8658 22.5314 13.8658ZM24.2646 22.5318C24.2646 23.485 23.4846 24.265 22.5314 24.265H17.3318C16.3785 24.265 15.5986 23.485 15.5986 22.5318V17.3322C15.5986 16.3789 16.3785 15.599 17.3318 15.599H22.5314C23.4846 15.599 24.2646 16.3789 24.2646 17.3322V22.5318Z" fill="#011839"/>
<path d="M8.6658 0.00012207H3.46621C1.55177 0.00012207 -0.00018692 1.55208 -0.00018692 3.46652V8.66611C-0.00018692 10.5806 1.55177 12.1325 3.46621 12.1325H8.6658C10.5802 12.1325 12.1322 10.5806 12.1322 8.66611V3.46652C12.1322 1.55208 10.5802 0.00012207 8.6658 0.00012207Z" fill="#7738C8"/>
</svg>
