<svg width="27" height="26" viewBox="0 0 27 26" fill="none" xmlns="http://www.w3.org/2000/svg">
<path d="M19.4927 15.4988L19.4829 15.5801C17.1008 14.3928 16.8517 14.2347 16.544 14.6961C16.3306 15.0157 15.7088 15.7404 15.5214 15.9549C15.3318 16.1661 15.1433 16.1824 14.8216 16.0361C14.4966 15.8736 13.4534 15.5324 12.2185 14.4275C11.2566 13.5663 10.6109 12.5101 10.4203 12.1851C10.1029 11.637 10.7669 11.559 11.3714 10.4151C11.4797 10.1876 11.4245 10.0088 11.3443 9.84742C11.2631 9.68493 10.6164 8.09253 10.3455 7.45773C10.0856 6.82511 9.81799 6.90527 9.61759 6.90527C8.99362 6.8511 8.53757 6.85977 8.13567 7.27791C6.38728 9.19963 6.82817 11.182 8.32416 13.2901C11.2642 17.1378 12.8306 17.8463 15.6947 18.8299C16.4682 19.0758 17.1734 19.0411 17.7313 18.961C18.3531 18.8624 19.6454 18.1799 19.9151 17.4162C20.1914 16.6525 20.1914 16.0188 20.1101 15.8726C20.03 15.7263 19.8176 15.6451 19.4927 15.4988Z" fill="#29A71A"/>
<path d="M22.756 3.73666C14.4268 -4.31527 0.64217 1.52463 0.636754 12.8838C0.636754 15.1543 1.23147 17.3685 2.36457 19.3238L0.527344 25.9989L7.38985 24.2094C15.9531 28.8349 26.5215 22.6928 26.5258 12.8903C26.5258 9.44982 25.1825 6.21193 22.7398 3.77891L22.756 3.73666ZM24.3614 12.8545C24.3549 21.1231 15.2782 26.2871 8.09939 22.0667L7.70941 21.8348L3.64716 22.891L4.73584 18.9425L4.47694 18.5363C0.00954127 11.4246 5.14207 2.13017 13.6046 2.13017C16.4796 2.13017 19.178 3.25136 21.2102 5.28249C23.2413 7.29628 24.3614 9.9947 24.3614 12.8545Z" fill="#29A71A"/>
</svg>
