<svg width="23" height="23" viewBox="0 0 23 23" fill="none" xmlns="http://www.w3.org/2000/svg">
<path opacity="0.3" d="M1.06053 11.6191L1.98827 12.5957C2.23241 12.8398 2.62303 12.8398 2.81835 12.5957L10.3867 5.02734L10.3867 21.7266C10.3867 22.0195 10.6797 22.3125 10.9726 22.3125L12.3398 22.3125C12.6816 22.3125 12.9258 22.0195 12.9258 21.7266L12.9258 5.02734L20.543 12.5957C20.7383 12.8398 21.1289 12.8398 21.373 12.5957L22.3008 11.6191C22.5449 11.4238 22.5449 11.0332 22.3008 10.7891L12.0957 0.583985C11.8515 0.339844 11.5098 0.339844 11.2656 0.583985L1.06053 10.7891C0.816393 11.0332 0.816393 11.4238 1.06053 11.6191Z" fill="#132047"/>
</svg>
