<svg width="100" height="100" viewBox="0 0 100 100" fill="none" xmlns="http://www.w3.org/2000/svg">
<path d="M38.4653 45.9182C38.4653 46.5935 38.5383 47.141 38.6661 47.5425C38.8121 47.9441 38.9946 48.3821 39.2501 48.8566C39.3414 49.0026 39.3779 49.1487 39.3779 49.2764C39.3779 49.4589 39.2683 49.6414 39.0311 49.824L37.8812 50.5905C37.717 50.7 37.5527 50.7548 37.4067 50.7548C37.2242 50.7548 37.0417 50.6635 36.8592 50.4993C36.6036 50.2255 36.3846 49.9335 36.2021 49.6414C36.0196 49.3312 35.8371 48.9844 35.6363 48.5646C34.2127 50.2437 32.4241 51.0833 30.2704 51.0833C28.7373 51.0833 27.5145 50.6453 26.6201 49.7692C25.7258 48.8931 25.2695 47.725 25.2695 46.2649C25.2695 44.7136 25.8171 43.4542 26.9304 42.5051C28.0437 41.5561 29.5221 41.0815 31.402 41.0815C32.0225 41.0815 32.6613 41.1363 33.3366 41.2276C34.0119 41.3188 34.7055 41.4648 35.4356 41.6291V40.2967C35.4356 38.9096 35.1435 37.9423 34.5777 37.3765C33.9937 36.8107 33.0081 36.5369 31.6028 36.5369C30.964 36.5369 30.3069 36.6099 29.6316 36.7742C28.9563 36.9385 28.2993 37.1392 27.6605 37.3948C27.3684 37.5225 27.1494 37.5955 27.0217 37.632C26.8939 37.6685 26.8026 37.6868 26.7296 37.6868C26.4741 37.6868 26.3464 37.5043 26.3464 37.121V36.2267C26.3464 35.9346 26.3829 35.7156 26.4741 35.5879C26.5654 35.4601 26.7296 35.3324 26.9852 35.2046C27.624 34.8761 28.3905 34.6023 29.2848 34.3833C30.1792 34.146 31.1282 34.0365 32.1321 34.0365C34.304 34.0365 35.8918 34.5293 36.9139 35.5149C37.9177 36.5004 38.4288 37.9971 38.4288 40.0047V45.9182H38.4653ZM31.0552 48.6924C31.6575 48.6924 32.2781 48.5829 32.9351 48.3638C33.5922 48.1448 34.1762 47.7433 34.669 47.1958C34.961 46.849 35.18 46.4657 35.2895 46.0277C35.3991 45.5896 35.4721 45.0603 35.4721 44.4398V43.6732C34.9428 43.5455 34.377 43.436 33.7929 43.363C33.2089 43.29 32.6431 43.2535 32.0773 43.2535C30.8545 43.2535 29.9601 43.4907 29.3578 43.9835C28.7555 44.4763 28.4635 45.1699 28.4635 46.0824C28.4635 46.9402 28.6825 47.579 29.1388 48.0171C29.5769 48.4734 30.2157 48.6924 31.0552 48.6924ZM45.7111 50.6635C45.3826 50.6635 45.1635 50.6088 45.0175 50.481C44.8715 50.3715 44.7438 50.116 44.6343 49.7692L40.3452 35.6609C40.2357 35.2958 40.1809 35.0586 40.1809 34.9308C40.1809 34.6388 40.3269 34.4745 40.619 34.4745H42.4076C42.7544 34.4745 42.9916 34.5293 43.1194 34.6571C43.2654 34.7666 43.3749 35.0221 43.4844 35.3689L46.5507 47.4513L49.3979 35.3689C49.4891 35.0038 49.5986 34.7666 49.7446 34.6571C49.8907 34.5475 50.1462 34.4745 50.4747 34.4745H51.9348C52.2816 34.4745 52.5189 34.5293 52.6649 34.6571C52.8109 34.7666 52.9386 35.0221 53.0116 35.3689L55.8954 47.5973L59.0529 35.3689C59.1624 35.0038 59.2901 34.7666 59.4179 34.6571C59.5639 34.5475 59.8012 34.4745 60.1297 34.4745H61.8271C62.1191 34.4745 62.2833 34.6205 62.2833 34.9308C62.2833 35.0221 62.2651 35.1133 62.2468 35.2228C62.2286 35.3324 62.1921 35.4784 62.1191 35.6791L57.7205 49.7875C57.611 50.1525 57.4832 50.3898 57.3372 50.4993C57.1912 50.6088 56.9539 50.6818 56.6437 50.6818H55.0741C54.7273 50.6818 54.49 50.627 54.344 50.4993C54.198 50.3715 54.0702 50.1342 53.9972 49.7692L51.1683 37.9971L48.3575 49.751C48.2663 50.116 48.1568 50.3532 48.0108 50.481C47.8648 50.6088 47.6092 50.6635 47.2807 50.6635H45.7111ZM69.1641 51.1563C68.2151 51.1563 67.266 51.0468 66.3534 50.8278C65.4408 50.6088 64.729 50.3715 64.2545 50.0977C63.9625 49.9335 63.7617 49.751 63.6887 49.5867C63.6157 49.4224 63.5792 49.2399 63.5792 49.0756V48.1448C63.5792 47.7615 63.7252 47.579 63.999 47.579C64.1085 47.579 64.218 47.5973 64.3275 47.6338C64.437 47.6703 64.6013 47.7433 64.7838 47.8163C65.4043 48.0901 66.0796 48.3091 66.7914 48.4551C67.5215 48.6011 68.2333 48.6741 68.9634 48.6741C70.1132 48.6741 71.0075 48.4734 71.6281 48.0718C72.2486 47.6703 72.5771 47.0862 72.5771 46.3379C72.5771 45.8269 72.4129 45.4071 72.0843 45.0603C71.7558 44.7136 71.1353 44.4033 70.241 44.1113L67.5945 43.29C66.2622 42.8702 65.2766 42.2496 64.6743 41.4283C64.072 40.6253 63.7617 39.7309 63.7617 38.7819C63.7617 38.0153 63.926 37.34 64.2545 36.756C64.583 36.1719 65.0211 35.6609 65.5686 35.2593C66.1161 34.8396 66.7367 34.5293 67.4667 34.3103C68.1968 34.0913 68.9634 34 69.7664 34C70.1679 34 70.5877 34.0183 70.9893 34.073C71.409 34.1278 71.7923 34.2008 72.1756 34.2738C72.5406 34.365 72.8874 34.4563 73.2159 34.5658C73.5445 34.6753 73.8 34.7848 73.9825 34.8943C74.238 35.0403 74.4205 35.1863 74.53 35.3506C74.6395 35.4966 74.6943 35.6974 74.6943 35.9529V36.8107C74.6943 37.194 74.5483 37.3948 74.2745 37.3948C74.1285 37.3948 73.8912 37.3218 73.581 37.1757C72.5406 36.7012 71.3725 36.4639 70.0767 36.4639C69.0364 36.4639 68.2151 36.6282 67.6493 36.975C67.0835 37.3218 66.7914 37.851 66.7914 38.5994C66.7914 39.1104 66.974 39.5484 67.339 39.8952C67.704 40.242 68.3793 40.5888 69.3466 40.899L71.9383 41.7203C73.2524 42.1401 74.2015 42.7242 74.7673 43.4725C75.3331 44.2208 75.6069 45.0786 75.6069 46.0277C75.6069 46.8125 75.4426 47.5243 75.1323 48.1448C74.8038 48.7654 74.3658 49.3129 73.8 49.751C73.2342 50.2072 72.5589 50.5358 71.7741 50.773C70.9528 51.0285 70.0949 51.1563 69.1641 51.1563Z" fill="#252F3E"/>
<path fill-rule="evenodd" clip-rule="evenodd" d="M72.6131 60.0264C66.6084 64.4615 57.8842 66.816 50.3829 66.816C39.8701 66.816 30.3977 62.9284 23.2431 56.4674C22.6773 55.9564 23.1884 55.2628 23.8637 55.6644C31.6022 60.1542 41.1477 62.8737 51.0217 62.8737C57.6835 62.8737 65.0023 61.4865 71.7371 58.6393C72.7409 58.183 73.5987 59.2964 72.6131 60.0264Z" fill="#FF9900"/>
<path fill-rule="evenodd" clip-rule="evenodd" d="M75.1138 57.1792C74.3473 56.1937 70.0399 56.7047 68.087 56.942C67.503 57.015 67.4117 56.5039 67.941 56.1207C71.3723 53.7115 77.012 54.405 77.669 55.2081C78.3261 56.0294 77.4865 61.6691 74.2742 64.3703C73.7815 64.7901 73.3069 64.5711 73.5259 64.0235C74.256 62.2166 75.8804 58.1466 75.1138 57.1792Z" fill="#FF9900"/>
<circle cx="50" cy="50" r="50" fill="#252F3E" fill-opacity="0.1"/>
</svg>
