<svg width="34" height="34" viewBox="0 0 34 34" fill="none" xmlns="http://www.w3.org/2000/svg">
<g clip-path="url(#clip0_0_782)">
<path d="M23.375 21.9583C23.375 20.0047 24.9631 18.4167 26.9167 18.4167C28.8702 18.4167 30.4583 20.0047 30.4583 21.9583C30.4583 23.9119 28.8702 25.5 26.9167 25.5C24.9631 25.5 23.375 23.9119 23.375 21.9583ZM34 31.1667V34H19.8333V31.1667C19.8333 28.8235 21.7402 26.9167 24.0833 26.9167H29.75C32.0932 26.9167 34 28.8235 34 31.1667ZM17 34H0V4.25C0 1.90683 1.90683 0 4.25 0H18.4167C20.7598 0 22.6667 1.90683 22.6667 4.25V17.2408C21.3718 18.4082 20.5417 20.0812 20.5417 21.9583C20.5417 22.95 20.7882 23.8765 21.1933 24.7137C18.7269 25.823 17 28.2922 17 31.1667V34ZM12.75 9.91667H17V7.08333H12.75V9.91667ZM12.75 15.5833H17V12.75H12.75V15.5833ZM12.75 21.25H17V18.4167H12.75V21.25ZM12.75 26.9167H17V24.0833H12.75V26.9167ZM9.91667 24.0833H5.66667V26.9167H9.91667V24.0833ZM9.91667 18.4167H5.66667V21.25H9.91667V18.4167ZM9.91667 12.75H5.66667V15.5833H9.91667V12.75ZM9.91667 7.08333H5.66667V9.91667H9.91667V7.08333Z" fill="#DBDBDB"/>
</g>
<defs>
<clipPath id="clip0_0_782">
<rect width="34" height="34" fill="white"/>
</clipPath>
</defs>
</svg>
