<svg width="60" height="60" viewBox="0 0 60 60" fill="none" xmlns="http://www.w3.org/2000/svg">
<rect opacity="0.15" width="60" height="60" rx="6" fill="#0CD68A"/>
<g clip-path="url(#clip0_25_7)">
<path d="M22.576 34.9811C22.576 34.6017 22.2688 34.2944 21.8894 34.2944H18.4562C18.0768 34.2944 17.7695 34.6017 17.7695 34.9811V40.52C17.7695 40.8994 18.0768 41.2067 18.4562 41.2067H21.8894C22.2688 41.2067 22.576 40.8994 22.576 40.52V34.9811Z" fill="#0CD68A"/>
<path d="M28.114 30.1743H24.6808C24.3014 30.1743 23.9941 30.4816 23.9941 30.861V40.5198C23.9941 40.8991 24.3014 41.2064 24.6808 41.2064H28.114C28.4934 41.2064 28.8007 40.8991 28.8007 40.5198V30.861C28.8007 30.4816 28.4934 30.1743 28.114 30.1743Z" fill="#0CD68A"/>
<path d="M34.2947 28.8013H30.8615C30.4821 28.8013 30.1748 29.1085 30.1748 29.4879V40.52C30.1748 40.8994 30.4821 41.2067 30.8615 41.2067H34.2947C34.674 41.2067 34.9813 40.8994 34.9813 40.52V29.4879C34.9813 29.1085 34.674 28.8013 34.2947 28.8013Z" fill="#0CD68A"/>
<path d="M40.5203 23.3081H37.087C36.7077 23.3081 36.4004 23.6154 36.4004 23.9948V40.52C36.4004 40.8994 36.7077 41.2067 37.087 41.2067H40.5203C40.8996 41.2067 41.2069 40.8994 41.2069 40.52V23.9948C41.2069 23.6154 40.8996 23.3081 40.5203 23.3081Z" fill="#0CD68A"/>
<path d="M20.2181 32.8752C21.3539 32.8752 22.278 31.9511 22.278 30.8153C22.278 30.6223 22.2428 30.4394 22.193 30.2623L24.8684 28.3737C25.2043 28.6122 25.6123 28.7554 26.0546 28.7554C27.0967 28.7554 27.9513 27.9749 28.0868 26.9692L30.8262 26.3925C31.1888 26.9835 31.8351 27.3821 32.5777 27.3821C33.7135 27.3821 34.6376 26.458 34.6376 25.3221C34.6376 25.0475 34.5813 24.7863 34.4834 24.5465L37.7697 21.6254C38.0644 21.7881 38.3977 21.8889 38.7575 21.8889C39.8933 21.8889 40.8174 20.9648 40.8174 19.829C40.8174 18.6932 39.8933 17.769 38.7575 17.769C37.6217 17.769 36.6976 18.6932 36.6976 19.829C36.6976 20.1036 36.7539 20.3648 36.8518 20.6046L33.5655 23.5257C33.2708 23.3631 32.9375 23.2622 32.5777 23.2622C31.5356 23.2622 30.681 24.0427 30.5455 25.0483L27.8061 25.6251C27.4434 25.034 26.7971 24.6355 26.0546 24.6355C24.9187 24.6355 23.9946 25.5596 23.9946 26.6954C23.9946 26.8884 24.0298 27.0714 24.0796 27.2485L21.4043 29.137C21.0684 28.8986 20.6604 28.7554 20.2181 28.7554C19.0823 28.7554 18.1581 29.6795 18.1581 30.8153C18.1581 31.9511 19.0823 32.8752 20.2181 32.8752Z" fill="#0CD68A"/>
</g>
<defs>
<clipPath id="clip0_25_7">
<rect width="25" height="25" fill="white" transform="translate(17 17)"/>
</clipPath>
</defs>
</svg>
