<svg width="100" height="100" viewBox="0 0 100 100" fill="none" xmlns="http://www.w3.org/2000/svg">
<path d="M72.3652 39.6604C72.3648 38.8219 72.1855 38.081 71.8229 37.4452C71.4667 36.8199 70.9332 36.2958 70.2177 35.8814C64.3111 32.4757 58.3989 29.0804 52.4943 25.6712C50.9024 24.7522 49.359 24.7857 47.7789 25.7179C45.4279 27.1044 33.6574 33.848 30.15 35.8795C28.7055 36.7157 28.0026 37.9955 28.0023 39.6588C28 46.508 28.0023 53.357 28 60.2063C28.0003 61.0263 28.172 61.7528 28.5187 62.3791C28.8751 63.0233 29.416 63.5618 30.148 63.9856C33.6557 66.0171 45.4278 72.7602 47.7782 74.1471C49.359 75.0798 50.9024 75.1131 52.4948 74.1938C58.3996 70.7844 64.3122 67.3892 70.2196 63.9835C70.9516 63.5599 71.4925 63.0211 71.8489 62.3774C72.1951 61.7511 72.3671 61.0246 72.3674 60.2044C72.3674 60.2044 72.3674 46.5097 72.3652 39.6604Z" fill="#5C8DBC"/>
<path d="M50.2515 49.866L28.5186 62.3793C28.8749 63.0235 29.4159 63.562 30.1479 63.9857C33.6555 66.0173 45.4276 72.7604 47.7781 74.1472C49.3588 75.0799 50.9023 75.1133 52.4946 74.1939C58.3994 70.7845 64.312 67.3894 70.2194 63.9837C70.9515 63.5601 71.4924 63.0212 71.8488 62.3776L50.2515 49.866Z" fill="#1A4674"/>
<path d="M43.8145 53.5725C45.0791 55.7803 47.4565 57.2694 50.1836 57.2694C52.9276 57.2694 55.3185 55.7614 56.5767 53.53L50.2515 49.866L43.8145 53.5725Z" fill="#1A4674"/>
<path d="M72.3655 39.6605C72.3652 38.8221 72.1859 38.0812 71.8232 37.4453L50.252 49.8659L71.8493 62.3775C72.1954 61.7512 72.3674 61.0247 72.3678 60.2045C72.3678 60.2045 72.3678 46.5099 72.3655 39.6605Z" fill="#1B598E"/>
<path d="M56.5771 53.53C55.3189 55.7613 52.928 57.2693 50.184 57.2693C47.4568 57.2693 45.0794 55.7802 43.8148 53.5725C43.1795 52.4647 42.8459 51.2096 42.8472 49.9326C42.8472 45.8807 46.1321 42.596 50.184 42.596C52.8936 42.596 55.2585 44.0665 56.5293 46.2517L62.9421 42.559C60.3932 38.1591 55.6345 35.199 50.184 35.199C42.0466 35.199 35.4502 41.7955 35.4502 49.9326C35.4502 52.6021 36.1604 55.1055 37.4016 57.2648C39.944 61.688 44.7163 64.6663 50.184 64.6663C55.6617 64.6663 60.4414 61.676 62.9803 57.2398L56.5771 53.53Z" fill="white"/>
<circle cx="50" cy="50" r="50" fill="#1A4674" fill-opacity="0.1"/>
</svg>
