<svg width="285" height="115" viewBox="0 0 285 115" fill="none" xmlns="http://www.w3.org/2000/svg">
<rect x="0.646952" y="0.646952" width="283.704" height="113.706" rx="8.35305" fill="url(#paint0_linear_22_771)" stroke="url(#paint1_linear_22_771)" stroke-width="1.2939"/>
<mask id="mask0_22_771" style="mask-type:alpha" maskUnits="userSpaceOnUse" x="0" y="0" width="285" height="115">
<rect x="0.646952" y="0.646952" width="283.704" height="113.706" rx="8.35305" fill="url(#paint2_linear_22_771)" stroke="url(#paint3_linear_22_771)" stroke-width="1.2939"/>
</mask>
<g mask="url(#mask0_22_771)">
<rect x="88.2167" y="52.3149" width="81.0667" height="25.8868" rx="12.9434" transform="rotate(11.8048 88.2167 52.3149)" fill="#AD3DD4"/>
<path d="M112.196 66.8705L113.052 67.0494L112.423 70.0561L115.94 70.791L116.568 67.7843L117.424 67.9633L115.971 74.9142L115.115 74.7353L115.78 71.5554L112.264 70.8205L111.599 74.0004L110.743 73.8215L112.196 66.8705ZM121.344 75.9095C121.178 75.9244 121.006 75.931 120.829 75.9295C120.659 75.9294 120.469 75.9216 120.26 75.9062C120.057 75.8922 119.847 75.8625 119.63 75.817C119.29 75.746 118.984 75.6324 118.712 75.4763C118.439 75.3201 118.216 75.1139 118.043 74.8579C117.87 74.6018 117.753 74.2938 117.694 73.9339C117.642 73.5686 117.668 73.1413 117.77 72.6521C117.862 72.2104 118.004 71.8359 118.196 71.5285C118.39 71.2144 118.615 70.9672 118.873 70.787C119.138 70.6014 119.426 70.4807 119.735 70.4248C120.052 70.3704 120.38 70.3786 120.72 70.4497C121.052 70.5192 121.328 70.6441 121.545 70.8244C121.763 71.0046 121.926 71.2231 122.036 71.48C122.154 71.7315 122.218 72.0146 122.231 72.3292C122.251 72.6384 122.227 72.9561 122.159 73.2822L121.913 73.6987L118.621 73.0107C118.577 73.2213 118.56 73.4376 118.57 73.6596C118.58 73.8816 118.632 74.091 118.726 74.2879C118.826 74.4862 118.97 74.6617 119.158 74.8144C119.355 74.9618 119.612 75.0688 119.932 75.1356C120.135 75.1782 120.324 75.207 120.499 75.2221C120.674 75.2305 120.826 75.2338 120.954 75.2322C121.09 75.2252 121.217 75.2127 121.334 75.1946L121.344 75.9095ZM121.356 72.9016C121.366 72.854 121.378 72.7466 121.391 72.5792C121.405 72.4119 121.393 72.2321 121.355 72.0398C121.317 71.8475 121.234 71.6671 121.107 71.4985C120.98 71.3232 120.788 71.2085 120.53 71.1546C120.244 71.0949 119.997 71.1071 119.788 71.1911C119.58 71.2682 119.405 71.377 119.262 71.5173C119.12 71.6577 119.01 71.8085 118.934 71.9699C118.858 72.1312 118.809 72.2629 118.787 72.3648L121.356 72.9016ZM126.029 74.559C125.891 74.5374 125.761 74.5172 125.637 74.4984C125.513 74.4796 125.389 74.4643 125.264 74.4523C125.147 74.435 125.04 74.4231 124.942 74.4168C124.44 74.3757 124.07 74.412 123.834 74.5257C123.599 74.6326 123.451 74.8287 123.392 75.1141C123.342 75.3519 123.376 75.5469 123.493 75.699C123.618 75.8458 123.8 75.944 124.038 75.9937C124.364 76.0619 124.664 76.0679 124.938 76.0117C125.22 75.9501 125.503 75.8532 125.786 75.7209L126.029 74.559ZM125.627 76.4322C125.269 76.5489 124.939 76.6359 124.636 76.6932C124.341 76.7451 124.035 76.7377 123.715 76.6709C123.26 76.5758 122.919 76.3911 122.693 76.1169C122.475 75.8372 122.419 75.4426 122.525 74.933C122.581 74.6681 122.697 74.4512 122.874 74.2826C123.051 74.1139 123.262 73.9878 123.506 73.9041C123.759 73.8151 124.032 73.7623 124.327 73.7458C124.621 73.7293 124.916 73.7414 125.213 73.7821C125.338 73.794 125.499 73.8172 125.698 73.8516C125.898 73.8792 126.053 73.9009 126.163 73.9169C126.213 73.6791 126.25 73.467 126.275 73.2807C126.301 73.0876 126.293 72.9194 126.252 72.7761C126.213 72.626 126.132 72.5028 126.011 72.4065C125.896 72.3115 125.716 72.2385 125.471 72.1874C125.274 72.1462 125.081 72.12 124.892 72.1089C124.704 72.0909 124.536 72.0806 124.388 72.078C124.211 72.0764 124.047 72.0811 123.896 72.0921L123.88 71.3548C124.058 71.3495 124.249 71.3505 124.453 71.3577C124.63 71.3592 124.833 71.3732 125.062 71.3997C125.291 71.4194 125.535 71.4562 125.794 71.5101C126.14 71.5826 126.408 71.6918 126.597 71.8377C126.794 71.9851 126.931 72.1591 127.01 72.3599C127.096 72.5554 127.137 72.7695 127.131 73.0022C127.133 73.2296 127.108 73.4656 127.057 73.7102L126.546 76.1563C126.526 76.2514 126.505 76.3533 126.482 76.462C126.467 76.5654 126.453 76.6687 126.438 76.772C126.431 76.8768 126.422 76.985 126.413 77.0965L125.611 77.014L125.627 76.4322ZM129.384 69.7502L130.219 69.8289L128.604 77.5544L127.789 77.384L129.384 69.7502ZM132.652 71.4542L132.332 72.983L133.81 73.2919L133.671 73.9544L132.194 73.6455L131.625 76.3668C131.578 76.591 131.542 76.7786 131.518 76.9295C131.5 77.0818 131.499 77.2057 131.515 77.3011C131.53 77.3965 131.564 77.471 131.617 77.5246C131.671 77.5713 131.746 77.6046 131.841 77.6245C132.1 77.6717 132.419 77.639 132.797 77.5266L132.912 78.1994C132.656 78.3021 132.425 78.3566 132.218 78.3629C132.017 78.3775 131.821 78.3649 131.63 78.3252C131.182 78.2315 130.892 78.0397 130.761 77.75C130.639 77.4549 130.639 77.0117 130.763 76.4206L131.378 73.4751L130.441 73.2791L130.579 72.6166L131.517 72.8126L131.815 71.3857L132.652 71.4542ZM135.376 71.0025L136.211 71.0812L135.533 74.3222C135.766 74.2289 135.991 74.1519 136.209 74.0912C136.434 74.0319 136.66 73.9868 136.886 73.9561C137.114 73.9186 137.326 73.9204 137.523 73.9616C137.802 74.0198 138.026 74.1021 138.195 74.2084C138.373 74.3093 138.503 74.4466 138.588 74.6202C138.672 74.7938 138.712 75.0079 138.709 75.2625C138.712 75.5184 138.675 75.8299 138.599 76.1968L137.908 79.499L137.093 79.3286L137.764 76.1181C137.807 75.9143 137.841 75.7335 137.867 75.5758C137.894 75.4113 137.892 75.269 137.86 75.1489C137.837 75.0235 137.777 74.9188 137.681 74.835C137.592 74.7525 137.452 74.6914 137.262 74.6516C137.085 74.6147 136.887 74.6157 136.666 74.6546C136.446 74.6868 136.234 74.7346 136.03 74.7982C135.825 74.8618 135.61 74.9409 135.384 75.0357L134.596 78.8067L133.781 78.6363L135.376 71.0025Z" fill="white"/>
<rect x="125.393" y="45.236" width="96.6851" height="25.8868" rx="12.9434" transform="rotate(-12.6879 125.393 45.236)" fill="#8E4CFA"/>
<path d="M158.428 47.3746L162.674 46.4186L162.851 47.2008L159.458 47.9646L159.956 50.1791L163.105 49.4701L163.277 50.2319L160.128 50.9409L160.841 54.1102L159.988 54.3023L158.428 47.3746ZM167.181 50.2175C167.047 50.2548 166.92 50.2905 166.799 50.3247C166.679 50.3589 166.559 50.3965 166.441 50.4375C166.327 50.4702 166.224 50.504 166.133 50.5389C165.659 50.7096 165.338 50.8957 165.17 51.0972C165 51.2919 164.947 51.5315 165.011 51.8159C165.065 52.053 165.176 52.2164 165.346 52.3063C165.521 52.3879 165.727 52.402 165.964 52.3486C166.289 52.2754 166.564 52.1565 166.791 51.9917C167.022 51.8186 167.239 51.6132 167.442 51.3755L167.181 50.2175ZM167.592 52.0889C167.314 52.3434 167.05 52.5594 166.798 52.7371C166.552 52.9064 166.269 53.0269 165.951 53.0986C165.497 53.2007 165.111 53.1739 164.791 53.0182C164.477 52.8542 164.262 52.5182 164.148 52.0103C164.088 51.7462 164.104 51.5007 164.195 51.2739C164.287 51.047 164.426 50.8448 164.614 50.6673C164.807 50.4816 165.034 50.3202 165.295 50.1832C165.556 50.0462 165.829 49.9348 166.116 49.8489C166.235 49.8079 166.392 49.7619 166.587 49.7109C166.78 49.6532 166.93 49.6087 167.037 49.5776C166.983 49.3405 166.929 49.1321 166.875 48.9523C166.818 48.7658 166.742 48.6158 166.645 48.5024C166.547 48.3822 166.423 48.3034 166.272 48.2662C166.128 48.2275 165.934 48.2355 165.69 48.2904C165.494 48.3346 165.307 48.3909 165.131 48.4591C164.952 48.5206 164.795 48.5809 164.659 48.64C164.497 48.712 164.35 48.7843 164.217 48.8569L163.897 48.1926C164.057 48.1139 164.231 48.0355 164.42 47.9574C164.582 47.8854 164.772 47.8141 164.991 47.7435C165.208 47.6661 165.446 47.5984 165.703 47.5405C166.048 47.4627 166.337 47.451 166.57 47.5053C166.81 47.5581 167.007 47.6596 167.162 47.8097C167.322 47.9516 167.447 48.1297 167.538 48.344C167.634 48.5501 167.71 48.775 167.765 49.0188L168.314 51.4567C168.335 51.5515 168.358 51.6531 168.382 51.7614C168.412 51.8615 168.442 51.9615 168.471 52.0616C168.508 52.1601 168.545 52.262 168.583 52.3673L167.819 52.6247L167.592 52.0889ZM171.754 47.1601C171.45 47.1361 171.183 47.1357 170.953 47.1589C170.729 47.1738 170.525 47.2019 170.343 47.2431C170.105 47.2964 169.919 47.399 169.782 47.5507C169.652 47.7009 169.608 47.8674 169.649 48.0502C169.692 48.2112 169.795 48.334 169.956 48.4187C170.118 48.5033 170.297 48.5732 170.494 48.6284C170.697 48.6752 170.919 48.7285 171.16 48.788C171.408 48.8461 171.642 48.9215 171.862 49.0142C172.089 49.1054 172.285 49.2321 172.449 49.3943C172.614 49.5565 172.729 49.7689 172.795 50.0314C172.853 50.3174 172.842 50.5689 172.762 50.7859C172.688 50.9947 172.57 51.178 172.406 51.3358C172.247 51.4853 172.064 51.6048 171.857 51.6942C171.651 51.7904 171.453 51.8598 171.263 51.9025C171.02 51.9574 170.763 52.0011 170.492 52.0334C170.229 52.0643 169.938 52.0692 169.621 52.0483L169.608 51.2826C169.931 51.2952 170.223 51.2937 170.482 51.2779C170.741 51.2554 170.951 51.2258 171.114 51.1892C171.235 51.1617 171.351 51.1215 171.46 51.0685C171.576 51.014 171.676 50.9523 171.76 50.8836C171.842 50.8081 171.902 50.7236 171.938 50.6301C171.98 50.5351 171.99 50.4369 171.967 50.3353C171.918 50.1472 171.818 50.0025 171.667 49.9013C171.514 49.7933 171.329 49.7106 171.109 49.6533C170.895 49.5876 170.665 49.5291 170.419 49.4779C170.178 49.4183 169.944 49.3429 169.717 49.2517C169.495 49.1522 169.299 49.0221 169.127 48.8614C168.954 48.694 168.836 48.4681 168.772 48.1837C168.726 47.9805 168.737 47.7896 168.803 47.611C168.875 47.4241 168.981 47.2615 169.12 47.1233C169.265 46.9769 169.43 46.8545 169.614 46.7561C169.803 46.6494 169.993 46.5747 170.182 46.532C170.379 46.4878 170.603 46.4552 170.854 46.4341C171.104 46.4063 171.397 46.3972 171.734 46.4068L171.754 47.1601ZM172.477 43.4967L173.269 43.2223L173.996 46.4525C174.169 46.2714 174.342 46.1079 174.515 45.9621C174.696 45.8148 174.882 45.6802 175.075 45.5585C175.267 45.4299 175.461 45.3436 175.658 45.2993C175.935 45.2368 176.173 45.2189 176.371 45.2454C176.574 45.2637 176.75 45.3343 176.899 45.4574C177.048 45.5805 177.173 45.7586 177.276 45.9917C177.385 46.2233 177.48 46.5219 177.563 46.8876L178.304 50.1788L177.491 50.3617L176.771 47.162C176.725 46.9588 176.681 46.7801 176.639 46.6259C176.596 46.4649 176.535 46.3363 176.456 46.2402C176.383 46.1357 176.285 46.0652 176.163 46.0286C176.048 45.9906 175.895 45.9929 175.706 46.0356C175.53 46.0752 175.349 46.1585 175.164 46.2855C174.978 46.4058 174.805 46.5372 174.645 46.68C174.485 46.8227 174.322 46.9839 174.156 47.1636L175.002 50.922L174.19 51.105L172.477 43.4967ZM178.582 44.7369L179.374 44.4626L180.547 49.6736L179.735 49.8566L178.582 44.7369ZM178.123 43.3141C178.088 43.1583 178.11 43.0182 178.189 42.8938C178.273 42.761 178.392 42.6771 178.548 42.642C178.711 42.6055 178.858 42.6291 178.991 42.7131C179.129 42.7888 179.216 42.9045 179.251 43.0602C179.286 43.216 179.258 43.361 179.167 43.4953C179.082 43.6212 178.958 43.7025 178.795 43.7391C178.639 43.7742 178.496 43.7531 178.365 43.6759C178.239 43.5904 178.158 43.4698 178.123 43.3141ZM182.016 46.6854C182.164 47.3423 182.42 47.8005 182.784 48.06C183.154 48.3112 183.589 48.3804 184.091 48.2676C184.585 48.1563 184.935 47.9102 185.141 47.5294C185.347 47.1486 185.378 46.6399 185.235 46.0034C185.083 45.3262 184.82 44.8552 184.447 44.5905C184.082 44.3242 183.645 44.2482 183.137 44.3626C182.629 44.4769 182.277 44.7305 182.081 45.1233C181.89 45.5078 181.868 46.0285 182.016 46.6854ZM181.15 46.8697C181.034 46.355 181.02 45.9101 181.106 45.5349C181.191 45.1529 181.336 44.8321 181.54 44.5726C181.744 44.3062 181.978 44.1004 182.245 43.9551C182.516 43.8015 182.78 43.6957 183.038 43.6378C183.281 43.5829 183.555 43.5641 183.857 43.5813C184.165 43.5903 184.464 43.6689 184.754 43.8171C185.042 43.9586 185.305 44.1804 185.544 44.4824C185.781 44.7776 185.958 45.1826 186.073 45.6973C186.194 46.2322 186.209 46.6949 186.119 47.0851C186.036 47.4739 185.893 47.8014 185.689 48.0677C185.484 48.3273 185.246 48.5305 184.973 48.6773C184.701 48.8309 184.44 48.9359 184.19 48.9923C183.932 49.0503 183.652 49.0706 183.35 49.0534C183.047 49.0362 182.752 48.9568 182.464 48.8153C182.181 48.6655 181.919 48.4362 181.679 48.1274C181.445 47.8171 181.269 47.3979 181.15 46.8697ZM186.928 43.936C186.903 43.7922 186.816 43.4879 186.669 43.023L187.398 42.7522L187.656 43.3772C187.829 43.196 188.002 43.0325 188.175 42.8867C188.356 42.7394 188.542 42.6048 188.735 42.4831C188.927 42.3546 189.121 42.2682 189.317 42.224C189.595 42.1615 189.833 42.1435 190.031 42.17C190.234 42.1883 190.41 42.259 190.559 42.382C190.708 42.5051 190.833 42.6832 190.935 42.9163C191.045 43.1479 191.14 43.4465 191.223 43.8122L191.964 47.1034L191.151 47.2864L190.431 44.0866C190.385 43.8834 190.341 43.7047 190.299 43.5505C190.256 43.3895 190.195 43.2609 190.116 43.1648C190.043 43.0603 189.945 42.9898 189.823 42.9533C189.708 42.9152 189.555 42.9175 189.366 42.9602C189.19 42.9998 189.013 43.0824 188.835 43.2079C188.655 43.3266 188.482 43.4581 188.315 43.6023C188.148 43.7466 187.982 43.9086 187.816 44.0882L188.662 47.8467L187.85 48.0296L186.928 43.936Z" fill="white"/>
<rect x="122.561" y="90.6317" width="96.6851" height="25.8868" rx="12.9434" fill="#8821C6"/>
<path d="M146.82 99.9739H148.569C148.951 99.9739 149.298 100.009 149.61 100.078C149.93 100.141 150.2 100.252 150.422 100.411C150.644 100.564 150.815 100.769 150.933 101.026C151.051 101.282 151.11 101.605 151.11 101.994C151.103 102.424 151.03 102.775 150.891 103.046C150.752 103.309 150.582 103.524 150.381 103.691C150.179 103.851 149.947 103.969 149.683 104.045V104.066C149.711 104.094 149.753 104.146 149.808 104.222C149.871 104.292 149.923 104.354 149.964 104.41L151.974 107.075H150.943L148.881 104.253H147.694V107.075H146.82V99.9739ZM150.225 102.14C150.225 101.848 150.186 101.612 150.11 101.432C150.041 101.244 149.933 101.102 149.787 101.005C149.648 100.908 149.475 100.842 149.267 100.807C149.058 100.772 148.822 100.755 148.559 100.755H147.694V103.472H148.725C148.996 103.472 149.225 103.438 149.412 103.368C149.6 103.299 149.753 103.205 149.871 103.087C149.989 102.962 150.075 102.82 150.131 102.66C150.186 102.501 150.218 102.327 150.225 102.14ZM156.465 106.95C156.305 106.999 156.138 107.04 155.965 107.075C155.798 107.11 155.611 107.141 155.403 107.169C155.201 107.197 154.99 107.21 154.768 107.21C154.42 107.21 154.098 107.162 153.799 107.065C153.501 106.967 153.24 106.811 153.018 106.596C152.796 106.381 152.619 106.103 152.487 105.763C152.362 105.416 152.3 104.993 152.3 104.493C152.3 104.042 152.362 103.646 152.487 103.306C152.612 102.959 152.782 102.671 152.997 102.442C153.22 102.206 153.476 102.029 153.768 101.911C154.066 101.793 154.389 101.734 154.736 101.734C155.076 101.734 155.371 101.8 155.621 101.931C155.871 102.063 156.076 102.244 156.236 102.473C156.402 102.695 156.524 102.959 156.6 103.264C156.683 103.563 156.725 103.879 156.725 104.212L156.569 104.67H153.206C153.206 104.885 153.233 105.1 153.289 105.315C153.345 105.531 153.438 105.725 153.57 105.898C153.709 106.072 153.886 106.214 154.101 106.325C154.323 106.43 154.597 106.482 154.924 106.482C155.132 106.482 155.323 106.471 155.496 106.45C155.67 106.423 155.819 106.395 155.944 106.367C156.076 106.332 156.197 106.294 156.309 106.253L156.465 106.95ZM155.861 104.003C155.861 103.955 155.85 103.847 155.83 103.681C155.809 103.514 155.76 103.341 155.684 103.16C155.607 102.98 155.489 102.82 155.33 102.681C155.17 102.535 154.958 102.462 154.695 102.462C154.403 102.462 154.164 102.525 153.976 102.65C153.789 102.768 153.64 102.91 153.528 103.077C153.417 103.243 153.341 103.413 153.299 103.587C153.258 103.761 153.237 103.899 153.237 104.003H155.861ZM160.774 104.67C160.635 104.677 160.503 104.684 160.378 104.691C160.253 104.698 160.128 104.708 160.003 104.722C159.885 104.729 159.778 104.739 159.681 104.753C159.181 104.816 158.827 104.927 158.619 105.086C158.41 105.239 158.306 105.461 158.306 105.753C158.306 105.996 158.379 106.18 158.525 106.305C158.678 106.423 158.875 106.482 159.118 106.482C159.452 106.482 159.747 106.426 160.003 106.315C160.267 106.197 160.524 106.044 160.774 105.857V104.67ZM160.763 106.586C160.437 106.773 160.132 106.926 159.847 107.044C159.57 107.155 159.268 107.21 158.941 107.21C158.476 107.21 158.105 107.099 157.827 106.877C157.557 106.648 157.421 106.273 157.421 105.753C157.421 105.482 157.491 105.246 157.629 105.045C157.768 104.843 157.949 104.677 158.171 104.545C158.4 104.406 158.657 104.298 158.941 104.222C159.226 104.146 159.518 104.097 159.816 104.076C159.941 104.062 160.104 104.052 160.305 104.045C160.507 104.031 160.663 104.021 160.774 104.014C160.774 103.771 160.767 103.556 160.753 103.368C160.739 103.174 160.698 103.011 160.628 102.879C160.559 102.74 160.455 102.636 160.316 102.567C160.184 102.497 159.993 102.462 159.743 102.462C159.542 102.462 159.347 102.476 159.16 102.504C158.973 102.525 158.806 102.549 158.66 102.577C158.487 102.612 158.327 102.65 158.181 102.692L158.015 101.973C158.188 101.931 158.376 101.893 158.577 101.859C158.75 101.824 158.952 101.796 159.181 101.775C159.41 101.747 159.656 101.734 159.92 101.734C160.274 101.734 160.559 101.786 160.774 101.89C160.996 101.994 161.166 102.136 161.284 102.317C161.409 102.49 161.492 102.692 161.534 102.921C161.583 103.143 161.607 103.379 161.607 103.629V106.128C161.607 106.225 161.607 106.329 161.607 106.44C161.614 106.544 161.621 106.648 161.628 106.752C161.642 106.856 161.655 106.964 161.669 107.075L160.868 107.158L160.763 106.586ZM163.075 99.2763L163.908 99.1826V107.075H163.075V99.2763ZM167.949 99.9739H172.302V100.776H168.824V103.046H172.052V103.826H168.824V106.273H172.406V107.075H167.949V99.9739ZM176.492 102.692C176.2 102.601 175.94 102.542 175.711 102.515C175.489 102.48 175.284 102.462 175.097 102.462C174.854 102.462 174.649 102.521 174.482 102.639C174.323 102.757 174.243 102.91 174.243 103.098C174.25 103.264 174.323 103.406 174.462 103.524C174.6 103.643 174.76 103.75 174.941 103.847C175.128 103.938 175.333 104.038 175.555 104.149C175.784 104.26 175.996 104.385 176.19 104.524C176.391 104.663 176.554 104.829 176.679 105.024C176.804 105.218 176.87 105.451 176.877 105.721C176.87 106.013 176.804 106.256 176.679 106.45C176.561 106.638 176.405 106.79 176.211 106.908C176.023 107.02 175.819 107.096 175.597 107.138C175.374 107.186 175.166 107.21 174.972 107.21C174.722 107.21 174.462 107.197 174.191 107.169C173.927 107.141 173.643 107.082 173.337 106.992L173.493 106.242C173.806 106.325 174.09 106.388 174.347 106.43C174.604 106.464 174.816 106.482 174.982 106.482C175.107 106.482 175.229 106.468 175.347 106.44C175.472 106.412 175.583 106.374 175.68 106.325C175.777 106.27 175.853 106.2 175.909 106.117C175.971 106.034 176.003 105.94 176.003 105.836C175.996 105.642 175.93 105.479 175.805 105.347C175.68 105.208 175.517 105.086 175.315 104.982C175.121 104.871 174.909 104.764 174.68 104.659C174.458 104.548 174.246 104.423 174.045 104.285C173.851 104.139 173.688 103.969 173.556 103.774C173.424 103.573 173.358 103.327 173.358 103.035C173.358 102.827 173.41 102.643 173.514 102.483C173.625 102.317 173.764 102.181 173.931 102.077C174.104 101.966 174.292 101.883 174.493 101.827C174.701 101.765 174.902 101.734 175.097 101.734C175.298 101.734 175.524 101.751 175.774 101.786C176.023 101.813 176.312 101.869 176.638 101.952L176.492 102.692ZM179.22 100.276V101.838H180.73V102.515H179.22V105.295C179.22 105.524 179.223 105.715 179.23 105.867C179.244 106.02 179.269 106.141 179.303 106.232C179.338 106.322 179.387 106.388 179.449 106.43C179.511 106.464 179.591 106.482 179.688 106.482C179.952 106.475 180.258 106.377 180.605 106.19L180.855 106.825C180.626 106.978 180.41 107.079 180.209 107.127C180.015 107.183 179.82 107.21 179.626 107.21C179.168 107.21 178.845 107.082 178.658 106.825C178.477 106.561 178.387 106.128 178.387 105.524V102.515H177.429V101.838H178.387V100.38L179.22 100.276ZM184.71 104.67C184.571 104.677 184.439 104.684 184.314 104.691C184.189 104.698 184.064 104.708 183.939 104.722C183.821 104.729 183.714 104.739 183.617 104.753C183.117 104.816 182.763 104.927 182.555 105.086C182.346 105.239 182.242 105.461 182.242 105.753C182.242 105.996 182.315 106.18 182.461 106.305C182.614 106.423 182.811 106.482 183.054 106.482C183.388 106.482 183.683 106.426 183.939 106.315C184.203 106.197 184.46 106.044 184.71 105.857V104.67ZM184.699 106.586C184.373 106.773 184.068 106.926 183.783 107.044C183.506 107.155 183.204 107.21 182.877 107.21C182.412 107.21 182.041 107.099 181.763 106.877C181.492 106.648 181.357 106.273 181.357 105.753C181.357 105.482 181.427 105.246 181.565 105.045C181.704 104.843 181.885 104.677 182.107 104.545C182.336 104.406 182.593 104.298 182.877 104.222C183.162 104.146 183.453 104.097 183.752 104.076C183.877 104.062 184.04 104.052 184.241 104.045C184.443 104.031 184.599 104.021 184.71 104.014C184.71 103.771 184.703 103.556 184.689 103.368C184.675 103.174 184.634 103.011 184.564 102.879C184.495 102.74 184.391 102.636 184.252 102.567C184.12 102.497 183.929 102.462 183.679 102.462C183.478 102.462 183.283 102.476 183.096 102.504C182.909 102.525 182.742 102.549 182.596 102.577C182.423 102.612 182.263 102.65 182.117 102.692L181.951 101.973C182.124 101.931 182.312 101.893 182.513 101.859C182.686 101.824 182.888 101.796 183.117 101.775C183.346 101.747 183.592 101.734 183.856 101.734C184.21 101.734 184.495 101.786 184.71 101.89C184.932 101.994 185.102 102.136 185.22 102.317C185.345 102.49 185.428 102.692 185.47 102.921C185.519 103.143 185.543 103.379 185.543 103.629V106.128C185.543 106.225 185.543 106.329 185.543 106.44C185.55 106.544 185.557 106.648 185.564 106.752C185.578 106.856 185.591 106.964 185.605 107.075L184.804 107.158L184.699 106.586ZM188.229 100.276V101.838H189.739V102.515H188.229V105.295C188.229 105.524 188.232 105.715 188.239 105.867C188.253 106.02 188.278 106.141 188.312 106.232C188.347 106.322 188.396 106.388 188.458 106.43C188.52 106.464 188.6 106.482 188.698 106.482C188.961 106.475 189.267 106.377 189.614 106.19L189.864 106.825C189.635 106.978 189.419 107.079 189.218 107.127C189.024 107.183 188.829 107.21 188.635 107.21C188.177 107.21 187.854 107.082 187.667 106.825C187.486 106.561 187.396 106.128 187.396 105.524V102.515H186.438V101.838H187.396V100.38L188.229 100.276ZM194.636 106.95C194.476 106.999 194.31 107.04 194.136 107.075C193.97 107.11 193.782 107.141 193.574 107.169C193.373 107.197 193.161 107.21 192.939 107.21C192.592 107.21 192.269 107.162 191.971 107.065C191.672 106.967 191.412 106.811 191.19 106.596C190.968 106.381 190.791 106.103 190.659 105.763C190.534 105.416 190.471 104.993 190.471 104.493C190.471 104.042 190.534 103.646 190.659 103.306C190.784 102.959 190.954 102.671 191.169 102.442C191.391 102.206 191.648 102.029 191.939 101.911C192.238 101.793 192.561 101.734 192.908 101.734C193.248 101.734 193.543 101.8 193.793 101.931C194.043 102.063 194.247 102.244 194.407 102.473C194.574 102.695 194.695 102.959 194.772 103.264C194.855 103.563 194.896 103.879 194.896 104.212L194.74 104.67H191.377C191.377 104.885 191.405 105.1 191.46 105.315C191.516 105.531 191.61 105.725 191.742 105.898C191.88 106.072 192.057 106.214 192.273 106.325C192.495 106.43 192.769 106.482 193.095 106.482C193.303 106.482 193.494 106.471 193.668 106.45C193.841 106.423 193.991 106.395 194.116 106.367C194.247 106.332 194.369 106.294 194.48 106.253L194.636 106.95ZM194.032 104.003C194.032 103.955 194.022 103.847 194.001 103.681C193.98 103.514 193.932 103.341 193.855 103.16C193.779 102.98 193.661 102.82 193.501 102.681C193.342 102.535 193.13 102.462 192.866 102.462C192.575 102.462 192.335 102.525 192.148 102.65C191.96 102.768 191.811 102.91 191.7 103.077C191.589 103.243 191.512 103.413 191.471 103.587C191.429 103.761 191.408 103.899 191.408 104.003H194.032Z" fill="#F2F4F8"/>
<rect x="163.619" y="63.4375" width="81.0667" height="25.8868" rx="12.9434" transform="rotate(-4.36311 163.619 63.4375)" fill="#2B2E80"/>
<path d="M183.941 71.2564L185.02 71.174L187.99 78.0692L187.087 78.1381L186.32 76.2961L183.444 76.5155L182.955 78.4534L182.051 78.5223L183.941 71.2564ZM185.976 75.4869L184.565 72.0442L184.533 72.0466L183.65 75.6644L185.976 75.4869ZM188.63 73.8121C188.625 73.6662 188.584 73.3526 188.506 72.8713L189.266 72.7088L189.431 73.3646C189.628 73.2103 189.823 73.0736 190.016 72.9545C190.215 72.8348 190.42 72.7287 190.628 72.6362C190.837 72.5368 191.041 72.4794 191.242 72.4641C191.526 72.4425 191.763 72.4591 191.956 72.5141C192.154 72.5616 192.318 72.657 192.447 72.8003C192.577 72.9436 192.675 73.1379 192.742 73.3834C192.817 73.6284 192.868 73.9377 192.897 74.3115L193.153 77.6752L192.323 77.7386L192.073 74.4683C192.058 74.2606 192.04 74.0775 192.021 73.9188C192.001 73.7532 191.96 73.6172 191.896 73.5107C191.838 73.3967 191.752 73.3128 191.637 73.2589C191.528 73.2046 191.377 73.1848 191.183 73.1996C191.003 73.2133 190.816 73.2693 190.621 73.3677C190.427 73.4592 190.236 73.5642 190.05 73.6828C189.864 73.8014 189.676 73.9376 189.486 74.0913L189.779 77.9327L188.949 77.9961L188.63 73.8121ZM194.217 72.3311L195.04 72.1743L195.447 77.5003L194.616 77.5637L194.217 72.3311ZM193.969 70.8568C193.956 70.6976 193.998 70.5621 194.094 70.4504C194.197 70.3312 194.327 70.2655 194.486 70.2533C194.653 70.2407 194.795 70.2855 194.914 70.3878C195.04 70.4826 195.109 70.6096 195.121 70.7688C195.133 70.928 195.085 71.0675 194.975 71.1872C194.873 71.2995 194.738 71.3619 194.572 71.3746C194.413 71.3868 194.274 71.3451 194.155 71.2498C194.043 71.147 193.981 71.0159 193.969 70.8568ZM196.622 73.1083C196.604 72.873 196.561 72.5908 196.495 72.2617L197.265 72.0985L197.429 72.7439C197.606 72.5912 197.78 72.456 197.952 72.3385C198.124 72.2209 198.311 72.1162 198.513 72.0242C198.715 71.9322 198.923 71.8781 199.137 71.8617C199.483 71.8353 199.762 71.8767 199.972 71.986C200.182 72.0883 200.346 72.2812 200.465 72.5645C200.733 72.3421 201.014 72.1362 201.305 71.9469C201.604 71.757 201.92 71.6494 202.252 71.624C202.508 71.6045 202.729 71.6225 202.914 71.678C203.099 71.7265 203.252 71.8227 203.375 71.9665C203.497 72.1104 203.592 72.305 203.659 72.5505C203.727 72.7959 203.775 73.1056 203.803 73.4793L204.06 76.8431L203.229 76.9065L202.98 73.6361C202.964 73.4285 202.947 73.2453 202.927 73.0867C202.908 72.9211 202.873 72.7845 202.823 72.6769C202.773 72.5624 202.697 72.4777 202.595 72.4228C202.5 72.3674 202.366 72.3463 202.193 72.3595C202.034 72.3716 201.884 72.4075 201.742 72.467C201.607 72.5191 201.466 72.5925 201.32 72.6872C201.174 72.7818 200.952 72.9694 200.653 73.2498L200.945 77.0807L200.115 77.1441L199.865 73.8738C199.849 73.6661 199.832 73.483 199.813 73.3243C199.793 73.1587 199.758 73.0221 199.709 72.9146C199.658 72.8001 199.582 72.7154 199.48 72.6605C199.386 72.6051 199.252 72.5839 199.079 72.5971C198.899 72.6109 198.715 72.6632 198.527 72.7541C198.339 72.845 198.162 72.949 197.997 73.066C197.832 73.1831 197.661 73.3179 197.485 73.4706L197.779 77.3223L196.948 77.3857L196.622 73.1083ZM208.249 74.1112C208.111 74.1287 207.98 74.1457 207.856 74.1621C207.732 74.1785 207.609 74.1984 207.485 74.2218C207.368 74.2377 207.261 74.2562 207.166 74.2775C206.672 74.3778 206.327 74.5155 206.132 74.6905C205.936 74.8586 205.849 75.088 205.871 75.3787C205.89 75.621 205.976 75.7988 206.131 75.9123C206.292 76.0184 206.494 76.0622 206.736 76.0437C207.069 76.0183 207.359 75.9405 207.606 75.8102C207.86 75.6725 208.105 75.5007 208.34 75.2948L208.249 74.1112ZM208.385 76.0223C208.074 76.234 207.781 76.4095 207.506 76.5489C207.238 76.6807 206.941 76.7591 206.615 76.7839C206.152 76.8193 205.773 76.7368 205.479 76.5364C205.192 76.3286 205.028 75.9651 204.989 75.446C204.968 75.1761 205.019 74.9355 205.142 74.7242C205.266 74.5129 205.433 74.3331 205.644 74.1847C205.862 74.0288 206.11 73.902 206.388 73.8042C206.666 73.7064 206.953 73.6358 207.249 73.5923C207.373 73.569 207.534 73.5462 207.735 73.524C207.934 73.4948 208.089 73.4725 208.199 73.4572C208.181 73.2149 208.158 73.0009 208.13 72.8151C208.101 72.6223 208.047 72.4628 207.968 72.3366C207.888 72.2035 207.776 72.1076 207.633 72.0489C207.496 71.9897 207.303 71.9697 207.054 71.9887C206.853 72.004 206.66 72.0326 206.475 72.0746C206.29 72.1096 206.126 72.1465 205.983 72.1852C205.812 72.2331 205.656 72.2833 205.514 72.3359L205.293 71.6322C205.463 71.5775 205.647 71.5251 205.845 71.4752C206.015 71.4274 206.214 71.3844 206.441 71.3462C206.667 71.3011 206.912 71.2685 207.175 71.2485C207.528 71.2215 207.815 71.2518 208.038 71.3392C208.267 71.4262 208.448 71.5551 208.579 71.7261C208.717 71.8896 208.815 72.084 208.874 72.3092C208.94 72.527 208.982 72.7605 209.001 73.0097L209.191 75.5014C209.198 75.5983 209.206 75.7021 209.215 75.8128C209.229 75.9161 209.244 76.0194 209.259 76.1227C209.281 76.2255 209.303 76.3317 209.325 76.4414L208.532 76.5854L208.385 76.0223ZM211.424 69.4623L211.543 71.0196L213.048 70.9047L213.1 71.5796L211.594 71.6944L211.806 74.4664C211.823 74.6948 211.841 74.8849 211.86 75.0367C211.885 75.1879 211.919 75.3072 211.96 75.3945C212.002 75.4818 212.055 75.5439 212.121 75.5807C212.185 75.6105 212.266 75.6217 212.363 75.6144C212.626 75.5874 212.923 75.4672 213.255 75.2539L213.552 75.8682C213.335 76.0379 213.129 76.1547 212.931 76.2184C212.742 76.2886 212.55 76.3311 212.356 76.3458C211.9 76.3807 211.568 76.2772 211.362 76.0354C211.162 75.7861 211.039 75.3604 210.993 74.7582L210.764 71.7578L209.809 71.8307L209.757 71.1558L210.712 71.083L210.601 69.6295L211.424 69.4623ZM214.109 70.8134L214.932 70.6565L215.339 75.9825L214.508 76.0459L214.109 70.8134ZM213.861 69.339C213.849 69.1798 213.891 69.0444 213.986 68.9326C214.089 68.8134 214.219 68.7478 214.379 68.7356C214.545 68.7229 214.687 68.7677 214.807 68.87C214.932 68.9649 215.001 69.0919 215.013 69.2511C215.025 69.4103 214.977 69.5497 214.868 69.6695C214.765 69.7817 214.63 69.8442 214.464 69.8569C214.305 69.869 214.166 69.8274 214.047 69.732C213.935 69.6292 213.873 69.4982 213.861 69.339ZM217.225 73.2385C217.276 73.9099 217.463 74.4003 217.786 74.7098C218.115 75.0119 218.536 75.1434 219.048 75.1043C219.553 75.0658 219.936 74.873 220.195 74.526C220.453 74.1791 220.558 73.6803 220.508 73.0297C220.456 72.3376 220.264 71.8335 219.934 71.5176C219.61 71.2012 219.189 71.0628 218.67 71.1024C218.151 71.142 217.766 71.3419 217.515 71.7022C217.27 72.055 217.173 72.5671 217.225 73.2385ZM216.341 73.2954C216.301 72.7694 216.351 72.327 216.491 71.9683C216.63 71.6026 216.82 71.3062 217.06 71.079C217.3 70.8449 217.562 70.6752 217.846 70.57C218.137 70.4573 218.414 70.3909 218.677 70.3709C218.926 70.3519 219.199 70.3728 219.496 70.4337C219.799 70.4871 220.084 70.6081 220.349 70.7968C220.613 70.9785 220.842 71.236 221.034 71.5694C221.226 71.8959 221.342 72.3221 221.382 72.8482C221.424 73.395 221.372 73.8549 221.226 74.228C221.088 74.6006 220.899 74.9039 220.659 75.138C220.419 75.3652 220.153 75.5317 219.862 75.6375C219.571 75.7502 219.297 75.8163 219.041 75.8358C218.778 75.8559 218.498 75.8355 218.201 75.7746C217.904 75.7137 217.623 75.5924 217.359 75.4107C217.101 75.2216 216.875 74.9568 216.682 74.6165C216.496 74.2757 216.382 73.8353 216.341 73.2954ZM222.483 71.2291C222.479 71.0833 222.437 70.7697 222.359 70.2883L223.119 70.1259L223.284 70.7816C223.481 70.6274 223.676 70.4907 223.869 70.3715C224.069 70.2519 224.273 70.1458 224.482 70.0533C224.69 69.9538 224.894 69.8965 225.095 69.8812C225.379 69.8595 225.617 69.8762 225.809 69.9311C226.007 69.9786 226.171 70.074 226.301 70.2173C226.43 70.3606 226.528 70.555 226.596 70.8005C226.67 71.0454 226.722 71.3548 226.75 71.7285L227.007 75.0923L226.176 75.1557L225.927 71.8853C225.911 71.6777 225.893 71.4945 225.874 71.3359C225.855 71.1703 225.813 71.0342 225.749 70.9277C225.692 70.8137 225.605 70.7298 225.49 70.676C225.381 70.6216 225.23 70.6018 225.036 70.6166C224.856 70.6304 224.669 70.6864 224.475 70.7848C224.28 70.8762 224.089 70.9813 223.904 71.0999C223.718 71.2185 223.53 71.3546 223.339 71.5084L223.633 75.3497L222.802 75.4131L222.483 71.2291Z" fill="white"/>
<rect x="200.427" y="122.915" width="96.6851" height="25.8868" rx="12.9434" transform="rotate(-6.61556 200.427 122.915)" fill="#8E4CFA"/>
<rect x="70.7278" y="106.821" width="81.0667" height="25.8868" rx="12.9434" transform="rotate(9.08505 70.7278 106.821)" fill="#4C5568"/>
<rect x="219.754" y="84.1693" width="97.4288" height="25.8868" rx="12.9434" transform="rotate(5.17941 219.754 84.1693)" fill="#434877"/>
<path d="M234.477 94.8845L236.364 95.0555C237.111 95.1232 237.638 95.3104 237.944 95.617C238.258 95.9242 238.389 96.3612 238.338 96.9281C238.314 97.1908 238.255 97.4155 238.162 97.6022C238.075 97.7895 237.981 97.9447 237.879 98.0679C237.762 98.2106 237.636 98.3316 237.501 98.431C237.661 98.5082 237.81 98.6018 237.946 98.7118C238.083 98.8217 238.2 98.9508 238.298 99.0991C238.396 99.2474 238.467 99.4212 238.512 99.6204C238.564 99.8133 238.579 100.038 238.556 100.293C238.53 100.577 238.467 100.843 238.368 101.092C238.27 101.334 238.122 101.54 237.925 101.71C237.729 101.881 237.477 102.008 237.169 102.091C236.862 102.175 236.487 102.197 236.045 102.157L233.836 101.957L234.477 94.8845ZM235.07 98.0329L236.802 98.1898C236.905 98.1226 237.001 98.0302 237.088 97.9126C237.167 97.8152 237.24 97.6929 237.31 97.5459C237.379 97.3919 237.424 97.2043 237.444 96.983C237.481 96.5752 237.399 96.2924 237.197 96.1347C237.003 95.9707 236.716 95.8715 236.335 95.837L235.278 95.7412L235.07 98.0329ZM234.778 101.258L236.188 101.386C236.644 101.427 236.997 101.341 237.246 101.126C237.496 100.912 237.638 100.608 237.674 100.214C237.69 100.041 237.68 99.8795 237.645 99.73C237.616 99.581 237.552 99.4497 237.45 99.336C237.35 99.2153 237.209 99.1154 237.028 99.0363C236.847 98.9572 236.618 98.9051 236.342 98.88L235.004 98.7587L234.778 101.258ZM243.503 102.707C243.34 102.741 243.17 102.768 242.994 102.787C242.825 102.806 242.636 102.821 242.426 102.829C242.223 102.839 242.011 102.834 241.79 102.814C241.444 102.782 241.127 102.705 240.838 102.581C240.55 102.457 240.305 102.278 240.103 102.044C239.901 101.809 239.75 101.517 239.649 101.166C239.556 100.809 239.532 100.382 239.577 99.8842C239.618 99.4349 239.716 99.0465 239.871 98.719C240.027 98.3846 240.222 98.1131 240.457 97.9044C240.7 97.6894 240.972 97.5363 241.273 97.4451C241.581 97.3545 241.907 97.3249 242.253 97.3562C242.592 97.3869 242.88 97.4792 243.117 97.6331C243.354 97.787 243.541 97.9853 243.68 98.2278C243.825 98.4641 243.923 98.7377 243.971 99.0488C244.027 99.3536 244.04 99.6719 244.01 100.004L243.813 100.446L240.464 100.142C240.444 100.357 240.452 100.573 240.488 100.793C240.524 101.012 240.6 101.214 240.716 101.399C240.838 101.584 241.002 101.742 241.206 101.872C241.418 101.996 241.686 102.072 242.011 102.102C242.218 102.121 242.41 102.127 242.584 102.122C242.76 102.11 242.911 102.096 243.038 102.08C243.172 102.057 243.297 102.03 243.411 101.999L243.503 102.707ZM243.168 99.7183C243.172 99.6699 243.172 99.5618 243.166 99.394C243.16 99.2262 243.128 99.049 243.068 98.8624C243.008 98.6758 242.905 98.5061 242.759 98.3534C242.613 98.1938 242.408 98.1021 242.146 98.0783C241.855 98.052 241.611 98.0926 241.413 98.2001C241.216 98.3007 241.055 98.429 240.929 98.5849C240.803 98.7408 240.712 98.9032 240.655 99.0723C240.598 99.2414 240.564 99.3778 240.555 99.4814L243.168 99.7183ZM248.001 100.826C247.862 100.82 247.73 100.815 247.605 100.811C247.48 100.806 247.355 100.805 247.229 100.808C247.111 100.804 247.003 100.805 246.905 100.81C246.401 100.827 246.039 100.906 245.817 101.046C245.596 101.179 245.472 101.391 245.446 101.681C245.424 101.923 245.48 102.113 245.614 102.251C245.755 102.382 245.947 102.458 246.189 102.48C246.52 102.51 246.819 102.482 247.085 102.394C247.358 102.301 247.628 102.172 247.894 102.008L248.001 100.826ZM247.818 102.733C247.476 102.89 247.158 103.014 246.864 103.106C246.577 103.192 246.271 103.22 245.947 103.19C245.483 103.148 245.124 103.004 244.867 102.758C244.618 102.505 244.517 102.12 244.564 101.601C244.589 101.332 244.679 101.103 244.835 100.915C244.992 100.727 245.187 100.577 245.42 100.466C245.66 100.349 245.926 100.265 246.216 100.214C246.507 100.164 246.801 100.142 247.101 100.148C247.226 100.145 247.39 100.15 247.591 100.161C247.792 100.165 247.949 100.169 248.06 100.172C248.082 99.9303 248.095 99.7153 248.098 99.5274C248.101 99.3326 248.075 99.1664 248.017 99.0288C247.961 98.8842 247.867 98.7711 247.735 98.6895C247.609 98.6084 247.422 98.5566 247.174 98.5341C246.973 98.5159 246.778 98.5122 246.589 98.5229C246.401 98.5267 246.233 98.5359 246.085 98.5504C245.909 98.5693 245.746 98.5929 245.597 98.6212L245.496 97.8907C245.673 97.8649 245.863 97.8437 246.067 97.8274C246.243 97.8085 246.446 97.799 246.676 97.7989C246.906 97.7919 247.153 97.8004 247.416 97.8242C247.768 97.8561 248.047 97.9337 248.252 98.0568C248.464 98.1805 248.62 98.3376 248.721 98.528C248.83 98.7121 248.895 98.9201 248.916 99.152C248.944 99.3776 248.947 99.6149 248.925 99.8637L248.699 102.352C248.69 102.449 248.681 102.553 248.671 102.664C248.668 102.768 248.666 102.872 248.663 102.977C248.668 103.081 248.672 103.19 248.676 103.302L247.87 103.312L247.818 102.733ZM253.248 103.141L253.228 103.139C253.161 103.182 253.065 103.24 252.94 103.312C252.816 103.377 252.674 103.441 252.515 103.503C252.356 103.566 252.181 103.616 251.989 103.654C251.804 103.693 251.619 103.704 251.432 103.688C251.176 103.664 250.961 103.61 250.788 103.525C250.614 103.446 250.478 103.326 250.382 103.164C250.285 103.002 250.223 102.794 250.198 102.541C250.172 102.287 250.176 101.974 250.21 101.601L250.517 98.2098L251.347 98.285L251.05 101.551C251.032 101.759 251.018 101.946 251.01 102.112C251.002 102.279 251.013 102.423 251.044 102.544C251.075 102.665 251.132 102.765 251.216 102.842C251.307 102.913 251.439 102.956 251.612 102.972C251.791 102.988 251.982 102.967 252.182 102.909C252.382 102.85 252.567 102.78 252.734 102.697C252.931 102.604 253.126 102.496 253.318 102.374L253.669 98.4956L254.499 98.5708L254.087 103.113C254.072 103.362 254.069 103.588 254.078 103.791L253.251 103.8L253.248 103.141ZM257.361 97.2619L257.22 98.8174L258.723 98.9537L258.662 99.6277L257.159 99.4914L256.908 102.26C256.887 102.488 256.873 102.679 256.866 102.831C256.866 102.985 256.879 103.108 256.906 103.201C256.932 103.294 256.975 103.364 257.033 103.411C257.092 103.451 257.17 103.476 257.267 103.485C257.53 103.501 257.843 103.432 258.206 103.277L258.397 103.932C258.156 104.063 257.932 104.144 257.727 104.175C257.529 104.212 257.333 104.222 257.139 104.205C256.683 104.163 256.373 104.006 256.209 103.734C256.053 103.455 256.003 103.015 256.057 102.413L256.329 99.4162L255.375 99.3298L255.436 98.6557L256.39 98.7422L256.522 97.2904L257.361 97.2619ZM259.11 98.9887L259.991 99.0686L260.752 101.511C260.828 101.748 260.894 101.984 260.95 102.219C261.012 102.454 261.066 102.665 261.112 102.85C261.169 103.072 261.215 103.285 261.253 103.49L261.263 103.491C261.343 103.296 261.431 103.095 261.527 102.888C261.605 102.714 261.696 102.516 261.8 102.296C261.904 102.075 262.011 101.855 262.121 101.635L263.237 99.3628L264.108 99.4418L261.076 105.44C260.956 105.687 260.808 105.897 260.632 106.069C260.463 106.242 260.3 106.384 260.144 106.495C259.958 106.625 259.767 106.733 259.571 106.819L259.231 106.067C259.383 106.011 259.525 105.937 259.659 105.845C259.778 105.765 259.899 105.661 260.022 105.533C260.144 105.411 260.249 105.26 260.335 105.08L260.733 104.259L259.11 98.9887ZM269.956 102.816C269.817 102.81 269.685 102.805 269.56 102.801C269.435 102.796 269.309 102.795 269.184 102.798C269.065 102.794 268.957 102.795 268.859 102.8C268.356 102.817 267.993 102.896 267.771 103.036C267.55 103.169 267.427 103.381 267.4 103.671C267.378 103.913 267.434 104.103 267.568 104.241C267.71 104.372 267.901 104.449 268.143 104.47C268.475 104.501 268.774 104.472 269.04 104.384C269.313 104.291 269.583 104.162 269.848 103.998L269.956 102.816ZM269.772 104.723C269.43 104.88 269.112 105.004 268.818 105.096C268.532 105.182 268.226 105.21 267.901 105.18C267.438 105.138 267.078 104.994 266.822 104.748C266.573 104.495 266.472 104.11 266.519 103.591C266.543 103.322 266.634 103.093 266.79 102.905C266.947 102.717 267.141 102.567 267.374 102.456C267.615 102.339 267.881 102.255 268.171 102.204C268.461 102.154 268.756 102.132 269.055 102.138C269.181 102.135 269.344 102.14 269.545 102.151C269.747 102.155 269.904 102.159 270.015 102.162C270.037 101.92 270.049 101.705 270.052 101.517C270.056 101.323 270.029 101.156 269.972 101.019C269.915 100.874 269.821 100.761 269.689 100.68C269.564 100.599 269.377 100.547 269.128 100.524C268.928 100.506 268.733 100.502 268.544 100.513C268.355 100.517 268.187 100.526 268.039 100.54C267.864 100.559 267.701 100.583 267.552 100.611L267.451 99.8807C267.628 99.8549 267.818 99.8338 268.021 99.8174C268.197 99.7985 268.4 99.789 268.63 99.789C268.861 99.782 269.108 99.7904 269.37 99.8142C269.723 99.8462 270.002 99.9237 270.207 100.047C270.418 100.171 270.575 100.328 270.676 100.518C270.785 100.702 270.85 100.91 270.871 101.142C270.899 101.368 270.902 101.605 270.879 101.854L270.654 104.343C270.645 104.439 270.635 104.543 270.625 104.654C270.623 104.758 270.62 104.862 270.618 104.967C270.622 105.072 270.626 105.18 270.63 105.292L269.824 105.302L269.772 104.723ZM272.419 101.241C272.439 101.096 272.45 100.78 272.453 100.292L273.23 100.258L273.283 100.932C273.503 100.813 273.718 100.71 273.928 100.625C274.145 100.54 274.364 100.469 274.585 100.412C274.807 100.349 275.018 100.326 275.219 100.344C275.502 100.37 275.734 100.426 275.914 100.512C276.102 100.592 276.248 100.713 276.352 100.876C276.456 101.038 276.52 101.246 276.546 101.5C276.579 101.754 276.578 102.067 276.545 102.441L276.24 105.8L275.41 105.725L275.707 102.459C275.725 102.251 275.739 102.068 275.746 101.908C275.754 101.742 275.736 101.601 275.69 101.485C275.653 101.363 275.581 101.266 275.476 101.194C275.378 101.122 275.232 101.077 275.039 101.06C274.859 101.044 274.665 101.068 274.457 101.133C274.25 101.191 274.045 101.263 273.842 101.349C273.639 101.435 273.431 101.538 273.218 101.658L272.87 105.495L272.04 105.42L272.419 101.241ZM281.359 101.79C281.117 101.698 280.927 101.639 280.79 101.613C280.653 101.579 280.513 101.556 280.368 101.543C280.077 101.517 279.824 101.546 279.607 101.631C279.39 101.716 279.204 101.845 279.049 102.019C278.901 102.187 278.785 102.389 278.701 102.626C278.618 102.855 278.564 103.104 278.539 103.374C278.517 103.616 278.52 103.86 278.546 104.107C278.579 104.354 278.643 104.579 278.736 104.782C278.829 104.986 278.949 105.154 279.098 105.286C279.246 105.418 279.431 105.494 279.652 105.514C279.804 105.527 279.962 105.514 280.126 105.473C280.297 105.433 280.455 105.384 280.599 105.328C280.745 105.264 280.898 105.184 281.06 105.087L281.359 101.79ZM281.005 105.814C280.836 105.91 280.672 105.989 280.513 106.052C280.361 106.108 280.193 106.155 280.009 106.194C279.831 106.234 279.659 106.246 279.493 106.231C278.843 106.172 278.352 105.898 278.02 105.408C277.696 104.911 277.574 104.221 277.654 103.336C277.702 102.81 277.824 102.379 278.022 102.041C278.227 101.704 278.467 101.444 278.741 101.26C279.017 101.068 279.303 100.941 279.602 100.878C279.907 100.815 280.184 100.794 280.433 100.817C280.558 100.828 280.688 100.851 280.825 100.884C280.962 100.91 281.162 100.97 281.425 101.064L281.661 98.461L282.499 98.4428L281.872 105.359C281.863 105.456 281.854 105.56 281.844 105.671C281.841 105.775 281.839 105.879 281.836 105.984C281.841 106.088 281.845 106.197 281.849 106.309L281.043 106.319L281.005 105.814ZM285.845 99.5407L286.727 99.6206L287.53 105.987L287.54 105.988L289.921 99.9101L291.02 100.01L292.248 106.415L292.258 106.416L294.182 100.296L295.064 100.376L292.795 107.301L291.696 107.201L290.394 100.8L290.384 100.799L287.942 106.861L286.843 106.761L285.845 99.5407ZM299.109 107.748C298.946 107.782 298.776 107.808 298.6 107.827C298.431 107.847 298.242 107.861 298.032 107.87C297.829 107.879 297.617 107.874 297.395 107.854C297.05 107.823 296.733 107.745 296.444 107.621C296.156 107.498 295.91 107.318 295.709 107.084C295.507 106.85 295.356 106.557 295.255 106.207C295.162 105.85 295.138 105.422 295.183 104.925C295.224 104.475 295.322 104.087 295.477 103.759C295.633 103.425 295.828 103.153 296.063 102.945C296.306 102.73 296.577 102.577 296.878 102.485C297.186 102.395 297.513 102.365 297.859 102.397C298.197 102.427 298.485 102.52 298.722 102.673C298.959 102.827 299.147 103.026 299.285 103.268C299.431 103.504 299.528 103.778 299.577 104.089C299.633 104.394 299.646 104.712 299.616 105.044L299.419 105.486L296.069 105.183C296.05 105.397 296.058 105.614 296.094 105.833C296.13 106.052 296.206 106.254 296.321 106.439C296.444 106.625 296.607 106.782 296.812 106.912C297.023 107.036 297.292 107.113 297.617 107.142C297.824 107.161 298.015 107.168 298.19 107.163C298.365 107.151 298.516 107.137 298.643 107.12C298.778 107.097 298.902 107.07 299.017 107.039L299.109 107.748ZM298.774 104.759C298.778 104.71 298.777 104.602 298.772 104.434C298.766 104.267 298.733 104.089 298.674 103.903C298.614 103.716 298.511 103.546 298.364 103.394C298.218 103.234 298.014 103.142 297.751 103.119C297.461 103.092 297.217 103.133 297.019 103.24C296.822 103.341 296.66 103.469 296.535 103.625C296.409 103.781 296.317 103.944 296.26 104.113C296.203 104.282 296.17 104.418 296.161 104.522L298.774 104.759Z" fill="#F2F4F8"/>
<rect x="244.315" y="62.9329" width="96.6851" height="25.8868" rx="12.9434" fill="#5C0F8C"/>
<path d="M261.074 72.2751H265.426V73.0769H261.948V75.3467H265.176V76.1277H261.948V78.5745H265.53V79.3763H261.074V72.2751ZM266.795 75.1801C266.802 75.0344 266.784 74.7185 266.743 74.2326L267.513 74.1285L267.628 74.7949C267.836 74.6561 268.041 74.5346 268.242 74.4305C268.45 74.3263 268.662 74.2361 268.877 74.1597C269.092 74.0765 269.301 74.0348 269.502 74.0348C269.787 74.0348 270.023 74.0695 270.21 74.1389C270.404 74.2014 270.561 74.309 270.679 74.4617C270.797 74.6144 270.88 74.8157 270.928 75.0656C270.984 75.3155 271.012 75.6279 271.012 76.0027V79.3763H270.179V76.0964C270.179 75.8882 270.175 75.7042 270.168 75.5446C270.161 75.378 270.13 75.2392 270.075 75.1281C270.026 75.0101 269.946 74.9198 269.835 74.8574C269.731 74.7949 269.582 74.7637 269.387 74.7637C269.207 74.7637 269.016 74.8053 268.815 74.8886C268.613 74.965 268.416 75.0552 268.221 75.1593C268.027 75.2634 267.829 75.3849 267.628 75.5238V79.3763H266.795V75.1801ZM273.697 72.5771V74.1389H275.207V74.8157H273.697V77.5958C273.697 77.8249 273.7 78.0157 273.707 78.1685C273.721 78.3212 273.745 78.4427 273.78 78.5329C273.815 78.6231 273.863 78.6891 273.926 78.7307C273.988 78.7654 274.068 78.7828 274.165 78.7828C274.429 78.7758 274.735 78.6787 275.082 78.4912L275.332 79.1264C275.102 79.2791 274.887 79.3798 274.686 79.4283C274.492 79.4839 274.297 79.5116 274.103 79.5116C273.645 79.5116 273.322 79.3832 273.135 79.1264C272.954 78.8626 272.864 78.4288 272.864 77.8249V74.8157H271.906V74.1389H272.864V72.6812L273.697 72.5771ZM280.104 79.2513C279.944 79.2999 279.778 79.3416 279.604 79.3763C279.438 79.411 279.25 79.4422 279.042 79.47C278.841 79.4978 278.629 79.5116 278.407 79.5116C278.06 79.5116 277.737 79.4631 277.438 79.3659C277.14 79.2687 276.88 79.1125 276.658 78.8973C276.435 78.6821 276.258 78.4045 276.127 78.0643C276.002 77.7173 275.939 77.2938 275.939 76.794C275.939 76.3428 276.002 75.9472 276.127 75.6071C276.251 75.26 276.422 74.9719 276.637 74.7428C276.859 74.5068 277.116 74.3298 277.407 74.2118C277.706 74.0938 278.028 74.0348 278.376 74.0348C278.716 74.0348 279.011 74.1007 279.261 74.2326C279.51 74.3645 279.715 74.545 279.875 74.7741C280.042 74.9962 280.163 75.26 280.239 75.5654C280.323 75.8639 280.364 76.1797 280.364 76.5129L280.208 76.9711H276.845C276.845 77.1862 276.873 77.4014 276.928 77.6166C276.984 77.8318 277.077 78.0262 277.209 78.1997C277.348 78.3732 277.525 78.5155 277.74 78.6266C277.963 78.7307 278.237 78.7828 278.563 78.7828C278.771 78.7828 278.962 78.7724 279.136 78.7515C279.309 78.7238 279.458 78.696 279.583 78.6682C279.715 78.6335 279.837 78.5954 279.948 78.5537L280.104 79.2513ZM279.5 76.3047C279.5 76.2561 279.49 76.1485 279.469 75.9819C279.448 75.8153 279.399 75.6418 279.323 75.4613C279.247 75.2808 279.129 75.1211 278.969 74.9823C278.809 74.8365 278.598 74.7637 278.334 74.7637C278.042 74.7637 277.803 74.8261 277.615 74.9511C277.428 75.0691 277.279 75.2114 277.168 75.378C277.057 75.5446 276.98 75.7146 276.939 75.8882C276.897 76.0617 276.876 76.2005 276.876 76.3047H279.5ZM281.508 74.9823C281.508 74.8227 281.491 74.5728 281.456 74.2326L282.227 74.1285L282.31 74.8886H282.32C282.445 74.729 282.567 74.5901 282.685 74.4721C282.803 74.3541 282.924 74.2535 283.049 74.1702C283.181 74.0799 283.306 74.0348 283.424 74.0348C283.584 74.0279 283.806 74.0452 284.09 74.0869L283.903 74.8886C283.674 74.847 283.514 74.8296 283.424 74.8365C283.306 74.8365 283.181 74.8921 283.049 75.0031C282.917 75.1142 282.803 75.2322 282.706 75.3572C282.581 75.5099 282.459 75.6834 282.341 75.8778V79.3763H281.508V74.9823ZM286.224 72.5771V74.1389H287.734V74.8157H286.224V77.5958C286.224 77.8249 286.227 78.0157 286.234 78.1685C286.248 78.3212 286.273 78.4427 286.307 78.5329C286.342 78.6231 286.391 78.6891 286.453 78.7307C286.516 78.7654 286.595 78.7828 286.693 78.7828C286.956 78.7758 287.262 78.6787 287.609 78.4912L287.859 79.1264C287.63 79.2791 287.414 79.3798 287.213 79.4283C287.019 79.4839 286.824 79.5116 286.63 79.5116C286.172 79.5116 285.849 79.3832 285.662 79.1264C285.481 78.8626 285.391 78.4288 285.391 77.8249V74.8157H284.433V74.1389H285.391V72.6812L286.224 72.5771ZM291.714 76.9711C291.575 76.978 291.443 76.9849 291.318 76.9919C291.193 76.9988 291.068 77.0092 290.943 77.0231C290.825 77.0301 290.718 77.0405 290.621 77.0544C290.121 77.1168 289.767 77.2279 289.559 77.3875C289.35 77.5403 289.246 77.7624 289.246 78.0539C289.246 78.2969 289.319 78.4808 289.465 78.6058C289.618 78.7238 289.815 78.7828 290.058 78.7828C290.392 78.7828 290.687 78.7273 290.943 78.6162C291.207 78.4982 291.464 78.3455 291.714 78.158V76.9711ZM291.704 78.8869C291.377 79.0743 291.072 79.227 290.787 79.345C290.51 79.4561 290.208 79.5116 289.881 79.5116C289.416 79.5116 289.045 79.4006 288.767 79.1784C288.497 78.9494 288.361 78.5745 288.361 78.0539C288.361 77.7832 288.431 77.5472 288.569 77.3459C288.708 77.1446 288.889 76.978 289.111 76.8461C289.34 76.7073 289.597 76.5997 289.881 76.5233C290.166 76.447 290.458 76.3984 290.756 76.3776C290.881 76.3637 291.044 76.3533 291.245 76.3463C291.447 76.3324 291.603 76.322 291.714 76.3151C291.714 76.0721 291.707 75.8569 291.693 75.6695C291.679 75.4752 291.638 75.312 291.568 75.1801C291.499 75.0413 291.395 74.9372 291.256 74.8678C291.124 74.7984 290.933 74.7637 290.683 74.7637C290.482 74.7637 290.287 74.7775 290.1 74.8053C289.913 74.8261 289.746 74.8504 289.6 74.8782C289.427 74.9129 289.267 74.9511 289.121 74.9927L288.955 74.2743C289.128 74.2326 289.316 74.1945 289.517 74.1597C289.691 74.125 289.892 74.0973 290.121 74.0765C290.35 74.0487 290.596 74.0348 290.86 74.0348C291.214 74.0348 291.499 74.0869 291.714 74.191C291.936 74.2951 292.106 74.4374 292.224 74.6179C292.349 74.7914 292.432 74.9927 292.474 75.2218C292.523 75.4439 292.547 75.6799 292.547 75.9298V78.4288C292.547 78.5259 292.547 78.6301 292.547 78.7411C292.554 78.8453 292.561 78.9494 292.568 79.0535C292.582 79.1576 292.596 79.2652 292.609 79.3763L291.808 79.4596L291.704 78.8869ZM294.015 74.1285L294.848 74.0348V79.3763H294.015V74.1285ZM293.879 72.6396C293.879 72.4799 293.932 72.348 294.036 72.2439C294.147 72.1328 294.282 72.0773 294.442 72.0773C294.608 72.0773 294.747 72.1328 294.858 72.2439C294.976 72.348 295.035 72.4799 295.035 72.6396C295.035 72.7992 294.976 72.9346 294.858 73.0456C294.747 73.1498 294.608 73.2018 294.442 73.2018C294.282 73.2018 294.147 73.1498 294.036 73.0456C293.932 72.9346 293.879 72.7992 293.879 72.6396ZM296.354 75.1801C296.361 75.0344 296.343 74.7185 296.302 74.2326L297.072 74.1285L297.187 74.7949C297.395 74.6561 297.6 74.5346 297.801 74.4305C298.009 74.3263 298.221 74.2361 298.436 74.1597C298.651 74.0765 298.86 74.0348 299.061 74.0348C299.346 74.0348 299.582 74.0695 299.769 74.1389C299.963 74.2014 300.12 74.309 300.238 74.4617C300.356 74.6144 300.439 74.8157 300.487 75.0656C300.543 75.3155 300.571 75.6279 300.571 76.0027V79.3763H299.738V76.0964C299.738 75.8882 299.734 75.7042 299.727 75.5446C299.72 75.378 299.689 75.2392 299.634 75.1281C299.585 75.0101 299.505 74.9198 299.394 74.8574C299.29 74.7949 299.141 74.7637 298.946 74.7637C298.766 74.7637 298.575 74.8053 298.374 74.8886C298.172 74.965 297.975 75.0552 297.78 75.1593C297.586 75.2634 297.388 75.3849 297.187 75.5238V79.3763H296.354V75.1801ZM302.048 75.0864C302.048 74.8504 302.027 74.5658 301.985 74.2326L302.766 74.1285L302.881 74.7845C303.068 74.6457 303.252 74.5242 303.433 74.4201C303.613 74.3159 303.808 74.2257 304.016 74.1493C304.224 74.073 304.436 74.0348 304.651 74.0348C304.998 74.0348 305.272 74.0973 305.474 74.2222C305.675 74.3402 305.824 74.545 305.921 74.8365C306.206 74.6352 306.501 74.4513 306.806 74.2847C307.119 74.1181 307.441 74.0348 307.775 74.0348C308.032 74.0348 308.25 74.0695 308.431 74.1389C308.611 74.2014 308.757 74.309 308.868 74.4617C308.979 74.6144 309.059 74.8157 309.107 75.0656C309.156 75.3155 309.18 75.6279 309.18 76.0027V79.3763H308.347V76.0964C308.347 75.8882 308.344 75.7042 308.337 75.5446C308.33 75.378 308.306 75.2392 308.264 75.1281C308.222 75.0101 308.153 74.9198 308.056 74.8574C307.966 74.7949 307.834 74.7637 307.66 74.7637C307.5 74.7637 307.348 74.788 307.202 74.8365C307.063 74.8782 306.917 74.9407 306.765 75.024C306.612 75.1073 306.376 75.2773 306.057 75.5342V79.3763H305.224V76.0964C305.224 75.8882 305.22 75.7042 305.213 75.5446C305.206 75.378 305.182 75.2392 305.14 75.1281C305.099 75.0101 305.029 74.9198 304.932 74.8574C304.842 74.7949 304.71 74.7637 304.536 74.7637C304.356 74.7637 304.169 74.8018 303.974 74.8782C303.78 74.9545 303.596 75.0448 303.422 75.1489C303.249 75.253 303.068 75.3745 302.881 75.5133V79.3763H302.048V75.0864ZM314.523 79.2513C314.364 79.2999 314.197 79.3416 314.024 79.3763C313.857 79.411 313.67 79.4422 313.461 79.47C313.26 79.4978 313.048 79.5116 312.826 79.5116C312.479 79.5116 312.156 79.4631 311.858 79.3659C311.559 79.2687 311.299 79.1125 311.077 78.8973C310.855 78.6821 310.678 78.4045 310.546 78.0643C310.421 77.7173 310.358 77.2938 310.358 76.794C310.358 76.3428 310.421 75.9472 310.546 75.6071C310.671 75.26 310.841 74.9719 311.056 74.7428C311.278 74.5068 311.535 74.3298 311.827 74.2118C312.125 74.0938 312.448 74.0348 312.795 74.0348C313.135 74.0348 313.43 74.1007 313.68 74.2326C313.93 74.3645 314.135 74.545 314.294 74.7741C314.461 74.9962 314.582 75.26 314.659 75.5654C314.742 75.8639 314.784 76.1797 314.784 76.5129L314.627 76.9711H311.264C311.264 77.1862 311.292 77.4014 311.348 77.6166C311.403 77.8318 311.497 78.0262 311.629 78.1997C311.768 78.3732 311.945 78.5155 312.16 78.6266C312.382 78.7307 312.656 78.7828 312.982 78.7828C313.191 78.7828 313.381 78.7724 313.555 78.7515C313.729 78.7238 313.878 78.696 314.003 78.6682C314.135 78.6335 314.256 78.5954 314.367 78.5537L314.523 79.2513ZM313.919 76.3047C313.919 76.2561 313.909 76.1485 313.888 75.9819C313.867 75.8153 313.819 75.6418 313.742 75.4613C313.666 75.2808 313.548 75.1211 313.388 74.9823C313.229 74.8365 313.017 74.7637 312.753 74.7637C312.462 74.7637 312.222 74.8261 312.035 74.9511C311.847 75.0691 311.698 75.2114 311.587 75.378C311.476 75.5446 311.4 75.7146 311.358 75.8882C311.316 76.0617 311.296 76.2005 311.296 76.3047H313.919ZM315.928 75.1801C315.934 75.0344 315.917 74.7185 315.875 74.2326L316.646 74.1285L316.761 74.7949C316.969 74.6561 317.174 74.5346 317.375 74.4305C317.583 74.3263 317.795 74.2361 318.01 74.1597C318.225 74.0765 318.433 74.0348 318.635 74.0348C318.919 74.0348 319.155 74.0695 319.343 74.1389C319.537 74.2014 319.693 74.309 319.811 74.4617C319.929 74.6144 320.013 74.8157 320.061 75.0656C320.117 75.3155 320.145 75.6279 320.145 76.0027V79.3763H319.312V76.0964C319.312 75.8882 319.308 75.7042 319.301 75.5446C319.294 75.378 319.263 75.2392 319.207 75.1281C319.159 75.0101 319.079 74.9198 318.968 74.8574C318.864 74.7949 318.715 74.7637 318.52 74.7637C318.34 74.7637 318.149 74.8053 317.948 74.8886C317.746 74.965 317.548 75.0552 317.354 75.1593C317.16 75.2634 316.962 75.3849 316.761 75.5238V79.3763H315.928V75.1801ZM322.83 72.5771V74.1389H324.339V74.8157H322.83V77.5958C322.83 77.8249 322.833 78.0157 322.84 78.1685C322.854 78.3212 322.878 78.4427 322.913 78.5329C322.948 78.6231 322.996 78.6891 323.059 78.7307C323.121 78.7654 323.201 78.7828 323.298 78.7828C323.562 78.7758 323.867 78.6787 324.214 78.4912L324.464 79.1264C324.235 79.2791 324.02 79.3798 323.819 79.4283C323.624 79.4839 323.43 79.5116 323.236 79.5116C322.778 79.5116 322.455 79.3832 322.267 79.1264C322.087 78.8626 321.997 78.4288 321.997 77.8249V74.8157H321.039V74.1389H321.997V72.6812L322.83 72.5771Z" fill="#F2F4F8"/>
<rect x="27" y="95.0632" width="96.6851" height="25.8868" rx="12.9434" transform="rotate(-8.16138 27 95.0632)" fill="#8E4CFA"/>
<path d="M44.9153 101.932L49.2236 101.314L49.3374 102.107L45.8949 102.601L46.2171 104.848L49.4123 104.39L49.5231 105.163L46.328 105.621L46.6754 108.043L50.2209 107.535L50.3347 108.328L45.9234 108.961L44.9153 101.932ZM50.9908 103.995C50.977 103.85 50.915 103.54 50.8048 103.065L51.5527 102.852L51.7607 103.495C51.9471 103.329 52.1326 103.179 52.317 103.048C52.5084 102.915 52.7052 102.796 52.9073 102.689C53.1085 102.576 53.3087 102.506 53.508 102.477C53.7897 102.437 54.0283 102.437 54.2236 102.48C54.4249 102.514 54.5948 102.598 54.7333 102.733C54.8718 102.867 54.9828 103.054 55.0664 103.295C55.1568 103.534 55.2286 103.84 55.2818 104.211L55.7608 107.55L54.9362 107.668L54.4706 104.422C54.441 104.216 54.4115 104.034 54.382 103.877C54.3514 103.713 54.3008 103.58 54.2301 103.478C54.1652 103.368 54.0734 103.29 53.9546 103.244C53.8426 103.197 53.6905 103.187 53.4981 103.215C53.3194 103.24 53.1364 103.309 52.949 103.42C52.7605 103.524 52.5775 103.641 52.3999 103.772C52.2223 103.903 52.0437 104.051 51.8641 104.217L52.4111 108.03L51.5865 108.149L50.9908 103.995ZM57.4534 100.439L57.6751 101.985L59.1696 101.77L59.2657 102.44L57.7712 102.655L58.1659 105.406C58.1984 105.633 58.2289 105.822 58.2575 105.972C58.2929 106.121 58.3342 106.238 58.3814 106.322C58.4285 106.407 58.486 106.465 58.5537 106.497C58.6205 106.523 58.702 106.529 58.7982 106.515C59.0583 106.471 59.3468 106.331 59.6638 106.096L60.0013 106.689C59.7962 106.873 59.5975 107.003 59.4052 107.08C59.2207 107.163 59.0322 107.218 58.8398 107.245C58.3863 107.31 58.0486 107.229 57.8266 107.001C57.6105 106.766 57.4596 106.349 57.3738 105.751L56.9467 102.773L55.9984 102.909L55.9024 102.239L56.8506 102.103L56.6436 100.66L57.4534 100.439ZM64.7432 106.136C64.592 106.206 64.433 106.271 64.2662 106.33C64.1062 106.388 63.9251 106.446 63.7229 106.503C63.5276 106.559 63.32 106.603 63.1001 106.634C62.7566 106.684 62.4302 106.681 62.1209 106.627C61.8116 106.574 61.5318 106.456 61.2814 106.274C61.031 106.093 60.8163 105.843 60.6375 105.525C60.4645 105.2 60.3426 104.789 60.2716 104.295C60.2076 103.848 60.2132 103.447 60.2886 103.093C60.3631 102.732 60.4905 102.422 60.671 102.165C60.8574 101.9 61.0865 101.688 61.3583 101.53C61.637 101.371 61.9482 101.267 62.2917 101.217C62.6284 101.169 62.9298 101.192 63.1959 101.288C63.462 101.383 63.6903 101.532 63.8808 101.736C64.0773 101.932 64.235 102.176 64.3539 102.468C64.4787 102.751 64.5648 103.058 64.6121 103.388L64.5225 103.864L61.1934 104.341C61.224 104.554 61.282 104.763 61.3675 104.968C61.4531 105.173 61.5734 105.353 61.7286 105.506C61.8907 105.658 62.0861 105.773 62.3149 105.853C62.5495 105.924 62.8283 105.937 63.1513 105.891C63.3574 105.861 63.5449 105.824 63.7137 105.778C63.8815 105.726 64.0253 105.678 64.1451 105.632C64.2707 105.579 64.3855 105.524 64.4895 105.467L64.7432 106.136ZM63.7271 103.305C63.7202 103.256 63.6946 103.151 63.6503 102.989C63.6061 102.828 63.5333 102.663 63.4321 102.495C63.3309 102.327 63.1915 102.186 63.0137 102.071C62.835 101.949 62.6151 101.907 62.354 101.945C62.0654 101.986 61.8372 102.082 61.6694 102.232C61.5006 102.376 61.3731 102.538 61.2868 102.718C61.2005 102.899 61.1491 103.078 61.1325 103.256C61.1159 103.434 61.115 103.574 61.1298 103.677L63.7271 103.305ZM65.5271 101.711C65.5045 101.552 65.4518 101.308 65.3692 100.976L66.1171 100.763L66.3074 101.504L66.3177 101.502C66.4188 101.327 66.5193 101.172 66.6194 101.038C66.7194 100.905 66.8254 100.788 66.9372 100.688C67.055 100.58 67.1722 100.517 67.2891 100.501C67.4461 100.471 67.6684 100.457 67.9561 100.458L67.8844 101.278C67.6517 101.269 67.4912 101.275 67.4029 101.294C67.2861 101.311 67.1703 101.384 67.0555 101.512C66.9407 101.641 66.8441 101.774 66.7656 101.912C66.6636 102.08 66.568 102.27 66.4788 102.479L66.9754 105.942L66.1509 106.06L65.5271 101.711ZM69.8538 98.6602L70.0755 100.206L71.57 99.9919L71.666 100.662L70.1716 100.876L70.5662 103.628C70.5987 103.855 70.6293 104.043 70.6578 104.193C70.6932 104.343 70.7345 104.459 70.7817 104.544C70.8289 104.628 70.8863 104.687 70.9541 104.719C71.0209 104.744 71.1023 104.75 71.1985 104.737C71.4587 104.692 71.7472 104.553 72.0641 104.318L72.4017 104.911C72.1966 105.095 71.9979 105.225 71.8055 105.302C71.621 105.384 71.4326 105.439 71.2402 105.467C70.7867 105.532 70.4489 105.451 70.2269 105.223C70.0108 104.988 69.8599 104.571 69.7742 103.973L69.347 100.994L68.3988 101.13L68.3027 100.46L69.2509 100.324L69.044 98.8815L69.8538 98.6602ZM75.9119 102.23C75.7754 102.257 75.6459 102.282 75.5232 102.307C75.4005 102.332 75.2783 102.36 75.1566 102.391C75.0407 102.415 74.9357 102.44 74.8415 102.468C74.3556 102.601 74.021 102.761 73.8375 102.949C73.653 103.129 73.5815 103.364 73.6229 103.653C73.6574 103.893 73.7556 104.065 73.9177 104.168C74.0856 104.263 74.2898 104.293 74.5303 104.259C74.8601 104.211 75.1442 104.115 75.3827 103.968C75.6271 103.814 75.8596 103.626 76.0804 103.405L75.9119 102.23ZM76.1735 104.128C75.8772 104.36 75.5965 104.555 75.3316 104.712C75.0725 104.861 74.7815 104.959 74.4585 105.005C73.9982 105.071 73.6148 105.014 73.3084 104.834C73.0079 104.645 72.8207 104.294 72.7468 103.778C72.7084 103.51 72.7436 103.267 72.8524 103.048C72.9613 102.829 73.1163 102.638 73.3174 102.476C73.5245 102.306 73.7634 102.163 74.0343 102.047C74.3052 101.931 74.5869 101.842 74.8794 101.779C75.0011 101.747 75.1611 101.714 75.3594 101.678C75.5567 101.636 75.7098 101.604 75.8187 101.581C75.7843 101.34 75.7468 101.128 75.7065 100.945C75.6651 100.754 75.6008 100.599 75.5133 100.478C75.4249 100.351 75.3071 100.262 75.1598 100.213C75.0194 100.163 74.8255 100.156 74.5781 100.192C74.3789 100.22 74.1884 100.262 74.0069 100.316C73.8243 100.363 73.6628 100.411 73.5225 100.459C73.3556 100.518 73.203 100.578 73.0646 100.64L72.7977 99.9525C72.9636 99.8867 73.1437 99.8223 73.338 99.7594C73.5049 99.7004 73.7002 99.6443 73.924 99.5912C74.1468 99.5312 74.3888 99.4824 74.6499 99.445C75.0003 99.3947 75.2894 99.4059 75.5172 99.4784C75.7519 99.5499 75.9404 99.6666 76.0828 99.8285C76.2312 99.9826 76.3422 100.17 76.4159 100.391C76.4956 100.604 76.5531 100.834 76.5886 101.081L76.9433 103.555C76.9571 103.651 76.9719 103.754 76.9877 103.864C77.0093 103.966 77.031 104.068 77.0526 104.17C77.0812 104.272 77.1102 104.376 77.1397 104.484L76.3579 104.68L76.1735 104.128ZM77.7859 99.0899L78.5971 98.8789L79.3554 104.166L78.5309 104.285L77.7859 99.0899ZM77.4405 97.6353C77.4179 97.4772 77.4507 97.3393 77.539 97.2214C77.6331 97.0957 77.7592 97.0215 77.9173 96.9989C78.0822 96.9752 78.2275 97.0105 78.3532 97.1047C78.4848 97.191 78.5619 97.3131 78.5846 97.4712C78.6072 97.6292 78.5681 97.7716 78.467 97.8983C78.3719 98.0171 78.2418 98.0884 78.0769 98.112C77.9189 98.1347 77.7775 98.1024 77.6528 98.0151C77.5339 97.9199 77.4632 97.7933 77.4405 97.6353ZM80.2504 99.7989C80.2366 99.6536 80.1746 99.3434 80.0644 98.8683L80.8123 98.6559L81.0203 99.2993C81.2067 99.1323 81.3922 98.983 81.5766 98.8513C81.768 98.7187 81.9648 98.5993 82.1669 98.4932C82.3681 98.3802 82.5683 98.3094 82.7676 98.2808C83.0493 98.2404 83.2879 98.2412 83.4832 98.2834C83.6845 98.3176 83.8544 98.4019 83.9929 98.5363C84.1314 98.6708 84.2424 98.8582 84.326 99.0987C84.4164 99.3381 84.4882 99.6434 84.5414 100.014L85.0204 103.354L84.1958 103.472L83.7302 100.225C83.7006 100.019 83.6711 99.8377 83.6416 99.6807C83.611 99.5168 83.5604 99.3838 83.4897 99.2817C83.4248 99.1718 83.333 99.0938 83.2142 99.0477C83.1022 99.0007 82.9501 98.9909 82.7577 99.0185C82.579 99.0442 82.396 99.1125 82.2086 99.2235C82.0201 99.3277 81.8371 99.4451 81.6595 99.5757C81.4819 99.7064 81.3033 99.8547 81.1237 100.021L81.6707 103.834L80.8461 103.952L80.2504 99.7989ZM85.8736 98.8977C85.8401 98.6641 85.7791 98.3854 85.6906 98.0615L86.4488 97.8475L86.6553 98.4806C86.8211 98.3166 86.986 98.1702 87.1498 98.0415C87.3137 97.9128 87.4933 97.7959 87.6886 97.6908C87.8839 97.5856 88.088 97.5178 88.3011 97.4872C88.6446 97.4379 88.9249 97.4609 89.1419 97.556C89.3579 97.6442 89.5347 97.8257 89.6723 98.1005C89.9254 97.8608 90.1913 97.6369 90.47 97.4286C90.7556 97.2194 91.0633 97.0911 91.3931 97.0438C91.6473 97.0073 91.8687 97.0106 92.0572 97.0537C92.2447 97.0899 92.4043 97.1758 92.5359 97.3112C92.6675 97.4466 92.7751 97.6345 92.8587 97.8749C92.9423 98.1154 93.0107 98.4212 93.0639 98.7922L93.5428 102.132L92.7182 102.25L92.2526 99.0032C92.2231 98.7971 92.1935 98.6155 92.164 98.4584C92.1335 98.2945 92.0897 98.1605 92.0327 98.0565C91.9747 97.9456 91.8932 97.8661 91.7881 97.8181C91.6899 97.7691 91.555 97.7569 91.3832 97.7815C91.2251 97.8042 91.0774 97.8499 90.94 97.9187C90.8085 97.9796 90.6731 98.0622 90.5338 98.1663C90.3944 98.2704 90.1849 98.4723 89.9053 98.7718L90.4508 102.575L89.6262 102.693L89.1606 99.4467C89.131 99.2405 89.1015 99.0589 89.0719 98.9019C89.0414 98.738 88.9977 98.604 88.9407 98.5C88.8827 98.3891 88.8012 98.3096 88.6961 98.2615C88.5979 98.2125 88.4629 98.2003 88.2911 98.225C88.1125 98.2506 87.9324 98.315 87.7508 98.4181C87.5693 98.5213 87.4 98.6368 87.243 98.7645C87.086 98.8922 86.9246 99.038 86.7588 99.2021L87.3072 103.026L86.4826 103.144L85.8736 98.8977ZM98.814 101.249C98.6628 101.32 98.5038 101.385 98.337 101.444C98.177 101.502 97.9959 101.56 97.7937 101.617C97.5984 101.673 97.3908 101.716 97.1709 101.748C96.8273 101.797 96.5009 101.795 96.1917 101.741C95.8824 101.687 95.6026 101.57 95.3522 101.388C95.1017 101.207 94.8871 100.957 94.7083 100.639C94.5353 100.313 94.4134 99.903 94.3424 99.4083C94.2784 98.9617 94.284 98.5611 94.3594 98.2067C94.4338 97.8454 94.5613 97.5361 94.7418 97.2788C94.9281 97.0137 95.1572 96.802 95.4291 96.6438C95.7078 96.4846 96.0189 96.3804 96.3625 96.3311C96.6992 96.2828 97.0006 96.3062 97.2666 96.4013C97.5327 96.4964 97.7611 96.6459 97.9516 96.85C98.1481 97.0463 98.3057 97.2901 98.4247 97.5816C98.5495 97.8652 98.6356 98.172 98.6829 98.5018L98.5933 98.9775L95.2642 99.4549C95.2948 99.6679 95.3528 99.877 95.4383 100.082C95.5238 100.287 95.6442 100.466 95.7994 100.619C95.9614 100.771 96.1569 100.887 96.3856 100.967C96.6203 101.038 96.8991 101.051 97.222 101.004C97.4282 100.975 97.6157 100.937 97.7845 100.892C97.9523 100.84 98.0961 100.791 98.2158 100.746C98.3415 100.693 98.4563 100.638 98.5603 100.581L98.814 101.249ZM97.7979 98.4183C97.791 98.3702 97.7654 98.2652 97.7211 98.1033C97.6768 97.9413 97.6041 97.7764 97.5029 97.6086C97.4017 97.4408 97.2622 97.2995 97.0845 97.1848C96.9058 97.0631 96.6858 97.021 96.4247 97.0585C96.1361 97.0999 95.908 97.1957 95.7402 97.346C95.5714 97.4894 95.4439 97.6515 95.3576 97.8321C95.2713 98.0128 95.2199 98.192 95.2033 98.3697C95.1867 98.5474 95.1858 98.6878 95.2005 98.7908L97.7979 98.4183ZM99.626 97.0201C99.6122 96.8749 99.5501 96.5647 99.4399 96.0896L100.188 95.8772L100.396 96.5205C100.582 96.3535 100.768 96.2042 100.952 96.0726C101.144 95.9399 101.34 95.8206 101.542 95.7144C101.744 95.6014 101.944 95.5306 102.143 95.5021C102.425 95.4617 102.663 95.4625 102.859 95.5046C103.06 95.5389 103.23 95.6232 103.368 95.7576C103.507 95.892 103.618 96.0795 103.702 96.3199C103.792 96.5594 103.864 96.8647 103.917 97.2357L104.396 100.575L103.571 100.693L103.106 97.4467C103.076 97.2406 103.047 97.059 103.017 96.902C102.987 96.738 102.936 96.605 102.865 96.503C102.8 96.3931 102.709 96.3151 102.59 96.269C102.478 96.2219 102.326 96.2122 102.133 96.2398C101.955 96.2654 101.772 96.3337 101.584 96.4448C101.396 96.5489 101.213 96.6664 101.035 96.797C100.857 96.9277 100.679 97.076 100.499 97.242L101.046 101.056L100.222 101.174L99.626 97.0201ZM106.089 93.4636L106.31 95.0096L107.805 94.7953L107.901 95.4652L106.406 95.6796L106.801 98.4315C106.834 98.6582 106.864 98.8467 106.893 98.9969C106.928 99.1461 106.969 99.2629 107.017 99.3473C107.064 99.4317 107.121 99.49 107.189 99.5224C107.256 99.5479 107.337 99.5537 107.433 99.5399C107.693 99.4956 107.982 99.3561 108.299 99.1213L108.636 99.7145C108.431 99.8982 108.233 100.028 108.04 100.105C107.856 100.188 107.667 100.243 107.475 100.27C107.021 100.335 106.684 100.254 106.462 100.026C106.246 99.7909 106.095 99.3743 106.009 98.7765L105.582 95.7978L104.634 95.9338L104.538 95.2639L105.486 95.1279L105.279 93.6849L106.089 93.4636Z" fill="white"/>
<rect x="225.17" y="28.2473" width="81.0667" height="25.8868" rx="12.9434" transform="rotate(9.3696 225.17 28.2473)" fill="#AD3DD4"/>
<path d="M241.574 40.4227L242.643 40.5989L243.89 48.002L242.997 47.8545L242.689 45.8831L239.843 45.4135L238.908 47.1799L238.014 47.0324L241.574 40.4227ZM242.547 45.0155L241.993 41.3361L241.962 41.331L240.246 44.6357L242.547 45.0155ZM248.703 44.2583C248.591 44.2117 248.435 44.1577 248.234 44.0964C248.034 44.0283 247.828 43.9767 247.615 43.9417C247.307 43.8908 247.044 43.9106 246.825 44.0011C246.613 44.0928 246.435 44.2289 246.293 44.4094C246.152 44.5831 246.041 44.7864 245.96 45.0193C245.881 45.2454 245.822 45.4715 245.785 45.6975C245.727 46.0468 245.722 46.3555 245.769 46.6236C245.818 46.8848 245.901 47.1061 246.019 47.2873C246.143 47.4697 246.295 47.6144 246.475 47.7214C246.655 47.8215 246.852 47.8891 247.064 47.9241C247.208 47.9479 247.346 47.9636 247.478 47.9714C247.619 47.9734 247.745 47.9732 247.858 47.9708C247.979 47.9626 248.094 47.9498 248.202 47.9325L248.253 48.648C248.102 48.6653 247.963 48.6776 247.835 48.6846C247.708 48.6917 247.556 48.6913 247.382 48.6836C247.214 48.6771 247.034 48.6579 246.842 48.6263C246.466 48.5641 246.138 48.4608 245.859 48.3164C245.581 48.1719 245.356 47.9765 245.186 47.7303C245.022 47.4852 244.914 47.1824 244.861 46.8219C244.814 46.4625 244.832 46.0362 244.913 45.5431C244.993 45.0637 245.125 44.6635 245.312 44.3425C245.507 44.0158 245.731 43.7644 245.985 43.5883C246.241 43.4053 246.517 43.2856 246.815 43.2292C247.119 43.1739 247.426 43.1717 247.734 43.2225C247.898 43.2497 248.054 43.2859 248.202 43.3313C248.357 43.371 248.491 43.4107 248.604 43.4505C248.736 43.5005 248.862 43.5494 248.981 43.5971L248.703 44.2583ZM253.067 44.9784C252.955 44.9318 252.799 44.8778 252.598 44.8165C252.398 44.7484 252.192 44.6968 251.98 44.6618C251.671 44.6109 251.408 44.6307 251.189 44.7212C250.977 44.8129 250.799 44.949 250.657 45.1295C250.516 45.3032 250.405 45.5065 250.324 45.7394C250.245 45.9655 250.186 46.1916 250.149 46.4176C250.091 46.7669 250.086 47.0756 250.133 47.3437C250.182 47.6049 250.265 47.8262 250.383 48.0074C250.507 48.1898 250.659 48.3345 250.839 48.4415C251.019 48.5416 251.216 48.6092 251.428 48.6442C251.572 48.668 251.71 48.6837 251.842 48.6915C251.983 48.6935 252.109 48.6933 252.222 48.6909C252.343 48.6827 252.458 48.6699 252.566 48.6527L252.617 49.3681C252.467 49.3854 252.327 49.3977 252.199 49.4047C252.072 49.4118 251.92 49.4114 251.746 49.4037C251.578 49.3972 251.398 49.378 251.207 49.3464C250.83 49.2843 250.502 49.1809 250.224 49.0365C249.945 48.892 249.72 48.6966 249.55 48.4504C249.386 48.2053 249.278 47.9025 249.225 47.542C249.179 47.1826 249.196 46.7563 249.278 46.2632C249.357 45.7838 249.49 45.3836 249.676 45.0626C249.871 44.7359 250.095 44.4845 250.349 44.3084C250.605 44.1254 250.881 44.0057 251.179 43.9493C251.484 43.894 251.79 43.8918 252.098 43.9426C252.263 43.9698 252.418 44.006 252.566 44.0514C252.721 44.0911 252.855 44.1308 252.968 44.1706C253.101 44.2206 253.226 44.2695 253.345 44.3172L253.067 44.9784ZM254.505 47.1257C254.395 47.7901 254.46 48.3109 254.701 48.6882C254.949 49.0599 255.326 49.2875 255.833 49.3711C256.333 49.4536 256.75 49.3571 257.084 49.0815C257.418 48.8059 257.638 48.3463 257.744 47.7025C257.857 47.0176 257.791 46.4825 257.545 46.0972C257.306 45.713 256.929 45.4785 256.416 45.3937C255.902 45.309 255.48 45.4118 255.151 45.7022C254.83 45.9869 254.614 46.4614 254.505 47.1257ZM253.633 46.9714C253.719 46.4508 253.872 46.0329 254.093 45.7176C254.315 45.3954 254.57 45.1525 254.857 44.9889C255.146 44.8184 255.441 44.7157 255.742 44.681C256.051 44.6406 256.336 44.6418 256.596 44.6848C256.842 44.7255 257.103 44.8106 257.377 44.9403C257.659 45.0642 257.906 45.2492 258.119 45.4954C258.333 45.7347 258.494 46.0391 258.601 46.4087C258.71 46.7714 258.722 47.213 258.636 47.7335C258.547 48.2746 258.387 48.7091 258.157 49.037C257.934 49.366 257.678 49.6158 257.39 49.7863C257.103 49.9499 256.805 50.0485 256.497 50.0821C256.188 50.1226 255.906 50.1219 255.653 50.0801C255.393 50.0371 255.125 49.9508 254.851 49.8212C254.577 49.6915 254.333 49.5071 254.12 49.2678C253.914 49.0227 253.757 48.712 253.651 48.3356C253.551 47.9603 253.545 47.5056 253.633 46.9714ZM262.582 50.5057L262.561 50.5023C262.492 50.5401 262.392 50.5905 262.262 50.6535C262.133 50.7096 261.987 50.7629 261.824 50.8134C261.661 50.8638 261.482 50.9012 261.288 50.9255C261.101 50.9509 260.915 50.9484 260.73 50.9178C260.477 50.876 260.267 50.8062 260.1 50.7083C259.932 50.6173 259.806 50.4874 259.721 50.3186C259.636 50.1499 259.59 49.9383 259.583 49.6838C259.576 49.4293 259.603 49.1172 259.664 48.7473L260.218 45.388L261.04 45.5236L260.506 48.7597C260.472 48.9651 260.445 49.1506 260.425 49.3161C260.404 49.4816 260.405 49.626 260.427 49.7492C260.449 49.8724 260.499 49.9756 260.576 50.0588C260.662 50.1362 260.791 50.1891 260.962 50.2174C261.14 50.2467 261.331 50.2396 261.535 50.1959C261.739 50.1522 261.928 50.0954 262.102 50.0255C262.305 49.9464 262.506 49.8531 262.707 49.7455L263.341 45.9033L264.163 46.0389L263.42 50.5386C263.387 50.7863 263.367 51.0117 263.362 51.2149L262.537 51.1631L262.582 50.5057ZM265.497 47.3143C265.528 47.1716 265.562 46.8572 265.6 46.371L266.377 46.3937L266.382 47.0698C266.61 46.9668 266.832 46.8802 267.047 46.8103C267.27 46.7415 267.493 46.6869 267.718 46.6466C267.944 46.5994 268.156 46.5922 268.355 46.625C268.635 46.6713 268.863 46.744 269.036 46.843C269.218 46.9363 269.354 47.0679 269.446 47.2378C269.538 47.4077 269.587 47.6198 269.594 47.8743C269.608 48.1299 269.585 48.4426 269.524 48.8125L268.975 52.141L268.153 52.0054L268.687 48.7693C268.721 48.5638 268.747 48.3818 268.766 48.2231C268.787 48.0576 268.778 47.9156 268.742 47.7969C268.713 47.6726 268.649 47.5706 268.549 47.4908C268.457 47.4123 268.315 47.3571 268.123 47.3255C267.945 47.2961 267.75 47.3061 267.538 47.3555C267.327 47.3981 267.117 47.4549 266.908 47.526C266.699 47.5971 266.484 47.6848 266.263 47.789L265.636 51.5901L264.814 51.4545L265.497 47.3143ZM272.731 45.8697L272.477 47.4107L273.966 47.6565L273.856 48.3242L272.366 48.0784L271.914 50.8214C271.876 51.0474 271.849 51.2363 271.831 51.3881C271.82 51.5411 271.824 51.6649 271.843 51.7596C271.863 51.8543 271.9 51.9272 271.955 51.9785C272.011 52.0229 272.087 52.053 272.183 52.0689C272.444 52.105 272.761 52.0588 273.134 51.9304L273.277 52.5977C273.027 52.7111 272.798 52.7754 272.591 52.7906C272.391 52.8137 272.194 52.8095 272.003 52.7778C271.55 52.7032 271.253 52.524 271.11 52.2401C270.975 51.9504 270.956 51.5077 271.055 50.9118L271.545 47.9428L270.599 47.7869L270.71 47.1191L271.655 47.2751L271.892 45.8368L272.731 45.8697ZM275.018 47.8195L275.856 47.8627L274.986 53.1329L274.164 52.9973L275.018 47.8195ZM275.127 46.3284C275.153 46.1709 275.226 46.0492 275.346 45.9635C275.473 45.8719 275.616 45.8392 275.774 45.8652C275.938 45.8923 276.066 45.9697 276.157 46.0974C276.257 46.2193 276.294 46.359 276.268 46.5166C276.242 46.6741 276.161 46.798 276.027 46.8884C275.9 46.9731 275.755 47.0018 275.59 46.9747C275.433 46.9487 275.308 46.8753 275.215 46.7545C275.131 46.628 275.101 46.4859 275.127 46.3284ZM277.155 49.2379C277.186 49.0952 277.22 48.7808 277.258 48.2946L278.035 48.3173L278.04 48.9934C278.268 48.8903 278.489 48.8038 278.705 48.7339C278.927 48.665 279.151 48.6105 279.376 48.5702C279.602 48.523 279.814 48.5158 280.012 48.5486C280.293 48.5949 280.52 48.6676 280.694 48.7666C280.876 48.8599 281.012 48.9915 281.104 49.1613C281.195 49.3312 281.245 49.5434 281.252 49.7979C281.266 50.0535 281.243 50.3662 281.182 50.736L280.632 54.0646L279.811 53.929L280.345 50.6929C280.378 50.4874 280.405 50.3054 280.424 50.1467C280.444 49.9812 280.436 49.8391 280.4 49.7205C280.371 49.5962 280.307 49.4942 280.207 49.4144C280.115 49.3358 279.973 49.2807 279.781 49.2491C279.603 49.2197 279.408 49.2297 279.195 49.2791C278.984 49.3217 278.774 49.3785 278.566 49.4496C278.357 49.5207 278.142 49.6083 277.921 49.7126L277.294 53.5137L276.472 53.3781L277.155 49.2379ZM286.046 55.4644C286.004 55.7178 285.936 55.9599 285.842 56.1905C285.747 56.4212 285.606 56.616 285.418 56.7749C285.236 56.9418 284.995 57.0569 284.696 57.1202C284.403 57.1914 284.031 57.1897 283.579 57.1151C283.292 57.0608 283.045 57.0024 282.837 56.94C282.629 56.8776 282.434 56.8032 282.251 56.7167C282.068 56.6371 281.903 56.5501 281.756 56.4556L282.091 55.7721C282.339 55.9326 282.594 56.0663 282.858 56.1731C283.129 56.2811 283.374 56.3531 283.593 56.3893C283.833 56.4289 284.045 56.4394 284.231 56.4208C284.417 56.4022 284.578 56.3444 284.714 56.2471C284.855 56.1579 284.969 56.0253 285.054 55.8495C285.146 55.6747 285.215 55.4504 285.26 55.1764L285.384 54.4264C285.224 54.4986 285.059 54.5628 284.888 54.619C284.724 54.6694 284.549 54.7074 284.362 54.7328C284.182 54.7593 284.01 54.759 283.845 54.7319C283.208 54.6268 282.742 54.3212 282.445 53.815C282.15 53.3019 282.076 52.6002 282.223 51.7099C282.308 51.1962 282.457 50.7811 282.671 50.4647C282.893 50.1425 283.145 49.8956 283.426 49.724C283.708 49.5523 284.003 49.4463 284.313 49.4059C284.623 49.3586 284.912 49.357 285.179 49.401C285.528 49.4587 285.841 49.542 286.119 49.6511C286.404 49.7545 286.685 49.8465 286.96 49.9271L286.046 55.4644ZM284.056 54.028C284.207 54.0529 284.366 54.0509 284.532 54.0221C284.699 53.9933 284.86 53.9531 285.016 53.9015C285.18 53.8511 285.342 53.7863 285.502 53.7073L286.043 50.4301C285.964 50.396 285.872 50.3562 285.767 50.3107C285.674 50.2812 285.566 50.2494 285.445 50.2154C285.325 50.1745 285.197 50.1428 285.06 50.1202C284.772 50.0727 284.517 50.0834 284.295 50.1522C284.072 50.221 283.878 50.3332 283.712 50.4887C283.552 50.6453 283.422 50.8383 283.321 51.0679C283.219 51.2974 283.147 51.5457 283.103 51.8128C283.063 52.0526 283.048 52.2962 283.056 52.5438C283.071 52.7926 283.118 53.0219 283.196 53.2317C283.274 53.4416 283.382 53.6177 283.52 53.7602C283.658 53.9026 283.837 53.9919 284.056 54.028Z" fill="#F2F4F8"/>
</g>
<path d="M11.088 22V10.8H13.248V22H11.088ZM15.4154 22V13.968H17.3194L17.4794 15.28C17.7247 14.8213 18.0714 14.4587 18.5194 14.192C18.978 13.9147 19.522 13.776 20.1514 13.776C20.8234 13.776 21.3887 13.9147 21.8474 14.192C22.306 14.4693 22.6527 14.8747 22.8874 15.408C23.1327 15.9413 23.2554 16.6027 23.2554 17.392V22H21.1114V17.584C21.1114 16.944 20.9727 16.4533 20.6954 16.112C20.4287 15.7707 20.0127 15.6 19.4474 15.6C19.0847 15.6 18.7594 15.6853 18.4714 15.856C18.194 16.0267 17.9754 16.272 17.8154 16.592C17.6554 16.9013 17.5754 17.2853 17.5754 17.744V22H15.4154ZM28.8588 22.192C28.1334 22.192 27.4774 22.0107 26.8908 21.648C26.3041 21.2853 25.8454 20.7893 25.5148 20.16C25.1841 19.52 25.0188 18.7947 25.0188 17.984C25.0188 17.1733 25.1841 16.4533 25.5148 15.824C25.8561 15.184 26.3201 14.6827 26.9068 14.32C27.5041 13.9573 28.1708 13.776 28.9068 13.776C29.4934 13.776 30.0001 13.8827 30.4268 14.096C30.8641 14.3093 31.2161 14.6133 31.4828 15.008V10.48H33.6428V22H31.7228L31.4828 20.896C31.3228 21.12 31.1201 21.3333 30.8748 21.536C30.6401 21.7387 30.3574 21.8987 30.0268 22.016C29.6961 22.1333 29.3068 22.192 28.8588 22.192ZM29.3708 20.304C29.7974 20.304 30.1708 20.208 30.4908 20.016C30.8214 19.8133 31.0774 19.536 31.2588 19.184C31.4508 18.832 31.5468 18.432 31.5468 17.984C31.5468 17.5253 31.4508 17.12 31.2588 16.768C31.0774 16.416 30.8214 16.144 30.4908 15.952C30.1708 15.76 29.7974 15.664 29.3708 15.664C28.9654 15.664 28.5974 15.76 28.2668 15.952C27.9361 16.144 27.6748 16.416 27.4828 16.768C27.3014 17.12 27.2108 17.52 27.2108 17.968C27.2108 18.4267 27.3014 18.832 27.4828 19.184C27.6748 19.536 27.9361 19.8133 28.2668 20.016C28.5974 20.208 28.9654 20.304 29.3708 20.304ZM38.7511 22.192C38.1005 22.192 37.5405 22.0587 37.0711 21.792C36.6125 21.5147 36.2605 21.1093 36.0151 20.576C35.7805 20.0427 35.6631 19.3867 35.6631 18.608V13.968H37.8071V18.384C37.8071 19.0347 37.9405 19.5307 38.2071 19.872C38.4845 20.2027 38.9058 20.368 39.4711 20.368C39.8338 20.368 40.1538 20.288 40.4311 20.128C40.7191 19.9573 40.9431 19.712 41.1031 19.392C41.2631 19.072 41.3431 18.6827 41.3431 18.224V13.968H43.5031V22H41.5991L41.4391 20.688C41.1938 21.1467 40.8418 21.5147 40.3831 21.792C39.9351 22.0587 39.3911 22.192 38.7511 22.192ZM48.9145 22.192C48.1785 22.192 47.5385 22.0747 46.9945 21.84C46.4612 21.6053 46.0345 21.2853 45.7145 20.88C45.4052 20.464 45.2292 19.9893 45.1865 19.456H47.3305C47.3838 19.6587 47.4745 19.8453 47.6025 20.016C47.7305 20.176 47.9012 20.304 48.1145 20.4C48.3385 20.496 48.5945 20.544 48.8825 20.544C49.1705 20.544 49.4052 20.5067 49.5865 20.432C49.7678 20.3467 49.9012 20.24 49.9865 20.112C50.0825 19.9733 50.1305 19.8293 50.1305 19.68C50.1305 19.4453 50.0665 19.2693 49.9385 19.152C49.8105 19.0347 49.6185 18.9387 49.3625 18.864C49.1172 18.7893 48.8238 18.7147 48.4825 18.64C48.1092 18.5653 47.7358 18.4747 47.3625 18.368C46.9998 18.2507 46.6692 18.1067 46.3705 17.936C46.0825 17.7653 45.8532 17.5467 45.6825 17.28C45.5118 17.0133 45.4265 16.6827 45.4265 16.288C45.4265 15.8187 45.5545 15.392 45.8105 15.008C46.0665 14.624 46.4398 14.3253 46.9305 14.112C47.4212 13.888 48.0078 13.776 48.6905 13.776C49.6612 13.776 50.4292 13.9947 50.9945 14.432C51.5705 14.8693 51.9065 15.472 52.0025 16.24H49.9705C49.9172 15.984 49.7785 15.7867 49.5545 15.648C49.3305 15.5093 49.0425 15.44 48.6905 15.44C48.3065 15.44 48.0132 15.5093 47.8105 15.648C47.6185 15.7867 47.5225 15.9627 47.5225 16.176C47.5225 16.3253 47.5865 16.4587 47.7145 16.576C47.8425 16.6933 48.0292 16.7947 48.2745 16.88C48.5198 16.9547 48.8185 17.0293 49.1705 17.104C49.7892 17.232 50.3278 17.376 50.7865 17.536C51.2558 17.696 51.6238 17.9307 51.8905 18.24C52.1572 18.5387 52.2905 18.976 52.2905 19.552C52.3012 20.064 52.1678 20.5227 51.8905 20.928C51.6132 21.3227 51.2185 21.632 50.7065 21.856C50.2052 22.08 49.6078 22.192 48.9145 22.192ZM57.4845 22C56.9298 22 56.4392 21.9147 56.0125 21.744C55.5858 21.5627 55.2552 21.2693 55.0205 20.864C54.7858 20.448 54.6685 19.8827 54.6685 19.168V15.776H53.2925V13.968H54.6685L54.9245 11.776H56.8285V13.968H58.9565V15.776H56.8285V19.2C56.8285 19.5627 56.9085 19.8133 57.0685 19.952C57.2285 20.0907 57.5005 20.16 57.8845 20.16H58.9245V22H57.4845ZM60.7591 22V13.968H62.6791L62.8711 15.456C63.0738 15.104 63.3191 14.8053 63.6071 14.56C63.8951 14.304 64.2258 14.112 64.5991 13.984C64.9831 13.8453 65.4045 13.776 65.8631 13.776V16.064H65.1431C64.8231 16.064 64.5245 16.1013 64.2471 16.176C63.9805 16.24 63.7458 16.3573 63.5431 16.528C63.3405 16.6987 63.1858 16.928 63.0791 17.216C62.9725 17.504 62.9191 17.8667 62.9191 18.304V22H60.7591ZM67.3228 22V13.968H69.4828V22H67.3228ZM68.4108 12.848C68.0161 12.848 67.6961 12.736 67.4508 12.512C67.2054 12.2773 67.0828 11.984 67.0828 11.632C67.0828 11.28 67.2054 10.992 67.4508 10.768C67.6961 10.5333 68.0161 10.416 68.4108 10.416C68.8054 10.416 69.1254 10.5333 69.3708 10.768C69.6268 10.992 69.7548 11.28 69.7548 11.632C69.7548 11.984 69.6268 12.2773 69.3708 12.512C69.1254 12.736 68.8054 12.848 68.4108 12.848ZM75.5218 22.192C74.7111 22.192 73.9911 22.0213 73.3618 21.68C72.7431 21.328 72.2578 20.8427 71.9058 20.224C71.5644 19.5947 71.3938 18.8747 71.3938 18.064C71.3938 17.2213 71.5644 16.48 71.9058 15.84C72.2471 15.2 72.7271 14.6987 73.3458 14.336C73.9751 13.9627 74.7004 13.776 75.5218 13.776C76.3218 13.776 77.0204 13.952 77.6178 14.304C78.2151 14.6453 78.6791 15.1147 79.0098 15.712C79.3511 16.3093 79.5218 16.9867 79.5218 17.744C79.5218 17.8507 79.5164 17.9733 79.5058 18.112C79.5058 18.24 79.5004 18.3733 79.4898 18.512H72.9298V17.184H77.3298C77.3084 16.6827 77.1271 16.2827 76.7858 15.984C76.4444 15.6747 76.0284 15.52 75.5378 15.52C75.1644 15.52 74.8231 15.6053 74.5138 15.776C74.2044 15.9467 73.9591 16.2027 73.7778 16.544C73.6071 16.8747 73.5218 17.296 73.5218 17.808V18.272C73.5218 18.7093 73.6018 19.0933 73.7618 19.424C73.9324 19.744 74.1671 19.9947 74.4658 20.176C74.7644 20.3467 75.1111 20.432 75.5058 20.432C75.9004 20.432 76.2258 20.3467 76.4818 20.176C76.7484 20.0053 76.9511 19.7813 77.0898 19.504H79.2818C79.1324 20.016 78.8818 20.4747 78.5298 20.88C78.1778 21.2853 77.7458 21.6053 77.2338 21.84C76.7218 22.0747 76.1511 22.192 75.5218 22.192ZM84.5708 22.192C83.8348 22.192 83.1948 22.0747 82.6508 21.84C82.1174 21.6053 81.6908 21.2853 81.3708 20.88C81.0614 20.464 80.8854 19.9893 80.8428 19.456H82.9868C83.0401 19.6587 83.1308 19.8453 83.2588 20.016C83.3868 20.176 83.5574 20.304 83.7708 20.4C83.9948 20.496 84.2508 20.544 84.5388 20.544C84.8268 20.544 85.0614 20.5067 85.2428 20.432C85.4241 20.3467 85.5574 20.24 85.6428 20.112C85.7388 19.9733 85.7868 19.8293 85.7868 19.68C85.7868 19.4453 85.7228 19.2693 85.5948 19.152C85.4668 19.0347 85.2748 18.9387 85.0188 18.864C84.7734 18.7893 84.4801 18.7147 84.1388 18.64C83.7654 18.5653 83.3921 18.4747 83.0188 18.368C82.6561 18.2507 82.3254 18.1067 82.0268 17.936C81.7388 17.7653 81.5094 17.5467 81.3388 17.28C81.1681 17.0133 81.0828 16.6827 81.0828 16.288C81.0828 15.8187 81.2108 15.392 81.4668 15.008C81.7228 14.624 82.0961 14.3253 82.5868 14.112C83.0774 13.888 83.6641 13.776 84.3468 13.776C85.3174 13.776 86.0854 13.9947 86.6508 14.432C87.2268 14.8693 87.5628 15.472 87.6588 16.24H85.6268C85.5734 15.984 85.4348 15.7867 85.2108 15.648C84.9868 15.5093 84.6988 15.44 84.3468 15.44C83.9628 15.44 83.6694 15.5093 83.4668 15.648C83.2748 15.7867 83.1788 15.9627 83.1788 16.176C83.1788 16.3253 83.2428 16.4587 83.3708 16.576C83.4988 16.6933 83.6854 16.7947 83.9308 16.88C84.1761 16.9547 84.4748 17.0293 84.8268 17.104C85.4454 17.232 85.9841 17.376 86.4428 17.536C86.9121 17.696 87.2801 17.9307 87.5468 18.24C87.8134 18.5387 87.9468 18.976 87.9468 19.552C87.9574 20.064 87.8241 20.5227 87.5468 20.928C87.2694 21.3227 86.8748 21.632 86.3628 21.856C85.8614 22.08 85.2641 22.192 84.5708 22.192ZM13.344 42L10.416 30.8H12.72L14.672 39.552L16.976 30.8H19.36L21.584 39.552L23.552 30.8H25.888L22.864 42H20.288L18.128 33.84L15.92 42H13.344ZM30.3499 42.192C29.5392 42.192 28.8192 42.0213 28.1899 41.68C27.5712 41.328 27.0859 40.8427 26.7339 40.224C26.3925 39.5947 26.2219 38.8747 26.2219 38.064C26.2219 37.2213 26.3925 36.48 26.7339 35.84C27.0752 35.2 27.5552 34.6987 28.1739 34.336C28.8032 33.9627 29.5285 33.776 30.3499 33.776C31.1499 33.776 31.8485 33.952 32.4459 34.304C33.0432 34.6453 33.5072 35.1147 33.8379 35.712C34.1792 36.3093 34.3499 36.9867 34.3499 37.744C34.3499 37.8507 34.3445 37.9733 34.3339 38.112C34.3339 38.24 34.3285 38.3733 34.3179 38.512H27.7579V37.184H32.1579C32.1365 36.6827 31.9552 36.2827 31.6139 35.984C31.2725 35.6747 30.8565 35.52 30.3659 35.52C29.9925 35.52 29.6512 35.6053 29.3419 35.776C29.0325 35.9467 28.7872 36.2027 28.6059 36.544C28.4352 36.8747 28.3499 37.296 28.3499 37.808V38.272C28.3499 38.7093 28.4299 39.0933 28.5899 39.424C28.7605 39.744 28.9952 39.9947 29.2939 40.176C29.5925 40.3467 29.9392 40.432 30.3339 40.432C30.7285 40.432 31.0539 40.3467 31.3099 40.176C31.5765 40.0053 31.7792 39.7813 31.9179 39.504H34.1099C33.9605 40.016 33.7099 40.4747 33.3579 40.88C33.0059 41.2853 32.5739 41.6053 32.0619 41.84C31.5499 42.0747 30.9792 42.192 30.3499 42.192ZM43.7725 42.192C42.9618 42.192 42.2365 42.0533 41.5965 41.776C40.9565 41.4987 40.4552 41.0933 40.0925 40.56C39.7298 40.0267 39.5378 39.3813 39.5165 38.624H41.8045C41.8152 38.9547 41.9005 39.2533 42.0605 39.52C42.2205 39.7867 42.4445 40 42.7325 40.16C43.0205 40.3093 43.3618 40.384 43.7565 40.384C44.0978 40.384 44.3912 40.3307 44.6365 40.224C44.8925 40.1067 45.0898 39.9467 45.2285 39.744C45.3672 39.5413 45.4365 39.3013 45.4365 39.024C45.4365 38.704 45.3565 38.4373 45.1965 38.224C45.0472 38.0107 44.8338 37.8293 44.5565 37.68C44.2792 37.52 43.9592 37.3813 43.5965 37.264C43.2445 37.136 42.8712 37.008 42.4765 36.88C41.6018 36.592 40.9298 36.208 40.4605 35.728C40.0018 35.248 39.7725 34.6133 39.7725 33.824C39.7725 33.152 39.9325 32.576 40.2525 32.096C40.5832 31.616 41.0312 31.248 41.5965 30.992C42.1725 30.736 42.8338 30.608 43.5805 30.608C44.3378 30.608 44.9992 30.7413 45.5645 31.008C46.1405 31.264 46.5938 31.6373 46.9245 32.128C47.2552 32.6187 47.4312 33.1947 47.4525 33.856H45.1325C45.1325 33.6107 45.0632 33.3813 44.9245 33.168C44.7965 32.944 44.6152 32.768 44.3805 32.64C44.1458 32.5013 43.8685 32.432 43.5485 32.432C43.2605 32.4213 43.0045 32.464 42.7805 32.56C42.5565 32.656 42.3752 32.8 42.2365 32.992C42.1085 33.1733 42.0445 33.4027 42.0445 33.68C42.0445 33.9467 42.1085 34.1707 42.2365 34.352C42.3645 34.5333 42.5458 34.6933 42.7805 34.832C43.0258 34.96 43.3032 35.0827 43.6125 35.2C43.9325 35.3067 44.2792 35.4187 44.6525 35.536C45.2178 35.728 45.7298 35.9573 46.1885 36.224C46.6578 36.48 47.0312 36.816 47.3085 37.232C47.5858 37.648 47.7245 38.1973 47.7245 38.88C47.7245 39.4667 47.5698 40.0107 47.2605 40.512C46.9618 41.0133 46.5192 41.4187 45.9325 41.728C45.3458 42.0373 44.6258 42.192 43.7725 42.192ZM53.3811 42.192C52.5705 42.192 51.8505 42.0213 51.2211 41.68C50.6025 41.328 50.1171 40.8427 49.7651 40.224C49.4238 39.5947 49.2531 38.8747 49.2531 38.064C49.2531 37.2213 49.4238 36.48 49.7651 35.84C50.1065 35.2 50.5865 34.6987 51.2051 34.336C51.8345 33.9627 52.5598 33.776 53.3811 33.776C54.1811 33.776 54.8798 33.952 55.4771 34.304C56.0745 34.6453 56.5385 35.1147 56.8691 35.712C57.2105 36.3093 57.3811 36.9867 57.3811 37.744C57.3811 37.8507 57.3758 37.9733 57.3651 38.112C57.3651 38.24 57.3598 38.3733 57.3491 38.512H50.7891V37.184H55.1891C55.1678 36.6827 54.9865 36.2827 54.6451 35.984C54.3038 35.6747 53.8878 35.52 53.3971 35.52C53.0238 35.52 52.6825 35.6053 52.3731 35.776C52.0638 35.9467 51.8185 36.2027 51.6371 36.544C51.4665 36.8747 51.3811 37.296 51.3811 37.808V38.272C51.3811 38.7093 51.4611 39.0933 51.6211 39.424C51.7918 39.744 52.0265 39.9947 52.3251 40.176C52.6238 40.3467 52.9705 40.432 53.3651 40.432C53.7598 40.432 54.0851 40.3467 54.3411 40.176C54.6078 40.0053 54.8105 39.7813 54.9491 39.504H57.1411C56.9918 40.016 56.7411 40.4747 56.3891 40.88C56.0371 41.2853 55.6051 41.6053 55.0931 41.84C54.5811 42.0747 54.0105 42.192 53.3811 42.192ZM59.1341 42V33.968H61.0541L61.2461 35.456C61.4488 35.104 61.6941 34.8053 61.9821 34.56C62.2701 34.304 62.6008 34.112 62.9741 33.984C63.3581 33.8453 63.7795 33.776 64.2381 33.776V36.064H63.5181C63.1981 36.064 62.8995 36.1013 62.6221 36.176C62.3555 36.24 62.1208 36.3573 61.9181 36.528C61.7155 36.6987 61.5608 36.928 61.4541 37.216C61.3475 37.504 61.2941 37.8667 61.2941 38.304V42H59.1341ZM67.7938 42L64.8498 33.968H67.1218L69.1218 39.968L71.1058 33.968H73.3618L70.4178 42H67.7938ZM78.178 42.192C77.3673 42.192 76.6473 42.0213 76.018 41.68C75.3993 41.328 74.914 40.8427 74.562 40.224C74.2207 39.5947 74.05 38.8747 74.05 38.064C74.05 37.2213 74.2207 36.48 74.562 35.84C74.9033 35.2 75.3833 34.6987 76.002 34.336C76.6313 33.9627 77.3567 33.776 78.178 33.776C78.978 33.776 79.6767 33.952 80.274 34.304C80.8713 34.6453 81.3353 35.1147 81.666 35.712C82.0073 36.3093 82.178 36.9867 82.178 37.744C82.178 37.8507 82.1727 37.9733 82.162 38.112C82.162 38.24 82.1567 38.3733 82.146 38.512H75.586V37.184H79.986C79.9647 36.6827 79.7833 36.2827 79.442 35.984C79.1007 35.6747 78.6847 35.52 78.194 35.52C77.8207 35.52 77.4793 35.6053 77.17 35.776C76.8607 35.9467 76.6153 36.2027 76.434 36.544C76.2633 36.8747 76.178 37.296 76.178 37.808V38.272C76.178 38.7093 76.258 39.0933 76.418 39.424C76.5887 39.744 76.8233 39.9947 77.122 40.176C77.4207 40.3467 77.7673 40.432 78.162 40.432C78.5567 40.432 78.882 40.3467 79.138 40.176C79.4047 40.0053 79.6073 39.7813 79.746 39.504H81.938C81.7887 40.016 81.538 40.4747 81.186 40.88C80.834 41.2853 80.402 41.6053 79.89 41.84C79.378 42.0747 78.8073 42.192 78.178 42.192Z" fill="white"/>
<defs>
<linearGradient id="paint0_linear_22_771" x1="142.499" y1="0" x2="142.499" y2="115" gradientUnits="userSpaceOnUse">
<stop stop-color="#3B3B3B"/>
<stop offset="1"/>
</linearGradient>
<linearGradient id="paint1_linear_22_771" x1="142.499" y1="0" x2="142.499" y2="115" gradientUnits="userSpaceOnUse">
<stop stop-color="white" stop-opacity="0.15"/>
<stop offset="1" stop-opacity="0"/>
</linearGradient>
<linearGradient id="paint2_linear_22_771" x1="142.499" y1="0" x2="142.499" y2="115" gradientUnits="userSpaceOnUse">
<stop stop-color="#3B3B3B"/>
<stop offset="1"/>
</linearGradient>
<linearGradient id="paint3_linear_22_771" x1="142.499" y1="0" x2="142.499" y2="115" gradientUnits="userSpaceOnUse">
<stop stop-color="white" stop-opacity="0.15"/>
<stop offset="1" stop-opacity="0"/>
</linearGradient>
</defs>
</svg>
