<svg width="100" height="100" viewBox="0 0 100 100" fill="none" xmlns="http://www.w3.org/2000/svg">
<path fill-rule="evenodd" clip-rule="evenodd" d="M30.4576 65.5537V61.7399C30.4576 61.2388 30.752 60.8362 31.2395 60.8362H31.3744C31.8618 60.8362 32.1548 61.2392 32.1548 61.7399V69.7691C32.1548 71.7271 31.2459 73.285 29.6619 74.2775C28.9363 74.735 28.1081 74.9754 27.2647 74.9733H26.928C25.0878 74.9733 23.6258 74.0053 22.6917 72.3207C22.2612 71.5487 22.0353 70.6669 22.0381 69.7691V69.4113C22.0381 67.4527 22.9475 65.8956 24.5302 64.9013C25.2556 64.4429 26.0843 64.2024 26.928 64.2055H27.2647C28.51 64.2055 29.5666 64.7192 30.4576 65.5537ZM23.7351 69.5899C23.7351 71.0042 24.3793 72.0676 25.5438 72.7459C26.0147 73.02 26.5259 73.1673 27.0632 73.1673C28.3677 73.1673 29.3353 72.5123 30.0027 71.3359C30.313 70.7886 30.4576 70.1898 30.4576 69.5533C30.4576 68.3272 29.9122 67.3704 28.9838 66.6597C28.4209 66.229 27.7873 66.0129 27.0962 66.0129C25.6743 66.0129 24.6511 66.7774 24.0369 68.1354C23.8297 68.5946 23.7351 69.082 23.7351 69.5899ZM38.0426 64.2055H38.2779C40.2442 64.2055 41.7397 65.2206 42.6875 67.0473C43.0664 67.7781 43.2692 68.5757 43.2692 69.4113V69.7691C43.2692 71.7271 42.362 73.2871 40.7756 74.2777C40.0412 74.7362 39.2299 74.9733 38.3788 74.9733H38.0426C36.2024 74.9733 34.74 74.0053 33.8063 72.3207C33.3756 71.5487 33.1495 70.6669 33.152 69.7691V69.4113C33.152 67.4524 34.0651 65.9005 35.6439 64.9017C36.3778 64.4377 37.1897 64.2055 38.0426 64.2055ZM34.8493 69.5899C34.8493 70.9628 35.4822 71.9727 36.5719 72.683C37.0835 73.0163 37.6471 73.1673 38.2448 73.1673C39.5195 73.1673 40.4617 72.4795 41.1175 71.3345C41.4303 70.7886 41.5717 70.1889 41.5717 69.5533C41.5717 68.2766 40.994 67.3014 40.0062 66.5947C39.465 66.207 38.8624 66.0129 38.2106 66.0129C36.7887 66.0129 35.7654 66.7774 35.1515 68.1354C34.9439 68.5946 34.8493 69.082 34.8493 69.5899ZM50.3246 66.1572C50.0683 66.0294 49.5887 65.987 49.3118 65.9758C47.8939 65.9189 46.868 66.7688 46.2661 68.1C46.0582 68.5591 45.9634 69.0451 45.9634 69.5533C45.9634 71.1003 46.7267 72.1834 48.0242 72.8438C48.4982 73.0848 49.1101 73.1305 49.6281 73.1305C50.0837 73.1305 50.7276 72.8335 51.1319 72.6291L51.202 72.5937H51.5159L51.5505 72.6011C51.9364 72.6867 52.2277 72.947 52.2277 73.389V73.5678C52.2277 74.6675 50.3393 74.9192 49.6187 74.9728C47.0758 75.16 45.174 73.6738 44.4491 71.0926C44.3231 70.6444 44.2664 70.1992 44.2664 69.732V69.3747C44.2664 67.4161 45.1797 65.8646 46.7582 64.8668C47.4922 64.4029 48.3039 64.1699 49.1565 64.1699H49.493C50.3975 64.1699 51.2307 64.4433 51.9776 64.9861L52.0389 65.0313L52.0777 65.0994C52.1583 65.2416 52.2277 65.4062 52.2277 65.5754V65.7542C52.2277 66.2152 51.9035 66.4632 51.5124 66.5434L51.4799 66.5495H51.3796C51.1264 66.5495 50.5506 66.2704 50.3246 66.1572ZM55.8295 67.3802C56.4888 66.6777 57.1503 65.9765 57.8194 65.2856C58.0058 65.0929 58.7117 64.2771 58.9896 64.2771H59.2936L59.3282 64.2848C59.7155 64.3703 60.0054 64.6311 60.0054 65.074V65.2525C60.0054 65.5546 59.673 65.9057 59.4896 66.1124C59.0998 66.5523 58.6893 66.9776 58.2903 67.4084L56.2398 69.6237C57.1227 70.5653 58.0047 71.5077 58.8803 72.4566C59.1232 72.7185 59.3642 72.9824 59.6033 73.2482C59.6876 73.3426 59.8121 73.4601 59.8828 73.5908C59.9588 73.7134 60.0054 73.8517 60.0054 73.9992V74.1857L59.9956 74.2288C59.9003 74.6409 59.6546 74.9733 59.2255 74.9733H59.0904C58.8096 74.9733 58.4924 74.6353 58.3001 74.4421C57.9037 74.0444 57.5211 73.6263 57.1325 73.22L55.8295 71.8587V74.0344C55.8295 74.5355 55.5347 74.9383 55.0478 74.9383H54.9142C54.4267 74.9383 54.1323 74.5355 54.1323 74.0344V61.7749C54.1323 61.2737 54.4269 60.8728 54.9142 60.8728H55.0478C55.5347 60.8728 55.8295 61.2737 55.8295 61.7749V67.3802ZM76.9822 64.2771H77.1508C77.6599 64.2771 77.9996 64.6421 77.9996 65.1808C77.9996 65.9285 77.3278 66.1199 76.7468 66.1199C75.9845 66.1199 75.2567 66.611 74.7313 67.1618C74.0762 67.8492 73.7895 68.7295 73.7895 69.6973V74.0698C73.7895 74.571 73.4953 74.9733 73.0076 74.9733H72.8735C72.3858 74.9733 72.0918 74.5712 72.0918 74.0698V69.4463C72.0918 67.6708 72.904 66.2215 74.258 65.205C75.0664 64.5978 75.9924 64.2771 76.9822 64.2771ZM64.9197 72.9424C65.5373 73.172 66.2415 73.1391 66.8751 73.0216C67.1993 72.875 68.0281 72.4902 68.333 72.5466L68.3805 72.5552L68.4243 72.5781C68.6105 72.6741 68.7881 72.81 68.8831 73.0116C69.1052 73.4841 68.9986 73.9591 68.5623 74.2274L68.4171 74.3167C66.8072 75.3054 65.0949 75.1684 63.4901 74.2449C62.7229 73.8034 62.1359 73.1482 61.7029 72.3494L61.6017 72.1627C60.5681 70.2579 60.7076 68.2543 61.8733 66.4429C62.2756 65.8169 62.8015 65.3332 63.4163 64.9549L63.6489 64.812C65.165 63.8806 66.7899 63.9445 68.347 64.7619C69.1843 65.2015 69.8626 65.8567 70.33 66.7184L70.4141 66.8737C70.7536 67.4998 70.3138 68.0452 69.8598 68.4181C69.3328 68.8507 68.8008 69.3715 68.2957 69.8353C67.1695 70.87 66.045 71.907 64.9197 72.9424ZM63.4621 71.8529C64.7215 70.7038 65.9813 69.5535 67.2374 68.3995C67.6667 68.0056 68.1374 67.5967 68.5631 67.1825C68.2215 66.7243 67.6507 66.394 67.1658 66.197C66.1867 65.8001 65.2215 65.9334 64.3237 66.4849C63.1487 67.207 62.6482 68.3568 62.692 69.7878C62.7095 70.3514 62.8519 70.8945 63.1329 71.3739C63.2319 71.5429 63.3425 71.7016 63.4621 71.8529ZM54.3029 35.6596H59.3111V41.1081H61.8433C63.0129 41.1081 64.2155 40.8864 65.3229 40.4871C65.8672 40.2906 66.4778 40.0174 67.0146 39.6736C66.3076 38.6914 65.9467 37.4511 65.8407 36.2286C65.6961 34.5655 66.0115 32.401 67.069 31.0995L67.5955 30.4515L68.2228 30.9883C69.8022 32.3386 71.1305 34.2256 71.3647 36.3768C73.2665 35.7815 75.4994 35.9223 77.1756 36.9519L77.8633 37.3742L77.5015 38.1262C76.0838 41.0705 73.1197 41.9828 70.222 41.8213C65.886 53.3147 56.4459 58.7559 44.9999 58.7559C39.0863 58.7559 33.661 56.4033 30.5715 50.8199L30.5209 50.729L30.0708 49.7542C29.0265 47.2966 28.6796 44.6042 28.9148 41.9138L28.9855 41.1081H33.2683V35.6596H38.2763V30.3298H48.2929V25H54.3029V35.6596Z" fill="#364548"/>
<path fill-rule="evenodd" clip-rule="evenodd" d="M70.5292 37.6754C70.8649 34.8979 68.9119 32.7164 67.7007 31.6805C66.3049 33.3979 66.088 37.8989 68.2778 39.7939C67.0557 40.9491 64.4806 41.9961 61.8438 41.9961H29.7469C29.4907 44.9253 29.9738 47.6229 31.0775 49.9316L31.4426 50.6425C31.6738 51.0598 31.9264 51.4632 32.1993 51.8509C33.519 51.9411 34.7356 51.9721 35.8487 51.946H35.8491C38.0365 51.8947 39.8214 51.6196 41.1741 51.1208C41.2697 51.0892 41.3731 51.0984 41.4625 51.1464C41.5519 51.1945 41.6202 51.2776 41.653 51.3783C41.6858 51.479 41.6806 51.5894 41.6383 51.686C41.596 51.7826 41.5201 51.858 41.4266 51.8961C41.2466 51.9628 41.0591 52.0248 40.8655 52.0837H40.8648C39.7997 52.4075 38.6575 52.6252 37.1839 52.7219C37.2715 52.7236 37.0928 52.7359 37.0923 52.7359C37.0422 52.7394 36.9791 52.7471 36.9287 52.7499C36.3487 52.7846 35.7228 52.7919 35.0828 52.7919C34.3828 52.7919 33.6935 52.7779 32.9228 52.7359L32.9031 52.7499C35.5773 55.9488 39.7589 57.8674 45.0006 57.8674C56.0937 57.8674 65.503 52.634 69.6697 40.8852C72.6257 41.208 75.4666 40.4058 76.7589 37.721C74.7005 36.457 72.0534 36.86 70.5292 37.6754Z" fill="#22A0C8"/>
<path fill-rule="evenodd" clip-rule="evenodd" d="M70.5288 37.6754C70.8646 34.8979 68.9115 32.7164 67.7003 31.6805C66.3045 33.3979 66.0877 37.8989 68.2775 39.7939C67.0553 40.9491 64.4802 41.9961 61.8434 41.9961H31.6473C31.5163 46.4821 33.0806 49.8873 35.8481 51.946H35.8488C38.0362 51.8947 39.821 51.6196 41.1737 51.1208C41.2693 51.0892 41.3728 51.0984 41.4622 51.1464C41.5516 51.1945 41.6199 51.2776 41.6527 51.3783C41.6855 51.479 41.6802 51.5894 41.6379 51.686C41.5957 51.7826 41.5198 51.858 41.4262 51.8961C41.2462 51.9628 41.0587 52.0248 40.8651 52.0837H40.8644C39.7993 52.4075 38.559 52.6532 37.0854 52.7499C37.085 52.7499 37.0497 52.7138 37.0493 52.7138C40.8246 54.7747 46.2986 54.7673 52.5748 52.2017C59.612 49.3244 66.1606 43.8431 70.7297 37.5737C70.6609 37.6068 70.5939 37.6406 70.5288 37.6754Z" fill="#37B1D9"/>
<path fill-rule="evenodd" clip-rule="evenodd" d="M29.8066 45.5552C30.006 47.1243 30.4374 48.5935 31.077 49.9316L31.4421 50.6426C31.6732 51.0599 31.9259 51.4633 32.1988 51.8509C33.5187 51.9411 34.7353 51.9721 35.8486 51.946C38.036 51.8947 39.8208 51.6197 41.1735 51.1209C41.2692 51.0892 41.3726 51.0984 41.462 51.1464C41.5514 51.1945 41.6197 51.2777 41.6525 51.3784C41.6853 51.4791 41.68 51.5894 41.6378 51.686C41.5955 51.7827 41.5196 51.858 41.4261 51.8961C41.246 51.9628 41.0586 52.0248 40.8649 52.0838H40.8643C39.7992 52.4075 38.5654 52.6392 37.0918 52.7362C37.0412 52.7394 36.9529 52.7401 36.9019 52.7432C36.3224 52.7777 35.7028 52.7989 35.0626 52.7989C34.3628 52.7989 33.647 52.7847 32.8767 52.7429C35.551 55.9418 39.7584 57.8674 45.0001 57.8674C54.497 57.8674 62.7594 54.0312 67.555 45.5552H29.8066Z" fill="#1B81A5"/>
<path fill-rule="evenodd" clip-rule="evenodd" d="M31.9365 45.5552C32.5042 48.3103 33.8685 50.4731 35.8492 51.946C38.0366 51.8947 39.8214 51.6197 41.1741 51.1209C41.2697 51.0892 41.3732 51.0984 41.4625 51.1464C41.5519 51.1945 41.6203 51.2777 41.6531 51.3784C41.6859 51.4791 41.6806 51.5894 41.6383 51.686C41.596 51.7827 41.5201 51.858 41.4266 51.8961C41.2466 51.9628 41.0591 52.0248 40.8655 52.0838H40.8648C39.7997 52.4075 38.5399 52.6392 37.0661 52.7362C40.8412 54.7967 46.2994 54.7671 52.5751 52.2017C56.3717 50.6493 60.0257 48.3385 63.3038 45.5552H31.9365Z" fill="#1D91B4"/>
<path fill-rule="evenodd" clip-rule="evenodd" d="M34.1035 36.5478H38.4441V41.1672H34.1035V36.5478ZM34.4651 36.9329H34.8077V40.7823H34.4651V36.9329ZM35.1091 36.9329H35.4654V40.7823H35.1093L35.1091 36.9329ZM35.7666 36.9329H36.1229V40.7823H35.7666V36.9329ZM36.4245 36.9329H36.7806V40.7823H36.4245V36.9329ZM37.0822 36.9329H37.4384V40.7823H37.0822V36.9329ZM37.7397 36.9329H38.0825V40.7823H37.7397V36.9329ZM39.1117 31.218H43.4525V35.8371H39.1115L39.1117 31.218ZM39.4735 31.6031H39.8159V35.4523H39.4735V31.6031ZM40.1175 31.6031H40.4736V35.4523H40.1177L40.1175 31.6031ZM40.775 31.6031H41.1311V35.4523H40.775V31.6031ZM41.4327 31.6031H41.7888V35.4523H41.4327V31.6031ZM42.0904 31.6031H42.4468V35.4523H42.0904V31.6031ZM42.7479 31.6031H43.0909V35.4523H42.7479V31.6031Z" fill="#23A3C2"/>
<path fill-rule="evenodd" clip-rule="evenodd" d="M39.1115 36.5479H43.4524V41.1672H39.1113L39.1115 36.5479ZM39.4734 36.9329H39.8157V40.7824H39.4734V36.9329ZM40.1173 36.9329H40.4734V40.7824H40.1175L40.1173 36.9329ZM40.7748 36.9329H41.1309V40.7824H40.7748V36.9329ZM41.4325 36.9329H41.7887V40.7824H41.4325V36.9329ZM42.0903 36.9329H42.4466V40.7824H42.0903V36.9329ZM42.7478 36.9329H43.0908V40.7824H42.7478V36.9329Z" fill="#34BBDE"/>
<path fill-rule="evenodd" clip-rule="evenodd" d="M44.1201 36.5479H48.4607V41.1672H44.1201V36.5479ZM44.4817 36.9329H44.8241V40.7824H44.4817V36.9329ZM45.1257 36.9329H45.4818V40.7824H45.1257V36.9329ZM45.7834 36.9329H46.1395V40.7824H45.7834V36.9329ZM46.4411 36.9329H46.7972V40.7824H46.4411V36.9329ZM47.0986 36.9329H47.4552V40.7824H47.0986V36.9329ZM47.7564 36.9329H48.0989V40.7824H47.7564V36.9329Z" fill="#23A3C2"/>
<path fill-rule="evenodd" clip-rule="evenodd" d="M44.1201 31.218H48.4607V35.8371H44.1201V31.218ZM44.4817 31.6031H44.8241V35.4523H44.4817V31.6031ZM45.1257 31.6031H45.4818V35.4523H45.1257V31.6031ZM45.7834 31.6031H46.1395V35.4523H45.7834V31.6031ZM46.4411 31.6031H46.7972V35.4523H46.4411V31.6031ZM47.0986 31.6031H47.4552V35.4523H47.0986V31.6031ZM47.7564 31.6031H48.0989V35.4523H47.7564V31.6031ZM49.1283 36.5478H53.4689V41.1672H49.1283V36.5478ZM49.4901 36.9329H49.8325V40.7823H49.4901V36.9329ZM50.1341 36.9329H50.4902V40.7823H50.1341V36.9329ZM50.7916 36.9329H51.1477V40.7823H50.7916V36.9329ZM51.4493 36.9329H51.8057V40.7823H51.4493V36.9329ZM52.107 36.9329H52.4634V40.7823H52.107V36.9329ZM52.7648 36.9329H53.1073V40.7823H52.7648V36.9329Z" fill="#34BBDE"/>
<path fill-rule="evenodd" clip-rule="evenodd" d="M49.1279 31.218H53.4685V35.8371H49.1279V31.218ZM49.4898 31.6031H49.8321V35.4523H49.4898V31.6031ZM50.1337 31.6031H50.4898V35.4523H50.1337V31.6031ZM50.7912 31.6031H51.1473V35.4523H50.7912V31.6031ZM51.4489 31.6031H51.8053V35.4523H51.4489V31.6031ZM52.1067 31.6031H52.463V35.4523H52.1067V31.6031ZM52.7644 31.6031H53.1069V35.4523H52.7644V31.6031Z" fill="#23A3C2"/>
<path fill-rule="evenodd" clip-rule="evenodd" d="M49.1279 25.8881H53.4685V30.5079H49.1279V25.8881ZM49.4898 26.2729H49.8321V30.1226H49.4898V26.2729ZM50.1337 26.2729H50.4898V30.1226H50.1337V26.2729ZM50.7912 26.2729H51.1473V30.1226H50.7912V26.2729ZM51.4489 26.2729H51.8053V30.1226H51.4489V26.2729ZM52.1067 26.2729H52.463V30.1226H52.1067V26.2729ZM52.7644 26.2729H53.1069V30.1226H52.7644V26.2729Z" fill="#34BBDE"/>
<path fill-rule="evenodd" clip-rule="evenodd" d="M54.1357 36.5479H58.4764V41.1672H54.1357V36.5479ZM54.4971 36.9329H54.8399V40.7824H54.4974V36.9329H54.4971ZM55.1411 36.9329H55.4974V40.7824H55.1413L55.1411 36.9329ZM55.799 36.9329H56.1554V40.7824H55.799V36.9329ZM56.4565 36.9329H56.8129V40.7824H56.4565V36.9329ZM57.1145 36.9329H57.4706V40.7824H57.1145V36.9329ZM57.772 36.9329H58.1145V40.7824H57.772V36.9329Z" fill="#23A3C2"/>
<path fill-rule="evenodd" clip-rule="evenodd" d="M43.1807 48.6567C43.3393 48.6545 43.4968 48.6858 43.6439 48.7488C43.7911 48.8119 43.925 48.9054 44.0379 49.024C44.1508 49.1426 44.2405 49.2839 44.3016 49.4396C44.3628 49.5954 44.3943 49.7626 44.3943 49.9314C44.3942 50.1002 44.3627 50.2673 44.3015 50.4231C44.2402 50.5788 44.1505 50.7201 44.0376 50.8386C43.9246 50.9572 43.7907 51.0506 43.6435 51.1136C43.4963 51.1766 43.3389 51.2079 43.1802 51.2056C42.8654 51.201 42.565 51.0646 42.3439 50.8261C42.1229 50.5875 41.999 50.266 41.999 49.9309C41.9991 49.5959 42.1231 49.2743 42.3442 49.0359C42.5654 48.7974 42.8659 48.6612 43.1807 48.6567Z" fill="#D3ECEC"/>
<path fill-rule="evenodd" clip-rule="evenodd" d="M43.1805 49.018C43.29 49.018 43.3945 49.0399 43.4908 49.0798C43.4243 49.1209 43.3724 49.1841 43.343 49.2598C43.3137 49.3354 43.3086 49.4192 43.3285 49.4983C43.3484 49.5773 43.3922 49.6472 43.4531 49.6971C43.514 49.747 43.5887 49.7742 43.6656 49.7744C43.7981 49.7744 43.9131 49.6963 43.9727 49.5807C44.0432 49.7615 44.0572 49.9617 44.0127 50.1517C43.9681 50.3416 43.8673 50.5113 43.7251 50.6356C43.583 50.7599 43.4071 50.8323 43.2233 50.842C43.0396 50.8517 42.8578 50.7983 42.7047 50.6896C42.5517 50.5809 42.4356 50.4227 42.3735 50.2384C42.3115 50.0541 42.3067 49.8534 42.3601 49.666C42.4134 49.4787 42.522 49.3145 42.6697 49.1978C42.8174 49.0811 42.9965 49.0181 43.1805 49.018ZM22 46.0156H77.7037C76.4909 45.6884 73.8664 45.246 74.2992 43.5542C72.0936 46.2701 66.775 45.4597 65.4326 44.1206C63.938 46.4277 55.2362 45.5506 54.6293 43.7533C52.7553 46.0937 46.9488 46.0937 45.0748 43.7533C44.4675 45.5506 35.7659 46.4277 34.271 44.1204C32.9289 45.4597 27.6105 46.2701 25.4049 43.5544C25.8377 45.246 23.2132 45.6881 22 46.0156Z" fill="#364548"/>
<path fill-rule="evenodd" clip-rule="evenodd" d="M46.3633 57.8399C43.3977 56.3423 41.7701 54.3063 40.8645 52.084C39.7628 52.4185 38.4388 52.6324 36.9002 52.7243C36.3206 52.7588 35.7109 52.7765 35.0713 52.7765C34.3336 52.7765 33.5563 52.7532 32.7402 52.7073C35.4599 55.5999 38.8054 57.8268 45.0003 57.8674C45.4576 57.8674 45.9114 57.8581 46.3633 57.8399Z" fill="#BDD9D7"/>
<path fill-rule="evenodd" clip-rule="evenodd" d="M41.9662 54.1347C41.556 53.5419 41.158 52.797 40.8654 52.0835C39.7637 52.4184 38.4393 52.6324 36.9004 52.7245C37.9574 53.3349 39.4687 53.9007 41.9662 54.1347Z" fill="#D3ECEC"/>
<circle cx="50" cy="50" r="50" fill="#1B81A5" fill-opacity="0.1"/>
</svg>
