<svg width="100" height="100" viewBox="0 0 100 100" fill="none" xmlns="http://www.w3.org/2000/svg">
<path d="M50.0001 22C34.5381 22 22 34.8532 22 50.7088C22 63.3933 30.0229 74.1545 41.1482 77.9507C42.5475 78.2164 43.0614 77.3279 43.0614 76.5696C43.0614 75.8851 43.0353 73.6234 43.0234 71.2245C35.2335 72.9612 33.5898 67.8373 33.5898 67.8373C32.3162 64.5189 30.481 63.6367 30.481 63.6367C27.9406 61.8548 30.6724 61.8913 30.6724 61.8913C33.4842 62.0939 34.9648 64.8499 34.9648 64.8499C37.462 69.2389 41.515 67.9699 43.1128 67.2365C43.364 65.3808 44.0898 64.1145 44.8905 63.3976C38.6714 62.6715 32.1334 60.2098 32.1334 49.2095C32.1334 46.0753 33.2273 43.5141 35.0186 41.5037C34.7278 40.7804 33.7695 37.8606 35.2898 33.9061C35.2898 33.9061 37.641 33.1345 42.9918 36.849C45.2251 36.2127 47.6205 35.8938 50.0001 35.883C52.3797 35.8938 54.7769 36.2127 57.0146 36.849C62.359 33.1345 64.7069 33.9061 64.7069 33.9061C66.231 37.8606 65.2722 40.7804 64.9814 41.5037C66.7767 43.5141 67.863 46.075 67.863 49.2095C67.863 60.2359 61.3128 62.664 55.0779 63.3746C56.0822 64.2656 56.977 66.0128 56.977 68.6911C56.977 72.5323 56.9445 75.6239 56.9445 76.5696C56.9445 77.3335 57.4485 78.2288 58.868 77.9469C69.9872 74.1464 78 63.389 78 50.7088C78 34.8532 65.4637 22 50.0001 22Z" fill="#161614"/>
<path d="M32.4863 62.8962C32.4248 63.0388 32.2056 63.0816 32.0064 62.9838C31.8033 62.8902 31.6891 62.6956 31.755 62.5524C31.8154 62.4056 32.0346 62.3647 32.2372 62.4633C32.4408 62.5567 32.5568 62.753 32.4863 62.8962ZM33.8636 64.1562C33.7301 64.2832 33.469 64.2242 33.2918 64.0236C33.1086 63.8235 33.0744 63.556 33.2099 63.4269C33.3475 63.3002 33.6007 63.3594 33.7843 63.5598C33.9675 63.7622 34.0031 64.0281 33.8634 64.1565M34.8085 65.7684C34.6368 65.8906 34.3562 65.776 34.1829 65.5207C34.0114 65.2656 34.0114 64.9594 34.1866 64.8367C34.3606 64.714 34.6368 64.8243 34.8125 65.0776C34.9838 65.3372 34.9838 65.6434 34.8083 65.7686M36.4064 67.6356C36.2529 67.809 35.9261 67.7626 35.6867 67.5257C35.4421 67.2943 35.3738 66.9658 35.5277 66.7922C35.683 66.6183 36.0117 66.6672 36.2529 66.902C36.496 67.1331 36.57 67.464 36.4064 67.6356ZM38.4715 68.266C38.4041 68.4908 38.0891 68.593 37.772 68.4975C37.4554 68.3991 37.2481 68.1357 37.312 67.9085C37.3779 67.6822 37.6941 67.5757 38.0136 67.6779C38.3298 67.7759 38.5374 68.0373 38.4715 68.266ZM40.8221 68.5333C40.83 68.7702 40.561 68.9665 40.2281 68.9708C39.8932 68.9782 39.6224 68.7866 39.6189 68.5538C39.6189 68.3147 39.8817 68.1201 40.2164 68.1145C40.5493 68.1078 40.8221 68.298 40.8221 68.5333ZM43.1309 68.4426C43.1709 68.6736 42.9395 68.9109 42.609 68.9739C42.284 69.0347 41.9831 68.8922 41.9416 68.6632C41.9012 68.4264 42.137 68.1893 42.4614 68.1278C42.7925 68.0688 43.0888 68.2077 43.1309 68.4426Z" fill="#161614"/>
<circle cx="50" cy="50" r="50" fill="#1B81A5" fill-opacity="0.1"/>
</svg>
