<svg width="100" height="100" viewBox="0 0 100 100" fill="none" xmlns="http://www.w3.org/2000/svg">
<circle cx="50" cy="50" r="50" fill="#E76F00" fill-opacity="0.1"/>
<path d="M63.8368 66.1545H63.626V66.0365H64.1939V66.1545H63.9843V66.7433H63.8368V66.1545ZM64.9695 66.1853H64.9662L64.7571 66.7435H64.6615L64.4538 66.1853H64.4513V66.7435H64.3123V66.0367H64.5168L64.7094 66.5372L64.9013 66.0367H65.1051V66.7435H64.9694L64.9695 66.1853Z" fill="#E76F00"/>
<path d="M44.9535 51.7014C44.9535 51.7014 43.4859 52.5549 45.998 52.8437C49.0414 53.1909 50.5968 53.1411 53.9507 52.5064C53.9507 52.5064 54.8324 53.0592 56.0639 53.5381C48.5455 56.7604 39.0482 53.3515 44.9535 51.7014ZM44.0348 47.4966C44.0348 47.4966 42.3887 48.7151 44.9027 48.9751C48.1537 49.3105 50.7212 49.3379 55.1638 48.4825C55.1638 48.4825 55.7784 49.1054 56.7446 49.4461C47.6543 52.1042 37.5294 49.6557 44.0348 47.4966Z" fill="#5382A1"/>
<path d="M51.7802 40.3638C53.6327 42.4967 51.2936 44.4161 51.2936 44.4161C51.2936 44.4161 55.9973 41.9878 53.8371 38.947C51.8194 36.1111 50.2722 34.7023 58.6484 29.8444C58.6485 29.8443 45.5005 33.128 51.7802 40.3638Z" fill="#E76F00"/>
<path d="M61.7235 54.8115C61.7235 54.8115 62.8096 55.7065 60.5274 56.3988C56.1877 57.7134 42.465 58.1104 38.6529 56.4512C37.2825 55.855 39.8523 55.0277 40.6607 54.8541C41.5037 54.6713 41.9855 54.7053 41.9855 54.7053C40.4615 53.6318 32.1352 56.8132 37.7561 57.7245C53.0853 60.2104 65.6998 56.6051 61.7235 54.8115ZM45.6593 43.1398C45.6593 43.1398 38.6791 44.7978 43.1874 45.3998C45.091 45.6547 48.8857 45.597 52.4203 45.3009C55.309 45.0572 58.2097 44.5392 58.2097 44.5392C58.2097 44.5392 57.1911 44.9754 56.4542 45.4785C49.3659 47.3428 35.6726 46.4755 39.6148 44.5686C42.9486 42.957 45.6593 43.1398 45.6593 43.1398ZM58.181 50.139C65.3865 46.3947 62.0551 42.7964 59.7296 43.2812C59.1596 43.3999 58.9055 43.5027 58.9055 43.5027C58.9055 43.5027 59.1172 43.1712 59.5211 43.0277C64.1215 41.4104 67.6595 47.7979 58.036 50.3278C58.036 50.3278 58.1477 50.2282 58.181 50.139Z" fill="#5382A1"/>
<path d="M53.8368 22C53.8368 22 57.8273 25.9918 50.0519 32.1303C43.8168 37.0543 48.6301 39.8619 50.0493 43.0697C46.4099 39.7859 43.739 36.8953 45.5308 34.2049C48.1608 30.2556 55.4469 28.3409 53.8368 22Z" fill="#E76F00"/>
<path d="M46.3674 60.2853C53.2838 60.728 63.9048 60.0397 64.1563 56.7671C64.1563 56.7671 63.6728 58.0076 58.4402 58.993C52.5369 60.1038 45.2559 59.9742 40.9375 59.2623C40.9377 59.262 41.8216 59.9938 46.3674 60.2853Z" fill="#5382A1"/>
<path d="M45.2338 72.7904C44.5814 73.3563 43.8923 73.674 43.2739 73.674C42.3912 73.674 41.9143 73.1447 41.9143 72.2958C41.9143 71.3775 42.4253 70.7061 44.4752 70.7061H45.2337L45.2338 72.7904ZM47.0342 74.8217V68.5339C47.0342 66.9275 46.1181 65.8677 43.9093 65.8677C42.6197 65.8677 41.4902 66.1861 40.5721 66.5922L40.8371 67.7052C41.5599 67.4399 42.4956 67.1929 43.414 67.1929C44.6865 67.1929 45.2338 67.7052 45.2338 68.7644V69.5592H44.5988C41.5073 69.5592 40.1127 70.7593 40.1127 72.5605C40.1127 74.1151 41.0317 74.9987 42.7621 74.9987C43.8744 74.9987 44.7047 74.5394 45.4808 73.8674L45.6217 74.8219L47.0342 74.8217ZM53.0426 74.8217H50.7972L48.0948 66.0269H50.0559L51.7326 71.4304L52.1054 73.0555C52.9537 70.7059 53.5538 68.3221 53.8539 66.0269H55.7614C55.2502 68.9229 54.3306 72.1017 53.0426 74.8217ZM61.6566 72.7904C61.0029 73.3563 60.3127 73.674 59.6942 73.674C58.813 73.674 58.3349 73.1447 58.3349 72.2958C58.3349 71.3775 58.847 70.7061 60.8967 70.7061H61.6566V72.7904ZM63.4568 74.8217V68.5339C63.4568 66.9275 62.5385 65.8677 60.332 65.8677C59.0417 65.8677 57.9117 66.1861 56.994 66.5922L57.2587 67.7052C57.9818 67.4399 58.9192 67.1929 59.8369 67.1929C61.1084 67.1929 61.6566 67.7052 61.6566 68.7644V69.5592H61.0204C57.9281 69.5592 56.534 70.7593 56.534 72.5605C56.534 74.1151 57.4523 74.9987 59.1824 74.9987C60.2954 74.9987 61.1254 74.5394 61.9028 73.8674L62.0442 74.8219L63.4568 74.8217ZM38.1386 76.3151C37.6254 77.0645 36.7964 77.6573 35.8889 77.9927L35 76.9467C35.6908 76.5922 36.2832 76.0198 36.5584 75.4867C36.7965 75.0125 36.8951 74.4013 36.8951 72.9398V62.8992H38.8079V72.8022C38.8078 74.7561 38.6515 75.5454 38.1386 76.3151Z" fill="#E76F00"/>
</svg>
