<svg width="285" height="123" viewBox="0 0 285 123" fill="none" xmlns="http://www.w3.org/2000/svg">
<rect width="284.997" height="115" rx="9" fill="url(#paint0_linear_22_1320)"/>
<mask id="mask0_22_1320" style="mask-type:alpha" maskUnits="userSpaceOnUse" x="0" y="0" width="285" height="115">
<rect width="284.997" height="115" rx="9" fill="url(#paint1_linear_22_1320)"/>
</mask>
<g mask="url(#mask0_22_1320)">
<g opacity="0.4" clip-path="url(#clip0_22_1320)">
<circle cx="160.102" cy="3.59612" r="0.903864" fill="#BEBEBE" fill-opacity="0.5"/>
<circle cx="163.356" cy="3.596" r="0.903864" fill="#BEBEBE" fill-opacity="0.5"/>
<circle cx="166.61" cy="3.596" r="0.903864" fill="#BEBEBE" fill-opacity="0.5"/>
<circle cx="169.864" cy="3.596" r="0.903864" fill="#BEBEBE" fill-opacity="0.5"/>
<circle cx="173.118" cy="3.596" r="0.903864" fill="#BEBEBE" fill-opacity="0.5"/>
<circle cx="176.372" cy="3.596" r="0.903864" fill="#BEBEBE" fill-opacity="0.5"/>
<circle cx="179.626" cy="3.596" r="0.903864" fill="#BEBEBE" fill-opacity="0.5"/>
<circle cx="182.879" cy="3.596" r="0.903864" fill="#BEBEBE" fill-opacity="0.5"/>
<circle cx="186.133" cy="3.596" r="0.903864" fill="#BEBEBE" fill-opacity="0.5"/>
<circle cx="189.387" cy="3.596" r="0.903864" fill="#BEBEBE" fill-opacity="0.5"/>
<circle cx="192.641" cy="3.596" r="0.903864" fill="#BEBEBE" fill-opacity="0.5"/>
<circle cx="195.895" cy="3.596" r="0.903864" fill="#BEBEBE" fill-opacity="0.5"/>
<circle cx="199.149" cy="3.596" r="0.903864" fill="#BEBEBE" fill-opacity="0.5"/>
<circle cx="202.403" cy="3.596" r="0.903864" fill="#BEBEBE" fill-opacity="0.5"/>
<circle cx="205.657" cy="3.596" r="0.903864" fill="#BEBEBE" fill-opacity="0.5"/>
<circle cx="208.911" cy="3.59612" r="0.903864" fill="#BEBEBE" fill-opacity="0.5"/>
<circle cx="160.102" cy="5.68804" r="0.903864" fill="#BEBEBE" fill-opacity="0.5"/>
<circle cx="163.356" cy="5.68798" r="0.903864" fill="#BEBEBE" fill-opacity="0.5"/>
<circle cx="166.61" cy="5.68798" r="0.903864" fill="#BEBEBE" fill-opacity="0.5"/>
<circle cx="169.864" cy="5.68798" r="0.903864" fill="#BEBEBE" fill-opacity="0.5"/>
<circle cx="173.118" cy="5.68798" r="0.903864" fill="#BEBEBE" fill-opacity="0.5"/>
<circle cx="176.372" cy="5.68798" r="0.903864" fill="#BEBEBE" fill-opacity="0.5"/>
<circle cx="179.626" cy="5.68798" r="0.903864" fill="#BEBEBE" fill-opacity="0.5"/>
<circle cx="182.879" cy="5.68798" r="0.903864" fill="#BEBEBE" fill-opacity="0.5"/>
<circle cx="186.133" cy="5.68798" r="0.903864" fill="#BEBEBE" fill-opacity="0.5"/>
<circle cx="189.387" cy="5.68798" r="0.903864" fill="#BEBEBE" fill-opacity="0.5"/>
<circle cx="192.641" cy="5.68798" r="0.903864" fill="#BEBEBE" fill-opacity="0.5"/>
<circle cx="195.895" cy="5.68798" r="0.903864" fill="#BEBEBE" fill-opacity="0.5"/>
<circle cx="199.149" cy="5.68798" r="0.903864" fill="#BEBEBE" fill-opacity="0.5"/>
<circle cx="202.403" cy="5.68798" r="0.903864" fill="#BEBEBE" fill-opacity="0.5"/>
<circle cx="205.657" cy="5.68798" r="0.903864" fill="#BEBEBE" fill-opacity="0.5"/>
<circle cx="208.911" cy="5.68804" r="0.903864" fill="#BEBEBE" fill-opacity="0.5"/>
<circle cx="160.102" cy="7.7799" r="0.903864" fill="#BEBEBE" fill-opacity="0.5"/>
<circle cx="163.356" cy="7.7799" r="0.903864" fill="#BEBEBE" fill-opacity="0.5"/>
<circle cx="166.61" cy="7.7799" r="0.903864" fill="#BEBEBE" fill-opacity="0.5"/>
<circle cx="169.864" cy="7.7799" r="0.903864" fill="#BEBEBE" fill-opacity="0.5"/>
<circle cx="173.118" cy="7.7799" r="0.903864" fill="#BEBEBE" fill-opacity="0.5"/>
<circle cx="176.372" cy="7.7799" r="0.903864" fill="#BEBEBE" fill-opacity="0.5"/>
<circle cx="179.626" cy="7.7799" r="0.903864" fill="#BEBEBE" fill-opacity="0.5"/>
<circle cx="182.879" cy="7.7799" r="0.903864" fill="#BEBEBE" fill-opacity="0.5"/>
<circle cx="186.133" cy="7.7799" r="0.903864" fill="#BEBEBE" fill-opacity="0.5"/>
<circle cx="189.387" cy="7.7799" r="0.903864" fill="#BEBEBE" fill-opacity="0.5"/>
<circle cx="192.641" cy="7.7799" r="0.903864" fill="#BEBEBE" fill-opacity="0.5"/>
<circle cx="195.895" cy="7.7799" r="0.903864" fill="#BEBEBE" fill-opacity="0.5"/>
<circle cx="199.149" cy="7.7799" r="0.903864" fill="#BEBEBE" fill-opacity="0.5"/>
<circle cx="202.403" cy="7.7799" r="0.903864" fill="#BEBEBE" fill-opacity="0.5"/>
<circle cx="205.657" cy="7.7799" r="0.903864" fill="#BEBEBE" fill-opacity="0.5"/>
<circle cx="208.911" cy="7.7799" r="0.903864" fill="#BEBEBE" fill-opacity="0.5"/>
<circle cx="160.102" cy="9.87182" r="0.903864" fill="#BEBEBE" fill-opacity="0.5"/>
<circle cx="163.356" cy="9.87182" r="0.903864" fill="#BEBEBE" fill-opacity="0.5"/>
<circle cx="166.61" cy="9.87182" r="0.903864" fill="#BEBEBE" fill-opacity="0.5"/>
<circle cx="169.864" cy="9.87182" r="0.903864" fill="#BEBEBE" fill-opacity="0.5"/>
<circle cx="173.118" cy="9.87182" r="0.903864" fill="#BEBEBE" fill-opacity="0.5"/>
<circle cx="176.372" cy="9.87182" r="0.903864" fill="#BEBEBE" fill-opacity="0.5"/>
<circle cx="179.626" cy="9.87182" r="0.903864" fill="#BEBEBE" fill-opacity="0.5"/>
<circle cx="182.879" cy="9.87182" r="0.903864" fill="#BEBEBE" fill-opacity="0.5"/>
<circle cx="186.133" cy="9.87182" r="0.903864" fill="#BEBEBE" fill-opacity="0.5"/>
<circle cx="189.387" cy="9.87182" r="0.903864" fill="#BEBEBE" fill-opacity="0.5"/>
<circle cx="192.641" cy="9.87182" r="0.903864" fill="#BEBEBE" fill-opacity="0.5"/>
<circle cx="195.895" cy="9.87182" r="0.903864" fill="#BEBEBE" fill-opacity="0.5"/>
<circle cx="199.149" cy="9.87182" r="0.903864" fill="#BEBEBE" fill-opacity="0.5"/>
<circle cx="202.403" cy="9.87182" r="0.903864" fill="#BEBEBE" fill-opacity="0.5"/>
<circle cx="205.657" cy="9.87182" r="0.903864" fill="#BEBEBE" fill-opacity="0.5"/>
<circle cx="208.911" cy="9.87182" r="0.903864" fill="#BEBEBE" fill-opacity="0.5"/>
<circle cx="160.102" cy="11.9637" r="0.903864" fill="#BEBEBE" fill-opacity="0.5"/>
<circle cx="163.356" cy="11.9637" r="0.903864" fill="#BEBEBE" fill-opacity="0.5"/>
<circle cx="166.61" cy="11.9637" r="0.903864" fill="#BEBEBE" fill-opacity="0.5"/>
<circle cx="169.864" cy="11.9637" r="0.903864" fill="#BEBEBE" fill-opacity="0.5"/>
<circle cx="173.118" cy="11.9637" r="0.903864" fill="#BEBEBE" fill-opacity="0.5"/>
<circle cx="176.372" cy="11.9637" r="0.903864" fill="#BEBEBE" fill-opacity="0.5"/>
<circle cx="179.626" cy="11.9637" r="0.903864" fill="#BEBEBE" fill-opacity="0.5"/>
<circle cx="182.879" cy="11.9637" r="0.903864" fill="#BEBEBE" fill-opacity="0.5"/>
<circle cx="186.133" cy="11.9637" r="0.903864" fill="#BEBEBE" fill-opacity="0.5"/>
<circle cx="189.387" cy="11.9637" r="0.903864" fill="#BEBEBE" fill-opacity="0.5"/>
<circle cx="192.641" cy="11.9637" r="0.903864" fill="#BEBEBE" fill-opacity="0.5"/>
<circle cx="195.895" cy="11.9637" r="0.903864" fill="#BEBEBE" fill-opacity="0.5"/>
<circle cx="199.149" cy="11.9637" r="0.903864" fill="#BEBEBE" fill-opacity="0.5"/>
<circle cx="202.403" cy="11.9637" r="0.903864" fill="#BEBEBE" fill-opacity="0.5"/>
<circle cx="205.657" cy="11.9637" r="0.903864" fill="#BEBEBE" fill-opacity="0.5"/>
<circle cx="208.911" cy="11.9637" r="0.903864" fill="#BEBEBE" fill-opacity="0.5"/>
<circle cx="160.102" cy="14.0556" r="0.903864" fill="#BEBEBE" fill-opacity="0.5"/>
<circle cx="163.356" cy="14.0555" r="0.903864" fill="#BEBEBE" fill-opacity="0.5"/>
<circle cx="166.61" cy="14.0555" r="0.903864" fill="#BEBEBE" fill-opacity="0.5"/>
<circle cx="169.864" cy="14.0555" r="0.903864" fill="#BEBEBE" fill-opacity="0.5"/>
<circle cx="173.118" cy="14.0555" r="0.903864" fill="#BEBEBE" fill-opacity="0.5"/>
<circle cx="176.372" cy="14.0555" r="0.903864" fill="#BEBEBE" fill-opacity="0.5"/>
<circle cx="179.626" cy="14.0555" r="0.903864" fill="#BEBEBE" fill-opacity="0.5"/>
<circle cx="182.879" cy="14.0555" r="0.903864" fill="#BEBEBE" fill-opacity="0.5"/>
<circle cx="186.133" cy="14.0555" r="0.903864" fill="#BEBEBE" fill-opacity="0.5"/>
<circle cx="189.387" cy="14.0555" r="0.903864" fill="#BEBEBE" fill-opacity="0.5"/>
<circle cx="192.641" cy="14.0555" r="0.903864" fill="#BEBEBE" fill-opacity="0.5"/>
<circle cx="195.895" cy="14.0555" r="0.903864" fill="#BEBEBE" fill-opacity="0.5"/>
<circle cx="199.149" cy="14.0555" r="0.903864" fill="#BEBEBE" fill-opacity="0.5"/>
<circle cx="202.403" cy="14.0555" r="0.903864" fill="#BEBEBE" fill-opacity="0.5"/>
<circle cx="205.657" cy="14.0555" r="0.903864" fill="#BEBEBE" fill-opacity="0.5"/>
<circle cx="208.911" cy="14.0556" r="0.903864" fill="#BEBEBE" fill-opacity="0.5"/>
<circle cx="160.102" cy="16.1475" r="0.903864" fill="#BEBEBE" fill-opacity="0.5"/>
<circle cx="163.356" cy="16.1474" r="0.903864" fill="#BEBEBE" fill-opacity="0.5"/>
<circle cx="166.61" cy="16.1474" r="0.903864" fill="#BEBEBE" fill-opacity="0.5"/>
<circle cx="169.864" cy="16.1474" r="0.903864" fill="#BEBEBE" fill-opacity="0.5"/>
<circle cx="173.118" cy="16.1474" r="0.903864" fill="#BEBEBE" fill-opacity="0.5"/>
<circle cx="176.372" cy="16.1474" r="0.903864" fill="#BEBEBE" fill-opacity="0.5"/>
<circle cx="179.626" cy="16.1474" r="0.903864" fill="#BEBEBE" fill-opacity="0.5"/>
<circle cx="182.879" cy="16.1474" r="0.903864" fill="#BEBEBE" fill-opacity="0.5"/>
<circle cx="186.133" cy="16.1474" r="0.903864" fill="#BEBEBE" fill-opacity="0.5"/>
<circle cx="189.387" cy="16.1474" r="0.903864" fill="#BEBEBE" fill-opacity="0.5"/>
<circle cx="192.641" cy="16.1474" r="0.903864" fill="#BEBEBE" fill-opacity="0.5"/>
<circle cx="195.895" cy="16.1474" r="0.903864" fill="#BEBEBE" fill-opacity="0.5"/>
<circle cx="199.149" cy="16.1474" r="0.903864" fill="#BEBEBE" fill-opacity="0.5"/>
<circle cx="202.403" cy="16.1474" r="0.903864" fill="#BEBEBE" fill-opacity="0.5"/>
<circle cx="205.657" cy="16.1474" r="0.903864" fill="#BEBEBE" fill-opacity="0.5"/>
<circle cx="208.911" cy="16.1475" r="0.903864" fill="#BEBEBE" fill-opacity="0.5"/>
<circle cx="160.102" cy="18.2394" r="0.903864" fill="#BEBEBE" fill-opacity="0.5"/>
<circle cx="163.356" cy="18.2393" r="0.903864" fill="#BEBEBE" fill-opacity="0.5"/>
<circle cx="166.61" cy="18.2393" r="0.903864" fill="#BEBEBE" fill-opacity="0.5"/>
<circle cx="169.864" cy="18.2393" r="0.903864" fill="#BEBEBE" fill-opacity="0.5"/>
<circle cx="173.118" cy="18.2393" r="0.903864" fill="#BEBEBE" fill-opacity="0.5"/>
<circle cx="176.372" cy="18.2393" r="0.903864" fill="#BEBEBE" fill-opacity="0.5"/>
<circle cx="179.626" cy="18.2393" r="0.903864" fill="#BEBEBE" fill-opacity="0.5"/>
<circle cx="182.879" cy="18.2393" r="0.903864" fill="#BEBEBE" fill-opacity="0.5"/>
<circle cx="186.133" cy="18.2393" r="0.903864" fill="#BEBEBE" fill-opacity="0.5"/>
<circle cx="189.387" cy="18.2393" r="0.903864" fill="#BEBEBE" fill-opacity="0.5"/>
<circle cx="192.641" cy="18.2393" r="0.903864" fill="#BEBEBE" fill-opacity="0.5"/>
<circle cx="195.895" cy="18.2393" r="0.903864" fill="#BEBEBE" fill-opacity="0.5"/>
<circle cx="199.149" cy="18.2393" r="0.903864" fill="#BEBEBE" fill-opacity="0.5"/>
<circle cx="202.403" cy="18.2393" r="0.903864" fill="#BEBEBE" fill-opacity="0.5"/>
<circle cx="205.657" cy="18.2393" r="0.903864" fill="#BEBEBE" fill-opacity="0.5"/>
<circle cx="208.911" cy="18.2394" r="0.903864" fill="#BEBEBE" fill-opacity="0.5"/>
<circle cx="160.102" cy="20.3313" r="0.903864" fill="#BEBEBE" fill-opacity="0.5"/>
<circle cx="163.356" cy="20.3313" r="0.903864" fill="#BEBEBE" fill-opacity="0.5"/>
<circle cx="166.61" cy="20.3313" r="0.903864" fill="#BEBEBE" fill-opacity="0.5"/>
<circle cx="169.864" cy="20.3313" r="0.903864" fill="#BEBEBE" fill-opacity="0.5"/>
<circle cx="173.118" cy="20.3313" r="0.903864" fill="#BEBEBE" fill-opacity="0.5"/>
<circle cx="176.372" cy="20.3313" r="0.903864" fill="#BEBEBE" fill-opacity="0.5"/>
<circle cx="179.626" cy="20.3313" r="0.903864" fill="#BEBEBE" fill-opacity="0.5"/>
<circle cx="182.879" cy="20.3313" r="0.903864" fill="#BEBEBE" fill-opacity="0.5"/>
<circle cx="186.133" cy="20.3313" r="0.903864" fill="#BEBEBE" fill-opacity="0.5"/>
<circle cx="189.387" cy="20.3313" r="0.903864" fill="#BEBEBE" fill-opacity="0.5"/>
<circle cx="192.641" cy="20.3313" r="0.903864" fill="#BEBEBE" fill-opacity="0.5"/>
<circle cx="195.895" cy="20.3313" r="0.903864" fill="#BEBEBE" fill-opacity="0.5"/>
<circle cx="199.149" cy="20.3313" r="0.903864" fill="#BEBEBE" fill-opacity="0.5"/>
<circle cx="202.403" cy="20.3313" r="0.903864" fill="#BEBEBE" fill-opacity="0.5"/>
<circle cx="205.657" cy="20.3313" r="0.903864" fill="#BEBEBE" fill-opacity="0.5"/>
<circle cx="208.911" cy="20.3313" r="0.903864" fill="#BEBEBE" fill-opacity="0.5"/>
<circle cx="160.102" cy="22.4232" r="0.903864" fill="#BEBEBE" fill-opacity="0.5"/>
<circle cx="163.356" cy="22.4232" r="0.903864" fill="#BEBEBE" fill-opacity="0.5"/>
<circle cx="166.61" cy="22.4232" r="0.903864" fill="#BEBEBE" fill-opacity="0.5"/>
<circle cx="169.864" cy="22.4232" r="0.903864" fill="#BEBEBE" fill-opacity="0.5"/>
<circle cx="173.118" cy="22.4232" r="0.903864" fill="#BEBEBE" fill-opacity="0.5"/>
<circle cx="176.372" cy="22.4232" r="0.903864" fill="#BEBEBE" fill-opacity="0.5"/>
<circle cx="179.626" cy="22.4232" r="0.903864" fill="#BEBEBE" fill-opacity="0.5"/>
<circle cx="182.879" cy="22.4232" r="0.903864" fill="#BEBEBE" fill-opacity="0.5"/>
<circle cx="186.133" cy="22.4232" r="0.903864" fill="#BEBEBE" fill-opacity="0.5"/>
<circle cx="189.387" cy="22.4232" r="0.903864" fill="#BEBEBE" fill-opacity="0.5"/>
<circle cx="192.641" cy="22.4232" r="0.903864" fill="#BEBEBE" fill-opacity="0.5"/>
<circle cx="195.895" cy="22.4232" r="0.903864" fill="#BEBEBE" fill-opacity="0.5"/>
<circle cx="199.149" cy="22.4232" r="0.903864" fill="#BEBEBE" fill-opacity="0.5"/>
<circle cx="202.403" cy="22.4232" r="0.903864" fill="#BEBEBE" fill-opacity="0.5"/>
<circle cx="205.657" cy="22.4232" r="0.903864" fill="#BEBEBE" fill-opacity="0.5"/>
<circle cx="208.911" cy="22.4232" r="0.903864" fill="#BEBEBE" fill-opacity="0.5"/>
<circle cx="160.102" cy="24.5151" r="0.903864" fill="#BEBEBE" fill-opacity="0.5"/>
<circle cx="163.356" cy="24.5152" r="0.903864" fill="#BEBEBE" fill-opacity="0.5"/>
<circle cx="166.61" cy="24.5152" r="0.903864" fill="#BEBEBE" fill-opacity="0.5"/>
<circle cx="169.864" cy="24.5152" r="0.903864" fill="#BEBEBE" fill-opacity="0.5"/>
<circle cx="173.118" cy="24.5152" r="0.903864" fill="#BEBEBE" fill-opacity="0.5"/>
<circle cx="176.372" cy="24.5152" r="0.903864" fill="#BEBEBE" fill-opacity="0.5"/>
<circle cx="179.626" cy="24.5152" r="0.903864" fill="#BEBEBE" fill-opacity="0.5"/>
<circle cx="182.879" cy="24.5152" r="0.903864" fill="#BEBEBE" fill-opacity="0.5"/>
<circle cx="186.133" cy="24.5152" r="0.903864" fill="#BEBEBE" fill-opacity="0.5"/>
<circle cx="189.387" cy="24.5152" r="0.903864" fill="#BEBEBE" fill-opacity="0.5"/>
<circle cx="192.641" cy="24.5152" r="0.903864" fill="#BEBEBE" fill-opacity="0.5"/>
<circle cx="195.895" cy="24.5152" r="0.903864" fill="#BEBEBE" fill-opacity="0.5"/>
<circle cx="199.149" cy="24.5152" r="0.903864" fill="#BEBEBE" fill-opacity="0.5"/>
<circle cx="202.403" cy="24.5152" r="0.903864" fill="#BEBEBE" fill-opacity="0.5"/>
<circle cx="205.657" cy="24.5152" r="0.903864" fill="#BEBEBE" fill-opacity="0.5"/>
<circle cx="208.911" cy="24.5151" r="0.903864" fill="#BEBEBE" fill-opacity="0.5"/>
<circle cx="160.102" cy="26.607" r="0.903864" fill="#BEBEBE" fill-opacity="0.5"/>
<circle cx="163.356" cy="26.6069" r="0.903864" fill="#BEBEBE" fill-opacity="0.5"/>
<circle cx="166.61" cy="26.6069" r="0.903864" fill="#BEBEBE" fill-opacity="0.5"/>
<circle cx="169.864" cy="26.6069" r="0.903864" fill="#BEBEBE" fill-opacity="0.5"/>
<circle cx="173.118" cy="26.6069" r="0.903864" fill="#BEBEBE" fill-opacity="0.5"/>
<circle cx="176.372" cy="26.6069" r="0.903864" fill="#BEBEBE" fill-opacity="0.5"/>
<circle cx="179.625" cy="26.607" r="0.903864" fill="#BEBEBE" fill-opacity="0.5"/>
<circle cx="182.879" cy="26.6069" r="0.903864" fill="#BEBEBE" fill-opacity="0.5"/>
<circle cx="186.133" cy="26.6069" r="0.903864" fill="#BEBEBE" fill-opacity="0.5"/>
<circle cx="189.387" cy="26.6069" r="0.903864" fill="#BEBEBE" fill-opacity="0.5"/>
<circle cx="192.641" cy="26.6069" r="0.903864" fill="#BEBEBE" fill-opacity="0.5"/>
<circle cx="195.895" cy="26.6069" r="0.903864" fill="#BEBEBE" fill-opacity="0.5"/>
<circle cx="199.149" cy="26.6069" r="0.903864" fill="#BEBEBE" fill-opacity="0.5"/>
<circle cx="202.403" cy="26.6069" r="0.903864" fill="#BEBEBE" fill-opacity="0.5"/>
<circle cx="205.657" cy="26.6069" r="0.903864" fill="#BEBEBE" fill-opacity="0.5"/>
<circle cx="208.911" cy="26.6069" r="0.903864" fill="#BEBEBE" fill-opacity="0.5"/>
<circle cx="160.102" cy="28.6988" r="0.903864" fill="#BEBEBE" fill-opacity="0.5"/>
<circle cx="163.356" cy="28.6988" r="0.903864" fill="#BEBEBE" fill-opacity="0.5"/>
<circle cx="166.61" cy="28.6988" r="0.903864" fill="#BEBEBE" fill-opacity="0.5"/>
<circle cx="169.864" cy="28.6988" r="0.903864" fill="#BEBEBE" fill-opacity="0.5"/>
<circle cx="173.118" cy="28.6988" r="0.903864" fill="#BEBEBE" fill-opacity="0.5"/>
<circle cx="176.372" cy="28.6988" r="0.903864" fill="#BEBEBE" fill-opacity="0.5"/>
<circle cx="179.626" cy="28.6988" r="0.903864" fill="#BEBEBE" fill-opacity="0.5"/>
<circle cx="182.879" cy="28.6988" r="0.903864" fill="#BEBEBE" fill-opacity="0.5"/>
<circle cx="186.133" cy="28.6988" r="0.903864" fill="#BEBEBE" fill-opacity="0.5"/>
<circle cx="189.387" cy="28.6988" r="0.903864" fill="#BEBEBE" fill-opacity="0.5"/>
<circle cx="192.641" cy="28.6988" r="0.903864" fill="#BEBEBE" fill-opacity="0.5"/>
<circle cx="195.895" cy="28.6988" r="0.903864" fill="#BEBEBE" fill-opacity="0.5"/>
<circle cx="199.149" cy="28.6988" r="0.903864" fill="#BEBEBE" fill-opacity="0.5"/>
<circle cx="202.403" cy="28.6988" r="0.903864" fill="#BEBEBE" fill-opacity="0.5"/>
<circle cx="205.657" cy="28.6988" r="0.903864" fill="#BEBEBE" fill-opacity="0.5"/>
<circle cx="208.911" cy="28.6988" r="0.903864" fill="#BEBEBE" fill-opacity="0.5"/>
<circle cx="160.102" cy="30.7908" r="0.903864" fill="#BEBEBE" fill-opacity="0.5"/>
<circle cx="163.356" cy="30.7908" r="0.903864" fill="#BEBEBE" fill-opacity="0.5"/>
<circle cx="166.61" cy="30.7908" r="0.903864" fill="#BEBEBE" fill-opacity="0.5"/>
<circle cx="169.864" cy="30.7908" r="0.903864" fill="#BEBEBE" fill-opacity="0.5"/>
<circle cx="173.118" cy="30.7908" r="0.903864" fill="#BEBEBE" fill-opacity="0.5"/>
<circle cx="176.372" cy="30.7908" r="0.903864" fill="#BEBEBE" fill-opacity="0.5"/>
<circle cx="179.626" cy="30.7908" r="0.903864" fill="#BEBEBE" fill-opacity="0.5"/>
<circle cx="182.879" cy="30.7908" r="0.903864" fill="#BEBEBE" fill-opacity="0.5"/>
<circle cx="186.133" cy="30.7908" r="0.903864" fill="#BEBEBE" fill-opacity="0.5"/>
<circle cx="189.387" cy="30.7908" r="0.903864" fill="#BEBEBE" fill-opacity="0.5"/>
<circle cx="192.641" cy="30.7908" r="0.903864" fill="#BEBEBE" fill-opacity="0.5"/>
<circle cx="195.895" cy="30.7908" r="0.903864" fill="#BEBEBE" fill-opacity="0.5"/>
<circle cx="199.149" cy="30.7908" r="0.903864" fill="#BEBEBE" fill-opacity="0.5"/>
<circle cx="202.403" cy="30.7908" r="0.903864" fill="#BEBEBE" fill-opacity="0.5"/>
<circle cx="205.657" cy="30.7908" r="0.903864" fill="#BEBEBE" fill-opacity="0.5"/>
<circle cx="208.911" cy="30.7908" r="0.903864" fill="#BEBEBE" fill-opacity="0.5"/>
<circle cx="160.102" cy="32.8826" r="0.903864" fill="#BEBEBE" fill-opacity="0.5"/>
<circle cx="163.356" cy="32.8826" r="0.903864" fill="#BEBEBE" fill-opacity="0.5"/>
<circle cx="166.61" cy="32.8826" r="0.903864" fill="#BEBEBE" fill-opacity="0.5"/>
<circle cx="169.864" cy="32.8826" r="0.903864" fill="#BEBEBE" fill-opacity="0.5"/>
<circle cx="173.118" cy="32.8826" r="0.903864" fill="#BEBEBE" fill-opacity="0.5"/>
<circle cx="176.372" cy="32.8826" r="0.903864" fill="#BEBEBE" fill-opacity="0.5"/>
<circle cx="179.626" cy="32.8826" r="0.903864" fill="#BEBEBE" fill-opacity="0.5"/>
<circle cx="182.879" cy="32.8826" r="0.903864" fill="#BEBEBE" fill-opacity="0.5"/>
<circle cx="186.133" cy="32.8826" r="0.903864" fill="#BEBEBE" fill-opacity="0.5"/>
<circle cx="189.387" cy="32.8826" r="0.903864" fill="#BEBEBE" fill-opacity="0.5"/>
<circle cx="192.641" cy="32.8826" r="0.903864" fill="#BEBEBE" fill-opacity="0.5"/>
<circle cx="195.895" cy="32.8826" r="0.903864" fill="#BEBEBE" fill-opacity="0.5"/>
<circle cx="199.149" cy="32.8826" r="0.903864" fill="#BEBEBE" fill-opacity="0.5"/>
<circle cx="202.403" cy="32.8826" r="0.903864" fill="#BEBEBE" fill-opacity="0.5"/>
<circle cx="205.657" cy="32.8826" r="0.903864" fill="#BEBEBE" fill-opacity="0.5"/>
<circle cx="208.911" cy="32.8826" r="0.903864" fill="#BEBEBE" fill-opacity="0.5"/>
<circle cx="160.102" cy="34.9745" r="0.903864" fill="#BEBEBE" fill-opacity="0.5"/>
<circle cx="163.356" cy="34.9746" r="0.903864" fill="#BEBEBE" fill-opacity="0.5"/>
<circle cx="166.61" cy="34.9746" r="0.903864" fill="#BEBEBE" fill-opacity="0.5"/>
<circle cx="169.864" cy="34.9746" r="0.903864" fill="#BEBEBE" fill-opacity="0.5"/>
<circle cx="173.118" cy="34.9746" r="0.903864" fill="#BEBEBE" fill-opacity="0.5"/>
<circle cx="176.372" cy="34.9746" r="0.903864" fill="#BEBEBE" fill-opacity="0.5"/>
<circle cx="179.626" cy="34.9746" r="0.903864" fill="#BEBEBE" fill-opacity="0.5"/>
<circle cx="182.879" cy="34.9746" r="0.903864" fill="#BEBEBE" fill-opacity="0.5"/>
<circle cx="186.133" cy="34.9746" r="0.903864" fill="#BEBEBE" fill-opacity="0.5"/>
<circle cx="189.387" cy="34.9746" r="0.903864" fill="#BEBEBE" fill-opacity="0.5"/>
<circle cx="192.641" cy="34.9746" r="0.903864" fill="#BEBEBE" fill-opacity="0.5"/>
<circle cx="195.895" cy="34.9746" r="0.903864" fill="#BEBEBE" fill-opacity="0.5"/>
<circle cx="199.149" cy="34.9746" r="0.903864" fill="#BEBEBE" fill-opacity="0.5"/>
<circle cx="202.403" cy="34.9746" r="0.903864" fill="#BEBEBE" fill-opacity="0.5"/>
<circle cx="205.657" cy="34.9746" r="0.903864" fill="#BEBEBE" fill-opacity="0.5"/>
<circle cx="208.911" cy="34.9745" r="0.903864" fill="#BEBEBE" fill-opacity="0.5"/>
<circle cx="160.102" cy="37.0665" r="0.903864" fill="#BEBEBE" fill-opacity="0.5"/>
<circle cx="163.356" cy="37.0666" r="0.903864" fill="#BEBEBE" fill-opacity="0.5"/>
<circle cx="166.61" cy="37.0666" r="0.903864" fill="#BEBEBE" fill-opacity="0.5"/>
<circle cx="169.864" cy="37.0666" r="0.903864" fill="#BEBEBE" fill-opacity="0.5"/>
<circle cx="173.118" cy="37.0666" r="0.903864" fill="#BEBEBE" fill-opacity="0.5"/>
<circle cx="176.372" cy="37.0666" r="0.903864" fill="#BEBEBE" fill-opacity="0.5"/>
<circle cx="179.626" cy="37.0666" r="0.903864" fill="#BEBEBE" fill-opacity="0.5"/>
<circle cx="182.879" cy="37.0666" r="0.903864" fill="#BEBEBE" fill-opacity="0.5"/>
<circle cx="186.133" cy="37.0666" r="0.903864" fill="#BEBEBE" fill-opacity="0.5"/>
<circle cx="189.387" cy="37.0666" r="0.903864" fill="#BEBEBE" fill-opacity="0.5"/>
<circle cx="192.641" cy="37.0666" r="0.903864" fill="#BEBEBE" fill-opacity="0.5"/>
<circle cx="195.895" cy="37.0666" r="0.903864" fill="#BEBEBE" fill-opacity="0.5"/>
<circle cx="199.149" cy="37.0666" r="0.903864" fill="#BEBEBE" fill-opacity="0.5"/>
<circle cx="202.403" cy="37.0666" r="0.903864" fill="#BEBEBE" fill-opacity="0.5"/>
<circle cx="205.657" cy="37.0666" r="0.903864" fill="#BEBEBE" fill-opacity="0.5"/>
<circle cx="208.911" cy="37.0665" r="0.903864" fill="#BEBEBE" fill-opacity="0.5"/>
<circle cx="160.102" cy="39.1583" r="0.903864" fill="#BEBEBE" fill-opacity="0.5"/>
<circle cx="163.356" cy="39.1582" r="0.903864" fill="#BEBEBE" fill-opacity="0.5"/>
<circle cx="166.61" cy="39.1582" r="0.903864" fill="#BEBEBE" fill-opacity="0.5"/>
<circle cx="169.864" cy="39.1582" r="0.903864" fill="#BEBEBE" fill-opacity="0.5"/>
<circle cx="173.118" cy="39.1582" r="0.903864" fill="#BEBEBE" fill-opacity="0.5"/>
<circle cx="176.372" cy="39.1582" r="0.903864" fill="#BEBEBE" fill-opacity="0.5"/>
<circle cx="179.626" cy="39.1582" r="0.903864" fill="#BEBEBE" fill-opacity="0.5"/>
<circle cx="182.879" cy="39.1582" r="0.903864" fill="#BEBEBE" fill-opacity="0.5"/>
<circle cx="186.133" cy="39.1582" r="0.903864" fill="#BEBEBE" fill-opacity="0.5"/>
<circle cx="189.387" cy="39.1582" r="0.903864" fill="#BEBEBE" fill-opacity="0.5"/>
<circle cx="192.641" cy="39.1582" r="0.903864" fill="#BEBEBE" fill-opacity="0.5"/>
<circle cx="195.895" cy="39.1582" r="0.903864" fill="#BEBEBE" fill-opacity="0.5"/>
<circle cx="199.149" cy="39.1582" r="0.903864" fill="#BEBEBE" fill-opacity="0.5"/>
<circle cx="202.403" cy="39.1582" r="0.903864" fill="#BEBEBE" fill-opacity="0.5"/>
<circle cx="205.657" cy="39.1582" r="0.903864" fill="#BEBEBE" fill-opacity="0.5"/>
<circle cx="208.911" cy="39.1583" r="0.903864" fill="#BEBEBE" fill-opacity="0.5"/>
<circle cx="160.102" cy="41.2502" r="0.903864" fill="#BEBEBE" fill-opacity="0.5"/>
<circle cx="163.356" cy="41.2502" r="0.903864" fill="#BEBEBE" fill-opacity="0.5"/>
<circle cx="166.61" cy="41.2502" r="0.903864" fill="#BEBEBE" fill-opacity="0.5"/>
<circle cx="169.864" cy="41.2502" r="0.903864" fill="#BEBEBE" fill-opacity="0.5"/>
<circle cx="173.118" cy="41.2502" r="0.903864" fill="#BEBEBE" fill-opacity="0.5"/>
<circle cx="176.372" cy="41.2502" r="0.903864" fill="#BEBEBE" fill-opacity="0.5"/>
<circle cx="179.626" cy="41.2502" r="0.903864" fill="#BEBEBE" fill-opacity="0.5"/>
<circle cx="182.879" cy="41.2502" r="0.903864" fill="#BEBEBE" fill-opacity="0.5"/>
<circle cx="186.133" cy="41.2502" r="0.903864" fill="#BEBEBE" fill-opacity="0.5"/>
<circle cx="189.387" cy="41.2502" r="0.903864" fill="#BEBEBE" fill-opacity="0.5"/>
<circle cx="192.641" cy="41.2502" r="0.903864" fill="#BEBEBE" fill-opacity="0.5"/>
<circle cx="195.895" cy="41.2502" r="0.903864" fill="#BEBEBE" fill-opacity="0.5"/>
<circle cx="199.149" cy="41.2502" r="0.903864" fill="#BEBEBE" fill-opacity="0.5"/>
<circle cx="202.403" cy="41.2502" r="0.903864" fill="#BEBEBE" fill-opacity="0.5"/>
<circle cx="205.657" cy="41.2502" r="0.903864" fill="#BEBEBE" fill-opacity="0.5"/>
<circle cx="208.911" cy="41.2502" r="0.903864" fill="#BEBEBE" fill-opacity="0.5"/>
<circle cx="160.102" cy="43.3421" r="0.903864" fill="#BEBEBE" fill-opacity="0.5"/>
<circle cx="163.356" cy="43.3421" r="0.903864" fill="#BEBEBE" fill-opacity="0.5"/>
<circle cx="166.61" cy="43.3421" r="0.903864" fill="#BEBEBE" fill-opacity="0.5"/>
<circle cx="169.864" cy="43.3421" r="0.903864" fill="#BEBEBE" fill-opacity="0.5"/>
<circle cx="173.118" cy="43.3421" r="0.903864" fill="#BEBEBE" fill-opacity="0.5"/>
<circle cx="176.372" cy="43.3421" r="0.903864" fill="#BEBEBE" fill-opacity="0.5"/>
<circle cx="179.626" cy="43.3421" r="0.903864" fill="#BEBEBE" fill-opacity="0.5"/>
<circle cx="182.879" cy="43.3421" r="0.903864" fill="#BEBEBE" fill-opacity="0.5"/>
<circle cx="186.133" cy="43.3421" r="0.903864" fill="#BEBEBE" fill-opacity="0.5"/>
<circle cx="189.387" cy="43.3421" r="0.903864" fill="#BEBEBE" fill-opacity="0.5"/>
<circle cx="192.641" cy="43.3421" r="0.903864" fill="#BEBEBE" fill-opacity="0.5"/>
<circle cx="195.895" cy="43.3421" r="0.903864" fill="#BEBEBE" fill-opacity="0.5"/>
<circle cx="199.149" cy="43.3421" r="0.903864" fill="#BEBEBE" fill-opacity="0.5"/>
<circle cx="202.403" cy="43.3421" r="0.903864" fill="#BEBEBE" fill-opacity="0.5"/>
<circle cx="205.657" cy="43.3421" r="0.903864" fill="#BEBEBE" fill-opacity="0.5"/>
<circle cx="208.911" cy="43.3421" r="0.903864" fill="#BEBEBE" fill-opacity="0.5"/>
<circle cx="160.102" cy="45.434" r="0.903864" fill="#BEBEBE" fill-opacity="0.5"/>
<circle cx="163.356" cy="45.4341" r="0.903864" fill="#BEBEBE" fill-opacity="0.5"/>
<circle cx="166.61" cy="45.4341" r="0.903864" fill="#BEBEBE" fill-opacity="0.5"/>
<circle cx="169.864" cy="45.4341" r="0.903864" fill="#BEBEBE" fill-opacity="0.5"/>
<circle cx="173.118" cy="45.4341" r="0.903864" fill="#BEBEBE" fill-opacity="0.5"/>
<circle cx="176.372" cy="45.4341" r="0.903864" fill="#BEBEBE" fill-opacity="0.5"/>
<circle cx="179.626" cy="45.4341" r="0.903864" fill="#BEBEBE" fill-opacity="0.5"/>
<circle cx="182.879" cy="45.4341" r="0.903864" fill="#BEBEBE" fill-opacity="0.5"/>
<circle cx="186.133" cy="45.4341" r="0.903864" fill="#BEBEBE" fill-opacity="0.5"/>
<circle cx="189.387" cy="45.4341" r="0.903864" fill="#BEBEBE" fill-opacity="0.5"/>
<circle cx="192.641" cy="45.4341" r="0.903864" fill="#BEBEBE" fill-opacity="0.5"/>
<circle cx="195.895" cy="45.4341" r="0.903864" fill="#BEBEBE" fill-opacity="0.5"/>
<circle cx="199.149" cy="45.4341" r="0.903864" fill="#BEBEBE" fill-opacity="0.5"/>
<circle cx="202.403" cy="45.4341" r="0.903864" fill="#BEBEBE" fill-opacity="0.5"/>
<circle cx="205.657" cy="45.4341" r="0.903864" fill="#BEBEBE" fill-opacity="0.5"/>
<circle cx="208.911" cy="45.434" r="0.903864" fill="#BEBEBE" fill-opacity="0.5"/>
<circle cx="160.102" cy="47.5259" r="0.903864" fill="#BEBEBE" fill-opacity="0.5"/>
<circle cx="163.356" cy="47.5259" r="0.903864" fill="#BEBEBE" fill-opacity="0.5"/>
<circle cx="166.61" cy="47.5259" r="0.903864" fill="#BEBEBE" fill-opacity="0.5"/>
<circle cx="169.864" cy="47.5259" r="0.903864" fill="#BEBEBE" fill-opacity="0.5"/>
<circle cx="173.118" cy="47.5259" r="0.903864" fill="#BEBEBE" fill-opacity="0.5"/>
<circle cx="176.372" cy="47.5259" r="0.903864" fill="#BEBEBE" fill-opacity="0.5"/>
<circle cx="179.626" cy="47.5259" r="0.903864" fill="#BEBEBE" fill-opacity="0.5"/>
<circle cx="182.879" cy="47.5259" r="0.903864" fill="#BEBEBE" fill-opacity="0.5"/>
<circle cx="186.133" cy="47.5259" r="0.903864" fill="#BEBEBE" fill-opacity="0.5"/>
<circle cx="189.387" cy="47.5259" r="0.903864" fill="#BEBEBE" fill-opacity="0.5"/>
<circle cx="192.641" cy="47.5259" r="0.903864" fill="#BEBEBE" fill-opacity="0.5"/>
<circle cx="195.895" cy="47.5259" r="0.903864" fill="#BEBEBE" fill-opacity="0.5"/>
<circle cx="199.149" cy="47.5259" r="0.903864" fill="#BEBEBE" fill-opacity="0.5"/>
<circle cx="202.403" cy="47.5259" r="0.903864" fill="#BEBEBE" fill-opacity="0.5"/>
<circle cx="205.657" cy="47.5259" r="0.903864" fill="#BEBEBE" fill-opacity="0.5"/>
<circle cx="208.911" cy="47.5259" r="0.903864" fill="#BEBEBE" fill-opacity="0.5"/>
<circle cx="160.102" cy="49.6178" r="0.903864" fill="#BEBEBE" fill-opacity="0.5"/>
<circle cx="163.356" cy="49.6177" r="0.903864" fill="#BEBEBE" fill-opacity="0.5"/>
<circle cx="166.61" cy="49.6177" r="0.903864" fill="#BEBEBE" fill-opacity="0.5"/>
<circle cx="169.864" cy="49.6177" r="0.903864" fill="#BEBEBE" fill-opacity="0.5"/>
<circle cx="173.118" cy="49.6177" r="0.903864" fill="#BEBEBE" fill-opacity="0.5"/>
<circle cx="176.372" cy="49.6177" r="0.903864" fill="#BEBEBE" fill-opacity="0.5"/>
<circle cx="179.626" cy="49.6177" r="0.903864" fill="#BEBEBE" fill-opacity="0.5"/>
<circle cx="182.879" cy="49.6177" r="0.903864" fill="#BEBEBE" fill-opacity="0.5"/>
<circle cx="186.133" cy="49.6177" r="0.903864" fill="#BEBEBE" fill-opacity="0.5"/>
<circle cx="189.387" cy="49.6177" r="0.903864" fill="#BEBEBE" fill-opacity="0.5"/>
<circle cx="192.641" cy="49.6177" r="0.903864" fill="#BEBEBE" fill-opacity="0.5"/>
<circle cx="195.895" cy="49.6177" r="0.903864" fill="#BEBEBE" fill-opacity="0.5"/>
<circle cx="199.149" cy="49.6177" r="0.903864" fill="#BEBEBE" fill-opacity="0.5"/>
<circle cx="202.403" cy="49.6177" r="0.903864" fill="#BEBEBE" fill-opacity="0.5"/>
<circle cx="205.657" cy="49.6177" r="0.903864" fill="#BEBEBE" fill-opacity="0.5"/>
<circle cx="208.911" cy="49.6178" r="0.903864" fill="#BEBEBE" fill-opacity="0.5"/>
<circle cx="160.102" cy="51.7097" r="0.903864" fill="#BEBEBE" fill-opacity="0.5"/>
<circle cx="163.356" cy="51.7096" r="0.903864" fill="#BEBEBE" fill-opacity="0.5"/>
<circle cx="166.61" cy="51.7096" r="0.903864" fill="#BEBEBE" fill-opacity="0.5"/>
<circle cx="169.864" cy="51.7096" r="0.903864" fill="#BEBEBE" fill-opacity="0.5"/>
<circle cx="173.118" cy="51.7096" r="0.903864" fill="#BEBEBE" fill-opacity="0.5"/>
<circle cx="176.372" cy="51.7096" r="0.903864" fill="#BEBEBE" fill-opacity="0.5"/>
<circle cx="179.626" cy="51.7096" r="0.903864" fill="#BEBEBE" fill-opacity="0.5"/>
<circle cx="182.879" cy="51.7096" r="0.903864" fill="#BEBEBE" fill-opacity="0.5"/>
<circle cx="186.133" cy="51.7096" r="0.903864" fill="#BEBEBE" fill-opacity="0.5"/>
<circle cx="189.387" cy="51.7096" r="0.903864" fill="#BEBEBE" fill-opacity="0.5"/>
<circle cx="192.641" cy="51.7096" r="0.903864" fill="#BEBEBE" fill-opacity="0.5"/>
<circle cx="195.895" cy="51.7096" r="0.903864" fill="#BEBEBE" fill-opacity="0.5"/>
<circle cx="199.149" cy="51.7096" r="0.903864" fill="#BEBEBE" fill-opacity="0.5"/>
<circle cx="202.403" cy="51.7096" r="0.903864" fill="#BEBEBE" fill-opacity="0.5"/>
<circle cx="205.657" cy="51.7096" r="0.903864" fill="#BEBEBE" fill-opacity="0.5"/>
<circle cx="208.911" cy="51.7097" r="0.903864" fill="#BEBEBE" fill-opacity="0.5"/>
<circle cx="160.102" cy="53.8016" r="0.903864" fill="#BEBEBE" fill-opacity="0.5"/>
<circle cx="163.356" cy="53.8015" r="0.903864" fill="#BEBEBE" fill-opacity="0.5"/>
<circle cx="166.61" cy="53.8015" r="0.903864" fill="#BEBEBE" fill-opacity="0.5"/>
<circle cx="169.864" cy="53.8015" r="0.903864" fill="#BEBEBE" fill-opacity="0.5"/>
<circle cx="173.118" cy="53.8015" r="0.903864" fill="#BEBEBE" fill-opacity="0.5"/>
<circle cx="176.372" cy="53.8015" r="0.903864" fill="#BEBEBE" fill-opacity="0.5"/>
<circle cx="179.626" cy="53.8015" r="0.903864" fill="#BEBEBE" fill-opacity="0.5"/>
<circle cx="182.879" cy="53.8015" r="0.903864" fill="#BEBEBE" fill-opacity="0.5"/>
<circle cx="186.133" cy="53.8015" r="0.903864" fill="#BEBEBE" fill-opacity="0.5"/>
<circle cx="189.387" cy="53.8015" r="0.903864" fill="#BEBEBE" fill-opacity="0.5"/>
<circle cx="192.641" cy="53.8015" r="0.903864" fill="#BEBEBE" fill-opacity="0.5"/>
<circle cx="195.895" cy="53.8015" r="0.903864" fill="#BEBEBE" fill-opacity="0.5"/>
<circle cx="199.149" cy="53.8015" r="0.903864" fill="#BEBEBE" fill-opacity="0.5"/>
<circle cx="202.403" cy="53.8015" r="0.903864" fill="#BEBEBE" fill-opacity="0.5"/>
<circle cx="205.657" cy="53.8015" r="0.903864" fill="#BEBEBE" fill-opacity="0.5"/>
<circle cx="208.911" cy="53.8016" r="0.903864" fill="#BEBEBE" fill-opacity="0.5"/>
<circle cx="160.102" cy="55.8935" r="0.903864" fill="#BEBEBE" fill-opacity="0.5"/>
<circle cx="163.356" cy="55.8935" r="0.903864" fill="#BEBEBE" fill-opacity="0.5"/>
<circle cx="166.61" cy="55.8935" r="0.903864" fill="#BEBEBE" fill-opacity="0.5"/>
<circle cx="169.864" cy="55.8935" r="0.903864" fill="#BEBEBE" fill-opacity="0.5"/>
<circle cx="173.118" cy="55.8935" r="0.903864" fill="#BEBEBE" fill-opacity="0.5"/>
<circle cx="176.372" cy="55.8935" r="0.903864" fill="#BEBEBE" fill-opacity="0.5"/>
<circle cx="179.626" cy="55.8935" r="0.903864" fill="#BEBEBE" fill-opacity="0.5"/>
<circle cx="182.879" cy="55.8935" r="0.903864" fill="#BEBEBE" fill-opacity="0.5"/>
<circle cx="186.133" cy="55.8935" r="0.903864" fill="#BEBEBE" fill-opacity="0.5"/>
<circle cx="189.387" cy="55.8935" r="0.903864" fill="#BEBEBE" fill-opacity="0.5"/>
<circle cx="192.641" cy="55.8935" r="0.903864" fill="#BEBEBE" fill-opacity="0.5"/>
<circle cx="195.895" cy="55.8935" r="0.903864" fill="#BEBEBE" fill-opacity="0.5"/>
<circle cx="199.149" cy="55.8935" r="0.903864" fill="#BEBEBE" fill-opacity="0.5"/>
<circle cx="202.403" cy="55.8935" r="0.903864" fill="#BEBEBE" fill-opacity="0.5"/>
<circle cx="205.657" cy="55.8935" r="0.903864" fill="#BEBEBE" fill-opacity="0.5"/>
<circle cx="208.911" cy="55.8935" r="0.903864" fill="#BEBEBE" fill-opacity="0.5"/>
<circle cx="160.102" cy="57.9853" r="0.903864" fill="#BEBEBE" fill-opacity="0.5"/>
<circle cx="163.356" cy="57.9854" r="0.903864" fill="#BEBEBE" fill-opacity="0.5"/>
<circle cx="166.61" cy="57.9854" r="0.903864" fill="#BEBEBE" fill-opacity="0.5"/>
<circle cx="169.864" cy="57.9854" r="0.903864" fill="#BEBEBE" fill-opacity="0.5"/>
<circle cx="173.118" cy="57.9854" r="0.903864" fill="#BEBEBE" fill-opacity="0.5"/>
<circle cx="176.372" cy="57.9854" r="0.903864" fill="#BEBEBE" fill-opacity="0.5"/>
<circle cx="179.626" cy="57.9854" r="0.903864" fill="#BEBEBE" fill-opacity="0.5"/>
<circle cx="182.879" cy="57.9854" r="0.903864" fill="#BEBEBE" fill-opacity="0.5"/>
<circle cx="186.133" cy="57.9854" r="0.903864" fill="#BEBEBE" fill-opacity="0.5"/>
<circle cx="189.387" cy="57.9854" r="0.903864" fill="#BEBEBE" fill-opacity="0.5"/>
<circle cx="192.641" cy="57.9854" r="0.903864" fill="#BEBEBE" fill-opacity="0.5"/>
<circle cx="195.895" cy="57.9854" r="0.903864" fill="#BEBEBE" fill-opacity="0.5"/>
<circle cx="199.149" cy="57.9854" r="0.903864" fill="#BEBEBE" fill-opacity="0.5"/>
<circle cx="202.403" cy="57.9854" r="0.903864" fill="#BEBEBE" fill-opacity="0.5"/>
<circle cx="205.657" cy="57.9854" r="0.903864" fill="#BEBEBE" fill-opacity="0.5"/>
<circle cx="208.911" cy="57.9853" r="0.903864" fill="#BEBEBE" fill-opacity="0.5"/>
<circle cx="160.102" cy="60.0773" r="0.903864" fill="#BEBEBE" fill-opacity="0.5"/>
<circle cx="163.356" cy="60.0774" r="0.903864" fill="#BEBEBE" fill-opacity="0.5"/>
<circle cx="166.61" cy="60.0774" r="0.903864" fill="#BEBEBE" fill-opacity="0.5"/>
<circle cx="169.864" cy="60.0774" r="0.903864" fill="#BEBEBE" fill-opacity="0.5"/>
<circle cx="173.118" cy="60.0774" r="0.903864" fill="#BEBEBE" fill-opacity="0.5"/>
<circle cx="176.372" cy="60.0774" r="0.903864" fill="#BEBEBE" fill-opacity="0.5"/>
<circle cx="179.626" cy="60.0774" r="0.903864" fill="#BEBEBE" fill-opacity="0.5"/>
<circle cx="182.879" cy="60.0774" r="0.903864" fill="#BEBEBE" fill-opacity="0.5"/>
<circle cx="186.133" cy="60.0774" r="0.903864" fill="#BEBEBE" fill-opacity="0.5"/>
<circle cx="189.387" cy="60.0774" r="0.903864" fill="#BEBEBE" fill-opacity="0.5"/>
<circle cx="192.641" cy="60.0774" r="0.903864" fill="#BEBEBE" fill-opacity="0.5"/>
<circle cx="195.895" cy="60.0774" r="0.903864" fill="#BEBEBE" fill-opacity="0.5"/>
<circle cx="199.149" cy="60.0774" r="0.903864" fill="#BEBEBE" fill-opacity="0.5"/>
<circle cx="202.403" cy="60.0774" r="0.903864" fill="#BEBEBE" fill-opacity="0.5"/>
<circle cx="205.657" cy="60.0774" r="0.903864" fill="#BEBEBE" fill-opacity="0.5"/>
<circle cx="208.911" cy="60.0773" r="0.903864" fill="#BEBEBE" fill-opacity="0.5"/>
<circle cx="160.102" cy="62.1692" r="0.903864" fill="#BEBEBE" fill-opacity="0.5"/>
<circle cx="163.356" cy="62.1691" r="0.903864" fill="#BEBEBE" fill-opacity="0.5"/>
<circle cx="166.61" cy="62.1691" r="0.903864" fill="#BEBEBE" fill-opacity="0.5"/>
<circle cx="169.864" cy="62.1691" r="0.903864" fill="#BEBEBE" fill-opacity="0.5"/>
<circle cx="173.118" cy="62.1691" r="0.903864" fill="#BEBEBE" fill-opacity="0.5"/>
<circle cx="176.372" cy="62.1691" r="0.903864" fill="#BEBEBE" fill-opacity="0.5"/>
<circle cx="179.626" cy="62.1691" r="0.903864" fill="#BEBEBE" fill-opacity="0.5"/>
<circle cx="182.879" cy="62.1691" r="0.903864" fill="#BEBEBE" fill-opacity="0.5"/>
<circle cx="186.133" cy="62.1691" r="0.903864" fill="#BEBEBE" fill-opacity="0.5"/>
<circle cx="189.387" cy="62.1691" r="0.903864" fill="#BEBEBE" fill-opacity="0.5"/>
<circle cx="192.641" cy="62.1691" r="0.903864" fill="#BEBEBE" fill-opacity="0.5"/>
<circle cx="195.895" cy="62.1691" r="0.903864" fill="#BEBEBE" fill-opacity="0.5"/>
<circle cx="199.149" cy="62.1691" r="0.903864" fill="#BEBEBE" fill-opacity="0.5"/>
<circle cx="202.403" cy="62.1691" r="0.903864" fill="#BEBEBE" fill-opacity="0.5"/>
<circle cx="205.657" cy="62.1691" r="0.903864" fill="#BEBEBE" fill-opacity="0.5"/>
<circle cx="208.911" cy="62.1692" r="0.903864" fill="#BEBEBE" fill-opacity="0.5"/>
</g>
<circle cx="159.335" cy="47.3353" r="36.3353" fill="#694ACE"/>
<g clip-path="url(#clip1_22_1320)">
<path d="M168.699 67.1095C165.12 74.2505 160.252 75.0089 158.816 75.0811V75.0869C158.816 75.0869 158.858 75.0903 158.751 75.088C158.644 75.0903 158.685 75.0869 158.685 75.0869V75.0811C157.38 75.0219 153.992 74.4935 150.78 70.2916C150.102 69.4051 149.429 68.3544 148.806 67.1099C144.647 58.815 147.671 54.5428 147.671 54.5428L158.685 54.5161V54.515L158.751 54.5161L158.816 54.515V54.5161L163.509 54.5276L169.849 54.5428C169.849 54.5428 172.858 58.8147 168.699 67.1099V67.1095Z" fill="url(#paint2_linear_22_1320)"/>
<path d="M158.768 56.1476C164.944 56.1476 169.951 55.5067 169.951 54.7159C169.951 53.9252 164.944 53.2842 158.768 53.2842C152.592 53.2842 147.585 53.9252 147.585 54.7159C147.585 55.5067 152.592 56.1476 158.768 56.1476Z" fill="url(#paint3_linear_22_1320)"/>
<path style="mix-blend-mode:multiply" opacity="0.3" d="M168.699 67.1095C165.12 74.2505 160.252 75.0089 158.816 75.0811V75.0869C158.816 75.0869 158.858 75.0903 158.751 75.088C158.644 75.0903 158.685 75.0869 158.685 75.0869V75.0811C157.38 75.0219 153.992 74.4935 150.78 70.2916C150.798 66.4221 159.681 63.793 162.456 61.999C165.967 59.7305 163.142 54.7163 163.142 54.7163C163.278 54.651 163.41 54.5883 163.543 54.528L169.866 54.5432C169.866 54.5432 172.858 58.815 168.699 67.1103V67.1095Z" fill="url(#paint4_linear_22_1320)"/>
<path d="M141.753 42.1389C144.974 42.1389 147.585 38.7624 147.585 34.5972C147.585 30.432 144.974 27.0554 141.753 27.0554C138.533 27.0554 135.922 30.432 135.922 34.5972C135.922 38.7624 138.533 42.1389 141.753 42.1389Z" fill="url(#paint5_linear_22_1320)"/>
<path d="M178.582 36.2963C178.582 45.679 169.398 53.2842 158.069 53.2842C156.329 53.2842 154.64 53.105 153.027 52.7665C144.136 50.9061 137.557 44.2378 137.557 36.2963C137.557 26.9148 146.741 19.3085 158.069 19.3085C161.252 19.3085 164.265 19.9087 166.954 20.9801C173.834 23.7224 178.582 29.5509 178.582 36.296V36.2963Z" fill="url(#paint6_linear_22_1320)"/>
<path d="M144.372 44.0506L160.188 45.4456C163.684 45.754 166.7 42.9895 166.822 39.232L166.953 35.2227C167.009 33.498 165.702 32.0594 164.057 32.0166L141.51 31.4289C140.201 31.3949 139.152 32.5978 139.152 34.1105V37.6299C139.152 40.932 141.455 43.7935 144.372 44.0506H144.372Z" fill="#F4F7FA"/>
<path d="M143.992 41.758L160.915 43.017C163.415 43.2031 165.55 41.2063 165.633 38.5381L165.688 36.7675C165.741 35.0565 164.449 33.6233 162.824 33.5728L142.649 32.9496C141.326 32.9087 140.264 34.1104 140.262 35.6281L140.261 37.1996C140.257 39.569 141.911 41.6033 143.992 41.758Z" fill="url(#paint7_linear_22_1320)"/>
<path d="M153.914 40.2258C153.755 39.9614 153.658 39.6691 153.663 39.36C153.68 38.3585 154.674 37.5951 155.893 37.6574C157.128 37.7204 158.12 38.6023 158.097 39.6244C158.09 39.9396 157.978 40.225 157.803 40.4734L153.913 40.2258H153.914Z" fill="#D8DEE8"/>
<path d="M143.5 39.5628C143.353 39.3114 143.263 39.0336 143.264 38.7398C143.269 37.7873 144.157 37.0582 145.259 37.1148C146.373 37.1717 147.278 38.0073 147.268 38.9786C147.265 39.2782 147.168 39.5499 147.012 39.7864L143.5 39.5628H143.5Z" fill="#D8DEE8"/>
<path style="mix-blend-mode:multiply" opacity="0.3" d="M178.582 36.2963C178.582 45.679 169.398 53.2842 158.07 53.2842C156.329 53.2842 154.641 53.105 153.027 52.7665C151.432 47.6766 160.448 42.0946 165.633 38.5381C171.985 34.181 166.954 20.9801 166.954 20.9801C173.834 23.7224 178.582 29.5508 178.582 36.2959L178.582 36.2963Z" fill="url(#paint8_linear_22_1320)"/>
<path d="M175.783 45.0967C179.004 45.0967 181.615 41.7201 181.615 37.5549C181.615 33.3897 179.004 30.0132 175.783 30.0132C172.562 30.0132 169.951 33.3897 169.951 37.5549C169.951 41.7201 172.562 45.0967 175.783 45.0967Z" fill="url(#paint9_linear_22_1320)"/>
</g>
<path d="M169.101 75.5444C169.029 72.5365 168.151 70.756 166.826 67.0302C166.642 66.5159 166.302 65.8852 165.764 65.9677C165.245 66.0453 165.084 66.7148 165.065 67.2388C164.949 70.6493 165.802 74.0889 167.5 77.0483" fill="url(#paint10_linear_22_1320)"/>
<path d="M171.426 84.2478C169.441 80.779 169.674 76.0295 168.529 72.2017C167.918 70.1593 163.755 65.012 161.398 61.3977C161.204 61.1018 161 60.7961 160.699 60.6069C160.398 60.4177 159.971 60.3789 159.709 60.6166C159.297 60.9853 159.54 61.6597 159.811 62.1448C161.509 65.1866 163.207 68.2285 164.905 71.2703C164.881 71.28 164.857 71.2897 164.832 71.3042C164.008 70.6736 163.164 70.0623 162.232 69.616C161.839 69.4267 161.422 69.2618 160.985 69.2424C160.549 69.223 160.088 69.3685 159.811 69.7081C159.535 70.0477 159.501 70.5911 159.802 70.9064C159.379 70.5377 158.429 70.6493 158.016 71.0326C157.604 71.411 157.541 72.1096 157.871 72.5608C157.264 72.4346 156.469 72.7111 156.168 73.2497C155.969 73.6087 155.93 74.0307 155.891 74.4382L155.658 77.0774C155.624 77.4413 155.605 77.8439 155.823 78.135C156.017 78.3873 156.342 78.4892 156.648 78.5765C157.24 78.7463 157.832 78.9112 158.424 79.081C158.501 79.93 158.623 80.7645 158.86 81.5261C159.472 83.4861 160.524 85.3636 162.145 86.625C165.303 89.0749 166.021 93.383 167.142 97.3854L176.364 92.8978C174.715 90.0112 173.065 87.1295 171.421 84.2429L171.426 84.2478Z" fill="url(#paint11_linear_22_1320)"/>
<path d="M283.897 128.332C281.655 117.616 279.414 106.894 277.172 96.1773C276.479 92.8493 275.766 89.4776 274.441 86.4406C272.966 83.0592 270.191 79.3139 267.145 78.9985C263.962 78.6686 260.44 80.1047 259.465 84.3448C258.8 87.2314 259.426 90.4624 260.057 93.5042C262.642 106.05 265.233 118.596 267.819 131.141C263.113 130.501 258.388 130.132 253.677 130.613C252.775 130.705 251.785 130.875 251.198 131.563C250.567 132.306 250.616 133.451 251.067 134.314C251.518 135.178 252.294 135.823 253.066 136.42C257.922 140.194 263.38 143.192 269.163 145.278C270.628 145.807 273.083 146.962 275.145 147.379C275.538 147.486 275.94 147.534 276.338 147.534C276.668 147.544 276.978 147.529 277.255 147.466C277.274 147.466 277.294 147.452 277.313 147.452C278.182 147.297 279.031 146.947 279.812 146.481C281.961 145.196 283.819 142.974 284.581 140.015C285.517 136.366 284.707 132.214 283.892 128.328L283.897 128.332Z" fill="url(#paint12_linear_22_1320)"/>
<path d="M229.866 35.3896L227.174 39.9111C226.13 41.6576 225.694 43.6952 225.927 45.7182C224.884 48.3768 224.67 51.2876 225.32 54.0675L227.508 63.4307C227.489 64.3767 228.241 65.2063 229.274 65.3761L231.142 65.2305C231.797 65.3421 232.268 65.8709 232.234 66.4725L234.499 82.2201L248.559 82.0552L243.178 61.9898L238.186 62.3585L234.829 54.31L235.038 54.4459C236.309 55.2658 237.25 53.9025 237.725 53.0002C238.458 51.6127 239.443 49.8856 239.225 48.3137C239.006 46.7467 236.566 45.8929 235.455 47.2513C235.28 47.4647 235.14 47.7024 235.013 47.9402C234.916 48.1294 234.523 48.7212 234.572 48.925L233.097 42.7492L236.503 36.4132L229.871 35.3944L229.866 35.3896Z" fill="url(#paint13_linear_22_1320)"/>
<g opacity="0.54">
<path d="M225.927 45.7131C224.884 48.3716 224.67 51.2825 225.32 54.0575L227.513 63.4207C227.494 64.3667 228.241 65.1963 229.279 65.3661L231.147 65.2205C231.802 65.3321 232.268 65.8609 232.238 66.4625L234.504 82.2101L236.372 82.346L234.101 66.5983C234.131 66.0016 233.665 65.468 233.01 65.3564L229.556 65.4146C228.522 65.2448 228.304 64.42 228.323 63.4692L226.499 55.2364C225.893 52.5002 226.087 49.6475 227.062 47.0181C227.518 46.2855 227.576 45.3686 227.217 44.5827L226.824 43.724C226.509 43.0399 226.567 42.2395 226.975 41.6088L230.832 35.5979L229.861 35.3796L227.169 39.8962C226.126 41.6427 225.689 43.6852 225.922 45.7034L225.927 45.7131Z" fill="url(#paint14_linear_22_1320)"/>
</g>
<path d="M275.275 94.6104C275.867 88.7984 272.908 83.2047 267.77 80.42L255.933 73.9968C242.179 70.3194 225.883 76.0198 225.849 76.0295C222.987 77.0289 220.008 78.1641 217.548 79.964C217.519 80.0271 217.49 80.0901 217.461 80.1532C217.204 80.3278 216.951 80.5025 216.714 80.6771C213.357 83.1611 200.583 105.972 194.882 113.245C190.535 107.884 179.566 93.218 175.69 87.5079C171.013 87.668 166.623 90.1374 164.304 94.2028C169.107 102.775 187.173 136.716 195.726 136.745C200.068 136.759 206.938 130.229 212.964 123.413C213.395 124.18 213.813 124.956 214.181 125.751C214.86 127.217 215.515 128.774 215.69 130.389C215.874 132.073 215.443 133.868 215.045 135.493C214.332 138.418 213.201 141.208 212.056 143.993C211.586 145.637 210.911 147.233 210.3 148.636C210.106 149.077 209.912 149.514 209.713 149.945C208.903 152.104 208.122 154.278 207.35 156.456C206.768 158.105 206.172 159.765 205.541 161.409C205.347 162.127 205.158 162.84 204.973 163.563H269.886C269.886 163.563 259.421 135.546 263.254 129.487C266.635 124.141 275.271 94.6104 275.271 94.6104H275.275Z" fill="url(#paint15_linear_22_1320)"/>
<path d="M175.685 87.5079C179.562 93.218 190.526 107.884 194.873 113.245C200.578 105.977 213.352 83.1611 216.709 80.6772C216.942 80.5025 217.194 80.3279 217.451 80.1532C217.48 80.0901 217.514 80.0271 217.544 79.964C220.003 78.1641 222.987 77.0289 225.844 76.0295C225.883 76.015 242.179 70.3146 255.928 73.9919L267.771 80.4152C272.894 83.195 275.853 88.7742 275.271 94.5764C274.791 89.8803 272.025 85.6353 267.771 83.326L255.928 76.9028C242.179 73.2254 225.883 78.9258 225.844 78.9404C222.987 79.9398 220.003 81.075 217.544 82.8748C217.514 82.9379 217.48 83.001 217.451 83.0641C217.194 83.2387 216.942 83.4134 216.709 83.588C213.352 86.0719 200.578 108.888 194.873 116.155C190.526 110.795 178.368 93.3102 174.492 87.6001" fill="url(#paint16_linear_22_1320)"/>
<path d="M225.883 43.8404C227.319 46.5912 229.837 48.653 231.321 51.3844C233.412 55.2267 233.204 59.9034 232.427 64.2115C231.093 71.5856 228.26 78.9646 229.492 86.3581C230.584 92.9026 234.945 98.7001 240.651 102.096C246.356 105.487 253.279 106.569 259.857 105.691C263.515 105.201 267.27 104.022 269.793 101.33C272.481 98.4623 273.359 94.3144 273.315 90.3848C273.262 85.3781 271.87 80.3957 269.323 76.0877C267.392 72.8178 264.83 69.9652 262.637 66.8652C260.444 63.7651 258.562 60.2721 258.29 56.4832C258.077 53.4705 258.892 50.4723 258.897 47.4499C258.911 40.4008 254.264 33.7689 247.962 30.6155C243.295 28.2626 237.871 27.729 232.757 28.6071C228.153 29.3978 226.033 31.3918 224.966 36.0588C224.369 38.6543 224.646 41.473 225.883 43.8404Z" fill="url(#paint17_linear_22_1320)"/>
</g>
<rect x="9.5059" y="44.1285" width="22.3656" height="22.3656" rx="11.1828" stroke="#4D4954" stroke-width="1.0118"/>
<path d="M25.6939 58.255L23.3231 56.0994C23.2111 55.9975 23.0638 55.9432 22.9124 55.9479C22.761 55.9526 22.6174 56.0159 22.5119 56.1245L21.1162 57.5598C20.7802 57.4956 20.1049 57.2851 19.4097 56.5916C18.7145 55.8958 18.5039 55.2187 18.4415 54.8851L19.8757 53.4889C19.9844 53.3834 20.0478 53.2397 20.0525 53.0883C20.0572 52.9369 20.0027 52.7896 19.9007 52.6776L17.7457 50.3074C17.6437 50.195 17.5019 50.1269 17.3504 50.1174C17.1989 50.1079 17.0497 50.1579 16.9344 50.2566L15.6688 51.342C15.568 51.4432 15.5078 51.5779 15.4997 51.7205C15.491 51.8663 15.3242 55.3202 18.0023 57.9995C20.3387 60.3353 23.2654 60.5062 24.0714 60.5062C24.1892 60.5062 24.2615 60.5027 24.2808 60.5015C24.4234 60.4936 24.558 60.4331 24.6587 60.3318L25.7435 59.0656C25.8427 58.9508 25.893 58.8017 25.8837 58.6502C25.8745 58.4988 25.8064 58.3569 25.6939 58.255Z" fill="#4D4954"/>
<rect x="40.7848" y="44.1285" width="22.3656" height="22.3656" rx="11.1828" stroke="#4D4954" stroke-width="1.0118"/>
<path d="M46.9555 51.4148V50.8582C46.8078 50.8582 46.6663 50.9168 46.5619 51.0212C46.4575 51.1256 46.3989 51.2671 46.3989 51.4148H46.9555ZM56.9743 51.4148H57.5309C57.5309 51.2671 57.4723 51.1256 57.3679 51.0212C57.2635 50.9168 57.122 50.8582 56.9743 50.8582V51.4148ZM46.9555 51.9714H56.9743V50.8582H46.9555V51.9714ZM56.4177 51.4148V58.094H57.5309V51.4148H56.4177ZM55.8611 58.6506H48.0687V59.7638H55.8611V58.6506ZM47.5121 58.094V51.4148H46.3989V58.094H47.5121ZM48.0687 58.6506C47.9211 58.6506 47.7795 58.592 47.6751 58.4876C47.5707 58.3832 47.5121 58.2416 47.5121 58.094H46.3989C46.3989 58.5369 46.5748 58.9616 46.8879 59.2747C47.2011 59.5879 47.6258 59.7638 48.0687 59.7638V58.6506ZM56.4177 58.094C56.4177 58.2416 56.3591 58.3832 56.2547 58.4876C56.1503 58.592 56.0087 58.6506 55.8611 58.6506V59.7638C56.304 59.7638 56.7287 59.5879 57.0419 59.2747C57.355 58.9616 57.5309 58.5369 57.5309 58.094H56.4177Z" fill="#4D4954"/>
<path d="M47.4199 51.7398L51.9655 56.2854L56.5111 51.7398" fill="#4D4954"/>
<path d="M47.4199 51.7398L51.9655 56.2854L56.5111 51.7398H47.4199Z" stroke="#4D4954" stroke-width="0.649371" stroke-linecap="round" stroke-linejoin="round"/>
<rect x="69.9939" y="43.6226" width="23.3774" height="23.3774" rx="11.6887" fill="#4D4954"/>
<circle cx="78.0171" cy="55.7186" r="1.09844" fill="#F2F4F8"/>
<circle cx="81.9721" cy="55.7183" r="1.09844" fill="#F2F4F8"/>
<circle cx="85.9262" cy="55.7183" r="1.09844" fill="#F2F4F8"/>
<path d="M10.3849 21V11.7401H11.6813L14.8296 18.2617L17.9516 11.7401H19.2612V21H18.15V13.7376L15.2397 19.783H14.4063L11.4961 13.7905V21H10.3849ZM24.1054 21.1587C23.4881 21.1587 22.9413 21.0088 22.4651 20.709C21.9888 20.4091 21.614 19.9858 21.3406 19.439C21.0761 18.8923 20.9438 18.2529 20.9438 17.5209C20.9438 16.7889 21.0761 16.1496 21.3406 15.6028C21.614 15.056 21.9888 14.6327 22.4651 14.3328C22.9501 14.033 23.5057 13.8831 24.1318 13.8831C24.8021 13.8831 25.3621 14.033 25.8119 14.3328C26.2616 14.6327 26.6012 15.034 26.8305 15.5366C27.0598 16.0393 27.1744 16.5905 27.1744 17.1902C27.1744 17.2784 27.1744 17.3666 27.1744 17.4548C27.1744 17.543 27.17 17.6488 27.1612 17.7722H21.7772V16.9124H26.0897C26.072 16.2333 25.8736 15.7174 25.4944 15.3647C25.124 15.0031 24.661 14.8223 24.1054 14.8223C23.735 14.8223 23.3911 14.9149 23.0736 15.1001C22.7649 15.2765 22.5136 15.541 22.3195 15.8938C22.1255 16.2466 22.0285 16.6875 22.0285 17.2167V17.5871C22.0285 18.1691 22.1255 18.6586 22.3195 19.0554C22.5136 19.4434 22.7649 19.7345 23.0736 19.9285C23.3911 20.1225 23.735 20.2195 24.1054 20.2195C24.5993 20.2195 24.9873 20.1269 25.2695 19.9417C25.5517 19.7477 25.759 19.4743 25.8912 19.1216H26.9892C26.8834 19.5096 26.6982 19.8579 26.4336 20.1666C26.1779 20.4753 25.8515 20.7178 25.4547 20.8942C25.0667 21.0706 24.6169 21.1587 24.1054 21.1587ZM31.5981 21.1587C30.9808 21.1587 30.434 21.0088 29.9578 20.709C29.4815 20.4091 29.1067 19.9858 28.8333 19.439C28.5688 18.8923 28.4365 18.2529 28.4365 17.5209C28.4365 16.7889 28.5688 16.1496 28.8333 15.6028C29.1067 15.056 29.4815 14.6327 29.9578 14.3328C30.4428 14.033 30.9984 13.8831 31.6245 13.8831C32.2948 13.8831 32.8548 14.033 33.3046 14.3328C33.7543 14.6327 34.0939 15.034 34.3232 15.5366C34.5524 16.0393 34.6671 16.5905 34.6671 17.1902C34.6671 17.2784 34.6671 17.3666 34.6671 17.4548C34.6671 17.543 34.6627 17.6488 34.6539 17.7722H29.2699V16.9124H33.5824C33.5647 16.2333 33.3663 15.7174 32.9871 15.3647C32.6167 15.0031 32.1537 14.8223 31.5981 14.8223C31.2277 14.8223 30.8837 14.9149 30.5663 15.1001C30.2576 15.2765 30.0063 15.541 29.8122 15.8938C29.6182 16.2466 29.5212 16.6875 29.5212 17.2167V17.5871C29.5212 18.1691 29.6182 18.6586 29.8122 19.0554C30.0063 19.4434 30.2576 19.7345 30.5663 19.9285C30.8837 20.1225 31.2277 20.2195 31.5981 20.2195C32.0919 20.2195 32.48 20.1269 32.7622 19.9417C33.0444 19.7477 33.2516 19.4743 33.3839 19.1216H34.4819C34.3761 19.5096 34.1909 19.8579 33.9263 20.1666C33.6705 20.4753 33.3442 20.7178 32.9474 20.8942C32.5594 21.0706 32.1096 21.1587 31.5981 21.1587ZM38.686 21C38.2891 21 37.9452 20.9383 37.6541 20.8148C37.3631 20.6913 37.1382 20.4841 36.9795 20.1931C36.8296 19.8932 36.7546 19.492 36.7546 18.9893V14.981H35.5376V14.0418H36.7546L36.9001 12.3089H37.8658V14.0418H39.8368V14.981H37.8658V18.9893C37.8658 19.4038 37.9496 19.686 38.1171 19.8359C38.2847 19.977 38.5801 20.0475 39.0035 20.0475H39.8104V21H38.686ZM48.909 21.1587C48.0624 21.1587 47.3172 20.9603 46.6734 20.5635C46.0296 20.1578 45.5269 19.5978 45.1653 18.8834C44.8038 18.1603 44.623 17.3225 44.623 16.37C44.623 15.4264 44.8038 14.5974 45.1653 13.8831C45.5269 13.1599 46.0296 12.5955 46.6734 12.1898C47.3172 11.7842 48.0624 11.5813 48.909 11.5813C49.7733 11.5813 50.5273 11.7842 51.1711 12.1898C51.8149 12.5955 52.3131 13.1599 52.6659 13.8831C53.0187 14.5974 53.195 15.4264 53.195 16.37C53.195 17.3225 53.0187 18.1603 52.6659 18.8834C52.3131 19.5978 51.8149 20.1578 51.1711 20.5635C50.5273 20.9603 49.7733 21.1587 48.909 21.1587ZM48.909 20.1798C49.544 20.1798 50.0952 20.0299 50.5626 19.7301C51.0388 19.4214 51.4048 18.9849 51.6605 18.4204C51.9251 17.8472 52.0574 17.1637 52.0574 16.37C52.0574 15.5763 51.9251 14.8973 51.6605 14.3328C51.4048 13.7596 51.0388 13.3231 50.5626 13.0232C50.0952 12.7234 49.544 12.5735 48.909 12.5735C48.2829 12.5735 47.7317 12.7234 47.2554 13.0232C46.788 13.3231 46.422 13.7596 46.1575 14.3328C45.8929 14.8973 45.7606 15.5763 45.7606 16.37C45.7606 17.1637 45.8929 17.8472 46.1575 18.4204C46.422 18.9849 46.788 19.4214 47.2554 19.7301C47.7317 20.0299 48.2829 20.1798 48.909 20.1798ZM57.2839 21.1587C56.7724 21.1587 56.327 21.0617 55.9478 20.8677C55.5686 20.6737 55.2731 20.3783 55.0615 19.9814C54.8498 19.5757 54.744 19.0731 54.744 18.4734V14.0418H55.8552V18.3543C55.8552 18.9716 56.0051 19.4346 56.305 19.7433C56.6136 20.052 57.0237 20.2063 57.5352 20.2063C57.888 20.2063 58.2055 20.1269 58.4877 19.9682C58.7699 19.8006 58.9948 19.5581 59.1623 19.2406C59.3387 18.9231 59.4269 18.5351 59.4269 18.0765V14.0418H60.5381V21H59.5327L59.4666 19.8888C59.2814 20.2945 58.9948 20.6076 58.6067 20.828C58.2275 21.0485 57.7866 21.1587 57.2839 21.1587ZM62.4185 21V14.0418H63.4239L63.5032 15.3118C63.662 14.9943 63.8692 14.7297 64.125 14.518C64.3807 14.3064 64.6894 14.1476 65.051 14.0418C65.4214 13.936 65.8358 13.8831 66.2944 13.8831V15.0472H65.6066C65.342 15.0472 65.0862 15.0825 64.8393 15.153C64.5924 15.2236 64.3675 15.3382 64.1646 15.497C63.9706 15.6557 63.8163 15.8718 63.7017 16.1451C63.587 16.4185 63.5297 16.7625 63.5297 17.177V21H62.4185Z" fill="#1D1D1D"/>
<path d="M6.65669 37.9246L10.7527 26.7246H13.2007L17.2807 37.9246H14.9927L11.9687 29.1886L8.92869 37.9246H6.65669ZM8.46469 35.3806L9.04069 33.7006H14.7367L15.2967 35.3806H8.46469ZM18.7208 37.9246V26.7246H20.8808V37.9246H18.7208ZM30.7178 38.1166C29.9071 38.1166 29.1871 37.9406 28.5578 37.5886C27.9285 37.2259 27.4378 36.7299 27.0858 36.1006C26.7338 35.4606 26.5578 34.7352 26.5578 33.9246C26.5578 33.0926 26.7338 32.3619 27.0858 31.7326C27.4378 31.1032 27.9285 30.6072 28.5578 30.2446C29.1871 29.8819 29.9071 29.7006 30.7178 29.7006C31.7525 29.7006 32.6165 29.9726 33.3098 30.5166C34.0138 31.0499 34.4618 31.7912 34.6538 32.7406H32.3658C32.2805 32.3672 32.0831 32.0739 31.7738 31.8606C31.4751 31.6472 31.1178 31.5406 30.7018 31.5406C30.3285 31.5406 29.9925 31.6366 29.6938 31.8286C29.4058 32.0206 29.1765 32.2926 29.0058 32.6446C28.8351 32.9966 28.7498 33.4179 28.7498 33.9086C28.7498 34.2712 28.7978 34.6019 28.8938 34.9006C29.0005 35.1886 29.1391 35.4392 29.3098 35.6526C29.4805 35.8552 29.6831 36.0099 29.9178 36.1166C30.1631 36.2232 30.4245 36.2766 30.7018 36.2766C30.9791 36.2766 31.2298 36.2339 31.4538 36.1486C31.6778 36.0526 31.8698 35.9139 32.0298 35.7326C32.2005 35.5512 32.3125 35.3326 32.3658 35.0766H34.6538C34.4618 36.0046 34.0138 36.7459 33.3098 37.3006C32.6058 37.8446 31.7418 38.1166 30.7178 38.1166ZM40.3249 38.1166C39.5569 38.1166 38.8636 37.9406 38.2449 37.5886C37.6369 37.2259 37.1516 36.7299 36.7889 36.1006C36.4369 35.4606 36.2609 34.7299 36.2609 33.9086C36.2609 33.0766 36.4369 32.3459 36.7889 31.7166C37.1516 31.0872 37.6423 30.5966 38.2609 30.2446C38.8796 29.8819 39.5729 29.7006 40.3409 29.7006C41.1196 29.7006 41.8129 29.8819 42.4209 30.2446C43.0396 30.5966 43.5249 31.0872 43.8769 31.7166C44.2396 32.3459 44.4209 33.0766 44.4209 33.9086C44.4209 34.7299 44.2396 35.4606 43.8769 36.1006C43.5249 36.7299 43.0396 37.2259 42.4209 37.5886C41.8023 37.9406 41.1036 38.1166 40.3249 38.1166ZM40.3249 36.2446C40.6769 36.2446 40.9916 36.1592 41.2689 35.9886C41.5569 35.8179 41.7863 35.5566 41.9569 35.2046C42.1276 34.8526 42.2129 34.4206 42.2129 33.9086C42.2129 33.3859 42.1276 32.9539 41.9569 32.6126C41.7969 32.2606 41.5729 31.9992 41.2849 31.8286C41.0076 31.6579 40.6929 31.5726 40.3409 31.5726C39.9996 31.5726 39.6849 31.6579 39.3969 31.8286C39.1089 31.9992 38.8796 32.2606 38.7089 32.6126C38.5383 32.9539 38.4529 33.3859 38.4529 33.9086C38.4529 34.4206 38.5383 34.8526 38.7089 35.2046C38.8796 35.5566 39.1036 35.8179 39.3809 35.9886C39.6689 36.1592 39.9836 36.2446 40.3249 36.2446ZM46.2826 37.9246V29.8926H48.1866L48.3466 31.2046C48.5919 30.7459 48.9386 30.3832 49.3866 30.1166C49.8452 29.8392 50.3892 29.7006 51.0186 29.7006C51.6906 29.7006 52.2559 29.8392 52.7146 30.1166C53.1732 30.3939 53.5199 30.7992 53.7546 31.3326C53.9999 31.8659 54.1226 32.5272 54.1226 33.3166V37.9246H51.9786V33.5086C51.9786 32.8686 51.8399 32.3779 51.5626 32.0366C51.2959 31.6952 50.8799 31.5246 50.3146 31.5246C49.9519 31.5246 49.6266 31.6099 49.3386 31.7806C49.0612 31.9512 48.8426 32.1966 48.6826 32.5166C48.5226 32.8259 48.4426 33.2099 48.4426 33.6686V37.9246H46.2826ZM59.4379 38.1166C58.7019 38.1166 58.0619 37.9992 57.5179 37.7646C56.9846 37.5299 56.5579 37.2099 56.2379 36.8046C55.9286 36.3886 55.7526 35.9139 55.7099 35.3806H57.8539C57.9073 35.5832 57.9979 35.7699 58.1259 35.9406C58.2539 36.1006 58.4246 36.2286 58.6379 36.3246C58.8619 36.4206 59.1179 36.4686 59.4059 36.4686C59.6939 36.4686 59.9286 36.4312 60.1099 36.3566C60.2913 36.2712 60.4246 36.1646 60.5099 36.0366C60.6059 35.8979 60.6539 35.7539 60.6539 35.6046C60.6539 35.3699 60.5899 35.1939 60.4619 35.0766C60.3339 34.9592 60.1419 34.8632 59.8859 34.7886C59.6406 34.7139 59.3473 34.6392 59.0059 34.5646C58.6326 34.4899 58.2593 34.3992 57.8859 34.2926C57.5233 34.1752 57.1926 34.0312 56.8939 33.8606C56.6059 33.6899 56.3766 33.4712 56.2059 33.2046C56.0353 32.9379 55.9499 32.6072 55.9499 32.2126C55.9499 31.7432 56.0779 31.3166 56.3339 30.9326C56.5899 30.5486 56.9633 30.2499 57.4539 30.0366C57.9446 29.8126 58.5313 29.7006 59.2139 29.7006C60.1846 29.7006 60.9526 29.9192 61.5179 30.3566C62.0939 30.7939 62.4299 31.3966 62.5259 32.1646H60.4939C60.4406 31.9086 60.3019 31.7112 60.0779 31.5726C59.8539 31.4339 59.5659 31.3646 59.2139 31.3646C58.8299 31.3646 58.5366 31.4339 58.3339 31.5726C58.1419 31.7112 58.0459 31.8872 58.0459 32.1006C58.0459 32.2499 58.1099 32.3832 58.2379 32.5006C58.3659 32.6179 58.5526 32.7192 58.7979 32.8046C59.0433 32.8792 59.3419 32.9539 59.6939 33.0286C60.3126 33.1566 60.8513 33.3006 61.3099 33.4606C61.7793 33.6206 62.1473 33.8552 62.4139 34.1646C62.6806 34.4632 62.8139 34.9006 62.8139 35.4766C62.8246 35.9886 62.6913 36.4472 62.4139 36.8526C62.1366 37.2472 61.7419 37.5566 61.2299 37.7806C60.7286 38.0046 60.1313 38.1166 59.4379 38.1166ZM67.6339 38.1166C66.9833 38.1166 66.4233 37.9832 65.9539 37.7166C65.4953 37.4392 65.1433 37.0339 64.8979 36.5006C64.6633 35.9672 64.5459 35.3112 64.5459 34.5326V29.8926H66.6899V34.3086C66.6899 34.9592 66.8233 35.4552 67.0899 35.7966C67.3673 36.1272 67.7886 36.2926 68.3539 36.2926C68.7166 36.2926 69.0366 36.2126 69.3139 36.0526C69.6019 35.8819 69.8259 35.6366 69.9859 35.3166C70.1459 34.9966 70.2259 34.6072 70.2259 34.1486V29.8926H72.3859V37.9246H70.4819L70.3219 36.6126C70.0766 37.0712 69.7246 37.4392 69.2659 37.7166C68.8179 37.9832 68.2739 38.1166 67.6339 38.1166ZM74.5013 37.9246V26.4046H76.6613V37.9246H74.5013ZM82.3673 37.9246C81.8126 37.9246 81.322 37.8392 80.8953 37.6686C80.4686 37.4872 80.138 37.1939 79.9033 36.7886C79.6686 36.3726 79.5513 35.8072 79.5513 35.0926V31.7006H78.1753V29.8926H79.5513L79.8073 27.7006H81.7113V29.8926H83.8393V31.7006H81.7113V35.1246C81.7113 35.4872 81.7913 35.7379 81.9513 35.8766C82.1113 36.0152 82.3833 36.0846 82.7673 36.0846H83.8073V37.9246H82.3673ZM88.3619 38.1166C87.6899 38.1166 87.1353 38.0099 86.6979 37.7966C86.2606 37.5726 85.9353 37.2792 85.7219 36.9166C85.5086 36.5432 85.4019 36.1379 85.4019 35.7006C85.4019 35.1992 85.5246 34.7672 85.7699 34.4046C86.0259 34.0312 86.4099 33.7379 86.9219 33.5246C87.4339 33.3112 88.0739 33.2046 88.8419 33.2046H90.8419C90.8419 32.8099 90.7886 32.4846 90.6819 32.2286C90.5753 31.9726 90.4099 31.7806 90.1859 31.6526C89.9619 31.5246 89.6633 31.4606 89.2899 31.4606C88.8846 31.4606 88.5379 31.5512 88.2499 31.7326C87.9726 31.9032 87.7966 32.1699 87.7219 32.5326H85.6259C85.6899 31.9566 85.8819 31.4606 86.2019 31.0446C86.5326 30.6179 86.9646 30.2872 87.4979 30.0526C88.0313 29.8179 88.6339 29.7006 89.3059 29.7006C90.0633 29.7006 90.7193 29.8286 91.2739 30.0846C91.8286 30.3299 92.2553 30.6979 92.5539 31.1886C92.8526 31.6686 93.0019 32.2552 93.0019 32.9486V37.9246H91.1779L90.9379 36.6926C90.8206 36.9059 90.6819 37.0979 90.5219 37.2686C90.3619 37.4392 90.1753 37.5886 89.9619 37.7166C89.7486 37.8446 89.5086 37.9406 89.2419 38.0046C88.9753 38.0792 88.6819 38.1166 88.3619 38.1166ZM88.8739 36.4526C89.1513 36.4526 89.3966 36.4046 89.6099 36.3086C89.8339 36.2019 90.0259 36.0632 90.1859 35.8926C90.3459 35.7112 90.4686 35.5086 90.5539 35.2846C90.6499 35.0499 90.7139 34.8046 90.7459 34.5486V34.5326H89.0979C88.7673 34.5326 88.4953 34.5752 88.2819 34.6606C88.0793 34.7352 87.9299 34.8472 87.8339 34.9966C87.7379 35.1459 87.6899 35.3166 87.6899 35.5086C87.6899 35.7112 87.7379 35.8819 87.8339 36.0206C87.9299 36.1592 88.0686 36.2659 88.2499 36.3406C88.4313 36.4152 88.6393 36.4526 88.8739 36.4526ZM95.0013 37.9246V29.8926H96.9053L97.0653 31.2046C97.3106 30.7459 97.6573 30.3832 98.1053 30.1166C98.564 29.8392 99.108 29.7006 99.7373 29.7006C100.409 29.7006 100.975 29.8392 101.433 30.1166C101.892 30.3939 102.239 30.7992 102.473 31.3326C102.719 31.8659 102.841 32.5272 102.841 33.3166V37.9246H100.697V33.5086C100.697 32.8686 100.559 32.3779 100.281 32.0366C100.015 31.6952 99.5986 31.5246 99.0333 31.5246C98.6706 31.5246 98.3453 31.6099 98.0573 31.7806C97.78 31.9512 97.5613 32.1966 97.4013 32.5166C97.2413 32.8259 97.1613 33.2099 97.1613 33.6686V37.9246H95.0013ZM108.477 37.9246C107.922 37.9246 107.431 37.8392 107.005 37.6686C106.578 37.4872 106.247 37.1939 106.013 36.7886C105.778 36.3726 105.661 35.8072 105.661 35.0926V31.7006H104.285V29.8926H105.661L105.917 27.7006H107.821V29.8926H109.949V31.7006H107.821V35.1246C107.821 35.4872 107.901 35.7379 108.061 35.8766C108.221 36.0152 108.493 36.0846 108.877 36.0846H109.917V37.9246H108.477Z" fill="#1D1D1D"/>
<defs>
<linearGradient id="paint0_linear_22_1320" x1="142.499" y1="0" x2="142.499" y2="115" gradientUnits="userSpaceOnUse">
<stop stop-color="white"/>
<stop offset="1" stop-color="#F7EDFF"/>
</linearGradient>
<linearGradient id="paint1_linear_22_1320" x1="142.499" y1="0" x2="142.499" y2="115" gradientUnits="userSpaceOnUse">
<stop stop-color="white"/>
<stop offset="1" stop-color="#F7EDFF"/>
</linearGradient>
<linearGradient id="paint2_linear_22_1320" x1="158.468" y1="-9.0352" x2="159.031" y2="121.426" gradientUnits="userSpaceOnUse">
<stop stop-color="#AA80F9"/>
<stop offset="1" stop-color="#6165D7"/>
</linearGradient>
<linearGradient id="paint3_linear_22_1320" x1="158.725" y1="44.4457" x2="158.803" y2="62.5943" gradientUnits="userSpaceOnUse">
<stop stop-color="#444B8C"/>
<stop offset="1" stop-color="#26264F"/>
</linearGradient>
<linearGradient id="paint4_linear_22_1320" x1="160.533" y1="-8.8258" x2="161.095" y2="121.297" gradientUnits="userSpaceOnUse">
<stop stop-color="#AA80F9"/>
<stop offset="1" stop-color="#6165D7"/>
</linearGradient>
<linearGradient id="paint5_linear_22_1320" x1="135.922" y1="34.5972" x2="147.585" y2="34.5972" gradientUnits="userSpaceOnUse">
<stop stop-color="#444B8C"/>
<stop offset="1" stop-color="#26264F"/>
</linearGradient>
<linearGradient id="paint6_linear_22_1320" x1="137.557" y1="36.2963" x2="178.582" y2="36.2963" gradientUnits="userSpaceOnUse">
<stop stop-color="#AA80F9"/>
<stop offset="1" stop-color="#6165D7"/>
</linearGradient>
<linearGradient id="paint7_linear_22_1320" x1="165.69" y1="37.9887" x2="140.261" y2="37.9887" gradientUnits="userSpaceOnUse">
<stop stop-color="#444B8C"/>
<stop offset="1" stop-color="#26264F"/>
</linearGradient>
<linearGradient id="paint8_linear_22_1320" x1="165.194" y1="-78.5484" x2="166.076" y2="125.849" gradientUnits="userSpaceOnUse">
<stop stop-color="#AA80F9"/>
<stop offset="1" stop-color="#6165D7"/>
</linearGradient>
<linearGradient id="paint9_linear_22_1320" x1="169.951" y1="37.5549" x2="181.615" y2="37.5549" gradientUnits="userSpaceOnUse">
<stop stop-color="#444B8C"/>
<stop offset="1" stop-color="#26264F"/>
</linearGradient>
<linearGradient id="paint10_linear_22_1320" x1="167.708" y1="73.5201" x2="164.085" y2="64.881" gradientUnits="userSpaceOnUse">
<stop stop-color="#BF4B0C"/>
<stop offset="0.29" stop-color="#CD5718"/>
<stop offset="0.83" stop-color="#F17937"/>
<stop offset="1" stop-color="#FF8643"/>
</linearGradient>
<linearGradient id="paint11_linear_22_1320" x1="169.694" y1="92.4709" x2="162.761" y2="76.5146" gradientUnits="userSpaceOnUse">
<stop stop-color="#BF4B0C"/>
<stop offset="0.29" stop-color="#CD5718"/>
<stop offset="0.83" stop-color="#F17937"/>
<stop offset="1" stop-color="#FF8643"/>
</linearGradient>
<linearGradient id="paint12_linear_22_1320" x1="250.727" y1="113.245" x2="285.003" y2="113.245" gradientUnits="userSpaceOnUse">
<stop stop-color="white"/>
<stop offset="0.39" stop-color="#F4EFF9"/>
<stop offset="1" stop-color="#DFCEED"/>
</linearGradient>
<linearGradient id="paint13_linear_22_1320" x1="250.153" y1="60.1056" x2="224.386" y2="58.2451" gradientUnits="userSpaceOnUse">
<stop stop-color="#BF4B0C"/>
<stop offset="0.29" stop-color="#CD5718"/>
<stop offset="0.83" stop-color="#F17937"/>
<stop offset="1" stop-color="#FF8643"/>
</linearGradient>
<linearGradient id="paint14_linear_22_1320" x1="238.051" y1="59.2315" x2="224.386" y2="58.2448" gradientUnits="userSpaceOnUse">
<stop stop-color="#FFA16E"/>
<stop offset="0.35" stop-color="#FFAA7B"/>
<stop offset="1" stop-color="#FFC2A1"/>
</linearGradient>
<linearGradient id="paint15_linear_22_1320" x1="219.823" y1="189.596" x2="219.823" y2="-3.66927" gradientUnits="userSpaceOnUse">
<stop stop-color="white"/>
<stop offset="0.39" stop-color="#F4EFF9"/>
<stop offset="1" stop-color="#DFCEED"/>
</linearGradient>
<linearGradient id="paint16_linear_22_1320" x1="224.923" y1="128.594" x2="224.923" y2="36.2335" gradientUnits="userSpaceOnUse">
<stop stop-color="white"/>
<stop offset="0.39" stop-color="#F4EFF9"/>
<stop offset="1" stop-color="#DFCEED"/>
</linearGradient>
<linearGradient id="paint17_linear_22_1320" x1="224.66" y1="67.0932" x2="273.32" y2="67.0932" gradientUnits="userSpaceOnUse">
<stop stop-color="#291003"/>
<stop offset="0.29" stop-color="#371808"/>
<stop offset="0.83" stop-color="#5B2E16"/>
<stop offset="1" stop-color="#69371C"/>
</linearGradient>
<clipPath id="clip0_22_1320">
<rect width="50.6164" height="60.3808" fill="white" transform="translate(159.198 2.69226)"/>
</clipPath>
<clipPath id="clip1_22_1320">
<rect width="45.6927" height="55.7807" fill="white" transform="translate(135.922 19.3085)"/>
</clipPath>
</defs>
</svg>
