<svg width="60" height="60" viewBox="0 0 60 60" fill="none" xmlns="http://www.w3.org/2000/svg">
<rect opacity="0.15" width="60" height="60" rx="6" fill="#FCDC02"/>
<g clip-path="url(#clip0_25_8)">
<path d="M40 23H35V22C35 20.897 34.1031 20 33 20H27C25.897 20 25 20.897 25 22V23H20C18.897 23 18 23.897 18 25V28C18 29.1031 18.897 30 20 30H28V29.5C28 29.2236 28.2237 29 28.5 29H31.5C31.7764 29 32.0001 29.2236 32.0001 29.5V30H40.0001C41.103 30 42 29.1031 42 28V25C42 23.897 41.103 23 40 23ZM33 23H27V22H33V23Z" fill="#FCDC02"/>
<path d="M41.7226 30.5396C41.5522 30.4552 41.3486 30.4747 41.1982 30.5889C40.8427 30.858 40.4287 31.0001 39.9999 31.0001H32V32.5001C32 32.7764 31.7764 33.0001 31.5 33.0001H28.5C28.2236 33.0001 28 32.7764 28 32.5001V31.0001H20C19.5713 31.0001 19.1573 30.858 18.8018 30.5889C18.6509 30.4737 18.4478 30.4542 18.2773 30.5396C18.1074 30.6241 18 30.7974 18 30.9874V38.0001C18 39.1031 18.897 40.0001 20 40.0001H40C41.103 40.0001 42 39.1032 42 38.0001V30.9874C42 30.7974 41.8926 30.6241 41.7226 30.5396Z" fill="#FCDC02"/>
</g>
<defs>
<clipPath id="clip0_25_8">
<rect width="24" height="24" fill="white" transform="translate(18 18)"/>
</clipPath>
</defs>
</svg>
