<svg width="280" height="115" viewBox="0 0 280 115" fill="none" xmlns="http://www.w3.org/2000/svg">
<rect x="0.45396" y="0.45396" width="279.092" height="114.092" rx="8.54604" fill="url(#paint0_linear_41_4835)" stroke="url(#paint1_linear_41_4835)" stroke-width="0.90792"/>
<path d="M14.912 82.216C13.652 82.216 12.566 81.946 11.654 81.406C10.742 80.854 10.04 80.092 9.548 79.12C9.056 78.136 8.81 77.002 8.81 75.718C8.81 74.434 9.056 73.3 9.548 72.316C10.04 71.332 10.742 70.564 11.654 70.012C12.566 69.46 13.652 69.184 14.912 69.184C16.436 69.184 17.684 69.562 18.656 70.318C19.64 71.074 20.252 72.142 20.492 73.522H17.81C17.666 72.85 17.342 72.328 16.838 71.956C16.346 71.572 15.698 71.38 14.894 71.38C14.138 71.38 13.49 71.56 12.95 71.92C12.41 72.268 11.996 72.766 11.708 73.414C11.432 74.05 11.294 74.818 11.294 75.718C11.294 76.606 11.432 77.374 11.708 78.022C11.996 78.67 12.41 79.168 12.95 79.516C13.49 79.864 14.138 80.038 14.894 80.038C15.698 80.038 16.346 79.864 16.838 79.516C17.33 79.156 17.654 78.658 17.81 78.022H20.492C20.252 79.33 19.64 80.356 18.656 81.1C17.684 81.844 16.436 82.216 14.912 82.216ZM25.8606 82.216C25.1166 82.216 24.4806 82.066 23.9526 81.766C23.4366 81.454 23.0406 80.998 22.7646 80.398C22.5006 79.786 22.3686 79.036 22.3686 78.148V72.982H24.7806V77.914C24.7806 78.646 24.9306 79.204 25.2306 79.588C25.5426 79.972 26.0166 80.164 26.6526 80.164C27.0606 80.164 27.4266 80.068 27.7506 79.876C28.0746 79.684 28.3266 79.408 28.5066 79.048C28.6866 78.688 28.7766 78.25 28.7766 77.734V72.982H31.2066V82H29.0646L28.8846 80.524C28.6086 81.028 28.2126 81.436 27.6966 81.748C27.1806 82.06 26.5686 82.216 25.8606 82.216ZM37.2769 82.216C36.4609 82.216 35.7469 82.084 35.1349 81.82C34.5229 81.556 34.0369 81.196 33.6769 80.74C33.3289 80.272 33.1249 79.738 33.0649 79.138H35.4949C35.5549 79.366 35.6569 79.576 35.8009 79.768C35.9449 79.948 36.1369 80.092 36.3769 80.2C36.6289 80.308 36.9169 80.362 37.2409 80.362C37.5649 80.362 37.8289 80.32 38.0329 80.236C38.2369 80.14 38.3869 80.02 38.4829 79.876C38.5909 79.72 38.6449 79.558 38.6449 79.39C38.6449 79.138 38.5669 78.946 38.4109 78.814C38.2669 78.682 38.0569 78.574 37.7809 78.49C37.5049 78.406 37.1689 78.322 36.7729 78.238C36.3649 78.142 35.9569 78.034 35.5489 77.914C35.1409 77.794 34.7689 77.638 34.4329 77.446C34.1089 77.254 33.8449 77.014 33.6409 76.726C33.4489 76.426 33.3529 76.054 33.3529 75.61C33.3529 75.07 33.4969 74.59 33.7849 74.17C34.0729 73.738 34.4929 73.396 35.0449 73.144C35.5969 72.892 36.2569 72.766 37.0249 72.766C38.1169 72.766 38.9809 73.018 39.6169 73.522C40.2529 74.014 40.6309 74.686 40.7509 75.538H38.4649C38.3929 75.262 38.2309 75.046 37.9789 74.89C37.7389 74.722 37.4149 74.638 37.0069 74.638C36.5869 74.638 36.2629 74.716 36.0349 74.872C35.8189 75.028 35.7109 75.226 35.7109 75.466C35.7109 75.634 35.7829 75.784 35.9269 75.916C36.0829 76.048 36.2989 76.162 36.5749 76.258C36.8509 76.342 37.1809 76.426 37.5649 76.51C38.2489 76.654 38.8489 76.816 39.3649 76.996C39.8929 77.176 40.3069 77.44 40.6069 77.788C40.9189 78.124 41.0749 78.61 41.0749 79.246C41.0869 79.822 40.9369 80.338 40.6249 80.794C40.3129 81.238 39.8689 81.586 39.2929 81.838C38.7289 82.09 38.0569 82.216 37.2769 82.216ZM46.9181 82C46.2821 82 45.7241 81.904 45.2441 81.712C44.7761 81.508 44.4101 81.178 44.1461 80.722C43.8821 80.254 43.7501 79.618 43.7501 78.814V75.016H42.2021V72.982H43.7501L44.0201 70.534H46.1801V72.982H48.5561V75.016H46.1801V78.85C46.1801 79.258 46.2701 79.54 46.4501 79.696C46.6301 79.852 46.9361 79.93 47.3681 79.93H48.5201V82H46.9181ZM54.64 82.216C53.776 82.216 52.996 82.018 52.3 81.622C51.616 81.214 51.07 80.656 50.662 79.948C50.266 79.24 50.068 78.424 50.068 77.5C50.068 76.564 50.266 75.742 50.662 75.034C51.07 74.326 51.622 73.774 52.318 73.378C53.014 72.97 53.794 72.766 54.658 72.766C55.522 72.766 56.302 72.97 56.998 73.378C57.694 73.774 58.24 74.326 58.636 75.034C59.044 75.742 59.248 76.564 59.248 77.5C59.248 78.424 59.044 79.24 58.636 79.948C58.228 80.656 57.676 81.214 56.98 81.622C56.296 82.018 55.516 82.216 54.64 82.216ZM54.64 80.11C55.036 80.11 55.39 80.014 55.702 79.822C56.026 79.63 56.284 79.342 56.476 78.958C56.668 78.562 56.764 78.076 56.764 77.5C56.764 76.912 56.668 76.426 56.476 76.042C56.296 75.658 56.044 75.37 55.72 75.178C55.408 74.974 55.054 74.872 54.658 74.872C54.274 74.872 53.92 74.974 53.596 75.178C53.272 75.37 53.014 75.658 52.822 76.042C52.63 76.426 52.534 76.912 52.534 77.5C52.534 78.076 52.63 78.562 52.822 78.958C53.014 79.342 53.266 79.63 53.578 79.822C53.902 80.014 54.256 80.11 54.64 80.11ZM61.3247 82V72.982H63.4487L63.6467 74.188C63.9347 73.756 64.3127 73.414 64.7807 73.162C65.2607 72.898 65.8127 72.766 66.4367 72.766C66.8927 72.766 67.3007 72.826 67.6607 72.946C68.0327 73.066 68.3567 73.24 68.6327 73.468C68.9087 73.696 69.1427 73.984 69.3347 74.332C69.6707 73.852 70.1087 73.474 70.6487 73.198C71.1887 72.91 71.7827 72.766 72.4307 72.766C73.2107 72.766 73.8647 72.928 74.3927 73.252C74.9327 73.564 75.3407 74.026 75.6167 74.638C75.8927 75.238 76.0307 75.976 76.0307 76.852V82H73.6187V77.086C73.6187 76.354 73.4747 75.796 73.1867 75.412C72.8987 75.016 72.4607 74.818 71.8727 74.818C71.4767 74.818 71.1287 74.92 70.8287 75.124C70.5287 75.316 70.2947 75.592 70.1267 75.952C69.9707 76.312 69.8927 76.75 69.8927 77.266V82H67.4627V77.086C67.4627 76.354 67.3187 75.796 67.0307 75.412C66.7427 75.016 66.2927 74.818 65.6807 74.818C65.3087 74.818 64.9727 74.92 64.6727 75.124C64.3847 75.316 64.1567 75.592 63.9887 75.952C63.8327 76.312 63.7547 76.75 63.7547 77.266V82H61.3247ZM78.3416 82V72.982H80.7716V82H78.3416ZM79.5656 71.722C79.1216 71.722 78.7616 71.596 78.4856 71.344C78.2096 71.08 78.0716 70.75 78.0716 70.354C78.0716 69.958 78.2096 69.634 78.4856 69.382C78.7616 69.118 79.1216 68.986 79.5656 68.986C80.0096 68.986 80.3696 69.118 80.6456 69.382C80.9336 69.634 81.0776 69.958 81.0776 70.354C81.0776 70.75 80.9336 71.08 80.6456 71.344C80.3696 71.596 80.0096 71.722 79.5656 71.722ZM82.6155 82V80.056L87.1515 74.998H82.6695V72.982H89.9415V74.944L85.3335 79.984H90.0315V82H82.6155ZM96.337 82.216C95.425 82.216 94.615 82.024 93.907 81.64C93.211 81.244 92.665 80.698 92.269 80.002C91.885 79.306 91.693 78.496 91.693 77.572C91.693 76.636 91.885 75.808 92.269 75.088C92.653 74.368 93.193 73.804 93.889 73.396C94.597 72.976 95.413 72.766 96.337 72.766C97.237 72.766 98.023 72.964 98.695 73.36C99.367 73.744 99.889 74.272 100.261 74.944C100.645 75.616 100.837 76.378 100.837 77.23C100.837 77.35 100.837 77.482 100.837 77.626C100.837 77.77 100.825 77.926 100.801 78.094H93.421V76.6H98.371C98.347 76.036 98.143 75.586 97.759 75.25C97.387 74.914 96.919 74.746 96.355 74.746C95.935 74.746 95.551 74.842 95.203 75.034C94.855 75.214 94.579 75.496 94.375 75.88C94.183 76.252 94.087 76.726 94.087 77.302V77.824C94.087 78.316 94.177 78.742 94.357 79.102C94.549 79.462 94.813 79.744 95.149 79.948C95.497 80.14 95.887 80.236 96.319 80.236C96.763 80.236 97.129 80.14 97.417 79.948C97.717 79.756 97.945 79.504 98.101 79.192H100.585C100.417 79.756 100.129 80.266 99.721 80.722C99.325 81.178 98.839 81.544 98.263 81.82C97.699 82.084 97.057 82.216 96.337 82.216ZM106.859 82.216C106.031 82.216 105.287 82.012 104.627 81.604C103.979 81.196 103.463 80.638 103.079 79.93C102.707 79.21 102.521 78.4 102.521 77.5C102.521 76.588 102.707 75.778 103.079 75.07C103.463 74.35 103.985 73.786 104.645 73.378C105.317 72.97 106.067 72.766 106.895 72.766C107.555 72.766 108.131 72.892 108.623 73.144C109.115 73.384 109.511 73.72 109.811 74.152V69.04H112.241V82H110.081L109.811 80.758C109.619 81.01 109.391 81.25 109.127 81.478C108.863 81.706 108.545 81.886 108.173 82.018C107.801 82.15 107.363 82.216 106.859 82.216ZM107.435 80.092C107.915 80.092 108.335 79.984 108.695 79.768C109.067 79.54 109.355 79.234 109.559 78.85C109.763 78.454 109.865 78.004 109.865 77.5C109.865 76.984 109.763 76.534 109.559 76.15C109.355 75.754 109.067 75.448 108.695 75.232C108.323 75.004 107.897 74.89 107.417 74.89C106.961 74.89 106.547 75.004 106.175 75.232C105.803 75.448 105.509 75.754 105.293 76.15C105.089 76.534 104.987 76.978 104.987 77.482C104.987 77.986 105.089 78.436 105.293 78.832C105.509 79.228 105.803 79.54 106.175 79.768C106.547 79.984 106.967 80.092 107.435 80.092ZM118.048 82L122.656 69.4H125.41L130 82H127.426L124.024 72.172L120.604 82H118.048ZM120.082 79.138L120.73 77.248H127.138L127.768 79.138H120.082ZM131.62 82V69.4H134.05V82H131.62ZM14.912 102.216C13.652 102.216 12.566 101.946 11.654 101.406C10.742 100.854 10.04 100.092 9.548 99.12C9.056 98.136 8.81 97.002 8.81 95.718C8.81 94.434 9.056 93.3 9.548 92.316C10.04 91.332 10.742 90.564 11.654 90.012C12.566 89.46 13.652 89.184 14.912 89.184C16.436 89.184 17.684 89.562 18.656 90.318C19.64 91.074 20.252 92.142 20.492 93.522H17.81C17.666 92.85 17.342 92.328 16.838 91.956C16.346 91.572 15.698 91.38 14.894 91.38C14.138 91.38 13.49 91.56 12.95 91.92C12.41 92.268 11.996 92.766 11.708 93.414C11.432 94.05 11.294 94.818 11.294 95.718C11.294 96.606 11.432 97.374 11.708 98.022C11.996 98.67 12.41 99.168 12.95 99.516C13.49 99.864 14.138 100.038 14.894 100.038C15.698 100.038 16.346 99.864 16.838 99.516C17.33 99.156 17.654 98.658 17.81 98.022H20.492C20.252 99.33 19.64 100.356 18.656 101.1C17.684 101.844 16.436 102.216 14.912 102.216ZM22.4946 102V89.04H24.9246V94.332C25.2126 93.852 25.6086 93.474 26.1126 93.198C26.6166 92.91 27.1986 92.766 27.8586 92.766C28.6026 92.766 29.2326 92.928 29.7486 93.252C30.2646 93.564 30.6546 94.026 30.9186 94.638C31.1946 95.238 31.3326 95.982 31.3326 96.87V102H28.9206V97.104C28.9206 96.372 28.7706 95.808 28.4706 95.412C28.1706 95.016 27.6966 94.818 27.0486 94.818C26.6526 94.818 26.2866 94.92 25.9506 95.124C25.6266 95.316 25.3746 95.592 25.1946 95.952C25.0146 96.312 24.9246 96.756 24.9246 97.284V102H22.4946ZM36.6464 102.216C35.8904 102.216 35.2664 102.096 34.7744 101.856C34.2824 101.604 33.9164 101.274 33.6764 100.866C33.4364 100.446 33.3164 99.99 33.3164 99.498C33.3164 98.946 33.4544 98.46 33.7304 98.04C34.0184 97.62 34.4504 97.296 35.0264 97.068C35.6024 96.828 36.3224 96.708 37.1864 96.708H39.4364C39.4364 96.264 39.3764 95.898 39.2564 95.61C39.1364 95.322 38.9444 95.106 38.6804 94.962C38.4284 94.818 38.0984 94.746 37.6904 94.746C37.2344 94.746 36.8444 94.848 36.5204 95.052C36.1964 95.256 35.9984 95.562 35.9264 95.97H33.5504C33.6224 95.31 33.8384 94.746 34.1984 94.278C34.5704 93.798 35.0564 93.426 35.6564 93.162C36.2684 92.898 36.9524 92.766 37.7084 92.766C38.5604 92.766 39.2984 92.91 39.9224 93.198C40.5464 93.486 41.0264 93.9 41.3624 94.44C41.6984 94.98 41.8664 95.646 41.8664 96.438V102H39.8144L39.5444 100.614C39.4124 100.854 39.2564 101.07 39.0764 101.262C38.8964 101.454 38.6864 101.622 38.4464 101.766C38.2064 101.91 37.9364 102.018 37.6364 102.09C37.3364 102.174 37.0064 102.216 36.6464 102.216ZM37.2224 100.344C37.5344 100.344 37.8104 100.29 38.0504 100.182C38.3024 100.062 38.5184 99.906 38.6984 99.714C38.8784 99.51 39.0164 99.282 39.1124 99.03C39.2204 98.766 39.2924 98.49 39.3284 98.202V98.184H37.4744C37.1024 98.184 36.7964 98.232 36.5564 98.328C36.3284 98.424 36.1544 98.556 36.0344 98.724C35.9264 98.88 35.8724 99.066 35.8724 99.282C35.8724 99.51 35.9264 99.702 36.0344 99.858C36.1544 100.014 36.3164 100.134 36.5204 100.218C36.7244 100.302 36.9584 100.344 37.2224 100.344ZM48.0783 102C47.4423 102 46.8843 101.904 46.4043 101.712C45.9363 101.508 45.5703 101.178 45.3063 100.722C45.0423 100.254 44.9103 99.618 44.9103 98.814V95.016H43.3623V92.982H44.9103L45.1803 90.534H47.3403V92.982H49.7163V95.016H47.3403V98.85C47.3403 99.258 47.4303 99.54 47.6103 99.696C47.7903 99.852 48.0963 99.93 48.5283 99.93H49.6803V102H48.0783ZM57.0906 102.216C56.6346 102.216 56.2206 102.156 55.8486 102.036C55.4886 101.928 55.1646 101.772 54.8766 101.568C54.6006 101.352 54.3606 101.106 54.1566 100.83L53.9046 102H51.7446V89.04H54.1746V94.242C54.4506 93.834 54.8226 93.486 55.2906 93.198C55.7706 92.91 56.3706 92.766 57.0906 92.766C57.9306 92.766 58.6746 92.976 59.3226 93.396C59.9826 93.804 60.4986 94.362 60.8706 95.07C61.2546 95.778 61.4466 96.588 61.4466 97.5C61.4466 98.4 61.2546 99.21 60.8706 99.93C60.4986 100.638 59.9826 101.196 59.3226 101.604C58.6746 102.012 57.9306 102.216 57.0906 102.216ZM56.5326 100.092C57.0126 100.092 57.4326 99.984 57.7926 99.768C58.1646 99.552 58.4526 99.252 58.6566 98.868C58.8726 98.472 58.9806 98.016 58.9806 97.5C58.9806 96.996 58.8726 96.546 58.6566 96.15C58.4526 95.754 58.1646 95.448 57.7926 95.232C57.4326 95.004 57.0126 94.89 56.5326 94.89C56.0646 94.89 55.6446 95.004 55.2726 95.232C54.9006 95.448 54.6126 95.754 54.4086 96.15C54.2046 96.534 54.1026 96.984 54.1026 97.5C54.1026 98.004 54.2046 98.454 54.4086 98.85C54.6126 99.246 54.9006 99.552 55.2726 99.768C55.6446 99.984 56.0646 100.092 56.5326 100.092ZM67.8236 102.216C66.9596 102.216 66.1796 102.018 65.4836 101.622C64.7996 101.214 64.2536 100.656 63.8456 99.948C63.4496 99.24 63.2516 98.424 63.2516 97.5C63.2516 96.564 63.4496 95.742 63.8456 95.034C64.2536 94.326 64.8056 93.774 65.5016 93.378C66.1976 92.97 66.9776 92.766 67.8416 92.766C68.7056 92.766 69.4856 92.97 70.1816 93.378C70.8776 93.774 71.4236 94.326 71.8196 95.034C72.2276 95.742 72.4316 96.564 72.4316 97.5C72.4316 98.424 72.2276 99.24 71.8196 99.948C71.4116 100.656 70.8596 101.214 70.1636 101.622C69.4796 102.018 68.6996 102.216 67.8236 102.216ZM67.8236 100.11C68.2196 100.11 68.5736 100.014 68.8856 99.822C69.2096 99.63 69.4676 99.342 69.6596 98.958C69.8516 98.562 69.9476 98.076 69.9476 97.5C69.9476 96.912 69.8516 96.426 69.6596 96.042C69.4796 95.658 69.2276 95.37 68.9036 95.178C68.5916 94.974 68.2376 94.872 67.8416 94.872C67.4576 94.872 67.1036 94.974 66.7796 95.178C66.4556 95.37 66.1976 95.658 66.0056 96.042C65.8136 96.426 65.7176 96.912 65.7176 97.5C65.7176 98.076 65.8136 98.562 66.0056 98.958C66.1976 99.342 66.4496 99.63 66.7616 99.822C67.0856 100.014 67.4396 100.11 67.8236 100.11ZM78.2248 102C77.5888 102 77.0308 101.904 76.5508 101.712C76.0828 101.508 75.7168 101.178 75.4528 100.722C75.1888 100.254 75.0568 99.618 75.0568 98.814V95.016H73.5088V92.982H75.0568L75.3268 90.534H77.4868V92.982H79.8628V95.016H77.4868V98.85C77.4868 99.258 77.5768 99.54 77.7568 99.696C77.9368 99.852 78.2428 99.93 78.6748 99.93H79.8268V102H78.2248Z" fill="white"/>
<mask id="mask0_41_4835" style="mask-type:alpha" maskUnits="userSpaceOnUse" x="152" y="0" width="127" height="115">
<rect x="152.454" y="0.45396" width="126.092" height="114.092" rx="8.54604" fill="url(#paint2_linear_41_4835)" stroke="url(#paint3_linear_41_4835)" stroke-width="0.90792"/>
</mask>
<g mask="url(#mask0_41_4835)">
<g style="mix-blend-mode:luminosity">
<path d="M240.634 143.775C260.183 138.491 272.655 121.496 268.489 105.816C264.324 90.1355 245.1 81.7075 225.551 86.9914C206.002 92.2752 193.531 109.27 197.696 124.95C201.861 140.631 221.086 149.059 240.634 143.775Z" fill="url(#paint4_linear_41_4835)"/>
<path d="M239.255 138.576C255.187 134.27 265.491 120.951 262.27 108.827C259.05 96.7024 243.524 90.3645 227.592 94.6706C211.66 98.9766 201.356 112.296 204.577 124.42C207.797 136.544 223.323 142.882 239.255 138.576Z" fill="url(#paint5_linear_41_4835)"/>
<path d="M238.921 137.317C254.021 133.235 263.849 120.844 260.873 109.64C257.897 98.4358 243.243 92.6616 228.143 96.7429C213.043 100.824 203.215 113.215 206.191 124.419C209.167 135.624 223.821 141.398 238.921 137.317Z" fill="url(#paint6_linear_41_4835)"/>
<path style="mix-blend-mode:color-dodge" d="M241.437 125.899C242.701 114.951 234.915 105.079 224.047 103.85C213.18 102.62 203.345 110.499 202.082 121.447C200.818 132.395 208.604 142.266 219.472 143.496C230.339 144.725 240.173 136.847 241.437 125.899Z" fill="url(#paint7_radial_41_4835)"/>
<path d="M271.77 58.2237C272.294 60.1941 271.125 62.218 269.157 62.7497C267.189 63.2815 265.173 62.1179 264.65 60.1474C264.126 58.177 265.294 56.1531 267.263 55.6214C269.231 55.0896 271.246 56.2532 271.77 58.2237Z" fill="url(#paint8_radial_41_4835)"/>
<path d="M187.734 93.4073C188.011 94.4505 187.39 95.5268 186.348 95.8084C185.306 96.0899 184.234 95.471 183.957 94.4279C183.68 93.3847 184.301 92.3084 185.343 92.0268C186.385 91.7453 187.457 92.3641 187.734 93.4073Z" fill="url(#paint9_radial_41_4835)"/>
<path d="M222.867 95.6221C224.329 95.2272 225.832 96.0946 226.221 97.558C226.609 99.0213 225.738 100.53 224.277 100.925C222.815 101.32 221.312 100.452 220.924 98.9891C220.535 97.5257 221.406 96.017 222.867 95.6221Z" fill="url(#paint10_radial_41_4835)"/>
<path d="M170.154 53.8433C170.302 54.4011 169.972 54.9715 169.415 55.122C168.858 55.2726 168.29 54.9446 168.142 54.3868C167.994 53.829 168.323 53.2587 168.88 53.1081C169.437 52.9576 170.005 53.2855 170.154 53.8433Z" fill="url(#paint11_radial_41_4835)"/>
<g style="mix-blend-mode:overlay">
<path d="M260.618 69.0854C269.35 71.3175 278.057 73.6574 286.621 76.4782C288.757 77.1962 290.884 77.9634 292.966 78.8279C294.006 79.2684 295.042 79.7253 296.036 80.2866C296.536 80.5626 297.021 80.8735 297.46 81.298C297.561 81.4179 297.675 81.5266 297.743 81.6945C297.822 81.8439 297.867 82.0721 297.788 82.2718C297.6 82.6717 297.258 82.7563 296.986 82.8687C295.832 83.1959 294.699 83.1917 293.563 83.204C292.43 83.1999 291.295 83.1576 290.166 83.0825C287.911 82.9394 285.666 82.7162 283.418 82.4548C274.456 81.4016 265.555 79.9054 256.686 78.2995C247.814 76.6791 238.975 74.8944 230.168 72.9928C221.365 71.0511 212.591 68.9852 203.848 66.7714C195.11 64.5485 186.403 62.2086 177.788 59.5416C173.483 58.1916 169.193 56.8069 165.017 55.0654C163.977 54.6249 162.946 54.1589 161.952 53.5976C161.456 53.3051 160.962 53.0198 160.536 52.5842C160.429 52.4735 160.327 52.3536 160.247 52.1969C160.163 52.0567 160.111 51.8304 160.184 51.6399C160.358 51.2439 160.699 51.1284 160.968 51.0324C162.12 50.698 163.257 50.7166 164.391 50.6971C165.524 50.7013 166.654 50.7527 167.784 50.8351C172.291 51.1685 176.757 51.7845 181.22 52.4478C185.678 53.1204 190.119 53.875 194.557 54.677C190.113 53.9388 185.656 53.2426 181.19 52.6266C176.728 52.0251 172.249 51.4748 167.757 51.1993C166.63 51.1314 165.508 51.0779 164.393 51.0844C163.282 51.1053 162.128 51.107 161.101 51.4154C160.848 51.4838 160.616 51.6318 160.569 51.7763C160.502 51.903 160.656 52.1329 160.828 52.3114C161.196 52.6772 161.685 52.9717 162.161 53.2464C163.128 53.7918 164.155 54.2434 165.193 54.6766C169.344 56.3858 173.645 57.7522 177.942 59.0732C186.553 61.6949 195.273 63.9927 204.006 66.1703C212.747 68.3459 221.531 70.3625 230.333 72.2733C239.129 74.217 247.953 76.0364 256.806 77.7008C265.663 79.3488 274.543 80.8818 283.486 81.979C285.719 82.2443 287.959 82.4767 290.201 82.6309C291.323 82.708 292.445 82.7614 293.564 82.7695C294.676 82.7558 295.824 82.756 296.856 82.4693C297.091 82.3904 297.36 82.2635 297.399 82.1209C297.461 82.0034 297.332 81.7822 297.161 81.6036C296.792 81.2378 296.323 80.9302 295.842 80.6648C294.88 80.1101 293.853 79.6585 292.821 79.2161C290.753 78.3477 288.636 77.5857 286.508 76.8421C277.999 73.9058 269.318 71.4581 260.624 69.1071L260.618 69.0854Z" fill="white"/>
</g>
<g style="mix-blend-mode:overlay">
<path d="M202.67 84.7428C196.214 91.0789 189.834 97.4954 183.816 104.256C182.322 105.955 180.861 107.692 179.486 109.49C178.804 110.396 178.133 111.314 177.551 112.301C177.255 112.792 176.988 113.306 176.819 113.895C176.791 114.05 176.746 114.202 176.77 114.381C176.776 114.55 176.85 114.771 177.018 114.904C177.379 115.155 177.717 115.056 178.009 115.016C179.17 114.718 180.149 114.143 181.139 113.581C182.118 113.006 183.08 112.397 184.02 111.763C185.902 110.502 187.736 109.177 189.553 107.817C196.792 102.386 203.759 96.6025 210.643 90.7402C217.524 84.8634 224.293 78.8615 230.978 72.7738C237.638 66.6539 244.212 60.4411 250.686 54.1156C257.152 47.7848 263.532 41.3684 269.671 34.7146C272.729 31.3752 275.758 28.0128 278.511 24.3991C279.193 23.4936 279.855 22.5702 280.437 21.5829C280.722 21.0793 281.009 20.583 281.161 19.991C281.199 19.8412 281.228 19.6861 281.22 19.5099C281.223 19.3462 281.156 19.1238 280.998 18.9959C280.651 18.7406 280.298 18.8127 280.017 18.8653C278.854 19.1562 277.879 19.7455 276.887 20.3005C275.908 20.8753 274.955 21.4896 274.017 22.1309C270.279 24.6922 266.717 27.4774 263.18 30.3021C259.653 33.1321 256.182 36.0247 252.736 38.9569C256.219 36.0768 259.733 33.227 263.295 30.4418C266.861 27.671 270.468 24.9359 274.221 22.4325C275.163 21.8057 276.109 21.1934 277.077 20.637C278.05 20.095 279.05 19.5144 280.092 19.2639C280.345 19.1955 280.62 19.2067 280.732 19.3082C280.853 19.3841 280.833 19.6608 280.773 19.902C280.636 20.4046 280.358 20.9061 280.082 21.3841C279.515 22.3438 278.85 23.2527 278.166 24.1511C275.418 27.7246 272.371 31.0765 269.305 34.387C263.147 40.9992 256.743 47.3834 250.252 53.6747C243.76 59.966 237.153 66.1412 230.478 72.2341C223.824 78.3521 217.084 84.3771 210.243 90.2823C203.39 96.1749 196.459 101.98 189.259 107.439C187.456 108.795 185.632 110.125 183.766 111.39C182.833 112.022 181.887 112.634 180.923 113.205C179.952 113.754 178.959 114.333 177.923 114.605C177.68 114.655 177.385 114.681 177.28 114.577C177.168 114.507 177.169 114.25 177.229 114.009C177.367 113.506 177.621 113.003 177.906 112.531C178.464 111.566 179.129 110.657 179.804 109.753C181.164 107.959 182.62 106.231 184.094 104.514C190.007 97.6812 196.312 91.1843 202.676 84.7645L202.67 84.7428Z" fill="white"/>
</g>
<path d="M245.194 6.28396C246.655 5.88904 248.158 6.75647 248.547 8.21981C248.936 9.68316 248.065 11.1918 246.603 11.5868C245.141 11.9817 243.639 11.1143 243.25 9.65092C242.861 8.18757 243.732 6.67888 245.194 6.28396Z" fill="url(#paint12_radial_41_4835)"/>
<path d="M248.702 38.6279C248.398 37.1943 248.035 35.6835 247.622 34.1317C245.317 25.4664 242.259 18.7609 240.787 19.1582C239.315 19.5555 239.995 26.903 242.3 35.5683C242.713 37.12 243.148 38.6113 243.597 40.0057L248.694 38.6299L248.702 38.6279Z" fill="url(#paint13_linear_41_4835)"/>
<path d="M242.347 24.5251C244.477 23.9496 245.744 21.7543 245.178 19.6219C244.611 17.4894 242.425 16.2273 240.295 16.8029C238.165 17.3784 236.897 19.5737 237.464 21.7061C238.03 23.8385 240.217 25.1007 242.347 24.5251Z" fill="url(#paint14_linear_41_4835)"/>
<path d="M185.473 55.645C185.169 54.2114 184.806 52.7006 184.394 51.1488C182.089 42.4835 179.031 35.778 177.559 36.1753C176.087 36.5726 176.767 43.9201 179.072 52.5854C179.484 54.1371 179.92 55.6284 180.368 57.0228L185.466 55.6469L185.473 55.645Z" fill="url(#paint15_linear_41_4835)"/>
<path d="M179.118 41.5422C181.248 40.9667 182.516 38.7714 181.949 36.639C181.383 34.5065 179.196 33.2444 177.066 33.8199C174.936 34.3955 173.669 36.5907 174.235 38.7232C174.802 40.8556 176.988 42.1178 179.118 41.5422Z" fill="url(#paint16_linear_41_4835)"/>
<path d="M251.196 37.4531L247.762 38.3807C246.41 38.7461 245.605 40.1392 245.965 41.4923L249.385 54.359C249.744 55.7122 251.132 56.513 252.484 56.1476L255.918 55.22C257.271 54.8546 258.075 53.4615 257.716 52.1084L254.296 39.2417C253.937 37.8885 252.549 37.0878 251.196 37.4531Z" fill="url(#paint17_linear_41_4835)"/>
<path d="M253.521 44.0877L249.047 45.2967C247.983 45.584 247.351 46.6799 247.633 47.7444L249.53 54.8816C249.813 55.9461 250.904 56.576 251.968 56.2887L256.441 55.0797C257.505 54.7923 258.138 53.6964 257.855 52.632L255.959 45.4948C255.676 44.4303 254.584 43.8003 253.521 44.0877Z" fill="url(#paint18_linear_41_4835)"/>
<path d="M181.205 56.2902L177.771 57.2179C176.419 57.5832 175.614 58.9763 175.974 60.3295L179.393 73.1962C179.753 74.5493 181.141 75.3501 182.493 74.9848L185.927 74.0571C187.279 73.6918 188.084 72.2987 187.725 70.9455L184.305 58.0789C183.945 56.7257 182.557 55.9249 181.205 56.2902Z" fill="url(#paint19_linear_41_4835)"/>
<path d="M183.53 62.9249L179.056 64.1339C177.992 64.4213 177.359 65.5172 177.642 66.5816L179.539 73.7188C179.821 74.7833 180.913 75.4133 181.976 75.1259L186.45 73.9169C187.514 73.6295 188.147 72.5336 187.864 71.4692L185.968 64.332C185.685 63.2675 184.593 62.6375 183.53 62.9249Z" fill="url(#paint20_linear_41_4835)"/>
<path d="M224.503 83.6218C244.051 78.3393 256.52 61.3445 252.353 45.6628C248.187 29.981 228.963 21.5508 209.415 26.8332C189.867 32.1157 177.398 49.1105 181.565 64.7922C185.731 80.474 204.955 88.9042 224.503 83.6218Z" fill="url(#paint21_linear_41_4835)"/>
<path d="M222.46 75.935C238.391 71.63 248.693 58.3107 245.472 46.1853C242.25 34.0599 226.724 27.7202 210.793 32.0251C194.863 36.33 184.56 49.6494 187.782 61.7748C191.003 73.9001 206.529 80.2399 222.46 75.935Z" fill="url(#paint22_linear_41_4835)"/>
<path d="M221.911 73.8697C237.01 69.7895 246.837 57.3982 243.86 46.193C240.883 34.9879 226.229 29.2119 211.13 33.2921C196.031 37.3723 186.204 49.7635 189.181 60.9687C192.158 72.1739 206.812 77.9499 221.911 73.8697Z" fill="url(#paint23_linear_41_4835)"/>
<path d="M233.931 52.9497L202.126 61.5309C199.928 62.1238 197.677 60.8257 197.092 58.6287C196.508 56.4317 197.813 54.174 200.01 53.5812L231.816 44.9999C234.013 44.407 236.264 45.7051 236.849 47.9021C237.434 50.0992 236.128 52.3568 233.931 52.9497Z" fill="#8EE9FE"/>
<path d="M224.38 59.8407L214.305 62.5581C213.828 62.6867 213.334 62.4019 213.207 61.9252C213.08 61.4484 213.366 60.9531 213.843 60.8244L223.919 58.107C224.396 57.9784 224.89 58.2632 225.017 58.74C225.144 59.2167 224.865 59.7101 224.38 59.8407Z" fill="#8EE9FE"/>
<path style="mix-blend-mode:overlay" opacity="0.36" d="M211.108 33.2939C208.576 33.9783 206.192 34.902 203.989 36.0097C204.146 37.3023 204.382 38.5972 204.726 39.8936C208.694 54.8281 224.001 63.6631 238.922 59.6309C240.108 59.3102 241.25 58.9084 242.355 58.4546C244.303 54.5203 244.923 50.2851 243.838 46.2002C240.859 34.9885 226.203 29.2148 211.101 33.2959L211.108 33.2939Z" fill="url(#paint24_linear_41_4835)"/>
</g>
</g>
<defs>
<linearGradient id="paint0_linear_41_4835" x1="6.5" y1="57" x2="276.5" y2="57" gradientUnits="userSpaceOnUse">
<stop stop-color="#7500BC"/>
<stop offset="1" stop-color="#250062"/>
</linearGradient>
<linearGradient id="paint1_linear_41_4835" x1="140" y1="0" x2="140" y2="115" gradientUnits="userSpaceOnUse">
<stop stop-color="white" stop-opacity="0.15"/>
<stop offset="1" stop-opacity="0"/>
</linearGradient>
<linearGradient id="paint2_linear_41_4835" x1="154.948" y1="57" x2="277.413" y2="57" gradientUnits="userSpaceOnUse">
<stop stop-color="#7500BC"/>
<stop offset="1" stop-color="#250062"/>
</linearGradient>
<linearGradient id="paint3_linear_41_4835" x1="215.5" y1="0" x2="215.5" y2="115" gradientUnits="userSpaceOnUse">
<stop stop-color="white" stop-opacity="0.15"/>
<stop offset="1" stop-opacity="0"/>
</linearGradient>
<linearGradient id="paint4_linear_41_4835" x1="232.08" y1="138.256" x2="237.238" y2="11.3669" gradientUnits="userSpaceOnUse">
<stop stop-color="white"/>
<stop offset="1" stop-color="#5EA5FC"/>
</linearGradient>
<linearGradient id="paint5_linear_41_4835" x1="232.931" y1="114.739" x2="226.959" y2="92.6455" gradientUnits="userSpaceOnUse">
<stop stop-color="white"/>
<stop offset="1" stop-color="#5EA5FC"/>
</linearGradient>
<linearGradient id="paint6_linear_41_4835" x1="221.917" y1="153.289" x2="248.505" y2="69.6742" gradientUnits="userSpaceOnUse">
<stop stop-color="#1F378F"/>
<stop offset="1" stop-color="#131941"/>
</linearGradient>
<radialGradient id="paint7_radial_41_4835" cx="0" cy="0" r="1" gradientUnits="userSpaceOnUse" gradientTransform="translate(221.739 123.688) rotate(164.802) scale(19.8389 19.9186)">
<stop stop-color="#90FAFA"/>
<stop offset="0.05" stop-color="#75CBCB"/>
<stop offset="0.1" stop-color="#5CA1A1"/>
<stop offset="0.15" stop-color="#467A7A"/>
<stop offset="0.21" stop-color="#335959"/>
<stop offset="0.27" stop-color="#233D3D"/>
<stop offset="0.34" stop-color="#162626"/>
<stop offset="0.42" stop-color="#0C1515"/>
<stop offset="0.52" stop-color="#050808"/>
<stop offset="0.66" stop-color="#010101"/>
<stop offset="1"/>
</radialGradient>
<radialGradient id="paint8_radial_41_4835" cx="0" cy="0" r="1" gradientUnits="userSpaceOnUse" gradientTransform="translate(268.626 57.6599) rotate(-15.119) scale(4.44496 4.44492)">
<stop stop-color="#F3D042"/>
<stop offset="1" stop-color="#DB2385"/>
</radialGradient>
<radialGradient id="paint9_radial_41_4835" cx="0" cy="0" r="1" gradientUnits="userSpaceOnUse" gradientTransform="translate(186.064 93.1054) rotate(-15.119) scale(2.36115 2.36113)">
<stop stop-color="#F3D042"/>
<stop offset="1" stop-color="#DB2385"/>
</radialGradient>
<radialGradient id="paint10_radial_41_4835" cx="0" cy="0" r="1" gradientUnits="userSpaceOnUse" gradientTransform="translate(222.568 97.9391) rotate(-104.882) scale(2.74343 2.74341)">
<stop stop-color="white"/>
<stop offset="1" stop-color="#5EA5FC"/>
</radialGradient>
<radialGradient id="paint11_radial_41_4835" cx="0" cy="0" r="1" gradientUnits="userSpaceOnUse" gradientTransform="translate(169.278 53.7304) rotate(-15.119) scale(1.04191 1.0419)">
<stop stop-color="white"/>
<stop offset="1" stop-color="#5EA5FC"/>
</radialGradient>
<radialGradient id="paint12_radial_41_4835" cx="0" cy="0" r="1" gradientUnits="userSpaceOnUse" gradientTransform="translate(244.894 8.60101) rotate(-104.882) scale(0.374785 0.374783)">
<stop stop-color="white"/>
<stop offset="1" stop-color="#5EA5FC"/>
</radialGradient>
<linearGradient id="paint13_linear_41_4835" x1="242.775" y1="20.5257" x2="246.102" y2="42.4402" gradientUnits="userSpaceOnUse">
<stop stop-color="white"/>
<stop offset="1" stop-color="#5EA5FC"/>
</linearGradient>
<linearGradient id="paint14_linear_41_4835" x1="240.189" y1="27.5539" x2="242.514" y2="13.1268" gradientUnits="userSpaceOnUse">
<stop stop-color="#DB2385"/>
<stop offset="1" stop-color="#F3D042"/>
</linearGradient>
<linearGradient id="paint15_linear_41_4835" x1="179.547" y1="37.5428" x2="182.874" y2="59.4573" gradientUnits="userSpaceOnUse">
<stop stop-color="white"/>
<stop offset="1" stop-color="#5EA5FC"/>
</linearGradient>
<linearGradient id="paint16_linear_41_4835" x1="176.96" y1="44.571" x2="179.285" y2="30.1439" gradientUnits="userSpaceOnUse">
<stop stop-color="#DB2385"/>
<stop offset="1" stop-color="#F3D042"/>
</linearGradient>
<linearGradient id="paint17_linear_41_4835" x1="250.764" y1="34.9206" x2="253.267" y2="61.4557" gradientUnits="userSpaceOnUse">
<stop stop-color="white"/>
<stop offset="1" stop-color="#5EA5FC"/>
</linearGradient>
<linearGradient id="paint18_linear_41_4835" x1="252.984" y1="30.0053" x2="252.765" y2="57.2741" gradientUnits="userSpaceOnUse">
<stop stop-color="white"/>
<stop offset="1" stop-color="#5EA5FC"/>
</linearGradient>
<linearGradient id="paint19_linear_41_4835" x1="180.78" y1="53.7558" x2="183.283" y2="80.2909" gradientUnits="userSpaceOnUse">
<stop stop-color="white"/>
<stop offset="1" stop-color="#5EA5FC"/>
</linearGradient>
<linearGradient id="paint20_linear_41_4835" x1="182.993" y1="48.8426" x2="182.774" y2="76.1113" gradientUnits="userSpaceOnUse">
<stop stop-color="white"/>
<stop offset="1" stop-color="#5EA5FC"/>
</linearGradient>
<linearGradient id="paint21_linear_41_4835" x1="217.975" y1="32.3438" x2="212.805" y2="159.24" gradientUnits="userSpaceOnUse">
<stop stop-color="white"/>
<stop offset="1" stop-color="#5EA5FC"/>
</linearGradient>
<linearGradient id="paint22_linear_41_4835" x1="217.129" y1="55.8699" x2="223.098" y2="77.9589" gradientUnits="userSpaceOnUse">
<stop stop-color="white"/>
<stop offset="1" stop-color="#5EA5FC"/>
</linearGradient>
<linearGradient id="paint23_linear_41_4835" x1="228.137" y1="17.3112" x2="201.542" y2="100.931" gradientUnits="userSpaceOnUse">
<stop stop-color="#1F378F"/>
<stop offset="1" stop-color="#131941"/>
</linearGradient>
<linearGradient id="paint24_linear_41_4835" x1="223.801" y1="36.4932" x2="226.716" y2="81.7991" gradientUnits="userSpaceOnUse">
<stop stop-color="white"/>
<stop offset="1" stop-color="#5EA5FC"/>
</linearGradient>
</defs>
</svg>
