<svg width="100" height="100" viewBox="0 0 100 100" fill="none" xmlns="http://www.w3.org/2000/svg">
<path d="M49.7285 22C35.5479 22 36.4333 28.1496 36.4333 28.1496L36.449 34.5207H49.9814V36.4335H31.0742C31.0742 36.4335 22 35.4044 22 49.7126C22 64.0212 29.9202 63.5138 29.9202 63.5138H34.6469V56.874C34.6469 56.874 34.3921 48.9538 42.4407 48.9538H55.8624C55.8624 48.9538 63.4031 49.0756 63.4031 41.666V29.4145C63.4031 29.4145 64.5483 22 49.7285 22ZM42.2668 26.2845C42.5866 26.2842 42.9033 26.347 43.1988 26.4692C43.4943 26.5914 43.7628 26.7707 43.9889 26.9969C44.215 27.223 44.3943 27.4915 44.5165 27.787C44.6388 28.0825 44.7016 28.3992 44.7013 28.7189C44.7016 29.0387 44.6388 29.3554 44.5165 29.6509C44.3943 29.9464 44.215 30.2149 43.9889 30.441C43.7628 30.6671 43.4943 30.8464 43.1988 30.9687C42.9033 31.0909 42.5866 31.1537 42.2668 31.1534C41.947 31.1537 41.6303 31.0909 41.3348 30.9687C41.0393 30.8464 40.7709 30.6671 40.5447 30.441C40.3186 30.2149 40.1393 29.9464 40.0171 29.6509C39.8948 29.3554 39.8321 29.0387 39.8323 28.7189C39.8321 28.3992 39.8948 28.0825 40.0171 27.787C40.1393 27.4915 40.3186 27.223 40.5447 26.9969C40.7709 26.7707 41.0393 26.5914 41.3348 26.4692C41.6303 26.347 41.947 26.2842 42.2668 26.2845Z" fill="url(#paint0_linear_998_451)"/>
<path d="M50.1318 77.5692C64.3124 77.5692 63.427 71.4196 63.427 71.4196L63.4113 65.0487H49.8787V63.1359H68.7859C68.7859 63.1359 77.8601 64.165 77.8601 49.8564C77.8601 35.548 69.9399 36.0554 69.9399 36.0554H65.2132V42.695C65.2132 42.695 65.468 50.6152 57.4194 50.6152H43.9977C43.9977 50.6152 36.457 50.4933 36.457 57.9032V70.1549C36.457 70.1549 35.312 77.5692 50.1316 77.5692H50.1318ZM57.5935 73.2852C57.2737 73.2854 56.957 73.2227 56.6615 73.1004C56.3661 72.9782 56.0976 72.7989 55.8715 72.5728C55.6453 72.3467 55.466 72.0782 55.3438 71.7827C55.2215 71.4872 55.1588 71.1705 55.1591 70.8507C55.1587 70.5309 55.2215 70.2142 55.3437 69.9187C55.4659 69.6231 55.6453 69.3546 55.8714 69.1285C56.0975 68.9024 56.366 68.723 56.6615 68.6008C56.957 68.4785 57.2737 68.4157 57.5935 68.416C57.9133 68.4157 58.23 68.4785 58.5255 68.6008C58.821 68.723 59.0895 68.9023 59.3156 69.1284C59.5417 69.3545 59.721 69.623 59.8432 69.9185C59.9655 70.214 60.0283 70.5307 60.028 70.8505C60.0283 71.1703 59.9655 71.487 59.8432 71.7825C59.721 72.0779 59.5417 72.3464 59.3156 72.5725C59.0895 72.7987 58.821 72.978 58.5255 73.1002C58.23 73.2225 57.9133 73.2854 57.5935 73.2852Z" fill="url(#paint1_linear_998_451)"/>
<circle cx="50" cy="50" r="50" fill="#387EB8" fill-opacity="0.1"/>
<defs>
<linearGradient id="paint0_linear_998_451" x1="558.808" y1="521.811" x2="3327.04" y2="3262.42" gradientUnits="userSpaceOnUse">
<stop stop-color="#387EB8"/>
<stop offset="1" stop-color="#366994"/>
</linearGradient>
<linearGradient id="paint1_linear_998_451" x1="828.787" y1="890.411" x2="3801.55" y2="3700.66" gradientUnits="userSpaceOnUse">
<stop stop-color="#FFE052"/>
<stop offset="1" stop-color="#FFC331"/>
</linearGradient>
</defs>
</svg>
