<svg width="60" height="60" viewBox="0 0 60 60" fill="none" xmlns="http://www.w3.org/2000/svg">
<rect opacity="0.15" width="60" height="60" rx="6" fill="#0D88FF"/>
<path d="M34.0664 24.2326C33.006 24.2326 32.1433 23.3783 32.1433 22.3283V16.0713H22.3081C20.6418 16.0713 19.2861 17.4137 19.2861 19.0638V40.936C19.2861 42.586 20.6418 43.9284 22.3081 43.9284H37.6927C39.359 43.9284 40.7147 42.586 40.7147 40.936V24.2326H34.0664ZM23.7916 35.6583H27.7872C28.2424 35.6583 28.6114 36.0238 28.6114 36.4745C28.6114 36.9252 28.2424 37.2906 27.7872 37.2906H23.7916C23.3365 37.2906 22.9675 36.9252 22.9675 36.4745C22.9675 36.0238 23.3365 35.6583 23.7916 35.6583ZM22.9675 32.1218C22.9675 31.6711 23.3365 31.3057 23.7916 31.3057H35.8795C36.3347 31.3057 36.7037 31.6711 36.7037 32.1218C36.7037 32.5725 36.3347 32.9379 35.8795 32.9379H23.7916C23.3365 32.9379 22.9675 32.5725 22.9675 32.1218ZM35.8795 26.953C36.3347 26.953 36.7037 27.3184 36.7037 27.7691C36.7037 28.2198 36.3347 28.5852 35.8795 28.5852H23.7916C23.3365 28.5852 22.9675 28.2198 22.9675 27.7691C22.9675 27.3184 23.3365 26.953 23.7916 26.953H35.8795Z" fill="#0D88FF"/>
<path d="M34.2861 22.2174C34.2861 22.3731 34.407 22.4999 34.5555 22.4999H40.7147C40.5669 22.2136 40.3767 21.9507 40.1482 21.724L34.9529 16.5699C34.7513 16.3699 34.5268 16.203 34.2862 16.0713V22.2174H34.2861Z" fill="#0D88FF"/>
</svg>
