<svg width="60" height="60" viewBox="0 0 60 60" fill="none" xmlns="http://www.w3.org/2000/svg">
<rect opacity="0.15" width="60" height="60" rx="6" fill="#FD346E"/>
<path d="M40.9418 35.7318C39.1778 34.2408 38.1663 32.0615 38.1663 29.7527V26.5C38.1663 22.3945 35.1167 18.996 31.1663 18.4267V17.1667C31.1663 16.5215 30.6437 16 29.9997 16C29.3557 16 28.833 16.5215 28.833 17.1667V18.4267C24.8815 18.996 21.833 22.3945 21.833 26.5V29.7527C21.833 32.0615 20.8215 34.2408 19.047 35.7412C18.5932 36.1297 18.333 36.6943 18.333 37.2917C18.333 38.4175 19.2488 39.3333 20.3747 39.3333H39.6247C40.7505 39.3333 41.6663 38.4175 41.6663 37.2917C41.6663 36.6943 41.4062 36.1297 40.9418 35.7318Z" fill="#FD346E"/>
<path d="M30.0002 44C32.113 44 33.8805 42.4938 34.2865 40.5H25.7139C26.1199 42.4938 27.8874 44 30.0002 44Z" fill="#FD346E"/>
</svg>
