<svg width="252" height="115" viewBox="0 0 252 115" fill="none" xmlns="http://www.w3.org/2000/svg">
<rect width="252" height="115" rx="9" fill="url(#paint0_linear_22_712)"/>
<mask id="mask0_22_712" style="mask-type:alpha" maskUnits="userSpaceOnUse" x="0" y="0" width="252" height="115">
<rect width="252" height="115" rx="9" fill="url(#paint1_linear_22_712)"/>
</mask>
<g mask="url(#mask0_22_712)">
<g style="mix-blend-mode:luminosity">
<path d="M44.8463 118.68C47.4004 118.68 49.9387 118.403 52.4214 117.824C58.7353 116.356 64.5177 113.183 70.1098 110.106C74.5121 107.686 79.073 105.18 83.856 103.53C100.862 97.6762 119.304 102.546 138.27 108.519C154.562 113.651 174.852 120.029 193.175 114.326C202.813 111.327 212.157 104.807 220.2 95.479C230.361 83.692 236.643 69.5889 237.904 55.7554C239.292 40.4783 234.366 25.1775 224.745 14.8262C203.162 -8.38295 168.237 -1.26792 144.925 15.1593C141.688 17.4437 138.476 19.982 135.367 22.433C124.833 30.7616 113.934 39.3758 100.077 39.4393C92.4464 39.4789 84.6492 37.369 77.1297 35.3305C67.7064 32.7763 57.958 30.1429 48.2729 31.6421C32.7103 34.0613 18.5834 43.6987 11.4049 56.7945C3.86945 70.5487 4.24226 88.2688 12.3409 100.889C19.3924 111.882 32.2344 118.656 44.8384 118.656L44.8463 118.68ZM100.497 100.095C94.7388 100.095 89.0991 100.889 83.5943 102.784C78.7399 104.45 74.1552 106.973 69.7212 109.416C64.1767 112.461 58.4498 115.611 52.239 117.054C37.8265 120.401 21.3199 113.437 13.0151 100.484C5.06718 88.0943 4.70232 70.6994 12.1029 57.1991C19.1624 44.3174 33.0752 34.8307 48.3999 32.4511C57.9183 30.9678 67.5795 33.5854 76.9234 36.1157C84.4271 38.1463 92.1847 40.2483 99.8787 40.2483C99.9422 40.2483 100.014 40.2483 100.077 40.2483C114.204 40.1849 125.214 31.4834 135.85 23.0675C138.944 20.6165 142.148 18.0862 145.369 15.8177C168.411 -0.419189 202.892 -7.48663 224.15 15.3735C233.621 25.5582 238.467 40.637 237.103 55.692C235.865 69.3588 229.647 83.3113 219.589 94.9634C211.641 104.18 202.416 110.621 192.929 113.572C174.836 119.204 154.689 112.858 138.492 107.766C125.491 103.673 112.737 100.095 100.482 100.095H100.497Z" fill="#8581FF"/>
<path d="M189.202 93.5038L190.344 113.397H150.589C150.589 113.397 155.935 101.801 166.509 107.083L173.338 97.0177L174.235 92.1713L189.194 93.5038H189.202Z" fill="#B8ACFF"/>
<path d="M219.233 52.757C219.233 52.757 239.975 61.4981 243.124 63.7507C244.861 64.9881 253.562 68.6924 247.582 98.7786C247.582 98.7786 236.413 97.7712 229.766 95.7485L226.459 116.277H186.323L187.687 93.361L174.242 92.1633C174.242 92.1633 179.176 61.8471 184.324 59.0788C189.464 56.3105 206.161 53.336 206.161 53.336L219.233 52.757Z" fill="white"/>
<path d="M216.869 47.3394C216.869 47.3394 220.891 47.2522 221.279 52.3287C221.803 59.1899 217.393 61.3157 216.108 62.3706C213.435 64.5678 202.806 63.8301 201.751 60.8001C200.37 56.8261 200.688 53.6533 202.584 51.2261C204.479 48.7989 212.173 46.3321 216.869 47.3394Z" fill="white"/>
<path d="M218.17 36.996C218.463 35.3144 218.487 33.5773 218.225 31.8878C218.225 31.8878 221.224 30.7139 222.382 27.2317L219.891 27.2872C219.891 27.2872 221.89 26.3513 222.033 23.7337C222.033 23.7337 219.812 25.7563 216.107 24.0034C212.403 22.2504 209.246 20.4657 207.247 22.7342C207.247 22.7342 204.098 20.6005 201.155 22.2425C201.155 22.2425 198.062 20.6402 195.904 22.9246C193.747 25.209 195.016 28.3898 196.285 29.6906C196.285 29.6906 195.127 33.7122 197.039 35.8538C198.95 37.9955 210.555 40.7479 213.347 40.7082C216.139 40.6686 218.162 36.996 218.162 36.996H218.17Z" fill="#7660FF"/>
<path d="M203.551 50.8929C203.551 50.8929 203.606 53.0663 203.725 53.8833C203.963 55.5252 205.565 57.2782 210.245 56.5722C217.154 55.5332 217.424 50.2108 216.869 47.3394C216.416 45.0074 215.695 40.3354 215.695 40.3354L203.551 50.8929Z" fill="#B8ACFF"/>
<path d="M203.733 53.8833C211.562 52.4794 213.165 44.1111 213.165 44.1111H211.364L203.559 50.893C203.559 50.893 203.646 52.4635 203.733 53.8833Z" fill="#1D0D00"/>
<path d="M218.107 37.8685C218.281 37.8685 218.44 37.7495 218.487 37.575C218.511 37.4719 219.146 35.0923 218.67 31.856C218.638 31.6419 218.44 31.4832 218.218 31.5229C218.004 31.5546 217.853 31.7529 217.885 31.975C218.337 35.0368 217.734 37.345 217.726 37.3688C217.67 37.583 217.797 37.7971 218.004 37.8526C218.035 37.8606 218.075 37.8685 218.107 37.8685Z" fill="#1D0D00"/>
<path d="M196.738 36.2583C196.801 36.2583 196.872 36.2425 196.936 36.2028C197.126 36.0917 197.19 35.8538 197.079 35.6634C196.238 34.2039 196.047 31.6339 196.658 29.8175C196.73 29.6113 196.619 29.3892 196.404 29.3178C196.198 29.2464 195.968 29.3574 195.905 29.5716C195.223 31.6101 195.429 34.4022 196.389 36.06C196.46 36.1869 196.595 36.2583 196.73 36.2583H196.738Z" fill="#1D0D00"/>
<path d="M197.563 30.9995C200.942 32.8555 207.723 34.6958 210.214 33.5536C211.348 42.4771 213.855 40.2244 215.053 38.7808C215.735 37.9558 216.242 37.0675 217.345 36.5757C217.813 36.3694 218.337 36.4408 218.765 36.7264C219.217 37.0278 219.558 37.583 219.614 38.3048C219.915 42.4612 214.831 44.4046 214.831 44.4046C212.221 48.5848 206.256 52.2811 201.687 51.1706C197.118 50.0601 195.762 47.625 196.293 38.3207C196.452 35.4652 196.904 32.8714 197.57 30.9995H197.563Z" fill="#B8ACFF"/>
<path d="M201.75 44.6425C201.957 44.6425 202.123 44.4838 202.147 44.2776C202.163 44.0555 202.004 43.8651 201.79 43.8493C201.441 43.8175 201.021 43.643 200.957 43.4209C200.926 43.302 200.933 43.1433 200.949 42.9926C201.013 42.3184 201.14 41.6442 201.267 40.9779C201.394 40.3195 201.52 39.6294 201.584 38.9393L201.608 38.6934C201.695 37.8606 201.79 36.996 201.457 36.1393C200.751 34.3229 199.014 34.0532 197.578 34.0135C197.372 34.0135 197.174 34.1801 197.174 34.4022C197.174 34.6243 197.34 34.8068 197.562 34.8068C199.355 34.8543 200.299 35.3382 200.727 36.4249C200.989 37.0991 200.91 37.8289 200.83 38.6062L200.807 38.86C200.743 39.5184 200.616 40.1847 200.497 40.8351C200.37 41.5093 200.243 42.2073 200.172 42.9133C200.148 43.1274 200.132 43.3813 200.204 43.643C200.378 44.2538 201.1 44.5869 201.727 44.6425C201.743 44.6425 201.751 44.6425 201.758 44.6425H201.75Z" fill="#1D0D00"/>
<path d="M208.619 36.6867C208.754 36.6867 208.881 36.6232 208.961 36.4963C209.079 36.3139 209.016 36.068 208.834 35.949C206.946 34.7751 204.289 34.7037 202.781 35.7745C202.599 35.9014 202.559 36.1473 202.686 36.3298C202.813 36.5043 203.059 36.5519 203.242 36.4249C204.487 35.5366 206.811 35.6317 208.413 36.6312C208.477 36.6708 208.548 36.6946 208.619 36.6946V36.6867Z" fill="#1D0D00"/>
<path d="M207.977 39.7565C208.096 39.7565 208.207 39.7089 208.286 39.6057C208.421 39.4312 208.398 39.1853 208.223 39.0505C206.898 37.9876 204.979 37.7496 203.432 38.4556C203.234 38.5429 203.147 38.7808 203.234 38.9791C203.321 39.1774 203.559 39.2647 203.757 39.1774C205.034 38.5984 206.621 38.7967 207.723 39.6692C207.795 39.7247 207.882 39.7565 207.969 39.7565H207.977Z" fill="#1D0D00"/>
<path d="M199.879 38.8997C199.998 38.8997 200.109 38.8441 200.188 38.749C200.323 38.5744 200.291 38.3286 200.125 38.1937C199.244 37.5036 198.023 37.2498 196.944 37.5354C196.73 37.5909 196.603 37.805 196.658 38.0192C196.714 38.2334 196.928 38.3603 197.142 38.3048C197.991 38.0827 198.943 38.281 199.633 38.8203C199.704 38.8759 199.792 38.9076 199.879 38.9076V38.8997Z" fill="#1D0D00"/>
<path d="M216.131 42.0566C216.131 42.0566 216.163 42.0566 216.179 42.0566C216.393 42.0328 216.552 41.8345 216.528 41.6124C216.393 40.502 216.901 38.9473 217.829 38.511C218.059 38.4 218.328 38.4238 218.471 38.5586C218.622 38.7172 218.876 38.7172 219.034 38.5586C219.193 38.4079 219.193 38.1541 219.034 37.9954C218.662 37.6226 218.027 37.5354 217.496 37.7892C216.203 38.4 215.576 40.2957 215.743 41.7076C215.766 41.9059 215.941 42.0566 216.139 42.0566H216.131Z" fill="#1D0D00"/>
<path d="M218.082 40.4069C218.265 40.4069 218.423 40.2879 218.471 40.1054C218.566 39.7088 218.471 39.2726 218.225 38.9474C217.979 38.6221 217.582 38.4159 217.178 38.4C216.964 38.3842 216.773 38.5587 216.765 38.7808C216.758 39.0029 216.924 39.1853 217.146 39.1933C217.321 39.1933 217.487 39.2884 217.59 39.4233C217.694 39.5581 217.733 39.7485 217.694 39.9151C217.646 40.1292 217.773 40.3434 217.987 40.391C218.019 40.391 218.05 40.3989 218.082 40.3989V40.4069Z" fill="#1D0D00"/>
<path d="M202.211 46.8318C202.925 46.8318 203.639 46.6573 204.273 46.3082C204.464 46.2051 204.535 45.9592 204.432 45.7689C204.329 45.5785 204.083 45.5071 203.893 45.6102C202.885 46.1655 201.576 46.1655 200.553 45.6261C200.363 45.523 200.117 45.5944 200.014 45.7927C199.911 45.983 199.982 46.2289 200.18 46.332C200.807 46.6652 201.505 46.8318 202.203 46.8318H202.211Z" fill="#1D0D00"/>
<path d="M207.438 34.3309C208.405 34.3309 209.373 34.196 210.317 33.9343C212.665 33.268 214.6 31.8243 216.084 29.6351C216.163 29.5082 216.171 29.3495 216.1 29.2226C216.028 29.0957 215.893 29.0164 215.743 29.0164C213.934 29.0799 212.649 28.5405 211.65 27.3665C211.198 26.8351 210.785 26.2402 210.381 25.6611C209.778 24.7966 209.159 23.9082 208.39 23.1705C206.978 21.83 205.352 21.1399 203.551 21.1399H203.535C201.076 21.1399 198.935 23.0594 198.435 25.7087C198.133 27.3189 198.554 29.1433 199.561 30.5949C200.426 31.8323 201.711 32.8396 203.297 33.5059C204.614 34.0612 206.026 34.3388 207.438 34.3388V34.3309ZM214.989 29.8017C213.68 31.4912 212.038 32.6255 210.103 33.1728C207.969 33.7756 205.661 33.6328 203.607 32.7682C202.163 32.1575 200.997 31.2532 200.22 30.1348C199.331 28.8578 198.958 27.2555 199.22 25.8515C199.648 23.575 201.465 21.9331 203.543 21.9331H203.551C205.145 21.9331 206.589 22.5439 207.85 23.7416C208.564 24.4238 209.135 25.2408 209.738 26.1133C210.15 26.7082 210.579 27.3189 211.047 27.8742C212.038 29.0481 213.339 29.6827 214.989 29.7937V29.8017Z" fill="#1D0D00"/>
<path d="M215.718 32.6096C216.892 32.6096 218.066 32.3161 219.113 31.737C220.747 30.8328 222.08 29.2464 222.754 27.3665C222.802 27.2396 222.778 27.0889 222.691 26.9857C222.603 26.8747 222.468 26.8192 222.334 26.835C221.77 26.9064 221.247 26.9461 220.723 26.954C221.715 26.1846 222.445 24.9314 222.429 23.7257C222.429 23.575 222.342 23.4322 222.199 23.3687C222.064 23.3053 221.897 23.3212 221.778 23.4163C220.628 24.3444 218.891 24.5268 217.011 23.9081C216.075 23.5988 215.163 23.1466 214.275 22.7025C213.561 22.3455 212.831 21.9806 212.077 21.6792C210.681 21.1319 208.635 20.6163 206.953 22.4645C206.803 22.6231 206.819 22.877 206.977 23.0277C207.136 23.1784 207.39 23.1625 207.54 23.0039C208.595 21.8458 209.872 21.6713 211.784 22.4248C212.506 22.7104 213.228 23.0673 213.918 23.4163C214.83 23.8764 215.774 24.3444 216.757 24.6696C218.518 25.2486 220.2 25.1931 221.493 24.5348C221.12 25.7008 220.002 26.7874 218.915 26.8826C218.709 26.8985 218.55 27.073 218.55 27.2792C218.55 27.4855 218.709 27.66 218.915 27.6758C219.938 27.7631 220.819 27.771 221.747 27.6917C221.088 29.1274 220.009 30.3251 218.709 31.039C217.249 31.8401 215.504 32.0305 213.934 31.5546C213.719 31.4911 213.505 31.6101 213.442 31.8164C213.378 32.0226 213.497 32.2447 213.704 32.3081C214.354 32.5064 215.02 32.6016 215.694 32.6016L215.718 32.6096Z" fill="#1D0D00"/>
<path d="M209.897 33.3156C211.031 33.3156 212.086 33.1332 212.943 32.7524C213.141 32.6652 213.237 32.4272 213.149 32.2289C213.062 32.0306 212.832 31.9354 212.626 32.0227C210.865 32.7921 208.168 32.6652 205.749 31.6975C203.544 30.8091 201.957 29.4131 201.275 27.7632C199.546 23.591 201.323 22.6153 201.338 22.6074C201.465 22.536 201.553 22.4011 201.553 22.2584C201.553 22.1077 201.473 21.9728 201.346 21.9014C199.816 21.0765 197.396 20.783 195.62 22.6629C193.993 24.3842 194.176 26.7796 194.834 28.3026C195.247 29.2624 196 30.119 197.15 30.9201C198.618 31.9434 200.95 32.8 202.497 33.1015C202.711 33.149 202.917 33.0063 202.965 32.7921C203.004 32.5779 202.869 32.3717 202.655 32.3241C201.227 32.0386 198.967 31.2216 197.603 30.2697C196.563 29.5479 195.921 28.8261 195.564 27.9932C195.009 26.6924 194.834 24.6538 196.199 23.2102C197.682 21.6397 199.49 22.0045 200.426 22.3615C199.823 23.0595 199.133 24.6856 200.537 28.0725C201.307 29.9286 203.052 31.4754 205.447 32.4431C206.899 33.0301 208.461 33.3236 209.897 33.3236V33.3156Z" fill="#1D0D00"/>
<path d="M218.963 27.6838C219.178 27.6838 219.352 27.5093 219.36 27.2951C219.36 27.073 219.193 26.8906 218.971 26.8906C216.409 26.8271 214.514 25.5739 212.689 24.3682C210.912 23.1943 209.231 22.0838 207.2 22.3456C206.986 22.3693 206.827 22.5676 206.859 22.7897C206.883 23.0039 207.081 23.1626 207.303 23.1308C209.048 22.9167 210.54 23.8923 212.261 25.0345C214.093 26.2402 216.171 27.6124 218.963 27.6838Z" fill="#1D0D00"/>
<path d="M216.108 35.6C216.909 35.6 217.757 35.4493 218.614 35.0606C218.812 34.9734 218.9 34.7354 218.812 34.5371C218.725 34.3388 218.487 34.2515 218.289 34.3388C214.838 35.9093 211.412 32.9824 211.38 32.9586C211.214 32.8158 210.968 32.8317 210.817 32.9983C210.674 33.1649 210.69 33.4107 210.857 33.5615C210.976 33.6646 213.252 35.6079 216.108 35.6079V35.6Z" fill="#1D0D00"/>
<path d="M188.385 88.8953C188.425 88.8953 188.472 88.8953 188.512 88.8715C188.718 88.8001 188.829 88.578 188.758 88.3638C185.99 80.3049 184.61 71.8969 184.657 63.3779C184.657 63.1558 184.483 62.9813 184.261 62.9813C184.038 62.9417 183.864 63.1558 183.864 63.3779C183.816 71.9921 185.204 80.4794 188.004 88.6256C188.06 88.7922 188.219 88.8953 188.377 88.8953H188.385Z" fill="#CCC4FF"/>
<path d="M229.759 94.5826C229.957 94.5826 230.131 94.4319 230.155 94.2257C233.296 65.3928 238.92 64.544 241.038 64.2267C241.252 64.195 241.403 63.9888 241.371 63.7746C241.339 63.5605 241.133 63.4097 240.919 63.4415C237.032 64.0284 232.21 68.042 229.37 94.1384C229.346 94.3526 229.505 94.5509 229.719 94.5747C229.735 94.5747 229.751 94.5747 229.759 94.5747V94.5826Z" fill="#CCC4FF"/>
<path d="M165.874 112.874H206.153V116.285H165.874V112.874Z" fill="#1D0D00"/>
<path d="M129.474 116.277H174.195L162.217 86.7536C161.369 84.6517 159.33 83.2794 157.062 83.2794H120.217C118.242 83.2794 116.902 85.2783 117.639 87.1027L129.474 116.269V116.277Z" fill="#1D0D00"/>
<path d="M229.759 95.7486L228.759 102.642L196.936 109.352C196.936 109.352 189.853 107.829 187.672 108.567C186.426 108.987 179.279 114.08 179.279 116.277H237.675C241.538 116.277 246.178 107.258 247.582 98.7707C247.582 98.7707 240.229 98.1123 229.767 95.7407L229.759 95.7486Z" fill="#B8ACFF"/>
<path d="M208.437 63.7825C213.093 63.7825 217.67 61.5219 220.485 57.8017C220.62 57.6272 220.581 57.3813 220.406 57.2465C220.232 57.1117 219.986 57.1513 219.851 57.3258C217.091 60.9746 212.553 63.1241 207.969 62.9814C206.422 62.9258 204.233 62.5689 202.607 61.1649C201.092 59.8561 200.457 57.8017 201.06 56.1757C201.139 55.9694 201.028 55.7394 200.83 55.668C200.624 55.5887 200.394 55.6997 200.322 55.8981C199.6 57.8255 200.33 60.2448 202.091 61.7678C203.892 63.3224 206.271 63.719 207.945 63.7746C208.111 63.7746 208.27 63.7825 208.437 63.7825Z" fill="#CCC4FF"/>
<path d="M94.089 99.7859H105.194C105.194 99.7859 104.98 116.285 94.089 116.285C83.1983 116.285 82.9842 99.7859 82.9842 99.7859H94.089Z" fill="#1D0D00"/>
<path d="M90.8047 83.4143C89.9956 75.9978 90.8047 69.9774 88.8296 64.4329C85.9265 56.2392 79.5333 49.8539 73.3304 43.7621C77.9865 52.9394 76.3684 64.3933 81.3259 73.412C83.5152 77.3939 87.2273 79.0834 90.8047 83.4064V83.4143Z" fill="white"/>
<path d="M95.1275 78.1792C94.0012 69.0018 92.7083 64.2426 93.8981 57.9763C95.659 48.7037 101.751 40.272 106.835 32.9269C103.559 43.4686 106.399 55.8029 102.814 66.2097C101.235 70.8024 97.9672 73.063 95.1275 78.1792Z" fill="#52B7CB"/>
<path d="M100.085 86.2619C100.886 79.94 100.292 74.7922 102.044 70.0885C104.646 63.14 110.199 57.778 115.584 52.6697C111.476 60.4352 112.689 70.2392 108.327 77.8698C106.399 81.2409 103.203 82.6211 100.085 86.2698V86.2619Z" fill="white"/>
<path d="M95.2388 111.2C95.4451 111.2 95.6196 111.042 95.6354 110.835C97.0156 94.8365 102.171 77.9888 110.944 60.7525C111.047 60.5542 110.968 60.3163 110.77 60.2211C110.571 60.118 110.333 60.1973 110.238 60.3956C101.418 77.7192 96.2383 94.6699 94.8422 110.764C94.8264 110.978 94.985 111.176 95.2071 111.192C95.215 111.192 95.2309 111.192 95.2388 111.192V111.2Z" fill="#1D0D00"/>
<path d="M93.4224 111.2C93.6445 111.2 93.819 111.026 93.819 110.804C93.819 80.6539 96.968 67.8913 100.022 55.5491C100.585 53.2567 101.172 50.885 101.719 48.4737C101.767 48.2595 101.632 48.0454 101.418 47.9978C101.204 47.9502 100.99 48.085 100.942 48.2992C100.395 50.7105 99.8156 53.0743 99.2525 55.3587C96.1907 67.7485 93.0258 80.5587 93.0258 110.804C93.0258 111.026 93.2003 111.2 93.4224 111.2Z" fill="#1D0D00"/>
<path d="M93.4223 111.2C93.4223 111.2 93.4303 111.2 93.4382 111.2C93.6603 111.192 93.8269 111.01 93.8189 110.788C92.5815 79.3452 87.8144 69.7712 81.7702 57.659C81.2308 56.5723 80.6756 55.4698 80.1203 54.3196C80.0251 54.1213 79.7872 54.042 79.5889 54.1372C79.3906 54.2324 79.3113 54.4703 79.4064 54.6686C79.9696 55.8188 80.5249 56.9213 81.0642 58.008C87.0609 70.033 91.7963 79.5355 93.0257 110.812C93.0337 111.026 93.2082 111.192 93.4223 111.192V111.2Z" fill="#1D0D00"/>
</g>
</g>
<rect x="8" y="12" width="126.039" height="39.7427" rx="7.75155" fill="#383838"/>
<path d="M24.392 38L21.416 26.8H23.464L25.56 35.808L27.992 26.8H30.12L32.472 35.824L34.584 26.8H36.648L33.592 38H31.32L29.016 29.52L26.648 38H24.392ZM38.1189 38V26.48H40.0389V31.184C40.3055 30.7467 40.6682 30.4 41.1269 30.144C41.5855 29.8773 42.1029 29.744 42.6789 29.744C43.3402 29.744 43.9002 29.8827 44.3589 30.16C44.8175 30.4267 45.1642 30.8267 45.3989 31.36C45.6442 31.8827 45.7669 32.5387 45.7669 33.328V38H43.8629V33.504C43.8629 32.8107 43.7135 32.2827 43.4149 31.92C43.1269 31.5573 42.6842 31.376 42.0869 31.376C41.7029 31.376 41.3562 31.472 41.0469 31.664C40.7375 31.8453 40.4922 32.112 40.3109 32.464C40.1295 32.8053 40.0389 33.2267 40.0389 33.728V38H38.1189ZM51.5664 38.192C50.7984 38.192 50.105 38.016 49.4864 37.664C48.8784 37.3013 48.3984 36.8053 48.0464 36.176C47.705 35.536 47.5344 34.8053 47.5344 33.984C47.5344 33.1413 47.7104 32.4053 48.0624 31.776C48.4144 31.136 48.8944 30.64 49.5024 30.288C50.121 29.9253 50.8144 29.744 51.5824 29.744C52.3504 29.744 53.0384 29.9253 53.6464 30.288C54.265 30.64 54.745 31.1307 55.0864 31.76C55.4384 32.3893 55.6144 33.1253 55.6144 33.968C55.6144 34.8107 55.4384 35.5467 55.0864 36.176C54.7344 36.8053 54.249 37.3013 53.6304 37.664C53.0224 38.016 52.3344 38.192 51.5664 38.192ZM51.5664 36.544C51.9504 36.544 52.297 36.448 52.6064 36.256C52.9264 36.064 53.1824 35.776 53.3744 35.392C53.5664 35.008 53.6624 34.5333 53.6624 33.968C53.6624 33.4027 53.5664 32.9333 53.3744 32.56C53.193 32.176 52.9424 31.888 52.6224 31.696C52.313 31.504 51.9664 31.408 51.5824 31.408C51.209 31.408 50.8624 31.504 50.5424 31.696C50.2224 31.888 49.9664 32.176 49.7744 32.56C49.5824 32.9333 49.4864 33.4027 49.4864 33.968C49.4864 34.5333 49.5824 35.008 49.7744 35.392C49.9664 35.776 50.217 36.064 50.5264 36.256C50.8464 36.448 51.193 36.544 51.5664 36.544ZM63.7201 38L60.7441 26.8H62.7921L64.8881 35.808L67.3201 26.8H69.4481L71.8001 35.824L73.9121 26.8H75.9761L72.9201 38H70.6481L68.3441 29.52L65.9761 38H63.7201ZM80.3793 38.192C79.5793 38.192 78.8753 38.0213 78.2673 37.68C77.6593 37.328 77.1846 36.8373 76.8433 36.208C76.5019 35.5787 76.3313 34.8533 76.3313 34.032C76.3313 33.1787 76.4966 32.432 76.8273 31.792C77.1686 31.152 77.6433 30.6507 78.2513 30.288C78.8699 29.9253 79.5846 29.744 80.3953 29.744C81.1846 29.744 81.8726 29.92 82.4593 30.272C83.0459 30.624 83.4993 31.0987 83.8193 31.696C84.1393 32.2827 84.2993 32.944 84.2993 33.68C84.2993 33.7867 84.2993 33.904 84.2993 34.032C84.2993 34.16 84.2886 34.2933 84.2673 34.432H77.7073V33.2H82.3633C82.3419 32.6133 82.1446 32.1547 81.7713 31.824C81.3979 31.4827 80.9339 31.312 80.3793 31.312C79.9846 31.312 79.6219 31.4027 79.2913 31.584C78.9606 31.7653 78.6993 32.0373 78.5073 32.4C78.3153 32.752 78.2193 33.2 78.2193 33.744V34.208C78.2193 34.7093 78.3099 35.1413 78.4913 35.504C78.6833 35.8667 78.9393 36.144 79.2593 36.336C79.5899 36.5173 79.9579 36.608 80.3633 36.608C80.8113 36.608 81.1793 36.512 81.4673 36.32C81.7659 36.128 81.9846 35.872 82.1233 35.552H84.0753C83.9259 36.0533 83.6806 36.5067 83.3393 36.912C82.9979 37.3067 82.5766 37.6213 82.0753 37.856C81.5739 38.08 81.0086 38.192 80.3793 38.192ZM89.3063 38L93.4023 26.8H95.5463L99.6423 38H97.6103L94.4583 29.04L91.3063 38H89.3063ZM91.1303 35.36L91.6423 33.84H97.1623L97.6743 35.36H91.1303ZM101.119 38V29.936H102.831L103.007 31.44C103.199 31.088 103.439 30.7893 103.727 30.544C104.015 30.288 104.351 30.0907 104.735 29.952C105.13 29.8133 105.562 29.744 106.031 29.744V31.776H105.359C105.039 31.776 104.735 31.8187 104.447 31.904C104.159 31.9787 103.908 32.1067 103.695 32.288C103.492 32.4587 103.332 32.6987 103.215 33.008C103.098 33.3067 103.039 33.6853 103.039 34.144V38H101.119ZM111.082 38.192C110.282 38.192 109.578 38.0213 108.97 37.68C108.362 37.328 107.888 36.8373 107.546 36.208C107.205 35.5787 107.034 34.8533 107.034 34.032C107.034 33.1787 107.2 32.432 107.53 31.792C107.872 31.152 108.346 30.6507 108.954 30.288C109.573 29.9253 110.288 29.744 111.098 29.744C111.888 29.744 112.576 29.92 113.162 30.272C113.749 30.624 114.202 31.0987 114.522 31.696C114.842 32.2827 115.002 32.944 115.002 33.68C115.002 33.7867 115.002 33.904 115.002 34.032C115.002 34.16 114.992 34.2933 114.97 34.432H108.41V33.2H113.066C113.045 32.6133 112.848 32.1547 112.474 31.824C112.101 31.4827 111.637 31.312 111.082 31.312C110.688 31.312 110.325 31.4027 109.994 31.584C109.664 31.7653 109.402 32.0373 109.21 32.4C109.018 32.752 108.922 33.2 108.922 33.744V34.208C108.922 34.7093 109.013 35.1413 109.194 35.504C109.386 35.8667 109.642 36.144 109.962 36.336C110.293 36.5173 110.661 36.608 111.066 36.608C111.514 36.608 111.882 36.512 112.17 36.32C112.469 36.128 112.688 35.872 112.826 35.552H114.778C114.629 36.0533 114.384 36.5067 114.042 36.912C113.701 37.3067 113.28 37.6213 112.778 37.856C112.277 38.08 111.712 38.192 111.082 38.192Z" fill="#ECECEC"/>
<defs>
<linearGradient id="paint0_linear_22_712" x1="126" y1="0" x2="126" y2="115" gradientUnits="userSpaceOnUse">
<stop stop-color="#ECECEC"/>
<stop offset="1" stop-color="#EDEDED"/>
</linearGradient>
<linearGradient id="paint1_linear_22_712" x1="126" y1="0" x2="126" y2="115" gradientUnits="userSpaceOnUse">
<stop stop-color="#ECECEC"/>
<stop offset="1" stop-color="#EDEDED"/>
</linearGradient>
</defs>
</svg>
